<?xml version="1.0" encoding="UTF-8"?>
<svg xmlns="http://www.w3.org/2000/svg"
     width="864.00" height="36.00"
     viewBox="0 0 864.00 36.00">
  <title>Pattern Banner - rat-king</title>
  <desc>Randomized pattern strip with 60 cells</desc>
  <rect width="100%" height="100%" fill="white"/>
  <g stroke="#FFCA3A" stroke-width="1" fill="none" stroke-linecap="round">
    <line x1="14.40" y1="27.54" x2="10.06" y2="19.71"/>
    <line x1="4.41" y1="36.00" x2="7.92" y2="34.05"/>
    <line x1="0.00" y1="21.99" x2="14.40" y2="14.01"/>
    <line x1="6.48" y1="1.95" x2="9.99" y2="0.00"/>
    <line x1="4.34" y1="16.29" x2="-0.00" y2="8.46"/>
  </g>
  <g stroke="#8338EC" stroke-width="1" fill="none" stroke-linecap="round">
    <line x1="26.68" y1="0.00" x2="28.80" y2="9.18"/>
    <line x1="23.60" y1="0.00" x2="28.80" y2="22.51"/>
    <line x1="20.52" y1="0.00" x2="28.80" y2="35.85"/>
    <line x1="17.44" y1="0.00" x2="25.76" y2="36.00"/>
    <line x1="14.40" y1="0.15" x2="22.68" y2="36.00"/>
    <line x1="14.40" y1="13.49" x2="19.60" y2="36.00"/>
    <line x1="14.40" y1="26.82" x2="16.52" y2="36.00"/>
  </g>
  <g stroke="#8338EC" stroke-width="1" fill="none" stroke-linecap="round">
    <line x1="43.20" y1="35.74" x2="42.91" y2="36.00"/>
    <line x1="43.20" y1="31.70" x2="38.43" y2="36.00"/>
    <line x1="43.20" y1="27.66" x2="33.94" y2="36.00"/>
    <line x1="43.20" y1="23.63" x2="29.46" y2="36.00"/>
    <line x1="43.20" y1="19.59" x2="28.80" y2="32.56"/>
    <line x1="43.20" y1="15.55" x2="28.80" y2="28.52"/>
    <line x1="43.20" y1="11.52" x2="28.80" y2="24.48"/>
    <line x1="43.20" y1="7.48" x2="28.80" y2="20.45"/>
    <line x1="43.20" y1="3.44" x2="28.80" y2="16.41"/>
    <line x1="42.54" y1="0.00" x2="28.80" y2="12.37"/>
    <line x1="38.06" y1="0.00" x2="28.80" y2="8.34"/>
    <line x1="33.57" y1="0.00" x2="28.80" y2="4.30"/>
    <line x1="29.09" y1="0.00" x2="28.80" y2="0.26"/>
    <line x1="32.02" y1="36.00" x2="28.80" y2="32.42"/>
    <line x1="36.06" y1="36.00" x2="28.80" y2="27.94"/>
    <line x1="40.10" y1="36.00" x2="28.80" y2="23.45"/>
    <line x1="43.20" y1="34.96" x2="28.80" y2="18.97"/>
    <line x1="43.20" y1="30.48" x2="28.80" y2="14.49"/>
    <line x1="43.20" y1="26.00" x2="28.80" y2="10.00"/>
    <line x1="43.20" y1="21.51" x2="28.80" y2="5.52"/>
    <line x1="43.20" y1="17.03" x2="28.80" y2="1.04"/>
    <line x1="43.20" y1="12.55" x2="31.90" y2="0.00"/>
    <line x1="43.20" y1="8.06" x2="35.94" y2="-0.00"/>
    <line x1="43.20" y1="3.58" x2="39.98" y2="0.00"/>
  </g>
  <g stroke="#4CC9F0" stroke-width="1" fill="none" stroke-linecap="round">
    <line x1="55.90" y1="36.00" x2="55.57" y2="35.50"/>
    <line x1="52.59" y1="35.87" x2="52.55" y2="36.00"/>
    <line x1="57.51" y1="36.00" x2="55.21" y2="32.52"/>
    <line x1="52.23" y1="32.89" x2="51.12" y2="36.00"/>
    <line x1="44.63" y1="36.00" x2="43.30" y2="33.99"/>
    <line x1="57.60" y1="33.70" x2="54.84" y2="29.54"/>
    <line x1="51.86" y1="29.91" x2="49.70" y2="36.00"/>
    <line x1="46.24" y1="36.00" x2="43.20" y2="31.42"/>
    <line x1="57.60" y1="31.28" x2="54.47" y2="26.57"/>
    <line x1="51.50" y1="26.93" x2="49.25" y2="33.25"/>
    <line x1="46.27" y1="33.62" x2="43.20" y2="28.99"/>
    <line x1="57.60" y1="28.85" x2="54.11" y2="23.59"/>
    <line x1="51.13" y1="23.96" x2="48.88" y2="30.28"/>
    <line x1="45.91" y1="30.64" x2="43.20" y2="26.56"/>
    <line x1="57.45" y1="26.20" x2="53.74" y2="20.61"/>
    <line x1="50.77" y1="20.98" x2="48.52" y2="27.30"/>
    <line x1="45.54" y1="27.66" x2="43.20" y2="24.14"/>
    <line x1="57.09" y1="23.22" x2="53.38" y2="17.63"/>
    <line x1="50.40" y1="18.00" x2="48.15" y2="24.32"/>
    <line x1="45.18" y1="24.69" x2="43.20" y2="21.71"/>
    <line x1="56.72" y1="20.25" x2="53.01" y2="14.66"/>
    <line x1="50.03" y1="15.02" x2="47.79" y2="21.34"/>
    <line x1="44.81" y1="21.71" x2="43.20" y2="19.28"/>
    <line x1="56.36" y1="17.27" x2="52.65" y2="11.68"/>
    <line x1="49.67" y1="12.04" x2="47.42" y2="18.37"/>
    <line x1="44.44" y1="18.73" x2="43.20" y2="16.86"/>
    <line x1="55.99" y1="14.29" x2="52.28" y2="8.70"/>
    <line x1="49.30" y1="9.07" x2="47.06" y2="15.39"/>
    <line x1="44.08" y1="15.75" x2="43.20" y2="14.43"/>
    <line x1="55.62" y1="11.31" x2="51.92" y2="5.72"/>
    <line x1="48.94" y1="6.09" x2="46.69" y2="12.41"/>
    <line x1="43.71" y1="12.78" x2="43.20" y2="12.00"/>
    <line x1="55.26" y1="8.34" x2="51.55" y2="2.75"/>
    <line x1="48.57" y1="3.11" x2="46.33" y2="9.43"/>
    <line x1="43.35" y1="9.80" x2="43.20" y2="9.58"/>
    <line x1="54.89" y1="5.36" x2="51.34" y2="0.00"/>
    <line x1="48.21" y1="0.13" x2="45.96" y2="6.46"/>
    <line x1="57.60" y1="1.75" x2="57.50" y2="2.01"/>
    <line x1="54.53" y1="2.38" x2="52.95" y2="0.00"/>
    <line x1="46.83" y1="0.00" x2="45.59" y2="3.48"/>
    <line x1="45.41" y1="0.00" x2="45.23" y2="0.50"/>
  </g>
  <g stroke="#00B4D8" stroke-width="1" fill="none" stroke-linecap="round">
    <line x1="58.64" y1="35.86" x2="58.79" y2="36.00"/>
    <line x1="59.41" y1="36.00" x2="71.15" y2="23.42"/>
    <line x1="58.22" y1="11.86" x2="71.38" y2="24.14"/>
    <line x1="58.45" y1="12.58" x2="70.19" y2="-0.00"/>
    <line x1="70.81" y1="0.00" x2="70.96" y2="0.14"/>
  </g>
  <g stroke="#264653" stroke-width="1" fill="none" stroke-linecap="round">
    <line x1="86.15" y1="0.00" x2="84.26" y2="36.00"/>
    <line x1="83.15" y1="0.00" x2="81.26" y2="36.00"/>
    <line x1="80.14" y1="0.00" x2="78.26" y2="36.00"/>
    <line x1="77.14" y1="0.00" x2="75.25" y2="36.00"/>
    <line x1="74.14" y1="0.00" x2="72.25" y2="36.00"/>
  </g>
  <g stroke="#00B4D8" stroke-width="1" fill="none" stroke-linecap="round">
    <line x1="100.80" y1="33.21" x2="100.46" y2="36.00"/>
    <line x1="100.80" y1="8.59" x2="97.43" y2="36.00"/>
    <line x1="98.83" y1="0.00" x2="94.41" y2="36.00"/>
    <line x1="95.81" y1="-0.00" x2="91.39" y2="36.00"/>
    <line x1="92.79" y1="0.00" x2="88.37" y2="36.00"/>
    <line x1="89.77" y1="0.00" x2="86.40" y2="27.41"/>
    <line x1="86.74" y1="0.00" x2="86.40" y2="2.79"/>
    <line x1="92.50" y1="36.00" x2="86.40" y2="35.25"/>
    <line x1="100.80" y1="34.00" x2="86.40" y2="32.23"/>
    <line x1="100.80" y1="30.97" x2="86.40" y2="29.21"/>
    <line x1="100.80" y1="27.95" x2="86.40" y2="26.18"/>
    <line x1="100.80" y1="24.93" x2="86.40" y2="23.16"/>
    <line x1="100.80" y1="21.91" x2="86.40" y2="20.14"/>
    <line x1="100.80" y1="18.88" x2="86.40" y2="17.12"/>
    <line x1="100.80" y1="15.86" x2="86.40" y2="14.09"/>
    <line x1="100.80" y1="12.84" x2="86.40" y2="11.07"/>
    <line x1="100.80" y1="9.82" x2="86.40" y2="8.05"/>
    <line x1="100.80" y1="6.79" x2="86.40" y2="5.03"/>
    <line x1="100.80" y1="3.77" x2="86.40" y2="2.00"/>
    <line x1="100.80" y1="0.75" x2="94.70" y2="0.00"/>
  </g>
  <g stroke="#90BE6D" stroke-width="1" fill="none" stroke-linecap="round">
    <line x1="109.73" y1="0.00" x2="115.20" y2="1.06"/>
    <line x1="100.80" y1="1.32" x2="115.20" y2="4.12"/>
    <line x1="100.80" y1="4.38" x2="115.20" y2="7.17"/>
    <line x1="100.80" y1="7.43" x2="115.20" y2="10.23"/>
    <line x1="100.80" y1="10.49" x2="115.20" y2="13.29"/>
    <line x1="100.80" y1="13.54" x2="115.20" y2="16.34"/>
    <line x1="100.80" y1="16.60" x2="115.20" y2="19.40"/>
    <line x1="100.80" y1="19.66" x2="115.20" y2="22.46"/>
    <line x1="100.80" y1="22.71" x2="115.20" y2="25.51"/>
    <line x1="100.80" y1="25.77" x2="115.20" y2="28.57"/>
    <line x1="100.80" y1="28.83" x2="115.20" y2="31.62"/>
    <line x1="100.80" y1="31.88" x2="115.20" y2="34.68"/>
    <line x1="100.80" y1="34.94" x2="106.27" y2="36.00"/>
    <line x1="115.20" y1="28.13" x2="113.67" y2="36.00"/>
    <line x1="115.20" y1="12.40" x2="110.61" y2="36.00"/>
    <line x1="114.55" y1="0.00" x2="107.56" y2="36.00"/>
    <line x1="111.50" y1="0.00" x2="104.50" y2="36.00"/>
    <line x1="108.44" y1="0.00" x2="101.45" y2="36.00"/>
    <line x1="105.39" y1="0.00" x2="100.80" y2="23.60"/>
    <line x1="102.33" y1="0.00" x2="100.80" y2="7.87"/>
  </g>
  <g stroke="#6A4C93" stroke-width="1" fill="none" stroke-linecap="round">
    <line x1="129.60" y1="28.00" x2="125.37" y2="19.69"/>
    <line x1="119.38" y1="36.00" x2="122.91" y2="34.20"/>
    <line x1="115.20" y1="21.67" x2="129.60" y2="14.33"/>
    <line x1="121.89" y1="1.80" x2="125.42" y2="0.00"/>
    <line x1="119.43" y1="16.31" x2="115.20" y2="8.00"/>
  </g>
  <g stroke="#E9C46A" stroke-width="1" fill="none" stroke-linecap="round">
    <line x1="129.60" y1="0.00" x2="144.00" y2="0.00"/>
    <line x1="144.00" y1="0.00" x2="144.00" y2="36.00"/>
    <line x1="144.00" y1="36.00" x2="129.60" y2="36.00"/>
    <line x1="129.60" y1="36.00" x2="129.60" y2="0.00"/>
    <line x1="129.60" y1="36.00" x2="130.71" y2="33.21"/>
    <line x1="130.71" y1="2.79" x2="142.89" y2="2.79"/>
    <line x1="142.89" y1="2.79" x2="142.89" y2="33.21"/>
    <line x1="142.89" y1="33.21" x2="130.71" y2="33.21"/>
    <line x1="130.71" y1="33.21" x2="130.71" y2="2.79"/>
    <line x1="130.71" y1="33.21" x2="131.83" y2="30.43"/>
    <line x1="131.83" y1="5.57" x2="141.77" y2="5.57"/>
    <line x1="141.77" y1="5.57" x2="141.77" y2="30.43"/>
    <line x1="141.77" y1="30.43" x2="131.83" y2="30.43"/>
    <line x1="131.83" y1="30.43" x2="131.83" y2="5.57"/>
    <line x1="131.83" y1="30.43" x2="132.94" y2="27.64"/>
    <line x1="132.94" y1="8.36" x2="140.66" y2="8.36"/>
    <line x1="140.66" y1="8.36" x2="140.66" y2="27.64"/>
    <line x1="140.66" y1="27.64" x2="132.94" y2="27.64"/>
    <line x1="132.94" y1="27.64" x2="132.94" y2="8.36"/>
    <line x1="132.94" y1="27.64" x2="134.06" y2="24.86"/>
    <line x1="134.06" y1="11.14" x2="139.54" y2="11.14"/>
    <line x1="139.54" y1="11.14" x2="139.54" y2="24.86"/>
    <line x1="139.54" y1="24.86" x2="134.06" y2="24.86"/>
    <line x1="134.06" y1="24.86" x2="134.06" y2="11.14"/>
    <line x1="134.06" y1="24.86" x2="135.17" y2="22.07"/>
    <line x1="135.17" y1="13.93" x2="138.43" y2="13.93"/>
    <line x1="138.43" y1="13.93" x2="138.43" y2="22.07"/>
    <line x1="138.43" y1="22.07" x2="135.17" y2="22.07"/>
    <line x1="135.17" y1="22.07" x2="135.17" y2="13.93"/>
  </g>
  <g stroke="#E9C46A" stroke-width="1" fill="none" stroke-linecap="round">
    <line x1="158.40" y1="1.13" x2="157.83" y2="4.22"/>
    <line x1="148.84" y1="1.19" x2="151.24" y2="0.00"/>
    <line x1="157.24" y1="0.01" x2="156.03" y2="6.61"/>
    <line x1="144.97" y1="-0.00" x2="144.64" y2="1.79"/>
    <line x1="147.03" y1="3.59" x2="153.04" y2="0.60"/>
    <line x1="155.44" y1="2.41" x2="154.22" y2="9.01"/>
    <line x1="156.62" y1="10.81" x2="158.40" y2="9.93"/>
    <line x1="145.23" y1="5.99" x2="151.23" y2="3.00"/>
    <line x1="153.63" y1="4.81" x2="152.41" y2="11.40"/>
    <line x1="154.81" y1="13.21" x2="158.40" y2="11.42"/>
    <line x1="144.00" y1="8.09" x2="149.43" y2="5.40"/>
    <line x1="151.82" y1="7.20" x2="150.61" y2="13.80"/>
    <line x1="153.01" y1="15.60" x2="158.40" y2="12.92"/>
    <line x1="144.00" y1="9.59" x2="147.62" y2="7.79"/>
    <line x1="150.02" y1="9.60" x2="148.80" y2="16.19"/>
    <line x1="151.20" y1="18.00" x2="157.21" y2="15.01"/>
    <line x1="158.40" y1="23.35" x2="158.39" y2="23.42"/>
    <line x1="144.00" y1="11.09" x2="145.82" y2="10.19"/>
    <line x1="148.21" y1="11.99" x2="147.00" y2="18.59"/>
    <line x1="149.39" y1="20.40" x2="155.40" y2="17.41"/>
    <line x1="157.80" y1="19.21" x2="156.58" y2="25.81"/>
    <line x1="144.00" y1="12.59" x2="144.01" y2="12.58"/>
    <line x1="146.41" y1="14.39" x2="145.19" y2="20.99"/>
    <line x1="147.59" y1="22.79" x2="153.60" y2="19.81"/>
    <line x1="155.99" y1="21.61" x2="154.78" y2="28.21"/>
    <line x1="157.17" y1="30.01" x2="158.40" y2="29.40"/>
    <line x1="144.60" y1="16.79" x2="144.00" y2="20.06"/>
    <line x1="145.78" y1="25.19" x2="151.79" y2="22.20"/>
    <line x1="154.19" y1="24.01" x2="152.97" y2="30.60"/>
    <line x1="155.37" y1="32.41" x2="158.40" y2="30.90"/>
    <line x1="144.00" y1="27.57" x2="149.99" y2="24.60"/>
    <line x1="152.38" y1="26.40" x2="151.17" y2="33.00"/>
    <line x1="153.56" y1="34.81" x2="158.40" y2="32.40"/>
    <line x1="144.00" y1="29.07" x2="148.18" y2="26.99"/>
    <line x1="150.58" y1="28.80" x2="149.36" y2="35.40"/>
    <line x1="154.17" y1="36.00" x2="157.76" y2="34.21"/>
    <line x1="144.00" y1="30.57" x2="146.37" y2="29.39"/>
    <line x1="148.77" y1="31.19" x2="147.89" y2="36.00"/>
    <line x1="144.00" y1="32.07" x2="144.57" y2="31.78"/>
    <line x1="146.96" y1="33.59" x2="146.52" y2="36.00"/>
    <line x1="145.16" y1="35.99" x2="145.16" y2="36.00"/>
  </g>
  <g stroke="#4361EE" stroke-width="1" fill="none" stroke-linecap="round">
    <line x1="171.18" y1="0.00" x2="172.80" y2="4.45"/>
    <line x1="169.26" y1="0.00" x2="172.80" y2="9.71"/>
    <line x1="167.35" y1="0.00" x2="172.80" y2="14.98"/>
    <line x1="160.96" y1="0.00" x2="172.80" y2="32.52"/>
    <line x1="159.05" y1="0.00" x2="172.15" y2="36.00"/>
    <line x1="158.40" y1="3.48" x2="170.24" y2="36.00"/>
    <line x1="158.40" y1="21.02" x2="163.85" y2="36.00"/>
    <line x1="158.40" y1="26.29" x2="161.94" y2="36.00"/>
    <line x1="158.40" y1="31.55" x2="160.02" y2="36.00"/>
  </g>
  <g stroke="#FF595E" stroke-width="1" fill="none" stroke-linecap="round">
    <line x1="184.11" y1="1.53" x2="187.20" y2="1.29"/>
    <line x1="180.31" y1="0.00" x2="179.99" y2="0.51"/>
    <line x1="181.53" y1="3.08" x2="187.20" y2="2.64"/>
    <line x1="187.20" y1="9.17" x2="186.17" y2="10.79"/>
    <line x1="178.72" y1="0.00" x2="177.42" y2="2.05"/>
    <line x1="178.96" y1="4.62" x2="185.65" y2="4.11"/>
    <line x1="187.20" y1="6.68" x2="183.60" y2="12.34"/>
    <line x1="185.14" y1="14.91" x2="187.20" y2="14.75"/>
    <line x1="177.13" y1="0.00" x2="174.85" y2="3.60"/>
    <line x1="176.39" y1="6.17" x2="183.08" y2="5.65"/>
    <line x1="184.62" y1="8.22" x2="181.03" y2="13.88"/>
    <line x1="182.57" y1="16.45" x2="187.20" y2="16.10"/>
    <line x1="175.54" y1="0.00" x2="172.80" y2="4.32"/>
    <line x1="173.82" y1="7.71" x2="180.51" y2="7.20"/>
    <line x1="182.05" y1="9.77" x2="178.45" y2="15.43"/>
    <line x1="180.00" y1="18.00" x2="186.69" y2="17.48"/>
    <line x1="187.20" y1="21.68" x2="184.64" y2="25.71"/>
    <line x1="186.18" y1="28.29" x2="187.20" y2="28.21"/>
    <line x1="173.30" y1="1.03" x2="172.80" y2="1.81"/>
    <line x1="172.80" y1="9.14" x2="177.94" y2="8.74"/>
    <line x1="179.48" y1="11.31" x2="175.88" y2="16.97"/>
    <line x1="177.43" y1="19.55" x2="184.12" y2="19.03"/>
    <line x1="185.66" y1="21.60" x2="182.06" y2="27.26"/>
    <line x1="183.61" y1="29.83" x2="187.20" y2="29.55"/>
    <line x1="172.80" y1="10.48" x2="175.36" y2="10.29"/>
    <line x1="176.91" y1="12.86" x2="173.31" y2="18.52"/>
    <line x1="174.86" y1="21.09" x2="181.55" y2="20.57"/>
    <line x1="183.09" y1="23.14" x2="179.49" y2="28.80"/>
    <line x1="181.04" y1="31.38" x2="187.20" y2="30.90"/>
    <line x1="174.34" y1="14.40" x2="172.80" y2="16.82"/>
    <line x1="172.80" y1="22.60" x2="178.97" y2="22.12"/>
    <line x1="180.52" y1="24.69" x2="176.92" y2="30.35"/>
    <line x1="178.47" y1="32.92" x2="185.15" y2="32.40"/>
    <line x1="186.70" y1="34.97" x2="186.05" y2="36.00"/>
    <line x1="172.80" y1="23.94" x2="176.40" y2="23.66"/>
    <line x1="177.95" y1="26.23" x2="174.35" y2="31.89"/>
    <line x1="175.89" y1="34.47" x2="182.58" y2="33.95"/>
    <line x1="172.80" y1="25.29" x2="173.83" y2="25.21"/>
    <line x1="175.38" y1="27.78" x2="172.80" y2="31.83"/>
    <line x1="173.47" y1="36.00" x2="180.01" y2="35.49"/>
    <line x1="172.80" y1="29.32" x2="172.80" y2="29.33"/>
  </g>
  <g stroke="#4361EE" stroke-width="1" fill="none" stroke-linecap="round">
    <line x1="201.60" y1="33.95" x2="200.89" y2="36.00"/>
    <line x1="201.60" y1="24.73" x2="197.72" y2="36.00"/>
    <line x1="201.60" y1="15.52" x2="194.55" y2="36.00"/>
    <line x1="201.60" y1="6.30" x2="191.37" y2="36.00"/>
    <line x1="200.60" y1="0.00" x2="188.20" y2="36.00"/>
    <line x1="197.43" y1="-0.00" x2="187.20" y2="29.70"/>
    <line x1="194.25" y1="0.00" x2="187.20" y2="20.48"/>
    <line x1="191.08" y1="0.00" x2="187.20" y2="11.27"/>
    <line x1="187.91" y1="0.00" x2="187.20" y2="2.05"/>
  </g>
  <g stroke="#3A86FF" stroke-width="1" fill="none" stroke-linecap="round">
    <line x1="208.50" y1="1.03" x2="211.43" y2="-0.00"/>
    <line x1="216.00" y1="4.03" x2="214.98" y2="7.28"/>
    <line x1="204.61" y1="0.00" x2="204.26" y2="1.11"/>
    <line x1="206.42" y1="3.19" x2="212.75" y2="0.96"/>
    <line x1="214.90" y1="3.04" x2="212.89" y2="9.44"/>
    <line x1="215.05" y1="11.53" x2="216.00" y2="11.19"/>
    <line x1="203.20" y1="0.00" x2="202.18" y2="3.26"/>
    <line x1="204.34" y1="5.35" x2="210.66" y2="3.12"/>
    <line x1="212.82" y1="5.20" x2="210.81" y2="11.60"/>
    <line x1="212.97" y1="13.68" x2="216.00" y2="12.61"/>
    <line x1="201.80" y1="0.00" x2="201.60" y2="0.63"/>
    <line x1="202.25" y1="7.51" x2="208.58" y2="5.27"/>
    <line x1="210.74" y1="7.36" x2="208.73" y2="13.76"/>
    <line x1="210.88" y1="15.84" x2="216.00" y2="14.04"/>
    <line x1="201.60" y1="9.16" x2="206.49" y2="7.43"/>
    <line x1="208.65" y1="9.52" x2="206.64" y2="15.92"/>
    <line x1="208.80" y1="18.00" x2="215.13" y2="15.77"/>
    <line x1="216.00" y1="21.94" x2="215.27" y2="24.25"/>
    <line x1="201.60" y1="10.58" x2="204.41" y2="9.59"/>
    <line x1="206.57" y1="11.67" x2="204.56" y2="18.07"/>
    <line x1="206.72" y1="20.16" x2="213.04" y2="17.93"/>
    <line x1="215.20" y1="20.01" x2="213.19" y2="26.41"/>
    <line x1="215.35" y1="28.49" x2="216.00" y2="28.26"/>
    <line x1="201.60" y1="12.00" x2="202.33" y2="11.75"/>
    <line x1="204.48" y1="13.83" x2="202.47" y2="20.23"/>
    <line x1="204.63" y1="22.32" x2="210.96" y2="20.08"/>
    <line x1="213.12" y1="22.17" x2="211.11" y2="28.57"/>
    <line x1="213.26" y1="30.65" x2="216.00" y2="29.69"/>
    <line x1="202.40" y1="15.99" x2="201.60" y2="18.54"/>
    <line x1="202.55" y1="24.47" x2="208.87" y2="22.24"/>
    <line x1="211.03" y1="24.33" x2="209.02" y2="30.73"/>
    <line x1="211.18" y1="32.81" x2="216.00" y2="31.11"/>
    <line x1="201.60" y1="26.23" x2="206.79" y2="24.40"/>
    <line x1="208.95" y1="26.48" x2="206.94" y2="32.88"/>
    <line x1="209.10" y1="34.97" x2="215.42" y2="32.74"/>
    <line x1="201.60" y1="27.65" x2="204.71" y2="26.56"/>
    <line x1="206.86" y1="28.64" x2="204.85" y2="35.04"/>
    <line x1="210.20" y1="36.00" x2="213.34" y2="34.89"/>
    <line x1="201.60" y1="29.08" x2="202.62" y2="28.72"/>
    <line x1="204.78" y1="30.80" x2="203.15" y2="36.00"/>
    <line x1="202.70" y1="32.96" x2="201.74" y2="36.00"/>
  </g>
  <g stroke="#118AB2" stroke-width="1" fill="none" stroke-linecap="round">
    <line x1="230.40" y1="35.18" x2="230.18" y2="36.00"/>
    <line x1="230.40" y1="28.22" x2="228.32" y2="36.00"/>
    <line x1="230.40" y1="21.27" x2="226.45" y2="36.00"/>
    <line x1="229.89" y1="-0.00" x2="220.24" y2="36.00"/>
    <line x1="228.02" y1="0.00" x2="218.38" y2="36.00"/>
    <line x1="226.16" y1="0.00" x2="216.51" y2="36.00"/>
    <line x1="219.95" y1="0.00" x2="216.00" y2="14.73"/>
    <line x1="218.08" y1="0.00" x2="216.00" y2="7.78"/>
    <line x1="216.22" y1="0.00" x2="216.00" y2="0.82"/>
  </g>
  <g stroke="#118AB2" stroke-width="1" fill="none" stroke-linecap="round">
    <line x1="234.55" y1="0.00" x2="244.80" y2="1.44"/>
    <line x1="230.40" y1="5.48" x2="244.80" y2="7.50"/>
    <line x1="230.40" y1="7.29" x2="244.80" y2="9.32"/>
    <line x1="230.40" y1="9.11" x2="244.80" y2="11.14"/>
    <line x1="230.40" y1="15.17" x2="244.80" y2="17.19"/>
    <line x1="230.40" y1="16.99" x2="244.80" y2="19.01"/>
    <line x1="230.40" y1="18.81" x2="244.80" y2="20.83"/>
    <line x1="230.40" y1="24.86" x2="244.80" y2="26.89"/>
    <line x1="230.40" y1="26.68" x2="244.80" y2="28.71"/>
    <line x1="230.40" y1="28.50" x2="244.80" y2="30.52"/>
    <line x1="230.40" y1="34.56" x2="240.65" y2="36.00"/>
  </g>
  <g stroke="#00B4D8" stroke-width="1" fill="none" stroke-linecap="round">
    <line x1="255.72" y1="0.00" x2="259.20" y2="3.73"/>
    <line x1="251.62" y1="-0.00" x2="259.20" y2="8.13"/>
    <line x1="247.52" y1="-0.00" x2="259.20" y2="12.52"/>
    <line x1="244.80" y1="1.48" x2="259.20" y2="16.92"/>
    <line x1="244.80" y1="5.88" x2="259.20" y2="21.32"/>
    <line x1="244.80" y1="10.28" x2="259.20" y2="25.72"/>
    <line x1="244.80" y1="14.68" x2="259.20" y2="30.12"/>
    <line x1="244.80" y1="19.08" x2="259.20" y2="34.52"/>
    <line x1="244.80" y1="23.48" x2="256.48" y2="36.00"/>
    <line x1="244.80" y1="27.87" x2="252.38" y2="36.00"/>
    <line x1="244.80" y1="32.27" x2="248.28" y2="36.00"/>
  </g>
  <g stroke="#8338EC" stroke-width="1" fill="none" stroke-linecap="round">
    <line x1="261.06" y1="0.00" x2="273.60" y2="6.67"/>
    <line x1="259.20" y1="5.81" x2="273.60" y2="13.46"/>
    <line x1="259.20" y1="12.60" x2="273.60" y2="20.26"/>
    <line x1="259.20" y1="19.40" x2="273.60" y2="27.05"/>
    <line x1="259.20" y1="26.19" x2="273.60" y2="33.85"/>
    <line x1="259.20" y1="32.99" x2="264.87" y2="36.00"/>
    <line x1="260.81" y1="0.00" x2="259.20" y2="3.03"/>
    <line x1="267.60" y1="0.00" x2="259.20" y2="15.81"/>
    <line x1="273.60" y1="1.51" x2="259.20" y2="28.59"/>
    <line x1="273.60" y1="14.29" x2="262.05" y2="36.00"/>
    <line x1="273.60" y1="27.07" x2="268.85" y2="36.00"/>
  </g>
  <g stroke="#F72585" stroke-width="1" fill="none" stroke-linecap="round">
    <line x1="286.65" y1="0.00" x2="288.00" y2="2.64"/>
    <line x1="279.92" y1="0.00" x2="288.00" y2="15.86"/>
    <line x1="273.60" y1="0.81" x2="288.00" y2="29.08"/>
    <line x1="273.60" y1="14.03" x2="284.79" y2="36.00"/>
    <line x1="273.60" y1="27.25" x2="278.06" y2="36.00"/>
    <line x1="286.64" y1="-0.00" x2="273.60" y2="6.64"/>
    <line x1="288.00" y1="6.04" x2="273.60" y2="13.38"/>
    <line x1="288.00" y1="12.78" x2="273.60" y2="20.11"/>
    <line x1="288.00" y1="19.51" x2="273.60" y2="26.85"/>
    <line x1="288.00" y1="26.24" x2="273.60" y2="33.58"/>
    <line x1="288.00" y1="32.98" x2="282.07" y2="36.00"/>
  </g>
  <g stroke="#4361EE" stroke-width="1" fill="none" stroke-linecap="round">
    <line x1="292.15" y1="0.00" x2="302.40" y2="1.44"/>
    <line x1="288.00" y1="5.48" x2="302.40" y2="7.50"/>
    <line x1="288.00" y1="7.29" x2="302.40" y2="9.32"/>
    <line x1="288.00" y1="9.11" x2="302.40" y2="11.14"/>
    <line x1="288.00" y1="15.17" x2="302.40" y2="17.19"/>
    <line x1="288.00" y1="16.99" x2="302.40" y2="19.01"/>
    <line x1="288.00" y1="18.81" x2="302.40" y2="20.83"/>
    <line x1="288.00" y1="24.86" x2="302.40" y2="26.89"/>
    <line x1="288.00" y1="26.68" x2="302.40" y2="28.71"/>
    <line x1="288.00" y1="28.50" x2="302.40" y2="30.52"/>
    <line x1="288.00" y1="34.56" x2="298.25" y2="36.00"/>
  </g>
  <g stroke="#E63946" stroke-width="1" fill="none" stroke-linecap="round">
    <line x1="316.80" y1="35.17" x2="310.86" y2="36.00"/>
    <line x1="316.80" y1="32.14" x2="302.40" y2="34.16"/>
    <line x1="316.80" y1="29.11" x2="302.40" y2="31.13"/>
    <line x1="316.80" y1="26.08" x2="302.40" y2="28.10"/>
    <line x1="316.80" y1="23.05" x2="302.40" y2="25.07"/>
    <line x1="316.80" y1="20.02" x2="302.40" y2="22.04"/>
    <line x1="316.80" y1="16.99" x2="302.40" y2="19.01"/>
    <line x1="316.80" y1="13.96" x2="302.40" y2="15.98"/>
    <line x1="316.80" y1="10.93" x2="302.40" y2="12.95"/>
    <line x1="316.80" y1="7.90" x2="302.40" y2="9.92"/>
    <line x1="316.80" y1="4.87" x2="302.40" y2="6.89"/>
    <line x1="316.80" y1="1.84" x2="302.40" y2="3.86"/>
    <line x1="308.34" y1="-0.00" x2="302.40" y2="0.83"/>
    <line x1="303.04" y1="36.00" x2="302.40" y2="31.44"/>
    <line x1="306.07" y1="36.00" x2="302.40" y2="9.88"/>
    <line x1="309.10" y1="36.00" x2="304.04" y2="0.00"/>
    <line x1="312.13" y1="36.00" x2="307.07" y2="0.00"/>
    <line x1="315.16" y1="36.00" x2="310.10" y2="-0.00"/>
    <line x1="316.80" y1="26.12" x2="313.13" y2="-0.00"/>
    <line x1="316.80" y1="4.56" x2="316.16" y2="0.00"/>
  </g>
  <g stroke="#3A86FF" stroke-width="1" fill="none" stroke-linecap="round">
    <line x1="329.22" y1="2.91" x2="331.20" y2="6.48"/>
    <line x1="316.80" y1="10.18" x2="317.53" y2="11.50"/>
    <line x1="331.20" y1="14.01" x2="316.80" y2="21.99"/>
    <line x1="330.47" y1="24.50" x2="331.20" y2="25.82"/>
    <line x1="316.80" y1="29.52" x2="318.78" y2="33.09"/>
  </g>
  <g stroke="#00B4D8" stroke-width="1" fill="none" stroke-linecap="round">
    <line x1="345.60" y1="31.33" x2="343.52" y2="36.00"/>
    <line x1="345.60" y1="23.96" x2="340.24" y2="36.00"/>
    <line x1="345.60" y1="16.58" x2="336.95" y2="36.00"/>
    <line x1="345.60" y1="9.20" x2="333.67" y2="36.00"/>
    <line x1="345.60" y1="1.83" x2="331.20" y2="34.17"/>
    <line x1="343.13" y1="0.00" x2="331.20" y2="26.80"/>
    <line x1="339.85" y1="0.00" x2="331.20" y2="19.42"/>
    <line x1="336.56" y1="-0.00" x2="331.20" y2="12.04"/>
    <line x1="333.28" y1="0.00" x2="331.20" y2="4.67"/>
  </g>
  <g stroke="#8338EC" stroke-width="1" fill="none" stroke-linecap="round">
    <line x1="357.15" y1="0.53" x2="357.61" y2="0.00"/>
    <line x1="352.91" y1="-0.00" x2="353.52" y2="2.72"/>
    <line x1="356.43" y1="3.45" x2="359.38" y2="0.00"/>
    <line x1="345.60" y1="1.65" x2="347.02" y2="0.00"/>
    <line x1="351.54" y1="0.00" x2="352.79" y2="5.63"/>
    <line x1="355.70" y1="6.36" x2="360.00" y2="1.34"/>
    <line x1="345.60" y1="3.72" x2="347.70" y2="1.27"/>
    <line x1="350.61" y1="1.99" x2="352.07" y2="8.54"/>
    <line x1="354.98" y1="9.27" x2="359.34" y2="4.17"/>
    <line x1="345.60" y1="5.78" x2="346.97" y2="4.18"/>
    <line x1="349.88" y1="4.90" x2="351.34" y2="11.45"/>
    <line x1="354.25" y1="12.18" x2="358.61" y2="7.08"/>
    <line x1="345.60" y1="7.84" x2="346.24" y2="7.09"/>
    <line x1="349.16" y1="7.82" x2="350.61" y2="14.36"/>
    <line x1="353.53" y1="15.09" x2="357.89" y2="9.99"/>
    <line x1="348.43" y1="10.73" x2="349.89" y2="17.27"/>
    <line x1="352.80" y1="18.00" x2="357.16" y2="12.90"/>
    <line x1="347.70" y1="13.64" x2="349.16" y2="20.19"/>
    <line x1="352.07" y1="20.91" x2="356.44" y2="15.81"/>
    <line x1="359.35" y1="16.54" x2="360.00" y2="19.47"/>
    <line x1="346.98" y1="16.55" x2="348.44" y2="23.10"/>
    <line x1="351.35" y1="23.82" x2="355.71" y2="18.73"/>
    <line x1="358.62" y1="19.45" x2="360.00" y2="25.64"/>
    <line x1="346.25" y1="19.46" x2="347.71" y2="26.01"/>
    <line x1="350.62" y1="26.73" x2="354.99" y2="21.64"/>
    <line x1="357.90" y1="22.36" x2="359.36" y2="28.91"/>
    <line x1="345.60" y1="22.70" x2="346.99" y2="28.92"/>
    <line x1="349.90" y1="29.64" x2="354.26" y2="24.55"/>
    <line x1="357.17" y1="25.27" x2="358.63" y2="31.82"/>
    <line x1="345.60" y1="28.87" x2="346.26" y2="31.83"/>
    <line x1="349.17" y1="32.55" x2="353.53" y2="27.46"/>
    <line x1="356.44" y1="28.18" x2="357.90" y2="34.73"/>
    <line x1="348.45" y1="35.47" x2="352.81" y2="30.37"/>
    <line x1="355.72" y1="31.10" x2="356.81" y2="36.00"/>
    <line x1="349.75" y1="36.00" x2="352.08" y2="33.28"/>
    <line x1="354.99" y1="34.01" x2="355.44" y2="36.00"/>
  </g>
  <g stroke="#8338EC" stroke-width="1" fill="none" stroke-linecap="round">
    <line x1="360.00" y1="0.00" x2="374.40" y2="0.00"/>
    <line x1="374.40" y1="0.00" x2="374.40" y2="36.00"/>
    <line x1="374.40" y1="36.00" x2="360.00" y2="36.00"/>
    <line x1="360.00" y1="36.00" x2="360.00" y2="0.00"/>
    <line x1="360.00" y1="36.00" x2="361.11" y2="33.21"/>
    <line x1="361.11" y1="2.79" x2="373.29" y2="2.79"/>
    <line x1="373.29" y1="2.79" x2="373.29" y2="33.21"/>
    <line x1="373.29" y1="33.21" x2="361.11" y2="33.21"/>
    <line x1="361.11" y1="33.21" x2="361.11" y2="2.79"/>
    <line x1="361.11" y1="33.21" x2="362.23" y2="30.43"/>
    <line x1="362.23" y1="5.57" x2="372.17" y2="5.57"/>
    <line x1="372.17" y1="5.57" x2="372.17" y2="30.43"/>
    <line x1="372.17" y1="30.43" x2="362.23" y2="30.43"/>
    <line x1="362.23" y1="30.43" x2="362.23" y2="5.57"/>
    <line x1="362.23" y1="30.43" x2="363.34" y2="27.64"/>
    <line x1="363.34" y1="8.36" x2="371.06" y2="8.36"/>
    <line x1="371.06" y1="8.36" x2="371.06" y2="27.64"/>
    <line x1="371.06" y1="27.64" x2="363.34" y2="27.64"/>
    <line x1="363.34" y1="27.64" x2="363.34" y2="8.36"/>
    <line x1="363.34" y1="27.64" x2="364.46" y2="24.86"/>
    <line x1="364.46" y1="11.14" x2="369.94" y2="11.14"/>
    <line x1="369.94" y1="11.14" x2="369.94" y2="24.86"/>
    <line x1="369.94" y1="24.86" x2="364.46" y2="24.86"/>
    <line x1="364.46" y1="24.86" x2="364.46" y2="11.14"/>
    <line x1="364.46" y1="24.86" x2="365.57" y2="22.07"/>
    <line x1="365.57" y1="13.93" x2="368.83" y2="13.93"/>
    <line x1="368.83" y1="13.93" x2="368.83" y2="22.07"/>
    <line x1="368.83" y1="22.07" x2="365.57" y2="22.07"/>
    <line x1="365.57" y1="22.07" x2="365.57" y2="13.93"/>
  </g>
  <g stroke="#F15BB5" stroke-width="1" fill="none" stroke-linecap="round">
    <line x1="387.29" y1="36.00" x2="385.89" y2="19.91"/>
    <line x1="375.88" y1="36.00" x2="379.32" y2="35.70"/>
    <line x1="374.40" y1="18.63" x2="388.80" y2="17.37"/>
    <line x1="383.88" y1="0.30" x2="387.32" y2="0.00"/>
    <line x1="377.31" y1="16.09" x2="375.91" y2="0.00"/>
  </g>
  <g stroke="#FF006E" stroke-width="1" fill="none" stroke-linecap="round">
    <line x1="403.20" y1="32.47" x2="400.92" y2="32.17"/>
    <line x1="399.24" y1="34.66" x2="399.99" y2="36.00"/>
    <line x1="403.20" y1="31.12" x2="398.43" y2="30.49"/>
    <line x1="396.75" y1="32.98" x2="398.45" y2="36.00"/>
    <line x1="403.20" y1="18.94" x2="402.65" y2="18.87"/>
    <line x1="400.97" y1="21.36" x2="403.20" y2="25.30"/>
    <line x1="402.59" y1="29.68" x2="395.94" y2="28.82"/>
    <line x1="394.26" y1="31.30" x2="396.91" y2="36.00"/>
    <line x1="403.20" y1="17.59" x2="400.16" y2="17.19"/>
    <line x1="398.49" y1="19.68" x2="401.78" y2="25.52"/>
    <line x1="400.11" y1="28.01" x2="393.45" y2="27.14"/>
    <line x1="391.78" y1="29.63" x2="395.07" y2="35.47"/>
    <line x1="402.71" y1="8.05" x2="403.20" y2="8.92"/>
    <line x1="403.20" y1="16.23" x2="397.68" y2="15.51"/>
    <line x1="396.00" y1="18.00" x2="399.30" y2="23.84"/>
    <line x1="397.62" y1="26.33" x2="390.97" y2="25.46"/>
    <line x1="389.29" y1="27.95" x2="392.59" y2="33.79"/>
    <line x1="403.20" y1="4.06" x2="401.90" y2="3.89"/>
    <line x1="400.22" y1="6.37" x2="403.20" y2="11.65"/>
    <line x1="401.84" y1="14.70" x2="395.19" y2="13.84"/>
    <line x1="393.51" y1="16.32" x2="396.81" y2="22.16"/>
    <line x1="395.13" y1="24.65" x2="388.80" y2="23.83"/>
    <line x1="388.80" y1="29.81" x2="390.10" y2="32.11"/>
    <line x1="403.20" y1="2.70" x2="399.41" y2="2.21"/>
    <line x1="397.74" y1="4.70" x2="401.03" y2="10.54"/>
    <line x1="399.36" y1="13.03" x2="392.70" y2="12.16"/>
    <line x1="391.03" y1="14.64" x2="394.32" y2="20.49"/>
    <line x1="392.64" y1="22.97" x2="388.80" y2="22.47"/>
    <line x1="403.20" y1="1.35" x2="396.93" y2="0.53"/>
    <line x1="395.25" y1="3.02" x2="398.55" y2="8.86"/>
    <line x1="396.87" y1="11.35" x2="390.22" y2="10.48"/>
    <line x1="388.80" y1="13.43" x2="391.84" y2="18.81"/>
    <line x1="390.16" y1="21.30" x2="388.80" y2="21.12"/>
    <line x1="392.76" y1="1.34" x2="396.06" y2="7.18"/>
    <line x1="394.38" y1="9.67" x2="388.80" y2="8.94"/>
    <line x1="388.80" y1="16.16" x2="389.35" y2="17.13"/>
    <line x1="390.46" y1="0.00" x2="393.57" y2="5.51"/>
    <line x1="391.89" y1="7.99" x2="388.80" y2="7.59"/>
    <line x1="388.92" y1="0.00" x2="391.08" y2="3.83"/>
    <line x1="389.41" y1="6.32" x2="388.80" y2="6.24"/>
  </g>
  <g stroke="#8338EC" stroke-width="1" fill="none" stroke-linecap="round">
    <line x1="417.60" y1="22.42" x2="412.81" y2="23.00"/>
    <line x1="415.53" y1="36.00" x2="414.79" y2="29.99"/>
    <line x1="417.60" y1="0.82" x2="407.33" y2="2.08"/>
    <line x1="411.50" y1="26.93" x2="409.30" y2="9.07"/>
    <line x1="413.47" y1="33.92" x2="403.20" y2="35.18"/>
    <line x1="406.01" y1="6.01" x2="405.27" y2="0.00"/>
    <line x1="407.99" y1="13.00" x2="403.20" y2="13.58"/>
  </g>
  <g stroke="#FFCA3A" stroke-width="1" fill="none" stroke-linecap="round">
    <line x1="420.30" y1="7.03" x2="432.00" y2="6.83"/>
    <line x1="424.64" y1="9.00" x2="424.96" y2="27.00"/>
    <line x1="417.60" y1="29.17" x2="429.30" y2="28.97"/>
  </g>
  <g stroke="#9EF01A" stroke-width="1" fill="none" stroke-linecap="round">
    <line x1="432.00" y1="0.00" x2="446.40" y2="0.00"/>
    <line x1="446.40" y1="0.00" x2="446.40" y2="36.00"/>
    <line x1="446.40" y1="36.00" x2="432.00" y2="36.00"/>
    <line x1="432.00" y1="36.00" x2="432.00" y2="0.00"/>
    <line x1="432.00" y1="36.00" x2="433.11" y2="33.21"/>
    <line x1="433.11" y1="2.79" x2="445.29" y2="2.79"/>
    <line x1="445.29" y1="2.79" x2="445.29" y2="33.21"/>
    <line x1="445.29" y1="33.21" x2="433.11" y2="33.21"/>
    <line x1="433.11" y1="33.21" x2="433.11" y2="2.79"/>
    <line x1="433.11" y1="33.21" x2="434.23" y2="30.43"/>
    <line x1="434.23" y1="5.57" x2="444.17" y2="5.57"/>
    <line x1="444.17" y1="5.57" x2="444.17" y2="30.43"/>
    <line x1="444.17" y1="30.43" x2="434.23" y2="30.43"/>
    <line x1="434.23" y1="30.43" x2="434.23" y2="5.57"/>
    <line x1="434.23" y1="30.43" x2="435.34" y2="27.64"/>
    <line x1="435.34" y1="8.36" x2="443.06" y2="8.36"/>
    <line x1="443.06" y1="8.36" x2="443.06" y2="27.64"/>
    <line x1="443.06" y1="27.64" x2="435.34" y2="27.64"/>
    <line x1="435.34" y1="27.64" x2="435.34" y2="8.36"/>
    <line x1="435.34" y1="27.64" x2="436.46" y2="24.86"/>
    <line x1="436.46" y1="11.14" x2="441.94" y2="11.14"/>
    <line x1="441.94" y1="11.14" x2="441.94" y2="24.86"/>
    <line x1="441.94" y1="24.86" x2="436.46" y2="24.86"/>
    <line x1="436.46" y1="24.86" x2="436.46" y2="11.14"/>
    <line x1="436.46" y1="24.86" x2="437.57" y2="22.07"/>
    <line x1="437.57" y1="13.93" x2="440.83" y2="13.93"/>
    <line x1="440.83" y1="13.93" x2="440.83" y2="22.07"/>
    <line x1="440.83" y1="22.07" x2="437.57" y2="22.07"/>
    <line x1="437.57" y1="22.07" x2="437.57" y2="13.93"/>
  </g>
  <g stroke="#4361EE" stroke-width="1" fill="none" stroke-linecap="round">
    <line x1="460.80" y1="33.44" x2="460.02" y2="36.00"/>
    <line x1="460.80" y1="27.28" x2="458.14" y2="36.00"/>
    <line x1="460.80" y1="21.13" x2="456.25" y2="36.00"/>
    <line x1="460.80" y1="0.61" x2="449.98" y2="36.00"/>
    <line x1="459.10" y1="0.00" x2="448.10" y2="36.00"/>
    <line x1="457.22" y1="0.00" x2="446.40" y2="35.39"/>
    <line x1="450.95" y1="0.00" x2="446.40" y2="14.87"/>
    <line x1="449.06" y1="0.00" x2="446.40" y2="8.72"/>
    <line x1="447.18" y1="0.00" x2="446.40" y2="2.56"/>
  </g>
  <g stroke="#F4A261" stroke-width="1" fill="none" stroke-linecap="round">
    <line x1="475.20" y1="35.17" x2="469.26" y2="36.00"/>
    <line x1="475.20" y1="32.14" x2="460.80" y2="34.16"/>
    <line x1="475.20" y1="29.11" x2="460.80" y2="31.13"/>
    <line x1="475.20" y1="26.08" x2="460.80" y2="28.10"/>
    <line x1="475.20" y1="23.05" x2="460.80" y2="25.07"/>
    <line x1="475.20" y1="20.02" x2="460.80" y2="22.04"/>
    <line x1="475.20" y1="16.99" x2="460.80" y2="19.01"/>
    <line x1="475.20" y1="13.96" x2="460.80" y2="15.98"/>
    <line x1="475.20" y1="10.93" x2="460.80" y2="12.95"/>
    <line x1="475.20" y1="7.90" x2="460.80" y2="9.92"/>
    <line x1="475.20" y1="4.87" x2="460.80" y2="6.89"/>
    <line x1="475.20" y1="1.84" x2="460.80" y2="3.86"/>
    <line x1="466.74" y1="-0.00" x2="460.80" y2="0.83"/>
    <line x1="461.44" y1="36.00" x2="460.80" y2="31.44"/>
    <line x1="464.47" y1="36.00" x2="460.80" y2="9.88"/>
    <line x1="467.50" y1="36.00" x2="462.44" y2="0.00"/>
    <line x1="470.53" y1="36.00" x2="465.47" y2="0.00"/>
    <line x1="473.56" y1="36.00" x2="468.50" y2="-0.00"/>
    <line x1="475.20" y1="26.12" x2="471.53" y2="-0.00"/>
    <line x1="475.20" y1="4.56" x2="474.56" y2="0.00"/>
  </g>
  <g stroke="#4361EE" stroke-width="1" fill="none" stroke-linecap="round">
    <line x1="485.61" y1="0.00" x2="489.60" y2="3.99"/>
    <line x1="481.37" y1="0.00" x2="489.60" y2="8.23"/>
    <line x1="477.13" y1="0.00" x2="489.60" y2="12.47"/>
    <line x1="475.20" y1="2.31" x2="489.60" y2="16.71"/>
    <line x1="475.20" y1="6.56" x2="489.60" y2="20.96"/>
    <line x1="475.20" y1="10.80" x2="489.60" y2="25.20"/>
    <line x1="475.20" y1="15.04" x2="489.60" y2="29.44"/>
    <line x1="475.20" y1="19.29" x2="489.60" y2="33.69"/>
    <line x1="475.20" y1="23.53" x2="487.67" y2="36.00"/>
    <line x1="475.20" y1="27.77" x2="483.43" y2="36.00"/>
    <line x1="475.20" y1="32.01" x2="479.19" y2="36.00"/>
  </g>
  <g stroke="#00F5D4" stroke-width="1" fill="none" stroke-linecap="round">
    <line x1="499.01" y1="0.00" x2="504.00" y2="1.24"/>
    <line x1="489.60" y1="0.75" x2="504.00" y2="4.34"/>
    <line x1="489.60" y1="3.84" x2="504.00" y2="7.43"/>
    <line x1="489.60" y1="6.93" x2="504.00" y2="10.52"/>
    <line x1="489.60" y1="10.02" x2="504.00" y2="13.61"/>
    <line x1="489.60" y1="13.11" x2="504.00" y2="16.70"/>
    <line x1="489.60" y1="16.20" x2="504.00" y2="19.80"/>
    <line x1="489.60" y1="19.30" x2="504.00" y2="22.89"/>
    <line x1="489.60" y1="22.39" x2="504.00" y2="25.98"/>
    <line x1="489.60" y1="25.48" x2="504.00" y2="29.07"/>
    <line x1="489.60" y1="28.57" x2="504.00" y2="32.16"/>
    <line x1="489.60" y1="31.66" x2="504.00" y2="35.25"/>
    <line x1="489.60" y1="34.76" x2="494.59" y2="36.00"/>
    <line x1="504.00" y1="26.32" x2="501.59" y2="36.00"/>
    <line x1="504.00" y1="13.92" x2="498.50" y2="36.00"/>
    <line x1="504.00" y1="1.52" x2="495.40" y2="36.00"/>
    <line x1="501.29" y1="0.00" x2="492.31" y2="36.00"/>
    <line x1="498.20" y1="0.00" x2="489.60" y2="34.48"/>
    <line x1="495.10" y1="0.00" x2="489.60" y2="22.08"/>
    <line x1="492.01" y1="0.00" x2="489.60" y2="9.68"/>
  </g>
  <g stroke="#FFCA3A" stroke-width="1" fill="none" stroke-linecap="round">
    <line x1="518.40" y1="31.22" x2="518.27" y2="31.23"/>
    <line x1="517.00" y1="33.95" x2="518.40" y2="35.71"/>
    <line x1="518.40" y1="29.88" x2="515.55" y2="29.96"/>
    <line x1="514.29" y1="32.68" x2="516.92" y2="36.00"/>
    <line x1="518.40" y1="17.80" x2="517.91" y2="17.82"/>
    <line x1="516.64" y1="20.54" x2="518.40" y2="22.76"/>
    <line x1="518.40" y1="28.54" x2="512.83" y2="28.69"/>
    <line x1="511.57" y1="31.41" x2="515.21" y2="36.00"/>
    <line x1="518.40" y1="16.46" x2="515.19" y2="16.55"/>
    <line x1="513.92" y1="19.27" x2="518.09" y2="24.52"/>
    <line x1="516.82" y1="27.24" x2="510.12" y2="27.42"/>
    <line x1="508.85" y1="30.14" x2="513.02" y2="35.40"/>
    <line x1="518.40" y1="4.38" x2="517.54" y2="4.41"/>
    <line x1="516.27" y1="7.12" x2="518.40" y2="9.81"/>
    <line x1="518.40" y1="15.12" x2="512.47" y2="15.28"/>
    <line x1="511.20" y1="18.00" x2="515.37" y2="23.25"/>
    <line x1="514.10" y1="25.97" x2="507.40" y2="26.16"/>
    <line x1="506.13" y1="28.88" x2="510.30" y2="34.13"/>
    <line x1="518.40" y1="3.04" x2="514.82" y2="3.14"/>
    <line x1="513.55" y1="5.86" x2="517.72" y2="11.11"/>
    <line x1="516.45" y1="13.83" x2="509.75" y2="14.01"/>
    <line x1="508.48" y1="16.73" x2="512.65" y2="21.99"/>
    <line x1="511.38" y1="24.71" x2="504.68" y2="24.89"/>
    <line x1="504.00" y1="28.35" x2="507.58" y2="32.86"/>
    <line x1="506.31" y1="35.58" x2="504.00" y2="35.64"/>
    <line x1="518.40" y1="1.70" x2="512.10" y2="1.87"/>
    <line x1="510.83" y1="4.59" x2="515.00" y2="9.84"/>
    <line x1="513.74" y1="12.56" x2="507.03" y2="12.75"/>
    <line x1="505.76" y1="15.46" x2="509.93" y2="20.72"/>
    <line x1="508.66" y1="23.44" x2="504.00" y2="23.57"/>
    <line x1="504.00" y1="30.51" x2="504.86" y2="31.59"/>
    <line x1="516.09" y1="0.42" x2="509.38" y2="0.60"/>
    <line x1="508.11" y1="3.32" x2="512.28" y2="8.58"/>
    <line x1="511.02" y1="11.29" x2="504.31" y2="11.48"/>
    <line x1="504.00" y1="15.40" x2="507.21" y2="19.45"/>
    <line x1="505.95" y1="22.17" x2="504.00" y2="22.22"/>
    <line x1="505.40" y1="2.05" x2="509.57" y2="7.31"/>
    <line x1="508.30" y1="10.03" x2="504.00" y2="10.14"/>
    <line x1="504.00" y1="17.56" x2="504.49" y2="18.18"/>
    <line x1="504.00" y1="2.45" x2="506.85" y2="6.04"/>
    <line x1="505.58" y1="8.76" x2="504.00" y2="8.80"/>
    <line x1="504.00" y1="4.61" x2="504.13" y2="4.77"/>
  </g>
  <g stroke="#6A4C93" stroke-width="1" fill="none" stroke-linecap="round">
    <line x1="530.85" y1="36.00" x2="530.01" y2="19.97"/>
    <line x1="519.45" y1="36.00" x2="523.02" y2="35.81"/>
    <line x1="518.40" y1="18.38" x2="532.80" y2="17.62"/>
    <line x1="528.18" y1="0.19" x2="531.75" y2="0.00"/>
    <line x1="521.19" y1="16.03" x2="520.35" y2="0.00"/>
  </g>
  <g stroke="#E9C46A" stroke-width="1" fill="none" stroke-linecap="round">
    <line x1="547.20" y1="30.95" x2="544.85" y2="36.00"/>
    <line x1="547.20" y1="23.86" x2="541.54" y2="36.00"/>
    <line x1="547.20" y1="16.76" x2="538.23" y2="36.00"/>
    <line x1="547.20" y1="9.66" x2="534.92" y2="36.00"/>
    <line x1="547.20" y1="2.56" x2="532.80" y2="33.44"/>
    <line x1="545.08" y1="0.00" x2="532.80" y2="26.34"/>
    <line x1="541.77" y1="0.00" x2="532.80" y2="19.24"/>
    <line x1="538.46" y1="-0.00" x2="532.80" y2="12.14"/>
    <line x1="535.15" y1="0.00" x2="532.80" y2="5.05"/>
  </g>
  <g stroke="#FFCA3A" stroke-width="1" fill="none" stroke-linecap="round">
    <line x1="561.60" y1="22.43" x2="559.18" y2="24.25"/>
    <line x1="561.60" y1="32.13" x2="559.70" y2="29.61"/>
    <line x1="555.71" y1="0.00" x2="548.47" y2="5.46"/>
    <line x1="559.82" y1="25.19" x2="548.98" y2="10.81"/>
    <line x1="560.33" y1="30.54" x2="553.09" y2="36.00"/>
    <line x1="549.10" y1="6.39" x2="547.20" y2="3.87"/>
    <line x1="549.62" y1="11.75" x2="547.20" y2="13.57"/>
  </g>
  <g stroke="#E9C46A" stroke-width="1" fill="none" stroke-linecap="round">
    <line x1="570.37" y1="0.00" x2="576.00" y2="0.99"/>
    <line x1="561.60" y1="1.50" x2="576.00" y2="4.04"/>
    <line x1="561.60" y1="4.55" x2="576.00" y2="7.08"/>
    <line x1="561.60" y1="7.59" x2="576.00" y2="10.13"/>
    <line x1="561.60" y1="10.64" x2="576.00" y2="13.18"/>
    <line x1="561.60" y1="13.68" x2="576.00" y2="16.22"/>
    <line x1="561.60" y1="16.73" x2="576.00" y2="19.27"/>
    <line x1="561.60" y1="19.78" x2="576.00" y2="22.32"/>
    <line x1="561.60" y1="22.82" x2="576.00" y2="25.36"/>
    <line x1="561.60" y1="25.87" x2="576.00" y2="28.41"/>
    <line x1="561.60" y1="28.92" x2="576.00" y2="31.45"/>
    <line x1="561.60" y1="31.96" x2="576.00" y2="34.50"/>
    <line x1="561.60" y1="35.01" x2="567.23" y2="36.00"/>
  </g>
  <g stroke="#E9C46A" stroke-width="1" fill="none" stroke-linecap="round">
    <line x1="588.82" y1="0.00" x2="590.40" y2="1.33"/>
    <line x1="579.48" y1="0.00" x2="590.40" y2="9.16"/>
    <line x1="576.68" y1="0.00" x2="590.40" y2="11.51"/>
    <line x1="576.00" y1="1.78" x2="590.40" y2="13.86"/>
    <line x1="576.00" y1="9.61" x2="590.40" y2="21.69"/>
    <line x1="576.00" y1="11.96" x2="590.40" y2="24.04"/>
    <line x1="576.00" y1="14.31" x2="590.40" y2="26.39"/>
    <line x1="576.00" y1="22.14" x2="590.40" y2="34.22"/>
    <line x1="576.00" y1="24.49" x2="589.72" y2="36.00"/>
    <line x1="576.00" y1="26.84" x2="586.92" y2="36.00"/>
    <line x1="576.00" y1="34.67" x2="577.58" y2="36.00"/>
  </g>
  <g stroke="#00BBF9" stroke-width="1" fill="none" stroke-linecap="round">
    <line x1="604.80" y1="29.43" x2="596.97" y2="36.00"/>
    <line x1="604.80" y1="21.60" x2="590.40" y2="33.68"/>
    <line x1="604.80" y1="13.77" x2="590.40" y2="25.85"/>
    <line x1="604.80" y1="5.94" x2="590.40" y2="18.02"/>
    <line x1="602.54" y1="0.00" x2="590.40" y2="10.19"/>
    <line x1="593.21" y1="0.00" x2="590.40" y2="2.35"/>
    <line x1="604.80" y1="5.75" x2="599.97" y2="0.00"/>
    <line x1="604.80" y1="15.09" x2="592.14" y2="0.00"/>
    <line x1="604.80" y1="24.42" x2="590.40" y2="7.26"/>
    <line x1="604.80" y1="33.76" x2="590.40" y2="16.60"/>
    <line x1="598.85" y1="36.00" x2="590.40" y2="25.93"/>
    <line x1="591.02" y1="36.00" x2="590.40" y2="35.27"/>
  </g>
  <g stroke="#7209B7" stroke-width="1" fill="none" stroke-linecap="round">
    <line x1="619.20" y1="31.22" x2="619.07" y2="31.23"/>
    <line x1="617.80" y1="33.95" x2="619.20" y2="35.71"/>
    <line x1="619.20" y1="29.88" x2="616.35" y2="29.96"/>
    <line x1="615.09" y1="32.68" x2="617.72" y2="36.00"/>
    <line x1="619.20" y1="17.80" x2="618.71" y2="17.82"/>
    <line x1="617.44" y1="20.54" x2="619.20" y2="22.76"/>
    <line x1="619.20" y1="28.54" x2="613.63" y2="28.69"/>
    <line x1="612.37" y1="31.41" x2="616.01" y2="36.00"/>
    <line x1="619.20" y1="16.46" x2="615.99" y2="16.55"/>
    <line x1="614.72" y1="19.27" x2="618.89" y2="24.52"/>
    <line x1="617.62" y1="27.24" x2="610.92" y2="27.42"/>
    <line x1="609.65" y1="30.14" x2="613.82" y2="35.40"/>
    <line x1="619.20" y1="4.38" x2="618.34" y2="4.41"/>
    <line x1="617.07" y1="7.12" x2="619.20" y2="9.81"/>
    <line x1="619.20" y1="15.12" x2="613.27" y2="15.28"/>
    <line x1="612.00" y1="18.00" x2="616.17" y2="23.25"/>
    <line x1="614.90" y1="25.97" x2="608.20" y2="26.16"/>
    <line x1="606.93" y1="28.88" x2="611.10" y2="34.13"/>
    <line x1="619.20" y1="3.04" x2="615.62" y2="3.14"/>
    <line x1="614.35" y1="5.86" x2="618.52" y2="11.11"/>
    <line x1="617.25" y1="13.83" x2="610.55" y2="14.01"/>
    <line x1="609.28" y1="16.73" x2="613.45" y2="21.99"/>
    <line x1="612.18" y1="24.71" x2="605.48" y2="24.89"/>
    <line x1="604.80" y1="28.35" x2="608.38" y2="32.86"/>
    <line x1="607.11" y1="35.58" x2="604.80" y2="35.64"/>
    <line x1="619.20" y1="1.70" x2="612.90" y2="1.87"/>
    <line x1="611.63" y1="4.59" x2="615.80" y2="9.84"/>
    <line x1="614.54" y1="12.56" x2="607.83" y2="12.75"/>
    <line x1="606.56" y1="15.46" x2="610.73" y2="20.72"/>
    <line x1="609.46" y1="23.44" x2="604.80" y2="23.57"/>
    <line x1="604.80" y1="30.51" x2="605.66" y2="31.59"/>
    <line x1="616.89" y1="0.42" x2="610.18" y2="0.60"/>
    <line x1="608.91" y1="3.32" x2="613.08" y2="8.58"/>
    <line x1="611.82" y1="11.29" x2="605.11" y2="11.48"/>
    <line x1="604.80" y1="15.40" x2="608.01" y2="19.45"/>
    <line x1="606.75" y1="22.17" x2="604.80" y2="22.22"/>
    <line x1="606.20" y1="2.05" x2="610.37" y2="7.31"/>
    <line x1="609.10" y1="10.03" x2="604.80" y2="10.14"/>
    <line x1="604.80" y1="17.56" x2="605.29" y2="18.18"/>
    <line x1="604.80" y1="2.45" x2="607.65" y2="6.04"/>
    <line x1="606.38" y1="8.76" x2="604.80" y2="8.80"/>
    <line x1="604.80" y1="4.61" x2="604.93" y2="4.77"/>
  </g>
  <g stroke="#F15BB5" stroke-width="1" fill="none" stroke-linecap="round">
    <line x1="632.60" y1="0.00" x2="633.60" y2="1.55"/>
    <line x1="629.02" y1="0.00" x2="633.60" y2="7.05"/>
    <line x1="625.44" y1="0.00" x2="633.60" y2="12.56"/>
    <line x1="621.86" y1="-0.00" x2="633.60" y2="18.07"/>
    <line x1="619.20" y1="1.40" x2="633.60" y2="23.58"/>
    <line x1="619.20" y1="6.91" x2="633.60" y2="29.09"/>
    <line x1="619.20" y1="12.42" x2="633.60" y2="34.60"/>
    <line x1="619.20" y1="17.93" x2="630.94" y2="36.00"/>
    <line x1="619.20" y1="23.44" x2="627.36" y2="36.00"/>
    <line x1="619.20" y1="28.95" x2="623.78" y2="36.00"/>
    <line x1="619.20" y1="34.45" x2="620.20" y2="36.00"/>
  </g>
  <g stroke="#F72585" stroke-width="1" fill="none" stroke-linecap="round">
    <line x1="647.36" y1="-0.00" x2="648.00" y2="4.56"/>
    <line x1="644.33" y1="0.00" x2="648.00" y2="26.12"/>
    <line x1="641.30" y1="0.00" x2="646.36" y2="36.00"/>
    <line x1="638.27" y1="0.00" x2="643.33" y2="36.00"/>
    <line x1="635.24" y1="0.00" x2="640.30" y2="36.00"/>
    <line x1="633.60" y1="9.88" x2="637.27" y2="36.00"/>
    <line x1="633.60" y1="31.44" x2="634.24" y2="36.00"/>
  </g>
  <g stroke="#264653" stroke-width="1" fill="none" stroke-linecap="round">
    <line x1="661.56" y1="33.73" x2="662.40" y2="34.72"/>
    <line x1="662.40" y1="29.65" x2="659.97" y2="29.80"/>
    <line x1="658.80" y1="32.56" x2="661.72" y2="36.00"/>
    <line x1="662.40" y1="17.55" x2="661.90" y2="17.58"/>
    <line x1="660.72" y1="20.34" x2="662.40" y2="22.31"/>
    <line x1="662.40" y1="28.31" x2="657.21" y2="28.63"/>
    <line x1="656.03" y1="31.39" x2="659.96" y2="36.00"/>
    <line x1="662.40" y1="16.21" x2="659.13" y2="16.41"/>
    <line x1="657.96" y1="19.17" x2="662.31" y2="24.28"/>
    <line x1="661.14" y1="27.04" x2="654.44" y2="27.46"/>
    <line x1="653.27" y1="30.22" x2="657.62" y2="35.32"/>
    <line x1="662.40" y1="4.11" x2="661.06" y2="4.19"/>
    <line x1="659.89" y1="6.95" x2="662.40" y2="9.90"/>
    <line x1="662.40" y1="14.86" x2="656.37" y2="15.24"/>
    <line x1="655.20" y1="18.00" x2="659.55" y2="23.11"/>
    <line x1="658.38" y1="25.87" x2="651.68" y2="26.28"/>
    <line x1="650.51" y1="29.05" x2="654.86" y2="34.15"/>
    <line x1="662.40" y1="2.76" x2="658.30" y2="3.02"/>
    <line x1="657.13" y1="5.78" x2="661.48" y2="10.89"/>
    <line x1="660.31" y1="13.65" x2="653.61" y2="14.07"/>
    <line x1="652.44" y1="16.83" x2="656.79" y2="21.93"/>
    <line x1="655.62" y1="24.70" x2="648.92" y2="25.11"/>
    <line x1="648.00" y1="28.17" x2="652.10" y2="32.98"/>
    <line x1="650.93" y1="35.74" x2="648.00" y2="35.92"/>
    <line x1="662.23" y1="1.43" x2="655.54" y2="1.85"/>
    <line x1="654.37" y1="4.61" x2="658.72" y2="9.72"/>
    <line x1="657.54" y1="12.48" x2="650.85" y2="12.89"/>
    <line x1="649.68" y1="15.66" x2="654.03" y2="20.76"/>
    <line x1="652.86" y1="23.52" x2="648.00" y2="23.83"/>
    <line x1="648.00" y1="30.24" x2="649.34" y2="31.81"/>
    <line x1="648.17" y1="34.57" x2="648.00" y2="34.58"/>
    <line x1="659.47" y1="0.26" x2="652.78" y2="0.68"/>
    <line x1="651.60" y1="3.44" x2="655.96" y2="8.54"/>
    <line x1="654.78" y1="11.30" x2="648.09" y2="11.72"/>
    <line x1="648.00" y1="15.76" x2="651.27" y2="19.59"/>
    <line x1="650.09" y1="22.35" x2="648.00" y2="22.48"/>
    <line x1="648.84" y1="2.27" x2="653.19" y2="7.37"/>
    <line x1="652.02" y1="10.13" x2="648.00" y2="10.38"/>
    <line x1="648.00" y1="17.82" x2="648.50" y2="18.42"/>
    <line x1="648.00" y1="3.34" x2="650.43" y2="6.20"/>
    <line x1="649.26" y1="8.96" x2="648.00" y2="9.04"/>
  </g>
  <g stroke="#8338EC" stroke-width="1" fill="none" stroke-linecap="round">
    <line x1="676.80" y1="35.88" x2="669.76" y2="36.00"/>
    <line x1="676.80" y1="32.88" x2="662.40" y2="33.13"/>
    <line x1="676.80" y1="29.88" x2="662.40" y2="30.13"/>
    <line x1="676.80" y1="26.88" x2="662.40" y2="27.13"/>
    <line x1="676.80" y1="23.88" x2="662.40" y2="24.13"/>
    <line x1="676.80" y1="20.87" x2="662.40" y2="21.13"/>
    <line x1="676.80" y1="17.87" x2="662.40" y2="18.13"/>
    <line x1="676.80" y1="14.87" x2="662.40" y2="15.13"/>
    <line x1="676.80" y1="11.87" x2="662.40" y2="12.12"/>
    <line x1="676.80" y1="8.87" x2="662.40" y2="9.12"/>
    <line x1="676.80" y1="5.87" x2="662.40" y2="6.12"/>
    <line x1="676.80" y1="2.87" x2="662.40" y2="3.12"/>
    <line x1="669.44" y1="-0.00" x2="662.40" y2="0.12"/>
    <line x1="663.91" y1="36.00" x2="663.28" y2="0.00"/>
    <line x1="666.91" y1="36.00" x2="666.29" y2="0.00"/>
    <line x1="669.91" y1="36.00" x2="669.29" y2="0.00"/>
    <line x1="672.91" y1="36.00" x2="672.29" y2="0.00"/>
    <line x1="675.92" y1="36.00" x2="675.29" y2="0.00"/>
  </g>
  <g stroke="#00BBF9" stroke-width="1" fill="none" stroke-linecap="round">
    <line x1="691.20" y1="25.41" x2="686.20" y2="20.05"/>
    <line x1="682.75" y1="36.00" x2="685.97" y2="33.00"/>
    <line x1="677.42" y1="24.14" x2="690.58" y2="11.86"/>
    <line x1="682.03" y1="3.00" x2="685.25" y2="0.00"/>
    <line x1="681.80" y1="15.95" x2="676.80" y2="10.59"/>
  </g>
  <g stroke="#6A4C93" stroke-width="1" fill="none" stroke-linecap="round">
    <line x1="705.60" y1="34.67" x2="703.39" y2="36.00"/>
    <line x1="705.60" y1="31.17" x2="697.57" y2="36.00"/>
    <line x1="705.60" y1="27.67" x2="691.74" y2="36.00"/>
    <line x1="705.60" y1="24.17" x2="691.20" y2="32.83"/>
    <line x1="705.60" y1="20.67" x2="691.20" y2="29.33"/>
    <line x1="705.60" y1="17.17" x2="691.20" y2="25.83"/>
    <line x1="705.60" y1="13.67" x2="691.20" y2="22.33"/>
    <line x1="705.60" y1="10.17" x2="691.20" y2="18.83"/>
    <line x1="705.60" y1="6.67" x2="691.20" y2="15.33"/>
    <line x1="705.60" y1="3.17" x2="691.20" y2="11.83"/>
    <line x1="705.06" y1="-0.00" x2="691.20" y2="8.33"/>
    <line x1="699.23" y1="0.00" x2="691.20" y2="4.83"/>
    <line x1="693.41" y1="0.00" x2="691.20" y2="1.33"/>
  </g>
  <g stroke="#FFCA3A" stroke-width="1" fill="none" stroke-linecap="round">
    <line x1="712.80" y1="1.03" x2="715.89" y2="0.00"/>
    <line x1="720.00" y1="4.89" x2="719.16" y2="7.39"/>
    <line x1="708.90" y1="0.00" x2="708.56" y2="1.03"/>
    <line x1="710.68" y1="3.15" x2="717.04" y2="1.03"/>
    <line x1="719.16" y1="3.15" x2="717.04" y2="9.51"/>
    <line x1="719.16" y1="11.64" x2="720.00" y2="11.36"/>
    <line x1="707.49" y1="0.00" x2="706.44" y2="3.15"/>
    <line x1="708.56" y1="5.27" x2="714.92" y2="3.15"/>
    <line x1="717.04" y1="5.27" x2="714.92" y2="11.64"/>
    <line x1="717.04" y1="13.76" x2="720.00" y2="12.77"/>
    <line x1="706.07" y1="0.00" x2="705.60" y2="1.42"/>
    <line x1="706.44" y1="7.39" x2="712.80" y2="5.27"/>
    <line x1="714.92" y1="7.39" x2="712.80" y2="13.76"/>
    <line x1="714.92" y1="15.88" x2="720.00" y2="14.19"/>
    <line x1="705.60" y1="9.09" x2="710.68" y2="7.39"/>
    <line x1="712.80" y1="9.51" x2="710.68" y2="15.88"/>
    <line x1="712.80" y1="18.00" x2="719.16" y2="15.88"/>
    <line x1="720.00" y1="21.86" x2="719.16" y2="24.36"/>
    <line x1="705.60" y1="10.50" x2="708.56" y2="9.51"/>
    <line x1="710.68" y1="11.64" x2="708.56" y2="18.00"/>
    <line x1="710.68" y1="20.12" x2="717.04" y2="18.00"/>
    <line x1="719.16" y1="20.12" x2="717.04" y2="26.49"/>
    <line x1="719.16" y1="28.61" x2="720.00" y2="28.33"/>
    <line x1="705.60" y1="11.91" x2="706.44" y2="11.64"/>
    <line x1="708.56" y1="13.76" x2="706.44" y2="20.12"/>
    <line x1="708.56" y1="22.24" x2="714.92" y2="20.12"/>
    <line x1="717.04" y1="22.24" x2="714.92" y2="28.61"/>
    <line x1="717.04" y1="30.73" x2="720.00" y2="29.74"/>
    <line x1="706.44" y1="15.88" x2="705.60" y2="18.39"/>
    <line x1="706.44" y1="24.36" x2="712.80" y2="22.24"/>
    <line x1="714.92" y1="24.36" x2="712.80" y2="30.73"/>
    <line x1="714.92" y1="32.85" x2="720.00" y2="31.16"/>
    <line x1="705.60" y1="26.06" x2="710.68" y2="24.36"/>
    <line x1="712.80" y1="26.49" x2="710.68" y2="32.85"/>
    <line x1="712.80" y1="34.97" x2="719.16" y2="32.85"/>
    <line x1="705.60" y1="27.47" x2="708.56" y2="26.49"/>
    <line x1="710.68" y1="28.61" x2="708.56" y2="34.97"/>
    <line x1="713.95" y1="36.00" x2="717.04" y2="34.97"/>
    <line x1="705.60" y1="28.89" x2="706.44" y2="28.61"/>
    <line x1="708.56" y1="30.73" x2="706.80" y2="36.00"/>
    <line x1="706.44" y1="32.85" x2="705.60" y2="35.36"/>
  </g>
  <g stroke="#90BE6D" stroke-width="1" fill="none" stroke-linecap="round">
    <line x1="734.40" y1="15.44" x2="733.52" y2="15.75"/>
    <line x1="733.16" y1="18.73" x2="734.40" y2="19.56"/>
    <line x1="734.40" y1="26.83" x2="732.06" y2="27.66"/>
    <line x1="731.69" y1="30.64" x2="734.40" y2="32.44"/>
    <line x1="734.40" y1="2.63" x2="732.01" y2="3.48"/>
    <line x1="731.64" y1="6.46" x2="734.40" y2="8.29"/>
    <line x1="734.40" y1="14.02" x2="730.54" y2="15.39"/>
    <line x1="730.18" y1="18.37" x2="734.40" y2="21.17"/>
    <line x1="734.40" y1="25.41" x2="729.08" y2="27.30"/>
    <line x1="728.72" y1="30.28" x2="734.30" y2="33.99"/>
    <line x1="734.40" y1="1.20" x2="729.03" y2="3.11"/>
    <line x1="728.66" y1="6.09" x2="734.25" y2="9.80"/>
    <line x1="733.89" y1="12.78" x2="727.57" y2="15.02"/>
    <line x1="727.20" y1="18.00" x2="732.79" y2="21.71"/>
    <line x1="732.42" y1="24.69" x2="726.10" y2="26.93"/>
    <line x1="725.74" y1="29.91" x2="731.33" y2="33.62"/>
    <line x1="732.37" y1="0.50" x2="726.05" y2="2.75"/>
    <line x1="725.68" y1="5.72" x2="731.27" y2="9.43"/>
    <line x1="730.91" y1="12.41" x2="724.59" y2="14.66"/>
    <line x1="724.22" y1="17.63" x2="729.81" y2="21.34"/>
    <line x1="729.45" y1="24.32" x2="723.13" y2="26.57"/>
    <line x1="722.76" y1="29.54" x2="728.35" y2="33.25"/>
    <line x1="729.39" y1="0.13" x2="723.07" y2="2.38"/>
    <line x1="722.71" y1="5.36" x2="728.30" y2="9.07"/>
    <line x1="727.93" y1="12.04" x2="721.61" y2="14.29"/>
    <line x1="721.24" y1="17.27" x2="726.83" y2="20.98"/>
    <line x1="726.47" y1="23.96" x2="720.15" y2="26.20"/>
    <line x1="720.00" y1="29.32" x2="725.37" y2="32.89"/>
    <line x1="725.01" y1="35.87" x2="724.63" y2="36.00"/>
    <line x1="725.76" y1="0.00" x2="720.10" y2="2.01"/>
    <line x1="720.00" y1="5.17" x2="725.32" y2="8.70"/>
    <line x1="724.95" y1="11.68" x2="720.00" y2="13.44"/>
    <line x1="720.00" y1="18.05" x2="723.86" y2="20.61"/>
    <line x1="723.49" y1="23.59" x2="720.00" y2="24.83"/>
    <line x1="720.00" y1="30.93" x2="722.39" y2="32.52"/>
    <line x1="722.03" y1="35.50" x2="720.62" y2="36.00"/>
    <line x1="721.76" y1="0.00" x2="720.00" y2="0.62"/>
    <line x1="720.00" y1="6.78" x2="722.34" y2="8.34"/>
    <line x1="721.98" y1="11.31" x2="720.00" y2="12.02"/>
    <line x1="720.00" y1="19.66" x2="720.88" y2="20.25"/>
    <line x1="720.51" y1="23.22" x2="720.00" y2="23.41"/>
  </g>
  <g stroke="#00F5D4" stroke-width="1" fill="none" stroke-linecap="round">
    <line x1="747.97" y1="0.00" x2="748.80" y2="0.67"/>
    <line x1="743.21" y1="-0.00" x2="748.80" y2="4.53"/>
    <line x1="738.44" y1="0.00" x2="748.80" y2="8.39"/>
    <line x1="734.40" y1="0.59" x2="748.80" y2="12.25"/>
    <line x1="734.40" y1="4.45" x2="748.80" y2="16.11"/>
    <line x1="734.40" y1="8.31" x2="748.80" y2="19.97"/>
    <line x1="734.40" y1="12.17" x2="748.80" y2="23.83"/>
    <line x1="734.40" y1="16.03" x2="748.80" y2="27.69"/>
    <line x1="734.40" y1="19.89" x2="748.80" y2="31.55"/>
    <line x1="734.40" y1="23.75" x2="748.80" y2="35.41"/>
    <line x1="734.40" y1="27.61" x2="744.76" y2="36.00"/>
    <line x1="734.40" y1="31.47" x2="739.99" y2="36.00"/>
    <line x1="734.40" y1="35.33" x2="735.23" y2="36.00"/>
  </g>
  <g stroke="#9B5DE5" stroke-width="1" fill="none" stroke-linecap="round">
    <line x1="763.20" y1="15.30" x2="762.28" y2="15.64"/>
    <line x1="761.97" y1="18.63" x2="763.20" y2="19.41"/>
    <line x1="763.20" y1="26.76" x2="761.03" y2="27.58"/>
    <line x1="760.71" y1="30.56" x2="763.20" y2="32.15"/>
    <line x1="763.20" y1="2.40" x2="760.55" y2="3.40"/>
    <line x1="760.24" y1="6.38" x2="763.20" y2="8.27"/>
    <line x1="763.20" y1="13.87" x2="759.30" y2="15.33"/>
    <line x1="758.98" y1="18.31" x2="763.20" y2="21.01"/>
    <line x1="763.20" y1="25.33" x2="758.04" y2="27.26"/>
    <line x1="757.73" y1="30.25" x2="763.20" y2="33.74"/>
    <line x1="763.20" y1="0.97" x2="757.57" y2="3.08"/>
    <line x1="757.25" y1="6.07" x2="762.91" y2="9.68"/>
    <line x1="762.59" y1="12.66" x2="756.31" y2="15.02"/>
    <line x1="756.00" y1="18.00" x2="761.65" y2="21.61"/>
    <line x1="761.34" y1="24.59" x2="755.06" y2="26.95"/>
    <line x1="754.75" y1="29.93" x2="760.40" y2="33.54"/>
    <line x1="760.87" y1="0.41" x2="754.58" y2="2.77"/>
    <line x1="754.27" y1="5.75" x2="759.92" y2="9.36"/>
    <line x1="759.61" y1="12.35" x2="753.33" y2="14.70"/>
    <line x1="753.02" y1="17.69" x2="758.67" y2="21.30"/>
    <line x1="758.36" y1="24.28" x2="752.08" y2="26.64"/>
    <line x1="751.76" y1="29.62" x2="757.42" y2="33.23"/>
    <line x1="757.88" y1="0.10" x2="751.60" y2="2.46"/>
    <line x1="751.29" y1="5.44" x2="756.94" y2="9.05"/>
    <line x1="756.63" y1="12.03" x2="750.35" y2="14.39"/>
    <line x1="750.03" y1="17.37" x2="755.69" y2="20.98"/>
    <line x1="755.37" y1="23.97" x2="749.09" y2="26.32"/>
    <line x1="748.80" y1="29.32" x2="754.43" y2="32.92"/>
    <line x1="754.12" y1="35.90" x2="753.86" y2="36.00"/>
    <line x1="754.32" y1="-0.00" x2="748.80" y2="2.07"/>
    <line x1="748.80" y1="5.44" x2="753.96" y2="8.74"/>
    <line x1="753.64" y1="11.72" x2="748.80" y2="13.54"/>
    <line x1="748.80" y1="18.18" x2="752.70" y2="20.67"/>
    <line x1="752.39" y1="23.65" x2="748.80" y2="25.00"/>
    <line x1="748.80" y1="30.91" x2="751.45" y2="32.60"/>
    <line x1="751.13" y1="35.59" x2="750.04" y2="36.00"/>
    <line x1="750.51" y1="0.00" x2="748.80" y2="0.64"/>
    <line x1="748.80" y1="7.03" x2="750.97" y2="8.42"/>
    <line x1="750.66" y1="11.41" x2="748.80" y2="12.10"/>
    <line x1="748.80" y1="19.77" x2="749.72" y2="20.36"/>
    <line x1="749.41" y1="23.34" x2="748.80" y2="23.57"/>
  </g>
  <g stroke="#06D6A0" stroke-width="1" fill="none" stroke-linecap="round">
    <line x1="777.60" y1="29.29" x2="767.65" y2="36.00"/>
    <line x1="777.60" y1="22.05" x2="763.20" y2="31.77"/>
    <line x1="777.60" y1="14.82" x2="763.20" y2="24.53"/>
    <line x1="777.60" y1="7.58" x2="763.20" y2="17.29"/>
    <line x1="777.60" y1="0.34" x2="763.20" y2="10.05"/>
    <line x1="767.38" y1="0.00" x2="763.20" y2="2.82"/>
    <line x1="777.60" y1="4.74" x2="774.41" y2="0.00"/>
    <line x1="777.60" y1="15.47" x2="767.17" y2="0.00"/>
    <line x1="777.60" y1="26.19" x2="763.20" y2="4.85"/>
    <line x1="776.98" y1="36.00" x2="763.20" y2="15.58"/>
    <line x1="769.74" y1="36.00" x2="763.20" y2="26.31"/>
  </g>
  <g stroke="#3A86FF" stroke-width="1" fill="none" stroke-linecap="round">
    <line x1="792.00" y1="35.96" x2="789.04" y2="34.97"/>
    <line x1="792.00" y1="34.54" x2="786.92" y2="32.85"/>
    <line x1="784.80" y1="34.97" x2="785.14" y2="36.00"/>
    <line x1="791.16" y1="24.36" x2="792.00" y2="26.87"/>
    <line x1="791.16" y1="32.85" x2="784.80" y2="30.73"/>
    <line x1="782.68" y1="32.85" x2="783.73" y2="36.00"/>
    <line x1="792.00" y1="20.40" x2="791.16" y2="20.12"/>
    <line x1="789.04" y1="22.24" x2="791.16" y2="28.61"/>
    <line x1="789.04" y1="30.73" x2="782.68" y2="28.61"/>
    <line x1="780.56" y1="30.73" x2="782.31" y2="36.00"/>
    <line x1="792.00" y1="18.99" x2="789.04" y2="18.00"/>
    <line x1="786.92" y1="20.12" x2="789.04" y2="26.49"/>
    <line x1="786.92" y1="28.61" x2="780.56" y2="26.49"/>
    <line x1="778.44" y1="28.61" x2="780.56" y2="34.97"/>
    <line x1="792.00" y1="17.57" x2="786.92" y2="15.88"/>
    <line x1="784.80" y1="18.00" x2="786.92" y2="24.36"/>
    <line x1="784.80" y1="26.49" x2="778.44" y2="24.36"/>
    <line x1="777.60" y1="30.34" x2="778.44" y2="32.85"/>
    <line x1="791.16" y1="7.39" x2="792.00" y2="9.90"/>
    <line x1="791.16" y1="15.88" x2="784.80" y2="13.76"/>
    <line x1="782.68" y1="15.88" x2="784.80" y2="22.24"/>
    <line x1="782.68" y1="24.36" x2="777.60" y2="22.67"/>
    <line x1="792.00" y1="3.43" x2="791.16" y2="3.15"/>
    <line x1="789.04" y1="5.27" x2="791.16" y2="11.64"/>
    <line x1="789.04" y1="13.76" x2="782.68" y2="11.64"/>
    <line x1="780.56" y1="13.76" x2="782.68" y2="20.12"/>
    <line x1="780.56" y1="22.24" x2="777.60" y2="21.26"/>
    <line x1="792.00" y1="2.02" x2="789.04" y2="1.03"/>
    <line x1="786.92" y1="3.15" x2="789.04" y2="9.51"/>
    <line x1="786.92" y1="11.64" x2="780.56" y2="9.51"/>
    <line x1="778.44" y1="11.64" x2="780.56" y2="18.00"/>
    <line x1="778.44" y1="20.12" x2="777.60" y2="19.84"/>
    <line x1="792.00" y1="0.60" x2="790.20" y2="0.00"/>
    <line x1="784.80" y1="1.03" x2="786.92" y2="7.39"/>
    <line x1="784.80" y1="9.51" x2="778.44" y2="7.39"/>
    <line x1="777.60" y1="13.37" x2="778.44" y2="15.88"/>
    <line x1="783.04" y1="0.00" x2="784.80" y2="5.27"/>
    <line x1="782.68" y1="7.39" x2="777.60" y2="5.70"/>
    <line x1="781.63" y1="0.00" x2="782.68" y2="3.15"/>
    <line x1="780.56" y1="5.27" x2="777.60" y2="4.29"/>
    <line x1="780.21" y1="0.00" x2="780.56" y2="1.03"/>
    <line x1="778.44" y1="3.15" x2="777.60" y2="2.87"/>
  </g>
  <g stroke="#6A4C93" stroke-width="1" fill="none" stroke-linecap="round">
    <line x1="792.00" y1="0.00" x2="806.40" y2="0.00"/>
    <line x1="806.40" y1="0.00" x2="806.40" y2="36.00"/>
    <line x1="806.40" y1="36.00" x2="792.00" y2="36.00"/>
    <line x1="792.00" y1="36.00" x2="792.00" y2="0.00"/>
    <line x1="792.00" y1="36.00" x2="793.11" y2="33.21"/>
    <line x1="793.11" y1="2.79" x2="805.29" y2="2.79"/>
    <line x1="805.29" y1="2.79" x2="805.29" y2="33.21"/>
    <line x1="805.29" y1="33.21" x2="793.11" y2="33.21"/>
    <line x1="793.11" y1="33.21" x2="793.11" y2="2.79"/>
    <line x1="793.11" y1="33.21" x2="794.23" y2="30.43"/>
    <line x1="794.23" y1="5.57" x2="804.17" y2="5.57"/>
    <line x1="804.17" y1="5.57" x2="804.17" y2="30.43"/>
    <line x1="804.17" y1="30.43" x2="794.23" y2="30.43"/>
    <line x1="794.23" y1="30.43" x2="794.23" y2="5.57"/>
    <line x1="794.23" y1="30.43" x2="795.34" y2="27.64"/>
    <line x1="795.34" y1="8.36" x2="803.06" y2="8.36"/>
    <line x1="803.06" y1="8.36" x2="803.06" y2="27.64"/>
    <line x1="803.06" y1="27.64" x2="795.34" y2="27.64"/>
    <line x1="795.34" y1="27.64" x2="795.34" y2="8.36"/>
    <line x1="795.34" y1="27.64" x2="796.46" y2="24.86"/>
    <line x1="796.46" y1="11.14" x2="801.94" y2="11.14"/>
    <line x1="801.94" y1="11.14" x2="801.94" y2="24.86"/>
    <line x1="801.94" y1="24.86" x2="796.46" y2="24.86"/>
    <line x1="796.46" y1="24.86" x2="796.46" y2="11.14"/>
    <line x1="796.46" y1="24.86" x2="797.57" y2="22.07"/>
    <line x1="797.57" y1="13.93" x2="800.83" y2="13.93"/>
    <line x1="800.83" y1="13.93" x2="800.83" y2="22.07"/>
    <line x1="800.83" y1="22.07" x2="797.57" y2="22.07"/>
    <line x1="797.57" y1="22.07" x2="797.57" y2="13.93"/>
  </g>
  <g stroke="#073B4C" stroke-width="1" fill="none" stroke-linecap="round">
    <line x1="806.40" y1="0.00" x2="820.80" y2="0.00"/>
    <line x1="820.80" y1="0.00" x2="820.80" y2="36.00"/>
    <line x1="820.80" y1="36.00" x2="806.40" y2="36.00"/>
    <line x1="806.40" y1="36.00" x2="806.40" y2="0.00"/>
    <line x1="806.40" y1="36.00" x2="807.51" y2="33.21"/>
    <line x1="807.51" y1="2.79" x2="819.69" y2="2.79"/>
    <line x1="819.69" y1="2.79" x2="819.69" y2="33.21"/>
    <line x1="819.69" y1="33.21" x2="807.51" y2="33.21"/>
    <line x1="807.51" y1="33.21" x2="807.51" y2="2.79"/>
    <line x1="807.51" y1="33.21" x2="808.63" y2="30.43"/>
    <line x1="808.63" y1="5.57" x2="818.57" y2="5.57"/>
    <line x1="818.57" y1="5.57" x2="818.57" y2="30.43"/>
    <line x1="818.57" y1="30.43" x2="808.63" y2="30.43"/>
    <line x1="808.63" y1="30.43" x2="808.63" y2="5.57"/>
    <line x1="808.63" y1="30.43" x2="809.74" y2="27.64"/>
    <line x1="809.74" y1="8.36" x2="817.46" y2="8.36"/>
    <line x1="817.46" y1="8.36" x2="817.46" y2="27.64"/>
    <line x1="817.46" y1="27.64" x2="809.74" y2="27.64"/>
    <line x1="809.74" y1="27.64" x2="809.74" y2="8.36"/>
    <line x1="809.74" y1="27.64" x2="810.86" y2="24.86"/>
    <line x1="810.86" y1="11.14" x2="816.34" y2="11.14"/>
    <line x1="816.34" y1="11.14" x2="816.34" y2="24.86"/>
    <line x1="816.34" y1="24.86" x2="810.86" y2="24.86"/>
    <line x1="810.86" y1="24.86" x2="810.86" y2="11.14"/>
    <line x1="810.86" y1="24.86" x2="811.97" y2="22.07"/>
    <line x1="811.97" y1="13.93" x2="815.23" y2="13.93"/>
    <line x1="815.23" y1="13.93" x2="815.23" y2="22.07"/>
    <line x1="815.23" y1="22.07" x2="811.97" y2="22.07"/>
    <line x1="811.97" y1="22.07" x2="811.97" y2="13.93"/>
  </g>
  <g stroke="#F15BB5" stroke-width="1" fill="none" stroke-linecap="round">
    <line x1="835.20" y1="29.29" x2="825.25" y2="36.00"/>
    <line x1="835.20" y1="22.05" x2="820.80" y2="31.77"/>
    <line x1="835.20" y1="14.82" x2="820.80" y2="24.53"/>
    <line x1="835.20" y1="7.58" x2="820.80" y2="17.29"/>
    <line x1="835.20" y1="0.34" x2="820.80" y2="10.05"/>
    <line x1="824.98" y1="0.00" x2="820.80" y2="2.82"/>
    <line x1="835.20" y1="4.74" x2="832.01" y2="0.00"/>
    <line x1="835.20" y1="15.47" x2="824.77" y2="0.00"/>
    <line x1="835.20" y1="26.19" x2="820.80" y2="4.85"/>
    <line x1="834.58" y1="36.00" x2="820.80" y2="15.58"/>
    <line x1="827.34" y1="36.00" x2="820.80" y2="26.31"/>
  </g>
  <g stroke="#FFCA3A" stroke-width="1" fill="none" stroke-linecap="round">
    <line x1="846.43" y1="0.00" x2="849.60" y2="1.98"/>
    <line x1="835.20" y1="0.06" x2="849.60" y2="9.06"/>
    <line x1="835.20" y1="2.18" x2="849.60" y2="11.18"/>
    <line x1="835.20" y1="4.30" x2="849.60" y2="13.30"/>
    <line x1="835.20" y1="11.38" x2="849.60" y2="20.38"/>
    <line x1="835.20" y1="13.50" x2="849.60" y2="22.50"/>
    <line x1="835.20" y1="15.62" x2="849.60" y2="24.62"/>
    <line x1="835.20" y1="22.70" x2="849.60" y2="31.70"/>
    <line x1="835.20" y1="24.82" x2="849.60" y2="33.82"/>
    <line x1="835.20" y1="26.94" x2="849.60" y2="35.94"/>
    <line x1="835.20" y1="34.02" x2="838.37" y2="36.00"/>
  </g>
  <g stroke="#EF476F" stroke-width="1" fill="none" stroke-linecap="round">
    <line x1="862.49" y1="0.00" x2="863.12" y2="36.00"/>
    <line x1="859.49" y1="0.00" x2="860.11" y2="36.00"/>
    <line x1="856.49" y1="0.00" x2="857.11" y2="36.00"/>
    <line x1="853.49" y1="0.00" x2="854.11" y2="36.00"/>
    <line x1="850.48" y1="0.00" x2="851.11" y2="36.00"/>
  </g>
</svg>
