<?xml version="1.0" encoding="UTF-8"?>
<svg xmlns="http://www.w3.org/2000/svg"
     width="864.00" height="36.00"
     viewBox="0 0 864.00 36.00">
  <title>Pattern Banner - rat-king</title>
  <desc>Randomized pattern strip with 60 cells</desc>
  <rect width="100%" height="100%" fill="white"/>
  <g stroke="#264653" stroke-width="1" fill="none" stroke-linecap="round">
    <line x1="0.00" y1="0.00" x2="14.40" y2="0.00"/>
    <line x1="14.40" y1="0.00" x2="14.40" y2="36.00"/>
    <line x1="14.40" y1="36.00" x2="0.00" y2="36.00"/>
    <line x1="0.00" y1="36.00" x2="0.00" y2="0.00"/>
    <line x1="0.00" y1="36.00" x2="1.11" y2="33.21"/>
    <line x1="1.11" y1="2.79" x2="13.29" y2="2.79"/>
    <line x1="13.29" y1="2.79" x2="13.29" y2="33.21"/>
    <line x1="13.29" y1="33.21" x2="1.11" y2="33.21"/>
    <line x1="1.11" y1="33.21" x2="1.11" y2="2.79"/>
    <line x1="1.11" y1="33.21" x2="2.23" y2="30.43"/>
    <line x1="2.23" y1="5.57" x2="12.17" y2="5.57"/>
    <line x1="12.17" y1="5.57" x2="12.17" y2="30.43"/>
    <line x1="12.17" y1="30.43" x2="2.23" y2="30.43"/>
    <line x1="2.23" y1="30.43" x2="2.23" y2="5.57"/>
    <line x1="2.23" y1="30.43" x2="3.34" y2="27.64"/>
    <line x1="3.34" y1="8.36" x2="11.06" y2="8.36"/>
    <line x1="11.06" y1="8.36" x2="11.06" y2="27.64"/>
    <line x1="11.06" y1="27.64" x2="3.34" y2="27.64"/>
    <line x1="3.34" y1="27.64" x2="3.34" y2="8.36"/>
    <line x1="3.34" y1="27.64" x2="4.46" y2="24.86"/>
    <line x1="4.46" y1="11.14" x2="9.94" y2="11.14"/>
    <line x1="9.94" y1="11.14" x2="9.94" y2="24.86"/>
    <line x1="9.94" y1="24.86" x2="4.46" y2="24.86"/>
    <line x1="4.46" y1="24.86" x2="4.46" y2="11.14"/>
    <line x1="4.46" y1="24.86" x2="5.57" y2="22.07"/>
    <line x1="5.57" y1="13.93" x2="8.83" y2="13.93"/>
    <line x1="8.83" y1="13.93" x2="8.83" y2="22.07"/>
    <line x1="8.83" y1="22.07" x2="5.57" y2="22.07"/>
    <line x1="5.57" y1="22.07" x2="5.57" y2="13.93"/>
  </g>
  <g stroke="#118AB2" stroke-width="1" fill="none" stroke-linecap="round">
    <line x1="26.17" y1="0.00" x2="28.80" y2="5.39"/>
    <line x1="22.83" y1="0.00" x2="28.80" y2="12.23"/>
    <line x1="19.50" y1="0.00" x2="28.80" y2="19.08"/>
    <line x1="16.16" y1="0.00" x2="28.80" y2="25.92"/>
    <line x1="14.40" y1="3.24" x2="28.80" y2="32.76"/>
    <line x1="14.40" y1="10.08" x2="27.04" y2="36.00"/>
    <line x1="14.40" y1="16.92" x2="23.70" y2="36.00"/>
    <line x1="14.40" y1="23.77" x2="20.37" y2="36.00"/>
    <line x1="14.40" y1="30.61" x2="17.03" y2="36.00"/>
    <line x1="28.80" y1="34.52" x2="25.76" y2="36.00"/>
    <line x1="28.80" y1="31.18" x2="18.91" y2="36.00"/>
    <line x1="28.80" y1="27.84" x2="14.40" y2="34.86"/>
    <line x1="28.80" y1="24.50" x2="14.40" y2="31.53"/>
    <line x1="28.80" y1="21.16" x2="14.40" y2="28.19"/>
    <line x1="28.80" y1="17.83" x2="14.40" y2="24.85"/>
    <line x1="28.80" y1="14.49" x2="14.40" y2="21.51"/>
    <line x1="28.80" y1="11.15" x2="14.40" y2="18.17"/>
    <line x1="28.80" y1="7.81" x2="14.40" y2="14.84"/>
    <line x1="28.80" y1="4.47" x2="14.40" y2="11.50"/>
    <line x1="28.80" y1="1.14" x2="14.40" y2="8.16"/>
    <line x1="24.29" y1="-0.00" x2="14.40" y2="4.82"/>
    <line x1="17.44" y1="0.00" x2="14.40" y2="1.48"/>
  </g>
  <g stroke="#264653" stroke-width="1" fill="none" stroke-linecap="round">
    <line x1="43.20" y1="26.46" x2="38.55" y2="19.82"/>
    <line x1="33.87" y1="36.00" x2="37.30" y2="33.60"/>
    <line x1="28.80" y1="23.04" x2="43.20" y2="12.96"/>
    <line x1="34.70" y1="2.40" x2="38.13" y2="0.00"/>
    <line x1="33.45" y1="16.18" x2="28.80" y2="9.54"/>
  </g>
  <g stroke="#9B5DE5" stroke-width="1" fill="none" stroke-linecap="round">
    <line x1="43.20" y1="0.00" x2="57.60" y2="0.00"/>
    <line x1="57.60" y1="0.00" x2="57.60" y2="36.00"/>
    <line x1="57.60" y1="36.00" x2="43.20" y2="36.00"/>
    <line x1="43.20" y1="36.00" x2="43.20" y2="0.00"/>
    <line x1="43.20" y1="36.00" x2="44.31" y2="33.21"/>
    <line x1="44.31" y1="2.79" x2="56.49" y2="2.79"/>
    <line x1="56.49" y1="2.79" x2="56.49" y2="33.21"/>
    <line x1="56.49" y1="33.21" x2="44.31" y2="33.21"/>
    <line x1="44.31" y1="33.21" x2="44.31" y2="2.79"/>
    <line x1="44.31" y1="33.21" x2="45.43" y2="30.43"/>
    <line x1="45.43" y1="5.57" x2="55.37" y2="5.57"/>
    <line x1="55.37" y1="5.57" x2="55.37" y2="30.43"/>
    <line x1="55.37" y1="30.43" x2="45.43" y2="30.43"/>
    <line x1="45.43" y1="30.43" x2="45.43" y2="5.57"/>
    <line x1="45.43" y1="30.43" x2="46.54" y2="27.64"/>
    <line x1="46.54" y1="8.36" x2="54.26" y2="8.36"/>
    <line x1="54.26" y1="8.36" x2="54.26" y2="27.64"/>
    <line x1="54.26" y1="27.64" x2="46.54" y2="27.64"/>
    <line x1="46.54" y1="27.64" x2="46.54" y2="8.36"/>
    <line x1="46.54" y1="27.64" x2="47.66" y2="24.86"/>
    <line x1="47.66" y1="11.14" x2="53.14" y2="11.14"/>
    <line x1="53.14" y1="11.14" x2="53.14" y2="24.86"/>
    <line x1="53.14" y1="24.86" x2="47.66" y2="24.86"/>
    <line x1="47.66" y1="24.86" x2="47.66" y2="11.14"/>
    <line x1="47.66" y1="24.86" x2="48.77" y2="22.07"/>
    <line x1="48.77" y1="13.93" x2="52.03" y2="13.93"/>
    <line x1="52.03" y1="13.93" x2="52.03" y2="22.07"/>
    <line x1="52.03" y1="22.07" x2="48.77" y2="22.07"/>
    <line x1="48.77" y1="22.07" x2="48.77" y2="13.93"/>
  </g>
  <g stroke="#264653" stroke-width="1" fill="none" stroke-linecap="round">
    <line x1="68.27" y1="0.00" x2="72.00" y2="3.86"/>
    <line x1="64.10" y1="0.00" x2="72.00" y2="8.18"/>
    <line x1="59.93" y1="0.00" x2="72.00" y2="12.50"/>
    <line x1="57.60" y1="1.91" x2="72.00" y2="16.82"/>
    <line x1="57.60" y1="6.23" x2="72.00" y2="21.14"/>
    <line x1="57.60" y1="10.54" x2="72.00" y2="25.46"/>
    <line x1="57.60" y1="14.86" x2="72.00" y2="29.77"/>
    <line x1="57.60" y1="19.18" x2="72.00" y2="34.09"/>
    <line x1="57.60" y1="23.50" x2="69.67" y2="36.00"/>
    <line x1="57.60" y1="27.82" x2="65.50" y2="36.00"/>
    <line x1="57.60" y1="32.14" x2="61.33" y2="36.00"/>
    <line x1="72.00" y1="31.90" x2="67.75" y2="36.00"/>
    <line x1="72.00" y1="27.73" x2="63.44" y2="36.00"/>
    <line x1="72.00" y1="23.56" x2="59.12" y2="36.00"/>
    <line x1="72.00" y1="19.39" x2="57.60" y2="33.29"/>
    <line x1="72.00" y1="15.22" x2="57.60" y2="29.12"/>
    <line x1="72.00" y1="11.05" x2="57.60" y2="24.95"/>
    <line x1="72.00" y1="6.88" x2="57.60" y2="20.78"/>
    <line x1="72.00" y1="2.71" x2="57.60" y2="16.61"/>
    <line x1="70.48" y1="0.00" x2="57.60" y2="12.44"/>
    <line x1="66.16" y1="-0.00" x2="57.60" y2="8.27"/>
    <line x1="61.85" y1="-0.00" x2="57.60" y2="4.10"/>
  </g>
  <g stroke="#118AB2" stroke-width="1" fill="none" stroke-linecap="round">
    <line x1="86.40" y1="27.48" x2="80.21" y2="36.00"/>
    <line x1="86.40" y1="24.42" x2="77.99" y2="36.00"/>
    <line x1="86.40" y1="21.36" x2="75.76" y2="36.00"/>
    <line x1="86.40" y1="11.15" x2="72.00" y2="30.97"/>
    <line x1="86.40" y1="8.09" x2="72.00" y2="27.91"/>
    <line x1="86.40" y1="5.03" x2="72.00" y2="24.85"/>
    <line x1="82.64" y1="0.00" x2="72.00" y2="14.64"/>
    <line x1="80.41" y1="0.00" x2="72.00" y2="11.58"/>
    <line x1="78.19" y1="0.00" x2="72.00" y2="8.52"/>
  </g>
  <g stroke="#2A9D8F" stroke-width="1" fill="none" stroke-linecap="round">
    <line x1="100.80" y1="22.56" x2="95.73" y2="22.65"/>
    <line x1="97.93" y1="36.00" x2="97.83" y2="30.19"/>
    <line x1="100.80" y1="1.30" x2="91.34" y2="1.47"/>
    <line x1="93.76" y1="27.00" x2="93.44" y2="9.00"/>
    <line x1="95.86" y1="34.53" x2="86.40" y2="34.70"/>
    <line x1="89.37" y1="5.81" x2="89.27" y2="0.00"/>
    <line x1="91.47" y1="13.35" x2="86.40" y2="13.44"/>
  </g>
  <g stroke="#9B5DE5" stroke-width="1" fill="none" stroke-linecap="round">
    <line x1="108.31" y1="0.00" x2="108.32" y2="0.00"/>
    <line x1="103.85" y1="0.00" x2="105.26" y2="2.95"/>
    <line x1="108.26" y1="3.00" x2="109.83" y2="0.00"/>
    <line x1="102.36" y1="0.00" x2="105.21" y2="5.95"/>
    <line x1="108.21" y1="6.00" x2="111.31" y2="0.06"/>
    <line x1="114.31" y1="0.11" x2="115.20" y2="1.96"/>
    <line x1="102.26" y1="2.90" x2="105.16" y2="8.95"/>
    <line x1="108.16" y1="9.00" x2="111.26" y2="3.05"/>
    <line x1="114.26" y1="3.11" x2="115.20" y2="5.07"/>
    <line x1="102.21" y1="5.90" x2="105.11" y2="11.95"/>
    <line x1="108.10" y1="12.00" x2="111.21" y2="6.05"/>
    <line x1="114.21" y1="6.11" x2="115.20" y2="8.18"/>
    <line x1="102.16" y1="8.90" x2="105.05" y2="14.95"/>
    <line x1="108.05" y1="15.00" x2="111.16" y2="9.05"/>
    <line x1="114.16" y1="9.11" x2="115.20" y2="11.29"/>
    <line x1="102.11" y1="11.90" x2="105.00" y2="17.95"/>
    <line x1="108.00" y1="18.00" x2="111.10" y2="12.05"/>
    <line x1="114.10" y1="12.11" x2="115.20" y2="14.40"/>
    <line x1="102.05" y1="14.90" x2="104.95" y2="20.95"/>
    <line x1="107.95" y1="21.00" x2="111.05" y2="15.05"/>
    <line x1="114.05" y1="15.11" x2="115.20" y2="17.51"/>
    <line x1="102.00" y1="17.90" x2="104.90" y2="23.95"/>
    <line x1="107.90" y1="24.00" x2="111.00" y2="18.05"/>
    <line x1="114.00" y1="18.10" x2="115.20" y2="20.62"/>
    <line x1="101.95" y1="20.89" x2="104.84" y2="26.95"/>
    <line x1="107.84" y1="27.00" x2="110.95" y2="21.05"/>
    <line x1="113.95" y1="21.10" x2="115.20" y2="23.72"/>
    <line x1="101.90" y1="23.89" x2="104.79" y2="29.95"/>
    <line x1="107.79" y1="30.00" x2="110.89" y2="24.05"/>
    <line x1="113.89" y1="24.10" x2="115.20" y2="26.83"/>
    <line x1="101.84" y1="26.89" x2="104.74" y2="32.95"/>
    <line x1="107.74" y1="33.00" x2="110.84" y2="27.05"/>
    <line x1="113.84" y1="27.10" x2="115.20" y2="29.94"/>
    <line x1="101.79" y1="29.89" x2="104.69" y2="35.94"/>
    <line x1="107.69" y1="36.00" x2="110.79" y2="30.05"/>
    <line x1="113.79" y1="30.10" x2="115.20" y2="33.05"/>
    <line x1="101.74" y1="32.89" x2="103.23" y2="36.00"/>
    <line x1="109.20" y1="36.00" x2="110.74" y2="33.05"/>
    <line x1="113.74" y1="33.10" x2="115.12" y2="36.00"/>
    <line x1="101.69" y1="35.89" x2="101.74" y2="36.00"/>
  </g>
  <g stroke="#8338EC" stroke-width="1" fill="none" stroke-linecap="round">
    <line x1="127.39" y1="0.00" x2="129.60" y2="1.33"/>
    <line x1="121.57" y1="0.00" x2="129.60" y2="4.83"/>
    <line x1="115.74" y1="0.00" x2="129.60" y2="8.33"/>
    <line x1="115.20" y1="3.17" x2="129.60" y2="11.83"/>
    <line x1="115.20" y1="6.67" x2="129.60" y2="15.33"/>
    <line x1="115.20" y1="10.17" x2="129.60" y2="18.83"/>
    <line x1="115.20" y1="13.67" x2="129.60" y2="22.33"/>
    <line x1="115.20" y1="17.17" x2="129.60" y2="25.83"/>
    <line x1="115.20" y1="20.67" x2="129.60" y2="29.33"/>
    <line x1="115.20" y1="24.17" x2="129.60" y2="32.83"/>
    <line x1="115.20" y1="27.67" x2="129.06" y2="36.00"/>
    <line x1="115.20" y1="31.17" x2="123.23" y2="36.00"/>
    <line x1="115.20" y1="34.67" x2="117.41" y2="36.00"/>
    <line x1="129.60" y1="35.14" x2="129.08" y2="36.00"/>
    <line x1="129.60" y1="29.32" x2="125.58" y2="36.00"/>
    <line x1="129.60" y1="23.49" x2="122.08" y2="36.00"/>
    <line x1="129.60" y1="17.67" x2="118.58" y2="36.00"/>
    <line x1="129.60" y1="11.84" x2="115.20" y2="35.81"/>
    <line x1="129.60" y1="6.02" x2="115.20" y2="29.98"/>
    <line x1="129.60" y1="0.19" x2="115.20" y2="24.16"/>
    <line x1="126.22" y1="0.00" x2="115.20" y2="18.33"/>
    <line x1="122.72" y1="0.00" x2="115.20" y2="12.51"/>
    <line x1="119.22" y1="0.00" x2="115.20" y2="6.68"/>
    <line x1="115.72" y1="0.00" x2="115.20" y2="0.86"/>
  </g>
  <g stroke="#00F5D4" stroke-width="1" fill="none" stroke-linecap="round">
    <line x1="137.33" y1="36.00" x2="142.43" y2="21.18"/>
    <line x1="129.60" y1="15.52" x2="144.00" y2="20.48"/>
    <line x1="131.17" y1="14.82" x2="136.27" y2="-0.00"/>
  </g>
  <g stroke="#FFCA3A" stroke-width="1" fill="none" stroke-linecap="round">
    <line x1="155.31" y1="1.53" x2="158.40" y2="1.29"/>
    <line x1="151.51" y1="0.00" x2="151.19" y2="0.51"/>
    <line x1="152.73" y1="3.08" x2="158.40" y2="2.64"/>
    <line x1="158.40" y1="9.17" x2="157.37" y2="10.79"/>
    <line x1="149.92" y1="0.00" x2="148.62" y2="2.05"/>
    <line x1="150.16" y1="4.62" x2="156.85" y2="4.11"/>
    <line x1="158.40" y1="6.68" x2="154.80" y2="12.34"/>
    <line x1="156.34" y1="14.91" x2="158.40" y2="14.75"/>
    <line x1="148.33" y1="0.00" x2="146.05" y2="3.60"/>
    <line x1="147.59" y1="6.17" x2="154.28" y2="5.65"/>
    <line x1="155.82" y1="8.22" x2="152.23" y2="13.88"/>
    <line x1="153.77" y1="16.45" x2="158.40" y2="16.10"/>
    <line x1="146.74" y1="0.00" x2="144.00" y2="4.32"/>
    <line x1="145.02" y1="7.71" x2="151.71" y2="7.20"/>
    <line x1="153.25" y1="9.77" x2="149.65" y2="15.43"/>
    <line x1="151.20" y1="18.00" x2="157.89" y2="17.48"/>
    <line x1="158.40" y1="21.68" x2="155.84" y2="25.71"/>
    <line x1="157.38" y1="28.29" x2="158.40" y2="28.21"/>
    <line x1="144.50" y1="1.03" x2="144.00" y2="1.81"/>
    <line x1="144.00" y1="9.14" x2="149.14" y2="8.74"/>
    <line x1="150.68" y1="11.31" x2="147.08" y2="16.97"/>
    <line x1="148.63" y1="19.55" x2="155.32" y2="19.03"/>
    <line x1="156.86" y1="21.60" x2="153.26" y2="27.26"/>
    <line x1="154.81" y1="29.83" x2="158.40" y2="29.55"/>
    <line x1="144.00" y1="10.48" x2="146.56" y2="10.29"/>
    <line x1="148.11" y1="12.86" x2="144.51" y2="18.52"/>
    <line x1="146.06" y1="21.09" x2="152.75" y2="20.57"/>
    <line x1="154.29" y1="23.14" x2="150.69" y2="28.80"/>
    <line x1="152.24" y1="31.38" x2="158.40" y2="30.90"/>
    <line x1="145.54" y1="14.40" x2="144.00" y2="16.82"/>
    <line x1="144.00" y1="22.60" x2="150.17" y2="22.12"/>
    <line x1="151.72" y1="24.69" x2="148.12" y2="30.35"/>
    <line x1="149.67" y1="32.92" x2="156.35" y2="32.40"/>
    <line x1="157.90" y1="34.97" x2="157.25" y2="36.00"/>
    <line x1="144.00" y1="23.94" x2="147.60" y2="23.66"/>
    <line x1="149.15" y1="26.23" x2="145.55" y2="31.89"/>
    <line x1="147.09" y1="34.47" x2="153.78" y2="33.95"/>
    <line x1="144.00" y1="25.29" x2="145.03" y2="25.21"/>
    <line x1="146.58" y1="27.78" x2="144.00" y2="31.83"/>
    <line x1="144.67" y1="36.00" x2="151.21" y2="35.49"/>
    <line x1="144.00" y1="29.32" x2="144.00" y2="29.33"/>
  </g>
  <g stroke="#00F5D4" stroke-width="1" fill="none" stroke-linecap="round">
    <line x1="167.08" y1="1.09" x2="171.66" y2="0.00"/>
    <line x1="163.17" y1="-0.00" x2="162.85" y2="0.72"/>
    <line x1="164.78" y1="3.02" x2="171.31" y2="1.46"/>
    <line x1="172.80" y1="4.76" x2="170.57" y2="9.92"/>
    <line x1="172.49" y1="12.21" x2="172.80" y2="12.14"/>
    <line x1="161.70" y1="-0.00" x2="160.55" y2="2.65"/>
    <line x1="162.48" y1="4.95" x2="169.01" y2="3.39"/>
    <line x1="170.94" y1="5.69" x2="168.27" y2="11.85"/>
    <line x1="170.20" y1="14.14" x2="172.80" y2="13.52"/>
    <line x1="160.24" y1="0.00" x2="158.40" y2="4.25"/>
    <line x1="160.18" y1="6.88" x2="166.71" y2="5.32"/>
    <line x1="168.64" y1="7.62" x2="165.97" y2="13.77"/>
    <line x1="167.90" y1="16.07" x2="172.80" y2="14.90"/>
    <line x1="158.63" y1="0.35" x2="158.40" y2="0.88"/>
    <line x1="158.40" y1="8.68" x2="164.41" y2="7.25"/>
    <line x1="166.34" y1="9.55" x2="163.67" y2="15.70"/>
    <line x1="165.60" y1="18.00" x2="172.12" y2="16.44"/>
    <line x1="172.80" y1="21.63" x2="171.39" y2="24.89"/>
    <line x1="158.40" y1="10.06" x2="162.11" y2="9.18"/>
    <line x1="164.04" y1="11.48" x2="161.37" y2="17.63"/>
    <line x1="163.30" y1="19.93" x2="169.83" y2="18.37"/>
    <line x1="171.75" y1="20.67" x2="169.09" y2="26.82"/>
    <line x1="171.02" y1="29.12" x2="172.80" y2="28.69"/>
    <line x1="158.40" y1="11.44" x2="159.81" y2="11.11"/>
    <line x1="161.74" y1="13.40" x2="159.08" y2="19.56"/>
    <line x1="161.00" y1="21.86" x2="167.53" y2="20.30"/>
    <line x1="169.46" y1="22.60" x2="166.79" y2="28.75"/>
    <line x1="168.72" y1="31.05" x2="172.80" y2="30.07"/>
    <line x1="159.45" y1="15.33" x2="158.40" y2="17.74"/>
    <line x1="158.71" y1="23.79" x2="165.23" y2="22.23"/>
    <line x1="167.16" y1="24.52" x2="164.49" y2="30.68"/>
    <line x1="166.42" y1="32.98" x2="172.80" y2="31.45"/>
    <line x1="158.40" y1="25.24" x2="162.93" y2="24.15"/>
    <line x1="164.86" y1="26.45" x2="162.19" y2="32.61"/>
    <line x1="164.12" y1="34.91" x2="170.65" y2="33.35"/>
    <line x1="172.57" y1="35.65" x2="172.42" y2="36.00"/>
    <line x1="158.40" y1="26.62" x2="160.63" y2="26.08"/>
    <line x1="162.56" y1="28.38" x2="159.89" y2="34.54"/>
    <line x1="165.32" y1="36.00" x2="168.35" y2="35.28"/>
    <line x1="160.26" y1="30.31" x2="158.40" y2="34.61"/>
  </g>
  <g stroke="#E63946" stroke-width="1" fill="none" stroke-linecap="round">
    <line x1="187.20" y1="28.80" x2="185.41" y2="36.00"/>
    <line x1="187.20" y1="21.36" x2="183.55" y2="36.00"/>
    <line x1="186.34" y1="0.00" x2="177.37" y2="36.00"/>
    <line x1="184.49" y1="-0.00" x2="175.51" y2="36.00"/>
    <line x1="182.63" y1="0.00" x2="173.66" y2="36.00"/>
    <line x1="176.45" y1="0.00" x2="172.80" y2="14.64"/>
    <line x1="174.59" y1="0.00" x2="172.80" y2="7.20"/>
  </g>
  <g stroke="#7209B7" stroke-width="1" fill="none" stroke-linecap="round">
    <line x1="201.60" y1="23.90" x2="196.11" y2="20.86"/>
    <line x1="195.14" y1="36.00" x2="197.51" y2="31.73"/>
    <line x1="201.60" y1="1.61" x2="198.69" y2="0.00"/>
    <line x1="190.04" y1="25.87" x2="198.76" y2="10.13"/>
    <line x1="190.11" y1="36.00" x2="187.20" y2="34.39"/>
    <line x1="191.29" y1="4.27" x2="193.66" y2="0.00"/>
    <line x1="192.69" y1="15.14" x2="187.20" y2="12.10"/>
  </g>
  <g stroke="#00B4D8" stroke-width="1" fill="none" stroke-linecap="round">
    <line x1="216.00" y1="35.64" x2="215.48" y2="34.98"/>
    <line x1="212.54" y1="35.61" x2="212.44" y2="36.00"/>
    <line x1="216.00" y1="33.49" x2="214.85" y2="32.05"/>
    <line x1="211.92" y1="32.67" x2="211.05" y2="36.00"/>
    <line x1="204.28" y1="36.00" x2="203.12" y2="34.54"/>
    <line x1="216.00" y1="31.33" x2="214.23" y2="29.11"/>
    <line x1="211.29" y1="29.74" x2="209.67" y2="36.00"/>
    <line x1="205.99" y1="36.00" x2="202.49" y2="31.61"/>
    <line x1="216.00" y1="29.18" x2="213.61" y2="26.18"/>
    <line x1="210.67" y1="26.80" x2="208.98" y2="33.30"/>
    <line x1="206.05" y1="33.92" x2="201.87" y2="28.67"/>
    <line x1="216.00" y1="27.03" x2="212.98" y2="23.25"/>
    <line x1="210.05" y1="23.87" x2="208.36" y2="30.36"/>
    <line x1="205.43" y1="30.99" x2="201.60" y2="26.19"/>
    <line x1="216.00" y1="24.88" x2="212.36" y2="20.31"/>
    <line x1="209.42" y1="20.93" x2="207.74" y2="27.43"/>
    <line x1="204.80" y1="28.05" x2="201.60" y2="24.03"/>
    <line x1="215.92" y1="22.62" x2="211.73" y2="17.38"/>
    <line x1="208.80" y1="18.00" x2="207.11" y2="24.49"/>
    <line x1="204.18" y1="25.12" x2="201.60" y2="21.88"/>
    <line x1="215.29" y1="19.69" x2="211.11" y2="14.44"/>
    <line x1="208.18" y1="15.07" x2="206.49" y2="21.56"/>
    <line x1="203.55" y1="22.18" x2="201.60" y2="19.73"/>
    <line x1="214.67" y1="16.75" x2="210.49" y2="11.51"/>
    <line x1="207.55" y1="12.13" x2="205.87" y2="18.62"/>
    <line x1="202.93" y1="19.25" x2="201.60" y2="17.58"/>
    <line x1="214.05" y1="13.82" x2="209.86" y2="8.57"/>
    <line x1="206.93" y1="9.20" x2="205.24" y2="15.69"/>
    <line x1="202.31" y1="16.31" x2="201.60" y2="15.43"/>
    <line x1="213.42" y1="10.88" x2="209.24" y2="5.64"/>
    <line x1="206.31" y1="6.26" x2="204.62" y2="12.75"/>
    <line x1="201.68" y1="13.38" x2="201.60" y2="13.27"/>
    <line x1="216.00" y1="6.29" x2="215.73" y2="7.33"/>
    <line x1="212.80" y1="7.95" x2="208.62" y2="2.70"/>
    <line x1="205.68" y1="3.33" x2="203.99" y2="9.82"/>
    <line x1="216.00" y1="0.96" x2="215.11" y2="4.39"/>
    <line x1="212.17" y1="5.01" x2="208.18" y2="0.00"/>
    <line x1="205.06" y1="0.39" x2="203.37" y2="6.89"/>
    <line x1="214.86" y1="0.00" x2="214.48" y2="1.46"/>
    <line x1="211.55" y1="2.08" x2="209.89" y2="0.00"/>
    <line x1="203.77" y1="0.00" x2="202.75" y2="3.95"/>
    <line x1="202.39" y1="0.00" x2="202.12" y2="1.02"/>
  </g>
  <g stroke="#E9C46A" stroke-width="1" fill="none" stroke-linecap="round">
    <line x1="230.06" y1="-0.00" x2="230.40" y2="2.79"/>
    <line x1="227.03" y1="-0.00" x2="230.40" y2="27.41"/>
    <line x1="224.01" y1="-0.00" x2="228.43" y2="36.00"/>
    <line x1="220.99" y1="-0.00" x2="225.41" y2="36.00"/>
    <line x1="217.97" y1="-0.00" x2="222.39" y2="36.00"/>
    <line x1="216.00" y1="8.59" x2="219.37" y2="36.00"/>
    <line x1="216.00" y1="33.21" x2="216.34" y2="36.00"/>
  </g>
  <g stroke="#F72585" stroke-width="1" fill="none" stroke-linecap="round">
    <line x1="241.83" y1="0.00" x2="244.80" y2="3.42"/>
    <line x1="237.85" y1="-0.00" x2="244.80" y2="7.99"/>
    <line x1="233.88" y1="-0.00" x2="244.80" y2="12.56"/>
    <line x1="230.40" y1="0.57" x2="244.80" y2="17.14"/>
    <line x1="230.40" y1="5.14" x2="244.80" y2="21.71"/>
    <line x1="230.40" y1="9.72" x2="244.80" y2="26.28"/>
    <line x1="230.40" y1="14.29" x2="244.80" y2="30.86"/>
    <line x1="230.40" y1="18.86" x2="244.80" y2="35.43"/>
    <line x1="230.40" y1="23.44" x2="241.32" y2="36.00"/>
    <line x1="230.40" y1="28.01" x2="237.35" y2="36.00"/>
    <line x1="230.40" y1="32.58" x2="233.37" y2="36.00"/>
    <line x1="244.80" y1="35.59" x2="244.33" y2="36.00"/>
    <line x1="244.80" y1="31.62" x2="239.76" y2="36.00"/>
    <line x1="244.80" y1="27.64" x2="235.18" y2="36.00"/>
    <line x1="244.80" y1="23.67" x2="230.61" y2="36.00"/>
    <line x1="244.80" y1="19.69" x2="230.40" y2="32.21"/>
    <line x1="244.80" y1="15.72" x2="230.40" y2="28.23"/>
    <line x1="244.80" y1="11.74" x2="230.40" y2="24.26"/>
    <line x1="244.80" y1="7.77" x2="230.40" y2="20.28"/>
    <line x1="244.80" y1="3.79" x2="230.40" y2="16.31"/>
    <line x1="244.59" y1="0.00" x2="230.40" y2="12.33"/>
    <line x1="240.02" y1="0.00" x2="230.40" y2="8.36"/>
    <line x1="235.44" y1="0.00" x2="230.40" y2="4.38"/>
    <line x1="230.87" y1="-0.00" x2="230.40" y2="0.41"/>
  </g>
  <g stroke="#FFCA3A" stroke-width="1" fill="none" stroke-linecap="round">
    <line x1="255.99" y1="0.00" x2="259.20" y2="1.50"/>
    <line x1="248.89" y1="0.00" x2="259.20" y2="4.81"/>
    <line x1="244.80" y1="1.40" x2="259.20" y2="8.12"/>
    <line x1="244.80" y1="4.71" x2="259.20" y2="11.43"/>
    <line x1="244.80" y1="8.02" x2="259.20" y2="14.74"/>
    <line x1="244.80" y1="11.33" x2="259.20" y2="18.05"/>
    <line x1="244.80" y1="14.64" x2="259.20" y2="21.36"/>
    <line x1="244.80" y1="17.95" x2="259.20" y2="24.67"/>
    <line x1="244.80" y1="21.26" x2="259.20" y2="27.98"/>
    <line x1="244.80" y1="24.57" x2="259.20" y2="31.29"/>
    <line x1="244.80" y1="27.88" x2="259.20" y2="34.60"/>
    <line x1="244.80" y1="31.19" x2="255.11" y2="36.00"/>
    <line x1="244.80" y1="34.50" x2="248.01" y2="36.00"/>
  </g>
  <g stroke="#7209B7" stroke-width="1" fill="none" stroke-linecap="round">
    <line x1="271.06" y1="35.39" x2="270.93" y2="36.00"/>
    <line x1="273.60" y1="32.19" x2="273.18" y2="31.71"/>
    <line x1="270.28" y1="32.49" x2="269.56" y2="36.00"/>
    <line x1="262.64" y1="36.00" x2="261.59" y2="34.82"/>
    <line x1="273.60" y1="30.16" x2="272.40" y2="28.81"/>
    <line x1="269.51" y1="29.59" x2="268.19" y2="36.00"/>
    <line x1="264.43" y1="36.00" x2="260.81" y2="31.92"/>
    <line x1="273.60" y1="28.14" x2="271.63" y2="25.92"/>
    <line x1="268.73" y1="26.69" x2="267.38" y2="33.27"/>
    <line x1="264.49" y1="34.04" x2="260.04" y2="29.02"/>
    <line x1="273.60" y1="26.12" x2="270.85" y2="23.02"/>
    <line x1="267.95" y1="23.80" x2="266.61" y2="30.37"/>
    <line x1="263.71" y1="31.14" x2="259.26" y2="26.12"/>
    <line x1="273.60" y1="24.10" x2="270.07" y2="20.12"/>
    <line x1="267.18" y1="20.90" x2="265.83" y2="27.47"/>
    <line x1="262.93" y1="28.25" x2="259.20" y2="24.04"/>
    <line x1="273.60" y1="22.08" x2="269.30" y2="17.22"/>
    <line x1="266.40" y1="18.00" x2="265.06" y2="24.57"/>
    <line x1="262.16" y1="25.35" x2="259.20" y2="22.01"/>
    <line x1="272.97" y1="19.34" x2="268.52" y2="14.33"/>
    <line x1="265.62" y1="15.10" x2="264.28" y2="21.67"/>
    <line x1="261.38" y1="22.45" x2="259.20" y2="19.99"/>
    <line x1="272.20" y1="16.45" x2="267.74" y2="11.43"/>
    <line x1="264.85" y1="12.20" x2="263.50" y2="18.78"/>
    <line x1="260.60" y1="19.55" x2="259.20" y2="17.97"/>
    <line x1="271.42" y1="13.55" x2="266.97" y2="8.53"/>
    <line x1="264.07" y1="9.31" x2="262.73" y2="15.88"/>
    <line x1="259.83" y1="16.66" x2="259.20" y2="15.95"/>
    <line x1="273.60" y1="9.58" x2="273.54" y2="9.88"/>
    <line x1="270.64" y1="10.65" x2="266.19" y2="5.63"/>
    <line x1="263.29" y1="6.41" x2="261.95" y2="12.98"/>
    <line x1="273.60" y1="2.89" x2="272.76" y2="6.98"/>
    <line x1="269.87" y1="7.75" x2="265.42" y2="2.73"/>
    <line x1="262.52" y1="3.51" x2="261.17" y2="10.08"/>
    <line x1="272.82" y1="0.00" x2="271.99" y2="4.08"/>
    <line x1="269.09" y1="4.86" x2="264.78" y2="0.00"/>
    <line x1="261.74" y1="0.61" x2="260.40" y2="7.19"/>
    <line x1="271.45" y1="0.00" x2="271.21" y2="1.18"/>
    <line x1="268.31" y1="1.96" x2="266.58" y2="0.00"/>
    <line x1="260.50" y1="0.00" x2="259.62" y2="4.29"/>
  </g>
  <g stroke="#FEE440" stroke-width="1" fill="none" stroke-linecap="round">
    <line x1="288.00" y1="33.15" x2="285.77" y2="36.00"/>
    <line x1="288.00" y1="28.28" x2="281.97" y2="36.00"/>
    <line x1="288.00" y1="23.40" x2="278.16" y2="36.00"/>
    <line x1="288.00" y1="18.53" x2="274.35" y2="36.00"/>
    <line x1="288.00" y1="13.66" x2="273.60" y2="32.09"/>
    <line x1="288.00" y1="8.78" x2="273.60" y2="27.22"/>
    <line x1="288.00" y1="3.91" x2="273.60" y2="22.34"/>
    <line x1="287.25" y1="0.00" x2="273.60" y2="17.47"/>
    <line x1="283.44" y1="0.00" x2="273.60" y2="12.60"/>
    <line x1="279.63" y1="0.00" x2="273.60" y2="7.72"/>
    <line x1="275.83" y1="0.00" x2="273.60" y2="2.85"/>
    <line x1="274.60" y1="36.00" x2="273.60" y2="35.22"/>
    <line x1="279.47" y1="36.00" x2="273.60" y2="31.41"/>
    <line x1="284.35" y1="36.00" x2="273.60" y2="27.60"/>
    <line x1="288.00" y1="35.05" x2="273.60" y2="23.80"/>
    <line x1="288.00" y1="31.24" x2="273.60" y2="19.99"/>
    <line x1="288.00" y1="27.43" x2="273.60" y2="16.18"/>
    <line x1="288.00" y1="23.63" x2="273.60" y2="12.37"/>
    <line x1="288.00" y1="19.82" x2="273.60" y2="8.57"/>
    <line x1="288.00" y1="16.01" x2="273.60" y2="4.76"/>
    <line x1="288.00" y1="12.20" x2="273.60" y2="0.95"/>
    <line x1="288.00" y1="8.40" x2="277.25" y2="0.00"/>
    <line x1="288.00" y1="4.59" x2="282.13" y2="-0.00"/>
    <line x1="288.00" y1="0.78" x2="287.00" y2="-0.00"/>
  </g>
  <g stroke="#06D6A0" stroke-width="1" fill="none" stroke-linecap="round">
    <line x1="302.40" y1="34.52" x2="299.36" y2="36.00"/>
    <line x1="302.40" y1="31.18" x2="292.51" y2="36.00"/>
    <line x1="302.40" y1="27.84" x2="288.00" y2="34.86"/>
    <line x1="302.40" y1="24.50" x2="288.00" y2="31.53"/>
    <line x1="302.40" y1="21.16" x2="288.00" y2="28.19"/>
    <line x1="302.40" y1="17.83" x2="288.00" y2="24.85"/>
    <line x1="302.40" y1="14.49" x2="288.00" y2="21.51"/>
    <line x1="302.40" y1="11.15" x2="288.00" y2="18.17"/>
    <line x1="302.40" y1="7.81" x2="288.00" y2="14.84"/>
    <line x1="302.40" y1="4.47" x2="288.00" y2="11.50"/>
    <line x1="302.40" y1="1.14" x2="288.00" y2="8.16"/>
    <line x1="297.89" y1="0.00" x2="288.00" y2="4.82"/>
    <line x1="291.04" y1="0.00" x2="288.00" y2="1.48"/>
  </g>
  <g stroke="#7209B7" stroke-width="1" fill="none" stroke-linecap="round">
    <line x1="314.66" y1="-0.00" x2="316.55" y2="36.00"/>
    <line x1="311.66" y1="-0.00" x2="313.55" y2="36.00"/>
    <line x1="308.66" y1="-0.00" x2="310.54" y2="36.00"/>
    <line x1="305.65" y1="-0.00" x2="307.54" y2="36.00"/>
    <line x1="302.65" y1="0.00" x2="304.54" y2="36.00"/>
  </g>
  <g stroke="#FB5607" stroke-width="1" fill="none" stroke-linecap="round">
    <line x1="331.20" y1="35.17" x2="325.26" y2="36.00"/>
    <line x1="331.20" y1="32.14" x2="316.80" y2="34.16"/>
    <line x1="331.20" y1="29.11" x2="316.80" y2="31.13"/>
    <line x1="331.20" y1="26.08" x2="316.80" y2="28.10"/>
    <line x1="331.20" y1="23.05" x2="316.80" y2="25.07"/>
    <line x1="331.20" y1="20.02" x2="316.80" y2="22.04"/>
    <line x1="331.20" y1="16.99" x2="316.80" y2="19.01"/>
    <line x1="331.20" y1="13.96" x2="316.80" y2="15.98"/>
    <line x1="331.20" y1="10.93" x2="316.80" y2="12.95"/>
    <line x1="331.20" y1="7.90" x2="316.80" y2="9.92"/>
    <line x1="331.20" y1="4.87" x2="316.80" y2="6.89"/>
    <line x1="331.20" y1="1.84" x2="316.80" y2="3.86"/>
    <line x1="322.74" y1="-0.00" x2="316.80" y2="0.83"/>
  </g>
  <g stroke="#90BE6D" stroke-width="1" fill="none" stroke-linecap="round">
    <line x1="344.50" y1="31.70" x2="344.31" y2="36.00"/>
    <line x1="337.05" y1="36.00" x2="336.28" y2="35.36"/>
    <line x1="343.28" y1="28.96" x2="342.98" y2="35.66"/>
    <line x1="339.16" y1="36.00" x2="335.06" y2="32.62"/>
    <line x1="332.32" y1="33.84" x2="332.22" y2="36.00"/>
    <line x1="345.60" y1="25.66" x2="344.80" y2="25.00"/>
    <line x1="342.06" y1="26.22" x2="341.76" y2="32.92"/>
    <line x1="339.02" y1="34.14" x2="333.84" y2="29.88"/>
    <line x1="345.60" y1="23.92" x2="343.58" y2="22.26"/>
    <line x1="340.84" y1="23.48" x2="340.54" y2="30.18"/>
    <line x1="337.80" y1="31.40" x2="332.62" y2="27.14"/>
    <line x1="345.60" y1="22.18" x2="342.36" y2="19.52"/>
    <line x1="339.62" y1="20.74" x2="339.32" y2="27.44"/>
    <line x1="336.58" y1="28.66" x2="331.40" y2="24.40"/>
    <line x1="345.60" y1="20.45" x2="341.14" y2="16.78"/>
    <line x1="338.40" y1="18.00" x2="338.10" y2="24.70"/>
    <line x1="335.36" y1="25.92" x2="331.20" y2="22.50"/>
    <line x1="345.10" y1="18.30" x2="339.92" y2="14.04"/>
    <line x1="337.18" y1="15.26" x2="336.88" y2="21.96"/>
    <line x1="334.14" y1="23.18" x2="331.20" y2="20.76"/>
    <line x1="343.88" y1="15.56" x2="338.70" y2="11.30"/>
    <line x1="335.96" y1="12.52" x2="335.66" y2="19.22"/>
    <line x1="332.92" y1="20.44" x2="331.20" y2="19.03"/>
    <line x1="345.60" y1="7.17" x2="345.40" y2="11.60"/>
    <line x1="342.66" y1="12.82" x2="337.48" y2="8.56"/>
    <line x1="334.74" y1="9.78" x2="334.44" y2="16.48"/>
    <line x1="331.70" y1="17.70" x2="331.20" y2="17.29"/>
    <line x1="344.48" y1="2.16" x2="344.18" y2="8.86"/>
    <line x1="341.44" y1="10.08" x2="336.26" y2="5.82"/>
    <line x1="333.52" y1="7.04" x2="333.22" y2="13.74"/>
    <line x1="343.24" y1="0.00" x2="342.96" y2="6.12"/>
    <line x1="340.22" y1="7.34" x2="335.04" y2="3.08"/>
    <line x1="332.30" y1="4.30" x2="332.00" y2="11.00"/>
    <line x1="341.89" y1="0.00" x2="341.74" y2="3.38"/>
    <line x1="339.00" y1="4.60" x2="333.82" y2="0.34"/>
    <line x1="340.55" y1="0.00" x2="340.52" y2="0.64"/>
    <line x1="337.78" y1="1.86" x2="335.52" y2="0.00"/>
  </g>
  <g stroke="#9B5DE5" stroke-width="1" fill="none" stroke-linecap="round">
    <line x1="358.75" y1="0.00" x2="360.00" y2="1.85"/>
    <line x1="355.13" y1="0.00" x2="360.00" y2="7.21"/>
    <line x1="351.51" y1="0.00" x2="360.00" y2="12.58"/>
    <line x1="347.90" y1="0.00" x2="360.00" y2="17.94"/>
    <line x1="345.60" y1="1.96" x2="360.00" y2="23.31"/>
    <line x1="345.60" y1="7.33" x2="360.00" y2="28.67"/>
    <line x1="345.60" y1="12.69" x2="360.00" y2="34.04"/>
    <line x1="345.60" y1="18.06" x2="357.70" y2="36.00"/>
    <line x1="345.60" y1="23.42" x2="354.09" y2="36.00"/>
    <line x1="345.60" y1="28.79" x2="350.47" y2="36.00"/>
    <line x1="345.60" y1="34.15" x2="346.85" y2="36.00"/>
  </g>
  <g stroke="#EF476F" stroke-width="1" fill="none" stroke-linecap="round">
    <line x1="374.40" y1="28.53" x2="370.26" y2="36.00"/>
    <line x1="374.40" y1="24.81" x2="368.20" y2="36.00"/>
    <line x1="374.40" y1="21.10" x2="366.14" y2="36.00"/>
    <line x1="374.40" y1="8.72" x2="360.00" y2="34.70"/>
    <line x1="374.40" y1="5.01" x2="360.00" y2="30.99"/>
    <line x1="374.40" y1="1.30" x2="360.00" y2="27.28"/>
    <line x1="368.26" y1="0.00" x2="360.00" y2="14.90"/>
    <line x1="366.20" y1="0.00" x2="360.00" y2="11.19"/>
    <line x1="364.14" y1="0.00" x2="360.00" y2="7.47"/>
  </g>
  <g stroke="#118AB2" stroke-width="1" fill="none" stroke-linecap="round">
    <line x1="388.80" y1="30.69" x2="384.80" y2="36.00"/>
    <line x1="388.80" y1="20.72" x2="377.29" y2="36.00"/>
    <line x1="388.80" y1="10.75" x2="374.40" y2="29.86"/>
    <line x1="388.80" y1="0.78" x2="374.40" y2="19.89"/>
    <line x1="381.87" y1="0.00" x2="374.40" y2="9.92"/>
    <line x1="388.80" y1="6.66" x2="379.96" y2="0.00"/>
    <line x1="388.80" y1="14.18" x2="374.40" y2="3.33"/>
    <line x1="388.80" y1="21.69" x2="374.40" y2="10.84"/>
    <line x1="388.80" y1="29.20" x2="374.40" y2="18.35"/>
    <line x1="387.85" y1="36.00" x2="374.40" y2="25.86"/>
    <line x1="377.88" y1="36.00" x2="374.40" y2="33.38"/>
  </g>
  <g stroke="#FF006E" stroke-width="1" fill="none" stroke-linecap="round">
    <line x1="403.20" y1="34.48" x2="399.79" y2="19.73"/>
    <line x1="391.37" y1="36.00" x2="394.84" y2="35.20"/>
    <line x1="388.80" y1="19.66" x2="403.20" y2="16.34"/>
    <line x1="397.16" y1="0.80" x2="400.63" y2="-0.00"/>
    <line x1="392.21" y1="16.27" x2="388.80" y2="1.52"/>
  </g>
  <g stroke="#FFD166" stroke-width="1" fill="none" stroke-linecap="round">
    <line x1="404.56" y1="-0.00" x2="417.60" y2="6.64"/>
    <line x1="403.20" y1="6.04" x2="417.60" y2="13.38"/>
    <line x1="403.20" y1="12.78" x2="417.60" y2="20.11"/>
    <line x1="403.20" y1="19.51" x2="417.60" y2="26.85"/>
    <line x1="403.20" y1="26.24" x2="417.60" y2="33.58"/>
    <line x1="403.20" y1="32.98" x2="409.13" y2="36.00"/>
    <line x1="404.55" y1="-0.00" x2="403.20" y2="2.64"/>
    <line x1="411.28" y1="0.00" x2="403.20" y2="15.86"/>
    <line x1="417.60" y1="0.81" x2="403.20" y2="29.08"/>
    <line x1="417.60" y1="14.03" x2="406.41" y2="36.00"/>
    <line x1="417.60" y1="27.25" x2="413.14" y2="36.00"/>
  </g>
  <g stroke="#F15BB5" stroke-width="1" fill="none" stroke-linecap="round">
    <line x1="427.49" y1="0.00" x2="432.00" y2="1.38"/>
    <line x1="417.60" y1="0.11" x2="432.00" y2="4.52"/>
    <line x1="417.60" y1="3.25" x2="432.00" y2="7.65"/>
    <line x1="417.60" y1="6.39" x2="432.00" y2="10.79"/>
    <line x1="417.60" y1="9.52" x2="432.00" y2="13.93"/>
    <line x1="417.60" y1="12.66" x2="432.00" y2="17.06"/>
    <line x1="417.60" y1="15.80" x2="432.00" y2="20.20"/>
    <line x1="417.60" y1="18.94" x2="432.00" y2="23.34"/>
    <line x1="417.60" y1="22.07" x2="432.00" y2="26.48"/>
    <line x1="417.60" y1="25.21" x2="432.00" y2="29.61"/>
    <line x1="417.60" y1="28.35" x2="432.00" y2="32.75"/>
    <line x1="417.60" y1="31.48" x2="432.00" y2="35.89"/>
    <line x1="417.60" y1="34.62" x2="422.11" y2="36.00"/>
    <line x1="432.00" y1="35.49" x2="431.85" y2="36.00"/>
    <line x1="432.00" y1="25.23" x2="428.71" y2="36.00"/>
    <line x1="432.00" y1="14.97" x2="425.57" y2="36.00"/>
    <line x1="432.00" y1="4.71" x2="422.43" y2="36.00"/>
    <line x1="430.30" y1="0.00" x2="419.30" y2="36.00"/>
    <line x1="427.17" y1="0.00" x2="417.60" y2="31.29"/>
    <line x1="424.03" y1="-0.00" x2="417.60" y2="21.03"/>
    <line x1="420.89" y1="-0.00" x2="417.60" y2="10.77"/>
    <line x1="417.75" y1="0.00" x2="417.60" y2="0.51"/>
  </g>
  <g stroke="#FEE440" stroke-width="1" fill="none" stroke-linecap="round">
    <line x1="446.40" y1="34.67" x2="445.97" y2="36.00"/>
    <line x1="446.40" y1="24.97" x2="442.81" y2="36.00"/>
    <line x1="446.40" y1="15.26" x2="439.66" y2="36.00"/>
    <line x1="446.40" y1="5.55" x2="436.51" y2="36.00"/>
    <line x1="445.05" y1="0.00" x2="433.35" y2="36.00"/>
    <line x1="441.89" y1="-0.00" x2="432.00" y2="30.45"/>
    <line x1="438.74" y1="0.00" x2="432.00" y2="20.74"/>
    <line x1="435.59" y1="0.00" x2="432.00" y2="11.03"/>
    <line x1="432.43" y1="0.00" x2="432.00" y2="1.33"/>
  </g>
  <g stroke="#118AB2" stroke-width="1" fill="none" stroke-linecap="round">
    <line x1="455.17" y1="0.00" x2="460.80" y2="0.99"/>
    <line x1="446.40" y1="1.50" x2="460.80" y2="4.04"/>
    <line x1="446.40" y1="4.55" x2="460.80" y2="7.08"/>
    <line x1="446.40" y1="7.59" x2="460.80" y2="10.13"/>
    <line x1="446.40" y1="10.64" x2="460.80" y2="13.18"/>
    <line x1="446.40" y1="13.68" x2="460.80" y2="16.22"/>
    <line x1="446.40" y1="16.73" x2="460.80" y2="19.27"/>
    <line x1="446.40" y1="19.78" x2="460.80" y2="22.32"/>
    <line x1="446.40" y1="22.82" x2="460.80" y2="25.36"/>
    <line x1="446.40" y1="25.87" x2="460.80" y2="28.41"/>
    <line x1="446.40" y1="28.92" x2="460.80" y2="31.45"/>
    <line x1="446.40" y1="31.96" x2="460.80" y2="34.50"/>
    <line x1="446.40" y1="35.01" x2="452.03" y2="36.00"/>
  </g>
  <g stroke="#06D6A0" stroke-width="1" fill="none" stroke-linecap="round">
    <line x1="474.87" y1="-0.00" x2="475.20" y2="2.09"/>
    <line x1="473.05" y1="0.00" x2="475.20" y2="13.60"/>
    <line x1="466.97" y1="-0.00" x2="472.67" y2="36.00"/>
    <line x1="465.15" y1="-0.00" x2="470.85" y2="36.00"/>
    <line x1="463.33" y1="-0.00" x2="469.03" y2="36.00"/>
    <line x1="460.80" y1="22.40" x2="462.95" y2="36.00"/>
    <line x1="460.80" y1="33.91" x2="461.13" y2="36.00"/>
  </g>
  <g stroke="#E63946" stroke-width="1" fill="none" stroke-linecap="round">
    <line x1="488.60" y1="0.00" x2="489.60" y2="1.55"/>
    <line x1="485.02" y1="0.00" x2="489.60" y2="7.05"/>
    <line x1="481.44" y1="0.00" x2="489.60" y2="12.56"/>
    <line x1="477.86" y1="-0.00" x2="489.60" y2="18.07"/>
    <line x1="475.20" y1="1.40" x2="489.60" y2="23.58"/>
    <line x1="475.20" y1="6.91" x2="489.60" y2="29.09"/>
    <line x1="475.20" y1="12.42" x2="489.60" y2="34.60"/>
    <line x1="475.20" y1="17.93" x2="486.94" y2="36.00"/>
    <line x1="475.20" y1="23.44" x2="483.36" y2="36.00"/>
    <line x1="475.20" y1="28.95" x2="479.78" y2="36.00"/>
    <line x1="475.20" y1="34.45" x2="476.20" y2="36.00"/>
  </g>
  <g stroke="#2A9D8F" stroke-width="1" fill="none" stroke-linecap="round">
    <line x1="501.26" y1="0.00" x2="504.00" y2="6.14"/>
    <line x1="499.29" y1="0.00" x2="504.00" y2="10.57"/>
    <line x1="497.32" y1="0.00" x2="504.00" y2="14.99"/>
    <line x1="490.76" y1="-0.00" x2="504.00" y2="29.75"/>
    <line x1="489.60" y1="1.83" x2="504.00" y2="34.17"/>
    <line x1="489.60" y1="6.25" x2="502.84" y2="36.00"/>
    <line x1="489.60" y1="21.01" x2="496.28" y2="36.00"/>
    <line x1="489.60" y1="25.43" x2="494.31" y2="36.00"/>
    <line x1="489.60" y1="29.86" x2="492.34" y2="36.00"/>
  </g>
  <g stroke="#FB5607" stroke-width="1" fill="none" stroke-linecap="round">
    <line x1="517.04" y1="0.00" x2="518.40" y2="15.54"/>
    <line x1="511.02" y1="0.00" x2="514.17" y2="36.00"/>
    <line x1="504.99" y1="0.00" x2="508.14" y2="36.00"/>
    <line x1="518.40" y1="3.93" x2="504.00" y2="5.19"/>
    <line x1="518.40" y1="9.96" x2="504.00" y2="11.22"/>
    <line x1="518.40" y1="15.98" x2="504.00" y2="17.24"/>
    <line x1="518.40" y1="22.00" x2="504.00" y2="23.26"/>
    <line x1="518.40" y1="28.02" x2="504.00" y2="29.28"/>
    <line x1="518.40" y1="34.05" x2="504.00" y2="35.31"/>
  </g>
  <g stroke="#00B4D8" stroke-width="1" fill="none" stroke-linecap="round">
    <line x1="532.80" y1="35.60" x2="532.76" y2="36.00"/>
    <line x1="532.80" y1="6.90" x2="529.74" y2="36.00"/>
    <line x1="530.51" y1="0.00" x2="526.72" y2="36.00"/>
    <line x1="527.49" y1="0.00" x2="523.71" y2="36.00"/>
    <line x1="524.48" y1="0.00" x2="520.69" y2="36.00"/>
    <line x1="521.46" y1="0.00" x2="518.40" y2="29.10"/>
    <line x1="518.44" y1="0.00" x2="518.40" y2="0.40"/>
    <line x1="524.66" y1="36.00" x2="518.40" y2="35.34"/>
    <line x1="532.80" y1="33.84" x2="518.40" y2="32.33"/>
    <line x1="532.80" y1="30.82" x2="518.40" y2="29.31"/>
    <line x1="532.80" y1="27.81" x2="518.40" y2="26.29"/>
    <line x1="532.80" y1="24.79" x2="518.40" y2="23.28"/>
    <line x1="532.80" y1="21.77" x2="518.40" y2="20.26"/>
    <line x1="532.80" y1="18.76" x2="518.40" y2="17.24"/>
    <line x1="532.80" y1="15.74" x2="518.40" y2="14.23"/>
    <line x1="532.80" y1="12.72" x2="518.40" y2="11.21"/>
    <line x1="532.80" y1="9.71" x2="518.40" y2="8.19"/>
    <line x1="532.80" y1="6.69" x2="518.40" y2="5.18"/>
    <line x1="532.80" y1="3.67" x2="518.40" y2="2.16"/>
    <line x1="532.80" y1="0.66" x2="526.54" y2="0.00"/>
  </g>
  <g stroke="#FEE440" stroke-width="1" fill="none" stroke-linecap="round">
    <line x1="547.20" y1="32.01" x2="543.21" y2="36.00"/>
    <line x1="547.20" y1="27.77" x2="538.97" y2="36.00"/>
    <line x1="547.20" y1="23.53" x2="534.73" y2="36.00"/>
    <line x1="547.20" y1="19.29" x2="532.80" y2="33.69"/>
    <line x1="547.20" y1="15.04" x2="532.80" y2="29.44"/>
    <line x1="547.20" y1="10.80" x2="532.80" y2="25.20"/>
    <line x1="547.20" y1="6.56" x2="532.80" y2="20.96"/>
    <line x1="547.20" y1="2.31" x2="532.80" y2="16.71"/>
    <line x1="545.27" y1="0.00" x2="532.80" y2="12.47"/>
    <line x1="541.03" y1="0.00" x2="532.80" y2="8.23"/>
    <line x1="536.79" y1="-0.00" x2="532.80" y2="3.99"/>
  </g>
  <g stroke="#06D6A0" stroke-width="1" fill="none" stroke-linecap="round">
    <line x1="558.63" y1="0.00" x2="561.60" y2="3.42"/>
    <line x1="554.65" y1="0.00" x2="561.60" y2="7.99"/>
    <line x1="550.68" y1="0.00" x2="561.60" y2="12.56"/>
    <line x1="547.20" y1="0.57" x2="561.60" y2="17.14"/>
    <line x1="547.20" y1="5.14" x2="561.60" y2="21.71"/>
    <line x1="547.20" y1="9.72" x2="561.60" y2="26.28"/>
    <line x1="547.20" y1="14.29" x2="561.60" y2="30.86"/>
    <line x1="547.20" y1="18.86" x2="561.60" y2="35.43"/>
    <line x1="547.20" y1="23.44" x2="558.12" y2="36.00"/>
    <line x1="547.20" y1="28.01" x2="554.15" y2="36.00"/>
    <line x1="547.20" y1="32.58" x2="550.17" y2="36.00"/>
    <line x1="561.60" y1="35.59" x2="561.13" y2="36.00"/>
    <line x1="561.60" y1="31.62" x2="556.56" y2="36.00"/>
    <line x1="561.60" y1="27.64" x2="551.98" y2="36.00"/>
    <line x1="561.60" y1="23.67" x2="547.41" y2="36.00"/>
    <line x1="561.60" y1="19.69" x2="547.20" y2="32.21"/>
    <line x1="561.60" y1="15.72" x2="547.20" y2="28.23"/>
    <line x1="561.60" y1="11.74" x2="547.20" y2="24.26"/>
    <line x1="561.60" y1="7.77" x2="547.20" y2="20.28"/>
    <line x1="561.60" y1="3.79" x2="547.20" y2="16.31"/>
    <line x1="561.39" y1="0.00" x2="547.20" y2="12.33"/>
    <line x1="556.82" y1="0.00" x2="547.20" y2="8.36"/>
    <line x1="552.24" y1="0.00" x2="547.20" y2="4.38"/>
    <line x1="547.67" y1="0.00" x2="547.20" y2="0.41"/>
  </g>
  <g stroke="#4CC9F0" stroke-width="1" fill="none" stroke-linecap="round">
    <line x1="575.48" y1="0.00" x2="576.00" y2="0.86"/>
    <line x1="571.98" y1="0.00" x2="576.00" y2="6.68"/>
    <line x1="568.48" y1="0.00" x2="576.00" y2="12.51"/>
    <line x1="564.98" y1="0.00" x2="576.00" y2="18.33"/>
    <line x1="561.60" y1="0.19" x2="576.00" y2="24.16"/>
    <line x1="561.60" y1="6.02" x2="576.00" y2="29.98"/>
    <line x1="561.60" y1="11.84" x2="576.00" y2="35.81"/>
    <line x1="561.60" y1="17.67" x2="572.62" y2="36.00"/>
    <line x1="561.60" y1="23.49" x2="569.12" y2="36.00"/>
    <line x1="561.60" y1="29.32" x2="565.62" y2="36.00"/>
    <line x1="561.60" y1="35.14" x2="562.12" y2="36.00"/>
    <line x1="576.00" y1="34.67" x2="573.79" y2="36.00"/>
    <line x1="576.00" y1="31.17" x2="567.97" y2="36.00"/>
    <line x1="576.00" y1="27.67" x2="562.14" y2="36.00"/>
    <line x1="576.00" y1="24.17" x2="561.60" y2="32.83"/>
    <line x1="576.00" y1="20.67" x2="561.60" y2="29.33"/>
    <line x1="576.00" y1="17.17" x2="561.60" y2="25.83"/>
    <line x1="576.00" y1="13.67" x2="561.60" y2="22.33"/>
    <line x1="576.00" y1="10.17" x2="561.60" y2="18.83"/>
    <line x1="576.00" y1="6.67" x2="561.60" y2="15.33"/>
    <line x1="576.00" y1="3.17" x2="561.60" y2="11.83"/>
    <line x1="575.46" y1="-0.00" x2="561.60" y2="8.33"/>
    <line x1="569.63" y1="-0.00" x2="561.60" y2="4.83"/>
    <line x1="563.81" y1="0.00" x2="561.60" y2="1.33"/>
  </g>
  <g stroke="#FFCA3A" stroke-width="1" fill="none" stroke-linecap="round">
    <line x1="590.40" y1="35.65" x2="583.67" y2="36.00"/>
    <line x1="590.40" y1="32.64" x2="576.00" y2="33.40"/>
    <line x1="590.40" y1="29.64" x2="576.00" y2="30.39"/>
    <line x1="590.40" y1="26.64" x2="576.00" y2="27.39"/>
    <line x1="590.40" y1="23.63" x2="576.00" y2="24.39"/>
    <line x1="590.40" y1="20.63" x2="576.00" y2="21.38"/>
    <line x1="590.40" y1="17.62" x2="576.00" y2="18.38"/>
    <line x1="590.40" y1="14.62" x2="576.00" y2="15.37"/>
    <line x1="590.40" y1="11.61" x2="576.00" y2="12.37"/>
    <line x1="590.40" y1="8.61" x2="576.00" y2="9.36"/>
    <line x1="590.40" y1="5.61" x2="576.00" y2="6.36"/>
    <line x1="590.40" y1="2.60" x2="576.00" y2="3.36"/>
    <line x1="582.73" y1="0.00" x2="576.00" y2="0.35"/>
    <line x1="578.14" y1="36.00" x2="576.25" y2="-0.00"/>
    <line x1="581.14" y1="36.00" x2="579.25" y2="0.00"/>
    <line x1="584.14" y1="36.00" x2="582.26" y2="-0.00"/>
    <line x1="587.15" y1="36.00" x2="585.26" y2="-0.00"/>
    <line x1="590.15" y1="36.00" x2="588.26" y2="0.00"/>
  </g>
  <g stroke="#3A86FF" stroke-width="1" fill="none" stroke-linecap="round">
    <line x1="604.80" y1="33.21" x2="604.46" y2="36.00"/>
    <line x1="604.80" y1="8.59" x2="601.43" y2="36.00"/>
    <line x1="602.83" y1="0.00" x2="598.41" y2="36.00"/>
    <line x1="599.81" y1="-0.00" x2="595.39" y2="36.00"/>
    <line x1="596.79" y1="0.00" x2="592.37" y2="36.00"/>
    <line x1="593.77" y1="0.00" x2="590.40" y2="27.41"/>
    <line x1="590.74" y1="0.00" x2="590.40" y2="2.79"/>
    <line x1="596.50" y1="36.00" x2="590.40" y2="35.25"/>
    <line x1="604.80" y1="34.00" x2="590.40" y2="32.23"/>
    <line x1="604.80" y1="30.97" x2="590.40" y2="29.21"/>
    <line x1="604.80" y1="27.95" x2="590.40" y2="26.18"/>
    <line x1="604.80" y1="24.93" x2="590.40" y2="23.16"/>
    <line x1="604.80" y1="21.91" x2="590.40" y2="20.14"/>
    <line x1="604.80" y1="18.88" x2="590.40" y2="17.12"/>
    <line x1="604.80" y1="15.86" x2="590.40" y2="14.09"/>
    <line x1="604.80" y1="12.84" x2="590.40" y2="11.07"/>
    <line x1="604.80" y1="9.82" x2="590.40" y2="8.05"/>
    <line x1="604.80" y1="6.79" x2="590.40" y2="5.03"/>
    <line x1="604.80" y1="3.77" x2="590.40" y2="2.00"/>
    <line x1="604.80" y1="0.75" x2="598.70" y2="0.00"/>
  </g>
  <g stroke="#1982C4" stroke-width="1" fill="none" stroke-linecap="round">
    <line x1="604.80" y1="4.61" x2="619.20" y2="4.61"/>
    <line x1="604.80" y1="10.61" x2="619.20" y2="10.61"/>
    <line x1="604.80" y1="16.61" x2="619.20" y2="16.61"/>
    <line x1="604.80" y1="22.61" x2="619.20" y2="22.61"/>
    <line x1="604.80" y1="28.61" x2="619.20" y2="28.61"/>
    <line x1="604.80" y1="34.61" x2="619.20" y2="34.61"/>
    <line x1="610.61" y1="0.00" x2="610.61" y2="36.00"/>
    <line x1="616.61" y1="0.00" x2="616.61" y2="36.00"/>
  </g>
  <g stroke="#F72585" stroke-width="1" fill="none" stroke-linecap="round">
    <line x1="633.60" y1="30.08" x2="619.20" y2="33.40"/>
    <line x1="633.60" y1="23.92" x2="619.20" y2="27.24"/>
    <line x1="633.60" y1="17.76" x2="619.20" y2="21.09"/>
    <line x1="633.60" y1="11.60" x2="619.20" y2="14.93"/>
    <line x1="633.60" y1="5.45" x2="619.20" y2="8.77"/>
    <line x1="630.51" y1="0.00" x2="619.20" y2="2.61"/>
    <line x1="633.60" y1="16.35" x2="629.83" y2="0.00"/>
    <line x1="631.98" y1="36.00" x2="623.67" y2="0.00"/>
    <line x1="625.82" y1="36.00" x2="619.20" y2="7.32"/>
    <line x1="619.66" y1="36.00" x2="619.20" y2="33.99"/>
  </g>
  <g stroke="#E63946" stroke-width="1" fill="none" stroke-linecap="round">
    <line x1="636.00" y1="36.00" x2="647.12" y2="23.20"/>
    <line x1="634.01" y1="12.10" x2="647.59" y2="23.90"/>
    <line x1="634.48" y1="12.80" x2="645.60" y2="-0.00"/>
  </g>
  <g stroke="#118AB2" stroke-width="1" fill="none" stroke-linecap="round">
    <line x1="662.40" y1="30.30" x2="659.50" y2="36.00"/>
    <line x1="662.40" y1="23.69" x2="656.13" y2="36.00"/>
    <line x1="662.40" y1="17.09" x2="652.76" y2="36.00"/>
    <line x1="662.40" y1="10.48" x2="649.40" y2="36.00"/>
    <line x1="662.40" y1="3.87" x2="648.00" y2="32.13"/>
    <line x1="661.00" y1="0.00" x2="648.00" y2="25.52"/>
    <line x1="657.64" y1="0.00" x2="648.00" y2="18.91"/>
    <line x1="654.27" y1="0.00" x2="648.00" y2="12.31"/>
    <line x1="650.90" y1="-0.00" x2="648.00" y2="5.70"/>
  </g>
  <g stroke="#00F5D4" stroke-width="1" fill="none" stroke-linecap="round">
    <line x1="662.40" y1="0.00" x2="676.80" y2="0.00"/>
    <line x1="676.80" y1="0.00" x2="676.80" y2="36.00"/>
    <line x1="676.80" y1="36.00" x2="662.40" y2="36.00"/>
    <line x1="662.40" y1="36.00" x2="662.40" y2="0.00"/>
    <line x1="662.40" y1="36.00" x2="663.51" y2="33.21"/>
    <line x1="663.51" y1="2.79" x2="675.69" y2="2.79"/>
    <line x1="675.69" y1="2.79" x2="675.69" y2="33.21"/>
    <line x1="675.69" y1="33.21" x2="663.51" y2="33.21"/>
    <line x1="663.51" y1="33.21" x2="663.51" y2="2.79"/>
    <line x1="663.51" y1="33.21" x2="664.63" y2="30.43"/>
    <line x1="664.63" y1="5.57" x2="674.57" y2="5.57"/>
    <line x1="674.57" y1="5.57" x2="674.57" y2="30.43"/>
    <line x1="674.57" y1="30.43" x2="664.63" y2="30.43"/>
    <line x1="664.63" y1="30.43" x2="664.63" y2="5.57"/>
    <line x1="664.63" y1="30.43" x2="665.74" y2="27.64"/>
    <line x1="665.74" y1="8.36" x2="673.46" y2="8.36"/>
    <line x1="673.46" y1="8.36" x2="673.46" y2="27.64"/>
    <line x1="673.46" y1="27.64" x2="665.74" y2="27.64"/>
    <line x1="665.74" y1="27.64" x2="665.74" y2="8.36"/>
    <line x1="665.74" y1="27.64" x2="666.86" y2="24.86"/>
    <line x1="666.86" y1="11.14" x2="672.34" y2="11.14"/>
    <line x1="672.34" y1="11.14" x2="672.34" y2="24.86"/>
    <line x1="672.34" y1="24.86" x2="666.86" y2="24.86"/>
    <line x1="666.86" y1="24.86" x2="666.86" y2="11.14"/>
    <line x1="666.86" y1="24.86" x2="667.97" y2="22.07"/>
    <line x1="667.97" y1="13.93" x2="671.23" y2="13.93"/>
    <line x1="671.23" y1="13.93" x2="671.23" y2="22.07"/>
    <line x1="671.23" y1="22.07" x2="667.97" y2="22.07"/>
    <line x1="667.97" y1="22.07" x2="667.97" y2="13.93"/>
  </g>
  <g stroke="#FF595E" stroke-width="1" fill="none" stroke-linecap="round">
    <line x1="691.20" y1="35.01" x2="685.57" y2="36.00"/>
    <line x1="691.20" y1="31.96" x2="676.80" y2="34.50"/>
    <line x1="691.20" y1="28.92" x2="676.80" y2="31.45"/>
    <line x1="691.20" y1="25.87" x2="676.80" y2="28.41"/>
    <line x1="691.20" y1="22.82" x2="676.80" y2="25.36"/>
    <line x1="691.20" y1="19.78" x2="676.80" y2="22.32"/>
    <line x1="691.20" y1="16.73" x2="676.80" y2="19.27"/>
    <line x1="691.20" y1="13.68" x2="676.80" y2="16.22"/>
    <line x1="691.20" y1="10.64" x2="676.80" y2="13.18"/>
    <line x1="691.20" y1="7.59" x2="676.80" y2="10.13"/>
    <line x1="691.20" y1="4.55" x2="676.80" y2="7.08"/>
    <line x1="691.20" y1="1.50" x2="676.80" y2="4.04"/>
    <line x1="682.43" y1="0.00" x2="676.80" y2="0.99"/>
  </g>
  <g stroke="#00F5D4" stroke-width="1" fill="none" stroke-linecap="round">
    <line x1="705.60" y1="19.82" x2="699.71" y2="36.00"/>
    <line x1="705.60" y1="2.27" x2="693.32" y2="36.00"/>
    <line x1="700.04" y1="0.00" x2="691.20" y2="24.29"/>
    <line x1="693.66" y1="0.00" x2="691.20" y2="6.75"/>
    <line x1="705.60" y1="6.37" x2="691.20" y2="1.13"/>
    <line x1="705.60" y1="12.76" x2="691.20" y2="7.52"/>
    <line x1="705.60" y1="19.15" x2="691.20" y2="13.90"/>
    <line x1="705.60" y1="25.53" x2="691.20" y2="20.29"/>
    <line x1="705.60" y1="31.92" x2="691.20" y2="26.67"/>
    <line x1="699.28" y1="36.00" x2="691.20" y2="33.06"/>
  </g>
  <g stroke="#073B4C" stroke-width="1" fill="none" stroke-linecap="round">
    <line x1="720.00" y1="32.58" x2="717.03" y2="36.00"/>
    <line x1="720.00" y1="28.01" x2="713.05" y2="36.00"/>
    <line x1="720.00" y1="23.44" x2="709.08" y2="36.00"/>
    <line x1="720.00" y1="18.86" x2="705.60" y2="35.43"/>
    <line x1="720.00" y1="14.29" x2="705.60" y2="30.86"/>
    <line x1="720.00" y1="9.72" x2="705.60" y2="26.28"/>
    <line x1="720.00" y1="5.14" x2="705.60" y2="21.71"/>
    <line x1="720.00" y1="0.57" x2="705.60" y2="17.14"/>
    <line x1="716.52" y1="0.00" x2="705.60" y2="12.56"/>
    <line x1="712.55" y1="0.00" x2="705.60" y2="7.99"/>
    <line x1="708.57" y1="0.00" x2="705.60" y2="3.42"/>
  </g>
  <g stroke="#06D6A0" stroke-width="1" fill="none" stroke-linecap="round">
    <line x1="730.63" y1="0.33" x2="730.89" y2="0.00"/>
    <line x1="726.36" y1="0.00" x2="727.12" y2="2.70"/>
    <line x1="730.06" y1="3.28" x2="732.58" y2="0.00"/>
    <line x1="720.00" y1="0.95" x2="720.73" y2="0.00"/>
    <line x1="724.97" y1="-0.00" x2="726.54" y2="5.65"/>
    <line x1="729.49" y1="6.22" x2="733.58" y2="0.90"/>
    <line x1="720.00" y1="3.15" x2="721.23" y2="1.56"/>
    <line x1="724.17" y1="2.13" x2="725.97" y2="8.59"/>
    <line x1="728.92" y1="9.17" x2="733.01" y2="3.85"/>
    <line x1="720.00" y1="5.35" x2="720.66" y2="4.50"/>
    <line x1="723.60" y1="5.08" x2="725.40" y2="11.54"/>
    <line x1="728.34" y1="12.11" x2="732.43" y2="6.79"/>
    <line x1="720.00" y1="7.56" x2="720.08" y2="7.45"/>
    <line x1="723.03" y1="8.02" x2="724.83" y2="14.48"/>
    <line x1="727.77" y1="15.06" x2="731.86" y2="9.74"/>
    <line x1="722.46" y1="10.97" x2="724.26" y2="17.43"/>
    <line x1="727.20" y1="18.00" x2="731.29" y2="12.68"/>
    <line x1="734.23" y1="13.26" x2="734.40" y2="13.85"/>
    <line x1="721.88" y1="13.91" x2="723.68" y2="20.37"/>
    <line x1="726.63" y1="20.94" x2="730.72" y2="15.63"/>
    <line x1="733.66" y1="16.20" x2="734.40" y2="18.85"/>
    <line x1="721.31" y1="16.86" x2="723.11" y2="23.32"/>
    <line x1="726.06" y1="23.89" x2="730.14" y2="18.57"/>
    <line x1="733.09" y1="19.14" x2="734.40" y2="23.85"/>
    <line x1="720.74" y1="19.80" x2="722.54" y2="26.26"/>
    <line x1="725.48" y1="26.83" x2="729.57" y2="21.52"/>
    <line x1="732.52" y1="22.09" x2="734.32" y2="28.55"/>
    <line x1="720.17" y1="22.74" x2="721.97" y2="29.21"/>
    <line x1="724.91" y1="29.78" x2="729.00" y2="24.46"/>
    <line x1="731.94" y1="25.03" x2="733.74" y2="31.50"/>
    <line x1="720.00" y1="27.15" x2="721.39" y2="32.15"/>
    <line x1="724.34" y1="32.72" x2="728.43" y2="27.41"/>
    <line x1="731.37" y1="27.98" x2="733.17" y2="34.44"/>
    <line x1="720.00" y1="32.15" x2="720.82" y2="35.10"/>
    <line x1="723.77" y1="35.67" x2="727.86" y2="30.35"/>
    <line x1="730.80" y1="30.92" x2="732.21" y2="36.00"/>
    <line x1="725.20" y1="36.00" x2="727.28" y2="33.30"/>
    <line x1="730.23" y1="33.87" x2="730.82" y2="36.00"/>
  </g>
  <g stroke="#F4A261" stroke-width="1" fill="none" stroke-linecap="round">
    <line x1="746.48" y1="0.00" x2="746.49" y2="0.42"/>
    <line x1="745.13" y1="0.00" x2="745.22" y2="3.14"/>
    <line x1="747.94" y1="4.41" x2="748.80" y2="3.72"/>
    <line x1="735.80" y1="2.05" x2="738.38" y2="0.00"/>
    <line x1="743.79" y1="0.00" x2="743.95" y2="5.86"/>
    <line x1="746.67" y1="7.12" x2="748.80" y2="5.44"/>
    <line x1="734.53" y1="4.77" x2="739.78" y2="0.60"/>
    <line x1="742.50" y1="1.87" x2="742.68" y2="8.58"/>
    <line x1="745.40" y1="9.84" x2="748.80" y2="7.15"/>
    <line x1="734.40" y1="6.59" x2="738.51" y2="3.32"/>
    <line x1="741.23" y1="4.59" x2="741.42" y2="11.29"/>
    <line x1="744.14" y1="12.56" x2="748.80" y2="8.86"/>
    <line x1="734.40" y1="8.30" x2="737.25" y2="6.04"/>
    <line x1="739.97" y1="7.31" x2="740.15" y2="14.01"/>
    <line x1="742.87" y1="15.28" x2="748.12" y2="11.11"/>
    <line x1="734.40" y1="10.01" x2="735.98" y2="8.76"/>
    <line x1="738.70" y1="10.03" x2="738.88" y2="16.73"/>
    <line x1="741.60" y1="18.00" x2="746.85" y2="13.83"/>
    <line x1="734.40" y1="11.72" x2="734.71" y2="11.48"/>
    <line x1="737.43" y1="12.75" x2="737.61" y2="19.45"/>
    <line x1="740.33" y1="20.72" x2="745.59" y2="16.55"/>
    <line x1="748.31" y1="17.82" x2="748.49" y2="24.52"/>
    <line x1="736.16" y1="15.46" x2="736.35" y2="22.17"/>
    <line x1="739.06" y1="23.44" x2="744.32" y2="19.27"/>
    <line x1="747.04" y1="20.54" x2="747.22" y2="27.24"/>
    <line x1="734.89" y1="18.18" x2="735.08" y2="24.89"/>
    <line x1="737.80" y1="26.16" x2="743.05" y2="21.99"/>
    <line x1="745.77" y1="23.25" x2="745.95" y2="29.96"/>
    <line x1="748.67" y1="31.23" x2="748.80" y2="31.13"/>
    <line x1="736.53" y1="28.88" x2="741.78" y2="24.71"/>
    <line x1="744.50" y1="25.97" x2="744.69" y2="32.68"/>
    <line x1="747.40" y1="33.95" x2="748.80" y2="32.84"/>
    <line x1="735.26" y1="31.59" x2="740.52" y2="27.42"/>
    <line x1="743.23" y1="28.69" x2="743.42" y2="35.40"/>
    <line x1="746.98" y1="36.00" x2="748.80" y2="34.55"/>
    <line x1="734.40" y1="33.99" x2="739.25" y2="30.14"/>
    <line x1="741.97" y1="31.41" x2="742.09" y2="36.00"/>
    <line x1="734.40" y1="35.70" x2="737.98" y2="32.86"/>
    <line x1="740.70" y1="34.13" x2="740.75" y2="36.00"/>
    <line x1="736.18" y1="36.00" x2="736.71" y2="35.58"/>
  </g>
  <g stroke="#4CC9F0" stroke-width="1" fill="none" stroke-linecap="round">
    <line x1="762.20" y1="0.00" x2="763.20" y2="0.78"/>
    <line x1="757.33" y1="0.00" x2="763.20" y2="4.59"/>
    <line x1="752.45" y1="0.00" x2="763.20" y2="8.40"/>
    <line x1="748.80" y1="0.95" x2="763.20" y2="12.20"/>
    <line x1="748.80" y1="4.76" x2="763.20" y2="16.01"/>
    <line x1="748.80" y1="8.57" x2="763.20" y2="19.82"/>
    <line x1="748.80" y1="12.37" x2="763.20" y2="23.63"/>
    <line x1="748.80" y1="16.18" x2="763.20" y2="27.43"/>
    <line x1="748.80" y1="19.99" x2="763.20" y2="31.24"/>
    <line x1="748.80" y1="23.80" x2="763.20" y2="35.05"/>
    <line x1="748.80" y1="27.60" x2="759.55" y2="36.00"/>
    <line x1="748.80" y1="31.41" x2="754.67" y2="36.00"/>
    <line x1="748.80" y1="35.22" x2="749.80" y2="36.00"/>
  </g>
  <g stroke="#6A4C93" stroke-width="1" fill="none" stroke-linecap="round">
    <line x1="771.03" y1="0.01" x2="771.03" y2="0.00"/>
    <line x1="766.60" y1="0.00" x2="767.93" y2="2.90"/>
    <line x1="770.92" y1="3.01" x2="772.56" y2="-0.00"/>
    <line x1="765.12" y1="0.00" x2="767.82" y2="5.90"/>
    <line x1="770.82" y1="6.01" x2="774.03" y2="0.12"/>
    <line x1="777.02" y1="0.22" x2="777.60" y2="1.48"/>
    <line x1="764.93" y1="2.80" x2="767.72" y2="8.90"/>
    <line x1="770.71" y1="9.01" x2="773.92" y2="3.11"/>
    <line x1="776.92" y1="3.22" x2="777.60" y2="4.71"/>
    <line x1="764.82" y1="5.80" x2="767.61" y2="11.90"/>
    <line x1="770.61" y1="12.00" x2="773.82" y2="6.11"/>
    <line x1="776.82" y1="6.22" x2="777.60" y2="7.93"/>
    <line x1="764.72" y1="8.80" x2="767.51" y2="14.90"/>
    <line x1="770.50" y1="15.00" x2="773.71" y2="9.11"/>
    <line x1="776.71" y1="9.21" x2="777.60" y2="11.16"/>
    <line x1="764.61" y1="11.79" x2="767.40" y2="17.90"/>
    <line x1="770.40" y1="18.00" x2="773.61" y2="12.11"/>
    <line x1="776.61" y1="12.21" x2="777.60" y2="14.39"/>
    <line x1="764.51" y1="14.79" x2="767.30" y2="20.89"/>
    <line x1="770.30" y1="21.00" x2="773.50" y2="15.11"/>
    <line x1="776.50" y1="15.21" x2="777.60" y2="17.62"/>
    <line x1="764.40" y1="17.79" x2="767.19" y2="23.89"/>
    <line x1="770.19" y1="24.00" x2="773.40" y2="18.10"/>
    <line x1="776.40" y1="18.21" x2="777.60" y2="20.84"/>
    <line x1="764.30" y1="20.79" x2="767.09" y2="26.89"/>
    <line x1="770.09" y1="26.99" x2="773.29" y2="21.10"/>
    <line x1="776.29" y1="21.21" x2="777.60" y2="24.07"/>
    <line x1="764.19" y1="23.79" x2="766.98" y2="29.89"/>
    <line x1="769.98" y1="29.99" x2="773.19" y2="24.10"/>
    <line x1="776.19" y1="24.21" x2="777.60" y2="27.30"/>
    <line x1="764.09" y1="26.79" x2="766.88" y2="32.89"/>
    <line x1="769.88" y1="32.99" x2="773.08" y2="27.10"/>
    <line x1="776.08" y1="27.20" x2="777.60" y2="30.52"/>
    <line x1="763.98" y1="29.78" x2="766.77" y2="35.88"/>
    <line x1="769.77" y1="35.99" x2="772.98" y2="30.10"/>
    <line x1="775.98" y1="30.20" x2="777.60" y2="33.75"/>
    <line x1="763.88" y1="32.78" x2="765.35" y2="36.00"/>
    <line x1="771.29" y1="36.00" x2="772.87" y2="33.10"/>
    <line x1="775.87" y1="33.20" x2="777.15" y2="36.00"/>
    <line x1="763.78" y1="35.78" x2="763.88" y2="36.00"/>
  </g>
  <g stroke="#FF595E" stroke-width="1" fill="none" stroke-linecap="round">
    <line x1="790.26" y1="0.00" x2="792.00" y2="2.39"/>
    <line x1="786.56" y1="0.00" x2="792.00" y2="7.49"/>
    <line x1="782.85" y1="0.00" x2="792.00" y2="12.60"/>
    <line x1="779.14" y1="0.00" x2="792.00" y2="17.70"/>
    <line x1="777.60" y1="2.99" x2="792.00" y2="22.81"/>
    <line x1="777.60" y1="8.09" x2="792.00" y2="27.91"/>
    <line x1="777.60" y1="13.19" x2="792.00" y2="33.01"/>
    <line x1="777.60" y1="18.30" x2="790.46" y2="36.00"/>
    <line x1="777.60" y1="23.40" x2="786.75" y2="36.00"/>
    <line x1="777.60" y1="28.51" x2="783.04" y2="36.00"/>
    <line x1="777.60" y1="33.61" x2="779.34" y2="36.00"/>
  </g>
  <g stroke="#4CC9F0" stroke-width="1" fill="none" stroke-linecap="round">
    <line x1="806.40" y1="32.27" x2="802.92" y2="36.00"/>
    <line x1="806.40" y1="27.87" x2="798.82" y2="36.00"/>
    <line x1="806.40" y1="23.48" x2="794.72" y2="36.00"/>
    <line x1="806.40" y1="19.08" x2="792.00" y2="34.52"/>
    <line x1="806.40" y1="14.68" x2="792.00" y2="30.12"/>
    <line x1="806.40" y1="10.28" x2="792.00" y2="25.72"/>
    <line x1="806.40" y1="5.88" x2="792.00" y2="21.32"/>
    <line x1="806.40" y1="1.48" x2="792.00" y2="16.92"/>
    <line x1="803.68" y1="0.00" x2="792.00" y2="12.52"/>
    <line x1="799.58" y1="0.00" x2="792.00" y2="8.13"/>
    <line x1="795.48" y1="0.00" x2="792.00" y2="3.73"/>
  </g>
  <g stroke="#073B4C" stroke-width="1" fill="none" stroke-linecap="round">
    <line x1="820.80" y1="34.74" x2="808.80" y2="36.00"/>
    <line x1="820.80" y1="28.71" x2="806.40" y2="30.22"/>
    <line x1="820.80" y1="26.90" x2="806.40" y2="28.41"/>
    <line x1="820.80" y1="25.09" x2="806.40" y2="26.60"/>
    <line x1="820.80" y1="19.05" x2="806.40" y2="20.57"/>
    <line x1="820.80" y1="17.24" x2="806.40" y2="18.76"/>
    <line x1="820.80" y1="15.43" x2="806.40" y2="16.95"/>
    <line x1="820.80" y1="9.40" x2="806.40" y2="10.91"/>
    <line x1="820.80" y1="7.59" x2="806.40" y2="9.10"/>
    <line x1="820.80" y1="5.78" x2="806.40" y2="7.29"/>
    <line x1="818.40" y1="0.00" x2="806.40" y2="1.26"/>
  </g>
  <g stroke="#4361EE" stroke-width="1" fill="none" stroke-linecap="round">
    <line x1="833.42" y1="0.00" x2="835.20" y2="1.44"/>
    <line x1="823.89" y1="0.00" x2="835.20" y2="9.16"/>
    <line x1="821.03" y1="0.00" x2="835.20" y2="11.48"/>
    <line x1="820.80" y1="2.13" x2="835.20" y2="13.79"/>
    <line x1="820.80" y1="9.85" x2="835.20" y2="21.51"/>
    <line x1="820.80" y1="12.17" x2="835.20" y2="23.83"/>
    <line x1="820.80" y1="14.49" x2="835.20" y2="26.15"/>
    <line x1="820.80" y1="22.21" x2="835.20" y2="33.87"/>
    <line x1="820.80" y1="24.52" x2="834.97" y2="36.00"/>
    <line x1="820.80" y1="26.84" x2="832.11" y2="36.00"/>
    <line x1="820.80" y1="34.56" x2="822.58" y2="36.00"/>
  </g>
  <g stroke="#4CC9F0" stroke-width="1" fill="none" stroke-linecap="round">
    <line x1="835.20" y1="0.00" x2="849.60" y2="0.00"/>
    <line x1="849.60" y1="0.00" x2="849.60" y2="36.00"/>
    <line x1="849.60" y1="36.00" x2="835.20" y2="36.00"/>
    <line x1="835.20" y1="36.00" x2="835.20" y2="0.00"/>
    <line x1="835.20" y1="36.00" x2="836.31" y2="33.21"/>
    <line x1="836.31" y1="2.79" x2="848.49" y2="2.79"/>
    <line x1="848.49" y1="2.79" x2="848.49" y2="33.21"/>
    <line x1="848.49" y1="33.21" x2="836.31" y2="33.21"/>
    <line x1="836.31" y1="33.21" x2="836.31" y2="2.79"/>
    <line x1="836.31" y1="33.21" x2="837.43" y2="30.43"/>
    <line x1="837.43" y1="5.57" x2="847.37" y2="5.57"/>
    <line x1="847.37" y1="5.57" x2="847.37" y2="30.43"/>
    <line x1="847.37" y1="30.43" x2="837.43" y2="30.43"/>
    <line x1="837.43" y1="30.43" x2="837.43" y2="5.57"/>
    <line x1="837.43" y1="30.43" x2="838.54" y2="27.64"/>
    <line x1="838.54" y1="8.36" x2="846.26" y2="8.36"/>
    <line x1="846.26" y1="8.36" x2="846.26" y2="27.64"/>
    <line x1="846.26" y1="27.64" x2="838.54" y2="27.64"/>
    <line x1="838.54" y1="27.64" x2="838.54" y2="8.36"/>
    <line x1="838.54" y1="27.64" x2="839.66" y2="24.86"/>
    <line x1="839.66" y1="11.14" x2="845.14" y2="11.14"/>
    <line x1="845.14" y1="11.14" x2="845.14" y2="24.86"/>
    <line x1="845.14" y1="24.86" x2="839.66" y2="24.86"/>
    <line x1="839.66" y1="24.86" x2="839.66" y2="11.14"/>
    <line x1="839.66" y1="24.86" x2="840.77" y2="22.07"/>
    <line x1="840.77" y1="13.93" x2="844.03" y2="13.93"/>
    <line x1="844.03" y1="13.93" x2="844.03" y2="22.07"/>
    <line x1="844.03" y1="22.07" x2="840.77" y2="22.07"/>
    <line x1="840.77" y1="22.07" x2="840.77" y2="13.93"/>
  </g>
  <g stroke="#8338EC" stroke-width="1" fill="none" stroke-linecap="round">
    <line x1="859.17" y1="0.00" x2="864.00" y2="1.29"/>
    <line x1="849.60" y1="0.54" x2="864.00" y2="4.40"/>
    <line x1="849.60" y1="3.65" x2="864.00" y2="7.51"/>
    <line x1="849.60" y1="6.75" x2="864.00" y2="10.61"/>
    <line x1="849.60" y1="9.86" x2="864.00" y2="13.72"/>
    <line x1="849.60" y1="12.96" x2="864.00" y2="16.82"/>
    <line x1="849.60" y1="16.07" x2="864.00" y2="19.93"/>
    <line x1="849.60" y1="19.18" x2="864.00" y2="23.04"/>
    <line x1="849.60" y1="22.28" x2="864.00" y2="26.14"/>
    <line x1="849.60" y1="25.39" x2="864.00" y2="29.25"/>
    <line x1="849.60" y1="28.49" x2="864.00" y2="32.35"/>
    <line x1="849.60" y1="31.60" x2="864.00" y2="35.46"/>
    <line x1="849.60" y1="34.71" x2="854.43" y2="36.00"/>
    <line x1="864.00" y1="25.90" x2="861.29" y2="36.00"/>
    <line x1="864.00" y1="14.31" x2="858.19" y2="36.00"/>
    <line x1="864.00" y1="2.72" x2="855.08" y2="36.00"/>
    <line x1="861.62" y1="0.00" x2="851.98" y2="36.00"/>
    <line x1="858.52" y1="0.00" x2="849.60" y2="33.28"/>
    <line x1="855.41" y1="0.00" x2="849.60" y2="21.69"/>
    <line x1="852.31" y1="0.00" x2="849.60" y2="10.10"/>
  </g>
</svg>
