<?xml version="1.0" encoding="UTF-8"?>
<svg xmlns="http://www.w3.org/2000/svg"
     width="864.00" height="36.00"
     viewBox="0 0 864.00 36.00">
  <title>Pattern Banner - rat-king</title>
  <desc>Randomized pattern strip with 60 cells</desc>
  <rect width="100%" height="100%" fill="white"/>
  <g stroke="#06D6A0" stroke-width="1" fill="none" stroke-linecap="round">
    <line x1="14.40" y1="29.00" x2="13.16" y2="36.00"/>
    <line x1="14.40" y1="11.72" x2="10.12" y2="36.00"/>
    <line x1="13.42" y1="0.00" x2="7.07" y2="36.00"/>
    <line x1="10.37" y1="0.00" x2="4.03" y2="36.00"/>
    <line x1="7.33" y1="0.00" x2="0.98" y2="36.00"/>
    <line x1="4.28" y1="0.00" x2="0.00" y2="24.28"/>
    <line x1="1.24" y1="0.00" x2="0.00" y2="7.00"/>
    <line x1="5.63" y1="36.00" x2="-0.00" y2="35.01"/>
    <line x1="14.40" y1="34.50" x2="0.00" y2="31.96"/>
    <line x1="14.40" y1="31.45" x2="0.00" y2="28.92"/>
    <line x1="14.40" y1="28.41" x2="0.00" y2="25.87"/>
    <line x1="14.40" y1="25.36" x2="0.00" y2="22.82"/>
    <line x1="14.40" y1="22.32" x2="0.00" y2="19.78"/>
    <line x1="14.40" y1="19.27" x2="0.00" y2="16.73"/>
    <line x1="14.40" y1="16.22" x2="0.00" y2="13.68"/>
    <line x1="14.40" y1="13.18" x2="0.00" y2="10.64"/>
    <line x1="14.40" y1="10.13" x2="0.00" y2="7.59"/>
    <line x1="14.40" y1="7.08" x2="0.00" y2="4.55"/>
    <line x1="14.40" y1="4.04" x2="0.00" y2="1.50"/>
    <line x1="14.40" y1="0.99" x2="8.77" y2="0.00"/>
  </g>
  <g stroke="#F15BB5" stroke-width="1" fill="none" stroke-linecap="round">
    <line x1="27.29" y1="36.00" x2="25.89" y2="19.91"/>
    <line x1="15.88" y1="36.00" x2="19.32" y2="35.70"/>
    <line x1="14.40" y1="18.63" x2="28.80" y2="17.37"/>
    <line x1="23.88" y1="0.30" x2="27.32" y2="-0.00"/>
    <line x1="17.31" y1="16.09" x2="15.91" y2="0.00"/>
  </g>
  <g stroke="#8338EC" stroke-width="1" fill="none" stroke-linecap="round">
    <line x1="41.85" y1="0.00" x2="43.20" y2="0.98"/>
    <line x1="36.74" y1="0.00" x2="43.20" y2="4.69"/>
    <line x1="31.64" y1="0.00" x2="43.20" y2="8.40"/>
    <line x1="28.80" y1="1.64" x2="43.20" y2="12.11"/>
    <line x1="28.80" y1="5.35" x2="43.20" y2="15.81"/>
    <line x1="28.80" y1="9.06" x2="43.20" y2="19.52"/>
    <line x1="28.80" y1="12.77" x2="43.20" y2="23.23"/>
    <line x1="28.80" y1="16.48" x2="43.20" y2="26.94"/>
    <line x1="28.80" y1="20.19" x2="43.20" y2="30.65"/>
    <line x1="28.80" y1="23.89" x2="43.20" y2="34.36"/>
    <line x1="28.80" y1="27.60" x2="40.36" y2="36.00"/>
    <line x1="28.80" y1="31.31" x2="35.26" y2="36.00"/>
    <line x1="28.80" y1="35.02" x2="30.15" y2="36.00"/>
  </g>
  <g stroke="#EF476F" stroke-width="1" fill="none" stroke-linecap="round">
    <line x1="43.20" y1="0.00" x2="57.60" y2="0.00"/>
    <line x1="57.60" y1="0.00" x2="57.60" y2="36.00"/>
    <line x1="57.60" y1="36.00" x2="43.20" y2="36.00"/>
    <line x1="43.20" y1="36.00" x2="43.20" y2="0.00"/>
    <line x1="43.20" y1="36.00" x2="44.31" y2="33.21"/>
    <line x1="44.31" y1="2.79" x2="56.49" y2="2.79"/>
    <line x1="56.49" y1="2.79" x2="56.49" y2="33.21"/>
    <line x1="56.49" y1="33.21" x2="44.31" y2="33.21"/>
    <line x1="44.31" y1="33.21" x2="44.31" y2="2.79"/>
    <line x1="44.31" y1="33.21" x2="45.43" y2="30.43"/>
    <line x1="45.43" y1="5.57" x2="55.37" y2="5.57"/>
    <line x1="55.37" y1="5.57" x2="55.37" y2="30.43"/>
    <line x1="55.37" y1="30.43" x2="45.43" y2="30.43"/>
    <line x1="45.43" y1="30.43" x2="45.43" y2="5.57"/>
    <line x1="45.43" y1="30.43" x2="46.54" y2="27.64"/>
    <line x1="46.54" y1="8.36" x2="54.26" y2="8.36"/>
    <line x1="54.26" y1="8.36" x2="54.26" y2="27.64"/>
    <line x1="54.26" y1="27.64" x2="46.54" y2="27.64"/>
    <line x1="46.54" y1="27.64" x2="46.54" y2="8.36"/>
    <line x1="46.54" y1="27.64" x2="47.66" y2="24.86"/>
    <line x1="47.66" y1="11.14" x2="53.14" y2="11.14"/>
    <line x1="53.14" y1="11.14" x2="53.14" y2="24.86"/>
    <line x1="53.14" y1="24.86" x2="47.66" y2="24.86"/>
    <line x1="47.66" y1="24.86" x2="47.66" y2="11.14"/>
    <line x1="47.66" y1="24.86" x2="48.77" y2="22.07"/>
    <line x1="48.77" y1="13.93" x2="52.03" y2="13.93"/>
    <line x1="52.03" y1="13.93" x2="52.03" y2="22.07"/>
    <line x1="52.03" y1="22.07" x2="48.77" y2="22.07"/>
    <line x1="48.77" y1="22.07" x2="48.77" y2="13.93"/>
  </g>
  <g stroke="#FFCA3A" stroke-width="1" fill="none" stroke-linecap="round">
    <line x1="57.60" y1="0.00" x2="72.00" y2="0.00"/>
    <line x1="72.00" y1="0.00" x2="72.00" y2="36.00"/>
    <line x1="72.00" y1="36.00" x2="57.60" y2="36.00"/>
    <line x1="57.60" y1="36.00" x2="57.60" y2="0.00"/>
    <line x1="57.60" y1="36.00" x2="58.71" y2="33.21"/>
    <line x1="58.71" y1="2.79" x2="70.89" y2="2.79"/>
    <line x1="70.89" y1="2.79" x2="70.89" y2="33.21"/>
    <line x1="70.89" y1="33.21" x2="58.71" y2="33.21"/>
    <line x1="58.71" y1="33.21" x2="58.71" y2="2.79"/>
    <line x1="58.71" y1="33.21" x2="59.83" y2="30.43"/>
    <line x1="59.83" y1="5.57" x2="69.77" y2="5.57"/>
    <line x1="69.77" y1="5.57" x2="69.77" y2="30.43"/>
    <line x1="69.77" y1="30.43" x2="59.83" y2="30.43"/>
    <line x1="59.83" y1="30.43" x2="59.83" y2="5.57"/>
    <line x1="59.83" y1="30.43" x2="60.94" y2="27.64"/>
    <line x1="60.94" y1="8.36" x2="68.66" y2="8.36"/>
    <line x1="68.66" y1="8.36" x2="68.66" y2="27.64"/>
    <line x1="68.66" y1="27.64" x2="60.94" y2="27.64"/>
    <line x1="60.94" y1="27.64" x2="60.94" y2="8.36"/>
    <line x1="60.94" y1="27.64" x2="62.06" y2="24.86"/>
    <line x1="62.06" y1="11.14" x2="67.54" y2="11.14"/>
    <line x1="67.54" y1="11.14" x2="67.54" y2="24.86"/>
    <line x1="67.54" y1="24.86" x2="62.06" y2="24.86"/>
    <line x1="62.06" y1="24.86" x2="62.06" y2="11.14"/>
    <line x1="62.06" y1="24.86" x2="63.17" y2="22.07"/>
    <line x1="63.17" y1="13.93" x2="66.43" y2="13.93"/>
    <line x1="66.43" y1="13.93" x2="66.43" y2="22.07"/>
    <line x1="66.43" y1="22.07" x2="63.17" y2="22.07"/>
    <line x1="63.17" y1="22.07" x2="63.17" y2="13.93"/>
  </g>
  <g stroke="#7209B7" stroke-width="1" fill="none" stroke-linecap="round">
    <line x1="86.40" y1="35.24" x2="85.61" y2="36.00"/>
    <line x1="86.40" y1="26.89" x2="76.97" y2="36.00"/>
    <line x1="86.40" y1="24.39" x2="74.38" y2="36.00"/>
    <line x1="86.40" y1="21.89" x2="72.00" y2="35.80"/>
    <line x1="86.40" y1="13.55" x2="72.00" y2="27.46"/>
    <line x1="86.40" y1="11.05" x2="72.00" y2="24.95"/>
    <line x1="86.40" y1="8.54" x2="72.00" y2="22.45"/>
    <line x1="86.40" y1="0.20" x2="72.00" y2="14.11"/>
    <line x1="84.02" y1="0.00" x2="72.00" y2="11.61"/>
    <line x1="81.43" y1="0.00" x2="72.00" y2="9.11"/>
    <line x1="72.79" y1="0.00" x2="72.00" y2="0.76"/>
  </g>
  <g stroke="#FF595E" stroke-width="1" fill="none" stroke-linecap="round">
    <line x1="100.24" y1="0.00" x2="100.80" y2="1.26"/>
    <line x1="93.67" y1="0.00" x2="100.80" y2="16.01"/>
    <line x1="87.10" y1="0.00" x2="100.80" y2="30.76"/>
    <line x1="86.40" y1="13.17" x2="96.56" y2="36.00"/>
    <line x1="86.40" y1="27.92" x2="90.00" y2="36.00"/>
    <line x1="100.80" y1="0.14" x2="86.40" y2="6.55"/>
    <line x1="100.80" y1="6.71" x2="86.40" y2="13.12"/>
    <line x1="100.80" y1="13.28" x2="86.40" y2="19.69"/>
    <line x1="100.80" y1="19.84" x2="86.40" y2="26.26"/>
    <line x1="100.80" y1="26.41" x2="86.40" y2="32.82"/>
    <line x1="100.80" y1="32.98" x2="94.02" y2="36.00"/>
  </g>
  <g stroke="#1982C4" stroke-width="1" fill="none" stroke-linecap="round">
    <line x1="115.20" y1="34.52" x2="111.34" y2="36.00"/>
    <line x1="115.20" y1="31.30" x2="102.96" y2="36.00"/>
    <line x1="115.20" y1="28.09" x2="100.80" y2="33.62"/>
    <line x1="115.20" y1="24.88" x2="100.80" y2="30.40"/>
    <line x1="115.20" y1="21.66" x2="100.80" y2="27.19"/>
    <line x1="115.20" y1="18.45" x2="100.80" y2="23.98"/>
    <line x1="115.20" y1="15.24" x2="100.80" y2="20.76"/>
    <line x1="115.20" y1="12.02" x2="100.80" y2="17.55"/>
    <line x1="115.20" y1="8.81" x2="100.80" y2="14.34"/>
    <line x1="115.20" y1="5.60" x2="100.80" y2="11.12"/>
    <line x1="115.20" y1="2.38" x2="100.80" y2="7.91"/>
    <line x1="113.04" y1="0.00" x2="100.80" y2="4.70"/>
    <line x1="104.66" y1="0.00" x2="100.80" y2="1.48"/>
    <line x1="102.06" y1="36.00" x2="100.80" y2="32.73"/>
    <line x1="105.27" y1="36.00" x2="100.80" y2="24.36"/>
    <line x1="108.48" y1="36.00" x2="100.80" y2="15.99"/>
    <line x1="111.70" y1="36.00" x2="100.80" y2="7.61"/>
    <line x1="114.91" y1="36.00" x2="101.09" y2="0.00"/>
    <line x1="115.20" y1="28.39" x2="104.30" y2="0.00"/>
    <line x1="115.20" y1="20.01" x2="107.52" y2="0.00"/>
    <line x1="115.20" y1="11.64" x2="110.73" y2="0.00"/>
    <line x1="115.20" y1="3.27" x2="113.94" y2="0.00"/>
  </g>
  <g stroke="#00B4D8" stroke-width="1" fill="none" stroke-linecap="round">
    <line x1="123.79" y1="3.32" x2="129.60" y2="8.37"/>
    <line x1="115.20" y1="10.91" x2="116.03" y2="11.63"/>
    <line x1="128.30" y1="11.21" x2="116.50" y2="24.79"/>
    <line x1="128.77" y1="24.37" x2="129.60" y2="25.09"/>
    <line x1="115.20" y1="27.63" x2="121.01" y2="32.68"/>
  </g>
  <g stroke="#EF476F" stroke-width="1" fill="none" stroke-linecap="round">
    <line x1="144.00" y1="34.26" x2="135.81" y2="36.00"/>
    <line x1="144.00" y1="28.12" x2="129.60" y2="31.19"/>
    <line x1="144.00" y1="26.28" x2="129.60" y2="29.34"/>
    <line x1="144.00" y1="24.44" x2="129.60" y2="27.50"/>
    <line x1="144.00" y1="18.31" x2="129.60" y2="21.37"/>
    <line x1="144.00" y1="16.47" x2="129.60" y2="19.53"/>
    <line x1="144.00" y1="14.63" x2="129.60" y2="17.69"/>
    <line x1="144.00" y1="8.50" x2="129.60" y2="11.56"/>
    <line x1="144.00" y1="6.66" x2="129.60" y2="9.72"/>
    <line x1="144.00" y1="4.81" x2="129.60" y2="7.88"/>
    <line x1="137.79" y1="0.00" x2="129.60" y2="1.74"/>
  </g>
  <g stroke="#F15BB5" stroke-width="1" fill="none" stroke-linecap="round">
    <line x1="158.29" y1="-0.00" x2="158.40" y2="0.10"/>
    <line x1="153.89" y1="0.00" x2="158.40" y2="4.20"/>
    <line x1="149.49" y1="0.00" x2="158.40" y2="8.31"/>
    <line x1="145.09" y1="-0.00" x2="158.40" y2="12.41"/>
    <line x1="144.00" y1="3.08" x2="158.40" y2="16.51"/>
    <line x1="144.00" y1="7.18" x2="158.40" y2="20.61"/>
    <line x1="144.00" y1="11.29" x2="158.40" y2="24.71"/>
    <line x1="144.00" y1="15.39" x2="158.40" y2="28.82"/>
    <line x1="144.00" y1="19.49" x2="158.40" y2="32.92"/>
    <line x1="144.00" y1="23.59" x2="157.31" y2="36.00"/>
    <line x1="144.00" y1="27.69" x2="152.91" y2="36.00"/>
    <line x1="144.00" y1="31.80" x2="148.51" y2="36.00"/>
    <line x1="144.00" y1="35.90" x2="144.11" y2="36.00"/>
  </g>
  <g stroke="#9B5DE5" stroke-width="1" fill="none" stroke-linecap="round">
    <line x1="172.80" y1="29.36" x2="164.30" y2="36.00"/>
    <line x1="172.80" y1="21.75" x2="158.40" y2="33.00"/>
    <line x1="172.80" y1="14.13" x2="158.40" y2="25.38"/>
    <line x1="172.80" y1="6.52" x2="158.40" y2="17.77"/>
    <line x1="171.40" y1="0.00" x2="158.40" y2="10.16"/>
    <line x1="161.65" y1="0.00" x2="158.40" y2="2.54"/>
    <line x1="172.80" y1="5.47" x2="168.52" y2="0.00"/>
    <line x1="172.80" y1="15.22" x2="160.91" y2="0.00"/>
    <line x1="172.80" y1="24.96" x2="158.40" y2="6.53"/>
    <line x1="172.80" y1="34.71" x2="158.40" y2="16.28"/>
    <line x1="166.19" y1="36.00" x2="158.40" y2="26.02"/>
    <line x1="158.58" y1="36.00" x2="158.40" y2="35.77"/>
  </g>
  <g stroke="#1982C4" stroke-width="1" fill="none" stroke-linecap="round">
    <line x1="185.53" y1="1.95" x2="187.20" y2="1.97"/>
    <line x1="181.95" y1="0.00" x2="181.51" y2="0.57"/>
    <line x1="182.83" y1="3.27" x2="187.20" y2="3.31"/>
    <line x1="187.20" y1="10.80" x2="186.77" y2="11.36"/>
    <line x1="180.26" y1="0.00" x2="178.82" y2="1.89"/>
    <line x1="180.13" y1="4.58" x2="186.84" y2="4.65"/>
    <line x1="187.20" y1="8.59" x2="184.08" y2="12.67"/>
    <line x1="185.39" y1="15.37" x2="187.20" y2="15.39"/>
    <line x1="178.57" y1="0.00" x2="176.12" y2="3.20"/>
    <line x1="177.44" y1="5.90" x2="184.14" y2="5.97"/>
    <line x1="185.46" y1="8.66" x2="181.38" y2="13.99"/>
    <line x1="182.70" y1="16.68" x2="187.20" y2="16.73"/>
    <line x1="187.20" y1="24.04" x2="186.64" y2="24.77"/>
    <line x1="176.88" y1="0.00" x2="173.42" y2="4.52"/>
    <line x1="174.74" y1="7.21" x2="181.45" y2="7.28"/>
    <line x1="182.76" y1="9.98" x2="178.68" y2="15.30"/>
    <line x1="180.00" y1="18.00" x2="186.71" y2="18.07"/>
    <line x1="187.20" y1="21.84" x2="183.95" y2="26.09"/>
    <line x1="185.26" y1="28.79" x2="187.20" y2="28.80"/>
    <line x1="174.81" y1="0.51" x2="172.80" y2="3.13"/>
    <line x1="172.80" y1="8.54" x2="178.75" y2="8.60"/>
    <line x1="180.07" y1="11.29" x2="175.99" y2="16.62"/>
    <line x1="177.30" y1="19.32" x2="184.01" y2="19.38"/>
    <line x1="185.33" y1="22.08" x2="181.25" y2="27.40"/>
    <line x1="182.56" y1="30.10" x2="187.20" y2="30.15"/>
    <line x1="172.80" y1="9.88" x2="176.05" y2="9.91"/>
    <line x1="177.37" y1="12.61" x2="173.29" y2="17.93"/>
    <line x1="174.61" y1="20.63" x2="181.32" y2="20.70"/>
    <line x1="182.63" y1="23.39" x2="178.55" y2="28.72"/>
    <line x1="179.87" y1="31.42" x2="186.58" y2="31.48"/>
    <line x1="187.20" y1="35.08" x2="186.50" y2="36.00"/>
    <line x1="172.80" y1="11.22" x2="173.36" y2="11.23"/>
    <line x1="174.67" y1="13.92" x2="172.80" y2="16.37"/>
    <line x1="172.80" y1="21.95" x2="178.62" y2="22.01"/>
    <line x1="179.93" y1="24.71" x2="175.86" y2="30.03"/>
    <line x1="177.17" y1="32.73" x2="183.88" y2="32.80"/>
    <line x1="185.19" y1="35.49" x2="184.81" y2="36.00"/>
    <line x1="172.80" y1="23.30" x2="175.92" y2="23.33"/>
    <line x1="177.24" y1="26.02" x2="173.16" y2="31.35"/>
    <line x1="174.47" y1="34.05" x2="181.18" y2="34.11"/>
    <line x1="172.80" y1="24.64" x2="173.23" y2="24.64"/>
    <line x1="174.54" y1="27.34" x2="172.80" y2="29.61"/>
    <line x1="172.80" y1="35.37" x2="178.49" y2="35.43"/>
  </g>
  <g stroke="#9EF01A" stroke-width="1" fill="none" stroke-linecap="round">
    <line x1="187.20" y1="0.00" x2="201.60" y2="0.00"/>
    <line x1="201.60" y1="0.00" x2="201.60" y2="36.00"/>
    <line x1="201.60" y1="36.00" x2="187.20" y2="36.00"/>
    <line x1="187.20" y1="36.00" x2="187.20" y2="0.00"/>
    <line x1="187.20" y1="36.00" x2="188.31" y2="33.21"/>
    <line x1="188.31" y1="2.79" x2="200.49" y2="2.79"/>
    <line x1="200.49" y1="2.79" x2="200.49" y2="33.21"/>
    <line x1="200.49" y1="33.21" x2="188.31" y2="33.21"/>
    <line x1="188.31" y1="33.21" x2="188.31" y2="2.79"/>
    <line x1="188.31" y1="33.21" x2="189.43" y2="30.43"/>
    <line x1="189.43" y1="5.57" x2="199.37" y2="5.57"/>
    <line x1="199.37" y1="5.57" x2="199.37" y2="30.43"/>
    <line x1="199.37" y1="30.43" x2="189.43" y2="30.43"/>
    <line x1="189.43" y1="30.43" x2="189.43" y2="5.57"/>
    <line x1="189.43" y1="30.43" x2="190.54" y2="27.64"/>
    <line x1="190.54" y1="8.36" x2="198.26" y2="8.36"/>
    <line x1="198.26" y1="8.36" x2="198.26" y2="27.64"/>
    <line x1="198.26" y1="27.64" x2="190.54" y2="27.64"/>
    <line x1="190.54" y1="27.64" x2="190.54" y2="8.36"/>
    <line x1="190.54" y1="27.64" x2="191.66" y2="24.86"/>
    <line x1="191.66" y1="11.14" x2="197.14" y2="11.14"/>
    <line x1="197.14" y1="11.14" x2="197.14" y2="24.86"/>
    <line x1="197.14" y1="24.86" x2="191.66" y2="24.86"/>
    <line x1="191.66" y1="24.86" x2="191.66" y2="11.14"/>
    <line x1="191.66" y1="24.86" x2="192.77" y2="22.07"/>
    <line x1="192.77" y1="13.93" x2="196.03" y2="13.93"/>
    <line x1="196.03" y1="13.93" x2="196.03" y2="22.07"/>
    <line x1="196.03" y1="22.07" x2="192.77" y2="22.07"/>
    <line x1="192.77" y1="22.07" x2="192.77" y2="13.93"/>
  </g>
  <g stroke="#FEE440" stroke-width="1" fill="none" stroke-linecap="round">
    <line x1="204.11" y1="7.27" x2="216.00" y2="6.65"/>
    <line x1="208.33" y1="9.01" x2="209.27" y2="26.99"/>
    <line x1="201.60" y1="29.35" x2="213.49" y2="28.73"/>
  </g>
  <g stroke="#118AB2" stroke-width="1" fill="none" stroke-linecap="round">
    <line x1="228.70" y1="36.00" x2="228.37" y2="35.50"/>
    <line x1="225.39" y1="35.87" x2="225.35" y2="36.00"/>
    <line x1="230.31" y1="36.00" x2="228.01" y2="32.52"/>
    <line x1="225.03" y1="32.89" x2="223.92" y2="36.00"/>
    <line x1="217.43" y1="36.00" x2="216.10" y2="33.99"/>
    <line x1="230.40" y1="33.70" x2="227.64" y2="29.54"/>
    <line x1="224.66" y1="29.91" x2="222.50" y2="36.00"/>
    <line x1="219.04" y1="36.00" x2="216.00" y2="31.42"/>
    <line x1="230.40" y1="31.28" x2="227.27" y2="26.57"/>
    <line x1="224.30" y1="26.93" x2="222.05" y2="33.25"/>
    <line x1="219.07" y1="33.62" x2="216.00" y2="28.99"/>
    <line x1="230.40" y1="28.85" x2="226.91" y2="23.59"/>
    <line x1="223.93" y1="23.96" x2="221.68" y2="30.28"/>
    <line x1="218.71" y1="30.64" x2="216.00" y2="26.56"/>
    <line x1="230.25" y1="26.20" x2="226.54" y2="20.61"/>
    <line x1="223.57" y1="20.98" x2="221.32" y2="27.30"/>
    <line x1="218.34" y1="27.66" x2="216.00" y2="24.14"/>
    <line x1="229.89" y1="23.22" x2="226.18" y2="17.63"/>
    <line x1="223.20" y1="18.00" x2="220.95" y2="24.32"/>
    <line x1="217.98" y1="24.69" x2="216.00" y2="21.71"/>
    <line x1="229.52" y1="20.25" x2="225.81" y2="14.66"/>
    <line x1="222.83" y1="15.02" x2="220.59" y2="21.34"/>
    <line x1="217.61" y1="21.71" x2="216.00" y2="19.28"/>
    <line x1="229.16" y1="17.27" x2="225.45" y2="11.68"/>
    <line x1="222.47" y1="12.04" x2="220.22" y2="18.37"/>
    <line x1="217.24" y1="18.73" x2="216.00" y2="16.86"/>
    <line x1="228.79" y1="14.29" x2="225.08" y2="8.70"/>
    <line x1="222.10" y1="9.07" x2="219.86" y2="15.39"/>
    <line x1="216.88" y1="15.75" x2="216.00" y2="14.43"/>
    <line x1="228.42" y1="11.31" x2="224.72" y2="5.72"/>
    <line x1="221.74" y1="6.09" x2="219.49" y2="12.41"/>
    <line x1="216.51" y1="12.78" x2="216.00" y2="12.00"/>
    <line x1="228.06" y1="8.34" x2="224.35" y2="2.75"/>
    <line x1="221.37" y1="3.11" x2="219.13" y2="9.43"/>
    <line x1="216.15" y1="9.80" x2="216.00" y2="9.58"/>
    <line x1="227.69" y1="5.36" x2="224.14" y2="0.00"/>
    <line x1="221.01" y1="0.13" x2="218.76" y2="6.46"/>
    <line x1="230.40" y1="1.75" x2="230.30" y2="2.01"/>
    <line x1="227.33" y1="2.38" x2="225.75" y2="0.00"/>
    <line x1="219.63" y1="0.00" x2="218.39" y2="3.48"/>
    <line x1="218.21" y1="0.00" x2="218.03" y2="0.50"/>
  </g>
  <g stroke="#F4A261" stroke-width="1" fill="none" stroke-linecap="round">
    <line x1="244.53" y1="0.00" x2="244.80" y2="0.47"/>
    <line x1="241.06" y1="0.00" x2="244.80" y2="6.47"/>
    <line x1="237.60" y1="0.00" x2="244.80" y2="12.47"/>
    <line x1="234.14" y1="0.00" x2="244.80" y2="18.47"/>
    <line x1="230.67" y1="0.00" x2="244.80" y2="24.47"/>
    <line x1="230.40" y1="5.53" x2="244.80" y2="30.47"/>
    <line x1="230.40" y1="11.53" x2="244.53" y2="36.00"/>
    <line x1="230.40" y1="17.53" x2="241.06" y2="36.00"/>
    <line x1="230.40" y1="23.53" x2="237.60" y2="36.00"/>
    <line x1="230.40" y1="29.53" x2="234.14" y2="36.00"/>
    <line x1="230.40" y1="35.53" x2="230.67" y2="36.00"/>
  </g>
  <g stroke="#FF595E" stroke-width="1" fill="none" stroke-linecap="round">
    <line x1="244.80" y1="6.34" x2="245.18" y2="10.65"/>
    <line x1="259.20" y1="17.37" x2="244.80" y2="18.63"/>
    <line x1="258.82" y1="25.35" x2="259.20" y2="29.66"/>
  </g>
  <g stroke="#E9C46A" stroke-width="1" fill="none" stroke-linecap="round">
    <line x1="259.20" y1="0.00" x2="273.60" y2="0.00"/>
    <line x1="273.60" y1="0.00" x2="273.60" y2="36.00"/>
    <line x1="273.60" y1="36.00" x2="259.20" y2="36.00"/>
    <line x1="259.20" y1="36.00" x2="259.20" y2="0.00"/>
    <line x1="259.20" y1="36.00" x2="260.31" y2="33.21"/>
    <line x1="260.31" y1="2.79" x2="272.49" y2="2.79"/>
    <line x1="272.49" y1="2.79" x2="272.49" y2="33.21"/>
    <line x1="272.49" y1="33.21" x2="260.31" y2="33.21"/>
    <line x1="260.31" y1="33.21" x2="260.31" y2="2.79"/>
    <line x1="260.31" y1="33.21" x2="261.43" y2="30.43"/>
    <line x1="261.43" y1="5.57" x2="271.37" y2="5.57"/>
    <line x1="271.37" y1="5.57" x2="271.37" y2="30.43"/>
    <line x1="271.37" y1="30.43" x2="261.43" y2="30.43"/>
    <line x1="261.43" y1="30.43" x2="261.43" y2="5.57"/>
    <line x1="261.43" y1="30.43" x2="262.54" y2="27.64"/>
    <line x1="262.54" y1="8.36" x2="270.26" y2="8.36"/>
    <line x1="270.26" y1="8.36" x2="270.26" y2="27.64"/>
    <line x1="270.26" y1="27.64" x2="262.54" y2="27.64"/>
    <line x1="262.54" y1="27.64" x2="262.54" y2="8.36"/>
    <line x1="262.54" y1="27.64" x2="263.66" y2="24.86"/>
    <line x1="263.66" y1="11.14" x2="269.14" y2="11.14"/>
    <line x1="269.14" y1="11.14" x2="269.14" y2="24.86"/>
    <line x1="269.14" y1="24.86" x2="263.66" y2="24.86"/>
    <line x1="263.66" y1="24.86" x2="263.66" y2="11.14"/>
    <line x1="263.66" y1="24.86" x2="264.77" y2="22.07"/>
    <line x1="264.77" y1="13.93" x2="268.03" y2="13.93"/>
    <line x1="268.03" y1="13.93" x2="268.03" y2="22.07"/>
    <line x1="268.03" y1="22.07" x2="264.77" y2="22.07"/>
    <line x1="264.77" y1="22.07" x2="264.77" y2="13.93"/>
  </g>
  <g stroke="#2A9D8F" stroke-width="1" fill="none" stroke-linecap="round">
    <line x1="285.43" y1="-0.00" x2="288.00" y2="16.24"/>
    <line x1="279.35" y1="-0.00" x2="285.05" y2="36.00"/>
    <line x1="273.60" y1="2.03" x2="278.98" y2="36.00"/>
    <line x1="288.00" y1="3.31" x2="273.60" y2="5.59"/>
    <line x1="288.00" y1="9.38" x2="273.60" y2="11.66"/>
    <line x1="288.00" y1="15.46" x2="273.60" y2="17.74"/>
    <line x1="288.00" y1="21.53" x2="273.60" y2="23.81"/>
    <line x1="288.00" y1="27.61" x2="273.60" y2="29.89"/>
    <line x1="288.00" y1="33.68" x2="273.60" y2="35.96"/>
  </g>
  <g stroke="#FEE440" stroke-width="1" fill="none" stroke-linecap="round">
    <line x1="288.00" y1="0.00" x2="302.40" y2="0.00"/>
    <line x1="302.40" y1="0.00" x2="302.40" y2="36.00"/>
    <line x1="302.40" y1="36.00" x2="288.00" y2="36.00"/>
    <line x1="288.00" y1="36.00" x2="288.00" y2="0.00"/>
    <line x1="288.00" y1="36.00" x2="289.11" y2="33.21"/>
    <line x1="289.11" y1="2.79" x2="301.29" y2="2.79"/>
    <line x1="301.29" y1="2.79" x2="301.29" y2="33.21"/>
    <line x1="301.29" y1="33.21" x2="289.11" y2="33.21"/>
    <line x1="289.11" y1="33.21" x2="289.11" y2="2.79"/>
    <line x1="289.11" y1="33.21" x2="290.23" y2="30.43"/>
    <line x1="290.23" y1="5.57" x2="300.17" y2="5.57"/>
    <line x1="300.17" y1="5.57" x2="300.17" y2="30.43"/>
    <line x1="300.17" y1="30.43" x2="290.23" y2="30.43"/>
    <line x1="290.23" y1="30.43" x2="290.23" y2="5.57"/>
    <line x1="290.23" y1="30.43" x2="291.34" y2="27.64"/>
    <line x1="291.34" y1="8.36" x2="299.06" y2="8.36"/>
    <line x1="299.06" y1="8.36" x2="299.06" y2="27.64"/>
    <line x1="299.06" y1="27.64" x2="291.34" y2="27.64"/>
    <line x1="291.34" y1="27.64" x2="291.34" y2="8.36"/>
    <line x1="291.34" y1="27.64" x2="292.46" y2="24.86"/>
    <line x1="292.46" y1="11.14" x2="297.94" y2="11.14"/>
    <line x1="297.94" y1="11.14" x2="297.94" y2="24.86"/>
    <line x1="297.94" y1="24.86" x2="292.46" y2="24.86"/>
    <line x1="292.46" y1="24.86" x2="292.46" y2="11.14"/>
    <line x1="292.46" y1="24.86" x2="293.57" y2="22.07"/>
    <line x1="293.57" y1="13.93" x2="296.83" y2="13.93"/>
    <line x1="296.83" y1="13.93" x2="296.83" y2="22.07"/>
    <line x1="296.83" y1="22.07" x2="293.57" y2="22.07"/>
    <line x1="293.57" y1="22.07" x2="293.57" y2="13.93"/>
  </g>
  <g stroke="#F15BB5" stroke-width="1" fill="none" stroke-linecap="round">
    <line x1="310.00" y1="0.00" x2="316.80" y2="8.70"/>
    <line x1="307.72" y1="0.00" x2="316.80" y2="11.62"/>
    <line x1="305.44" y1="0.00" x2="316.80" y2="14.55"/>
    <line x1="302.40" y1="5.86" x2="316.80" y2="24.29"/>
    <line x1="302.40" y1="8.78" x2="316.80" y2="27.22"/>
    <line x1="302.40" y1="11.71" x2="316.80" y2="30.14"/>
    <line x1="302.40" y1="21.45" x2="313.76" y2="36.00"/>
    <line x1="302.40" y1="24.38" x2="311.48" y2="36.00"/>
    <line x1="302.40" y1="27.30" x2="309.20" y2="36.00"/>
  </g>
  <g stroke="#F15BB5" stroke-width="1" fill="none" stroke-linecap="round">
    <line x1="316.80" y1="0.00" x2="331.20" y2="0.00"/>
    <line x1="331.20" y1="0.00" x2="331.20" y2="36.00"/>
    <line x1="331.20" y1="36.00" x2="316.80" y2="36.00"/>
    <line x1="316.80" y1="36.00" x2="316.80" y2="0.00"/>
    <line x1="316.80" y1="36.00" x2="317.91" y2="33.21"/>
    <line x1="317.91" y1="2.79" x2="330.09" y2="2.79"/>
    <line x1="330.09" y1="2.79" x2="330.09" y2="33.21"/>
    <line x1="330.09" y1="33.21" x2="317.91" y2="33.21"/>
    <line x1="317.91" y1="33.21" x2="317.91" y2="2.79"/>
    <line x1="317.91" y1="33.21" x2="319.03" y2="30.43"/>
    <line x1="319.03" y1="5.57" x2="328.97" y2="5.57"/>
    <line x1="328.97" y1="5.57" x2="328.97" y2="30.43"/>
    <line x1="328.97" y1="30.43" x2="319.03" y2="30.43"/>
    <line x1="319.03" y1="30.43" x2="319.03" y2="5.57"/>
    <line x1="319.03" y1="30.43" x2="320.14" y2="27.64"/>
    <line x1="320.14" y1="8.36" x2="327.86" y2="8.36"/>
    <line x1="327.86" y1="8.36" x2="327.86" y2="27.64"/>
    <line x1="327.86" y1="27.64" x2="320.14" y2="27.64"/>
    <line x1="320.14" y1="27.64" x2="320.14" y2="8.36"/>
    <line x1="320.14" y1="27.64" x2="321.26" y2="24.86"/>
    <line x1="321.26" y1="11.14" x2="326.74" y2="11.14"/>
    <line x1="326.74" y1="11.14" x2="326.74" y2="24.86"/>
    <line x1="326.74" y1="24.86" x2="321.26" y2="24.86"/>
    <line x1="321.26" y1="24.86" x2="321.26" y2="11.14"/>
    <line x1="321.26" y1="24.86" x2="322.37" y2="22.07"/>
    <line x1="322.37" y1="13.93" x2="325.63" y2="13.93"/>
    <line x1="325.63" y1="13.93" x2="325.63" y2="22.07"/>
    <line x1="325.63" y1="22.07" x2="322.37" y2="22.07"/>
    <line x1="322.37" y1="22.07" x2="322.37" y2="13.93"/>
  </g>
  <g stroke="#4CC9F0" stroke-width="1" fill="none" stroke-linecap="round">
    <line x1="345.60" y1="33.91" x2="345.27" y2="36.00"/>
    <line x1="345.60" y1="22.40" x2="343.45" y2="36.00"/>
    <line x1="343.07" y1="-0.00" x2="337.37" y2="36.00"/>
    <line x1="341.25" y1="-0.00" x2="335.55" y2="36.00"/>
    <line x1="339.43" y1="-0.00" x2="333.73" y2="36.00"/>
    <line x1="333.35" y1="0.00" x2="331.20" y2="13.60"/>
    <line x1="331.53" y1="-0.00" x2="331.20" y2="2.09"/>
  </g>
  <g stroke="#90BE6D" stroke-width="1" fill="none" stroke-linecap="round">
    <line x1="360.00" y1="34.20" x2="357.43" y2="36.00"/>
    <line x1="360.00" y1="26.88" x2="346.97" y2="36.00"/>
    <line x1="360.00" y1="24.68" x2="345.60" y2="34.76"/>
    <line x1="360.00" y1="22.48" x2="345.60" y2="32.56"/>
    <line x1="360.00" y1="15.16" x2="345.60" y2="25.24"/>
    <line x1="360.00" y1="12.96" x2="345.60" y2="23.04"/>
    <line x1="360.00" y1="10.76" x2="345.60" y2="20.84"/>
    <line x1="360.00" y1="3.44" x2="345.60" y2="13.52"/>
    <line x1="360.00" y1="1.24" x2="345.60" y2="11.32"/>
    <line x1="358.63" y1="0.00" x2="345.60" y2="9.12"/>
    <line x1="348.17" y1="0.00" x2="345.60" y2="1.80"/>
  </g>
  <g stroke="#FF006E" stroke-width="1" fill="none" stroke-linecap="round">
    <line x1="374.40" y1="29.39" x2="366.24" y2="36.00"/>
    <line x1="374.40" y1="21.67" x2="360.00" y2="33.34"/>
    <line x1="374.40" y1="13.95" x2="360.00" y2="25.61"/>
    <line x1="374.40" y1="6.23" x2="360.00" y2="17.89"/>
    <line x1="372.56" y1="0.00" x2="360.00" y2="10.17"/>
    <line x1="363.03" y1="0.00" x2="360.00" y2="2.45"/>
    <line x1="374.40" y1="5.62" x2="369.85" y2="0.00"/>
    <line x1="374.40" y1="15.15" x2="362.13" y2="0.00"/>
    <line x1="374.40" y1="24.69" x2="360.00" y2="6.91"/>
    <line x1="374.40" y1="34.22" x2="360.00" y2="16.44"/>
    <line x1="368.12" y1="36.00" x2="360.00" y2="25.97"/>
    <line x1="360.40" y1="36.00" x2="360.00" y2="35.51"/>
  </g>
  <g stroke="#E9C46A" stroke-width="1" fill="none" stroke-linecap="round">
    <line x1="374.40" y1="0.00" x2="388.80" y2="0.00"/>
    <line x1="388.80" y1="0.00" x2="388.80" y2="36.00"/>
    <line x1="388.80" y1="36.00" x2="374.40" y2="36.00"/>
    <line x1="374.40" y1="36.00" x2="374.40" y2="0.00"/>
    <line x1="374.40" y1="36.00" x2="375.51" y2="33.21"/>
    <line x1="375.51" y1="2.79" x2="387.69" y2="2.79"/>
    <line x1="387.69" y1="2.79" x2="387.69" y2="33.21"/>
    <line x1="387.69" y1="33.21" x2="375.51" y2="33.21"/>
    <line x1="375.51" y1="33.21" x2="375.51" y2="2.79"/>
    <line x1="375.51" y1="33.21" x2="376.63" y2="30.43"/>
    <line x1="376.63" y1="5.57" x2="386.57" y2="5.57"/>
    <line x1="386.57" y1="5.57" x2="386.57" y2="30.43"/>
    <line x1="386.57" y1="30.43" x2="376.63" y2="30.43"/>
    <line x1="376.63" y1="30.43" x2="376.63" y2="5.57"/>
    <line x1="376.63" y1="30.43" x2="377.74" y2="27.64"/>
    <line x1="377.74" y1="8.36" x2="385.46" y2="8.36"/>
    <line x1="385.46" y1="8.36" x2="385.46" y2="27.64"/>
    <line x1="385.46" y1="27.64" x2="377.74" y2="27.64"/>
    <line x1="377.74" y1="27.64" x2="377.74" y2="8.36"/>
    <line x1="377.74" y1="27.64" x2="378.86" y2="24.86"/>
    <line x1="378.86" y1="11.14" x2="384.34" y2="11.14"/>
    <line x1="384.34" y1="11.14" x2="384.34" y2="24.86"/>
    <line x1="384.34" y1="24.86" x2="378.86" y2="24.86"/>
    <line x1="378.86" y1="24.86" x2="378.86" y2="11.14"/>
    <line x1="378.86" y1="24.86" x2="379.97" y2="22.07"/>
    <line x1="379.97" y1="13.93" x2="383.23" y2="13.93"/>
    <line x1="383.23" y1="13.93" x2="383.23" y2="22.07"/>
    <line x1="383.23" y1="22.07" x2="379.97" y2="22.07"/>
    <line x1="379.97" y1="22.07" x2="379.97" y2="13.93"/>
  </g>
  <g stroke="#3A86FF" stroke-width="1" fill="none" stroke-linecap="round">
    <line x1="403.20" y1="31.44" x2="402.56" y2="36.00"/>
    <line x1="403.20" y1="9.88" x2="399.53" y2="36.00"/>
    <line x1="401.56" y1="0.00" x2="396.50" y2="36.00"/>
    <line x1="398.53" y1="0.00" x2="393.47" y2="36.00"/>
    <line x1="395.50" y1="0.00" x2="390.44" y2="36.00"/>
    <line x1="392.47" y1="0.00" x2="388.80" y2="26.12"/>
    <line x1="389.44" y1="0.00" x2="388.80" y2="4.56"/>
  </g>
  <g stroke="#E63946" stroke-width="1" fill="none" stroke-linecap="round">
    <line x1="403.20" y1="0.00" x2="417.60" y2="0.00"/>
    <line x1="417.60" y1="0.00" x2="417.60" y2="36.00"/>
    <line x1="417.60" y1="36.00" x2="403.20" y2="36.00"/>
    <line x1="403.20" y1="36.00" x2="403.20" y2="0.00"/>
    <line x1="403.20" y1="36.00" x2="404.31" y2="33.21"/>
    <line x1="404.31" y1="2.79" x2="416.49" y2="2.79"/>
    <line x1="416.49" y1="2.79" x2="416.49" y2="33.21"/>
    <line x1="416.49" y1="33.21" x2="404.31" y2="33.21"/>
    <line x1="404.31" y1="33.21" x2="404.31" y2="2.79"/>
    <line x1="404.31" y1="33.21" x2="405.43" y2="30.43"/>
    <line x1="405.43" y1="5.57" x2="415.37" y2="5.57"/>
    <line x1="415.37" y1="5.57" x2="415.37" y2="30.43"/>
    <line x1="415.37" y1="30.43" x2="405.43" y2="30.43"/>
    <line x1="405.43" y1="30.43" x2="405.43" y2="5.57"/>
    <line x1="405.43" y1="30.43" x2="406.54" y2="27.64"/>
    <line x1="406.54" y1="8.36" x2="414.26" y2="8.36"/>
    <line x1="414.26" y1="8.36" x2="414.26" y2="27.64"/>
    <line x1="414.26" y1="27.64" x2="406.54" y2="27.64"/>
    <line x1="406.54" y1="27.64" x2="406.54" y2="8.36"/>
    <line x1="406.54" y1="27.64" x2="407.66" y2="24.86"/>
    <line x1="407.66" y1="11.14" x2="413.14" y2="11.14"/>
    <line x1="413.14" y1="11.14" x2="413.14" y2="24.86"/>
    <line x1="413.14" y1="24.86" x2="407.66" y2="24.86"/>
    <line x1="407.66" y1="24.86" x2="407.66" y2="11.14"/>
    <line x1="407.66" y1="24.86" x2="408.77" y2="22.07"/>
    <line x1="408.77" y1="13.93" x2="412.03" y2="13.93"/>
    <line x1="412.03" y1="13.93" x2="412.03" y2="22.07"/>
    <line x1="412.03" y1="22.07" x2="408.77" y2="22.07"/>
    <line x1="408.77" y1="22.07" x2="408.77" y2="13.93"/>
  </g>
  <g stroke="#FFCA3A" stroke-width="1" fill="none" stroke-linecap="round">
    <line x1="417.60" y1="0.00" x2="432.00" y2="0.00"/>
    <line x1="432.00" y1="0.00" x2="432.00" y2="36.00"/>
    <line x1="432.00" y1="36.00" x2="417.60" y2="36.00"/>
    <line x1="417.60" y1="36.00" x2="417.60" y2="0.00"/>
    <line x1="417.60" y1="36.00" x2="418.71" y2="33.21"/>
    <line x1="418.71" y1="2.79" x2="430.89" y2="2.79"/>
    <line x1="430.89" y1="2.79" x2="430.89" y2="33.21"/>
    <line x1="430.89" y1="33.21" x2="418.71" y2="33.21"/>
    <line x1="418.71" y1="33.21" x2="418.71" y2="2.79"/>
    <line x1="418.71" y1="33.21" x2="419.83" y2="30.43"/>
    <line x1="419.83" y1="5.57" x2="429.77" y2="5.57"/>
    <line x1="429.77" y1="5.57" x2="429.77" y2="30.43"/>
    <line x1="429.77" y1="30.43" x2="419.83" y2="30.43"/>
    <line x1="419.83" y1="30.43" x2="419.83" y2="5.57"/>
    <line x1="419.83" y1="30.43" x2="420.94" y2="27.64"/>
    <line x1="420.94" y1="8.36" x2="428.66" y2="8.36"/>
    <line x1="428.66" y1="8.36" x2="428.66" y2="27.64"/>
    <line x1="428.66" y1="27.64" x2="420.94" y2="27.64"/>
    <line x1="420.94" y1="27.64" x2="420.94" y2="8.36"/>
    <line x1="420.94" y1="27.64" x2="422.06" y2="24.86"/>
    <line x1="422.06" y1="11.14" x2="427.54" y2="11.14"/>
    <line x1="427.54" y1="11.14" x2="427.54" y2="24.86"/>
    <line x1="427.54" y1="24.86" x2="422.06" y2="24.86"/>
    <line x1="422.06" y1="24.86" x2="422.06" y2="11.14"/>
    <line x1="422.06" y1="24.86" x2="423.17" y2="22.07"/>
    <line x1="423.17" y1="13.93" x2="426.43" y2="13.93"/>
    <line x1="426.43" y1="13.93" x2="426.43" y2="22.07"/>
    <line x1="426.43" y1="22.07" x2="423.17" y2="22.07"/>
    <line x1="423.17" y1="22.07" x2="423.17" y2="13.93"/>
  </g>
  <g stroke="#118AB2" stroke-width="1" fill="none" stroke-linecap="round">
    <line x1="446.40" y1="34.86" x2="444.70" y2="36.00"/>
    <line x1="446.40" y1="31.24" x2="439.34" y2="36.00"/>
    <line x1="446.40" y1="27.62" x2="433.97" y2="36.00"/>
    <line x1="446.40" y1="24.00" x2="432.00" y2="33.71"/>
    <line x1="446.40" y1="20.38" x2="432.00" y2="30.09"/>
    <line x1="446.40" y1="16.76" x2="432.00" y2="26.48"/>
    <line x1="446.40" y1="13.14" x2="432.00" y2="22.86"/>
    <line x1="446.40" y1="9.52" x2="432.00" y2="19.24"/>
    <line x1="446.40" y1="5.91" x2="432.00" y2="15.62"/>
    <line x1="446.40" y1="2.29" x2="432.00" y2="12.00"/>
    <line x1="444.43" y1="0.00" x2="432.00" y2="8.38"/>
    <line x1="439.06" y1="-0.00" x2="432.00" y2="4.76"/>
    <line x1="433.70" y1="0.00" x2="432.00" y2="1.14"/>
  </g>
  <g stroke="#9B5DE5" stroke-width="1" fill="none" stroke-linecap="round">
    <line x1="460.80" y1="34.94" x2="455.33" y2="36.00"/>
    <line x1="460.80" y1="31.88" x2="446.40" y2="34.68"/>
    <line x1="460.80" y1="28.83" x2="446.40" y2="31.62"/>
    <line x1="460.80" y1="25.77" x2="446.40" y2="28.57"/>
    <line x1="460.80" y1="22.71" x2="446.40" y2="25.51"/>
    <line x1="460.80" y1="19.66" x2="446.40" y2="22.46"/>
    <line x1="460.80" y1="16.60" x2="446.40" y2="19.40"/>
    <line x1="460.80" y1="13.54" x2="446.40" y2="16.34"/>
    <line x1="460.80" y1="10.49" x2="446.40" y2="13.29"/>
    <line x1="460.80" y1="7.43" x2="446.40" y2="10.23"/>
    <line x1="460.80" y1="4.38" x2="446.40" y2="7.17"/>
    <line x1="460.80" y1="1.32" x2="446.40" y2="4.12"/>
    <line x1="451.87" y1="0.00" x2="446.40" y2="1.06"/>
  </g>
  <g stroke="#7209B7" stroke-width="1" fill="none" stroke-linecap="round">
    <line x1="475.20" y1="29.30" x2="463.60" y2="36.00"/>
    <line x1="475.20" y1="22.37" x2="460.80" y2="30.69"/>
    <line x1="475.20" y1="15.44" x2="460.80" y2="23.76"/>
    <line x1="475.20" y1="8.52" x2="460.80" y2="16.83"/>
    <line x1="475.20" y1="1.59" x2="460.80" y2="9.90"/>
    <line x1="465.95" y1="0.00" x2="460.80" y2="2.97"/>
    <line x1="475.20" y1="3.70" x2="473.07" y2="0.00"/>
    <line x1="475.20" y1="15.70" x2="466.14" y2="0.00"/>
    <line x1="475.20" y1="27.70" x2="460.80" y2="2.76"/>
    <line x1="473.07" y1="36.00" x2="460.80" y2="14.76"/>
    <line x1="466.14" y1="36.00" x2="460.80" y2="26.76"/>
  </g>
  <g stroke="#073B4C" stroke-width="1" fill="none" stroke-linecap="round">
    <line x1="489.45" y1="0.00" x2="489.60" y2="0.51"/>
    <line x1="486.31" y1="0.00" x2="489.60" y2="10.77"/>
    <line x1="483.17" y1="0.00" x2="489.60" y2="21.03"/>
    <line x1="480.03" y1="0.00" x2="489.60" y2="31.29"/>
    <line x1="476.90" y1="0.00" x2="487.90" y2="36.00"/>
    <line x1="475.20" y1="4.71" x2="484.77" y2="36.00"/>
    <line x1="475.20" y1="14.97" x2="481.63" y2="36.00"/>
    <line x1="475.20" y1="25.23" x2="478.49" y2="36.00"/>
    <line x1="475.20" y1="35.49" x2="475.35" y2="36.00"/>
  </g>
  <g stroke="#F72585" stroke-width="1" fill="none" stroke-linecap="round">
    <line x1="501.37" y1="0.00" x2="504.00" y2="5.39"/>
    <line x1="498.03" y1="0.00" x2="504.00" y2="12.23"/>
    <line x1="494.70" y1="0.00" x2="504.00" y2="19.08"/>
    <line x1="491.36" y1="-0.00" x2="504.00" y2="25.92"/>
    <line x1="489.60" y1="3.24" x2="504.00" y2="32.76"/>
    <line x1="489.60" y1="10.08" x2="502.24" y2="36.00"/>
    <line x1="489.60" y1="16.92" x2="498.90" y2="36.00"/>
    <line x1="489.60" y1="23.77" x2="495.57" y2="36.00"/>
    <line x1="489.60" y1="30.61" x2="492.23" y2="36.00"/>
  </g>
  <g stroke="#06D6A0" stroke-width="1" fill="none" stroke-linecap="round">
    <line x1="518.40" y1="24.12" x2="517.15" y2="36.00"/>
    <line x1="514.90" y1="0.00" x2="511.12" y2="36.00"/>
    <line x1="513.09" y1="0.00" x2="509.31" y2="36.00"/>
    <line x1="511.28" y1="0.00" x2="507.50" y2="36.00"/>
    <line x1="505.25" y1="0.00" x2="504.00" y2="11.88"/>
  </g>
  <g stroke="#FFD166" stroke-width="1" fill="none" stroke-linecap="round">
    <line x1="532.80" y1="29.29" x2="522.46" y2="36.00"/>
    <line x1="532.80" y1="22.13" x2="518.40" y2="31.48"/>
    <line x1="532.80" y1="14.98" x2="518.40" y2="24.33"/>
    <line x1="532.80" y1="7.82" x2="518.40" y2="17.17"/>
    <line x1="532.80" y1="0.67" x2="518.40" y2="10.02"/>
    <line x1="522.81" y1="0.00" x2="518.40" y2="2.87"/>
    <line x1="532.80" y1="4.51" x2="529.87" y2="0.00"/>
    <line x1="532.80" y1="15.52" x2="522.72" y2="0.00"/>
    <line x1="532.80" y1="26.54" x2="518.40" y2="4.37"/>
    <line x1="531.79" y1="36.00" x2="518.40" y2="15.38"/>
    <line x1="524.63" y1="36.00" x2="518.40" y2="26.40"/>
  </g>
  <g stroke="#6A4C93" stroke-width="1" fill="none" stroke-linecap="round">
    <line x1="547.20" y1="35.49" x2="547.05" y2="36.00"/>
    <line x1="547.20" y1="25.23" x2="543.91" y2="36.00"/>
    <line x1="547.20" y1="14.97" x2="540.77" y2="36.00"/>
    <line x1="547.20" y1="4.71" x2="537.63" y2="36.00"/>
    <line x1="545.50" y1="0.00" x2="534.50" y2="36.00"/>
    <line x1="542.37" y1="0.00" x2="532.80" y2="31.29"/>
    <line x1="539.23" y1="-0.00" x2="532.80" y2="21.03"/>
    <line x1="536.09" y1="-0.00" x2="532.80" y2="10.77"/>
    <line x1="532.95" y1="0.00" x2="532.80" y2="0.51"/>
    <line x1="537.31" y1="36.00" x2="532.80" y2="34.62"/>
    <line x1="547.20" y1="35.89" x2="532.80" y2="31.48"/>
    <line x1="547.20" y1="32.75" x2="532.80" y2="28.35"/>
    <line x1="547.20" y1="29.61" x2="532.80" y2="25.21"/>
    <line x1="547.20" y1="26.48" x2="532.80" y2="22.07"/>
    <line x1="547.20" y1="23.34" x2="532.80" y2="18.94"/>
    <line x1="547.20" y1="20.20" x2="532.80" y2="15.80"/>
    <line x1="547.20" y1="17.06" x2="532.80" y2="12.66"/>
    <line x1="547.20" y1="13.93" x2="532.80" y2="9.52"/>
    <line x1="547.20" y1="10.79" x2="532.80" y2="6.39"/>
    <line x1="547.20" y1="7.65" x2="532.80" y2="3.25"/>
    <line x1="547.20" y1="4.52" x2="532.80" y2="0.11"/>
    <line x1="547.20" y1="1.38" x2="542.69" y2="0.00"/>
  </g>
  <g stroke="#2A9D8F" stroke-width="1" fill="none" stroke-linecap="round">
    <line x1="561.06" y1="36.00" x2="558.35" y2="35.04"/>
    <line x1="561.60" y1="34.77" x2="556.26" y2="32.88"/>
    <line x1="554.10" y1="34.97" x2="554.43" y2="36.00"/>
    <line x1="560.65" y1="24.47" x2="561.60" y2="27.49"/>
    <line x1="560.50" y1="32.96" x2="554.18" y2="30.73"/>
    <line x1="552.02" y1="32.81" x2="553.02" y2="36.00"/>
    <line x1="561.60" y1="20.54" x2="560.73" y2="20.23"/>
    <line x1="558.57" y1="22.32" x2="560.58" y2="28.72"/>
    <line x1="558.42" y1="30.80" x2="552.09" y2="28.57"/>
    <line x1="549.94" y1="30.65" x2="551.62" y2="36.00"/>
    <line x1="561.60" y1="19.12" x2="558.64" y2="18.07"/>
    <line x1="556.48" y1="20.16" x2="558.49" y2="26.56"/>
    <line x1="556.34" y1="28.64" x2="550.01" y2="26.41"/>
    <line x1="547.85" y1="28.49" x2="549.86" y2="34.89"/>
    <line x1="561.60" y1="17.70" x2="556.56" y2="15.92"/>
    <line x1="554.40" y1="18.00" x2="556.41" y2="24.40"/>
    <line x1="554.25" y1="26.48" x2="547.93" y2="24.25"/>
    <line x1="547.20" y1="30.90" x2="547.78" y2="32.74"/>
    <line x1="560.95" y1="7.51" x2="561.60" y2="9.58"/>
    <line x1="560.80" y1="15.99" x2="554.47" y2="13.76"/>
    <line x1="552.32" y1="15.84" x2="554.33" y2="22.24"/>
    <line x1="552.17" y1="24.33" x2="547.20" y2="22.57"/>
    <line x1="561.60" y1="3.47" x2="561.02" y2="3.26"/>
    <line x1="558.86" y1="5.35" x2="560.87" y2="11.75"/>
    <line x1="558.72" y1="13.83" x2="552.39" y2="11.60"/>
    <line x1="550.23" y1="13.68" x2="552.24" y2="20.08"/>
    <line x1="550.08" y1="22.17" x2="547.20" y2="21.15"/>
    <line x1="561.60" y1="2.05" x2="558.94" y2="1.11"/>
    <line x1="556.78" y1="3.19" x2="558.79" y2="9.59"/>
    <line x1="556.63" y1="11.67" x2="550.31" y2="9.44"/>
    <line x1="548.15" y1="11.53" x2="550.16" y2="17.93"/>
    <line x1="548.00" y1="20.01" x2="547.20" y2="19.73"/>
    <line x1="561.60" y1="0.62" x2="559.84" y2="0.00"/>
    <line x1="554.70" y1="1.03" x2="556.71" y2="7.43"/>
    <line x1="554.55" y1="9.52" x2="548.22" y2="7.28"/>
    <line x1="547.20" y1="12.98" x2="548.07" y2="15.77"/>
    <line x1="552.97" y1="0.00" x2="554.62" y2="5.27"/>
    <line x1="552.46" y1="7.36" x2="547.20" y2="5.50"/>
    <line x1="551.56" y1="0.00" x2="552.54" y2="3.12"/>
    <line x1="550.38" y1="5.20" x2="547.20" y2="4.08"/>
    <line x1="550.15" y1="0.00" x2="550.45" y2="0.96"/>
    <line x1="548.30" y1="3.04" x2="547.20" y2="2.66"/>
  </g>
  <g stroke="#00BBF9" stroke-width="1" fill="none" stroke-linecap="round">
    <line x1="561.60" y1="0.00" x2="576.00" y2="0.00"/>
    <line x1="576.00" y1="0.00" x2="576.00" y2="36.00"/>
    <line x1="576.00" y1="36.00" x2="561.60" y2="36.00"/>
    <line x1="561.60" y1="36.00" x2="561.60" y2="0.00"/>
    <line x1="561.60" y1="36.00" x2="562.71" y2="33.21"/>
    <line x1="562.71" y1="2.79" x2="574.89" y2="2.79"/>
    <line x1="574.89" y1="2.79" x2="574.89" y2="33.21"/>
    <line x1="574.89" y1="33.21" x2="562.71" y2="33.21"/>
    <line x1="562.71" y1="33.21" x2="562.71" y2="2.79"/>
    <line x1="562.71" y1="33.21" x2="563.83" y2="30.43"/>
    <line x1="563.83" y1="5.57" x2="573.77" y2="5.57"/>
    <line x1="573.77" y1="5.57" x2="573.77" y2="30.43"/>
    <line x1="573.77" y1="30.43" x2="563.83" y2="30.43"/>
    <line x1="563.83" y1="30.43" x2="563.83" y2="5.57"/>
    <line x1="563.83" y1="30.43" x2="564.94" y2="27.64"/>
    <line x1="564.94" y1="8.36" x2="572.66" y2="8.36"/>
    <line x1="572.66" y1="8.36" x2="572.66" y2="27.64"/>
    <line x1="572.66" y1="27.64" x2="564.94" y2="27.64"/>
    <line x1="564.94" y1="27.64" x2="564.94" y2="8.36"/>
    <line x1="564.94" y1="27.64" x2="566.06" y2="24.86"/>
    <line x1="566.06" y1="11.14" x2="571.54" y2="11.14"/>
    <line x1="571.54" y1="11.14" x2="571.54" y2="24.86"/>
    <line x1="571.54" y1="24.86" x2="566.06" y2="24.86"/>
    <line x1="566.06" y1="24.86" x2="566.06" y2="11.14"/>
    <line x1="566.06" y1="24.86" x2="567.17" y2="22.07"/>
    <line x1="567.17" y1="13.93" x2="570.43" y2="13.93"/>
    <line x1="570.43" y1="13.93" x2="570.43" y2="22.07"/>
    <line x1="570.43" y1="22.07" x2="567.17" y2="22.07"/>
    <line x1="567.17" y1="22.07" x2="567.17" y2="13.93"/>
  </g>
  <g stroke="#F72585" stroke-width="1" fill="none" stroke-linecap="round">
    <line x1="590.40" y1="29.49" x2="588.90" y2="36.00"/>
    <line x1="590.40" y1="21.49" x2="587.05" y2="36.00"/>
    <line x1="589.20" y1="0.00" x2="580.89" y2="36.00"/>
    <line x1="587.36" y1="0.00" x2="579.04" y2="36.00"/>
    <line x1="585.51" y1="0.00" x2="577.20" y2="36.00"/>
    <line x1="579.35" y1="0.00" x2="576.00" y2="14.51"/>
    <line x1="577.50" y1="-0.00" x2="576.00" y2="6.51"/>
  </g>
  <g stroke="#F15BB5" stroke-width="1" fill="none" stroke-linecap="round">
    <line x1="590.40" y1="0.00" x2="604.80" y2="0.00"/>
    <line x1="604.80" y1="0.00" x2="604.80" y2="36.00"/>
    <line x1="604.80" y1="36.00" x2="590.40" y2="36.00"/>
    <line x1="590.40" y1="36.00" x2="590.40" y2="0.00"/>
    <line x1="590.40" y1="36.00" x2="591.51" y2="33.21"/>
    <line x1="591.51" y1="2.79" x2="603.69" y2="2.79"/>
    <line x1="603.69" y1="2.79" x2="603.69" y2="33.21"/>
    <line x1="603.69" y1="33.21" x2="591.51" y2="33.21"/>
    <line x1="591.51" y1="33.21" x2="591.51" y2="2.79"/>
    <line x1="591.51" y1="33.21" x2="592.63" y2="30.43"/>
    <line x1="592.63" y1="5.57" x2="602.57" y2="5.57"/>
    <line x1="602.57" y1="5.57" x2="602.57" y2="30.43"/>
    <line x1="602.57" y1="30.43" x2="592.63" y2="30.43"/>
    <line x1="592.63" y1="30.43" x2="592.63" y2="5.57"/>
    <line x1="592.63" y1="30.43" x2="593.74" y2="27.64"/>
    <line x1="593.74" y1="8.36" x2="601.46" y2="8.36"/>
    <line x1="601.46" y1="8.36" x2="601.46" y2="27.64"/>
    <line x1="601.46" y1="27.64" x2="593.74" y2="27.64"/>
    <line x1="593.74" y1="27.64" x2="593.74" y2="8.36"/>
    <line x1="593.74" y1="27.64" x2="594.86" y2="24.86"/>
    <line x1="594.86" y1="11.14" x2="600.34" y2="11.14"/>
    <line x1="600.34" y1="11.14" x2="600.34" y2="24.86"/>
    <line x1="600.34" y1="24.86" x2="594.86" y2="24.86"/>
    <line x1="594.86" y1="24.86" x2="594.86" y2="11.14"/>
    <line x1="594.86" y1="24.86" x2="595.97" y2="22.07"/>
    <line x1="595.97" y1="13.93" x2="599.23" y2="13.93"/>
    <line x1="599.23" y1="13.93" x2="599.23" y2="22.07"/>
    <line x1="599.23" y1="22.07" x2="595.97" y2="22.07"/>
    <line x1="595.97" y1="22.07" x2="595.97" y2="13.93"/>
  </g>
  <g stroke="#4CC9F0" stroke-width="1" fill="none" stroke-linecap="round">
    <line x1="619.20" y1="22.75" x2="613.91" y2="22.29"/>
    <line x1="615.56" y1="36.00" x2="616.05" y2="30.42"/>
    <line x1="619.20" y1="1.65" x2="610.64" y2="0.90"/>
    <line x1="611.22" y1="26.97" x2="612.78" y2="9.03"/>
    <line x1="613.36" y1="35.10" x2="604.80" y2="34.35"/>
    <line x1="607.95" y1="5.58" x2="608.44" y2="0.00"/>
    <line x1="610.09" y1="13.71" x2="604.80" y2="13.25"/>
  </g>
  <g stroke="#8338EC" stroke-width="1" fill="none" stroke-linecap="round">
    <line x1="625.10" y1="0.00" x2="633.60" y2="6.64"/>
    <line x1="619.20" y1="3.00" x2="633.60" y2="14.25"/>
    <line x1="619.20" y1="10.62" x2="633.60" y2="21.87"/>
    <line x1="619.20" y1="18.23" x2="633.60" y2="29.48"/>
    <line x1="619.20" y1="25.84" x2="632.20" y2="36.00"/>
    <line x1="619.20" y1="33.46" x2="622.45" y2="36.00"/>
    <line x1="623.48" y1="0.00" x2="619.20" y2="5.47"/>
    <line x1="631.09" y1="0.00" x2="619.20" y2="15.22"/>
    <line x1="633.60" y1="6.53" x2="619.20" y2="24.96"/>
    <line x1="633.60" y1="16.28" x2="619.20" y2="34.71"/>
    <line x1="633.60" y1="26.02" x2="625.81" y2="36.00"/>
    <line x1="633.60" y1="35.77" x2="633.42" y2="36.00"/>
  </g>
  <g stroke="#9EF01A" stroke-width="1" fill="none" stroke-linecap="round">
    <line x1="646.60" y1="2.05" x2="648.00" y2="2.09"/>
    <line x1="643.10" y1="0.00" x2="642.62" y2="0.60"/>
    <line x1="643.89" y1="3.32" x2="648.00" y2="3.43"/>
    <line x1="648.00" y1="11.09" x2="647.69" y2="11.48"/>
    <line x1="641.38" y1="0.00" x2="639.90" y2="1.87"/>
    <line x1="641.17" y1="4.59" x2="647.87" y2="4.77"/>
    <line x1="648.00" y1="8.93" x2="644.97" y2="12.75"/>
    <line x1="646.24" y1="15.46" x2="648.00" y2="15.51"/>
    <line x1="639.67" y1="0.00" x2="637.18" y2="3.14"/>
    <line x1="638.45" y1="5.86" x2="645.15" y2="6.04"/>
    <line x1="646.42" y1="8.76" x2="642.25" y2="14.01"/>
    <line x1="643.52" y1="16.73" x2="648.00" y2="16.85"/>
    <line x1="648.00" y1="24.04" x2="647.32" y2="24.89"/>
    <line x1="637.96" y1="-0.00" x2="634.46" y2="4.41"/>
    <line x1="635.73" y1="7.12" x2="642.43" y2="7.31"/>
    <line x1="643.70" y1="10.03" x2="639.53" y2="15.28"/>
    <line x1="640.80" y1="18.00" x2="647.51" y2="18.18"/>
    <line x1="648.00" y1="21.88" x2="644.60" y2="26.16"/>
    <line x1="645.87" y1="28.88" x2="648.00" y2="28.93"/>
    <line x1="635.91" y1="0.42" x2="633.60" y2="3.33"/>
    <line x1="633.60" y1="8.41" x2="639.72" y2="8.58"/>
    <line x1="640.98" y1="11.29" x2="636.81" y2="16.55"/>
    <line x1="638.08" y1="19.27" x2="644.79" y2="19.45"/>
    <line x1="646.05" y1="22.17" x2="641.88" y2="27.42"/>
    <line x1="643.15" y1="30.14" x2="648.00" y2="30.28"/>
    <line x1="633.60" y1="9.75" x2="637.00" y2="9.84"/>
    <line x1="638.26" y1="12.56" x2="634.09" y2="17.82"/>
    <line x1="635.36" y1="20.54" x2="642.07" y2="20.72"/>
    <line x1="643.34" y1="23.44" x2="639.17" y2="28.69"/>
    <line x1="640.43" y1="31.41" x2="647.14" y2="31.59"/>
    <line x1="648.00" y1="34.83" x2="647.07" y2="36.00"/>
    <line x1="633.60" y1="11.09" x2="634.28" y2="11.11"/>
    <line x1="635.55" y1="13.83" x2="633.60" y2="16.28"/>
    <line x1="633.60" y1="21.83" x2="639.35" y2="21.99"/>
    <line x1="640.62" y1="24.71" x2="636.45" y2="29.96"/>
    <line x1="637.71" y1="32.68" x2="644.42" y2="32.86"/>
    <line x1="645.69" y1="35.58" x2="645.36" y2="36.00"/>
    <line x1="633.60" y1="23.17" x2="636.63" y2="23.25"/>
    <line x1="637.90" y1="25.97" x2="633.73" y2="31.23"/>
    <line x1="635.00" y1="33.95" x2="641.70" y2="34.13"/>
    <line x1="633.60" y1="24.51" x2="633.91" y2="24.52"/>
    <line x1="635.18" y1="27.24" x2="633.60" y2="29.23"/>
    <line x1="633.60" y1="35.25" x2="638.98" y2="35.40"/>
  </g>
  <g stroke="#06D6A0" stroke-width="1" fill="none" stroke-linecap="round">
    <line x1="662.40" y1="35.54" x2="655.83" y2="36.00"/>
    <line x1="662.40" y1="32.53" x2="648.00" y2="33.54"/>
    <line x1="662.40" y1="29.53" x2="648.00" y2="30.53"/>
    <line x1="662.40" y1="26.52" x2="648.00" y2="27.53"/>
    <line x1="662.40" y1="23.51" x2="648.00" y2="24.52"/>
    <line x1="662.40" y1="20.50" x2="648.00" y2="21.51"/>
    <line x1="662.40" y1="17.50" x2="648.00" y2="18.50"/>
    <line x1="662.40" y1="14.49" x2="648.00" y2="15.50"/>
    <line x1="662.40" y1="11.48" x2="648.00" y2="12.49"/>
    <line x1="662.40" y1="8.47" x2="648.00" y2="9.48"/>
    <line x1="662.40" y1="5.47" x2="648.00" y2="6.47"/>
    <line x1="662.40" y1="2.46" x2="648.00" y2="3.47"/>
    <line x1="654.57" y1="0.00" x2="648.00" y2="0.46"/>
  </g>
  <g stroke="#00BBF9" stroke-width="1" fill="none" stroke-linecap="round">
    <line x1="676.80" y1="34.56" x2="675.02" y2="36.00"/>
    <line x1="676.80" y1="26.84" x2="665.49" y2="36.00"/>
    <line x1="676.80" y1="24.52" x2="662.63" y2="36.00"/>
    <line x1="676.80" y1="22.21" x2="662.40" y2="33.87"/>
    <line x1="676.80" y1="14.49" x2="662.40" y2="26.15"/>
    <line x1="676.80" y1="12.17" x2="662.40" y2="23.83"/>
    <line x1="676.80" y1="9.85" x2="662.40" y2="21.51"/>
    <line x1="676.80" y1="2.13" x2="662.40" y2="13.79"/>
    <line x1="676.57" y1="0.00" x2="662.40" y2="11.48"/>
    <line x1="673.71" y1="0.00" x2="662.40" y2="9.16"/>
    <line x1="664.18" y1="0.00" x2="662.40" y2="1.44"/>
  </g>
  <g stroke="#6A4C93" stroke-width="1" fill="none" stroke-linecap="round">
    <line x1="676.80" y1="0.00" x2="691.20" y2="0.00"/>
    <line x1="691.20" y1="0.00" x2="691.20" y2="36.00"/>
    <line x1="691.20" y1="36.00" x2="676.80" y2="36.00"/>
    <line x1="676.80" y1="36.00" x2="676.80" y2="0.00"/>
    <line x1="676.80" y1="36.00" x2="677.91" y2="33.21"/>
    <line x1="677.91" y1="2.79" x2="690.09" y2="2.79"/>
    <line x1="690.09" y1="2.79" x2="690.09" y2="33.21"/>
    <line x1="690.09" y1="33.21" x2="677.91" y2="33.21"/>
    <line x1="677.91" y1="33.21" x2="677.91" y2="2.79"/>
    <line x1="677.91" y1="33.21" x2="679.03" y2="30.43"/>
    <line x1="679.03" y1="5.57" x2="688.97" y2="5.57"/>
    <line x1="688.97" y1="5.57" x2="688.97" y2="30.43"/>
    <line x1="688.97" y1="30.43" x2="679.03" y2="30.43"/>
    <line x1="679.03" y1="30.43" x2="679.03" y2="5.57"/>
    <line x1="679.03" y1="30.43" x2="680.14" y2="27.64"/>
    <line x1="680.14" y1="8.36" x2="687.86" y2="8.36"/>
    <line x1="687.86" y1="8.36" x2="687.86" y2="27.64"/>
    <line x1="687.86" y1="27.64" x2="680.14" y2="27.64"/>
    <line x1="680.14" y1="27.64" x2="680.14" y2="8.36"/>
    <line x1="680.14" y1="27.64" x2="681.26" y2="24.86"/>
    <line x1="681.26" y1="11.14" x2="686.74" y2="11.14"/>
    <line x1="686.74" y1="11.14" x2="686.74" y2="24.86"/>
    <line x1="686.74" y1="24.86" x2="681.26" y2="24.86"/>
    <line x1="681.26" y1="24.86" x2="681.26" y2="11.14"/>
    <line x1="681.26" y1="24.86" x2="682.37" y2="22.07"/>
    <line x1="682.37" y1="13.93" x2="685.63" y2="13.93"/>
    <line x1="685.63" y1="13.93" x2="685.63" y2="22.07"/>
    <line x1="685.63" y1="22.07" x2="682.37" y2="22.07"/>
    <line x1="682.37" y1="22.07" x2="682.37" y2="13.93"/>
  </g>
  <g stroke="#264653" stroke-width="1" fill="none" stroke-linecap="round">
    <line x1="691.20" y1="0.00" x2="705.60" y2="0.00"/>
    <line x1="705.60" y1="0.00" x2="705.60" y2="36.00"/>
    <line x1="705.60" y1="36.00" x2="691.20" y2="36.00"/>
    <line x1="691.20" y1="36.00" x2="691.20" y2="0.00"/>
    <line x1="691.20" y1="36.00" x2="692.31" y2="33.21"/>
    <line x1="692.31" y1="2.79" x2="704.49" y2="2.79"/>
    <line x1="704.49" y1="2.79" x2="704.49" y2="33.21"/>
    <line x1="704.49" y1="33.21" x2="692.31" y2="33.21"/>
    <line x1="692.31" y1="33.21" x2="692.31" y2="2.79"/>
    <line x1="692.31" y1="33.21" x2="693.43" y2="30.43"/>
    <line x1="693.43" y1="5.57" x2="703.37" y2="5.57"/>
    <line x1="703.37" y1="5.57" x2="703.37" y2="30.43"/>
    <line x1="703.37" y1="30.43" x2="693.43" y2="30.43"/>
    <line x1="693.43" y1="30.43" x2="693.43" y2="5.57"/>
    <line x1="693.43" y1="30.43" x2="694.54" y2="27.64"/>
    <line x1="694.54" y1="8.36" x2="702.26" y2="8.36"/>
    <line x1="702.26" y1="8.36" x2="702.26" y2="27.64"/>
    <line x1="702.26" y1="27.64" x2="694.54" y2="27.64"/>
    <line x1="694.54" y1="27.64" x2="694.54" y2="8.36"/>
    <line x1="694.54" y1="27.64" x2="695.66" y2="24.86"/>
    <line x1="695.66" y1="11.14" x2="701.14" y2="11.14"/>
    <line x1="701.14" y1="11.14" x2="701.14" y2="24.86"/>
    <line x1="701.14" y1="24.86" x2="695.66" y2="24.86"/>
    <line x1="695.66" y1="24.86" x2="695.66" y2="11.14"/>
    <line x1="695.66" y1="24.86" x2="696.77" y2="22.07"/>
    <line x1="696.77" y1="13.93" x2="700.03" y2="13.93"/>
    <line x1="700.03" y1="13.93" x2="700.03" y2="22.07"/>
    <line x1="700.03" y1="22.07" x2="696.77" y2="22.07"/>
    <line x1="696.77" y1="22.07" x2="696.77" y2="13.93"/>
  </g>
  <g stroke="#9B5DE5" stroke-width="1" fill="none" stroke-linecap="round">
    <line x1="718.88" y1="2.16" x2="720.00" y2="2.21"/>
    <line x1="715.44" y1="0.00" x2="714.92" y2="0.64"/>
    <line x1="716.14" y1="3.38" x2="720.00" y2="3.55"/>
    <line x1="720.00" y1="11.36" x2="719.80" y2="11.60"/>
    <line x1="713.71" y1="0.00" x2="712.18" y2="1.86"/>
    <line x1="713.40" y1="4.60" x2="720.00" y2="4.89"/>
    <line x1="720.00" y1="9.25" x2="717.06" y2="12.82"/>
    <line x1="718.28" y1="15.56" x2="720.00" y2="15.64"/>
    <line x1="711.97" y1="0.00" x2="709.44" y2="3.08"/>
    <line x1="710.66" y1="5.82" x2="717.36" y2="6.12"/>
    <line x1="718.58" y1="8.86" x2="714.32" y2="14.04"/>
    <line x1="715.54" y1="16.78" x2="720.00" y2="16.98"/>
    <line x1="720.00" y1="24.03" x2="719.20" y2="25.00"/>
    <line x1="710.23" y1="0.00" x2="706.70" y2="4.30"/>
    <line x1="707.92" y1="7.04" x2="714.62" y2="7.34"/>
    <line x1="715.84" y1="10.08" x2="711.58" y2="15.26"/>
    <line x1="712.80" y1="18.00" x2="719.50" y2="18.30"/>
    <line x1="720.00" y1="21.92" x2="716.46" y2="26.22"/>
    <line x1="717.68" y1="28.96" x2="720.00" y2="29.07"/>
    <line x1="708.22" y1="0.34" x2="705.60" y2="3.52"/>
    <line x1="705.60" y1="8.28" x2="711.88" y2="8.56"/>
    <line x1="713.10" y1="11.30" x2="708.84" y2="16.48"/>
    <line x1="710.06" y1="19.22" x2="716.76" y2="19.52"/>
    <line x1="717.98" y1="22.26" x2="713.72" y2="27.44"/>
    <line x1="714.94" y1="30.18" x2="720.00" y2="30.41"/>
    <line x1="705.60" y1="9.62" x2="709.14" y2="9.78"/>
    <line x1="710.36" y1="12.52" x2="706.10" y2="17.70"/>
    <line x1="707.32" y1="20.44" x2="714.02" y2="20.74"/>
    <line x1="715.24" y1="23.48" x2="710.98" y2="28.66"/>
    <line x1="712.20" y1="31.40" x2="718.90" y2="31.70"/>
    <line x1="720.00" y1="34.59" x2="718.84" y2="36.00"/>
    <line x1="705.60" y1="10.96" x2="706.40" y2="11.00"/>
    <line x1="707.62" y1="13.74" x2="705.60" y2="16.19"/>
    <line x1="705.60" y1="21.71" x2="711.28" y2="21.96"/>
    <line x1="712.50" y1="24.70" x2="708.24" y2="29.88"/>
    <line x1="709.46" y1="32.62" x2="716.16" y2="32.92"/>
    <line x1="717.38" y1="35.66" x2="717.10" y2="36.00"/>
    <line x1="705.60" y1="23.05" x2="708.54" y2="23.18"/>
    <line x1="709.76" y1="25.92" x2="705.60" y2="30.98"/>
    <line x1="706.72" y1="33.84" x2="713.42" y2="34.14"/>
    <line x1="705.60" y1="24.39" x2="705.80" y2="24.40"/>
    <line x1="707.02" y1="27.14" x2="705.60" y2="28.87"/>
    <line x1="705.60" y1="35.14" x2="710.68" y2="35.36"/>
  </g>
  <g stroke="#FFD166" stroke-width="1" fill="none" stroke-linecap="round">
    <line x1="734.40" y1="34.86" x2="732.70" y2="36.00"/>
    <line x1="734.40" y1="31.24" x2="727.34" y2="36.00"/>
    <line x1="734.40" y1="27.62" x2="721.97" y2="36.00"/>
    <line x1="734.40" y1="24.00" x2="720.00" y2="33.71"/>
    <line x1="734.40" y1="20.38" x2="720.00" y2="30.09"/>
    <line x1="734.40" y1="16.76" x2="720.00" y2="26.48"/>
    <line x1="734.40" y1="13.14" x2="720.00" y2="22.86"/>
    <line x1="734.40" y1="9.52" x2="720.00" y2="19.24"/>
    <line x1="734.40" y1="5.91" x2="720.00" y2="15.62"/>
    <line x1="734.40" y1="2.29" x2="720.00" y2="12.00"/>
    <line x1="732.43" y1="0.00" x2="720.00" y2="8.38"/>
    <line x1="727.06" y1="-0.00" x2="720.00" y2="4.76"/>
    <line x1="721.70" y1="0.00" x2="720.00" y2="1.14"/>
    <line x1="721.25" y1="36.00" x2="720.00" y2="34.15"/>
    <line x1="724.87" y1="36.00" x2="720.00" y2="28.79"/>
    <line x1="728.49" y1="36.00" x2="720.00" y2="23.42"/>
    <line x1="732.10" y1="36.00" x2="720.00" y2="18.06"/>
    <line x1="734.40" y1="34.04" x2="720.00" y2="12.69"/>
    <line x1="734.40" y1="28.67" x2="720.00" y2="7.33"/>
    <line x1="734.40" y1="23.31" x2="720.00" y2="1.96"/>
    <line x1="734.40" y1="17.94" x2="722.30" y2="0.00"/>
    <line x1="734.40" y1="12.58" x2="725.91" y2="0.00"/>
    <line x1="734.40" y1="7.21" x2="729.53" y2="0.00"/>
    <line x1="734.40" y1="1.85" x2="733.15" y2="0.00"/>
  </g>
  <g stroke="#FFD166" stroke-width="1" fill="none" stroke-linecap="round">
    <line x1="747.29" y1="0.00" x2="747.92" y2="36.00"/>
    <line x1="744.29" y1="0.00" x2="744.91" y2="36.00"/>
    <line x1="741.29" y1="0.00" x2="741.91" y2="36.00"/>
    <line x1="738.29" y1="0.00" x2="738.91" y2="36.00"/>
    <line x1="735.28" y1="0.00" x2="735.91" y2="36.00"/>
  </g>
  <g stroke="#4CC9F0" stroke-width="1" fill="none" stroke-linecap="round">
    <line x1="762.54" y1="-0.00" x2="763.20" y2="1.20"/>
    <line x1="749.80" y1="10.48" x2="763.20" y2="3.05"/>
    <line x1="751.64" y1="10.13" x2="760.36" y2="25.87"/>
    <line x1="748.80" y1="32.95" x2="762.20" y2="25.52"/>
    <line x1="748.80" y1="34.80" x2="749.46" y2="36.00"/>
  </g>
  <g stroke="#FFCA3A" stroke-width="1" fill="none" stroke-linecap="round">
    <line x1="777.60" y1="29.29" x2="767.65" y2="36.00"/>
    <line x1="777.60" y1="22.05" x2="763.20" y2="31.77"/>
    <line x1="777.60" y1="14.82" x2="763.20" y2="24.53"/>
    <line x1="777.60" y1="7.58" x2="763.20" y2="17.29"/>
    <line x1="777.60" y1="0.34" x2="763.20" y2="10.05"/>
    <line x1="767.38" y1="0.00" x2="763.20" y2="2.82"/>
    <line x1="777.60" y1="4.74" x2="774.41" y2="0.00"/>
    <line x1="777.60" y1="15.47" x2="767.17" y2="0.00"/>
    <line x1="777.60" y1="26.19" x2="763.20" y2="4.85"/>
    <line x1="776.98" y1="36.00" x2="763.20" y2="15.58"/>
    <line x1="769.74" y1="36.00" x2="763.20" y2="26.31"/>
  </g>
  <g stroke="#E9C46A" stroke-width="1" fill="none" stroke-linecap="round">
    <line x1="792.00" y1="35.65" x2="785.27" y2="36.00"/>
    <line x1="792.00" y1="32.64" x2="777.60" y2="33.40"/>
    <line x1="792.00" y1="29.64" x2="777.60" y2="30.39"/>
    <line x1="792.00" y1="26.64" x2="777.60" y2="27.39"/>
    <line x1="792.00" y1="23.63" x2="777.60" y2="24.39"/>
    <line x1="792.00" y1="20.63" x2="777.60" y2="21.38"/>
    <line x1="792.00" y1="17.62" x2="777.60" y2="18.38"/>
    <line x1="792.00" y1="14.62" x2="777.60" y2="15.37"/>
    <line x1="792.00" y1="11.61" x2="777.60" y2="12.37"/>
    <line x1="792.00" y1="8.61" x2="777.60" y2="9.36"/>
    <line x1="792.00" y1="5.61" x2="777.60" y2="6.36"/>
    <line x1="792.00" y1="2.60" x2="777.60" y2="3.36"/>
    <line x1="784.33" y1="0.00" x2="777.60" y2="0.35"/>
    <line x1="779.74" y1="36.00" x2="777.85" y2="-0.00"/>
    <line x1="782.74" y1="36.00" x2="780.85" y2="0.00"/>
    <line x1="785.74" y1="36.00" x2="783.86" y2="-0.00"/>
    <line x1="788.75" y1="36.00" x2="786.86" y2="-0.00"/>
    <line x1="791.75" y1="36.00" x2="789.86" y2="0.00"/>
  </g>
  <g stroke="#8338EC" stroke-width="1" fill="none" stroke-linecap="round">
    <line x1="806.40" y1="19.67" x2="803.23" y2="36.00"/>
    <line x1="804.11" y1="0.00" x2="797.11" y2="36.00"/>
    <line x1="798.00" y1="0.00" x2="792.00" y2="30.86"/>
    <line x1="806.40" y1="5.76" x2="792.00" y2="2.96"/>
    <line x1="806.40" y1="11.87" x2="792.00" y2="9.08"/>
    <line x1="806.40" y1="17.99" x2="792.00" y2="15.19"/>
    <line x1="806.40" y1="24.10" x2="792.00" y2="21.30"/>
    <line x1="806.40" y1="30.21" x2="792.00" y2="27.41"/>
    <line x1="804.73" y1="36.00" x2="792.00" y2="33.52"/>
  </g>
  <g stroke="#9B5DE5" stroke-width="1" fill="none" stroke-linecap="round">
    <line x1="820.61" y1="0.00" x2="820.80" y2="0.05"/>
    <line x1="813.65" y1="0.00" x2="820.80" y2="1.92"/>
    <line x1="806.40" y1="4.27" x2="820.80" y2="8.13"/>
    <line x1="806.40" y1="6.13" x2="820.80" y2="9.99"/>
    <line x1="806.40" y1="8.00" x2="820.80" y2="11.85"/>
    <line x1="806.40" y1="14.21" x2="820.80" y2="18.07"/>
    <line x1="806.40" y1="16.07" x2="820.80" y2="19.93"/>
    <line x1="806.40" y1="17.93" x2="820.80" y2="21.79"/>
    <line x1="806.40" y1="24.15" x2="820.80" y2="28.00"/>
    <line x1="806.40" y1="26.01" x2="820.80" y2="29.87"/>
    <line x1="806.40" y1="27.87" x2="820.80" y2="31.73"/>
    <line x1="806.40" y1="34.08" x2="813.55" y2="36.00"/>
    <line x1="806.40" y1="35.95" x2="806.59" y2="36.00"/>
  </g>
  <g stroke="#3A86FF" stroke-width="1" fill="none" stroke-linecap="round">
    <line x1="820.80" y1="0.00" x2="835.20" y2="0.00"/>
    <line x1="835.20" y1="0.00" x2="835.20" y2="36.00"/>
    <line x1="835.20" y1="36.00" x2="820.80" y2="36.00"/>
    <line x1="820.80" y1="36.00" x2="820.80" y2="0.00"/>
    <line x1="820.80" y1="36.00" x2="821.91" y2="33.21"/>
    <line x1="821.91" y1="2.79" x2="834.09" y2="2.79"/>
    <line x1="834.09" y1="2.79" x2="834.09" y2="33.21"/>
    <line x1="834.09" y1="33.21" x2="821.91" y2="33.21"/>
    <line x1="821.91" y1="33.21" x2="821.91" y2="2.79"/>
    <line x1="821.91" y1="33.21" x2="823.03" y2="30.43"/>
    <line x1="823.03" y1="5.57" x2="832.97" y2="5.57"/>
    <line x1="832.97" y1="5.57" x2="832.97" y2="30.43"/>
    <line x1="832.97" y1="30.43" x2="823.03" y2="30.43"/>
    <line x1="823.03" y1="30.43" x2="823.03" y2="5.57"/>
    <line x1="823.03" y1="30.43" x2="824.14" y2="27.64"/>
    <line x1="824.14" y1="8.36" x2="831.86" y2="8.36"/>
    <line x1="831.86" y1="8.36" x2="831.86" y2="27.64"/>
    <line x1="831.86" y1="27.64" x2="824.14" y2="27.64"/>
    <line x1="824.14" y1="27.64" x2="824.14" y2="8.36"/>
    <line x1="824.14" y1="27.64" x2="825.26" y2="24.86"/>
    <line x1="825.26" y1="11.14" x2="830.74" y2="11.14"/>
    <line x1="830.74" y1="11.14" x2="830.74" y2="24.86"/>
    <line x1="830.74" y1="24.86" x2="825.26" y2="24.86"/>
    <line x1="825.26" y1="24.86" x2="825.26" y2="11.14"/>
    <line x1="825.26" y1="24.86" x2="826.37" y2="22.07"/>
    <line x1="826.37" y1="13.93" x2="829.63" y2="13.93"/>
    <line x1="829.63" y1="13.93" x2="829.63" y2="22.07"/>
    <line x1="829.63" y1="22.07" x2="826.37" y2="22.07"/>
    <line x1="826.37" y1="22.07" x2="826.37" y2="13.93"/>
  </g>
  <g stroke="#FF006E" stroke-width="1" fill="none" stroke-linecap="round">
    <line x1="849.19" y1="-0.00" x2="849.60" y2="0.12"/>
    <line x1="843.04" y1="0.00" x2="849.60" y2="2.01"/>
    <line x1="835.20" y1="3.88" x2="849.60" y2="8.28"/>
    <line x1="835.20" y1="5.76" x2="849.60" y2="10.16"/>
    <line x1="835.20" y1="7.64" x2="849.60" y2="12.04"/>
    <line x1="835.20" y1="13.92" x2="849.60" y2="18.32"/>
    <line x1="835.20" y1="15.80" x2="849.60" y2="20.20"/>
    <line x1="835.20" y1="17.68" x2="849.60" y2="22.08"/>
    <line x1="835.20" y1="23.96" x2="849.60" y2="28.36"/>
    <line x1="835.20" y1="25.84" x2="849.60" y2="30.24"/>
    <line x1="835.20" y1="27.72" x2="849.60" y2="32.12"/>
    <line x1="835.20" y1="33.99" x2="841.76" y2="36.00"/>
    <line x1="835.20" y1="35.88" x2="835.61" y2="36.00"/>
  </g>
  <g stroke="#3A86FF" stroke-width="1" fill="none" stroke-linecap="round">
    <line x1="849.60" y1="0.00" x2="864.00" y2="0.00"/>
    <line x1="864.00" y1="0.00" x2="864.00" y2="36.00"/>
    <line x1="864.00" y1="36.00" x2="849.60" y2="36.00"/>
    <line x1="849.60" y1="36.00" x2="849.60" y2="0.00"/>
    <line x1="849.60" y1="36.00" x2="850.71" y2="33.21"/>
    <line x1="850.71" y1="2.79" x2="862.89" y2="2.79"/>
    <line x1="862.89" y1="2.79" x2="862.89" y2="33.21"/>
    <line x1="862.89" y1="33.21" x2="850.71" y2="33.21"/>
    <line x1="850.71" y1="33.21" x2="850.71" y2="2.79"/>
    <line x1="850.71" y1="33.21" x2="851.83" y2="30.43"/>
    <line x1="851.83" y1="5.57" x2="861.77" y2="5.57"/>
    <line x1="861.77" y1="5.57" x2="861.77" y2="30.43"/>
    <line x1="861.77" y1="30.43" x2="851.83" y2="30.43"/>
    <line x1="851.83" y1="30.43" x2="851.83" y2="5.57"/>
    <line x1="851.83" y1="30.43" x2="852.94" y2="27.64"/>
    <line x1="852.94" y1="8.36" x2="860.66" y2="8.36"/>
    <line x1="860.66" y1="8.36" x2="860.66" y2="27.64"/>
    <line x1="860.66" y1="27.64" x2="852.94" y2="27.64"/>
    <line x1="852.94" y1="27.64" x2="852.94" y2="8.36"/>
    <line x1="852.94" y1="27.64" x2="854.06" y2="24.86"/>
    <line x1="854.06" y1="11.14" x2="859.54" y2="11.14"/>
    <line x1="859.54" y1="11.14" x2="859.54" y2="24.86"/>
    <line x1="859.54" y1="24.86" x2="854.06" y2="24.86"/>
    <line x1="854.06" y1="24.86" x2="854.06" y2="11.14"/>
    <line x1="854.06" y1="24.86" x2="855.17" y2="22.07"/>
    <line x1="855.17" y1="13.93" x2="858.43" y2="13.93"/>
    <line x1="858.43" y1="13.93" x2="858.43" y2="22.07"/>
    <line x1="858.43" y1="22.07" x2="855.17" y2="22.07"/>
    <line x1="855.17" y1="22.07" x2="855.17" y2="13.93"/>
  </g>
</svg>
