<?xml version="1.0" encoding="UTF-8"?>
<svg xmlns="http://www.w3.org/2000/svg"
     width="864.00" height="36.00"
     viewBox="0 0 864.00 36.00">
  <title>Pattern Banner - rat-king</title>
  <desc>Randomized pattern strip with 60 cells</desc>
  <rect width="100%" height="100%" fill="white"/>
  <g stroke="#06D6A0" stroke-width="1" fill="none" stroke-linecap="round">
    <line x1="14.40" y1="34.76" x2="9.41" y2="36.00"/>
    <line x1="14.40" y1="31.66" x2="0.00" y2="35.25"/>
    <line x1="14.40" y1="28.57" x2="0.00" y2="32.16"/>
    <line x1="14.40" y1="25.48" x2="0.00" y2="29.07"/>
    <line x1="14.40" y1="22.39" x2="0.00" y2="25.98"/>
    <line x1="14.40" y1="19.30" x2="0.00" y2="22.89"/>
    <line x1="14.40" y1="16.20" x2="0.00" y2="19.80"/>
    <line x1="14.40" y1="13.11" x2="0.00" y2="16.70"/>
    <line x1="14.40" y1="10.02" x2="0.00" y2="13.61"/>
    <line x1="14.40" y1="6.93" x2="0.00" y2="10.52"/>
    <line x1="14.40" y1="3.84" x2="0.00" y2="7.43"/>
    <line x1="14.40" y1="0.75" x2="0.00" y2="4.34"/>
    <line x1="4.99" y1="0.00" x2="0.00" y2="1.24"/>
  </g>
  <g stroke="#06D6A0" stroke-width="1" fill="none" stroke-linecap="round">
    <line x1="28.16" y1="0.00" x2="28.80" y2="4.56"/>
    <line x1="25.13" y1="0.00" x2="28.80" y2="26.12"/>
    <line x1="22.10" y1="0.00" x2="27.16" y2="36.00"/>
    <line x1="19.07" y1="0.00" x2="24.13" y2="36.00"/>
    <line x1="16.04" y1="0.00" x2="21.10" y2="36.00"/>
    <line x1="14.40" y1="9.88" x2="18.07" y2="36.00"/>
    <line x1="14.40" y1="31.44" x2="15.04" y2="36.00"/>
  </g>
  <g stroke="#4361EE" stroke-width="1" fill="none" stroke-linecap="round">
    <line x1="37.31" y1="0.00" x2="43.20" y2="16.18"/>
    <line x1="30.92" y1="0.00" x2="43.20" y2="33.73"/>
    <line x1="28.80" y1="11.71" x2="37.64" y2="36.00"/>
    <line x1="28.80" y1="29.25" x2="31.26" y2="36.00"/>
    <line x1="43.20" y1="1.13" x2="28.80" y2="6.37"/>
    <line x1="43.20" y1="7.52" x2="28.80" y2="12.76"/>
    <line x1="43.20" y1="13.90" x2="28.80" y2="19.15"/>
    <line x1="43.20" y1="20.29" x2="28.80" y2="25.53"/>
    <line x1="43.20" y1="26.67" x2="28.80" y2="31.92"/>
    <line x1="43.20" y1="33.06" x2="35.12" y2="36.00"/>
  </g>
  <g stroke="#9B5DE5" stroke-width="1" fill="none" stroke-linecap="round">
    <line x1="54.38" y1="-0.00" x2="57.60" y2="3.58"/>
    <line x1="50.34" y1="-0.00" x2="57.60" y2="8.06"/>
    <line x1="46.30" y1="0.00" x2="57.60" y2="12.55"/>
    <line x1="43.20" y1="1.04" x2="57.60" y2="17.03"/>
    <line x1="43.20" y1="5.52" x2="57.60" y2="21.51"/>
    <line x1="43.20" y1="10.00" x2="57.60" y2="26.00"/>
    <line x1="43.20" y1="14.49" x2="57.60" y2="30.48"/>
    <line x1="43.20" y1="18.97" x2="57.60" y2="34.96"/>
    <line x1="43.20" y1="23.45" x2="54.50" y2="36.00"/>
    <line x1="43.20" y1="27.94" x2="50.46" y2="36.00"/>
    <line x1="43.20" y1="32.42" x2="46.42" y2="36.00"/>
    <line x1="57.60" y1="35.74" x2="57.31" y2="36.00"/>
    <line x1="57.60" y1="31.70" x2="52.83" y2="36.00"/>
    <line x1="57.60" y1="27.66" x2="48.34" y2="36.00"/>
    <line x1="57.60" y1="23.63" x2="43.86" y2="36.00"/>
    <line x1="57.60" y1="19.59" x2="43.20" y2="32.56"/>
    <line x1="57.60" y1="15.55" x2="43.20" y2="28.52"/>
    <line x1="57.60" y1="11.52" x2="43.20" y2="24.48"/>
    <line x1="57.60" y1="7.48" x2="43.20" y2="20.45"/>
    <line x1="57.60" y1="3.44" x2="43.20" y2="16.41"/>
    <line x1="56.94" y1="0.00" x2="43.20" y2="12.37"/>
    <line x1="52.46" y1="-0.00" x2="43.20" y2="8.34"/>
    <line x1="47.97" y1="0.00" x2="43.20" y2="4.30"/>
    <line x1="43.49" y1="0.00" x2="43.20" y2="0.26"/>
  </g>
  <g stroke="#FFCA3A" stroke-width="1" fill="none" stroke-linecap="round">
    <line x1="57.60" y1="0.65" x2="72.00" y2="6.47"/>
    <line x1="57.60" y1="7.12" x2="72.00" y2="12.94"/>
    <line x1="57.60" y1="13.60" x2="72.00" y2="19.41"/>
    <line x1="57.60" y1="20.07" x2="72.00" y2="25.88"/>
    <line x1="57.60" y1="26.54" x2="72.00" y2="32.36"/>
    <line x1="57.60" y1="33.01" x2="65.00" y2="36.00"/>
    <line x1="57.63" y1="0.00" x2="57.60" y2="0.09"/>
    <line x1="64.11" y1="0.00" x2="57.60" y2="16.10"/>
    <line x1="70.58" y1="0.00" x2="57.60" y2="32.12"/>
    <line x1="72.00" y1="12.49" x2="62.50" y2="36.00"/>
    <line x1="72.00" y1="28.51" x2="68.97" y2="36.00"/>
  </g>
  <g stroke="#E9C46A" stroke-width="1" fill="none" stroke-linecap="round">
    <line x1="80.59" y1="3.32" x2="86.40" y2="8.37"/>
    <line x1="72.00" y1="10.91" x2="72.83" y2="11.63"/>
    <line x1="85.10" y1="11.21" x2="73.30" y2="24.79"/>
    <line x1="85.57" y1="24.37" x2="86.40" y2="25.09"/>
    <line x1="72.00" y1="27.63" x2="77.81" y2="32.68"/>
  </g>
  <g stroke="#06D6A0" stroke-width="1" fill="none" stroke-linecap="round">
    <line x1="100.80" y1="30.38" x2="96.25" y2="36.00"/>
    <line x1="100.80" y1="20.85" x2="88.53" y2="36.00"/>
    <line x1="100.80" y1="11.31" x2="86.40" y2="29.09"/>
    <line x1="100.80" y1="1.78" x2="86.40" y2="19.56"/>
    <line x1="94.52" y1="0.00" x2="86.40" y2="10.03"/>
    <line x1="86.80" y1="0.00" x2="86.40" y2="0.49"/>
    <line x1="100.80" y1="6.61" x2="92.64" y2="0.00"/>
    <line x1="100.80" y1="14.33" x2="86.40" y2="2.66"/>
    <line x1="100.80" y1="22.05" x2="86.40" y2="10.39"/>
    <line x1="100.80" y1="29.77" x2="86.40" y2="18.11"/>
    <line x1="98.96" y1="36.00" x2="86.40" y2="25.83"/>
    <line x1="89.43" y1="36.00" x2="86.40" y2="33.55"/>
  </g>
  <g stroke="#FB5607" stroke-width="1" fill="none" stroke-linecap="round">
    <line x1="114.37" y1="0.00" x2="115.20" y2="0.67"/>
    <line x1="109.61" y1="-0.00" x2="115.20" y2="4.53"/>
    <line x1="104.84" y1="-0.00" x2="115.20" y2="8.39"/>
    <line x1="100.80" y1="0.59" x2="115.20" y2="12.25"/>
    <line x1="100.80" y1="4.45" x2="115.20" y2="16.11"/>
    <line x1="100.80" y1="8.31" x2="115.20" y2="19.97"/>
    <line x1="100.80" y1="12.17" x2="115.20" y2="23.83"/>
    <line x1="100.80" y1="16.03" x2="115.20" y2="27.69"/>
    <line x1="100.80" y1="19.89" x2="115.20" y2="31.55"/>
    <line x1="100.80" y1="23.75" x2="115.20" y2="35.41"/>
    <line x1="100.80" y1="27.61" x2="111.16" y2="36.00"/>
    <line x1="100.80" y1="31.47" x2="106.39" y2="36.00"/>
    <line x1="100.80" y1="35.33" x2="101.63" y2="36.00"/>
  </g>
  <g stroke="#EF476F" stroke-width="1" fill="none" stroke-linecap="round">
    <line x1="129.60" y1="30.30" x2="126.70" y2="36.00"/>
    <line x1="129.60" y1="23.69" x2="123.33" y2="36.00"/>
    <line x1="129.60" y1="17.09" x2="119.96" y2="36.00"/>
    <line x1="129.60" y1="10.48" x2="116.60" y2="36.00"/>
    <line x1="129.60" y1="3.87" x2="115.20" y2="32.13"/>
    <line x1="128.20" y1="0.00" x2="115.20" y2="25.52"/>
    <line x1="124.84" y1="0.00" x2="115.20" y2="18.91"/>
    <line x1="121.47" y1="0.00" x2="115.20" y2="12.31"/>
    <line x1="118.10" y1="0.00" x2="115.20" y2="5.70"/>
  </g>
  <g stroke="#118AB2" stroke-width="1" fill="none" stroke-linecap="round">
    <line x1="132.91" y1="0.00" x2="129.82" y2="8.97"/>
    <line x1="144.00" y1="20.48" x2="129.60" y2="15.52"/>
    <line x1="143.78" y1="27.03" x2="140.69" y2="36.00"/>
  </g>
  <g stroke="#F15BB5" stroke-width="1" fill="none" stroke-linecap="round">
    <line x1="144.00" y1="0.00" x2="158.40" y2="0.00"/>
    <line x1="158.40" y1="0.00" x2="158.40" y2="36.00"/>
    <line x1="158.40" y1="36.00" x2="144.00" y2="36.00"/>
    <line x1="144.00" y1="36.00" x2="144.00" y2="0.00"/>
    <line x1="144.00" y1="36.00" x2="145.11" y2="33.21"/>
    <line x1="145.11" y1="2.79" x2="157.29" y2="2.79"/>
    <line x1="157.29" y1="2.79" x2="157.29" y2="33.21"/>
    <line x1="157.29" y1="33.21" x2="145.11" y2="33.21"/>
    <line x1="145.11" y1="33.21" x2="145.11" y2="2.79"/>
    <line x1="145.11" y1="33.21" x2="146.23" y2="30.43"/>
    <line x1="146.23" y1="5.57" x2="156.17" y2="5.57"/>
    <line x1="156.17" y1="5.57" x2="156.17" y2="30.43"/>
    <line x1="156.17" y1="30.43" x2="146.23" y2="30.43"/>
    <line x1="146.23" y1="30.43" x2="146.23" y2="5.57"/>
    <line x1="146.23" y1="30.43" x2="147.34" y2="27.64"/>
    <line x1="147.34" y1="8.36" x2="155.06" y2="8.36"/>
    <line x1="155.06" y1="8.36" x2="155.06" y2="27.64"/>
    <line x1="155.06" y1="27.64" x2="147.34" y2="27.64"/>
    <line x1="147.34" y1="27.64" x2="147.34" y2="8.36"/>
    <line x1="147.34" y1="27.64" x2="148.46" y2="24.86"/>
    <line x1="148.46" y1="11.14" x2="153.94" y2="11.14"/>
    <line x1="153.94" y1="11.14" x2="153.94" y2="24.86"/>
    <line x1="153.94" y1="24.86" x2="148.46" y2="24.86"/>
    <line x1="148.46" y1="24.86" x2="148.46" y2="11.14"/>
    <line x1="148.46" y1="24.86" x2="149.57" y2="22.07"/>
    <line x1="149.57" y1="13.93" x2="152.83" y2="13.93"/>
    <line x1="152.83" y1="13.93" x2="152.83" y2="22.07"/>
    <line x1="152.83" y1="22.07" x2="149.57" y2="22.07"/>
    <line x1="149.57" y1="22.07" x2="149.57" y2="13.93"/>
  </g>
  <g stroke="#EF476F" stroke-width="1" fill="none" stroke-linecap="round">
    <line x1="158.40" y1="0.00" x2="172.80" y2="0.00"/>
    <line x1="172.80" y1="0.00" x2="172.80" y2="36.00"/>
    <line x1="172.80" y1="36.00" x2="158.40" y2="36.00"/>
    <line x1="158.40" y1="36.00" x2="158.40" y2="0.00"/>
    <line x1="158.40" y1="36.00" x2="159.51" y2="33.21"/>
    <line x1="159.51" y1="2.79" x2="171.69" y2="2.79"/>
    <line x1="171.69" y1="2.79" x2="171.69" y2="33.21"/>
    <line x1="171.69" y1="33.21" x2="159.51" y2="33.21"/>
    <line x1="159.51" y1="33.21" x2="159.51" y2="2.79"/>
    <line x1="159.51" y1="33.21" x2="160.63" y2="30.43"/>
    <line x1="160.63" y1="5.57" x2="170.57" y2="5.57"/>
    <line x1="170.57" y1="5.57" x2="170.57" y2="30.43"/>
    <line x1="170.57" y1="30.43" x2="160.63" y2="30.43"/>
    <line x1="160.63" y1="30.43" x2="160.63" y2="5.57"/>
    <line x1="160.63" y1="30.43" x2="161.74" y2="27.64"/>
    <line x1="161.74" y1="8.36" x2="169.46" y2="8.36"/>
    <line x1="169.46" y1="8.36" x2="169.46" y2="27.64"/>
    <line x1="169.46" y1="27.64" x2="161.74" y2="27.64"/>
    <line x1="161.74" y1="27.64" x2="161.74" y2="8.36"/>
    <line x1="161.74" y1="27.64" x2="162.86" y2="24.86"/>
    <line x1="162.86" y1="11.14" x2="168.34" y2="11.14"/>
    <line x1="168.34" y1="11.14" x2="168.34" y2="24.86"/>
    <line x1="168.34" y1="24.86" x2="162.86" y2="24.86"/>
    <line x1="162.86" y1="24.86" x2="162.86" y2="11.14"/>
    <line x1="162.86" y1="24.86" x2="163.97" y2="22.07"/>
    <line x1="163.97" y1="13.93" x2="167.23" y2="13.93"/>
    <line x1="167.23" y1="13.93" x2="167.23" y2="22.07"/>
    <line x1="167.23" y1="22.07" x2="163.97" y2="22.07"/>
    <line x1="163.97" y1="22.07" x2="163.97" y2="13.93"/>
  </g>
  <g stroke="#6A4C93" stroke-width="1" fill="none" stroke-linecap="round">
    <line x1="183.98" y1="0.00" x2="187.20" y2="3.58"/>
    <line x1="179.94" y1="0.00" x2="187.20" y2="8.06"/>
    <line x1="175.90" y1="0.00" x2="187.20" y2="12.55"/>
    <line x1="172.80" y1="1.04" x2="187.20" y2="17.03"/>
    <line x1="172.80" y1="5.52" x2="187.20" y2="21.51"/>
    <line x1="172.80" y1="10.00" x2="187.20" y2="26.00"/>
    <line x1="172.80" y1="14.49" x2="187.20" y2="30.48"/>
    <line x1="172.80" y1="18.97" x2="187.20" y2="34.96"/>
    <line x1="172.80" y1="23.45" x2="184.10" y2="36.00"/>
    <line x1="172.80" y1="27.94" x2="180.06" y2="36.00"/>
    <line x1="172.80" y1="32.42" x2="176.02" y2="36.00"/>
  </g>
  <g stroke="#9B5DE5" stroke-width="1" fill="none" stroke-linecap="round">
    <line x1="200.08" y1="-0.00" x2="201.60" y2="1.07"/>
    <line x1="194.85" y1="0.00" x2="201.60" y2="4.73"/>
    <line x1="189.61" y1="0.00" x2="201.60" y2="8.39"/>
    <line x1="187.20" y1="1.97" x2="201.60" y2="12.05"/>
    <line x1="187.20" y1="5.63" x2="201.60" y2="15.72"/>
    <line x1="187.20" y1="9.30" x2="201.60" y2="19.38"/>
    <line x1="187.20" y1="12.96" x2="201.60" y2="23.04"/>
    <line x1="187.20" y1="16.62" x2="201.60" y2="26.70"/>
    <line x1="187.20" y1="20.28" x2="201.60" y2="30.37"/>
    <line x1="187.20" y1="23.95" x2="201.60" y2="34.03"/>
    <line x1="187.20" y1="27.61" x2="199.19" y2="36.00"/>
    <line x1="187.20" y1="31.27" x2="193.95" y2="36.00"/>
    <line x1="187.20" y1="34.93" x2="188.72" y2="36.00"/>
    <line x1="201.60" y1="33.87" x2="200.11" y2="36.00"/>
    <line x1="201.60" y1="28.64" x2="196.45" y2="36.00"/>
    <line x1="201.60" y1="23.41" x2="192.78" y2="36.00"/>
    <line x1="201.60" y1="18.18" x2="189.12" y2="36.00"/>
    <line x1="201.60" y1="12.95" x2="187.20" y2="33.51"/>
    <line x1="201.60" y1="7.72" x2="187.20" y2="28.28"/>
    <line x1="201.60" y1="2.49" x2="187.20" y2="23.05"/>
    <line x1="199.68" y1="0.00" x2="187.20" y2="17.82"/>
    <line x1="196.02" y1="0.00" x2="187.20" y2="12.59"/>
    <line x1="192.35" y1="0.00" x2="187.20" y2="7.36"/>
    <line x1="188.69" y1="0.00" x2="187.20" y2="2.13"/>
  </g>
  <g stroke="#4CC9F0" stroke-width="1" fill="none" stroke-linecap="round">
    <line x1="216.00" y1="32.21" x2="214.47" y2="36.00"/>
    <line x1="216.00" y1="24.20" x2="211.23" y2="36.00"/>
    <line x1="216.00" y1="16.20" x2="208.00" y2="36.00"/>
    <line x1="216.00" y1="8.19" x2="204.76" y2="36.00"/>
    <line x1="216.00" y1="0.18" x2="201.60" y2="35.82"/>
    <line x1="212.84" y1="0.00" x2="201.60" y2="27.81"/>
    <line x1="209.60" y1="0.00" x2="201.60" y2="19.80"/>
    <line x1="206.37" y1="0.00" x2="201.60" y2="11.80"/>
    <line x1="203.13" y1="0.00" x2="201.60" y2="3.79"/>
  </g>
  <g stroke="#EF476F" stroke-width="1" fill="none" stroke-linecap="round">
    <line x1="229.77" y1="-0.00" x2="230.40" y2="3.55"/>
    <line x1="227.95" y1="-0.00" x2="230.40" y2="13.91"/>
    <line x1="221.85" y1="0.00" x2="228.20" y2="36.00"/>
    <line x1="220.03" y1="-0.00" x2="226.37" y2="36.00"/>
    <line x1="218.20" y1="0.00" x2="224.55" y2="36.00"/>
    <line x1="216.00" y1="22.09" x2="218.45" y2="36.00"/>
    <line x1="216.00" y1="32.45" x2="216.63" y2="36.00"/>
  </g>
  <g stroke="#FFCA3A" stroke-width="1" fill="none" stroke-linecap="round">
    <line x1="244.80" y1="22.59" x2="242.80" y2="24.32"/>
    <line x1="244.80" y1="31.62" x2="243.06" y2="29.62"/>
    <line x1="238.24" y1="0.00" x2="231.44" y2="5.92"/>
    <line x1="243.50" y1="24.79" x2="231.70" y2="11.21"/>
    <line x1="243.76" y1="30.08" x2="236.96" y2="36.00"/>
    <line x1="232.14" y1="6.38" x2="230.40" y2="4.38"/>
    <line x1="232.40" y1="11.68" x2="230.40" y2="13.41"/>
  </g>
  <g stroke="#6A4C93" stroke-width="1" fill="none" stroke-linecap="round">
    <line x1="244.80" y1="4.61" x2="259.20" y2="4.61"/>
    <line x1="244.80" y1="10.61" x2="259.20" y2="10.61"/>
    <line x1="244.80" y1="16.61" x2="259.20" y2="16.61"/>
    <line x1="244.80" y1="22.61" x2="259.20" y2="22.61"/>
    <line x1="244.80" y1="28.61" x2="259.20" y2="28.61"/>
    <line x1="244.80" y1="34.61" x2="259.20" y2="34.61"/>
    <line x1="250.61" y1="0.00" x2="250.61" y2="36.00"/>
    <line x1="256.61" y1="0.00" x2="256.61" y2="36.00"/>
  </g>
  <g stroke="#7209B7" stroke-width="1" fill="none" stroke-linecap="round">
    <line x1="265.77" y1="0.00" x2="273.60" y2="6.57"/>
    <line x1="259.20" y1="2.32" x2="273.60" y2="14.40"/>
    <line x1="259.20" y1="10.15" x2="273.60" y2="22.23"/>
    <line x1="259.20" y1="17.98" x2="273.60" y2="30.06"/>
    <line x1="259.20" y1="25.81" x2="271.34" y2="36.00"/>
    <line x1="259.20" y1="33.65" x2="262.01" y2="36.00"/>
    <line x1="264.03" y1="0.00" x2="259.20" y2="5.75"/>
    <line x1="271.86" y1="0.00" x2="259.20" y2="15.09"/>
    <line x1="273.60" y1="7.26" x2="259.20" y2="24.42"/>
    <line x1="273.60" y1="16.60" x2="259.20" y2="33.76"/>
    <line x1="273.60" y1="25.93" x2="265.15" y2="36.00"/>
    <line x1="273.60" y1="35.27" x2="272.98" y2="36.00"/>
  </g>
  <g stroke="#FFD166" stroke-width="1" fill="none" stroke-linecap="round">
    <line x1="282.22" y1="-0.00" x2="288.00" y2="0.92"/>
    <line x1="273.60" y1="1.67" x2="288.00" y2="3.95"/>
    <line x1="273.60" y1="4.71" x2="288.00" y2="6.99"/>
    <line x1="273.60" y1="7.75" x2="288.00" y2="10.03"/>
    <line x1="273.60" y1="10.78" x2="288.00" y2="13.07"/>
    <line x1="273.60" y1="13.82" x2="288.00" y2="16.10"/>
    <line x1="273.60" y1="16.86" x2="288.00" y2="19.14"/>
    <line x1="273.60" y1="19.90" x2="288.00" y2="22.18"/>
    <line x1="273.60" y1="22.93" x2="288.00" y2="25.22"/>
    <line x1="273.60" y1="25.97" x2="288.00" y2="28.25"/>
    <line x1="273.60" y1="29.01" x2="288.00" y2="31.29"/>
    <line x1="273.60" y1="32.05" x2="288.00" y2="34.33"/>
    <line x1="273.60" y1="35.08" x2="279.38" y2="36.00"/>
  </g>
  <g stroke="#00BBF9" stroke-width="1" fill="none" stroke-linecap="round">
    <line x1="300.01" y1="36.00" x2="299.73" y2="20.05"/>
    <line x1="288.00" y1="36.00" x2="292.32" y2="35.92"/>
    <line x1="288.00" y1="18.13" x2="302.40" y2="17.87"/>
    <line x1="298.08" y1="0.08" x2="302.40" y2="0.00"/>
    <line x1="290.67" y1="15.95" x2="290.39" y2="0.00"/>
  </g>
  <g stroke="#4CC9F0" stroke-width="1" fill="none" stroke-linecap="round">
    <line x1="302.40" y1="0.00" x2="316.80" y2="0.00"/>
    <line x1="316.80" y1="0.00" x2="316.80" y2="36.00"/>
    <line x1="316.80" y1="36.00" x2="302.40" y2="36.00"/>
    <line x1="302.40" y1="36.00" x2="302.40" y2="0.00"/>
    <line x1="302.40" y1="36.00" x2="303.51" y2="33.21"/>
    <line x1="303.51" y1="2.79" x2="315.69" y2="2.79"/>
    <line x1="315.69" y1="2.79" x2="315.69" y2="33.21"/>
    <line x1="315.69" y1="33.21" x2="303.51" y2="33.21"/>
    <line x1="303.51" y1="33.21" x2="303.51" y2="2.79"/>
    <line x1="303.51" y1="33.21" x2="304.63" y2="30.43"/>
    <line x1="304.63" y1="5.57" x2="314.57" y2="5.57"/>
    <line x1="314.57" y1="5.57" x2="314.57" y2="30.43"/>
    <line x1="314.57" y1="30.43" x2="304.63" y2="30.43"/>
    <line x1="304.63" y1="30.43" x2="304.63" y2="5.57"/>
    <line x1="304.63" y1="30.43" x2="305.74" y2="27.64"/>
    <line x1="305.74" y1="8.36" x2="313.46" y2="8.36"/>
    <line x1="313.46" y1="8.36" x2="313.46" y2="27.64"/>
    <line x1="313.46" y1="27.64" x2="305.74" y2="27.64"/>
    <line x1="305.74" y1="27.64" x2="305.74" y2="8.36"/>
    <line x1="305.74" y1="27.64" x2="306.86" y2="24.86"/>
    <line x1="306.86" y1="11.14" x2="312.34" y2="11.14"/>
    <line x1="312.34" y1="11.14" x2="312.34" y2="24.86"/>
    <line x1="312.34" y1="24.86" x2="306.86" y2="24.86"/>
    <line x1="306.86" y1="24.86" x2="306.86" y2="11.14"/>
    <line x1="306.86" y1="24.86" x2="307.97" y2="22.07"/>
    <line x1="307.97" y1="13.93" x2="311.23" y2="13.93"/>
    <line x1="311.23" y1="13.93" x2="311.23" y2="22.07"/>
    <line x1="311.23" y1="22.07" x2="307.97" y2="22.07"/>
    <line x1="307.97" y1="22.07" x2="307.97" y2="13.93"/>
  </g>
  <g stroke="#00F5D4" stroke-width="1" fill="none" stroke-linecap="round">
    <line x1="331.20" y1="31.73" x2="330.13" y2="31.69"/>
    <line x1="328.68" y1="34.31" x2="329.83" y2="36.00"/>
    <line x1="331.20" y1="30.39" x2="327.51" y2="30.23"/>
    <line x1="326.05" y1="32.86" x2="328.21" y2="36.00"/>
    <line x1="331.20" y1="18.31" x2="330.70" y2="18.28"/>
    <line x1="329.25" y1="20.91" x2="331.20" y2="23.76"/>
    <line x1="331.20" y1="29.05" x2="324.88" y2="28.78"/>
    <line x1="323.43" y1="31.40" x2="326.58" y2="36.00"/>
    <line x1="331.20" y1="16.96" x2="328.08" y2="16.83"/>
    <line x1="326.62" y1="19.45" x2="330.42" y2="24.99"/>
    <line x1="328.96" y1="27.61" x2="322.26" y2="27.33"/>
    <line x1="320.81" y1="29.95" x2="324.60" y2="35.48"/>
    <line x1="329.82" y1="7.50" x2="331.20" y2="9.52"/>
    <line x1="331.20" y1="15.62" x2="325.45" y2="15.38"/>
    <line x1="324.00" y1="18.00" x2="327.79" y2="23.53"/>
    <line x1="326.34" y1="26.16" x2="319.64" y2="25.87"/>
    <line x1="318.18" y1="28.50" x2="321.98" y2="34.03"/>
    <line x1="331.20" y1="3.53" x2="328.65" y2="3.43"/>
    <line x1="327.19" y1="6.05" x2="330.99" y2="11.58"/>
    <line x1="329.53" y1="14.21" x2="322.83" y2="13.92"/>
    <line x1="321.38" y1="16.55" x2="325.17" y2="22.08"/>
    <line x1="323.72" y1="24.70" x2="317.01" y2="24.42"/>
    <line x1="316.80" y1="28.85" x2="319.35" y2="32.57"/>
    <line x1="317.90" y1="35.20" x2="316.80" y2="35.15"/>
    <line x1="331.20" y1="2.19" x2="326.02" y2="1.97"/>
    <line x1="324.57" y1="4.60" x2="328.36" y2="10.13"/>
    <line x1="326.91" y1="12.75" x2="320.21" y2="12.47"/>
    <line x1="318.75" y1="15.09" x2="322.55" y2="20.62"/>
    <line x1="321.09" y1="23.25" x2="316.80" y2="23.07"/>
    <line x1="330.10" y1="0.80" x2="323.40" y2="0.52"/>
    <line x1="321.95" y1="3.14" x2="325.74" y2="8.67"/>
    <line x1="324.28" y1="11.30" x2="317.58" y2="11.01"/>
    <line x1="316.80" y1="14.62" x2="319.92" y2="19.17"/>
    <line x1="318.47" y1="21.79" x2="316.80" y2="21.72"/>
    <line x1="319.32" y1="1.69" x2="323.12" y2="7.22"/>
    <line x1="321.66" y1="9.84" x2="316.80" y2="9.64"/>
    <line x1="316.80" y1="16.99" x2="317.30" y2="17.72"/>
    <line x1="316.80" y1="0.38" x2="320.49" y2="5.77"/>
    <line x1="319.04" y1="8.39" x2="316.80" y2="8.29"/>
    <line x1="316.80" y1="2.75" x2="317.87" y2="4.31"/>
  </g>
  <g stroke="#073B4C" stroke-width="1" fill="none" stroke-linecap="round">
    <line x1="345.60" y1="24.32" x2="340.22" y2="20.55"/>
    <line x1="338.47" y1="36.00" x2="341.18" y2="32.13"/>
    <line x1="345.60" y1="1.15" x2="343.96" y2="0.00"/>
    <line x1="333.24" y1="25.37" x2="343.56" y2="10.63"/>
    <line x1="332.84" y1="36.00" x2="331.20" y2="34.85"/>
    <line x1="335.62" y1="3.87" x2="338.33" y2="0.00"/>
    <line x1="336.58" y1="15.45" x2="331.20" y2="11.68"/>
  </g>
  <g stroke="#F72585" stroke-width="1" fill="none" stroke-linecap="round">
    <line x1="360.00" y1="29.93" x2="359.88" y2="29.89"/>
    <line x1="349.21" y1="0.00" x2="345.83" y2="8.80"/>
    <line x1="360.00" y1="20.76" x2="345.60" y2="15.24"/>
    <line x1="359.77" y1="27.20" x2="356.39" y2="36.00"/>
    <line x1="345.72" y1="6.11" x2="345.60" y2="6.07"/>
  </g>
  <g stroke="#FF006E" stroke-width="1" fill="none" stroke-linecap="round">
    <line x1="374.40" y1="28.33" x2="369.97" y2="36.00"/>
    <line x1="374.40" y1="24.73" x2="367.89" y2="36.00"/>
    <line x1="374.40" y1="21.13" x2="365.81" y2="36.00"/>
    <line x1="374.40" y1="9.13" x2="360.00" y2="34.07"/>
    <line x1="374.40" y1="5.53" x2="360.00" y2="30.47"/>
    <line x1="374.40" y1="1.93" x2="360.00" y2="26.87"/>
    <line x1="368.59" y1="0.00" x2="360.00" y2="14.87"/>
    <line x1="366.51" y1="0.00" x2="360.00" y2="11.27"/>
    <line x1="364.43" y1="0.00" x2="360.00" y2="7.67"/>
  </g>
  <g stroke="#7209B7" stroke-width="1" fill="none" stroke-linecap="round">
    <line x1="388.80" y1="28.13" x2="387.27" y2="36.00"/>
    <line x1="388.80" y1="12.40" x2="384.21" y2="36.00"/>
    <line x1="388.15" y1="0.00" x2="381.16" y2="36.00"/>
    <line x1="385.10" y1="0.00" x2="378.10" y2="36.00"/>
    <line x1="382.04" y1="0.00" x2="375.05" y2="36.00"/>
    <line x1="378.99" y1="-0.00" x2="374.40" y2="23.60"/>
    <line x1="375.93" y1="0.00" x2="374.40" y2="7.87"/>
  </g>
  <g stroke="#EF476F" stroke-width="1" fill="none" stroke-linecap="round">
    <line x1="397.57" y1="0.07" x2="397.61" y2="0.00"/>
    <line x1="393.21" y1="0.00" x2="394.32" y2="2.80"/>
    <line x1="397.31" y1="3.06" x2="399.19" y2="0.00"/>
    <line x1="391.77" y1="0.00" x2="394.06" y2="5.78"/>
    <line x1="397.05" y1="6.05" x2="400.56" y2="0.33"/>
    <line x1="391.33" y1="2.53" x2="393.80" y2="8.77"/>
    <line x1="396.78" y1="9.03" x2="400.30" y2="3.32"/>
    <line x1="391.07" y1="5.52" x2="393.53" y2="11.76"/>
    <line x1="396.52" y1="12.02" x2="400.03" y2="6.31"/>
    <line x1="403.02" y1="6.57" x2="403.20" y2="7.02"/>
    <line x1="390.81" y1="8.51" x2="393.27" y2="14.75"/>
    <line x1="396.26" y1="15.01" x2="399.77" y2="9.30"/>
    <line x1="402.76" y1="9.56" x2="403.20" y2="10.67"/>
    <line x1="390.55" y1="11.50" x2="393.01" y2="17.74"/>
    <line x1="396.00" y1="18.00" x2="399.51" y2="12.28"/>
    <line x1="402.50" y1="12.55" x2="403.20" y2="14.32"/>
    <line x1="390.28" y1="14.49" x2="392.75" y2="20.73"/>
    <line x1="395.74" y1="20.99" x2="399.25" y2="15.27"/>
    <line x1="402.24" y1="15.53" x2="403.20" y2="17.97"/>
    <line x1="390.02" y1="17.48" x2="392.49" y2="23.72"/>
    <line x1="395.48" y1="23.98" x2="398.99" y2="18.26"/>
    <line x1="401.98" y1="18.52" x2="403.20" y2="21.62"/>
    <line x1="389.76" y1="20.47" x2="392.23" y2="26.70"/>
    <line x1="395.22" y1="26.97" x2="398.73" y2="21.25"/>
    <line x1="401.72" y1="21.51" x2="403.20" y2="25.27"/>
    <line x1="389.50" y1="23.45" x2="391.97" y2="29.69"/>
    <line x1="394.95" y1="29.95" x2="398.47" y2="24.24"/>
    <line x1="401.45" y1="24.50" x2="403.20" y2="28.92"/>
    <line x1="389.24" y1="26.44" x2="391.70" y2="32.68"/>
    <line x1="394.69" y1="32.94" x2="398.20" y2="27.23"/>
    <line x1="401.19" y1="27.49" x2="403.20" y2="32.57"/>
    <line x1="388.98" y1="29.43" x2="391.44" y2="35.67"/>
    <line x1="394.43" y1="35.93" x2="397.94" y2="30.22"/>
    <line x1="400.93" y1="30.48" x2="403.11" y2="36.00"/>
    <line x1="388.80" y1="32.63" x2="390.13" y2="36.00"/>
    <line x1="395.96" y1="36.00" x2="397.68" y2="33.20"/>
    <line x1="400.67" y1="33.47" x2="401.67" y2="36.00"/>
  </g>
  <g stroke="#06D6A0" stroke-width="1" fill="none" stroke-linecap="round">
    <line x1="417.41" y1="0.00" x2="417.60" y2="0.21"/>
    <line x1="409.20" y1="0.00" x2="417.60" y2="9.01"/>
    <line x1="406.74" y1="0.00" x2="417.60" y2="11.64"/>
    <line x1="404.28" y1="0.00" x2="417.60" y2="14.28"/>
    <line x1="403.20" y1="7.64" x2="417.60" y2="23.08"/>
    <line x1="403.20" y1="10.28" x2="417.60" y2="25.72"/>
    <line x1="403.20" y1="12.92" x2="417.60" y2="28.36"/>
    <line x1="403.20" y1="21.72" x2="416.52" y2="36.00"/>
    <line x1="403.20" y1="24.36" x2="414.06" y2="36.00"/>
    <line x1="403.20" y1="26.99" x2="411.60" y2="36.00"/>
    <line x1="403.20" y1="35.79" x2="403.39" y2="36.00"/>
  </g>
  <g stroke="#073B4C" stroke-width="1" fill="none" stroke-linecap="round">
    <line x1="430.95" y1="36.00" x2="428.96" y2="19.85"/>
    <line x1="419.39" y1="36.00" x2="422.82" y2="35.58"/>
    <line x1="417.60" y1="18.88" x2="432.00" y2="17.12"/>
    <line x1="426.78" y1="0.42" x2="430.21" y2="0.00"/>
    <line x1="420.64" y1="16.15" x2="418.65" y2="0.00"/>
  </g>
  <g stroke="#90BE6D" stroke-width="1" fill="none" stroke-linecap="round">
    <line x1="442.37" y1="-0.00" x2="446.40" y2="1.47"/>
    <line x1="433.60" y1="0.00" x2="446.40" y2="4.66"/>
    <line x1="432.00" y1="2.61" x2="446.40" y2="7.85"/>
    <line x1="432.00" y1="5.80" x2="446.40" y2="11.04"/>
    <line x1="432.00" y1="8.99" x2="446.40" y2="14.24"/>
    <line x1="432.00" y1="12.19" x2="446.40" y2="17.43"/>
    <line x1="432.00" y1="15.38" x2="446.40" y2="20.62"/>
    <line x1="432.00" y1="18.57" x2="446.40" y2="23.81"/>
    <line x1="432.00" y1="21.76" x2="446.40" y2="27.01"/>
    <line x1="432.00" y1="24.96" x2="446.40" y2="30.20"/>
    <line x1="432.00" y1="28.15" x2="446.40" y2="33.39"/>
    <line x1="432.00" y1="31.34" x2="444.80" y2="36.00"/>
    <line x1="432.00" y1="34.53" x2="436.03" y2="36.00"/>
  </g>
  <g stroke="#06D6A0" stroke-width="1" fill="none" stroke-linecap="round">
    <line x1="460.80" y1="35.08" x2="455.02" y2="36.00"/>
    <line x1="460.80" y1="32.05" x2="446.40" y2="34.33"/>
    <line x1="460.80" y1="29.01" x2="446.40" y2="31.29"/>
    <line x1="460.80" y1="25.97" x2="446.40" y2="28.25"/>
    <line x1="460.80" y1="22.93" x2="446.40" y2="25.22"/>
    <line x1="460.80" y1="19.90" x2="446.40" y2="22.18"/>
    <line x1="460.80" y1="16.86" x2="446.40" y2="19.14"/>
    <line x1="460.80" y1="13.82" x2="446.40" y2="16.10"/>
    <line x1="460.80" y1="10.78" x2="446.40" y2="13.07"/>
    <line x1="460.80" y1="7.75" x2="446.40" y2="10.03"/>
    <line x1="460.80" y1="4.71" x2="446.40" y2="6.99"/>
    <line x1="460.80" y1="1.67" x2="446.40" y2="3.95"/>
    <line x1="452.18" y1="0.00" x2="446.40" y2="0.92"/>
    <line x1="447.34" y1="36.00" x2="446.40" y2="30.07"/>
    <line x1="450.38" y1="36.00" x2="446.40" y2="10.90"/>
    <line x1="453.41" y1="36.00" x2="447.71" y2="0.00"/>
    <line x1="456.45" y1="36.00" x2="450.75" y2="-0.00"/>
    <line x1="459.49" y1="36.00" x2="453.79" y2="0.00"/>
    <line x1="460.80" y1="25.10" x2="456.82" y2="0.00"/>
    <line x1="460.80" y1="5.93" x2="459.86" y2="0.00"/>
  </g>
  <g stroke="#264653" stroke-width="1" fill="none" stroke-linecap="round">
    <line x1="472.82" y1="0.00" x2="475.20" y2="1.37"/>
    <line x1="466.82" y1="0.00" x2="475.20" y2="4.84"/>
    <line x1="460.82" y1="0.00" x2="475.20" y2="8.30"/>
    <line x1="460.80" y1="3.45" x2="475.20" y2="11.76"/>
    <line x1="460.80" y1="6.91" x2="475.20" y2="15.23"/>
    <line x1="460.80" y1="10.38" x2="475.20" y2="18.69"/>
    <line x1="460.80" y1="13.84" x2="475.20" y2="22.16"/>
    <line x1="460.80" y1="17.31" x2="475.20" y2="25.62"/>
    <line x1="460.80" y1="20.77" x2="475.20" y2="29.09"/>
    <line x1="460.80" y1="24.24" x2="475.20" y2="32.55"/>
    <line x1="460.80" y1="27.70" x2="475.18" y2="36.00"/>
    <line x1="460.80" y1="31.16" x2="469.18" y2="36.00"/>
    <line x1="460.80" y1="34.63" x2="463.18" y2="36.00"/>
  </g>
  <g stroke="#FF595E" stroke-width="1" fill="none" stroke-linecap="round">
    <line x1="489.60" y1="34.50" x2="486.39" y2="36.00"/>
    <line x1="489.60" y1="31.19" x2="479.29" y2="36.00"/>
    <line x1="489.60" y1="27.88" x2="475.20" y2="34.60"/>
    <line x1="489.60" y1="24.57" x2="475.20" y2="31.29"/>
    <line x1="489.60" y1="21.26" x2="475.20" y2="27.98"/>
    <line x1="489.60" y1="17.95" x2="475.20" y2="24.67"/>
    <line x1="489.60" y1="14.64" x2="475.20" y2="21.36"/>
    <line x1="489.60" y1="11.33" x2="475.20" y2="18.05"/>
    <line x1="489.60" y1="8.02" x2="475.20" y2="14.74"/>
    <line x1="489.60" y1="4.71" x2="475.20" y2="11.43"/>
    <line x1="489.60" y1="1.40" x2="475.20" y2="8.12"/>
    <line x1="485.51" y1="0.00" x2="475.20" y2="4.81"/>
    <line x1="478.41" y1="0.00" x2="475.20" y2="1.50"/>
  </g>
  <g stroke="#264653" stroke-width="1" fill="none" stroke-linecap="round">
    <line x1="504.00" y1="29.63" x2="489.60" y2="34.87"/>
    <line x1="504.00" y1="23.24" x2="489.60" y2="28.48"/>
    <line x1="504.00" y1="16.85" x2="489.60" y2="22.10"/>
    <line x1="504.00" y1="10.47" x2="489.60" y2="15.71"/>
    <line x1="504.00" y1="4.08" x2="489.60" y2="9.33"/>
    <line x1="497.68" y1="0.00" x2="489.60" y2="2.94"/>
    <line x1="504.00" y1="16.18" x2="498.11" y2="0.00"/>
    <line x1="504.00" y1="33.73" x2="491.72" y2="-0.00"/>
    <line x1="498.44" y1="36.00" x2="489.60" y2="11.71"/>
    <line x1="492.06" y1="36.00" x2="489.60" y2="29.25"/>
  </g>
  <g stroke="#9EF01A" stroke-width="1" fill="none" stroke-linecap="round">
    <line x1="518.40" y1="35.25" x2="512.30" y2="36.00"/>
    <line x1="518.40" y1="32.23" x2="504.00" y2="34.00"/>
    <line x1="518.40" y1="29.21" x2="504.00" y2="30.97"/>
    <line x1="518.40" y1="26.18" x2="504.00" y2="27.95"/>
    <line x1="518.40" y1="23.16" x2="504.00" y2="24.93"/>
    <line x1="518.40" y1="20.14" x2="504.00" y2="21.91"/>
    <line x1="518.40" y1="17.12" x2="504.00" y2="18.88"/>
    <line x1="518.40" y1="14.09" x2="504.00" y2="15.86"/>
    <line x1="518.40" y1="11.07" x2="504.00" y2="12.84"/>
    <line x1="518.40" y1="8.05" x2="504.00" y2="9.82"/>
    <line x1="518.40" y1="5.03" x2="504.00" y2="6.79"/>
    <line x1="518.40" y1="2.00" x2="504.00" y2="3.77"/>
    <line x1="510.10" y1="0.00" x2="504.00" y2="0.75"/>
  </g>
  <g stroke="#9B5DE5" stroke-width="1" fill="none" stroke-linecap="round">
    <line x1="530.08" y1="0.00" x2="532.80" y2="3.24"/>
    <line x1="526.16" y1="0.00" x2="532.80" y2="7.91"/>
    <line x1="522.24" y1="0.00" x2="532.80" y2="12.58"/>
    <line x1="518.40" y1="0.09" x2="532.80" y2="17.25"/>
    <line x1="518.40" y1="4.75" x2="532.80" y2="21.91"/>
    <line x1="518.40" y1="9.42" x2="532.80" y2="26.58"/>
    <line x1="518.40" y1="14.09" x2="532.80" y2="31.25"/>
    <line x1="518.40" y1="18.75" x2="532.80" y2="35.91"/>
    <line x1="518.40" y1="23.42" x2="528.96" y2="36.00"/>
    <line x1="518.40" y1="28.09" x2="525.04" y2="36.00"/>
    <line x1="518.40" y1="32.76" x2="521.12" y2="36.00"/>
  </g>
  <g stroke="#F15BB5" stroke-width="1" fill="none" stroke-linecap="round">
    <line x1="539.01" y1="0.00" x2="547.20" y2="1.74"/>
    <line x1="532.80" y1="4.81" x2="547.20" y2="7.88"/>
    <line x1="532.80" y1="6.66" x2="547.20" y2="9.72"/>
    <line x1="532.80" y1="8.50" x2="547.20" y2="11.56"/>
    <line x1="532.80" y1="14.63" x2="547.20" y2="17.69"/>
    <line x1="532.80" y1="16.47" x2="547.20" y2="19.53"/>
    <line x1="532.80" y1="18.31" x2="547.20" y2="21.37"/>
    <line x1="532.80" y1="24.44" x2="547.20" y2="27.50"/>
    <line x1="532.80" y1="26.28" x2="547.20" y2="29.34"/>
    <line x1="532.80" y1="28.12" x2="547.20" y2="31.19"/>
    <line x1="532.80" y1="34.26" x2="540.99" y2="36.00"/>
  </g>
  <g stroke="#FF595E" stroke-width="1" fill="none" stroke-linecap="round">
    <line x1="561.60" y1="33.37" x2="559.62" y2="36.00"/>
    <line x1="561.60" y1="28.38" x2="555.86" y2="36.00"/>
    <line x1="561.60" y1="23.40" x2="552.11" y2="36.00"/>
    <line x1="561.60" y1="18.42" x2="548.35" y2="36.00"/>
    <line x1="561.60" y1="13.43" x2="547.20" y2="32.54"/>
    <line x1="561.60" y1="8.45" x2="547.20" y2="27.55"/>
    <line x1="561.60" y1="3.46" x2="547.20" y2="22.57"/>
    <line x1="560.45" y1="0.00" x2="547.20" y2="17.58"/>
    <line x1="556.69" y1="0.00" x2="547.20" y2="12.60"/>
    <line x1="552.94" y1="0.00" x2="547.20" y2="7.62"/>
    <line x1="549.18" y1="0.00" x2="547.20" y2="2.63"/>
    <line x1="548.38" y1="36.00" x2="547.20" y2="35.11"/>
    <line x1="553.36" y1="36.00" x2="547.20" y2="31.36"/>
    <line x1="558.35" y1="36.00" x2="547.20" y2="27.60"/>
    <line x1="561.60" y1="34.69" x2="547.20" y2="23.84"/>
    <line x1="561.60" y1="30.94" x2="547.20" y2="20.09"/>
    <line x1="561.60" y1="27.18" x2="547.20" y2="16.33"/>
    <line x1="561.60" y1="23.43" x2="547.20" y2="12.57"/>
    <line x1="561.60" y1="19.67" x2="547.20" y2="8.82"/>
    <line x1="561.60" y1="15.91" x2="547.20" y2="5.06"/>
    <line x1="561.60" y1="12.16" x2="547.20" y2="1.31"/>
    <line x1="561.60" y1="8.40" x2="550.45" y2="0.00"/>
    <line x1="561.60" y1="4.64" x2="555.44" y2="0.00"/>
    <line x1="561.60" y1="0.89" x2="560.42" y2="0.00"/>
  </g>
  <g stroke="#9B5DE5" stroke-width="1" fill="none" stroke-linecap="round">
    <line x1="575.06" y1="-0.00" x2="576.00" y2="5.93"/>
    <line x1="572.02" y1="0.00" x2="576.00" y2="25.10"/>
    <line x1="568.99" y1="0.00" x2="574.69" y2="36.00"/>
    <line x1="565.95" y1="0.00" x2="571.65" y2="36.00"/>
    <line x1="562.91" y1="0.00" x2="568.61" y2="36.00"/>
    <line x1="561.60" y1="10.90" x2="565.58" y2="36.00"/>
    <line x1="561.60" y1="30.07" x2="562.54" y2="36.00"/>
    <line x1="576.00" y1="35.08" x2="570.22" y2="36.00"/>
    <line x1="576.00" y1="32.05" x2="561.60" y2="34.33"/>
    <line x1="576.00" y1="29.01" x2="561.60" y2="31.29"/>
    <line x1="576.00" y1="25.97" x2="561.60" y2="28.25"/>
    <line x1="576.00" y1="22.93" x2="561.60" y2="25.22"/>
    <line x1="576.00" y1="19.90" x2="561.60" y2="22.18"/>
    <line x1="576.00" y1="16.86" x2="561.60" y2="19.14"/>
    <line x1="576.00" y1="13.82" x2="561.60" y2="16.10"/>
    <line x1="576.00" y1="10.78" x2="561.60" y2="13.07"/>
    <line x1="576.00" y1="7.75" x2="561.60" y2="10.03"/>
    <line x1="576.00" y1="4.71" x2="561.60" y2="6.99"/>
    <line x1="576.00" y1="1.67" x2="561.60" y2="3.95"/>
    <line x1="567.38" y1="0.00" x2="561.60" y2="0.92"/>
  </g>
  <g stroke="#00F5D4" stroke-width="1" fill="none" stroke-linecap="round">
    <line x1="587.18" y1="0.00" x2="590.40" y2="3.58"/>
    <line x1="583.14" y1="0.00" x2="590.40" y2="8.06"/>
    <line x1="579.10" y1="0.00" x2="590.40" y2="12.55"/>
    <line x1="576.00" y1="1.04" x2="590.40" y2="17.03"/>
    <line x1="576.00" y1="5.52" x2="590.40" y2="21.51"/>
    <line x1="576.00" y1="10.00" x2="590.40" y2="26.00"/>
    <line x1="576.00" y1="14.49" x2="590.40" y2="30.48"/>
    <line x1="576.00" y1="18.97" x2="590.40" y2="34.96"/>
    <line x1="576.00" y1="23.45" x2="587.30" y2="36.00"/>
    <line x1="576.00" y1="27.94" x2="583.26" y2="36.00"/>
    <line x1="576.00" y1="32.42" x2="579.22" y2="36.00"/>
  </g>
  <g stroke="#4361EE" stroke-width="1" fill="none" stroke-linecap="round">
    <line x1="602.00" y1="36.00" x2="601.85" y2="35.75"/>
    <line x1="598.86" y1="35.96" x2="598.84" y2="36.00"/>
    <line x1="603.56" y1="36.00" x2="601.64" y2="32.75"/>
    <line x1="598.65" y1="32.96" x2="597.38" y2="36.00"/>
    <line x1="591.09" y1="36.00" x2="590.40" y2="34.83"/>
    <line x1="604.80" y1="35.47" x2="601.43" y2="29.76"/>
    <line x1="598.44" y1="29.97" x2="595.93" y2="36.00"/>
    <line x1="592.65" y1="36.00" x2="590.40" y2="32.19"/>
    <line x1="604.63" y1="32.54" x2="601.22" y2="26.77"/>
    <line x1="598.23" y1="26.98" x2="595.65" y2="33.17"/>
    <line x1="592.66" y1="33.38" x2="590.40" y2="29.55"/>
    <line x1="604.42" y1="29.55" x2="601.01" y2="23.78"/>
    <line x1="598.02" y1="23.99" x2="595.44" y2="30.18"/>
    <line x1="592.45" y1="30.39" x2="590.40" y2="26.92"/>
    <line x1="604.21" y1="26.56" x2="600.80" y2="20.78"/>
    <line x1="597.81" y1="20.99" x2="595.24" y2="27.19"/>
    <line x1="592.24" y1="27.40" x2="590.40" y2="24.28"/>
    <line x1="604.00" y1="23.57" x2="600.59" y2="17.79"/>
    <line x1="597.60" y1="18.00" x2="595.03" y2="24.19"/>
    <line x1="592.03" y1="24.40" x2="590.40" y2="21.64"/>
    <line x1="603.79" y1="20.57" x2="600.38" y2="14.80"/>
    <line x1="597.39" y1="15.01" x2="594.82" y2="21.20"/>
    <line x1="591.82" y1="21.41" x2="590.40" y2="19.00"/>
    <line x1="603.59" y1="17.58" x2="600.17" y2="11.81"/>
    <line x1="597.18" y1="12.01" x2="594.61" y2="18.21"/>
    <line x1="591.61" y1="18.42" x2="590.40" y2="16.36"/>
    <line x1="603.38" y1="14.59" x2="599.96" y2="8.81"/>
    <line x1="596.97" y1="9.02" x2="594.40" y2="15.22"/>
    <line x1="591.41" y1="15.43" x2="590.40" y2="13.72"/>
    <line x1="603.17" y1="11.60" x2="599.76" y2="5.82"/>
    <line x1="596.76" y1="6.03" x2="594.19" y2="12.22"/>
    <line x1="591.20" y1="12.43" x2="590.40" y2="11.09"/>
    <line x1="602.96" y1="8.60" x2="599.55" y2="2.83"/>
    <line x1="596.55" y1="3.04" x2="593.98" y2="9.23"/>
    <line x1="590.99" y1="9.44" x2="590.40" y2="8.45"/>
    <line x1="602.75" y1="5.61" x2="599.43" y2="-0.00"/>
    <line x1="596.34" y1="0.04" x2="593.77" y2="6.24"/>
    <line x1="590.78" y1="6.45" x2="590.40" y2="5.81"/>
    <line x1="602.54" y1="2.62" x2="600.99" y2="0.00"/>
    <line x1="594.91" y1="0.00" x2="593.56" y2="3.25"/>
    <line x1="590.57" y1="3.46" x2="590.40" y2="3.17"/>
    <line x1="593.46" y1="0.00" x2="593.35" y2="0.25"/>
  </g>
  <g stroke="#118AB2" stroke-width="1" fill="none" stroke-linecap="round">
    <line x1="615.09" y1="36.00" x2="617.00" y2="20.41"/>
    <line x1="604.80" y1="35.93" x2="605.35" y2="36.00"/>
    <line x1="604.80" y1="17.12" x2="619.20" y2="18.88"/>
    <line x1="618.65" y1="-0.00" x2="619.20" y2="0.07"/>
    <line x1="607.00" y1="15.59" x2="608.91" y2="0.00"/>
  </g>
  <g stroke="#90BE6D" stroke-width="1" fill="none" stroke-linecap="round">
    <line x1="626.88" y1="36.00" x2="626.11" y2="35.49"/>
    <line x1="632.40" y1="28.39" x2="632.80" y2="35.09"/>
    <line x1="629.31" y1="36.00" x2="624.61" y2="32.89"/>
    <line x1="622.01" y1="34.39" x2="622.10" y2="36.00"/>
    <line x1="633.60" y1="24.36" x2="633.50" y2="24.29"/>
    <line x1="630.90" y1="25.79" x2="631.30" y2="32.49"/>
    <line x1="628.70" y1="33.99" x2="623.11" y2="30.29"/>
    <line x1="620.51" y1="31.79" x2="620.76" y2="36.00"/>
    <line x1="633.60" y1="22.75" x2="632.00" y2="21.70"/>
    <line x1="629.40" y1="23.20" x2="629.80" y2="29.89"/>
    <line x1="627.20" y1="31.39" x2="621.61" y2="27.70"/>
    <line x1="619.20" y1="32.40" x2="619.41" y2="35.89"/>
    <line x1="633.60" y1="21.15" x2="630.50" y2="19.10"/>
    <line x1="627.90" y1="20.60" x2="628.30" y2="27.29"/>
    <line x1="625.70" y1="28.79" x2="620.11" y2="25.10"/>
    <line x1="633.60" y1="19.54" x2="629.00" y2="16.50"/>
    <line x1="626.40" y1="18.00" x2="626.80" y2="24.70"/>
    <line x1="624.20" y1="26.20" x2="619.20" y2="22.89"/>
    <line x1="633.10" y1="17.60" x2="627.50" y2="13.90"/>
    <line x1="624.90" y1="15.40" x2="625.30" y2="22.10"/>
    <line x1="622.70" y1="23.60" x2="619.20" y2="21.28"/>
    <line x1="631.60" y1="15.00" x2="626.00" y2="11.30"/>
    <line x1="623.40" y1="12.80" x2="623.80" y2="19.50"/>
    <line x1="621.20" y1="21.00" x2="619.20" y2="19.68"/>
    <line x1="632.29" y1="4.21" x2="632.69" y2="10.90"/>
    <line x1="630.10" y1="12.40" x2="624.50" y2="8.71"/>
    <line x1="621.90" y1="10.21" x2="622.30" y2="16.90"/>
    <line x1="619.70" y1="18.40" x2="619.20" y2="18.07"/>
    <line x1="633.60" y1="0.25" x2="633.39" y2="0.11"/>
    <line x1="630.79" y1="1.61" x2="631.19" y2="8.30"/>
    <line x1="628.60" y1="9.80" x2="623.00" y2="6.11"/>
    <line x1="620.40" y1="7.61" x2="620.80" y2="14.30"/>
    <line x1="629.35" y1="0.00" x2="629.69" y2="5.71"/>
    <line x1="627.10" y1="7.21" x2="621.50" y2="3.51"/>
    <line x1="619.20" y1="10.01" x2="619.30" y2="11.71"/>
    <line x1="628.01" y1="0.00" x2="628.19" y2="3.11"/>
    <line x1="625.60" y1="4.61" x2="620.00" y2="0.91"/>
    <line x1="626.66" y1="0.00" x2="626.69" y2="0.51"/>
    <line x1="624.10" y1="2.01" x2="621.05" y2="0.00"/>
  </g>
  <g stroke="#F72585" stroke-width="1" fill="none" stroke-linecap="round">
    <line x1="633.60" y1="0.00" x2="648.00" y2="0.00"/>
    <line x1="648.00" y1="0.00" x2="648.00" y2="36.00"/>
    <line x1="648.00" y1="36.00" x2="633.60" y2="36.00"/>
    <line x1="633.60" y1="36.00" x2="633.60" y2="0.00"/>
    <line x1="633.60" y1="36.00" x2="634.71" y2="33.21"/>
    <line x1="634.71" y1="2.79" x2="646.89" y2="2.79"/>
    <line x1="646.89" y1="2.79" x2="646.89" y2="33.21"/>
    <line x1="646.89" y1="33.21" x2="634.71" y2="33.21"/>
    <line x1="634.71" y1="33.21" x2="634.71" y2="2.79"/>
    <line x1="634.71" y1="33.21" x2="635.83" y2="30.43"/>
    <line x1="635.83" y1="5.57" x2="645.77" y2="5.57"/>
    <line x1="645.77" y1="5.57" x2="645.77" y2="30.43"/>
    <line x1="645.77" y1="30.43" x2="635.83" y2="30.43"/>
    <line x1="635.83" y1="30.43" x2="635.83" y2="5.57"/>
    <line x1="635.83" y1="30.43" x2="636.94" y2="27.64"/>
    <line x1="636.94" y1="8.36" x2="644.66" y2="8.36"/>
    <line x1="644.66" y1="8.36" x2="644.66" y2="27.64"/>
    <line x1="644.66" y1="27.64" x2="636.94" y2="27.64"/>
    <line x1="636.94" y1="27.64" x2="636.94" y2="8.36"/>
    <line x1="636.94" y1="27.64" x2="638.06" y2="24.86"/>
    <line x1="638.06" y1="11.14" x2="643.54" y2="11.14"/>
    <line x1="643.54" y1="11.14" x2="643.54" y2="24.86"/>
    <line x1="643.54" y1="24.86" x2="638.06" y2="24.86"/>
    <line x1="638.06" y1="24.86" x2="638.06" y2="11.14"/>
    <line x1="638.06" y1="24.86" x2="639.17" y2="22.07"/>
    <line x1="639.17" y1="13.93" x2="642.43" y2="13.93"/>
    <line x1="642.43" y1="13.93" x2="642.43" y2="22.07"/>
    <line x1="642.43" y1="22.07" x2="639.17" y2="22.07"/>
    <line x1="639.17" y1="22.07" x2="639.17" y2="13.93"/>
  </g>
  <g stroke="#00F5D4" stroke-width="1" fill="none" stroke-linecap="round">
    <line x1="662.40" y1="34.71" x2="657.57" y2="36.00"/>
    <line x1="662.40" y1="31.60" x2="648.00" y2="35.46"/>
    <line x1="662.40" y1="28.49" x2="648.00" y2="32.35"/>
    <line x1="662.40" y1="25.39" x2="648.00" y2="29.25"/>
    <line x1="662.40" y1="22.28" x2="648.00" y2="26.14"/>
    <line x1="662.40" y1="19.18" x2="648.00" y2="23.04"/>
    <line x1="662.40" y1="16.07" x2="648.00" y2="19.93"/>
    <line x1="662.40" y1="12.96" x2="648.00" y2="16.82"/>
    <line x1="662.40" y1="9.86" x2="648.00" y2="13.72"/>
    <line x1="662.40" y1="6.75" x2="648.00" y2="10.61"/>
    <line x1="662.40" y1="3.65" x2="648.00" y2="7.51"/>
    <line x1="662.40" y1="0.54" x2="648.00" y2="4.40"/>
    <line x1="652.83" y1="0.00" x2="648.00" y2="1.29"/>
  </g>
  <g stroke="#90BE6D" stroke-width="1" fill="none" stroke-linecap="round">
    <line x1="671.35" y1="3.23" x2="676.80" y2="8.31"/>
    <line x1="662.40" y1="10.86" x2="663.23" y2="11.63"/>
    <line x1="675.74" y1="11.42" x2="663.46" y2="24.58"/>
    <line x1="675.97" y1="24.37" x2="676.80" y2="25.14"/>
    <line x1="662.40" y1="27.69" x2="667.85" y2="32.77"/>
  </g>
  <g stroke="#6A4C93" stroke-width="1" fill="none" stroke-linecap="round">
    <line x1="691.20" y1="23.78" x2="685.69" y2="20.97"/>
    <line x1="684.97" y1="36.00" x2="687.21" y2="31.60"/>
    <line x1="691.20" y1="1.72" x2="687.83" y2="0.00"/>
    <line x1="679.91" y1="26.02" x2="688.09" y2="9.98"/>
    <line x1="680.17" y1="36.00" x2="676.80" y2="34.28"/>
    <line x1="680.79" y1="4.40" x2="683.03" y2="0.00"/>
    <line x1="682.31" y1="15.03" x2="676.80" y2="12.22"/>
  </g>
  <g stroke="#7209B7" stroke-width="1" fill="none" stroke-linecap="round">
    <line x1="705.60" y1="32.14" x2="701.87" y2="36.00"/>
    <line x1="705.60" y1="27.82" x2="697.70" y2="36.00"/>
    <line x1="705.60" y1="23.50" x2="693.53" y2="36.00"/>
    <line x1="705.60" y1="19.18" x2="691.20" y2="34.09"/>
    <line x1="705.60" y1="14.86" x2="691.20" y2="29.77"/>
    <line x1="705.60" y1="10.54" x2="691.20" y2="25.46"/>
    <line x1="705.60" y1="6.23" x2="691.20" y2="21.14"/>
    <line x1="705.60" y1="1.91" x2="691.20" y2="16.82"/>
    <line x1="703.27" y1="0.00" x2="691.20" y2="12.50"/>
    <line x1="699.10" y1="0.00" x2="691.20" y2="8.18"/>
    <line x1="694.93" y1="0.00" x2="691.20" y2="3.86"/>
    <line x1="695.45" y1="36.00" x2="691.20" y2="31.90"/>
    <line x1="699.76" y1="36.00" x2="691.20" y2="27.73"/>
    <line x1="704.08" y1="36.00" x2="691.20" y2="23.56"/>
    <line x1="705.60" y1="33.29" x2="691.20" y2="19.39"/>
    <line x1="705.60" y1="29.12" x2="691.20" y2="15.22"/>
    <line x1="705.60" y1="24.95" x2="691.20" y2="11.05"/>
    <line x1="705.60" y1="20.78" x2="691.20" y2="6.88"/>
    <line x1="705.60" y1="16.61" x2="691.20" y2="2.71"/>
    <line x1="705.60" y1="12.44" x2="692.72" y2="-0.00"/>
    <line x1="705.60" y1="8.27" x2="697.04" y2="-0.00"/>
    <line x1="705.60" y1="4.10" x2="701.35" y2="-0.00"/>
  </g>
  <g stroke="#FF006E" stroke-width="1" fill="none" stroke-linecap="round">
    <line x1="720.00" y1="26.32" x2="717.59" y2="36.00"/>
    <line x1="720.00" y1="13.92" x2="714.50" y2="36.00"/>
    <line x1="720.00" y1="1.52" x2="711.40" y2="36.00"/>
    <line x1="717.29" y1="0.00" x2="708.31" y2="36.00"/>
    <line x1="714.20" y1="0.00" x2="705.60" y2="34.48"/>
    <line x1="711.10" y1="0.00" x2="705.60" y2="22.08"/>
    <line x1="708.01" y1="0.00" x2="705.60" y2="9.68"/>
  </g>
  <g stroke="#00BBF9" stroke-width="1" fill="none" stroke-linecap="round">
    <line x1="720.00" y1="0.00" x2="734.40" y2="0.00"/>
    <line x1="734.40" y1="0.00" x2="734.40" y2="36.00"/>
    <line x1="734.40" y1="36.00" x2="720.00" y2="36.00"/>
    <line x1="720.00" y1="36.00" x2="720.00" y2="0.00"/>
    <line x1="720.00" y1="36.00" x2="721.11" y2="33.21"/>
    <line x1="721.11" y1="2.79" x2="733.29" y2="2.79"/>
    <line x1="733.29" y1="2.79" x2="733.29" y2="33.21"/>
    <line x1="733.29" y1="33.21" x2="721.11" y2="33.21"/>
    <line x1="721.11" y1="33.21" x2="721.11" y2="2.79"/>
    <line x1="721.11" y1="33.21" x2="722.23" y2="30.43"/>
    <line x1="722.23" y1="5.57" x2="732.17" y2="5.57"/>
    <line x1="732.17" y1="5.57" x2="732.17" y2="30.43"/>
    <line x1="732.17" y1="30.43" x2="722.23" y2="30.43"/>
    <line x1="722.23" y1="30.43" x2="722.23" y2="5.57"/>
    <line x1="722.23" y1="30.43" x2="723.34" y2="27.64"/>
    <line x1="723.34" y1="8.36" x2="731.06" y2="8.36"/>
    <line x1="731.06" y1="8.36" x2="731.06" y2="27.64"/>
    <line x1="731.06" y1="27.64" x2="723.34" y2="27.64"/>
    <line x1="723.34" y1="27.64" x2="723.34" y2="8.36"/>
    <line x1="723.34" y1="27.64" x2="724.46" y2="24.86"/>
    <line x1="724.46" y1="11.14" x2="729.94" y2="11.14"/>
    <line x1="729.94" y1="11.14" x2="729.94" y2="24.86"/>
    <line x1="729.94" y1="24.86" x2="724.46" y2="24.86"/>
    <line x1="724.46" y1="24.86" x2="724.46" y2="11.14"/>
    <line x1="724.46" y1="24.86" x2="725.57" y2="22.07"/>
    <line x1="725.57" y1="13.93" x2="728.83" y2="13.93"/>
    <line x1="728.83" y1="13.93" x2="728.83" y2="22.07"/>
    <line x1="728.83" y1="22.07" x2="725.57" y2="22.07"/>
    <line x1="725.57" y1="22.07" x2="725.57" y2="13.93"/>
  </g>
  <g stroke="#8338EC" stroke-width="1" fill="none" stroke-linecap="round">
    <line x1="748.80" y1="27.48" x2="742.61" y2="36.00"/>
    <line x1="748.80" y1="24.42" x2="740.39" y2="36.00"/>
    <line x1="748.80" y1="21.36" x2="738.16" y2="36.00"/>
    <line x1="748.80" y1="11.15" x2="734.40" y2="30.97"/>
    <line x1="748.80" y1="8.09" x2="734.40" y2="27.91"/>
    <line x1="748.80" y1="5.03" x2="734.40" y2="24.85"/>
    <line x1="745.04" y1="0.00" x2="734.40" y2="14.64"/>
    <line x1="742.81" y1="0.00" x2="734.40" y2="11.58"/>
    <line x1="740.59" y1="0.00" x2="734.40" y2="8.52"/>
  </g>
  <g stroke="#EF476F" stroke-width="1" fill="none" stroke-linecap="round">
    <line x1="748.80" y1="0.00" x2="763.20" y2="0.00"/>
    <line x1="763.20" y1="0.00" x2="763.20" y2="36.00"/>
    <line x1="763.20" y1="36.00" x2="748.80" y2="36.00"/>
    <line x1="748.80" y1="36.00" x2="748.80" y2="0.00"/>
    <line x1="748.80" y1="36.00" x2="749.91" y2="33.21"/>
    <line x1="749.91" y1="2.79" x2="762.09" y2="2.79"/>
    <line x1="762.09" y1="2.79" x2="762.09" y2="33.21"/>
    <line x1="762.09" y1="33.21" x2="749.91" y2="33.21"/>
    <line x1="749.91" y1="33.21" x2="749.91" y2="2.79"/>
    <line x1="749.91" y1="33.21" x2="751.03" y2="30.43"/>
    <line x1="751.03" y1="5.57" x2="760.97" y2="5.57"/>
    <line x1="760.97" y1="5.57" x2="760.97" y2="30.43"/>
    <line x1="760.97" y1="30.43" x2="751.03" y2="30.43"/>
    <line x1="751.03" y1="30.43" x2="751.03" y2="5.57"/>
    <line x1="751.03" y1="30.43" x2="752.14" y2="27.64"/>
    <line x1="752.14" y1="8.36" x2="759.86" y2="8.36"/>
    <line x1="759.86" y1="8.36" x2="759.86" y2="27.64"/>
    <line x1="759.86" y1="27.64" x2="752.14" y2="27.64"/>
    <line x1="752.14" y1="27.64" x2="752.14" y2="8.36"/>
    <line x1="752.14" y1="27.64" x2="753.26" y2="24.86"/>
    <line x1="753.26" y1="11.14" x2="758.74" y2="11.14"/>
    <line x1="758.74" y1="11.14" x2="758.74" y2="24.86"/>
    <line x1="758.74" y1="24.86" x2="753.26" y2="24.86"/>
    <line x1="753.26" y1="24.86" x2="753.26" y2="11.14"/>
    <line x1="753.26" y1="24.86" x2="754.37" y2="22.07"/>
    <line x1="754.37" y1="13.93" x2="757.63" y2="13.93"/>
    <line x1="757.63" y1="13.93" x2="757.63" y2="22.07"/>
    <line x1="757.63" y1="22.07" x2="754.37" y2="22.07"/>
    <line x1="754.37" y1="22.07" x2="754.37" y2="13.93"/>
  </g>
  <g stroke="#FB5607" stroke-width="1" fill="none" stroke-linecap="round">
    <line x1="776.49" y1="0.00" x2="777.32" y2="1.03"/>
    <line x1="764.03" y1="11.68" x2="777.60" y2="0.69"/>
    <line x1="764.74" y1="11.01" x2="776.06" y2="24.99"/>
    <line x1="763.20" y1="35.31" x2="776.77" y2="24.32"/>
    <line x1="763.48" y1="34.97" x2="764.31" y2="36.00"/>
  </g>
  <g stroke="#073B4C" stroke-width="1" fill="none" stroke-linecap="round">
    <line x1="792.00" y1="34.66" x2="787.33" y2="36.00"/>
    <line x1="792.00" y1="31.54" x2="777.60" y2="35.67"/>
    <line x1="792.00" y1="28.42" x2="777.60" y2="32.55"/>
    <line x1="792.00" y1="25.30" x2="777.60" y2="29.43"/>
    <line x1="792.00" y1="22.18" x2="777.60" y2="26.31"/>
    <line x1="792.00" y1="19.06" x2="777.60" y2="23.19"/>
    <line x1="792.00" y1="15.94" x2="777.60" y2="20.06"/>
    <line x1="792.00" y1="12.81" x2="777.60" y2="16.94"/>
    <line x1="792.00" y1="9.69" x2="777.60" y2="13.82"/>
    <line x1="792.00" y1="6.57" x2="777.60" y2="10.70"/>
    <line x1="792.00" y1="3.45" x2="777.60" y2="7.58"/>
    <line x1="792.00" y1="0.33" x2="777.60" y2="4.46"/>
    <line x1="782.27" y1="0.00" x2="777.60" y2="1.34"/>
  </g>
  <g stroke="#073B4C" stroke-width="1" fill="none" stroke-linecap="round">
    <line x1="806.40" y1="30.02" x2="803.22" y2="36.00"/>
    <line x1="806.40" y1="23.63" x2="799.82" y2="36.00"/>
    <line x1="806.40" y1="17.24" x2="796.42" y2="36.00"/>
    <line x1="806.40" y1="10.85" x2="793.03" y2="36.00"/>
    <line x1="806.40" y1="4.46" x2="792.00" y2="31.54"/>
    <line x1="805.37" y1="0.00" x2="792.00" y2="25.15"/>
    <line x1="801.98" y1="0.00" x2="792.00" y2="18.76"/>
    <line x1="798.58" y1="0.00" x2="792.00" y2="12.37"/>
    <line x1="795.18" y1="0.00" x2="792.00" y2="5.98"/>
  </g>
  <g stroke="#FFD166" stroke-width="1" fill="none" stroke-linecap="round">
    <line x1="820.80" y1="28.80" x2="819.01" y2="36.00"/>
    <line x1="820.80" y1="21.36" x2="817.15" y2="36.00"/>
    <line x1="819.94" y1="0.00" x2="810.97" y2="36.00"/>
    <line x1="818.09" y1="0.00" x2="809.11" y2="36.00"/>
    <line x1="816.23" y1="0.00" x2="807.26" y2="36.00"/>
    <line x1="810.05" y1="0.00" x2="806.40" y2="14.64"/>
    <line x1="808.19" y1="0.00" x2="806.40" y2="7.20"/>
  </g>
  <g stroke="#118AB2" stroke-width="1" fill="none" stroke-linecap="round">
    <line x1="835.20" y1="35.79" x2="835.01" y2="36.00"/>
    <line x1="835.20" y1="26.99" x2="826.80" y2="36.00"/>
    <line x1="835.20" y1="24.36" x2="824.34" y2="36.00"/>
    <line x1="835.20" y1="21.72" x2="821.88" y2="36.00"/>
    <line x1="835.20" y1="12.92" x2="820.80" y2="28.36"/>
    <line x1="835.20" y1="10.28" x2="820.80" y2="25.72"/>
    <line x1="835.20" y1="7.64" x2="820.80" y2="23.08"/>
    <line x1="834.12" y1="0.00" x2="820.80" y2="14.28"/>
    <line x1="831.66" y1="0.00" x2="820.80" y2="11.64"/>
    <line x1="829.20" y1="0.00" x2="820.80" y2="9.01"/>
    <line x1="820.99" y1="0.00" x2="820.80" y2="0.21"/>
  </g>
  <g stroke="#00BBF9" stroke-width="1" fill="none" stroke-linecap="round">
    <line x1="846.06" y1="0.00" x2="849.60" y2="1.50"/>
    <line x1="838.38" y1="0.00" x2="849.60" y2="4.76"/>
    <line x1="835.20" y1="1.91" x2="849.60" y2="8.02"/>
    <line x1="835.20" y1="5.17" x2="849.60" y2="11.28"/>
    <line x1="835.20" y1="8.43" x2="849.60" y2="14.54"/>
    <line x1="835.20" y1="11.68" x2="849.60" y2="17.80"/>
    <line x1="835.20" y1="14.94" x2="849.60" y2="21.06"/>
    <line x1="835.20" y1="18.20" x2="849.60" y2="24.32"/>
    <line x1="835.20" y1="21.46" x2="849.60" y2="27.57"/>
    <line x1="835.20" y1="24.72" x2="849.60" y2="30.83"/>
    <line x1="835.20" y1="27.98" x2="849.60" y2="34.09"/>
    <line x1="835.20" y1="31.24" x2="846.42" y2="36.00"/>
    <line x1="835.20" y1="34.50" x2="838.74" y2="36.00"/>
  </g>
  <g stroke="#FEE440" stroke-width="1" fill="none" stroke-linecap="round">
    <line x1="864.00" y1="0.04" x2="863.89" y2="0.15"/>
    <line x1="862.10" y1="-0.00" x2="861.02" y2="1.02"/>
    <line x1="861.90" y1="3.89" x2="864.00" y2="4.25"/>
    <line x1="860.15" y1="0.00" x2="858.15" y2="1.90"/>
    <line x1="859.03" y1="4.77" x2="864.00" y2="5.61"/>
    <line x1="864.00" y1="11.15" x2="861.66" y2="13.38"/>
    <line x1="862.54" y1="16.25" x2="864.00" y2="16.49"/>
    <line x1="858.20" y1="-0.00" x2="855.28" y2="2.78"/>
    <line x1="856.16" y1="5.65" x2="862.78" y2="6.76"/>
    <line x1="863.65" y1="9.63" x2="858.79" y2="14.25"/>
    <line x1="859.67" y1="17.12" x2="864.00" y2="17.85"/>
    <line x1="864.00" y1="24.11" x2="862.30" y2="25.73"/>
    <line x1="863.18" y1="28.60" x2="864.00" y2="28.74"/>
    <line x1="856.26" y1="0.00" x2="852.41" y2="3.66"/>
    <line x1="853.29" y1="6.52" x2="859.91" y2="7.64"/>
    <line x1="860.78" y1="10.51" x2="855.92" y2="15.13"/>
    <line x1="856.80" y1="18.00" x2="863.41" y2="19.11"/>
    <line x1="864.00" y1="22.26" x2="859.43" y2="26.61"/>
    <line x1="860.31" y1="29.48" x2="864.00" y2="30.10"/>
    <line x1="854.31" y1="0.00" x2="849.60" y2="4.48"/>
    <line x1="850.42" y1="7.40" x2="857.04" y2="8.52"/>
    <line x1="857.91" y1="11.39" x2="853.05" y2="16.01"/>
    <line x1="853.93" y1="18.88" x2="860.55" y2="19.99"/>
    <line x1="861.42" y1="22.86" x2="856.56" y2="27.48"/>
    <line x1="857.44" y1="30.35" x2="864.00" y2="31.46"/>
    <line x1="864.00" y1="35.22" x2="863.18" y2="36.00"/>
    <line x1="851.54" y1="0.79" x2="849.60" y2="2.63"/>
    <line x1="849.60" y1="8.62" x2="854.17" y2="9.39"/>
    <line x1="855.05" y1="12.26" x2="850.19" y2="16.89"/>
    <line x1="851.06" y1="19.75" x2="857.68" y2="20.87"/>
    <line x1="858.55" y1="23.74" x2="853.69" y2="28.36"/>
    <line x1="854.57" y1="31.23" x2="861.19" y2="32.34"/>
    <line x1="862.06" y1="35.21" x2="861.24" y2="36.00"/>
    <line x1="849.60" y1="9.98" x2="851.30" y2="10.27"/>
    <line x1="852.18" y1="13.14" x2="849.60" y2="15.59"/>
    <line x1="849.60" y1="20.87" x2="854.81" y2="21.75"/>
    <line x1="855.69" y1="24.61" x2="850.82" y2="29.24"/>
    <line x1="851.70" y1="32.11" x2="858.32" y2="33.22"/>
    <line x1="849.60" y1="22.23" x2="851.94" y2="22.62"/>
    <line x1="852.82" y1="25.49" x2="849.60" y2="28.55"/>
    <line x1="849.60" y1="33.11" x2="855.45" y2="34.10"/>
    <line x1="849.95" y1="26.37" x2="849.60" y2="26.70"/>
    <line x1="849.60" y1="34.47" x2="852.58" y2="34.98"/>
    <line x1="849.60" y1="35.83" x2="849.71" y2="35.85"/>
  </g>
</svg>
