<?xml version="1.0" encoding="UTF-8"?>
<svg xmlns="http://www.w3.org/2000/svg"
     width="864.00" height="36.00"
     viewBox="0 0 864.00 36.00">
  <title>Pattern Banner - rat-king</title>
  <desc>Randomized pattern strip with 60 cells</desc>
  <rect width="100%" height="100%" fill="white"/>
  <g stroke="#2A9D8F" stroke-width="1" fill="none" stroke-linecap="round">
    <line x1="14.40" y1="35.54" x2="7.83" y2="36.00"/>
    <line x1="14.40" y1="32.53" x2="0.00" y2="33.54"/>
    <line x1="14.40" y1="29.53" x2="0.00" y2="30.53"/>
    <line x1="14.40" y1="26.52" x2="0.00" y2="27.53"/>
    <line x1="14.40" y1="23.51" x2="0.00" y2="24.52"/>
    <line x1="14.40" y1="20.50" x2="0.00" y2="21.51"/>
    <line x1="14.40" y1="17.50" x2="0.00" y2="18.50"/>
    <line x1="14.40" y1="14.49" x2="0.00" y2="15.50"/>
    <line x1="14.40" y1="11.48" x2="0.00" y2="12.49"/>
    <line x1="14.40" y1="8.47" x2="0.00" y2="9.48"/>
    <line x1="14.40" y1="5.47" x2="0.00" y2="6.47"/>
    <line x1="14.40" y1="2.46" x2="0.00" y2="3.47"/>
    <line x1="6.57" y1="0.00" x2="0.00" y2="0.46"/>
  </g>
  <g stroke="#E9C46A" stroke-width="1" fill="none" stroke-linecap="round">
    <line x1="27.68" y1="0.00" x2="27.25" y2="3.79"/>
    <line x1="18.07" y1="1.40" x2="20.46" y2="-0.00"/>
    <line x1="26.33" y1="0.00" x2="25.62" y2="6.30"/>
    <line x1="28.14" y1="7.94" x2="28.80" y2="7.55"/>
    <line x1="16.44" y1="3.92" x2="22.22" y2="0.52"/>
    <line x1="24.74" y1="2.15" x2="23.99" y2="8.82"/>
    <line x1="26.50" y1="10.45" x2="28.80" y2="9.10"/>
    <line x1="14.80" y1="6.43" x2="20.59" y2="3.03"/>
    <line x1="23.10" y1="4.67" x2="22.35" y2="11.33"/>
    <line x1="24.87" y1="12.97" x2="28.80" y2="10.66"/>
    <line x1="14.40" y1="8.23" x2="18.95" y2="5.55"/>
    <line x1="21.47" y1="7.18" x2="20.72" y2="13.85"/>
    <line x1="23.23" y1="15.48" x2="28.80" y2="12.21"/>
    <line x1="14.40" y1="9.78" x2="17.32" y2="8.07"/>
    <line x1="19.84" y1="9.70" x2="19.08" y2="16.37"/>
    <line x1="21.60" y1="18.00" x2="27.38" y2="14.60"/>
    <line x1="14.40" y1="11.34" x2="15.69" y2="10.58"/>
    <line x1="18.20" y1="12.22" x2="17.45" y2="18.88"/>
    <line x1="19.97" y1="20.52" x2="25.75" y2="17.12"/>
    <line x1="28.27" y1="18.75" x2="27.51" y2="25.42"/>
    <line x1="16.57" y1="14.73" x2="15.82" y2="21.40"/>
    <line x1="18.33" y1="23.03" x2="24.12" y2="19.63"/>
    <line x1="26.63" y1="21.27" x2="25.88" y2="27.93"/>
    <line x1="28.40" y1="29.57" x2="28.80" y2="29.33"/>
    <line x1="14.93" y1="17.25" x2="14.40" y2="21.98"/>
    <line x1="16.70" y1="25.55" x2="22.48" y2="22.15"/>
    <line x1="25.00" y1="23.78" x2="24.25" y2="30.45"/>
    <line x1="26.76" y1="32.08" x2="28.80" y2="30.89"/>
    <line x1="15.06" y1="28.06" x2="20.85" y2="24.67"/>
    <line x1="23.36" y1="26.30" x2="22.61" y2="32.97"/>
    <line x1="25.13" y1="34.60" x2="28.80" y2="32.44"/>
    <line x1="14.40" y1="30.01" x2="19.21" y2="27.18"/>
    <line x1="21.73" y1="28.82" x2="20.98" y2="35.48"/>
    <line x1="25.39" y1="36.00" x2="28.80" y2="34.00"/>
    <line x1="14.40" y1="31.57" x2="17.58" y2="29.70"/>
    <line x1="20.10" y1="31.33" x2="19.57" y2="36.00"/>
    <line x1="14.40" y1="33.12" x2="15.95" y2="32.21"/>
    <line x1="18.46" y1="33.85" x2="18.22" y2="36.00"/>
  </g>
  <g stroke="#90BE6D" stroke-width="1" fill="none" stroke-linecap="round">
    <line x1="43.20" y1="34.67" x2="42.77" y2="36.00"/>
    <line x1="43.20" y1="24.97" x2="39.61" y2="36.00"/>
    <line x1="43.20" y1="15.26" x2="36.46" y2="36.00"/>
    <line x1="43.20" y1="5.55" x2="33.31" y2="36.00"/>
    <line x1="41.85" y1="-0.00" x2="30.15" y2="36.00"/>
    <line x1="38.69" y1="0.00" x2="28.80" y2="30.45"/>
    <line x1="35.54" y1="0.00" x2="28.80" y2="20.74"/>
    <line x1="32.39" y1="0.00" x2="28.80" y2="11.03"/>
    <line x1="29.23" y1="0.00" x2="28.80" y2="1.33"/>
  </g>
  <g stroke="#E9C46A" stroke-width="1" fill="none" stroke-linecap="round">
    <line x1="57.17" y1="0.00" x2="57.60" y2="1.33"/>
    <line x1="54.01" y1="0.00" x2="57.60" y2="11.03"/>
    <line x1="50.86" y1="0.00" x2="57.60" y2="20.74"/>
    <line x1="47.71" y1="0.00" x2="57.60" y2="30.45"/>
    <line x1="44.55" y1="0.00" x2="56.25" y2="36.00"/>
    <line x1="43.20" y1="5.55" x2="53.09" y2="36.00"/>
    <line x1="43.20" y1="15.26" x2="49.94" y2="36.00"/>
    <line x1="43.20" y1="24.97" x2="46.79" y2="36.00"/>
    <line x1="43.20" y1="34.67" x2="43.63" y2="36.00"/>
    <line x1="57.60" y1="34.59" x2="53.25" y2="36.00"/>
    <line x1="57.60" y1="31.43" x2="43.54" y2="36.00"/>
    <line x1="57.60" y1="28.28" x2="43.20" y2="32.96"/>
    <line x1="57.60" y1="25.12" x2="43.20" y2="29.80"/>
    <line x1="57.60" y1="21.97" x2="43.20" y2="26.65"/>
    <line x1="57.60" y1="18.81" x2="43.20" y2="23.49"/>
    <line x1="57.60" y1="15.66" x2="43.20" y2="20.34"/>
    <line x1="57.60" y1="12.51" x2="43.20" y2="17.19"/>
    <line x1="57.60" y1="9.35" x2="43.20" y2="14.03"/>
    <line x1="57.60" y1="6.20" x2="43.20" y2="10.88"/>
    <line x1="57.60" y1="3.04" x2="43.20" y2="7.72"/>
    <line x1="57.26" y1="0.00" x2="43.20" y2="4.57"/>
    <line x1="47.55" y1="0.00" x2="43.20" y2="1.41"/>
  </g>
  <g stroke="#7209B7" stroke-width="1" fill="none" stroke-linecap="round">
    <line x1="57.60" y1="0.00" x2="72.00" y2="0.00"/>
    <line x1="72.00" y1="0.00" x2="72.00" y2="36.00"/>
    <line x1="72.00" y1="36.00" x2="57.60" y2="36.00"/>
    <line x1="57.60" y1="36.00" x2="57.60" y2="0.00"/>
    <line x1="57.60" y1="36.00" x2="58.71" y2="33.21"/>
    <line x1="58.71" y1="2.79" x2="70.89" y2="2.79"/>
    <line x1="70.89" y1="2.79" x2="70.89" y2="33.21"/>
    <line x1="70.89" y1="33.21" x2="58.71" y2="33.21"/>
    <line x1="58.71" y1="33.21" x2="58.71" y2="2.79"/>
    <line x1="58.71" y1="33.21" x2="59.83" y2="30.43"/>
    <line x1="59.83" y1="5.57" x2="69.77" y2="5.57"/>
    <line x1="69.77" y1="5.57" x2="69.77" y2="30.43"/>
    <line x1="69.77" y1="30.43" x2="59.83" y2="30.43"/>
    <line x1="59.83" y1="30.43" x2="59.83" y2="5.57"/>
    <line x1="59.83" y1="30.43" x2="60.94" y2="27.64"/>
    <line x1="60.94" y1="8.36" x2="68.66" y2="8.36"/>
    <line x1="68.66" y1="8.36" x2="68.66" y2="27.64"/>
    <line x1="68.66" y1="27.64" x2="60.94" y2="27.64"/>
    <line x1="60.94" y1="27.64" x2="60.94" y2="8.36"/>
    <line x1="60.94" y1="27.64" x2="62.06" y2="24.86"/>
    <line x1="62.06" y1="11.14" x2="67.54" y2="11.14"/>
    <line x1="67.54" y1="11.14" x2="67.54" y2="24.86"/>
    <line x1="67.54" y1="24.86" x2="62.06" y2="24.86"/>
    <line x1="62.06" y1="24.86" x2="62.06" y2="11.14"/>
    <line x1="62.06" y1="24.86" x2="63.17" y2="22.07"/>
    <line x1="63.17" y1="13.93" x2="66.43" y2="13.93"/>
    <line x1="66.43" y1="13.93" x2="66.43" y2="22.07"/>
    <line x1="66.43" y1="22.07" x2="63.17" y2="22.07"/>
    <line x1="63.17" y1="22.07" x2="63.17" y2="13.93"/>
  </g>
  <g stroke="#E63946" stroke-width="1" fill="none" stroke-linecap="round">
    <line x1="83.96" y1="-0.00" x2="86.40" y2="34.95"/>
    <line x1="80.95" y1="0.00" x2="83.47" y2="36.00"/>
    <line x1="77.94" y1="0.00" x2="80.46" y2="36.00"/>
    <line x1="74.93" y1="0.00" x2="77.45" y2="36.00"/>
    <line x1="72.00" y1="1.05" x2="74.44" y2="36.00"/>
  </g>
  <g stroke="#6A4C93" stroke-width="1" fill="none" stroke-linecap="round">
    <line x1="100.62" y1="6.57" x2="100.80" y2="6.68"/>
    <line x1="100.80" y1="15.15" x2="99.84" y2="15.53"/>
    <line x1="99.58" y1="18.52" x2="100.80" y2="19.27"/>
    <line x1="100.80" y1="26.70" x2="98.79" y2="27.49"/>
    <line x1="98.53" y1="30.48" x2="100.80" y2="31.87"/>
    <line x1="100.80" y1="2.17" x2="97.90" y2="3.32"/>
    <line x1="97.63" y1="6.31" x2="100.80" y2="8.25"/>
    <line x1="100.80" y1="13.71" x2="96.85" y2="15.27"/>
    <line x1="96.59" y1="18.26" x2="100.80" y2="20.85"/>
    <line x1="100.80" y1="25.25" x2="95.80" y2="27.23"/>
    <line x1="95.54" y1="30.22" x2="100.80" y2="33.45"/>
    <line x1="100.80" y1="0.73" x2="94.91" y2="3.06"/>
    <line x1="94.65" y1="6.05" x2="100.36" y2="9.56"/>
    <line x1="100.10" y1="12.55" x2="93.86" y2="15.01"/>
    <line x1="93.60" y1="18.00" x2="99.32" y2="21.51"/>
    <line x1="99.05" y1="24.50" x2="92.82" y2="26.97"/>
    <line x1="92.55" y1="29.95" x2="98.27" y2="33.47"/>
    <line x1="98.16" y1="0.33" x2="91.92" y2="2.80"/>
    <line x1="91.66" y1="5.78" x2="97.37" y2="9.30"/>
    <line x1="97.11" y1="12.28" x2="90.87" y2="14.75"/>
    <line x1="90.61" y1="17.74" x2="96.33" y2="21.25"/>
    <line x1="96.07" y1="24.24" x2="89.83" y2="26.70"/>
    <line x1="89.57" y1="29.69" x2="95.28" y2="33.20"/>
    <line x1="95.17" y1="0.07" x2="88.93" y2="2.53"/>
    <line x1="88.67" y1="5.52" x2="94.38" y2="9.03"/>
    <line x1="94.12" y1="12.02" x2="87.88" y2="14.49"/>
    <line x1="87.62" y1="17.48" x2="93.34" y2="20.99"/>
    <line x1="93.08" y1="23.98" x2="86.84" y2="26.44"/>
    <line x1="86.58" y1="29.43" x2="92.29" y2="32.94"/>
    <line x1="92.03" y1="35.93" x2="91.86" y2="36.00"/>
    <line x1="91.69" y1="0.00" x2="86.40" y2="2.09"/>
    <line x1="86.40" y1="5.70" x2="91.40" y2="8.77"/>
    <line x1="91.13" y1="11.76" x2="86.40" y2="13.63"/>
    <line x1="86.40" y1="18.30" x2="90.35" y2="20.73"/>
    <line x1="90.09" y1="23.72" x2="86.40" y2="25.17"/>
    <line x1="86.40" y1="30.90" x2="89.30" y2="32.68"/>
    <line x1="89.04" y1="35.67" x2="88.21" y2="36.00"/>
    <line x1="88.04" y1="0.00" x2="86.40" y2="0.65"/>
    <line x1="86.40" y1="7.28" x2="88.41" y2="8.51"/>
    <line x1="88.15" y1="11.50" x2="86.40" y2="12.19"/>
    <line x1="86.40" y1="19.88" x2="87.36" y2="20.47"/>
    <line x1="87.10" y1="23.45" x2="86.40" y2="23.73"/>
  </g>
  <g stroke="#4361EE" stroke-width="1" fill="none" stroke-linecap="round">
    <line x1="115.20" y1="19.84" x2="112.93" y2="36.00"/>
    <line x1="111.93" y1="0.00" x2="106.87" y2="36.00"/>
    <line x1="105.87" y1="0.00" x2="100.81" y2="36.00"/>
    <line x1="115.20" y1="5.49" x2="100.80" y2="3.47"/>
    <line x1="115.20" y1="11.55" x2="100.80" y2="9.53"/>
    <line x1="115.20" y1="17.61" x2="100.80" y2="15.59"/>
    <line x1="115.20" y1="23.67" x2="100.80" y2="21.65"/>
    <line x1="115.20" y1="29.73" x2="100.80" y2="27.71"/>
    <line x1="115.20" y1="35.79" x2="100.80" y2="33.76"/>
  </g>
  <g stroke="#6A4C93" stroke-width="1" fill="none" stroke-linecap="round">
    <line x1="129.08" y1="0.00" x2="129.60" y2="0.19"/>
    <line x1="123.82" y1="0.00" x2="129.60" y2="2.10"/>
    <line x1="115.20" y1="3.25" x2="129.60" y2="8.49"/>
    <line x1="115.20" y1="5.16" x2="129.60" y2="10.40"/>
    <line x1="115.20" y1="7.08" x2="129.60" y2="12.32"/>
    <line x1="115.20" y1="13.46" x2="129.60" y2="18.71"/>
    <line x1="115.20" y1="15.38" x2="129.60" y2="20.62"/>
    <line x1="115.20" y1="17.29" x2="129.60" y2="22.54"/>
    <line x1="115.20" y1="23.68" x2="129.60" y2="28.92"/>
    <line x1="115.20" y1="25.60" x2="129.60" y2="30.84"/>
    <line x1="115.20" y1="27.51" x2="129.60" y2="32.75"/>
    <line x1="115.20" y1="33.90" x2="120.98" y2="36.00"/>
    <line x1="115.20" y1="35.81" x2="115.72" y2="36.00"/>
  </g>
  <g stroke="#00BBF9" stroke-width="1" fill="none" stroke-linecap="round">
    <line x1="143.84" y1="0.00" x2="144.00" y2="0.08"/>
    <line x1="140.01" y1="0.00" x2="144.00" y2="2.12"/>
    <line x1="129.60" y1="1.26" x2="144.00" y2="8.92"/>
    <line x1="129.60" y1="3.30" x2="144.00" y2="10.96"/>
    <line x1="129.60" y1="5.34" x2="144.00" y2="12.99"/>
    <line x1="129.60" y1="12.13" x2="144.00" y2="19.79"/>
    <line x1="129.60" y1="14.17" x2="144.00" y2="21.83"/>
    <line x1="129.60" y1="16.21" x2="144.00" y2="23.87"/>
    <line x1="129.60" y1="23.01" x2="144.00" y2="30.66"/>
    <line x1="129.60" y1="25.04" x2="144.00" y2="32.70"/>
    <line x1="129.60" y1="27.08" x2="144.00" y2="34.74"/>
    <line x1="129.60" y1="33.88" x2="133.59" y2="36.00"/>
    <line x1="129.60" y1="35.92" x2="129.76" y2="36.00"/>
  </g>
  <g stroke="#118AB2" stroke-width="1" fill="none" stroke-linecap="round">
    <line x1="158.40" y1="19.69" x2="153.72" y2="36.00"/>
    <line x1="157.80" y1="0.00" x2="147.48" y2="36.00"/>
    <line x1="151.56" y1="0.00" x2="144.00" y2="26.37"/>
    <line x1="145.32" y1="0.00" x2="144.00" y2="4.60"/>
    <line x1="158.40" y1="6.14" x2="144.00" y2="2.01"/>
    <line x1="158.40" y1="12.38" x2="144.00" y2="8.25"/>
    <line x1="158.40" y1="18.62" x2="144.00" y2="14.49"/>
    <line x1="158.40" y1="24.86" x2="144.00" y2="20.73"/>
    <line x1="158.40" y1="31.11" x2="144.00" y2="26.98"/>
    <line x1="153.70" y1="36.00" x2="144.00" y2="33.22"/>
  </g>
  <g stroke="#FF006E" stroke-width="1" fill="none" stroke-linecap="round">
    <line x1="172.80" y1="23.66" x2="167.27" y2="21.08"/>
    <line x1="166.80" y1="36.00" x2="168.91" y2="31.47"/>
    <line x1="172.80" y1="1.80" x2="168.94" y2="0.00"/>
    <line x1="161.80" y1="26.16" x2="169.40" y2="9.84"/>
    <line x1="162.26" y1="36.00" x2="158.40" y2="34.20"/>
    <line x1="162.29" y1="4.53" x2="164.40" y2="0.00"/>
    <line x1="163.93" y1="14.92" x2="158.40" y2="12.34"/>
  </g>
  <g stroke="#1982C4" stroke-width="1" fill="none" stroke-linecap="round">
    <line x1="185.13" y1="36.00" x2="184.87" y2="35.59"/>
    <line x1="181.88" y1="35.90" x2="181.84" y2="36.00"/>
    <line x1="186.72" y1="36.00" x2="184.55" y2="32.60"/>
    <line x1="181.57" y1="32.92" x2="180.41" y2="36.00"/>
    <line x1="173.98" y1="36.00" x2="172.80" y2="34.14"/>
    <line x1="187.20" y1="34.26" x2="184.24" y2="29.62"/>
    <line x1="181.25" y1="29.93" x2="178.98" y2="36.00"/>
    <line x1="175.58" y1="36.00" x2="172.80" y2="31.65"/>
    <line x1="187.20" y1="31.77" x2="183.92" y2="26.64"/>
    <line x1="180.94" y1="26.95" x2="178.58" y2="33.23"/>
    <line x1="175.60" y1="33.54" x2="172.80" y2="29.16"/>
    <line x1="187.20" y1="29.27" x2="183.61" y2="23.65"/>
    <line x1="180.63" y1="23.97" x2="178.27" y2="30.25"/>
    <line x1="175.29" y1="30.56" x2="172.80" y2="26.67"/>
    <line x1="186.91" y1="26.32" x2="183.30" y2="20.67"/>
    <line x1="180.31" y1="20.98" x2="177.96" y2="27.26"/>
    <line x1="174.97" y1="27.58" x2="172.80" y2="24.17"/>
    <line x1="186.59" y1="23.34" x2="182.98" y2="17.69"/>
    <line x1="180.00" y1="18.00" x2="177.64" y2="24.28"/>
    <line x1="174.66" y1="24.59" x2="172.80" y2="21.68"/>
    <line x1="186.28" y1="20.36" x2="182.67" y2="14.70"/>
    <line x1="179.69" y1="15.02" x2="177.33" y2="21.30"/>
    <line x1="174.35" y1="21.61" x2="172.80" y2="19.19"/>
    <line x1="185.97" y1="17.37" x2="182.36" y2="11.72"/>
    <line x1="179.37" y1="12.03" x2="177.02" y2="18.31"/>
    <line x1="174.03" y1="18.63" x2="172.80" y2="16.70"/>
    <line x1="185.65" y1="14.39" x2="182.04" y2="8.74"/>
    <line x1="179.06" y1="9.05" x2="176.70" y2="15.33"/>
    <line x1="173.72" y1="15.64" x2="172.80" y2="14.20"/>
    <line x1="185.34" y1="11.41" x2="181.73" y2="5.75"/>
    <line x1="178.75" y1="6.07" x2="176.39" y2="12.35"/>
    <line x1="173.41" y1="12.66" x2="172.80" y2="11.71"/>
    <line x1="185.03" y1="8.42" x2="181.42" y2="2.77"/>
    <line x1="178.43" y1="3.08" x2="176.08" y2="9.36"/>
    <line x1="173.09" y1="9.68" x2="172.80" y2="9.22"/>
    <line x1="184.71" y1="5.44" x2="181.24" y2="0.00"/>
    <line x1="178.12" y1="0.10" x2="175.76" y2="6.38"/>
    <line x1="184.40" y1="2.46" x2="182.83" y2="0.00"/>
    <line x1="176.72" y1="0.00" x2="175.45" y2="3.40"/>
    <line x1="175.29" y1="0.00" x2="175.13" y2="0.41"/>
  </g>
  <g stroke="#118AB2" stroke-width="1" fill="none" stroke-linecap="round">
    <line x1="201.60" y1="28.77" x2="200.96" y2="28.91"/>
    <line x1="200.23" y1="31.82" x2="201.60" y2="32.99"/>
    <line x1="201.60" y1="16.40" x2="200.95" y2="16.54"/>
    <line x1="200.22" y1="19.45" x2="201.60" y2="20.63"/>
    <line x1="201.60" y1="27.39" x2="198.04" y2="28.18"/>
    <line x1="197.32" y1="31.10" x2="201.60" y2="34.76"/>
    <line x1="201.60" y1="4.02" x2="200.94" y2="4.17"/>
    <line x1="200.21" y1="7.08" x2="201.60" y2="8.27"/>
    <line x1="201.60" y1="15.02" x2="198.04" y2="15.81"/>
    <line x1="197.31" y1="18.73" x2="201.60" y2="22.40"/>
    <line x1="201.60" y1="26.02" x2="195.13" y2="27.46"/>
    <line x1="194.41" y1="30.37" x2="199.50" y2="34.73"/>
    <line x1="201.60" y1="2.65" x2="198.03" y2="3.45"/>
    <line x1="197.30" y1="6.36" x2="201.60" y2="10.03"/>
    <line x1="201.60" y1="13.65" x2="195.13" y2="15.09"/>
    <line x1="194.40" y1="18.00" x2="199.50" y2="22.36"/>
    <line x1="198.77" y1="25.27" x2="192.22" y2="26.73"/>
    <line x1="191.50" y1="29.64" x2="196.59" y2="34.01"/>
    <line x1="201.60" y1="1.28" x2="195.12" y2="2.72"/>
    <line x1="194.39" y1="5.63" x2="199.49" y2="9.99"/>
    <line x1="198.76" y1="12.90" x2="192.21" y2="14.36"/>
    <line x1="191.49" y1="17.27" x2="196.59" y2="21.64"/>
    <line x1="195.86" y1="24.55" x2="189.31" y2="26.01"/>
    <line x1="188.59" y1="28.92" x2="193.68" y2="33.28"/>
    <line x1="198.75" y1="0.53" x2="192.21" y2="1.99"/>
    <line x1="191.48" y1="4.90" x2="196.58" y2="9.27"/>
    <line x1="195.85" y1="12.18" x2="189.30" y2="13.64"/>
    <line x1="188.58" y1="16.55" x2="193.67" y2="20.91"/>
    <line x1="192.95" y1="23.82" x2="187.20" y2="25.10"/>
    <line x1="187.20" y1="29.50" x2="190.77" y2="32.55"/>
    <line x1="190.05" y1="35.47" x2="187.65" y2="36.00"/>
    <line x1="194.99" y1="-0.00" x2="189.30" y2="1.27"/>
    <line x1="188.57" y1="4.18" x2="193.67" y2="8.54"/>
    <line x1="192.94" y1="11.45" x2="187.20" y2="12.73"/>
    <line x1="187.20" y1="17.13" x2="190.76" y2="20.19"/>
    <line x1="190.04" y1="23.10" x2="187.20" y2="23.73"/>
    <line x1="187.20" y1="31.26" x2="187.86" y2="31.83"/>
    <line x1="188.82" y1="-0.00" x2="187.20" y2="0.36"/>
    <line x1="187.20" y1="4.77" x2="190.76" y2="7.82"/>
    <line x1="190.03" y1="10.73" x2="187.20" y2="11.36"/>
    <line x1="187.20" y1="18.90" x2="187.85" y2="19.46"/>
    <line x1="187.20" y1="6.54" x2="187.84" y2="7.09"/>
  </g>
  <g stroke="#FF595E" stroke-width="1" fill="none" stroke-linecap="round">
    <line x1="212.75" y1="-0.00" x2="212.76" y2="0.19"/>
    <line x1="215.54" y1="1.31" x2="216.00" y2="0.91"/>
    <line x1="211.40" y1="-0.00" x2="211.64" y2="2.97"/>
    <line x1="214.42" y1="4.09" x2="216.00" y2="2.70"/>
    <line x1="202.17" y1="2.38" x2="204.86" y2="-0.00"/>
    <line x1="210.05" y1="-0.00" x2="210.51" y2="5.75"/>
    <line x1="213.30" y1="6.87" x2="216.00" y2="4.49"/>
    <line x1="201.60" y1="4.67" x2="206.07" y2="0.72"/>
    <line x1="208.86" y1="1.84" x2="209.39" y2="8.53"/>
    <line x1="212.17" y1="9.66" x2="216.00" y2="6.28"/>
    <line x1="201.60" y1="6.46" x2="204.95" y2="3.50"/>
    <line x1="207.73" y1="4.63" x2="208.27" y2="11.31"/>
    <line x1="211.05" y1="12.44" x2="216.00" y2="8.07"/>
    <line x1="201.60" y1="8.25" x2="203.83" y2="6.28"/>
    <line x1="206.61" y1="7.41" x2="207.14" y2="14.09"/>
    <line x1="209.92" y1="15.22" x2="214.95" y2="10.78"/>
    <line x1="201.60" y1="10.04" x2="202.70" y2="9.07"/>
    <line x1="205.48" y1="10.19" x2="206.02" y2="16.88"/>
    <line x1="208.80" y1="18.00" x2="213.83" y2="13.56"/>
    <line x1="204.36" y1="12.97" x2="204.89" y2="19.66"/>
    <line x1="207.68" y1="20.78" x2="212.71" y2="16.34"/>
    <line x1="215.49" y1="17.47" x2="216.00" y2="23.89"/>
    <line x1="203.24" y1="15.75" x2="203.77" y2="22.44"/>
    <line x1="206.55" y1="23.56" x2="211.58" y2="19.12"/>
    <line x1="214.36" y1="20.25" x2="214.90" y2="26.93"/>
    <line x1="202.11" y1="18.53" x2="202.65" y2="25.22"/>
    <line x1="205.43" y1="26.34" x2="210.46" y2="21.91"/>
    <line x1="213.24" y1="23.03" x2="213.77" y2="29.72"/>
    <line x1="204.30" y1="29.13" x2="209.33" y2="24.69"/>
    <line x1="212.12" y1="25.81" x2="212.65" y2="32.50"/>
    <line x1="215.43" y1="33.62" x2="216.00" y2="33.12"/>
    <line x1="203.18" y1="31.91" x2="208.21" y2="27.47"/>
    <line x1="210.99" y1="28.59" x2="211.53" y2="35.28"/>
    <line x1="214.76" y1="36.00" x2="216.00" y2="34.91"/>
    <line x1="202.06" y1="34.69" x2="207.09" y2="30.25"/>
    <line x1="209.87" y1="31.37" x2="210.24" y2="36.00"/>
    <line x1="202.60" y1="36.00" x2="205.96" y2="33.03"/>
    <line x1="208.74" y1="34.16" x2="208.89" y2="36.00"/>
    <line x1="204.63" y1="36.00" x2="204.84" y2="35.81"/>
  </g>
  <g stroke="#FFCA3A" stroke-width="1" fill="none" stroke-linecap="round">
    <line x1="226.15" y1="-0.00" x2="230.40" y2="4.10"/>
    <line x1="221.84" y1="0.00" x2="230.40" y2="8.27"/>
    <line x1="217.52" y1="0.00" x2="230.40" y2="12.44"/>
    <line x1="216.00" y1="2.71" x2="230.40" y2="16.61"/>
    <line x1="216.00" y1="6.88" x2="230.40" y2="20.78"/>
    <line x1="216.00" y1="11.05" x2="230.40" y2="24.95"/>
    <line x1="216.00" y1="15.22" x2="230.40" y2="29.12"/>
    <line x1="216.00" y1="19.39" x2="230.40" y2="33.29"/>
    <line x1="216.00" y1="23.56" x2="228.88" y2="36.00"/>
    <line x1="216.00" y1="27.73" x2="224.56" y2="36.00"/>
    <line x1="216.00" y1="31.90" x2="220.25" y2="36.00"/>
    <line x1="230.40" y1="32.14" x2="226.67" y2="36.00"/>
    <line x1="230.40" y1="27.82" x2="222.50" y2="36.00"/>
    <line x1="230.40" y1="23.50" x2="218.33" y2="36.00"/>
    <line x1="230.40" y1="19.18" x2="216.00" y2="34.09"/>
    <line x1="230.40" y1="14.86" x2="216.00" y2="29.77"/>
    <line x1="230.40" y1="10.54" x2="216.00" y2="25.46"/>
    <line x1="230.40" y1="6.23" x2="216.00" y2="21.14"/>
    <line x1="230.40" y1="1.91" x2="216.00" y2="16.82"/>
    <line x1="228.07" y1="0.00" x2="216.00" y2="12.50"/>
    <line x1="223.90" y1="0.00" x2="216.00" y2="8.18"/>
    <line x1="219.73" y1="0.00" x2="216.00" y2="3.86"/>
  </g>
  <g stroke="#00BBF9" stroke-width="1" fill="none" stroke-linecap="round">
    <line x1="244.80" y1="35.74" x2="244.51" y2="36.00"/>
    <line x1="244.80" y1="31.70" x2="240.03" y2="36.00"/>
    <line x1="244.80" y1="27.66" x2="235.54" y2="36.00"/>
    <line x1="244.80" y1="23.63" x2="231.06" y2="36.00"/>
    <line x1="244.80" y1="19.59" x2="230.40" y2="32.56"/>
    <line x1="244.80" y1="15.55" x2="230.40" y2="28.52"/>
    <line x1="244.80" y1="11.52" x2="230.40" y2="24.48"/>
    <line x1="244.80" y1="7.48" x2="230.40" y2="20.45"/>
    <line x1="244.80" y1="3.44" x2="230.40" y2="16.41"/>
    <line x1="244.14" y1="0.00" x2="230.40" y2="12.37"/>
    <line x1="239.66" y1="0.00" x2="230.40" y2="8.34"/>
    <line x1="235.17" y1="0.00" x2="230.40" y2="4.30"/>
    <line x1="230.69" y1="0.00" x2="230.40" y2="0.26"/>
  </g>
  <g stroke="#F15BB5" stroke-width="1" fill="none" stroke-linecap="round">
    <line x1="259.20" y1="25.00" x2="254.05" y2="20.20"/>
    <line x1="251.19" y1="36.00" x2="254.27" y2="32.70"/>
    <line x1="259.20" y1="0.11" x2="259.09" y2="-0.00"/>
    <line x1="245.86" y1="24.58" x2="258.14" y2="11.42"/>
    <line x1="244.91" y1="36.00" x2="244.80" y2="35.89"/>
    <line x1="249.73" y1="3.30" x2="252.81" y2="0.00"/>
    <line x1="249.95" y1="15.80" x2="244.80" y2="11.00"/>
  </g>
  <g stroke="#EF476F" stroke-width="1" fill="none" stroke-linecap="round">
    <line x1="271.48" y1="0.00" x2="273.60" y2="9.18"/>
    <line x1="268.40" y1="-0.00" x2="273.60" y2="22.51"/>
    <line x1="265.32" y1="-0.00" x2="273.60" y2="35.85"/>
    <line x1="262.24" y1="0.00" x2="270.56" y2="36.00"/>
    <line x1="259.20" y1="0.15" x2="267.48" y2="36.00"/>
    <line x1="259.20" y1="13.49" x2="264.40" y2="36.00"/>
    <line x1="259.20" y1="26.82" x2="261.32" y2="36.00"/>
  </g>
  <g stroke="#6A4C93" stroke-width="1" fill="none" stroke-linecap="round">
    <line x1="286.18" y1="-0.00" x2="288.00" y2="8.59"/>
    <line x1="283.11" y1="0.00" x2="288.00" y2="23.01"/>
    <line x1="280.04" y1="0.00" x2="287.69" y2="36.00"/>
    <line x1="276.97" y1="0.00" x2="284.63" y2="36.00"/>
    <line x1="273.91" y1="-0.00" x2="281.56" y2="36.00"/>
    <line x1="273.60" y1="12.99" x2="278.49" y2="36.00"/>
    <line x1="273.60" y1="27.41" x2="275.42" y2="36.00"/>
  </g>
  <g stroke="#1982C4" stroke-width="1" fill="none" stroke-linecap="round">
    <line x1="302.40" y1="34.81" x2="297.25" y2="36.00"/>
    <line x1="302.40" y1="31.73" x2="288.00" y2="35.06"/>
    <line x1="302.40" y1="28.65" x2="288.00" y2="31.98"/>
    <line x1="302.40" y1="25.57" x2="288.00" y2="28.90"/>
    <line x1="302.40" y1="22.50" x2="288.00" y2="25.82"/>
    <line x1="302.40" y1="19.42" x2="288.00" y2="22.74"/>
    <line x1="302.40" y1="16.34" x2="288.00" y2="19.66"/>
    <line x1="302.40" y1="13.26" x2="288.00" y2="16.58"/>
    <line x1="302.40" y1="10.18" x2="288.00" y2="13.50"/>
    <line x1="302.40" y1="7.10" x2="288.00" y2="10.43"/>
    <line x1="302.40" y1="4.02" x2="288.00" y2="7.35"/>
    <line x1="302.40" y1="0.94" x2="288.00" y2="4.27"/>
    <line x1="293.15" y1="0.00" x2="288.00" y2="1.19"/>
    <line x1="290.12" y1="36.00" x2="288.00" y2="26.82"/>
    <line x1="293.20" y1="36.00" x2="288.00" y2="13.49"/>
    <line x1="296.28" y1="36.00" x2="288.00" y2="0.15"/>
    <line x1="299.36" y1="36.00" x2="291.04" y2="-0.00"/>
    <line x1="302.40" y1="35.85" x2="294.12" y2="0.00"/>
    <line x1="302.40" y1="22.51" x2="297.20" y2="0.00"/>
    <line x1="302.40" y1="9.18" x2="300.28" y2="0.00"/>
  </g>
  <g stroke="#00BBF9" stroke-width="1" fill="none" stroke-linecap="round">
    <line x1="316.80" y1="22.94" x2="315.46" y2="24.37"/>
    <line x1="316.80" y1="31.02" x2="315.33" y2="29.65"/>
    <line x1="309.29" y1="0.00" x2="303.15" y2="6.58"/>
    <line x1="316.18" y1="24.14" x2="303.02" y2="11.86"/>
    <line x1="316.05" y1="29.42" x2="309.91" y2="36.00"/>
    <line x1="303.87" y1="6.35" x2="302.40" y2="4.98"/>
    <line x1="303.74" y1="11.63" x2="302.40" y2="13.06"/>
  </g>
  <g stroke="#00F5D4" stroke-width="1" fill="none" stroke-linecap="round">
    <line x1="329.80" y1="2.05" x2="331.20" y2="2.09"/>
    <line x1="326.30" y1="0.00" x2="325.82" y2="0.60"/>
    <line x1="327.09" y1="3.32" x2="331.20" y2="3.43"/>
    <line x1="331.20" y1="11.09" x2="330.89" y2="11.48"/>
    <line x1="324.58" y1="0.00" x2="323.10" y2="1.87"/>
    <line x1="324.37" y1="4.59" x2="331.07" y2="4.77"/>
    <line x1="331.20" y1="8.93" x2="328.17" y2="12.75"/>
    <line x1="329.44" y1="15.46" x2="331.20" y2="15.51"/>
    <line x1="322.87" y1="0.00" x2="320.38" y2="3.14"/>
    <line x1="321.65" y1="5.86" x2="328.35" y2="6.04"/>
    <line x1="329.62" y1="8.76" x2="325.45" y2="14.01"/>
    <line x1="326.72" y1="16.73" x2="331.20" y2="16.85"/>
    <line x1="331.20" y1="24.04" x2="330.52" y2="24.89"/>
    <line x1="321.16" y1="-0.00" x2="317.66" y2="4.41"/>
    <line x1="318.93" y1="7.12" x2="325.63" y2="7.31"/>
    <line x1="326.90" y1="10.03" x2="322.73" y2="15.28"/>
    <line x1="324.00" y1="18.00" x2="330.71" y2="18.18"/>
    <line x1="331.20" y1="21.88" x2="327.80" y2="26.16"/>
    <line x1="329.07" y1="28.88" x2="331.20" y2="28.93"/>
    <line x1="319.11" y1="0.42" x2="316.80" y2="3.33"/>
    <line x1="316.80" y1="8.41" x2="322.92" y2="8.58"/>
    <line x1="324.18" y1="11.29" x2="320.01" y2="16.55"/>
    <line x1="321.28" y1="19.27" x2="327.99" y2="19.45"/>
    <line x1="329.25" y1="22.17" x2="325.08" y2="27.42"/>
    <line x1="326.35" y1="30.14" x2="331.20" y2="30.28"/>
    <line x1="316.80" y1="9.75" x2="320.20" y2="9.84"/>
    <line x1="321.46" y1="12.56" x2="317.29" y2="17.82"/>
    <line x1="318.56" y1="20.54" x2="325.27" y2="20.72"/>
    <line x1="326.54" y1="23.44" x2="322.37" y2="28.69"/>
    <line x1="323.63" y1="31.41" x2="330.34" y2="31.59"/>
    <line x1="331.20" y1="34.83" x2="330.27" y2="36.00"/>
    <line x1="316.80" y1="11.09" x2="317.48" y2="11.11"/>
    <line x1="318.75" y1="13.83" x2="316.80" y2="16.28"/>
    <line x1="316.80" y1="21.83" x2="322.55" y2="21.99"/>
    <line x1="323.82" y1="24.71" x2="319.65" y2="29.96"/>
    <line x1="320.91" y1="32.68" x2="327.62" y2="32.86"/>
    <line x1="328.89" y1="35.58" x2="328.56" y2="36.00"/>
    <line x1="316.80" y1="23.17" x2="319.83" y2="23.25"/>
    <line x1="321.10" y1="25.97" x2="316.93" y2="31.23"/>
    <line x1="318.20" y1="33.95" x2="324.90" y2="34.13"/>
    <line x1="316.80" y1="24.51" x2="317.11" y2="24.52"/>
    <line x1="318.38" y1="27.24" x2="316.80" y2="29.23"/>
    <line x1="316.80" y1="35.25" x2="322.18" y2="35.40"/>
  </g>
  <g stroke="#6A4C93" stroke-width="1" fill="none" stroke-linecap="round">
    <line x1="334.96" y1="5.90" x2="345.60" y2="7.59"/>
    <line x1="331.20" y1="11.23" x2="331.25" y2="11.24"/>
    <line x1="339.81" y1="9.11" x2="336.99" y2="26.89"/>
    <line x1="345.55" y1="24.76" x2="345.60" y2="24.77"/>
    <line x1="331.20" y1="28.41" x2="341.84" y2="30.10"/>
  </g>
  <g stroke="#9EF01A" stroke-width="1" fill="none" stroke-linecap="round">
    <line x1="355.65" y1="0.00" x2="360.00" y2="1.41"/>
    <line x1="345.94" y1="0.00" x2="360.00" y2="4.57"/>
    <line x1="345.60" y1="3.04" x2="360.00" y2="7.72"/>
    <line x1="345.60" y1="6.20" x2="360.00" y2="10.88"/>
    <line x1="345.60" y1="9.35" x2="360.00" y2="14.03"/>
    <line x1="345.60" y1="12.51" x2="360.00" y2="17.19"/>
    <line x1="345.60" y1="15.66" x2="360.00" y2="20.34"/>
    <line x1="345.60" y1="18.81" x2="360.00" y2="23.49"/>
    <line x1="345.60" y1="21.97" x2="360.00" y2="26.65"/>
    <line x1="345.60" y1="25.12" x2="360.00" y2="29.80"/>
    <line x1="345.60" y1="28.28" x2="360.00" y2="32.96"/>
    <line x1="345.60" y1="31.43" x2="359.66" y2="36.00"/>
    <line x1="345.60" y1="34.59" x2="349.95" y2="36.00"/>
    <line x1="360.00" y1="34.67" x2="359.57" y2="36.00"/>
    <line x1="360.00" y1="24.97" x2="356.41" y2="36.00"/>
    <line x1="360.00" y1="15.26" x2="353.26" y2="36.00"/>
    <line x1="360.00" y1="5.55" x2="350.11" y2="36.00"/>
    <line x1="358.65" y1="0.00" x2="346.95" y2="36.00"/>
    <line x1="355.49" y1="0.00" x2="345.60" y2="30.45"/>
    <line x1="352.34" y1="0.00" x2="345.60" y2="20.74"/>
    <line x1="349.19" y1="0.00" x2="345.60" y2="11.03"/>
    <line x1="346.03" y1="0.00" x2="345.60" y2="1.33"/>
  </g>
  <g stroke="#FF006E" stroke-width="1" fill="none" stroke-linecap="round">
    <line x1="364.45" y1="0.00" x2="374.40" y2="6.71"/>
    <line x1="360.00" y1="4.23" x2="374.40" y2="13.95"/>
    <line x1="360.00" y1="11.47" x2="374.40" y2="21.18"/>
    <line x1="360.00" y1="18.71" x2="374.40" y2="28.42"/>
    <line x1="360.00" y1="25.95" x2="374.40" y2="35.66"/>
    <line x1="360.00" y1="33.18" x2="364.18" y2="36.00"/>
    <line x1="363.19" y1="0.00" x2="360.00" y2="4.74"/>
    <line x1="370.43" y1="0.00" x2="360.00" y2="15.47"/>
    <line x1="374.40" y1="4.85" x2="360.00" y2="26.19"/>
    <line x1="374.40" y1="15.58" x2="360.62" y2="36.00"/>
    <line x1="374.40" y1="26.31" x2="367.86" y2="36.00"/>
  </g>
  <g stroke="#00F5D4" stroke-width="1" fill="none" stroke-linecap="round">
    <line x1="388.80" y1="35.53" x2="388.53" y2="36.00"/>
    <line x1="388.80" y1="29.53" x2="385.06" y2="36.00"/>
    <line x1="388.80" y1="23.53" x2="381.60" y2="36.00"/>
    <line x1="388.80" y1="17.53" x2="378.14" y2="36.00"/>
    <line x1="388.80" y1="11.53" x2="374.67" y2="36.00"/>
    <line x1="388.80" y1="5.53" x2="374.40" y2="30.47"/>
    <line x1="388.53" y1="0.00" x2="374.40" y2="24.47"/>
    <line x1="385.06" y1="0.00" x2="374.40" y2="18.47"/>
    <line x1="381.60" y1="0.00" x2="374.40" y2="12.47"/>
    <line x1="378.14" y1="0.00" x2="374.40" y2="6.47"/>
    <line x1="374.67" y1="0.00" x2="374.40" y2="0.47"/>
    <line x1="376.78" y1="36.00" x2="374.40" y2="34.63"/>
    <line x1="382.78" y1="36.00" x2="374.40" y2="31.16"/>
    <line x1="388.78" y1="36.00" x2="374.40" y2="27.70"/>
    <line x1="388.80" y1="32.55" x2="374.40" y2="24.24"/>
    <line x1="388.80" y1="29.09" x2="374.40" y2="20.77"/>
    <line x1="388.80" y1="25.62" x2="374.40" y2="17.31"/>
    <line x1="388.80" y1="22.16" x2="374.40" y2="13.84"/>
    <line x1="388.80" y1="18.69" x2="374.40" y2="10.38"/>
    <line x1="388.80" y1="15.23" x2="374.40" y2="6.91"/>
    <line x1="388.80" y1="11.76" x2="374.40" y2="3.45"/>
    <line x1="388.80" y1="8.30" x2="374.42" y2="0.00"/>
    <line x1="388.80" y1="4.84" x2="380.42" y2="0.00"/>
    <line x1="388.80" y1="1.37" x2="386.42" y2="0.00"/>
  </g>
  <g stroke="#3A86FF" stroke-width="1" fill="none" stroke-linecap="round">
    <line x1="403.20" y1="34.53" x2="399.17" y2="36.00"/>
    <line x1="403.20" y1="31.34" x2="390.40" y2="36.00"/>
    <line x1="403.20" y1="28.15" x2="388.80" y2="33.39"/>
    <line x1="403.20" y1="24.96" x2="388.80" y2="30.20"/>
    <line x1="403.20" y1="21.76" x2="388.80" y2="27.01"/>
    <line x1="403.20" y1="18.57" x2="388.80" y2="23.81"/>
    <line x1="403.20" y1="15.38" x2="388.80" y2="20.62"/>
    <line x1="403.20" y1="12.19" x2="388.80" y2="17.43"/>
    <line x1="403.20" y1="8.99" x2="388.80" y2="14.24"/>
    <line x1="403.20" y1="5.80" x2="388.80" y2="11.04"/>
    <line x1="403.20" y1="2.61" x2="388.80" y2="7.85"/>
    <line x1="401.60" y1="-0.00" x2="388.80" y2="4.66"/>
    <line x1="392.83" y1="0.00" x2="388.80" y2="1.47"/>
    <line x1="389.78" y1="36.00" x2="388.80" y2="33.30"/>
    <line x1="392.97" y1="36.00" x2="388.80" y2="24.53"/>
    <line x1="396.17" y1="36.00" x2="388.80" y2="15.76"/>
    <line x1="399.36" y1="36.00" x2="388.80" y2="6.99"/>
    <line x1="402.55" y1="36.00" x2="389.45" y2="0.00"/>
    <line x1="403.20" y1="29.01" x2="392.64" y2="0.00"/>
    <line x1="403.20" y1="20.24" x2="395.83" y2="0.00"/>
    <line x1="403.20" y1="11.47" x2="399.03" y2="0.00"/>
    <line x1="403.20" y1="2.70" x2="402.22" y2="0.00"/>
  </g>
  <g stroke="#1982C4" stroke-width="1" fill="none" stroke-linecap="round">
    <line x1="417.60" y1="27.48" x2="411.41" y2="36.00"/>
    <line x1="417.60" y1="24.42" x2="409.19" y2="36.00"/>
    <line x1="417.60" y1="21.36" x2="406.96" y2="36.00"/>
    <line x1="417.60" y1="11.15" x2="403.20" y2="30.97"/>
    <line x1="417.60" y1="8.09" x2="403.20" y2="27.91"/>
    <line x1="417.60" y1="5.03" x2="403.20" y2="24.85"/>
    <line x1="413.84" y1="0.00" x2="403.20" y2="14.64"/>
    <line x1="411.61" y1="0.00" x2="403.20" y2="11.58"/>
    <line x1="409.39" y1="0.00" x2="403.20" y2="8.52"/>
  </g>
  <g stroke="#7209B7" stroke-width="1" fill="none" stroke-linecap="round">
    <line x1="432.00" y1="24.12" x2="430.75" y2="36.00"/>
    <line x1="428.50" y1="0.00" x2="424.72" y2="36.00"/>
    <line x1="426.69" y1="0.00" x2="422.91" y2="36.00"/>
    <line x1="424.88" y1="0.00" x2="421.10" y2="36.00"/>
    <line x1="418.85" y1="0.00" x2="417.60" y2="11.88"/>
  </g>
  <g stroke="#1982C4" stroke-width="1" fill="none" stroke-linecap="round">
    <line x1="446.40" y1="35.01" x2="440.77" y2="36.00"/>
    <line x1="446.40" y1="31.96" x2="432.00" y2="34.50"/>
    <line x1="446.40" y1="28.92" x2="432.00" y2="31.45"/>
    <line x1="446.40" y1="25.87" x2="432.00" y2="28.41"/>
    <line x1="446.40" y1="22.82" x2="432.00" y2="25.36"/>
    <line x1="446.40" y1="19.78" x2="432.00" y2="22.32"/>
    <line x1="446.40" y1="16.73" x2="432.00" y2="19.27"/>
    <line x1="446.40" y1="13.68" x2="432.00" y2="16.22"/>
    <line x1="446.40" y1="10.64" x2="432.00" y2="13.18"/>
    <line x1="446.40" y1="7.59" x2="432.00" y2="10.13"/>
    <line x1="446.40" y1="4.55" x2="432.00" y2="7.08"/>
    <line x1="446.40" y1="1.50" x2="432.00" y2="4.04"/>
    <line x1="437.63" y1="0.00" x2="432.00" y2="0.99"/>
  </g>
  <g stroke="#1982C4" stroke-width="1" fill="none" stroke-linecap="round">
    <line x1="446.40" y1="0.00" x2="460.80" y2="0.00"/>
    <line x1="460.80" y1="0.00" x2="460.80" y2="36.00"/>
    <line x1="460.80" y1="36.00" x2="446.40" y2="36.00"/>
    <line x1="446.40" y1="36.00" x2="446.40" y2="0.00"/>
    <line x1="446.40" y1="36.00" x2="447.51" y2="33.21"/>
    <line x1="447.51" y1="2.79" x2="459.69" y2="2.79"/>
    <line x1="459.69" y1="2.79" x2="459.69" y2="33.21"/>
    <line x1="459.69" y1="33.21" x2="447.51" y2="33.21"/>
    <line x1="447.51" y1="33.21" x2="447.51" y2="2.79"/>
    <line x1="447.51" y1="33.21" x2="448.63" y2="30.43"/>
    <line x1="448.63" y1="5.57" x2="458.57" y2="5.57"/>
    <line x1="458.57" y1="5.57" x2="458.57" y2="30.43"/>
    <line x1="458.57" y1="30.43" x2="448.63" y2="30.43"/>
    <line x1="448.63" y1="30.43" x2="448.63" y2="5.57"/>
    <line x1="448.63" y1="30.43" x2="449.74" y2="27.64"/>
    <line x1="449.74" y1="8.36" x2="457.46" y2="8.36"/>
    <line x1="457.46" y1="8.36" x2="457.46" y2="27.64"/>
    <line x1="457.46" y1="27.64" x2="449.74" y2="27.64"/>
    <line x1="449.74" y1="27.64" x2="449.74" y2="8.36"/>
    <line x1="449.74" y1="27.64" x2="450.86" y2="24.86"/>
    <line x1="450.86" y1="11.14" x2="456.34" y2="11.14"/>
    <line x1="456.34" y1="11.14" x2="456.34" y2="24.86"/>
    <line x1="456.34" y1="24.86" x2="450.86" y2="24.86"/>
    <line x1="450.86" y1="24.86" x2="450.86" y2="11.14"/>
    <line x1="450.86" y1="24.86" x2="451.97" y2="22.07"/>
    <line x1="451.97" y1="13.93" x2="455.23" y2="13.93"/>
    <line x1="455.23" y1="13.93" x2="455.23" y2="22.07"/>
    <line x1="455.23" y1="22.07" x2="451.97" y2="22.07"/>
    <line x1="451.97" y1="22.07" x2="451.97" y2="13.93"/>
  </g>
  <g stroke="#9B5DE5" stroke-width="1" fill="none" stroke-linecap="round">
    <line x1="474.67" y1="36.00" x2="474.08" y2="35.21"/>
    <line x1="471.13" y1="35.73" x2="471.04" y2="36.00"/>
    <line x1="475.20" y1="34.46" x2="473.56" y2="32.25"/>
    <line x1="470.60" y1="32.77" x2="469.64" y2="36.00"/>
    <line x1="462.98" y1="36.00" x2="461.74" y2="34.33"/>
    <line x1="475.20" y1="32.21" x2="473.04" y2="29.30"/>
    <line x1="470.08" y1="29.82" x2="468.24" y2="36.00"/>
    <line x1="464.65" y1="36.00" x2="461.22" y2="31.38"/>
    <line x1="475.20" y1="29.96" x2="472.52" y2="26.34"/>
    <line x1="469.56" y1="26.86" x2="467.65" y2="33.29"/>
    <line x1="464.70" y1="33.81" x2="460.80" y2="28.56"/>
    <line x1="475.20" y1="27.71" x2="472.00" y2="23.39"/>
    <line x1="469.04" y1="23.91" x2="467.13" y2="30.34"/>
    <line x1="464.17" y1="30.86" x2="460.80" y2="26.31"/>
    <line x1="475.20" y1="25.46" x2="471.48" y2="20.43"/>
    <line x1="468.52" y1="20.95" x2="466.61" y2="27.38"/>
    <line x1="463.65" y1="27.91" x2="460.80" y2="24.06"/>
    <line x1="474.95" y1="22.87" x2="470.95" y2="17.48"/>
    <line x1="468.00" y1="18.00" x2="466.09" y2="24.43"/>
    <line x1="463.13" y1="24.95" x2="460.80" y2="21.81"/>
    <line x1="474.43" y1="19.91" x2="470.43" y2="14.52"/>
    <line x1="467.48" y1="15.05" x2="465.57" y2="21.48"/>
    <line x1="462.61" y1="22.00" x2="460.80" y2="19.55"/>
    <line x1="473.91" y1="16.96" x2="469.91" y2="11.57"/>
    <line x1="466.96" y1="12.09" x2="465.05" y2="18.52"/>
    <line x1="462.09" y1="19.04" x2="460.80" y2="17.30"/>
    <line x1="473.39" y1="14.00" x2="469.39" y2="8.62"/>
    <line x1="466.44" y1="9.14" x2="464.52" y2="15.57"/>
    <line x1="461.57" y1="16.09" x2="460.80" y2="15.05"/>
    <line x1="472.87" y1="11.05" x2="468.87" y2="5.66"/>
    <line x1="465.92" y1="6.18" x2="464.00" y2="12.61"/>
    <line x1="461.05" y1="13.13" x2="460.80" y2="12.80"/>
    <line x1="472.35" y1="8.09" x2="468.35" y2="2.71"/>
    <line x1="465.40" y1="3.23" x2="463.48" y2="9.66"/>
    <line x1="475.20" y1="3.21" x2="474.78" y2="4.62"/>
    <line x1="471.83" y1="5.14" x2="468.01" y2="0.00"/>
    <line x1="464.87" y1="0.27" x2="462.96" y2="6.70"/>
    <line x1="474.75" y1="0.00" x2="474.26" y2="1.67"/>
    <line x1="471.30" y1="2.19" x2="469.68" y2="0.00"/>
    <line x1="463.56" y1="0.00" x2="462.44" y2="3.75"/>
    <line x1="462.16" y1="0.00" x2="461.92" y2="0.79"/>
  </g>
  <g stroke="#9B5DE5" stroke-width="1" fill="none" stroke-linecap="round">
    <line x1="489.60" y1="35.85" x2="489.29" y2="36.00"/>
    <line x1="489.60" y1="33.85" x2="485.19" y2="36.00"/>
    <line x1="489.60" y1="27.17" x2="475.20" y2="34.20"/>
    <line x1="489.60" y1="25.17" x2="475.20" y2="32.19"/>
    <line x1="489.60" y1="23.17" x2="475.20" y2="30.19"/>
    <line x1="489.60" y1="16.49" x2="475.20" y2="23.51"/>
    <line x1="489.60" y1="14.49" x2="475.20" y2="21.51"/>
    <line x1="489.60" y1="12.49" x2="475.20" y2="19.51"/>
    <line x1="489.60" y1="5.81" x2="475.20" y2="12.83"/>
    <line x1="489.60" y1="3.81" x2="475.20" y2="10.83"/>
    <line x1="489.60" y1="1.80" x2="475.20" y2="8.83"/>
    <line x1="479.61" y1="0.00" x2="475.20" y2="2.15"/>
    <line x1="475.51" y1="0.00" x2="475.20" y2="0.15"/>
  </g>
  <g stroke="#FF595E" stroke-width="1" fill="none" stroke-linecap="round">
    <line x1="489.60" y1="0.00" x2="504.00" y2="0.00"/>
    <line x1="504.00" y1="0.00" x2="504.00" y2="36.00"/>
    <line x1="504.00" y1="36.00" x2="489.60" y2="36.00"/>
    <line x1="489.60" y1="36.00" x2="489.60" y2="0.00"/>
    <line x1="489.60" y1="36.00" x2="490.71" y2="33.21"/>
    <line x1="490.71" y1="2.79" x2="502.89" y2="2.79"/>
    <line x1="502.89" y1="2.79" x2="502.89" y2="33.21"/>
    <line x1="502.89" y1="33.21" x2="490.71" y2="33.21"/>
    <line x1="490.71" y1="33.21" x2="490.71" y2="2.79"/>
    <line x1="490.71" y1="33.21" x2="491.83" y2="30.43"/>
    <line x1="491.83" y1="5.57" x2="501.77" y2="5.57"/>
    <line x1="501.77" y1="5.57" x2="501.77" y2="30.43"/>
    <line x1="501.77" y1="30.43" x2="491.83" y2="30.43"/>
    <line x1="491.83" y1="30.43" x2="491.83" y2="5.57"/>
    <line x1="491.83" y1="30.43" x2="492.94" y2="27.64"/>
    <line x1="492.94" y1="8.36" x2="500.66" y2="8.36"/>
    <line x1="500.66" y1="8.36" x2="500.66" y2="27.64"/>
    <line x1="500.66" y1="27.64" x2="492.94" y2="27.64"/>
    <line x1="492.94" y1="27.64" x2="492.94" y2="8.36"/>
    <line x1="492.94" y1="27.64" x2="494.06" y2="24.86"/>
    <line x1="494.06" y1="11.14" x2="499.54" y2="11.14"/>
    <line x1="499.54" y1="11.14" x2="499.54" y2="24.86"/>
    <line x1="499.54" y1="24.86" x2="494.06" y2="24.86"/>
    <line x1="494.06" y1="24.86" x2="494.06" y2="11.14"/>
    <line x1="494.06" y1="24.86" x2="495.17" y2="22.07"/>
    <line x1="495.17" y1="13.93" x2="498.43" y2="13.93"/>
    <line x1="498.43" y1="13.93" x2="498.43" y2="22.07"/>
    <line x1="498.43" y1="22.07" x2="495.17" y2="22.07"/>
    <line x1="495.17" y1="22.07" x2="495.17" y2="13.93"/>
  </g>
  <g stroke="#FF006E" stroke-width="1" fill="none" stroke-linecap="round">
    <line x1="504.00" y1="0.00" x2="518.40" y2="0.00"/>
    <line x1="518.40" y1="0.00" x2="518.40" y2="36.00"/>
    <line x1="518.40" y1="36.00" x2="504.00" y2="36.00"/>
    <line x1="504.00" y1="36.00" x2="504.00" y2="0.00"/>
    <line x1="504.00" y1="36.00" x2="505.11" y2="33.21"/>
    <line x1="505.11" y1="2.79" x2="517.29" y2="2.79"/>
    <line x1="517.29" y1="2.79" x2="517.29" y2="33.21"/>
    <line x1="517.29" y1="33.21" x2="505.11" y2="33.21"/>
    <line x1="505.11" y1="33.21" x2="505.11" y2="2.79"/>
    <line x1="505.11" y1="33.21" x2="506.23" y2="30.43"/>
    <line x1="506.23" y1="5.57" x2="516.17" y2="5.57"/>
    <line x1="516.17" y1="5.57" x2="516.17" y2="30.43"/>
    <line x1="516.17" y1="30.43" x2="506.23" y2="30.43"/>
    <line x1="506.23" y1="30.43" x2="506.23" y2="5.57"/>
    <line x1="506.23" y1="30.43" x2="507.34" y2="27.64"/>
    <line x1="507.34" y1="8.36" x2="515.06" y2="8.36"/>
    <line x1="515.06" y1="8.36" x2="515.06" y2="27.64"/>
    <line x1="515.06" y1="27.64" x2="507.34" y2="27.64"/>
    <line x1="507.34" y1="27.64" x2="507.34" y2="8.36"/>
    <line x1="507.34" y1="27.64" x2="508.46" y2="24.86"/>
    <line x1="508.46" y1="11.14" x2="513.94" y2="11.14"/>
    <line x1="513.94" y1="11.14" x2="513.94" y2="24.86"/>
    <line x1="513.94" y1="24.86" x2="508.46" y2="24.86"/>
    <line x1="508.46" y1="24.86" x2="508.46" y2="11.14"/>
    <line x1="508.46" y1="24.86" x2="509.57" y2="22.07"/>
    <line x1="509.57" y1="13.93" x2="512.83" y2="13.93"/>
    <line x1="512.83" y1="13.93" x2="512.83" y2="22.07"/>
    <line x1="512.83" y1="22.07" x2="509.57" y2="22.07"/>
    <line x1="509.57" y1="22.07" x2="509.57" y2="13.93"/>
  </g>
  <g stroke="#FF595E" stroke-width="1" fill="none" stroke-linecap="round">
    <line x1="530.73" y1="36.00" x2="530.47" y2="35.59"/>
    <line x1="527.48" y1="35.90" x2="527.44" y2="36.00"/>
    <line x1="532.32" y1="36.00" x2="530.15" y2="32.60"/>
    <line x1="527.17" y1="32.92" x2="526.01" y2="36.00"/>
    <line x1="519.58" y1="36.00" x2="518.40" y2="34.14"/>
    <line x1="532.80" y1="34.26" x2="529.84" y2="29.62"/>
    <line x1="526.85" y1="29.93" x2="524.58" y2="36.00"/>
    <line x1="521.18" y1="36.00" x2="518.40" y2="31.65"/>
    <line x1="532.80" y1="31.77" x2="529.52" y2="26.64"/>
    <line x1="526.54" y1="26.95" x2="524.18" y2="33.23"/>
    <line x1="521.20" y1="33.54" x2="518.40" y2="29.16"/>
    <line x1="532.80" y1="29.27" x2="529.21" y2="23.65"/>
    <line x1="526.23" y1="23.97" x2="523.87" y2="30.25"/>
    <line x1="520.89" y1="30.56" x2="518.40" y2="26.67"/>
    <line x1="532.51" y1="26.32" x2="528.90" y2="20.67"/>
    <line x1="525.91" y1="20.98" x2="523.56" y2="27.26"/>
    <line x1="520.57" y1="27.58" x2="518.40" y2="24.17"/>
    <line x1="532.19" y1="23.34" x2="528.58" y2="17.69"/>
    <line x1="525.60" y1="18.00" x2="523.24" y2="24.28"/>
    <line x1="520.26" y1="24.59" x2="518.40" y2="21.68"/>
    <line x1="531.88" y1="20.36" x2="528.27" y2="14.70"/>
    <line x1="525.29" y1="15.02" x2="522.93" y2="21.30"/>
    <line x1="519.95" y1="21.61" x2="518.40" y2="19.19"/>
    <line x1="531.57" y1="17.37" x2="527.96" y2="11.72"/>
    <line x1="524.97" y1="12.03" x2="522.62" y2="18.31"/>
    <line x1="519.63" y1="18.63" x2="518.40" y2="16.70"/>
    <line x1="531.25" y1="14.39" x2="527.64" y2="8.74"/>
    <line x1="524.66" y1="9.05" x2="522.30" y2="15.33"/>
    <line x1="519.32" y1="15.64" x2="518.40" y2="14.20"/>
    <line x1="530.94" y1="11.41" x2="527.33" y2="5.75"/>
    <line x1="524.35" y1="6.07" x2="521.99" y2="12.35"/>
    <line x1="519.01" y1="12.66" x2="518.40" y2="11.71"/>
    <line x1="530.63" y1="8.42" x2="527.02" y2="2.77"/>
    <line x1="524.03" y1="3.08" x2="521.68" y2="9.36"/>
    <line x1="518.69" y1="9.68" x2="518.40" y2="9.22"/>
    <line x1="530.31" y1="5.44" x2="526.84" y2="0.00"/>
    <line x1="523.72" y1="0.10" x2="521.36" y2="6.38"/>
    <line x1="530.00" y1="2.46" x2="528.43" y2="0.00"/>
    <line x1="522.32" y1="0.00" x2="521.05" y2="3.40"/>
    <line x1="520.89" y1="0.00" x2="520.73" y2="0.41"/>
  </g>
  <g stroke="#90BE6D" stroke-width="1" fill="none" stroke-linecap="round">
    <line x1="545.96" y1="0.00" x2="547.20" y2="7.00"/>
    <line x1="542.92" y1="0.00" x2="547.20" y2="24.28"/>
    <line x1="539.87" y1="0.00" x2="546.22" y2="36.00"/>
    <line x1="536.83" y1="0.00" x2="543.17" y2="36.00"/>
    <line x1="533.78" y1="0.00" x2="540.13" y2="36.00"/>
    <line x1="532.80" y1="11.72" x2="537.08" y2="36.00"/>
    <line x1="532.80" y1="29.00" x2="534.04" y2="36.00"/>
  </g>
  <g stroke="#FEE440" stroke-width="1" fill="none" stroke-linecap="round">
    <line x1="557.09" y1="0.00" x2="561.60" y2="1.38"/>
    <line x1="547.20" y1="0.11" x2="561.60" y2="4.52"/>
    <line x1="547.20" y1="3.25" x2="561.60" y2="7.65"/>
    <line x1="547.20" y1="6.39" x2="561.60" y2="10.79"/>
    <line x1="547.20" y1="9.52" x2="561.60" y2="13.93"/>
    <line x1="547.20" y1="12.66" x2="561.60" y2="17.06"/>
    <line x1="547.20" y1="15.80" x2="561.60" y2="20.20"/>
    <line x1="547.20" y1="18.94" x2="561.60" y2="23.34"/>
    <line x1="547.20" y1="22.07" x2="561.60" y2="26.48"/>
    <line x1="547.20" y1="25.21" x2="561.60" y2="29.61"/>
    <line x1="547.20" y1="28.35" x2="561.60" y2="32.75"/>
    <line x1="547.20" y1="31.48" x2="561.60" y2="35.89"/>
    <line x1="547.20" y1="34.62" x2="551.71" y2="36.00"/>
    <line x1="561.60" y1="35.49" x2="561.45" y2="36.00"/>
    <line x1="561.60" y1="25.23" x2="558.31" y2="36.00"/>
    <line x1="561.60" y1="14.97" x2="555.17" y2="36.00"/>
    <line x1="561.60" y1="4.71" x2="552.03" y2="36.00"/>
    <line x1="559.90" y1="0.00" x2="548.90" y2="36.00"/>
    <line x1="556.77" y1="0.00" x2="547.20" y2="31.29"/>
    <line x1="553.63" y1="-0.00" x2="547.20" y2="21.03"/>
    <line x1="550.49" y1="-0.00" x2="547.20" y2="10.77"/>
    <line x1="547.35" y1="0.00" x2="547.20" y2="0.51"/>
  </g>
  <g stroke="#7209B7" stroke-width="1" fill="none" stroke-linecap="round">
    <line x1="576.00" y1="35.96" x2="573.04" y2="34.97"/>
    <line x1="576.00" y1="34.54" x2="570.92" y2="32.85"/>
    <line x1="568.80" y1="34.97" x2="569.14" y2="36.00"/>
    <line x1="575.16" y1="24.36" x2="576.00" y2="26.87"/>
    <line x1="575.16" y1="32.85" x2="568.80" y2="30.73"/>
    <line x1="566.68" y1="32.85" x2="567.73" y2="36.00"/>
    <line x1="576.00" y1="20.40" x2="575.16" y2="20.12"/>
    <line x1="573.04" y1="22.24" x2="575.16" y2="28.61"/>
    <line x1="573.04" y1="30.73" x2="566.68" y2="28.61"/>
    <line x1="564.56" y1="30.73" x2="566.31" y2="36.00"/>
    <line x1="576.00" y1="18.99" x2="573.04" y2="18.00"/>
    <line x1="570.92" y1="20.12" x2="573.04" y2="26.49"/>
    <line x1="570.92" y1="28.61" x2="564.56" y2="26.49"/>
    <line x1="562.44" y1="28.61" x2="564.56" y2="34.97"/>
    <line x1="576.00" y1="17.57" x2="570.92" y2="15.88"/>
    <line x1="568.80" y1="18.00" x2="570.92" y2="24.36"/>
    <line x1="568.80" y1="26.49" x2="562.44" y2="24.36"/>
    <line x1="561.60" y1="30.34" x2="562.44" y2="32.85"/>
    <line x1="575.16" y1="7.39" x2="576.00" y2="9.90"/>
    <line x1="575.16" y1="15.88" x2="568.80" y2="13.76"/>
    <line x1="566.68" y1="15.88" x2="568.80" y2="22.24"/>
    <line x1="566.68" y1="24.36" x2="561.60" y2="22.67"/>
    <line x1="576.00" y1="3.43" x2="575.16" y2="3.15"/>
    <line x1="573.04" y1="5.27" x2="575.16" y2="11.64"/>
    <line x1="573.04" y1="13.76" x2="566.68" y2="11.64"/>
    <line x1="564.56" y1="13.76" x2="566.68" y2="20.12"/>
    <line x1="564.56" y1="22.24" x2="561.60" y2="21.26"/>
    <line x1="576.00" y1="2.02" x2="573.04" y2="1.03"/>
    <line x1="570.92" y1="3.15" x2="573.04" y2="9.51"/>
    <line x1="570.92" y1="11.64" x2="564.56" y2="9.51"/>
    <line x1="562.44" y1="11.64" x2="564.56" y2="18.00"/>
    <line x1="562.44" y1="20.12" x2="561.60" y2="19.84"/>
    <line x1="576.00" y1="0.60" x2="574.20" y2="0.00"/>
    <line x1="568.80" y1="1.03" x2="570.92" y2="7.39"/>
    <line x1="568.80" y1="9.51" x2="562.44" y2="7.39"/>
    <line x1="561.60" y1="13.37" x2="562.44" y2="15.88"/>
    <line x1="567.04" y1="0.00" x2="568.80" y2="5.27"/>
    <line x1="566.68" y1="7.39" x2="561.60" y2="5.70"/>
    <line x1="565.63" y1="0.00" x2="566.68" y2="3.15"/>
    <line x1="564.56" y1="5.27" x2="561.60" y2="4.29"/>
    <line x1="564.21" y1="0.00" x2="564.56" y2="1.03"/>
    <line x1="562.44" y1="3.15" x2="561.60" y2="2.87"/>
  </g>
  <g stroke="#F15BB5" stroke-width="1" fill="none" stroke-linecap="round">
    <line x1="590.09" y1="0.00" x2="590.40" y2="0.15"/>
    <line x1="585.99" y1="0.00" x2="590.40" y2="2.15"/>
    <line x1="576.00" y1="1.80" x2="590.40" y2="8.83"/>
    <line x1="576.00" y1="3.81" x2="590.40" y2="10.83"/>
    <line x1="576.00" y1="5.81" x2="590.40" y2="12.83"/>
    <line x1="576.00" y1="12.49" x2="590.40" y2="19.51"/>
    <line x1="576.00" y1="14.49" x2="590.40" y2="21.51"/>
    <line x1="576.00" y1="16.49" x2="590.40" y2="23.51"/>
    <line x1="576.00" y1="23.17" x2="590.40" y2="30.19"/>
    <line x1="576.00" y1="25.17" x2="590.40" y2="32.19"/>
    <line x1="576.00" y1="27.17" x2="590.40" y2="34.20"/>
    <line x1="576.00" y1="33.85" x2="580.41" y2="36.00"/>
    <line x1="576.00" y1="35.85" x2="576.31" y2="36.00"/>
  </g>
  <g stroke="#6A4C93" stroke-width="1" fill="none" stroke-linecap="round">
    <line x1="602.23" y1="-0.00" x2="604.80" y2="1.80"/>
    <line x1="591.77" y1="0.00" x2="604.80" y2="9.12"/>
    <line x1="590.40" y1="1.24" x2="604.80" y2="11.32"/>
    <line x1="590.40" y1="3.44" x2="604.80" y2="13.52"/>
    <line x1="590.40" y1="10.76" x2="604.80" y2="20.84"/>
    <line x1="590.40" y1="12.96" x2="604.80" y2="23.04"/>
    <line x1="590.40" y1="15.16" x2="604.80" y2="25.24"/>
    <line x1="590.40" y1="22.48" x2="604.80" y2="32.56"/>
    <line x1="590.40" y1="24.68" x2="604.80" y2="34.76"/>
    <line x1="590.40" y1="26.88" x2="603.43" y2="36.00"/>
    <line x1="590.40" y1="34.20" x2="592.97" y2="36.00"/>
  </g>
  <g stroke="#FB5607" stroke-width="1" fill="none" stroke-linecap="round">
    <line x1="619.20" y1="35.92" x2="619.04" y2="36.00"/>
    <line x1="619.20" y1="33.88" x2="615.21" y2="36.00"/>
    <line x1="619.20" y1="27.08" x2="604.80" y2="34.74"/>
    <line x1="619.20" y1="25.04" x2="604.80" y2="32.70"/>
    <line x1="619.20" y1="23.01" x2="604.80" y2="30.66"/>
    <line x1="619.20" y1="16.21" x2="604.80" y2="23.87"/>
    <line x1="619.20" y1="14.17" x2="604.80" y2="21.83"/>
    <line x1="619.20" y1="12.13" x2="604.80" y2="19.79"/>
    <line x1="619.20" y1="5.34" x2="604.80" y2="12.99"/>
    <line x1="619.20" y1="3.30" x2="604.80" y2="10.96"/>
    <line x1="619.20" y1="1.26" x2="604.80" y2="8.92"/>
    <line x1="608.79" y1="-0.00" x2="604.80" y2="2.12"/>
    <line x1="604.96" y1="-0.00" x2="604.80" y2="0.08"/>
  </g>
  <g stroke="#F4A261" stroke-width="1" fill="none" stroke-linecap="round">
    <line x1="633.60" y1="34.59" x2="631.06" y2="36.00"/>
    <line x1="633.60" y1="31.16" x2="624.87" y2="36.00"/>
    <line x1="633.60" y1="27.73" x2="619.20" y2="35.71"/>
    <line x1="633.60" y1="24.30" x2="619.20" y2="32.28"/>
    <line x1="633.60" y1="20.87" x2="619.20" y2="28.85"/>
    <line x1="633.60" y1="17.44" x2="619.20" y2="25.42"/>
    <line x1="633.60" y1="14.01" x2="619.20" y2="21.99"/>
    <line x1="633.60" y1="10.58" x2="619.20" y2="18.56"/>
    <line x1="633.60" y1="7.15" x2="619.20" y2="15.13"/>
    <line x1="633.60" y1="3.72" x2="619.20" y2="11.70"/>
    <line x1="633.60" y1="0.29" x2="619.20" y2="8.27"/>
    <line x1="627.93" y1="0.00" x2="619.20" y2="4.84"/>
    <line x1="621.74" y1="0.00" x2="619.20" y2="1.41"/>
  </g>
  <g stroke="#9EF01A" stroke-width="1" fill="none" stroke-linecap="round">
    <line x1="648.00" y1="30.30" x2="646.79" y2="36.00"/>
    <line x1="648.00" y1="21.64" x2="644.95" y2="36.00"/>
    <line x1="646.47" y1="-0.00" x2="638.81" y2="36.00"/>
    <line x1="644.63" y1="0.00" x2="636.97" y2="36.00"/>
    <line x1="642.79" y1="-0.00" x2="635.13" y2="36.00"/>
    <line x1="636.65" y1="0.00" x2="633.60" y2="14.36"/>
    <line x1="634.81" y1="0.00" x2="633.60" y2="5.70"/>
  </g>
  <g stroke="#6A4C93" stroke-width="1" fill="none" stroke-linecap="round">
    <line x1="659.69" y1="0.00" x2="662.40" y2="1.44"/>
    <line x1="653.30" y1="0.00" x2="662.40" y2="4.84"/>
    <line x1="648.00" y1="0.58" x2="662.40" y2="8.24"/>
    <line x1="648.00" y1="3.98" x2="662.40" y2="11.64"/>
    <line x1="648.00" y1="7.38" x2="662.40" y2="15.03"/>
    <line x1="648.00" y1="10.77" x2="662.40" y2="18.43"/>
    <line x1="648.00" y1="14.17" x2="662.40" y2="21.83"/>
    <line x1="648.00" y1="17.57" x2="662.40" y2="25.23"/>
    <line x1="648.00" y1="20.97" x2="662.40" y2="28.62"/>
    <line x1="648.00" y1="24.36" x2="662.40" y2="32.02"/>
    <line x1="648.00" y1="27.76" x2="662.40" y2="35.42"/>
    <line x1="648.00" y1="31.16" x2="657.10" y2="36.00"/>
    <line x1="648.00" y1="34.56" x2="650.71" y2="36.00"/>
    <line x1="662.40" y1="30.02" x2="659.22" y2="36.00"/>
    <line x1="662.40" y1="23.63" x2="655.82" y2="36.00"/>
    <line x1="662.40" y1="17.24" x2="652.42" y2="36.00"/>
    <line x1="662.40" y1="10.85" x2="649.03" y2="36.00"/>
    <line x1="662.40" y1="4.46" x2="648.00" y2="31.54"/>
    <line x1="661.37" y1="0.00" x2="648.00" y2="25.15"/>
    <line x1="657.98" y1="0.00" x2="648.00" y2="18.76"/>
    <line x1="654.58" y1="0.00" x2="648.00" y2="12.37"/>
    <line x1="651.18" y1="0.00" x2="648.00" y2="5.98"/>
  </g>
  <g stroke="#FFCA3A" stroke-width="1" fill="none" stroke-linecap="round">
    <line x1="676.80" y1="27.54" x2="672.46" y2="19.71"/>
    <line x1="666.81" y1="36.00" x2="670.32" y2="34.05"/>
    <line x1="662.40" y1="21.99" x2="676.80" y2="14.01"/>
    <line x1="668.88" y1="1.95" x2="672.39" y2="0.00"/>
    <line x1="666.74" y1="16.29" x2="662.40" y2="8.46"/>
  </g>
  <g stroke="#E63946" stroke-width="1" fill="none" stroke-linecap="round">
    <line x1="691.20" y1="31.03" x2="676.80" y2="31.78"/>
    <line x1="691.20" y1="25.02" x2="676.80" y2="25.77"/>
    <line x1="691.20" y1="19.01" x2="676.80" y2="19.77"/>
    <line x1="691.20" y1="13.00" x2="676.80" y2="13.76"/>
    <line x1="691.20" y1="6.99" x2="676.80" y2="7.75"/>
    <line x1="691.20" y1="0.99" x2="676.80" y2="1.74"/>
    <line x1="691.20" y1="14.25" x2="690.45" y2="0.00"/>
    <line x1="686.33" y1="36.00" x2="684.45" y2="0.00"/>
    <line x1="680.32" y1="36.00" x2="678.44" y2="0.00"/>
  </g>
  <g stroke="#FB5607" stroke-width="1" fill="none" stroke-linecap="round">
    <line x1="699.88" y1="1.09" x2="704.46" y2="0.00"/>
    <line x1="695.97" y1="0.00" x2="695.65" y2="0.72"/>
    <line x1="697.58" y1="3.02" x2="704.11" y2="1.46"/>
    <line x1="705.60" y1="4.76" x2="703.37" y2="9.92"/>
    <line x1="705.29" y1="12.21" x2="705.60" y2="12.14"/>
    <line x1="694.50" y1="0.00" x2="693.35" y2="2.65"/>
    <line x1="695.28" y1="4.95" x2="701.81" y2="3.39"/>
    <line x1="703.74" y1="5.69" x2="701.07" y2="11.85"/>
    <line x1="703.00" y1="14.14" x2="705.60" y2="13.52"/>
    <line x1="693.04" y1="0.00" x2="691.20" y2="4.25"/>
    <line x1="692.98" y1="6.88" x2="699.51" y2="5.32"/>
    <line x1="701.44" y1="7.62" x2="698.77" y2="13.77"/>
    <line x1="700.70" y1="16.07" x2="705.60" y2="14.90"/>
    <line x1="691.43" y1="0.35" x2="691.20" y2="0.88"/>
    <line x1="691.20" y1="8.68" x2="697.21" y2="7.25"/>
    <line x1="699.14" y1="9.55" x2="696.47" y2="15.70"/>
    <line x1="698.40" y1="18.00" x2="704.92" y2="16.44"/>
    <line x1="705.60" y1="21.63" x2="704.19" y2="24.89"/>
    <line x1="691.20" y1="10.06" x2="694.91" y2="9.18"/>
    <line x1="696.84" y1="11.48" x2="694.17" y2="17.63"/>
    <line x1="696.10" y1="19.93" x2="702.63" y2="18.37"/>
    <line x1="704.55" y1="20.67" x2="701.89" y2="26.82"/>
    <line x1="703.82" y1="29.12" x2="705.60" y2="28.69"/>
    <line x1="691.20" y1="11.44" x2="692.61" y2="11.11"/>
    <line x1="694.54" y1="13.40" x2="691.88" y2="19.56"/>
    <line x1="693.80" y1="21.86" x2="700.33" y2="20.30"/>
    <line x1="702.26" y1="22.60" x2="699.59" y2="28.75"/>
    <line x1="701.52" y1="31.05" x2="705.60" y2="30.07"/>
    <line x1="692.25" y1="15.33" x2="691.20" y2="17.74"/>
    <line x1="691.51" y1="23.79" x2="698.03" y2="22.23"/>
    <line x1="699.96" y1="24.52" x2="697.29" y2="30.68"/>
    <line x1="699.22" y1="32.98" x2="705.60" y2="31.45"/>
    <line x1="691.20" y1="25.24" x2="695.73" y2="24.15"/>
    <line x1="697.66" y1="26.45" x2="694.99" y2="32.61"/>
    <line x1="696.92" y1="34.91" x2="703.45" y2="33.35"/>
    <line x1="705.37" y1="35.65" x2="705.22" y2="36.00"/>
    <line x1="691.20" y1="26.62" x2="693.43" y2="26.08"/>
    <line x1="695.36" y1="28.38" x2="692.69" y2="34.54"/>
    <line x1="698.12" y1="36.00" x2="701.15" y2="35.28"/>
    <line x1="693.06" y1="30.31" x2="691.20" y2="34.61"/>
  </g>
  <g stroke="#00B4D8" stroke-width="1" fill="none" stroke-linecap="round">
    <line x1="705.60" y1="0.00" x2="720.00" y2="0.00"/>
    <line x1="720.00" y1="0.00" x2="720.00" y2="36.00"/>
    <line x1="720.00" y1="36.00" x2="705.60" y2="36.00"/>
    <line x1="705.60" y1="36.00" x2="705.60" y2="0.00"/>
    <line x1="705.60" y1="36.00" x2="706.71" y2="33.21"/>
    <line x1="706.71" y1="2.79" x2="718.89" y2="2.79"/>
    <line x1="718.89" y1="2.79" x2="718.89" y2="33.21"/>
    <line x1="718.89" y1="33.21" x2="706.71" y2="33.21"/>
    <line x1="706.71" y1="33.21" x2="706.71" y2="2.79"/>
    <line x1="706.71" y1="33.21" x2="707.83" y2="30.43"/>
    <line x1="707.83" y1="5.57" x2="717.77" y2="5.57"/>
    <line x1="717.77" y1="5.57" x2="717.77" y2="30.43"/>
    <line x1="717.77" y1="30.43" x2="707.83" y2="30.43"/>
    <line x1="707.83" y1="30.43" x2="707.83" y2="5.57"/>
    <line x1="707.83" y1="30.43" x2="708.94" y2="27.64"/>
    <line x1="708.94" y1="8.36" x2="716.66" y2="8.36"/>
    <line x1="716.66" y1="8.36" x2="716.66" y2="27.64"/>
    <line x1="716.66" y1="27.64" x2="708.94" y2="27.64"/>
    <line x1="708.94" y1="27.64" x2="708.94" y2="8.36"/>
    <line x1="708.94" y1="27.64" x2="710.06" y2="24.86"/>
    <line x1="710.06" y1="11.14" x2="715.54" y2="11.14"/>
    <line x1="715.54" y1="11.14" x2="715.54" y2="24.86"/>
    <line x1="715.54" y1="24.86" x2="710.06" y2="24.86"/>
    <line x1="710.06" y1="24.86" x2="710.06" y2="11.14"/>
    <line x1="710.06" y1="24.86" x2="711.17" y2="22.07"/>
    <line x1="711.17" y1="13.93" x2="714.43" y2="13.93"/>
    <line x1="714.43" y1="13.93" x2="714.43" y2="22.07"/>
    <line x1="714.43" y1="22.07" x2="711.17" y2="22.07"/>
    <line x1="711.17" y1="22.07" x2="711.17" y2="13.93"/>
  </g>
  <g stroke="#FFCA3A" stroke-width="1" fill="none" stroke-linecap="round">
    <line x1="720.00" y1="0.00" x2="734.40" y2="0.00"/>
    <line x1="734.40" y1="0.00" x2="734.40" y2="36.00"/>
    <line x1="734.40" y1="36.00" x2="720.00" y2="36.00"/>
    <line x1="720.00" y1="36.00" x2="720.00" y2="0.00"/>
    <line x1="720.00" y1="36.00" x2="721.11" y2="33.21"/>
    <line x1="721.11" y1="2.79" x2="733.29" y2="2.79"/>
    <line x1="733.29" y1="2.79" x2="733.29" y2="33.21"/>
    <line x1="733.29" y1="33.21" x2="721.11" y2="33.21"/>
    <line x1="721.11" y1="33.21" x2="721.11" y2="2.79"/>
    <line x1="721.11" y1="33.21" x2="722.23" y2="30.43"/>
    <line x1="722.23" y1="5.57" x2="732.17" y2="5.57"/>
    <line x1="732.17" y1="5.57" x2="732.17" y2="30.43"/>
    <line x1="732.17" y1="30.43" x2="722.23" y2="30.43"/>
    <line x1="722.23" y1="30.43" x2="722.23" y2="5.57"/>
    <line x1="722.23" y1="30.43" x2="723.34" y2="27.64"/>
    <line x1="723.34" y1="8.36" x2="731.06" y2="8.36"/>
    <line x1="731.06" y1="8.36" x2="731.06" y2="27.64"/>
    <line x1="731.06" y1="27.64" x2="723.34" y2="27.64"/>
    <line x1="723.34" y1="27.64" x2="723.34" y2="8.36"/>
    <line x1="723.34" y1="27.64" x2="724.46" y2="24.86"/>
    <line x1="724.46" y1="11.14" x2="729.94" y2="11.14"/>
    <line x1="729.94" y1="11.14" x2="729.94" y2="24.86"/>
    <line x1="729.94" y1="24.86" x2="724.46" y2="24.86"/>
    <line x1="724.46" y1="24.86" x2="724.46" y2="11.14"/>
    <line x1="724.46" y1="24.86" x2="725.57" y2="22.07"/>
    <line x1="725.57" y1="13.93" x2="728.83" y2="13.93"/>
    <line x1="728.83" y1="13.93" x2="728.83" y2="22.07"/>
    <line x1="728.83" y1="22.07" x2="725.57" y2="22.07"/>
    <line x1="725.57" y1="22.07" x2="725.57" y2="13.93"/>
  </g>
  <g stroke="#9B5DE5" stroke-width="1" fill="none" stroke-linecap="round">
    <line x1="748.67" y1="-0.00" x2="748.80" y2="7.25"/>
    <line x1="742.67" y1="0.00" x2="743.30" y2="36.00"/>
    <line x1="736.67" y1="0.00" x2="737.30" y2="36.00"/>
    <line x1="748.80" y1="4.49" x2="734.40" y2="4.74"/>
    <line x1="748.80" y1="10.49" x2="734.40" y2="10.74"/>
    <line x1="748.80" y1="16.49" x2="734.40" y2="16.74"/>
    <line x1="748.80" y1="22.49" x2="734.40" y2="22.74"/>
    <line x1="748.80" y1="28.49" x2="734.40" y2="28.74"/>
    <line x1="748.80" y1="34.49" x2="734.40" y2="34.74"/>
  </g>
  <g stroke="#FEE440" stroke-width="1" fill="none" stroke-linecap="round">
    <line x1="763.20" y1="30.92" x2="748.80" y2="31.92"/>
    <line x1="763.20" y1="24.90" x2="748.80" y2="25.91"/>
    <line x1="763.20" y1="18.89" x2="748.80" y2="19.89"/>
    <line x1="763.20" y1="12.87" x2="748.80" y2="13.88"/>
    <line x1="763.20" y1="6.86" x2="748.80" y2="7.86"/>
    <line x1="763.20" y1="0.84" x2="748.80" y2="1.85"/>
    <line x1="763.20" y1="15.07" x2="762.15" y2="0.00"/>
    <line x1="758.65" y1="36.00" x2="756.13" y2="0.00"/>
    <line x1="752.63" y1="36.00" x2="750.12" y2="0.00"/>
  </g>
  <g stroke="#9EF01A" stroke-width="1" fill="none" stroke-linecap="round">
    <line x1="777.60" y1="30.51" x2="763.20" y2="32.53"/>
    <line x1="777.60" y1="24.45" x2="763.20" y2="26.47"/>
    <line x1="777.60" y1="18.39" x2="763.20" y2="20.41"/>
    <line x1="777.60" y1="12.33" x2="763.20" y2="14.35"/>
    <line x1="777.60" y1="6.27" x2="763.20" y2="8.29"/>
    <line x1="777.60" y1="0.21" x2="763.20" y2="2.24"/>
    <line x1="777.60" y1="16.16" x2="775.33" y2="-0.00"/>
    <line x1="774.33" y1="36.00" x2="769.27" y2="0.00"/>
    <line x1="768.27" y1="36.00" x2="763.21" y2="0.00"/>
  </g>
  <g stroke="#FF006E" stroke-width="1" fill="none" stroke-linecap="round">
    <line x1="777.60" y1="0.00" x2="792.00" y2="0.00"/>
    <line x1="792.00" y1="0.00" x2="792.00" y2="36.00"/>
    <line x1="792.00" y1="36.00" x2="777.60" y2="36.00"/>
    <line x1="777.60" y1="36.00" x2="777.60" y2="0.00"/>
    <line x1="777.60" y1="36.00" x2="778.71" y2="33.21"/>
    <line x1="778.71" y1="2.79" x2="790.89" y2="2.79"/>
    <line x1="790.89" y1="2.79" x2="790.89" y2="33.21"/>
    <line x1="790.89" y1="33.21" x2="778.71" y2="33.21"/>
    <line x1="778.71" y1="33.21" x2="778.71" y2="2.79"/>
    <line x1="778.71" y1="33.21" x2="779.83" y2="30.43"/>
    <line x1="779.83" y1="5.57" x2="789.77" y2="5.57"/>
    <line x1="789.77" y1="5.57" x2="789.77" y2="30.43"/>
    <line x1="789.77" y1="30.43" x2="779.83" y2="30.43"/>
    <line x1="779.83" y1="30.43" x2="779.83" y2="5.57"/>
    <line x1="779.83" y1="30.43" x2="780.94" y2="27.64"/>
    <line x1="780.94" y1="8.36" x2="788.66" y2="8.36"/>
    <line x1="788.66" y1="8.36" x2="788.66" y2="27.64"/>
    <line x1="788.66" y1="27.64" x2="780.94" y2="27.64"/>
    <line x1="780.94" y1="27.64" x2="780.94" y2="8.36"/>
    <line x1="780.94" y1="27.64" x2="782.06" y2="24.86"/>
    <line x1="782.06" y1="11.14" x2="787.54" y2="11.14"/>
    <line x1="787.54" y1="11.14" x2="787.54" y2="24.86"/>
    <line x1="787.54" y1="24.86" x2="782.06" y2="24.86"/>
    <line x1="782.06" y1="24.86" x2="782.06" y2="11.14"/>
    <line x1="782.06" y1="24.86" x2="783.17" y2="22.07"/>
    <line x1="783.17" y1="13.93" x2="786.43" y2="13.93"/>
    <line x1="786.43" y1="13.93" x2="786.43" y2="22.07"/>
    <line x1="786.43" y1="22.07" x2="783.17" y2="22.07"/>
    <line x1="783.17" y1="22.07" x2="783.17" y2="13.93"/>
  </g>
  <g stroke="#90BE6D" stroke-width="1" fill="none" stroke-linecap="round">
    <line x1="806.40" y1="25.90" x2="803.69" y2="36.00"/>
    <line x1="806.40" y1="14.31" x2="800.59" y2="36.00"/>
    <line x1="806.40" y1="2.72" x2="797.48" y2="36.00"/>
    <line x1="804.02" y1="0.00" x2="794.38" y2="36.00"/>
    <line x1="800.92" y1="0.00" x2="792.00" y2="33.28"/>
    <line x1="797.81" y1="0.00" x2="792.00" y2="21.69"/>
    <line x1="794.71" y1="0.00" x2="792.00" y2="10.10"/>
  </g>
  <g stroke="#E9C46A" stroke-width="1" fill="none" stroke-linecap="round">
    <line x1="808.91" y1="7.27" x2="820.80" y2="6.65"/>
    <line x1="813.13" y1="9.01" x2="814.07" y2="26.99"/>
    <line x1="806.40" y1="29.35" x2="818.29" y2="28.73"/>
  </g>
  <g stroke="#00B4D8" stroke-width="1" fill="none" stroke-linecap="round">
    <line x1="831.47" y1="0.00" x2="835.20" y2="3.86"/>
    <line x1="827.30" y1="-0.00" x2="835.20" y2="8.18"/>
    <line x1="823.13" y1="0.00" x2="835.20" y2="12.50"/>
    <line x1="820.80" y1="1.91" x2="835.20" y2="16.82"/>
    <line x1="820.80" y1="6.23" x2="835.20" y2="21.14"/>
    <line x1="820.80" y1="10.54" x2="835.20" y2="25.46"/>
    <line x1="820.80" y1="14.86" x2="835.20" y2="29.77"/>
    <line x1="820.80" y1="19.18" x2="835.20" y2="34.09"/>
    <line x1="820.80" y1="23.50" x2="832.87" y2="36.00"/>
    <line x1="820.80" y1="27.82" x2="828.70" y2="36.00"/>
    <line x1="820.80" y1="32.14" x2="824.53" y2="36.00"/>
  </g>
  <g stroke="#FF595E" stroke-width="1" fill="none" stroke-linecap="round">
    <line x1="848.62" y1="0.00" x2="849.60" y2="2.70"/>
    <line x1="845.43" y1="0.00" x2="849.60" y2="11.47"/>
    <line x1="842.23" y1="-0.00" x2="849.60" y2="20.24"/>
    <line x1="839.04" y1="0.00" x2="849.60" y2="29.01"/>
    <line x1="835.85" y1="0.00" x2="848.95" y2="36.00"/>
    <line x1="835.20" y1="6.99" x2="845.76" y2="36.00"/>
    <line x1="835.20" y1="15.76" x2="842.57" y2="36.00"/>
    <line x1="835.20" y1="24.53" x2="839.37" y2="36.00"/>
    <line x1="835.20" y1="33.30" x2="836.18" y2="36.00"/>
  </g>
  <g stroke="#90BE6D" stroke-width="1" fill="none" stroke-linecap="round">
    <line x1="864.00" y1="27.48" x2="857.81" y2="36.00"/>
    <line x1="864.00" y1="24.42" x2="855.59" y2="36.00"/>
    <line x1="864.00" y1="21.36" x2="853.36" y2="36.00"/>
    <line x1="864.00" y1="11.15" x2="849.60" y2="30.97"/>
    <line x1="864.00" y1="8.09" x2="849.60" y2="27.91"/>
    <line x1="864.00" y1="5.03" x2="849.60" y2="24.85"/>
    <line x1="860.24" y1="0.00" x2="849.60" y2="14.64"/>
    <line x1="858.01" y1="0.00" x2="849.60" y2="11.58"/>
    <line x1="855.79" y1="0.00" x2="849.60" y2="8.52"/>
  </g>
</svg>
