<?xml version="1.0" encoding="UTF-8"?>
<svg xmlns="http://www.w3.org/2000/svg"
     width="864.00" height="36.00"
     viewBox="0 0 864.00 36.00">
  <title>Pattern Banner - rat-king</title>
  <desc>Randomized pattern strip with 60 cells</desc>
  <rect width="100%" height="100%" fill="white"/>
  <g stroke="#4CC9F0" stroke-width="1" fill="none" stroke-linecap="round">
    <line x1="9.57" y1="0.00" x2="14.40" y2="1.29"/>
    <line x1="0.00" y1="0.54" x2="14.40" y2="4.40"/>
    <line x1="0.00" y1="3.65" x2="14.40" y2="7.51"/>
    <line x1="0.00" y1="6.75" x2="14.40" y2="10.61"/>
    <line x1="-0.00" y1="9.86" x2="14.40" y2="13.72"/>
    <line x1="0.00" y1="12.96" x2="14.40" y2="16.82"/>
    <line x1="-0.00" y1="16.07" x2="14.40" y2="19.93"/>
    <line x1="0.00" y1="19.18" x2="14.40" y2="23.04"/>
    <line x1="0.00" y1="22.28" x2="14.40" y2="26.14"/>
    <line x1="0.00" y1="25.39" x2="14.40" y2="29.25"/>
    <line x1="-0.00" y1="28.49" x2="14.40" y2="32.35"/>
    <line x1="0.00" y1="31.60" x2="14.40" y2="35.46"/>
    <line x1="0.00" y1="34.71" x2="4.83" y2="36.00"/>
  </g>
  <g stroke="#9B5DE5" stroke-width="1" fill="none" stroke-linecap="round">
    <line x1="28.80" y1="26.82" x2="26.68" y2="36.00"/>
    <line x1="28.80" y1="13.49" x2="23.60" y2="36.00"/>
    <line x1="28.80" y1="0.15" x2="20.52" y2="36.00"/>
    <line x1="25.76" y1="0.00" x2="17.44" y2="36.00"/>
    <line x1="22.68" y1="0.00" x2="14.40" y2="35.85"/>
    <line x1="19.60" y1="0.00" x2="14.40" y2="22.51"/>
    <line x1="16.52" y1="0.00" x2="14.40" y2="9.18"/>
  </g>
  <g stroke="#EF476F" stroke-width="1" fill="none" stroke-linecap="round">
    <line x1="28.80" y1="0.00" x2="43.20" y2="0.00"/>
    <line x1="43.20" y1="0.00" x2="43.20" y2="36.00"/>
    <line x1="43.20" y1="36.00" x2="28.80" y2="36.00"/>
    <line x1="28.80" y1="36.00" x2="28.80" y2="0.00"/>
    <line x1="28.80" y1="36.00" x2="29.91" y2="33.21"/>
    <line x1="29.91" y1="2.79" x2="42.09" y2="2.79"/>
    <line x1="42.09" y1="2.79" x2="42.09" y2="33.21"/>
    <line x1="42.09" y1="33.21" x2="29.91" y2="33.21"/>
    <line x1="29.91" y1="33.21" x2="29.91" y2="2.79"/>
    <line x1="29.91" y1="33.21" x2="31.03" y2="30.43"/>
    <line x1="31.03" y1="5.57" x2="40.97" y2="5.57"/>
    <line x1="40.97" y1="5.57" x2="40.97" y2="30.43"/>
    <line x1="40.97" y1="30.43" x2="31.03" y2="30.43"/>
    <line x1="31.03" y1="30.43" x2="31.03" y2="5.57"/>
    <line x1="31.03" y1="30.43" x2="32.14" y2="27.64"/>
    <line x1="32.14" y1="8.36" x2="39.86" y2="8.36"/>
    <line x1="39.86" y1="8.36" x2="39.86" y2="27.64"/>
    <line x1="39.86" y1="27.64" x2="32.14" y2="27.64"/>
    <line x1="32.14" y1="27.64" x2="32.14" y2="8.36"/>
    <line x1="32.14" y1="27.64" x2="33.26" y2="24.86"/>
    <line x1="33.26" y1="11.14" x2="38.74" y2="11.14"/>
    <line x1="38.74" y1="11.14" x2="38.74" y2="24.86"/>
    <line x1="38.74" y1="24.86" x2="33.26" y2="24.86"/>
    <line x1="33.26" y1="24.86" x2="33.26" y2="11.14"/>
    <line x1="33.26" y1="24.86" x2="34.37" y2="22.07"/>
    <line x1="34.37" y1="13.93" x2="37.63" y2="13.93"/>
    <line x1="37.63" y1="13.93" x2="37.63" y2="22.07"/>
    <line x1="37.63" y1="22.07" x2="34.37" y2="22.07"/>
    <line x1="34.37" y1="22.07" x2="34.37" y2="13.93"/>
  </g>
  <g stroke="#FF006E" stroke-width="1" fill="none" stroke-linecap="round">
    <line x1="57.60" y1="30.81" x2="43.20" y2="32.07"/>
    <line x1="57.60" y1="24.78" x2="43.20" y2="26.04"/>
    <line x1="57.60" y1="18.76" x2="43.20" y2="20.02"/>
    <line x1="57.60" y1="12.74" x2="43.20" y2="14.00"/>
    <line x1="57.60" y1="6.72" x2="43.20" y2="7.98"/>
    <line x1="57.60" y1="0.69" x2="43.20" y2="1.95"/>
    <line x1="57.60" y1="15.54" x2="56.24" y2="-0.00"/>
    <line x1="53.37" y1="36.00" x2="50.22" y2="0.00"/>
    <line x1="47.34" y1="36.00" x2="44.19" y2="0.00"/>
  </g>
  <g stroke="#073B4C" stroke-width="1" fill="none" stroke-linecap="round">
    <line x1="57.60" y1="0.00" x2="72.00" y2="0.00"/>
    <line x1="72.00" y1="0.00" x2="72.00" y2="36.00"/>
    <line x1="72.00" y1="36.00" x2="57.60" y2="36.00"/>
    <line x1="57.60" y1="36.00" x2="57.60" y2="0.00"/>
    <line x1="57.60" y1="36.00" x2="58.71" y2="33.21"/>
    <line x1="58.71" y1="2.79" x2="70.89" y2="2.79"/>
    <line x1="70.89" y1="2.79" x2="70.89" y2="33.21"/>
    <line x1="70.89" y1="33.21" x2="58.71" y2="33.21"/>
    <line x1="58.71" y1="33.21" x2="58.71" y2="2.79"/>
    <line x1="58.71" y1="33.21" x2="59.83" y2="30.43"/>
    <line x1="59.83" y1="5.57" x2="69.77" y2="5.57"/>
    <line x1="69.77" y1="5.57" x2="69.77" y2="30.43"/>
    <line x1="69.77" y1="30.43" x2="59.83" y2="30.43"/>
    <line x1="59.83" y1="30.43" x2="59.83" y2="5.57"/>
    <line x1="59.83" y1="30.43" x2="60.94" y2="27.64"/>
    <line x1="60.94" y1="8.36" x2="68.66" y2="8.36"/>
    <line x1="68.66" y1="8.36" x2="68.66" y2="27.64"/>
    <line x1="68.66" y1="27.64" x2="60.94" y2="27.64"/>
    <line x1="60.94" y1="27.64" x2="60.94" y2="8.36"/>
    <line x1="60.94" y1="27.64" x2="62.06" y2="24.86"/>
    <line x1="62.06" y1="11.14" x2="67.54" y2="11.14"/>
    <line x1="67.54" y1="11.14" x2="67.54" y2="24.86"/>
    <line x1="67.54" y1="24.86" x2="62.06" y2="24.86"/>
    <line x1="62.06" y1="24.86" x2="62.06" y2="11.14"/>
    <line x1="62.06" y1="24.86" x2="63.17" y2="22.07"/>
    <line x1="63.17" y1="13.93" x2="66.43" y2="13.93"/>
    <line x1="66.43" y1="13.93" x2="66.43" y2="22.07"/>
    <line x1="66.43" y1="22.07" x2="63.17" y2="22.07"/>
    <line x1="63.17" y1="22.07" x2="63.17" y2="13.93"/>
  </g>
  <g stroke="#FB5607" stroke-width="1" fill="none" stroke-linecap="round">
    <line x1="85.83" y1="2.38" x2="86.40" y2="2.42"/>
    <line x1="82.56" y1="0.00" x2="81.93" y2="0.72"/>
    <line x1="83.05" y1="3.50" x2="86.40" y2="3.77"/>
    <line x1="80.77" y1="0.00" x2="79.14" y2="1.84"/>
    <line x1="80.27" y1="4.63" x2="86.40" y2="5.12"/>
    <line x1="86.40" y1="9.84" x2="83.64" y2="12.97"/>
    <line x1="84.76" y1="15.75" x2="86.40" y2="15.88"/>
    <line x1="78.98" y1="0.00" x2="76.36" y2="2.97"/>
    <line x1="77.49" y1="5.75" x2="84.17" y2="6.28"/>
    <line x1="85.30" y1="9.07" x2="80.86" y2="14.09"/>
    <line x1="81.98" y1="16.88" x2="86.40" y2="17.23"/>
    <line x1="86.40" y1="24.03" x2="85.35" y2="25.22"/>
    <line x1="77.19" y1="0.00" x2="73.58" y2="4.09"/>
    <line x1="74.70" y1="6.87" x2="81.39" y2="7.41"/>
    <line x1="82.52" y1="10.19" x2="78.08" y2="15.22"/>
    <line x1="79.20" y1="18.00" x2="85.89" y2="18.53"/>
    <line x1="86.40" y1="22.01" x2="82.57" y2="26.34"/>
    <line x1="83.70" y1="29.13" x2="86.40" y2="29.34"/>
    <line x1="75.24" y1="0.19" x2="72.00" y2="3.86"/>
    <line x1="72.00" y1="8.00" x2="78.61" y2="8.53"/>
    <line x1="79.73" y1="11.31" x2="75.29" y2="16.34"/>
    <line x1="76.42" y1="19.12" x2="83.11" y2="19.66"/>
    <line x1="84.23" y1="22.44" x2="79.79" y2="27.47"/>
    <line x1="80.91" y1="30.25" x2="86.40" y2="30.69"/>
    <line x1="72.46" y1="1.31" x2="72.00" y2="1.83"/>
    <line x1="72.00" y1="9.35" x2="75.83" y2="9.66"/>
    <line x1="76.95" y1="12.44" x2="72.51" y2="17.47"/>
    <line x1="73.64" y1="20.25" x2="80.32" y2="20.78"/>
    <line x1="81.45" y1="23.56" x2="77.01" y2="28.59"/>
    <line x1="78.13" y1="31.37" x2="84.82" y2="31.91"/>
    <line x1="85.94" y1="34.69" x2="84.79" y2="36.00"/>
    <line x1="72.00" y1="10.70" x2="73.05" y2="10.78"/>
    <line x1="74.17" y1="13.56" x2="72.00" y2="16.02"/>
    <line x1="72.00" y1="21.46" x2="77.54" y2="21.91"/>
    <line x1="78.67" y1="24.69" x2="74.23" y2="29.72"/>
    <line x1="75.35" y1="32.50" x2="82.04" y2="33.03"/>
    <line x1="83.16" y1="35.81" x2="83.00" y2="36.00"/>
    <line x1="72.00" y1="22.81" x2="74.76" y2="23.03"/>
    <line x1="75.88" y1="25.81" x2="72.00" y2="30.21"/>
    <line x1="72.57" y1="33.62" x2="79.26" y2="34.16"/>
    <line x1="73.10" y1="26.93" x2="72.00" y2="28.18"/>
    <line x1="72.00" y1="34.92" x2="76.47" y2="35.28"/>
  </g>
  <g stroke="#7209B7" stroke-width="1" fill="none" stroke-linecap="round">
    <line x1="100.80" y1="35.17" x2="94.86" y2="36.00"/>
    <line x1="100.80" y1="32.14" x2="86.40" y2="34.16"/>
    <line x1="100.80" y1="29.11" x2="86.40" y2="31.13"/>
    <line x1="100.80" y1="26.08" x2="86.40" y2="28.10"/>
    <line x1="100.80" y1="23.05" x2="86.40" y2="25.07"/>
    <line x1="100.80" y1="20.02" x2="86.40" y2="22.04"/>
    <line x1="100.80" y1="16.99" x2="86.40" y2="19.01"/>
    <line x1="100.80" y1="13.96" x2="86.40" y2="15.98"/>
    <line x1="100.80" y1="10.93" x2="86.40" y2="12.95"/>
    <line x1="100.80" y1="7.90" x2="86.40" y2="9.92"/>
    <line x1="100.80" y1="4.87" x2="86.40" y2="6.89"/>
    <line x1="100.80" y1="1.84" x2="86.40" y2="3.86"/>
    <line x1="92.34" y1="-0.00" x2="86.40" y2="0.83"/>
  </g>
  <g stroke="#4361EE" stroke-width="1" fill="none" stroke-linecap="round">
    <line x1="100.80" y1="0.00" x2="115.20" y2="0.00"/>
    <line x1="115.20" y1="0.00" x2="115.20" y2="36.00"/>
    <line x1="115.20" y1="36.00" x2="100.80" y2="36.00"/>
    <line x1="100.80" y1="36.00" x2="100.80" y2="0.00"/>
    <line x1="100.80" y1="36.00" x2="101.91" y2="33.21"/>
    <line x1="101.91" y1="2.79" x2="114.09" y2="2.79"/>
    <line x1="114.09" y1="2.79" x2="114.09" y2="33.21"/>
    <line x1="114.09" y1="33.21" x2="101.91" y2="33.21"/>
    <line x1="101.91" y1="33.21" x2="101.91" y2="2.79"/>
    <line x1="101.91" y1="33.21" x2="103.03" y2="30.43"/>
    <line x1="103.03" y1="5.57" x2="112.97" y2="5.57"/>
    <line x1="112.97" y1="5.57" x2="112.97" y2="30.43"/>
    <line x1="112.97" y1="30.43" x2="103.03" y2="30.43"/>
    <line x1="103.03" y1="30.43" x2="103.03" y2="5.57"/>
    <line x1="103.03" y1="30.43" x2="104.14" y2="27.64"/>
    <line x1="104.14" y1="8.36" x2="111.86" y2="8.36"/>
    <line x1="111.86" y1="8.36" x2="111.86" y2="27.64"/>
    <line x1="111.86" y1="27.64" x2="104.14" y2="27.64"/>
    <line x1="104.14" y1="27.64" x2="104.14" y2="8.36"/>
    <line x1="104.14" y1="27.64" x2="105.26" y2="24.86"/>
    <line x1="105.26" y1="11.14" x2="110.74" y2="11.14"/>
    <line x1="110.74" y1="11.14" x2="110.74" y2="24.86"/>
    <line x1="110.74" y1="24.86" x2="105.26" y2="24.86"/>
    <line x1="105.26" y1="24.86" x2="105.26" y2="11.14"/>
    <line x1="105.26" y1="24.86" x2="106.37" y2="22.07"/>
    <line x1="106.37" y1="13.93" x2="109.63" y2="13.93"/>
    <line x1="109.63" y1="13.93" x2="109.63" y2="22.07"/>
    <line x1="109.63" y1="22.07" x2="106.37" y2="22.07"/>
    <line x1="106.37" y1="22.07" x2="106.37" y2="13.93"/>
  </g>
  <g stroke="#2A9D8F" stroke-width="1" fill="none" stroke-linecap="round">
    <line x1="115.20" y1="0.00" x2="129.60" y2="0.00"/>
    <line x1="129.60" y1="0.00" x2="129.60" y2="36.00"/>
    <line x1="129.60" y1="36.00" x2="115.20" y2="36.00"/>
    <line x1="115.20" y1="36.00" x2="115.20" y2="0.00"/>
    <line x1="115.20" y1="36.00" x2="116.31" y2="33.21"/>
    <line x1="116.31" y1="2.79" x2="128.49" y2="2.79"/>
    <line x1="128.49" y1="2.79" x2="128.49" y2="33.21"/>
    <line x1="128.49" y1="33.21" x2="116.31" y2="33.21"/>
    <line x1="116.31" y1="33.21" x2="116.31" y2="2.79"/>
    <line x1="116.31" y1="33.21" x2="117.43" y2="30.43"/>
    <line x1="117.43" y1="5.57" x2="127.37" y2="5.57"/>
    <line x1="127.37" y1="5.57" x2="127.37" y2="30.43"/>
    <line x1="127.37" y1="30.43" x2="117.43" y2="30.43"/>
    <line x1="117.43" y1="30.43" x2="117.43" y2="5.57"/>
    <line x1="117.43" y1="30.43" x2="118.54" y2="27.64"/>
    <line x1="118.54" y1="8.36" x2="126.26" y2="8.36"/>
    <line x1="126.26" y1="8.36" x2="126.26" y2="27.64"/>
    <line x1="126.26" y1="27.64" x2="118.54" y2="27.64"/>
    <line x1="118.54" y1="27.64" x2="118.54" y2="8.36"/>
    <line x1="118.54" y1="27.64" x2="119.66" y2="24.86"/>
    <line x1="119.66" y1="11.14" x2="125.14" y2="11.14"/>
    <line x1="125.14" y1="11.14" x2="125.14" y2="24.86"/>
    <line x1="125.14" y1="24.86" x2="119.66" y2="24.86"/>
    <line x1="119.66" y1="24.86" x2="119.66" y2="11.14"/>
    <line x1="119.66" y1="24.86" x2="120.77" y2="22.07"/>
    <line x1="120.77" y1="13.93" x2="124.03" y2="13.93"/>
    <line x1="124.03" y1="13.93" x2="124.03" y2="22.07"/>
    <line x1="124.03" y1="22.07" x2="120.77" y2="22.07"/>
    <line x1="120.77" y1="22.07" x2="120.77" y2="13.93"/>
  </g>
  <g stroke="#9B5DE5" stroke-width="1" fill="none" stroke-linecap="round">
    <line x1="144.00" y1="29.68" x2="129.60" y2="34.64"/>
    <line x1="144.00" y1="23.33" x2="129.60" y2="28.29"/>
    <line x1="144.00" y1="16.99" x2="129.60" y2="21.95"/>
    <line x1="144.00" y1="10.64" x2="129.60" y2="15.60"/>
    <line x1="144.00" y1="4.30" x2="129.60" y2="9.25"/>
    <line x1="138.05" y1="0.00" x2="129.60" y2="2.91"/>
    <line x1="144.00" y1="16.22" x2="138.41" y2="-0.00"/>
    <line x1="144.00" y1="34.65" x2="132.07" y2="-0.00"/>
    <line x1="138.12" y1="36.00" x2="129.60" y2="11.26"/>
    <line x1="131.77" y1="36.00" x2="129.60" y2="29.69"/>
  </g>
  <g stroke="#7209B7" stroke-width="1" fill="none" stroke-linecap="round">
    <line x1="158.40" y1="34.50" x2="154.70" y2="36.00"/>
    <line x1="158.40" y1="31.27" x2="146.69" y2="36.00"/>
    <line x1="158.40" y1="28.03" x2="144.00" y2="33.85"/>
    <line x1="158.40" y1="24.80" x2="144.00" y2="30.62"/>
    <line x1="158.40" y1="21.56" x2="144.00" y2="27.38"/>
    <line x1="158.40" y1="18.33" x2="144.00" y2="24.14"/>
    <line x1="158.40" y1="15.09" x2="144.00" y2="20.91"/>
    <line x1="158.40" y1="11.86" x2="144.00" y2="17.67"/>
    <line x1="158.40" y1="8.62" x2="144.00" y2="14.44"/>
    <line x1="158.40" y1="5.38" x2="144.00" y2="11.20"/>
    <line x1="158.40" y1="2.15" x2="144.00" y2="7.97"/>
    <line x1="155.71" y1="0.00" x2="144.00" y2="4.73"/>
    <line x1="147.70" y1="0.00" x2="144.00" y2="1.50"/>
  </g>
  <g stroke="#F4A261" stroke-width="1" fill="none" stroke-linecap="round">
    <line x1="158.40" y1="0.34" x2="172.80" y2="0.84"/>
    <line x1="158.40" y1="6.34" x2="172.80" y2="6.84"/>
    <line x1="158.40" y1="8.14" x2="172.80" y2="8.65"/>
    <line x1="158.40" y1="9.94" x2="172.80" y2="10.45"/>
    <line x1="158.40" y1="15.95" x2="172.80" y2="16.45"/>
    <line x1="158.40" y1="17.75" x2="172.80" y2="18.25"/>
    <line x1="158.40" y1="19.55" x2="172.80" y2="20.05"/>
    <line x1="158.40" y1="25.55" x2="172.80" y2="26.06"/>
    <line x1="158.40" y1="27.35" x2="172.80" y2="27.86"/>
    <line x1="158.40" y1="29.16" x2="172.80" y2="29.66"/>
    <line x1="158.40" y1="35.16" x2="172.80" y2="35.66"/>
  </g>
  <g stroke="#E9C46A" stroke-width="1" fill="none" stroke-linecap="round">
    <line x1="187.20" y1="32.16" x2="185.41" y2="31.99"/>
    <line x1="183.82" y1="34.54" x2="184.71" y2="36.00"/>
    <line x1="187.20" y1="30.81" x2="182.86" y2="30.40"/>
    <line x1="181.27" y1="32.95" x2="183.14" y2="36.00"/>
    <line x1="187.20" y1="18.69" x2="186.68" y2="18.64"/>
    <line x1="185.09" y1="21.18" x2="187.20" y2="24.63"/>
    <line x1="187.00" y1="29.45" x2="180.32" y2="28.81"/>
    <line x1="178.73" y1="31.36" x2="181.57" y2="36.00"/>
    <line x1="187.20" y1="17.34" x2="184.13" y2="17.05"/>
    <line x1="182.54" y1="19.59" x2="186.04" y2="25.31"/>
    <line x1="184.45" y1="27.86" x2="177.77" y2="27.22"/>
    <line x1="176.19" y1="29.77" x2="179.68" y2="35.49"/>
    <line x1="186.36" y1="7.82" x2="187.20" y2="9.20"/>
    <line x1="187.20" y1="15.99" x2="181.59" y2="15.46"/>
    <line x1="180.00" y1="18.00" x2="183.50" y2="23.72"/>
    <line x1="181.91" y1="26.27" x2="175.23" y2="25.63"/>
    <line x1="173.64" y1="28.18" x2="177.14" y2="33.90"/>
    <line x1="187.20" y1="3.86" x2="185.40" y2="3.69"/>
    <line x1="183.81" y1="6.23" x2="187.20" y2="11.77"/>
    <line x1="185.72" y1="14.50" x2="179.05" y2="13.87"/>
    <line x1="177.46" y1="16.41" x2="180.95" y2="22.13"/>
    <line x1="179.36" y1="24.68" x2="172.80" y2="24.05"/>
    <line x1="172.80" y1="29.37" x2="174.60" y2="32.31"/>
    <line x1="173.01" y1="34.85" x2="172.80" y2="34.84"/>
    <line x1="187.20" y1="2.51" x2="182.86" y2="2.10"/>
    <line x1="181.27" y1="4.64" x2="184.77" y2="10.37"/>
    <line x1="183.18" y1="12.91" x2="176.50" y2="12.28"/>
    <line x1="174.91" y1="14.82" x2="178.41" y2="20.54"/>
    <line x1="176.82" y1="23.09" x2="172.80" y2="22.71"/>
    <line x1="186.99" y1="1.15" x2="180.32" y2="0.51"/>
    <line x1="178.73" y1="3.05" x2="182.23" y2="8.78"/>
    <line x1="180.64" y1="11.32" x2="173.96" y2="10.69"/>
    <line x1="172.80" y1="13.94" x2="175.87" y2="18.95"/>
    <line x1="174.28" y1="21.50" x2="172.80" y2="21.36"/>
    <line x1="176.18" y1="1.46" x2="179.68" y2="7.19"/>
    <line x1="178.09" y1="9.73" x2="172.80" y2="9.23"/>
    <line x1="172.80" y1="16.51" x2="173.32" y2="17.36"/>
    <line x1="173.71" y1="0.00" x2="177.14" y2="5.60"/>
    <line x1="175.55" y1="8.14" x2="172.80" y2="7.88"/>
    <line x1="172.80" y1="1.08" x2="174.59" y2="4.01"/>
    <line x1="173.00" y1="6.55" x2="172.80" y2="6.53"/>
  </g>
  <g stroke="#4361EE" stroke-width="1" fill="none" stroke-linecap="round">
    <line x1="201.60" y1="22.46" x2="196.71" y2="22.89"/>
    <line x1="199.26" y1="36.00" x2="198.74" y2="30.05"/>
    <line x1="201.60" y1="0.99" x2="191.59" y2="1.87"/>
    <line x1="195.18" y1="26.97" x2="193.62" y2="9.03"/>
    <line x1="197.21" y1="34.13" x2="187.20" y2="35.01"/>
    <line x1="190.06" y1="5.95" x2="189.54" y2="-0.00"/>
    <line x1="192.09" y1="13.11" x2="187.20" y2="13.54"/>
  </g>
  <g stroke="#118AB2" stroke-width="1" fill="none" stroke-linecap="round">
    <line x1="201.60" y1="0.00" x2="216.00" y2="0.00"/>
    <line x1="216.00" y1="0.00" x2="216.00" y2="36.00"/>
    <line x1="216.00" y1="36.00" x2="201.60" y2="36.00"/>
    <line x1="201.60" y1="36.00" x2="201.60" y2="0.00"/>
    <line x1="201.60" y1="36.00" x2="202.71" y2="33.21"/>
    <line x1="202.71" y1="2.79" x2="214.89" y2="2.79"/>
    <line x1="214.89" y1="2.79" x2="214.89" y2="33.21"/>
    <line x1="214.89" y1="33.21" x2="202.71" y2="33.21"/>
    <line x1="202.71" y1="33.21" x2="202.71" y2="2.79"/>
    <line x1="202.71" y1="33.21" x2="203.83" y2="30.43"/>
    <line x1="203.83" y1="5.57" x2="213.77" y2="5.57"/>
    <line x1="213.77" y1="5.57" x2="213.77" y2="30.43"/>
    <line x1="213.77" y1="30.43" x2="203.83" y2="30.43"/>
    <line x1="203.83" y1="30.43" x2="203.83" y2="5.57"/>
    <line x1="203.83" y1="30.43" x2="204.94" y2="27.64"/>
    <line x1="204.94" y1="8.36" x2="212.66" y2="8.36"/>
    <line x1="212.66" y1="8.36" x2="212.66" y2="27.64"/>
    <line x1="212.66" y1="27.64" x2="204.94" y2="27.64"/>
    <line x1="204.94" y1="27.64" x2="204.94" y2="8.36"/>
    <line x1="204.94" y1="27.64" x2="206.06" y2="24.86"/>
    <line x1="206.06" y1="11.14" x2="211.54" y2="11.14"/>
    <line x1="211.54" y1="11.14" x2="211.54" y2="24.86"/>
    <line x1="211.54" y1="24.86" x2="206.06" y2="24.86"/>
    <line x1="206.06" y1="24.86" x2="206.06" y2="11.14"/>
    <line x1="206.06" y1="24.86" x2="207.17" y2="22.07"/>
    <line x1="207.17" y1="13.93" x2="210.43" y2="13.93"/>
    <line x1="210.43" y1="13.93" x2="210.43" y2="22.07"/>
    <line x1="210.43" y1="22.07" x2="207.17" y2="22.07"/>
    <line x1="207.17" y1="22.07" x2="207.17" y2="13.93"/>
  </g>
  <g stroke="#00B4D8" stroke-width="1" fill="none" stroke-linecap="round">
    <line x1="230.40" y1="32.94" x2="227.93" y2="36.00"/>
    <line x1="230.40" y1="28.18" x2="224.07" y2="36.00"/>
    <line x1="230.40" y1="23.41" x2="220.20" y2="36.00"/>
    <line x1="230.40" y1="18.64" x2="216.34" y2="36.00"/>
    <line x1="230.40" y1="13.88" x2="216.00" y2="31.66"/>
    <line x1="230.40" y1="9.11" x2="216.00" y2="26.89"/>
    <line x1="230.40" y1="4.34" x2="216.00" y2="22.12"/>
    <line x1="230.06" y1="-0.00" x2="216.00" y2="17.36"/>
    <line x1="226.20" y1="-0.00" x2="216.00" y2="12.59"/>
    <line x1="222.33" y1="0.00" x2="216.00" y2="7.82"/>
    <line x1="218.47" y1="0.00" x2="216.00" y2="3.06"/>
  </g>
  <g stroke="#118AB2" stroke-width="1" fill="none" stroke-linecap="round">
    <line x1="243.45" y1="0.00" x2="244.80" y2="2.64"/>
    <line x1="236.72" y1="0.00" x2="244.80" y2="15.86"/>
    <line x1="230.40" y1="0.81" x2="244.80" y2="29.08"/>
    <line x1="230.40" y1="14.03" x2="241.59" y2="36.00"/>
    <line x1="230.40" y1="27.25" x2="234.86" y2="36.00"/>
    <line x1="243.44" y1="0.00" x2="230.40" y2="6.64"/>
    <line x1="244.80" y1="6.04" x2="230.40" y2="13.38"/>
    <line x1="244.80" y1="12.78" x2="230.40" y2="20.11"/>
    <line x1="244.80" y1="19.51" x2="230.40" y2="26.85"/>
    <line x1="244.80" y1="26.24" x2="230.40" y2="33.58"/>
    <line x1="244.80" y1="32.98" x2="238.87" y2="36.00"/>
  </g>
  <g stroke="#F72585" stroke-width="1" fill="none" stroke-linecap="round">
    <line x1="253.31" y1="0.00" x2="259.20" y2="8.41"/>
    <line x1="251.12" y1="0.00" x2="259.20" y2="11.55"/>
    <line x1="248.92" y1="0.00" x2="259.20" y2="14.68"/>
    <line x1="244.80" y1="4.58" x2="259.20" y2="25.14"/>
    <line x1="244.80" y1="7.72" x2="259.20" y2="28.28"/>
    <line x1="244.80" y1="10.86" x2="259.20" y2="31.42"/>
    <line x1="244.80" y1="21.32" x2="255.08" y2="36.00"/>
    <line x1="244.80" y1="24.45" x2="252.88" y2="36.00"/>
    <line x1="244.80" y1="27.59" x2="250.69" y2="36.00"/>
  </g>
  <g stroke="#E63946" stroke-width="1" fill="none" stroke-linecap="round">
    <line x1="259.20" y1="0.47" x2="273.60" y2="0.72"/>
    <line x1="259.20" y1="6.47" x2="273.60" y2="6.72"/>
    <line x1="259.20" y1="8.27" x2="273.60" y2="8.52"/>
    <line x1="259.20" y1="10.07" x2="273.60" y2="10.32"/>
    <line x1="259.20" y1="16.07" x2="273.60" y2="16.33"/>
    <line x1="259.20" y1="17.87" x2="273.60" y2="18.13"/>
    <line x1="259.20" y1="19.67" x2="273.60" y2="19.93"/>
    <line x1="259.20" y1="25.68" x2="273.60" y2="25.93"/>
    <line x1="259.20" y1="27.48" x2="273.60" y2="27.73"/>
    <line x1="259.20" y1="29.28" x2="273.60" y2="29.53"/>
    <line x1="259.20" y1="35.28" x2="273.60" y2="35.53"/>
  </g>
  <g stroke="#06D6A0" stroke-width="1" fill="none" stroke-linecap="round">
    <line x1="273.60" y1="0.00" x2="288.00" y2="0.00"/>
    <line x1="288.00" y1="0.00" x2="288.00" y2="36.00"/>
    <line x1="288.00" y1="36.00" x2="273.60" y2="36.00"/>
    <line x1="273.60" y1="36.00" x2="273.60" y2="0.00"/>
    <line x1="273.60" y1="36.00" x2="274.71" y2="33.21"/>
    <line x1="274.71" y1="2.79" x2="286.89" y2="2.79"/>
    <line x1="286.89" y1="2.79" x2="286.89" y2="33.21"/>
    <line x1="286.89" y1="33.21" x2="274.71" y2="33.21"/>
    <line x1="274.71" y1="33.21" x2="274.71" y2="2.79"/>
    <line x1="274.71" y1="33.21" x2="275.83" y2="30.43"/>
    <line x1="275.83" y1="5.57" x2="285.77" y2="5.57"/>
    <line x1="285.77" y1="5.57" x2="285.77" y2="30.43"/>
    <line x1="285.77" y1="30.43" x2="275.83" y2="30.43"/>
    <line x1="275.83" y1="30.43" x2="275.83" y2="5.57"/>
    <line x1="275.83" y1="30.43" x2="276.94" y2="27.64"/>
    <line x1="276.94" y1="8.36" x2="284.66" y2="8.36"/>
    <line x1="284.66" y1="8.36" x2="284.66" y2="27.64"/>
    <line x1="284.66" y1="27.64" x2="276.94" y2="27.64"/>
    <line x1="276.94" y1="27.64" x2="276.94" y2="8.36"/>
    <line x1="276.94" y1="27.64" x2="278.06" y2="24.86"/>
    <line x1="278.06" y1="11.14" x2="283.54" y2="11.14"/>
    <line x1="283.54" y1="11.14" x2="283.54" y2="24.86"/>
    <line x1="283.54" y1="24.86" x2="278.06" y2="24.86"/>
    <line x1="278.06" y1="24.86" x2="278.06" y2="11.14"/>
    <line x1="278.06" y1="24.86" x2="279.17" y2="22.07"/>
    <line x1="279.17" y1="13.93" x2="282.43" y2="13.93"/>
    <line x1="282.43" y1="13.93" x2="282.43" y2="22.07"/>
    <line x1="282.43" y1="22.07" x2="279.17" y2="22.07"/>
    <line x1="279.17" y1="22.07" x2="279.17" y2="13.93"/>
  </g>
  <g stroke="#FF595E" stroke-width="1" fill="none" stroke-linecap="round">
    <line x1="294.58" y1="0.00" x2="302.40" y2="1.80"/>
    <line x1="288.00" y1="4.64" x2="302.40" y2="7.96"/>
    <line x1="288.00" y1="6.49" x2="302.40" y2="9.81"/>
    <line x1="288.00" y1="8.33" x2="302.40" y2="11.66"/>
    <line x1="288.00" y1="14.49" x2="302.40" y2="17.81"/>
    <line x1="288.00" y1="16.34" x2="302.40" y2="19.66"/>
    <line x1="288.00" y1="18.19" x2="302.40" y2="21.51"/>
    <line x1="288.00" y1="24.34" x2="302.40" y2="27.67"/>
    <line x1="288.00" y1="26.19" x2="302.40" y2="29.51"/>
    <line x1="288.00" y1="28.04" x2="302.40" y2="31.36"/>
    <line x1="288.00" y1="34.20" x2="295.82" y2="36.00"/>
  </g>
  <g stroke="#8338EC" stroke-width="1" fill="none" stroke-linecap="round">
    <line x1="316.34" y1="34.69" x2="316.24" y2="36.00"/>
    <line x1="315.22" y1="31.91" x2="314.89" y2="36.00"/>
    <line x1="307.69" y1="36.00" x2="306.87" y2="35.28"/>
    <line x1="314.10" y1="29.13" x2="313.56" y2="35.81"/>
    <line x1="309.72" y1="36.00" x2="305.75" y2="32.50"/>
    <line x1="302.97" y1="33.62" x2="302.78" y2="36.00"/>
    <line x1="316.80" y1="26.15" x2="315.75" y2="25.22"/>
    <line x1="312.97" y1="26.34" x2="312.44" y2="33.03"/>
    <line x1="309.66" y1="34.16" x2="304.63" y2="29.72"/>
    <line x1="316.80" y1="24.36" x2="314.63" y2="22.44"/>
    <line x1="311.85" y1="23.56" x2="311.31" y2="30.25"/>
    <line x1="308.53" y1="31.37" x2="303.50" y2="26.93"/>
    <line x1="316.80" y1="22.57" x2="313.51" y2="19.66"/>
    <line x1="310.72" y1="20.78" x2="310.19" y2="27.47"/>
    <line x1="307.41" y1="28.59" x2="302.40" y2="24.17"/>
    <line x1="316.80" y1="20.78" x2="312.38" y2="16.88"/>
    <line x1="309.60" y1="18.00" x2="309.07" y2="24.69"/>
    <line x1="306.28" y1="25.81" x2="302.40" y2="22.38"/>
    <line x1="316.29" y1="18.53" x2="311.26" y2="14.09"/>
    <line x1="308.48" y1="15.22" x2="307.94" y2="21.91"/>
    <line x1="305.16" y1="23.03" x2="302.40" y2="20.59"/>
    <line x1="315.16" y1="15.75" x2="310.13" y2="11.31"/>
    <line x1="307.35" y1="12.44" x2="306.82" y2="19.12"/>
    <line x1="304.04" y1="20.25" x2="302.40" y2="18.80"/>
    <line x1="314.04" y1="12.97" x2="309.01" y2="8.53"/>
    <line x1="306.23" y1="9.66" x2="305.69" y2="16.34"/>
    <line x1="302.91" y1="17.47" x2="302.40" y2="17.01"/>
    <line x1="316.23" y1="2.38" x2="315.70" y2="9.07"/>
    <line x1="312.92" y1="10.19" x2="307.89" y2="5.75"/>
    <line x1="305.10" y1="6.87" x2="304.57" y2="13.56"/>
    <line x1="315.07" y1="0.00" x2="314.57" y2="6.28"/>
    <line x1="311.79" y1="7.41" x2="306.76" y2="2.97"/>
    <line x1="303.98" y1="4.09" x2="303.45" y2="10.78"/>
    <line x1="313.73" y1="0.00" x2="313.45" y2="3.50"/>
    <line x1="310.67" y1="4.63" x2="305.64" y2="0.19"/>
    <line x1="302.86" y1="1.31" x2="302.40" y2="7.04"/>
    <line x1="312.38" y1="0.00" x2="312.33" y2="0.72"/>
    <line x1="309.54" y1="1.84" x2="307.45" y2="0.00"/>
  </g>
  <g stroke="#7209B7" stroke-width="1" fill="none" stroke-linecap="round">
    <line x1="329.71" y1="0.00" x2="331.20" y2="2.13"/>
    <line x1="326.05" y1="0.00" x2="331.20" y2="7.36"/>
    <line x1="322.38" y1="0.00" x2="331.20" y2="12.59"/>
    <line x1="318.72" y1="0.00" x2="331.20" y2="17.82"/>
    <line x1="316.80" y1="2.49" x2="331.20" y2="23.05"/>
    <line x1="316.80" y1="7.72" x2="331.20" y2="28.28"/>
    <line x1="316.80" y1="12.95" x2="331.20" y2="33.51"/>
    <line x1="316.80" y1="18.18" x2="329.28" y2="36.00"/>
    <line x1="316.80" y1="23.41" x2="325.62" y2="36.00"/>
    <line x1="316.80" y1="28.64" x2="321.95" y2="36.00"/>
    <line x1="316.80" y1="33.87" x2="318.29" y2="36.00"/>
  </g>
  <g stroke="#FF006E" stroke-width="1" fill="none" stroke-linecap="round">
    <line x1="338.40" y1="1.03" x2="341.49" y2="0.00"/>
    <line x1="345.60" y1="4.89" x2="344.76" y2="7.39"/>
    <line x1="334.50" y1="0.00" x2="334.16" y2="1.03"/>
    <line x1="336.28" y1="3.15" x2="342.64" y2="1.03"/>
    <line x1="344.76" y1="3.15" x2="342.64" y2="9.51"/>
    <line x1="344.76" y1="11.64" x2="345.60" y2="11.36"/>
    <line x1="333.09" y1="0.00" x2="332.04" y2="3.15"/>
    <line x1="334.16" y1="5.27" x2="340.52" y2="3.15"/>
    <line x1="342.64" y1="5.27" x2="340.52" y2="11.64"/>
    <line x1="342.64" y1="13.76" x2="345.60" y2="12.77"/>
    <line x1="331.67" y1="0.00" x2="331.20" y2="1.42"/>
    <line x1="332.04" y1="7.39" x2="338.40" y2="5.27"/>
    <line x1="340.52" y1="7.39" x2="338.40" y2="13.76"/>
    <line x1="340.52" y1="15.88" x2="345.60" y2="14.19"/>
    <line x1="331.20" y1="9.09" x2="336.28" y2="7.39"/>
    <line x1="338.40" y1="9.51" x2="336.28" y2="15.88"/>
    <line x1="338.40" y1="18.00" x2="344.76" y2="15.88"/>
    <line x1="345.60" y1="21.86" x2="344.76" y2="24.36"/>
    <line x1="331.20" y1="10.50" x2="334.16" y2="9.51"/>
    <line x1="336.28" y1="11.64" x2="334.16" y2="18.00"/>
    <line x1="336.28" y1="20.12" x2="342.64" y2="18.00"/>
    <line x1="344.76" y1="20.12" x2="342.64" y2="26.49"/>
    <line x1="344.76" y1="28.61" x2="345.60" y2="28.33"/>
    <line x1="331.20" y1="11.91" x2="332.04" y2="11.64"/>
    <line x1="334.16" y1="13.76" x2="332.04" y2="20.12"/>
    <line x1="334.16" y1="22.24" x2="340.52" y2="20.12"/>
    <line x1="342.64" y1="22.24" x2="340.52" y2="28.61"/>
    <line x1="342.64" y1="30.73" x2="345.60" y2="29.74"/>
    <line x1="332.04" y1="15.88" x2="331.20" y2="18.39"/>
    <line x1="332.04" y1="24.36" x2="338.40" y2="22.24"/>
    <line x1="340.52" y1="24.36" x2="338.40" y2="30.73"/>
    <line x1="340.52" y1="32.85" x2="345.60" y2="31.16"/>
    <line x1="331.20" y1="26.06" x2="336.28" y2="24.36"/>
    <line x1="338.40" y1="26.49" x2="336.28" y2="32.85"/>
    <line x1="338.40" y1="34.97" x2="344.76" y2="32.85"/>
    <line x1="331.20" y1="27.47" x2="334.16" y2="26.49"/>
    <line x1="336.28" y1="28.61" x2="334.16" y2="34.97"/>
    <line x1="339.55" y1="36.00" x2="342.64" y2="34.97"/>
    <line x1="331.20" y1="28.89" x2="332.04" y2="28.61"/>
    <line x1="334.16" y1="30.73" x2="332.40" y2="36.00"/>
    <line x1="332.04" y1="32.85" x2="331.20" y2="35.36"/>
  </g>
  <g stroke="#FF006E" stroke-width="1" fill="none" stroke-linecap="round">
    <line x1="359.08" y1="-0.00" x2="360.00" y2="4.73"/>
    <line x1="357.25" y1="0.00" x2="360.00" y2="14.16"/>
    <line x1="351.13" y1="-0.00" x2="358.13" y2="36.00"/>
    <line x1="349.30" y1="0.00" x2="356.30" y2="36.00"/>
    <line x1="347.47" y1="0.00" x2="354.47" y2="36.00"/>
    <line x1="345.60" y1="21.84" x2="348.35" y2="36.00"/>
    <line x1="345.60" y1="31.27" x2="346.52" y2="36.00"/>
  </g>
  <g stroke="#2A9D8F" stroke-width="1" fill="none" stroke-linecap="round">
    <line x1="374.40" y1="35.32" x2="374.38" y2="36.00"/>
    <line x1="369.63" y1="0.00" x2="368.37" y2="36.00"/>
    <line x1="367.83" y1="-0.00" x2="366.57" y2="36.00"/>
    <line x1="366.03" y1="-0.00" x2="364.77" y2="36.00"/>
    <line x1="360.02" y1="0.00" x2="360.00" y2="0.68"/>
  </g>
  <g stroke="#2A9D8F" stroke-width="1" fill="none" stroke-linecap="round">
    <line x1="388.80" y1="34.67" x2="386.59" y2="36.00"/>
    <line x1="388.80" y1="31.17" x2="380.77" y2="36.00"/>
    <line x1="388.80" y1="27.67" x2="374.94" y2="36.00"/>
    <line x1="388.80" y1="24.17" x2="374.40" y2="32.83"/>
    <line x1="388.80" y1="20.67" x2="374.40" y2="29.33"/>
    <line x1="388.80" y1="17.17" x2="374.40" y2="25.83"/>
    <line x1="388.80" y1="13.67" x2="374.40" y2="22.33"/>
    <line x1="388.80" y1="10.17" x2="374.40" y2="18.83"/>
    <line x1="388.80" y1="6.67" x2="374.40" y2="15.33"/>
    <line x1="388.80" y1="3.17" x2="374.40" y2="11.83"/>
    <line x1="388.26" y1="-0.00" x2="374.40" y2="8.33"/>
    <line x1="382.43" y1="0.00" x2="374.40" y2="4.83"/>
    <line x1="376.61" y1="0.00" x2="374.40" y2="1.33"/>
  </g>
  <g stroke="#118AB2" stroke-width="1" fill="none" stroke-linecap="round">
    <line x1="403.20" y1="35.74" x2="402.91" y2="36.00"/>
    <line x1="403.20" y1="31.70" x2="398.43" y2="36.00"/>
    <line x1="403.20" y1="27.66" x2="393.94" y2="36.00"/>
    <line x1="403.20" y1="23.63" x2="389.46" y2="36.00"/>
    <line x1="403.20" y1="19.59" x2="388.80" y2="32.56"/>
    <line x1="403.20" y1="15.55" x2="388.80" y2="28.52"/>
    <line x1="403.20" y1="11.52" x2="388.80" y2="24.48"/>
    <line x1="403.20" y1="7.48" x2="388.80" y2="20.45"/>
    <line x1="403.20" y1="3.44" x2="388.80" y2="16.41"/>
    <line x1="402.54" y1="0.00" x2="388.80" y2="12.37"/>
    <line x1="398.06" y1="0.00" x2="388.80" y2="8.34"/>
    <line x1="393.57" y1="0.00" x2="388.80" y2="4.30"/>
    <line x1="389.09" y1="0.00" x2="388.80" y2="0.26"/>
  </g>
  <g stroke="#F4A261" stroke-width="1" fill="none" stroke-linecap="round">
    <line x1="417.60" y1="27.30" x2="410.80" y2="36.00"/>
    <line x1="417.60" y1="24.38" x2="408.52" y2="36.00"/>
    <line x1="417.60" y1="21.45" x2="406.24" y2="36.00"/>
    <line x1="417.60" y1="11.71" x2="403.20" y2="30.14"/>
    <line x1="417.60" y1="8.78" x2="403.20" y2="27.22"/>
    <line x1="417.60" y1="5.86" x2="403.20" y2="24.29"/>
    <line x1="414.56" y1="0.00" x2="403.20" y2="14.55"/>
    <line x1="412.28" y1="0.00" x2="403.20" y2="11.62"/>
    <line x1="410.00" y1="0.00" x2="403.20" y2="8.70"/>
  </g>
  <g stroke="#FB5607" stroke-width="1" fill="none" stroke-linecap="round">
    <line x1="417.60" y1="0.00" x2="432.00" y2="0.00"/>
    <line x1="432.00" y1="0.00" x2="432.00" y2="36.00"/>
    <line x1="432.00" y1="36.00" x2="417.60" y2="36.00"/>
    <line x1="417.60" y1="36.00" x2="417.60" y2="0.00"/>
    <line x1="417.60" y1="36.00" x2="418.71" y2="33.21"/>
    <line x1="418.71" y1="2.79" x2="430.89" y2="2.79"/>
    <line x1="430.89" y1="2.79" x2="430.89" y2="33.21"/>
    <line x1="430.89" y1="33.21" x2="418.71" y2="33.21"/>
    <line x1="418.71" y1="33.21" x2="418.71" y2="2.79"/>
    <line x1="418.71" y1="33.21" x2="419.83" y2="30.43"/>
    <line x1="419.83" y1="5.57" x2="429.77" y2="5.57"/>
    <line x1="429.77" y1="5.57" x2="429.77" y2="30.43"/>
    <line x1="429.77" y1="30.43" x2="419.83" y2="30.43"/>
    <line x1="419.83" y1="30.43" x2="419.83" y2="5.57"/>
    <line x1="419.83" y1="30.43" x2="420.94" y2="27.64"/>
    <line x1="420.94" y1="8.36" x2="428.66" y2="8.36"/>
    <line x1="428.66" y1="8.36" x2="428.66" y2="27.64"/>
    <line x1="428.66" y1="27.64" x2="420.94" y2="27.64"/>
    <line x1="420.94" y1="27.64" x2="420.94" y2="8.36"/>
    <line x1="420.94" y1="27.64" x2="422.06" y2="24.86"/>
    <line x1="422.06" y1="11.14" x2="427.54" y2="11.14"/>
    <line x1="427.54" y1="11.14" x2="427.54" y2="24.86"/>
    <line x1="427.54" y1="24.86" x2="422.06" y2="24.86"/>
    <line x1="422.06" y1="24.86" x2="422.06" y2="11.14"/>
    <line x1="422.06" y1="24.86" x2="423.17" y2="22.07"/>
    <line x1="423.17" y1="13.93" x2="426.43" y2="13.93"/>
    <line x1="426.43" y1="13.93" x2="426.43" y2="22.07"/>
    <line x1="426.43" y1="22.07" x2="423.17" y2="22.07"/>
    <line x1="423.17" y1="22.07" x2="423.17" y2="13.93"/>
  </g>
  <g stroke="#FFCA3A" stroke-width="1" fill="none" stroke-linecap="round">
    <line x1="446.19" y1="35.89" x2="446.26" y2="36.00"/>
    <line x1="446.40" y1="31.87" x2="445.09" y2="31.79"/>
    <line x1="443.59" y1="34.39" x2="444.65" y2="36.00"/>
    <line x1="446.40" y1="30.53" x2="442.49" y2="30.29"/>
    <line x1="440.99" y1="32.89" x2="443.05" y2="36.00"/>
    <line x1="446.40" y1="18.43" x2="445.90" y2="18.40"/>
    <line x1="444.40" y1="21.00" x2="446.40" y2="24.03"/>
    <line x1="446.40" y1="29.18" x2="439.90" y2="28.79"/>
    <line x1="438.40" y1="31.39" x2="441.44" y2="36.00"/>
    <line x1="446.40" y1="17.09" x2="443.30" y2="16.90"/>
    <line x1="441.80" y1="19.50" x2="445.49" y2="25.10"/>
    <line x1="443.99" y1="27.70" x2="437.30" y2="27.29"/>
    <line x1="435.80" y1="29.89" x2="439.49" y2="35.49"/>
    <line x1="445.20" y1="7.61" x2="446.40" y2="9.43"/>
    <line x1="446.40" y1="15.74" x2="440.70" y2="15.40"/>
    <line x1="439.20" y1="18.00" x2="442.90" y2="23.60"/>
    <line x1="441.40" y1="26.20" x2="434.70" y2="25.79"/>
    <line x1="433.20" y1="28.39" x2="436.90" y2="33.99"/>
    <line x1="446.40" y1="3.65" x2="444.10" y2="3.51"/>
    <line x1="442.60" y1="6.11" x2="446.30" y2="11.71"/>
    <line x1="444.80" y1="14.30" x2="438.10" y2="13.90"/>
    <line x1="436.60" y1="16.50" x2="440.30" y2="22.10"/>
    <line x1="438.80" y1="24.70" x2="432.10" y2="24.29"/>
    <line x1="432.00" y1="29.01" x2="434.30" y2="32.49"/>
    <line x1="432.80" y1="35.09" x2="432.00" y2="35.04"/>
    <line x1="446.40" y1="2.30" x2="441.50" y2="2.01"/>
    <line x1="440.00" y1="4.61" x2="443.70" y2="10.21"/>
    <line x1="442.20" y1="12.80" x2="435.50" y2="12.40"/>
    <line x1="434.00" y1="15.00" x2="437.70" y2="20.60"/>
    <line x1="436.20" y1="23.20" x2="432.00" y2="22.94"/>
    <line x1="445.60" y1="0.91" x2="438.91" y2="0.51"/>
    <line x1="437.41" y1="3.11" x2="441.10" y2="8.71"/>
    <line x1="439.60" y1="11.30" x2="432.91" y2="10.90"/>
    <line x1="432.00" y1="14.40" x2="435.10" y2="19.10"/>
    <line x1="433.60" y1="21.70" x2="432.00" y2="21.60"/>
    <line x1="434.81" y1="1.61" x2="438.50" y2="7.21"/>
    <line x1="437.00" y1="9.80" x2="432.00" y2="9.50"/>
    <line x1="432.00" y1="16.83" x2="432.50" y2="17.60"/>
    <line x1="432.21" y1="0.11" x2="435.91" y2="5.71"/>
    <line x1="434.41" y1="8.30" x2="432.00" y2="8.16"/>
    <line x1="432.00" y1="2.23" x2="433.31" y2="4.21"/>
  </g>
  <g stroke="#E63946" stroke-width="1" fill="none" stroke-linecap="round">
    <line x1="460.17" y1="0.00" x2="460.80" y2="3.55"/>
    <line x1="458.35" y1="0.00" x2="460.80" y2="13.91"/>
    <line x1="452.25" y1="0.00" x2="458.60" y2="36.00"/>
    <line x1="450.43" y1="0.00" x2="456.77" y2="36.00"/>
    <line x1="448.60" y1="0.00" x2="454.95" y2="36.00"/>
    <line x1="446.40" y1="22.09" x2="448.85" y2="36.00"/>
    <line x1="446.40" y1="32.45" x2="447.03" y2="36.00"/>
  </g>
  <g stroke="#FF006E" stroke-width="1" fill="none" stroke-linecap="round">
    <line x1="475.20" y1="35.74" x2="474.91" y2="36.00"/>
    <line x1="475.20" y1="31.70" x2="470.43" y2="36.00"/>
    <line x1="475.20" y1="27.66" x2="465.94" y2="36.00"/>
    <line x1="475.20" y1="23.63" x2="461.46" y2="36.00"/>
    <line x1="475.20" y1="19.59" x2="460.80" y2="32.56"/>
    <line x1="475.20" y1="15.55" x2="460.80" y2="28.52"/>
    <line x1="475.20" y1="11.52" x2="460.80" y2="24.48"/>
    <line x1="475.20" y1="7.48" x2="460.80" y2="20.45"/>
    <line x1="475.20" y1="3.44" x2="460.80" y2="16.41"/>
    <line x1="474.54" y1="0.00" x2="460.80" y2="12.37"/>
    <line x1="470.06" y1="0.00" x2="460.80" y2="8.34"/>
    <line x1="465.57" y1="0.00" x2="460.80" y2="4.30"/>
    <line x1="461.09" y1="0.00" x2="460.80" y2="0.26"/>
    <line x1="464.02" y1="36.00" x2="460.80" y2="32.42"/>
    <line x1="468.06" y1="36.00" x2="460.80" y2="27.94"/>
    <line x1="472.10" y1="36.00" x2="460.80" y2="23.45"/>
    <line x1="475.20" y1="34.96" x2="460.80" y2="18.97"/>
    <line x1="475.20" y1="30.48" x2="460.80" y2="14.49"/>
    <line x1="475.20" y1="26.00" x2="460.80" y2="10.00"/>
    <line x1="475.20" y1="21.51" x2="460.80" y2="5.52"/>
    <line x1="475.20" y1="17.03" x2="460.80" y2="1.04"/>
    <line x1="475.20" y1="12.55" x2="463.90" y2="0.00"/>
    <line x1="475.20" y1="8.06" x2="467.94" y2="0.00"/>
    <line x1="475.20" y1="3.58" x2="471.98" y2="0.00"/>
  </g>
  <g stroke="#EF476F" stroke-width="1" fill="none" stroke-linecap="round">
    <line x1="481.60" y1="36.00" x2="488.29" y2="21.66"/>
    <line x1="475.20" y1="14.64" x2="489.60" y2="21.36"/>
    <line x1="476.51" y1="14.34" x2="483.20" y2="-0.00"/>
  </g>
  <g stroke="#FFCA3A" stroke-width="1" fill="none" stroke-linecap="round">
    <line x1="504.00" y1="32.31" x2="501.96" y2="32.08"/>
    <line x1="500.33" y1="34.60" x2="501.15" y2="36.00"/>
    <line x1="504.00" y1="30.96" x2="499.45" y2="30.45"/>
    <line x1="497.81" y1="32.97" x2="499.60" y2="36.00"/>
    <line x1="504.00" y1="18.81" x2="503.47" y2="18.75"/>
    <line x1="501.83" y1="21.27" x2="504.00" y2="24.96"/>
    <line x1="503.60" y1="29.57" x2="496.93" y2="28.82"/>
    <line x1="495.30" y1="31.33" x2="498.04" y2="36.00"/>
    <line x1="504.00" y1="17.46" x2="500.95" y2="17.12"/>
    <line x1="499.32" y1="19.63" x2="502.71" y2="25.42"/>
    <line x1="501.08" y1="27.93" x2="494.41" y2="27.18"/>
    <line x1="492.78" y1="29.70" x2="496.18" y2="35.48"/>
    <line x1="503.34" y1="7.94" x2="504.00" y2="9.07"/>
    <line x1="504.00" y1="16.11" x2="498.43" y2="15.48"/>
    <line x1="496.80" y1="18.00" x2="500.20" y2="23.78"/>
    <line x1="498.56" y1="26.30" x2="491.90" y2="25.55"/>
    <line x1="490.26" y1="28.06" x2="493.66" y2="33.85"/>
    <line x1="504.00" y1="3.96" x2="502.45" y2="3.79"/>
    <line x1="500.82" y1="6.30" x2="504.00" y2="11.72"/>
    <line x1="502.58" y1="14.60" x2="495.92" y2="13.85"/>
    <line x1="494.28" y1="16.37" x2="497.68" y2="22.15"/>
    <line x1="496.05" y1="24.67" x2="489.60" y2="23.94"/>
    <line x1="489.60" y1="29.58" x2="491.15" y2="32.21"/>
    <line x1="504.00" y1="2.61" x2="499.94" y2="2.15"/>
    <line x1="498.30" y1="4.67" x2="501.70" y2="10.45"/>
    <line x1="500.07" y1="12.97" x2="493.40" y2="12.22"/>
    <line x1="491.77" y1="14.73" x2="495.17" y2="20.52"/>
    <line x1="493.53" y1="23.03" x2="489.60" y2="22.59"/>
    <line x1="504.00" y1="1.26" x2="497.42" y2="0.52"/>
    <line x1="495.79" y1="3.03" x2="499.19" y2="8.82"/>
    <line x1="497.55" y1="11.33" x2="490.89" y2="10.58"/>
    <line x1="489.60" y1="13.69" x2="492.65" y2="18.88"/>
    <line x1="491.02" y1="21.40" x2="489.60" y2="21.24"/>
    <line x1="493.27" y1="1.40" x2="496.67" y2="7.18"/>
    <line x1="495.04" y1="9.70" x2="489.60" y2="9.09"/>
    <line x1="489.60" y1="16.34" x2="490.13" y2="17.25"/>
    <line x1="490.89" y1="0.00" x2="494.15" y2="5.55"/>
    <line x1="492.52" y1="8.07" x2="489.60" y2="7.74"/>
    <line x1="489.60" y1="0.45" x2="491.64" y2="3.92"/>
    <line x1="490.00" y1="6.43" x2="489.60" y2="6.39"/>
  </g>
  <g stroke="#9EF01A" stroke-width="1" fill="none" stroke-linecap="round">
    <line x1="517.99" y1="-0.00" x2="518.40" y2="0.12"/>
    <line x1="511.84" y1="0.00" x2="518.40" y2="2.01"/>
    <line x1="504.00" y1="3.88" x2="518.40" y2="8.28"/>
    <line x1="504.00" y1="5.76" x2="518.40" y2="10.16"/>
    <line x1="504.00" y1="7.64" x2="518.40" y2="12.04"/>
    <line x1="504.00" y1="13.92" x2="518.40" y2="18.32"/>
    <line x1="504.00" y1="15.80" x2="518.40" y2="20.20"/>
    <line x1="504.00" y1="17.68" x2="518.40" y2="22.08"/>
    <line x1="504.00" y1="23.96" x2="518.40" y2="28.36"/>
    <line x1="504.00" y1="25.84" x2="518.40" y2="30.24"/>
    <line x1="504.00" y1="27.72" x2="518.40" y2="32.12"/>
    <line x1="504.00" y1="33.99" x2="510.56" y2="36.00"/>
    <line x1="504.00" y1="35.88" x2="504.41" y2="36.00"/>
  </g>
  <g stroke="#FFCA3A" stroke-width="1" fill="none" stroke-linecap="round">
    <line x1="532.80" y1="31.44" x2="532.16" y2="36.00"/>
    <line x1="532.80" y1="9.88" x2="529.13" y2="36.00"/>
    <line x1="531.16" y1="0.00" x2="526.10" y2="36.00"/>
    <line x1="528.13" y1="0.00" x2="523.07" y2="36.00"/>
    <line x1="525.10" y1="0.00" x2="520.04" y2="36.00"/>
    <line x1="522.07" y1="0.00" x2="518.40" y2="26.12"/>
    <line x1="519.04" y1="0.00" x2="518.40" y2="4.56"/>
  </g>
  <g stroke="#E63946" stroke-width="1" fill="none" stroke-linecap="round">
    <line x1="547.20" y1="35.22" x2="546.20" y2="36.00"/>
    <line x1="547.20" y1="31.41" x2="541.33" y2="36.00"/>
    <line x1="547.20" y1="27.60" x2="536.45" y2="36.00"/>
    <line x1="547.20" y1="23.80" x2="532.80" y2="35.05"/>
    <line x1="547.20" y1="19.99" x2="532.80" y2="31.24"/>
    <line x1="547.20" y1="16.18" x2="532.80" y2="27.43"/>
    <line x1="547.20" y1="12.37" x2="532.80" y2="23.63"/>
    <line x1="547.20" y1="8.57" x2="532.80" y2="19.82"/>
    <line x1="547.20" y1="4.76" x2="532.80" y2="16.01"/>
    <line x1="547.20" y1="0.95" x2="532.80" y2="12.20"/>
    <line x1="543.55" y1="0.00" x2="532.80" y2="8.40"/>
    <line x1="538.67" y1="0.00" x2="532.80" y2="4.59"/>
    <line x1="533.80" y1="0.00" x2="532.80" y2="0.78"/>
  </g>
  <g stroke="#264653" stroke-width="1" fill="none" stroke-linecap="round">
    <line x1="547.20" y1="0.00" x2="561.60" y2="0.00"/>
    <line x1="561.60" y1="0.00" x2="561.60" y2="36.00"/>
    <line x1="561.60" y1="36.00" x2="547.20" y2="36.00"/>
    <line x1="547.20" y1="36.00" x2="547.20" y2="0.00"/>
    <line x1="547.20" y1="36.00" x2="548.31" y2="33.21"/>
    <line x1="548.31" y1="2.79" x2="560.49" y2="2.79"/>
    <line x1="560.49" y1="2.79" x2="560.49" y2="33.21"/>
    <line x1="560.49" y1="33.21" x2="548.31" y2="33.21"/>
    <line x1="548.31" y1="33.21" x2="548.31" y2="2.79"/>
    <line x1="548.31" y1="33.21" x2="549.43" y2="30.43"/>
    <line x1="549.43" y1="5.57" x2="559.37" y2="5.57"/>
    <line x1="559.37" y1="5.57" x2="559.37" y2="30.43"/>
    <line x1="559.37" y1="30.43" x2="549.43" y2="30.43"/>
    <line x1="549.43" y1="30.43" x2="549.43" y2="5.57"/>
    <line x1="549.43" y1="30.43" x2="550.54" y2="27.64"/>
    <line x1="550.54" y1="8.36" x2="558.26" y2="8.36"/>
    <line x1="558.26" y1="8.36" x2="558.26" y2="27.64"/>
    <line x1="558.26" y1="27.64" x2="550.54" y2="27.64"/>
    <line x1="550.54" y1="27.64" x2="550.54" y2="8.36"/>
    <line x1="550.54" y1="27.64" x2="551.66" y2="24.86"/>
    <line x1="551.66" y1="11.14" x2="557.14" y2="11.14"/>
    <line x1="557.14" y1="11.14" x2="557.14" y2="24.86"/>
    <line x1="557.14" y1="24.86" x2="551.66" y2="24.86"/>
    <line x1="551.66" y1="24.86" x2="551.66" y2="11.14"/>
    <line x1="551.66" y1="24.86" x2="552.77" y2="22.07"/>
    <line x1="552.77" y1="13.93" x2="556.03" y2="13.93"/>
    <line x1="556.03" y1="13.93" x2="556.03" y2="22.07"/>
    <line x1="556.03" y1="22.07" x2="552.77" y2="22.07"/>
    <line x1="552.77" y1="22.07" x2="552.77" y2="13.93"/>
  </g>
  <g stroke="#4CC9F0" stroke-width="1" fill="none" stroke-linecap="round">
    <line x1="576.00" y1="30.12" x2="570.89" y2="36.00"/>
    <line x1="576.00" y1="20.98" x2="562.94" y2="36.00"/>
    <line x1="576.00" y1="11.83" x2="561.60" y2="28.40"/>
    <line x1="576.00" y1="2.69" x2="561.60" y2="19.25"/>
    <line x1="570.38" y1="0.00" x2="561.60" y2="10.11"/>
    <line x1="562.43" y1="0.00" x2="561.60" y2="0.96"/>
    <line x1="576.00" y1="6.52" x2="568.50" y2="-0.00"/>
    <line x1="576.00" y1="14.47" x2="561.60" y2="1.95"/>
    <line x1="576.00" y1="22.42" x2="561.60" y2="9.90"/>
    <line x1="576.00" y1="30.37" x2="561.60" y2="17.85"/>
    <line x1="573.33" y1="36.00" x2="561.60" y2="25.80"/>
    <line x1="564.18" y1="36.00" x2="561.60" y2="33.75"/>
  </g>
  <g stroke="#FF595E" stroke-width="1" fill="none" stroke-linecap="round">
    <line x1="582.31" y1="1.05" x2="584.99" y2="0.00"/>
    <line x1="590.40" y1="2.00" x2="589.00" y2="7.07"/>
    <line x1="578.43" y1="0.00" x2="578.08" y2="1.27"/>
    <line x1="580.30" y1="3.28" x2="586.55" y2="0.83"/>
    <line x1="588.78" y1="2.84" x2="586.99" y2="9.30"/>
    <line x1="589.22" y1="11.31" x2="590.40" y2="10.85"/>
    <line x1="577.04" y1="0.00" x2="576.07" y2="3.50"/>
    <line x1="578.30" y1="5.51" x2="584.54" y2="3.06"/>
    <line x1="586.77" y1="5.07" x2="584.99" y2="11.53"/>
    <line x1="587.21" y1="13.54" x2="590.40" y2="12.29"/>
    <line x1="576.29" y1="7.74" x2="582.53" y2="5.29"/>
    <line x1="584.76" y1="7.30" x2="582.98" y2="13.76"/>
    <line x1="585.21" y1="15.77" x2="590.40" y2="13.73"/>
    <line x1="576.00" y1="9.30" x2="580.53" y2="7.52"/>
    <line x1="582.76" y1="9.53" x2="580.97" y2="15.99"/>
    <line x1="583.20" y1="18.00" x2="589.44" y2="15.55"/>
    <line x1="590.40" y1="22.17" x2="589.89" y2="24.02"/>
    <line x1="576.00" y1="10.74" x2="578.52" y2="9.75"/>
    <line x1="580.75" y1="11.76" x2="578.96" y2="18.22"/>
    <line x1="581.19" y1="20.23" x2="587.44" y2="17.78"/>
    <line x1="589.67" y1="19.79" x2="587.88" y2="26.25"/>
    <line x1="590.11" y1="28.26" x2="590.40" y2="28.15"/>
    <line x1="576.00" y1="12.18" x2="576.51" y2="11.98"/>
    <line x1="578.74" y1="13.99" x2="576.96" y2="20.45"/>
    <line x1="579.19" y1="22.46" x2="585.43" y2="20.01"/>
    <line x1="587.66" y1="22.01" x2="585.87" y2="28.48"/>
    <line x1="588.10" y1="30.49" x2="590.40" y2="29.59"/>
    <line x1="576.73" y1="16.21" x2="576.00" y2="18.87"/>
    <line x1="577.18" y1="24.69" x2="583.42" y2="22.24"/>
    <line x1="585.65" y1="24.24" x2="583.87" y2="30.71"/>
    <line x1="586.10" y1="32.72" x2="590.40" y2="31.03"/>
    <line x1="576.00" y1="26.59" x2="581.41" y2="24.47"/>
    <line x1="583.64" y1="26.47" x2="581.86" y2="32.94"/>
    <line x1="584.09" y1="34.95" x2="590.33" y2="32.50"/>
    <line x1="576.00" y1="28.03" x2="579.41" y2="26.70"/>
    <line x1="581.64" y1="28.70" x2="579.85" y2="35.17"/>
    <line x1="585.08" y1="36.00" x2="588.32" y2="34.73"/>
    <line x1="576.00" y1="29.47" x2="577.40" y2="28.93"/>
    <line x1="579.63" y1="30.93" x2="578.23" y2="36.00"/>
    <line x1="577.62" y1="33.16" x2="576.84" y2="36.00"/>
  </g>
  <g stroke="#F72585" stroke-width="1" fill="none" stroke-linecap="round">
    <line x1="597.27" y1="3.91" x2="604.80" y2="8.43"/>
    <line x1="590.40" y1="11.11" x2="591.13" y2="11.55"/>
    <line x1="602.24" y1="10.29" x2="592.96" y2="25.71"/>
    <line x1="604.07" y1="24.45" x2="604.80" y2="24.89"/>
    <line x1="590.40" y1="27.57" x2="597.93" y2="32.09"/>
  </g>
  <g stroke="#6A4C93" stroke-width="1" fill="none" stroke-linecap="round">
    <line x1="619.20" y1="35.54" x2="612.63" y2="36.00"/>
    <line x1="619.20" y1="32.53" x2="604.80" y2="33.54"/>
    <line x1="619.20" y1="29.53" x2="604.80" y2="30.53"/>
    <line x1="619.20" y1="26.52" x2="604.80" y2="27.53"/>
    <line x1="619.20" y1="23.51" x2="604.80" y2="24.52"/>
    <line x1="619.20" y1="20.50" x2="604.80" y2="21.51"/>
    <line x1="619.20" y1="17.50" x2="604.80" y2="18.50"/>
    <line x1="619.20" y1="14.49" x2="604.80" y2="15.50"/>
    <line x1="619.20" y1="11.48" x2="604.80" y2="12.49"/>
    <line x1="619.20" y1="8.47" x2="604.80" y2="9.48"/>
    <line x1="619.20" y1="5.47" x2="604.80" y2="6.47"/>
    <line x1="619.20" y1="2.46" x2="604.80" y2="3.47"/>
    <line x1="611.37" y1="0.00" x2="604.80" y2="0.46"/>
  </g>
  <g stroke="#FF595E" stroke-width="1" fill="none" stroke-linecap="round">
    <line x1="619.20" y1="0.00" x2="633.60" y2="0.00"/>
    <line x1="633.60" y1="0.00" x2="633.60" y2="36.00"/>
    <line x1="633.60" y1="36.00" x2="619.20" y2="36.00"/>
    <line x1="619.20" y1="36.00" x2="619.20" y2="0.00"/>
    <line x1="619.20" y1="36.00" x2="620.31" y2="33.21"/>
    <line x1="620.31" y1="2.79" x2="632.49" y2="2.79"/>
    <line x1="632.49" y1="2.79" x2="632.49" y2="33.21"/>
    <line x1="632.49" y1="33.21" x2="620.31" y2="33.21"/>
    <line x1="620.31" y1="33.21" x2="620.31" y2="2.79"/>
    <line x1="620.31" y1="33.21" x2="621.43" y2="30.43"/>
    <line x1="621.43" y1="5.57" x2="631.37" y2="5.57"/>
    <line x1="631.37" y1="5.57" x2="631.37" y2="30.43"/>
    <line x1="631.37" y1="30.43" x2="621.43" y2="30.43"/>
    <line x1="621.43" y1="30.43" x2="621.43" y2="5.57"/>
    <line x1="621.43" y1="30.43" x2="622.54" y2="27.64"/>
    <line x1="622.54" y1="8.36" x2="630.26" y2="8.36"/>
    <line x1="630.26" y1="8.36" x2="630.26" y2="27.64"/>
    <line x1="630.26" y1="27.64" x2="622.54" y2="27.64"/>
    <line x1="622.54" y1="27.64" x2="622.54" y2="8.36"/>
    <line x1="622.54" y1="27.64" x2="623.66" y2="24.86"/>
    <line x1="623.66" y1="11.14" x2="629.14" y2="11.14"/>
    <line x1="629.14" y1="11.14" x2="629.14" y2="24.86"/>
    <line x1="629.14" y1="24.86" x2="623.66" y2="24.86"/>
    <line x1="623.66" y1="24.86" x2="623.66" y2="11.14"/>
    <line x1="623.66" y1="24.86" x2="624.77" y2="22.07"/>
    <line x1="624.77" y1="13.93" x2="628.03" y2="13.93"/>
    <line x1="628.03" y1="13.93" x2="628.03" y2="22.07"/>
    <line x1="628.03" y1="22.07" x2="624.77" y2="22.07"/>
    <line x1="624.77" y1="22.07" x2="624.77" y2="13.93"/>
  </g>
  <g stroke="#FF595E" stroke-width="1" fill="none" stroke-linecap="round">
    <line x1="647.00" y1="0.00" x2="648.00" y2="1.55"/>
    <line x1="643.42" y1="0.00" x2="648.00" y2="7.05"/>
    <line x1="639.84" y1="0.00" x2="648.00" y2="12.56"/>
    <line x1="636.26" y1="0.00" x2="648.00" y2="18.07"/>
    <line x1="633.60" y1="1.40" x2="648.00" y2="23.58"/>
    <line x1="633.60" y1="6.91" x2="648.00" y2="29.09"/>
    <line x1="633.60" y1="12.42" x2="648.00" y2="34.60"/>
    <line x1="633.60" y1="17.93" x2="645.34" y2="36.00"/>
    <line x1="633.60" y1="23.44" x2="641.76" y2="36.00"/>
    <line x1="633.60" y1="28.95" x2="638.18" y2="36.00"/>
    <line x1="633.60" y1="34.45" x2="634.60" y2="36.00"/>
  </g>
  <g stroke="#FFCA3A" stroke-width="1" fill="none" stroke-linecap="round">
    <line x1="660.87" y1="0.00" x2="662.40" y2="3.79"/>
    <line x1="657.63" y1="-0.00" x2="662.40" y2="11.80"/>
    <line x1="654.40" y1="-0.00" x2="662.40" y2="19.80"/>
    <line x1="651.16" y1="0.00" x2="662.40" y2="27.81"/>
    <line x1="648.00" y1="0.18" x2="662.40" y2="35.82"/>
    <line x1="648.00" y1="8.19" x2="659.24" y2="36.00"/>
    <line x1="648.00" y1="16.20" x2="656.00" y2="36.00"/>
    <line x1="648.00" y1="24.20" x2="652.77" y2="36.00"/>
    <line x1="648.00" y1="32.21" x2="649.53" y2="36.00"/>
  </g>
  <g stroke="#6A4C93" stroke-width="1" fill="none" stroke-linecap="round">
    <line x1="676.28" y1="0.00" x2="676.80" y2="0.86"/>
    <line x1="672.78" y1="0.00" x2="676.80" y2="6.68"/>
    <line x1="669.28" y1="0.00" x2="676.80" y2="12.51"/>
    <line x1="665.78" y1="0.00" x2="676.80" y2="18.33"/>
    <line x1="662.40" y1="0.19" x2="676.80" y2="24.16"/>
    <line x1="662.40" y1="6.02" x2="676.80" y2="29.98"/>
    <line x1="662.40" y1="11.84" x2="676.80" y2="35.81"/>
    <line x1="662.40" y1="17.67" x2="673.42" y2="36.00"/>
    <line x1="662.40" y1="23.49" x2="669.92" y2="36.00"/>
    <line x1="662.40" y1="29.32" x2="666.42" y2="36.00"/>
    <line x1="662.40" y1="35.14" x2="662.92" y2="36.00"/>
    <line x1="676.80" y1="34.67" x2="674.59" y2="36.00"/>
    <line x1="676.80" y1="31.17" x2="668.77" y2="36.00"/>
    <line x1="676.80" y1="27.67" x2="662.94" y2="36.00"/>
    <line x1="676.80" y1="24.17" x2="662.40" y2="32.83"/>
    <line x1="676.80" y1="20.67" x2="662.40" y2="29.33"/>
    <line x1="676.80" y1="17.17" x2="662.40" y2="25.83"/>
    <line x1="676.80" y1="13.67" x2="662.40" y2="22.33"/>
    <line x1="676.80" y1="10.17" x2="662.40" y2="18.83"/>
    <line x1="676.80" y1="6.67" x2="662.40" y2="15.33"/>
    <line x1="676.80" y1="3.17" x2="662.40" y2="11.83"/>
    <line x1="676.26" y1="-0.00" x2="662.40" y2="8.33"/>
    <line x1="670.43" y1="-0.00" x2="662.40" y2="4.83"/>
    <line x1="664.61" y1="0.00" x2="662.40" y2="1.33"/>
  </g>
  <g stroke="#3A86FF" stroke-width="1" fill="none" stroke-linecap="round">
    <line x1="691.20" y1="35.95" x2="691.17" y2="36.00"/>
    <line x1="691.20" y1="29.76" x2="687.74" y2="36.00"/>
    <line x1="691.20" y1="23.57" x2="684.31" y2="36.00"/>
    <line x1="691.20" y1="17.39" x2="680.88" y2="36.00"/>
    <line x1="691.20" y1="11.20" x2="677.45" y2="36.00"/>
    <line x1="691.20" y1="5.01" x2="676.80" y2="30.99"/>
    <line x1="690.55" y1="0.00" x2="676.80" y2="24.80"/>
    <line x1="687.12" y1="0.00" x2="676.80" y2="18.61"/>
    <line x1="683.69" y1="0.00" x2="676.80" y2="12.43"/>
    <line x1="680.26" y1="0.00" x2="676.80" y2="6.24"/>
    <line x1="676.83" y1="0.00" x2="676.80" y2="0.05"/>
    <line x1="679.34" y1="36.00" x2="676.80" y2="34.59"/>
    <line x1="685.53" y1="36.00" x2="676.80" y2="31.16"/>
    <line x1="691.20" y1="35.71" x2="676.80" y2="27.73"/>
    <line x1="691.20" y1="32.28" x2="676.80" y2="24.30"/>
    <line x1="691.20" y1="28.85" x2="676.80" y2="20.87"/>
    <line x1="691.20" y1="25.42" x2="676.80" y2="17.44"/>
    <line x1="691.20" y1="21.99" x2="676.80" y2="14.01"/>
    <line x1="691.20" y1="18.56" x2="676.80" y2="10.58"/>
    <line x1="691.20" y1="15.13" x2="676.80" y2="7.15"/>
    <line x1="691.20" y1="11.70" x2="676.80" y2="3.72"/>
    <line x1="691.20" y1="8.27" x2="676.80" y2="0.29"/>
    <line x1="691.20" y1="4.84" x2="682.47" y2="-0.00"/>
    <line x1="691.20" y1="1.41" x2="688.66" y2="0.00"/>
  </g>
  <g stroke="#2A9D8F" stroke-width="1" fill="none" stroke-linecap="round">
    <line x1="691.20" y1="0.00" x2="705.60" y2="0.00"/>
    <line x1="705.60" y1="0.00" x2="705.60" y2="36.00"/>
    <line x1="705.60" y1="36.00" x2="691.20" y2="36.00"/>
    <line x1="691.20" y1="36.00" x2="691.20" y2="0.00"/>
    <line x1="691.20" y1="36.00" x2="692.31" y2="33.21"/>
    <line x1="692.31" y1="2.79" x2="704.49" y2="2.79"/>
    <line x1="704.49" y1="2.79" x2="704.49" y2="33.21"/>
    <line x1="704.49" y1="33.21" x2="692.31" y2="33.21"/>
    <line x1="692.31" y1="33.21" x2="692.31" y2="2.79"/>
    <line x1="692.31" y1="33.21" x2="693.43" y2="30.43"/>
    <line x1="693.43" y1="5.57" x2="703.37" y2="5.57"/>
    <line x1="703.37" y1="5.57" x2="703.37" y2="30.43"/>
    <line x1="703.37" y1="30.43" x2="693.43" y2="30.43"/>
    <line x1="693.43" y1="30.43" x2="693.43" y2="5.57"/>
    <line x1="693.43" y1="30.43" x2="694.54" y2="27.64"/>
    <line x1="694.54" y1="8.36" x2="702.26" y2="8.36"/>
    <line x1="702.26" y1="8.36" x2="702.26" y2="27.64"/>
    <line x1="702.26" y1="27.64" x2="694.54" y2="27.64"/>
    <line x1="694.54" y1="27.64" x2="694.54" y2="8.36"/>
    <line x1="694.54" y1="27.64" x2="695.66" y2="24.86"/>
    <line x1="695.66" y1="11.14" x2="701.14" y2="11.14"/>
    <line x1="701.14" y1="11.14" x2="701.14" y2="24.86"/>
    <line x1="701.14" y1="24.86" x2="695.66" y2="24.86"/>
    <line x1="695.66" y1="24.86" x2="695.66" y2="11.14"/>
    <line x1="695.66" y1="24.86" x2="696.77" y2="22.07"/>
    <line x1="696.77" y1="13.93" x2="700.03" y2="13.93"/>
    <line x1="700.03" y1="13.93" x2="700.03" y2="22.07"/>
    <line x1="700.03" y1="22.07" x2="696.77" y2="22.07"/>
    <line x1="696.77" y1="22.07" x2="696.77" y2="13.93"/>
  </g>
  <g stroke="#FFD166" stroke-width="1" fill="none" stroke-linecap="round">
    <line x1="720.00" y1="34.59" x2="715.65" y2="36.00"/>
    <line x1="720.00" y1="31.43" x2="705.94" y2="36.00"/>
    <line x1="720.00" y1="28.28" x2="705.60" y2="32.96"/>
    <line x1="720.00" y1="25.12" x2="705.60" y2="29.80"/>
    <line x1="720.00" y1="21.97" x2="705.60" y2="26.65"/>
    <line x1="720.00" y1="18.81" x2="705.60" y2="23.49"/>
    <line x1="720.00" y1="15.66" x2="705.60" y2="20.34"/>
    <line x1="720.00" y1="12.51" x2="705.60" y2="17.19"/>
    <line x1="720.00" y1="9.35" x2="705.60" y2="14.03"/>
    <line x1="720.00" y1="6.20" x2="705.60" y2="10.88"/>
    <line x1="720.00" y1="3.04" x2="705.60" y2="7.72"/>
    <line x1="719.66" y1="0.00" x2="705.60" y2="4.57"/>
    <line x1="709.95" y1="0.00" x2="705.60" y2="1.41"/>
  </g>
  <g stroke="#1982C4" stroke-width="1" fill="none" stroke-linecap="round">
    <line x1="734.40" y1="29.79" x2="730.51" y2="19.66"/>
    <line x1="723.50" y1="36.00" x2="727.04" y2="34.64"/>
    <line x1="720.00" y1="20.76" x2="734.40" y2="15.24"/>
    <line x1="727.36" y1="1.36" x2="730.90" y2="0.00"/>
    <line x1="723.89" y1="16.34" x2="720.00" y2="6.21"/>
  </g>
  <g stroke="#00F5D4" stroke-width="1" fill="none" stroke-linecap="round">
    <line x1="744.85" y1="2.98" x2="748.80" y2="7.85"/>
    <line x1="734.40" y1="10.61" x2="735.22" y2="11.62"/>
    <line x1="748.59" y1="12.34" x2="734.61" y2="23.66"/>
    <line x1="747.98" y1="24.38" x2="748.80" y2="25.39"/>
    <line x1="734.40" y1="28.15" x2="738.35" y2="33.02"/>
  </g>
  <g stroke="#118AB2" stroke-width="1" fill="none" stroke-linecap="round">
    <line x1="763.20" y1="34.59" x2="760.66" y2="36.00"/>
    <line x1="763.20" y1="31.16" x2="754.47" y2="36.00"/>
    <line x1="763.20" y1="27.73" x2="748.80" y2="35.71"/>
    <line x1="763.20" y1="24.30" x2="748.80" y2="32.28"/>
    <line x1="763.20" y1="20.87" x2="748.80" y2="28.85"/>
    <line x1="763.20" y1="17.44" x2="748.80" y2="25.42"/>
    <line x1="763.20" y1="14.01" x2="748.80" y2="21.99"/>
    <line x1="763.20" y1="10.58" x2="748.80" y2="18.56"/>
    <line x1="763.20" y1="7.15" x2="748.80" y2="15.13"/>
    <line x1="763.20" y1="3.72" x2="748.80" y2="11.70"/>
    <line x1="763.20" y1="0.29" x2="748.80" y2="8.27"/>
    <line x1="757.53" y1="0.00" x2="748.80" y2="4.84"/>
    <line x1="751.34" y1="0.00" x2="748.80" y2="1.41"/>
  </g>
  <g stroke="#EF476F" stroke-width="1" fill="none" stroke-linecap="round">
    <line x1="764.56" y1="-0.00" x2="777.60" y2="6.64"/>
    <line x1="763.20" y1="6.04" x2="777.60" y2="13.38"/>
    <line x1="763.20" y1="12.78" x2="777.60" y2="20.11"/>
    <line x1="763.20" y1="19.51" x2="777.60" y2="26.85"/>
    <line x1="763.20" y1="26.24" x2="777.60" y2="33.58"/>
    <line x1="763.20" y1="32.98" x2="769.13" y2="36.00"/>
    <line x1="764.55" y1="-0.00" x2="763.20" y2="2.64"/>
    <line x1="771.28" y1="0.00" x2="763.20" y2="15.86"/>
    <line x1="777.60" y1="0.81" x2="763.20" y2="29.08"/>
    <line x1="777.60" y1="14.03" x2="766.41" y2="36.00"/>
    <line x1="777.60" y1="27.25" x2="773.14" y2="36.00"/>
  </g>
  <g stroke="#FF595E" stroke-width="1" fill="none" stroke-linecap="round">
    <line x1="792.00" y1="35.49" x2="791.85" y2="36.00"/>
    <line x1="792.00" y1="25.23" x2="788.71" y2="36.00"/>
    <line x1="792.00" y1="14.97" x2="785.57" y2="36.00"/>
    <line x1="792.00" y1="4.71" x2="782.43" y2="36.00"/>
    <line x1="790.30" y1="0.00" x2="779.30" y2="36.00"/>
    <line x1="787.17" y1="0.00" x2="777.60" y2="31.29"/>
    <line x1="784.03" y1="-0.00" x2="777.60" y2="21.03"/>
    <line x1="780.89" y1="-0.00" x2="777.60" y2="10.77"/>
    <line x1="777.75" y1="0.00" x2="777.60" y2="0.51"/>
    <line x1="782.11" y1="36.00" x2="777.60" y2="34.62"/>
    <line x1="792.00" y1="35.89" x2="777.60" y2="31.48"/>
    <line x1="792.00" y1="32.75" x2="777.60" y2="28.35"/>
    <line x1="792.00" y1="29.61" x2="777.60" y2="25.21"/>
    <line x1="792.00" y1="26.48" x2="777.60" y2="22.07"/>
    <line x1="792.00" y1="23.34" x2="777.60" y2="18.94"/>
    <line x1="792.00" y1="20.20" x2="777.60" y2="15.80"/>
    <line x1="792.00" y1="17.06" x2="777.60" y2="12.66"/>
    <line x1="792.00" y1="13.93" x2="777.60" y2="9.52"/>
    <line x1="792.00" y1="10.79" x2="777.60" y2="6.39"/>
    <line x1="792.00" y1="7.65" x2="777.60" y2="3.25"/>
    <line x1="792.00" y1="4.52" x2="777.60" y2="0.11"/>
    <line x1="792.00" y1="1.38" x2="787.49" y2="0.00"/>
  </g>
  <g stroke="#F15BB5" stroke-width="1" fill="none" stroke-linecap="round">
    <line x1="805.34" y1="0.00" x2="805.30" y2="0.80"/>
    <line x1="803.99" y1="0.00" x2="803.85" y2="3.43"/>
    <line x1="794.52" y1="1.69" x2="796.98" y2="0.00"/>
    <line x1="802.65" y1="0.00" x2="802.39" y2="6.05"/>
    <line x1="805.02" y1="7.50" x2="806.40" y2="6.56"/>
    <line x1="793.07" y1="4.31" x2="798.60" y2="0.52"/>
    <line x1="801.22" y1="1.97" x2="800.94" y2="8.67"/>
    <line x1="803.56" y1="10.13" x2="806.40" y2="8.18"/>
    <line x1="792.00" y1="6.67" x2="797.15" y2="3.14"/>
    <line x1="799.77" y1="4.60" x2="799.48" y2="11.30"/>
    <line x1="802.11" y1="12.75" x2="806.40" y2="9.81"/>
    <line x1="792.00" y1="8.30" x2="795.69" y2="5.77"/>
    <line x1="798.32" y1="7.22" x2="798.03" y2="13.92"/>
    <line x1="800.65" y1="15.38" x2="806.19" y2="11.58"/>
    <line x1="792.00" y1="9.92" x2="794.24" y2="8.39"/>
    <line x1="796.86" y1="9.84" x2="796.58" y2="16.55"/>
    <line x1="799.20" y1="18.00" x2="804.73" y2="14.21"/>
    <line x1="792.00" y1="11.55" x2="792.78" y2="11.01"/>
    <line x1="795.41" y1="12.47" x2="795.12" y2="19.17"/>
    <line x1="797.75" y1="20.62" x2="803.28" y2="16.83"/>
    <line x1="805.90" y1="18.28" x2="805.62" y2="24.99"/>
    <line x1="793.95" y1="15.09" x2="793.67" y2="21.79"/>
    <line x1="796.29" y1="23.25" x2="801.82" y2="19.45"/>
    <line x1="804.45" y1="20.91" x2="804.16" y2="27.61"/>
    <line x1="792.50" y1="17.72" x2="792.21" y2="24.42"/>
    <line x1="794.84" y1="25.87" x2="800.37" y2="22.08"/>
    <line x1="802.99" y1="23.53" x2="802.71" y2="30.23"/>
    <line x1="805.33" y1="31.69" x2="806.40" y2="30.96"/>
    <line x1="793.38" y1="28.50" x2="798.92" y2="24.70"/>
    <line x1="801.54" y1="26.16" x2="801.25" y2="32.86"/>
    <line x1="803.88" y1="34.31" x2="806.40" y2="32.58"/>
    <line x1="792.00" y1="31.07" x2="797.46" y2="27.33"/>
    <line x1="800.08" y1="28.78" x2="799.80" y2="35.48"/>
    <line x1="803.79" y1="36.00" x2="806.40" y2="34.21"/>
    <line x1="792.00" y1="32.70" x2="796.01" y2="29.95"/>
    <line x1="798.63" y1="31.40" x2="798.43" y2="36.00"/>
    <line x1="806.16" y1="36.00" x2="806.40" y2="35.84"/>
    <line x1="792.00" y1="34.32" x2="794.55" y2="32.57"/>
    <line x1="797.18" y1="34.03" x2="797.09" y2="36.00"/>
    <line x1="792.00" y1="35.95" x2="793.10" y2="35.20"/>
  </g>
  <g stroke="#FF595E" stroke-width="1" fill="none" stroke-linecap="round">
    <line x1="816.94" y1="-0.00" x2="820.80" y2="1.48"/>
    <line x1="808.56" y1="-0.00" x2="820.80" y2="4.70"/>
    <line x1="806.40" y1="2.38" x2="820.80" y2="7.91"/>
    <line x1="806.40" y1="5.60" x2="820.80" y2="11.12"/>
    <line x1="806.40" y1="8.81" x2="820.80" y2="14.34"/>
    <line x1="806.40" y1="12.02" x2="820.80" y2="17.55"/>
    <line x1="806.40" y1="15.24" x2="820.80" y2="20.76"/>
    <line x1="806.40" y1="18.45" x2="820.80" y2="23.98"/>
    <line x1="806.40" y1="21.66" x2="820.80" y2="27.19"/>
    <line x1="806.40" y1="24.88" x2="820.80" y2="30.40"/>
    <line x1="806.40" y1="28.09" x2="820.80" y2="33.62"/>
    <line x1="806.40" y1="31.30" x2="818.64" y2="36.00"/>
    <line x1="806.40" y1="34.52" x2="810.26" y2="36.00"/>
  </g>
  <g stroke="#8338EC" stroke-width="1" fill="none" stroke-linecap="round">
    <line x1="835.20" y1="33.30" x2="834.22" y2="36.00"/>
    <line x1="835.20" y1="24.53" x2="831.03" y2="36.00"/>
    <line x1="835.20" y1="15.76" x2="827.83" y2="36.00"/>
    <line x1="835.20" y1="6.99" x2="824.64" y2="36.00"/>
    <line x1="834.55" y1="0.00" x2="821.45" y2="36.00"/>
    <line x1="831.36" y1="0.00" x2="820.80" y2="29.01"/>
    <line x1="828.17" y1="0.00" x2="820.80" y2="20.24"/>
    <line x1="824.97" y1="0.00" x2="820.80" y2="11.47"/>
    <line x1="821.78" y1="0.00" x2="820.80" y2="2.70"/>
  </g>
  <g stroke="#8338EC" stroke-width="1" fill="none" stroke-linecap="round">
    <line x1="849.29" y1="0.00" x2="849.60" y2="0.15"/>
    <line x1="845.19" y1="0.00" x2="849.60" y2="2.15"/>
    <line x1="835.20" y1="1.80" x2="849.60" y2="8.83"/>
    <line x1="835.20" y1="3.81" x2="849.60" y2="10.83"/>
    <line x1="835.20" y1="5.81" x2="849.60" y2="12.83"/>
    <line x1="835.20" y1="12.49" x2="849.60" y2="19.51"/>
    <line x1="835.20" y1="14.49" x2="849.60" y2="21.51"/>
    <line x1="835.20" y1="16.49" x2="849.60" y2="23.51"/>
    <line x1="835.20" y1="23.17" x2="849.60" y2="30.19"/>
    <line x1="835.20" y1="25.17" x2="849.60" y2="32.19"/>
    <line x1="835.20" y1="27.17" x2="849.60" y2="34.20"/>
    <line x1="835.20" y1="33.85" x2="839.61" y2="36.00"/>
    <line x1="835.20" y1="35.85" x2="835.51" y2="36.00"/>
  </g>
  <g stroke="#F72585" stroke-width="1" fill="none" stroke-linecap="round">
    <line x1="861.86" y1="0.00" x2="863.75" y2="36.00"/>
    <line x1="858.86" y1="0.00" x2="860.75" y2="36.00"/>
    <line x1="855.86" y1="0.00" x2="857.74" y2="36.00"/>
    <line x1="852.85" y1="0.00" x2="854.74" y2="36.00"/>
    <line x1="849.85" y1="0.00" x2="851.74" y2="36.00"/>
  </g>
</svg>
