<?xml version="1.0" encoding="UTF-8"?>
<svg xmlns="http://www.w3.org/2000/svg"
     width="864.00" height="36.00"
     viewBox="0 0 864.00 36.00">
  <title>Pattern Banner - rat-king</title>
  <desc>Randomized pattern strip with 60 cells</desc>
  <rect width="100%" height="100%" fill="white"/>
  <g stroke="#7209B7" stroke-width="1" fill="none" stroke-linecap="round">
    <line x1="12.36" y1="-0.00" x2="14.40" y2="1.27"/>
    <line x1="6.70" y1="0.00" x2="14.40" y2="4.81"/>
    <line x1="1.04" y1="0.00" x2="14.40" y2="8.35"/>
    <line x1="0.00" y1="2.89" x2="14.40" y2="11.89"/>
    <line x1="0.00" y1="6.43" x2="14.40" y2="15.42"/>
    <line x1="0.00" y1="9.96" x2="14.40" y2="18.96"/>
    <line x1="0.00" y1="13.50" x2="14.40" y2="22.50"/>
    <line x1="0.00" y1="17.04" x2="14.40" y2="26.04"/>
    <line x1="0.00" y1="20.58" x2="14.40" y2="29.57"/>
    <line x1="0.00" y1="24.11" x2="14.40" y2="33.11"/>
    <line x1="0.00" y1="27.65" x2="13.36" y2="36.00"/>
    <line x1="-0.00" y1="31.19" x2="7.70" y2="36.00"/>
    <line x1="0.00" y1="34.73" x2="2.04" y2="36.00"/>
    <line x1="14.40" y1="34.78" x2="13.64" y2="36.00"/>
    <line x1="14.40" y1="29.12" x2="10.10" y2="36.00"/>
    <line x1="14.40" y1="23.46" x2="6.56" y2="36.00"/>
    <line x1="14.40" y1="17.80" x2="3.03" y2="36.00"/>
    <line x1="14.40" y1="12.14" x2="0.00" y2="35.18"/>
    <line x1="14.40" y1="6.48" x2="-0.00" y2="29.52"/>
    <line x1="14.40" y1="0.82" x2="-0.00" y2="23.86"/>
    <line x1="11.37" y1="0.00" x2="0.00" y2="18.20"/>
    <line x1="7.84" y1="0.00" x2="0.00" y2="12.54"/>
    <line x1="4.30" y1="-0.00" x2="-0.00" y2="6.88"/>
    <line x1="0.76" y1="0.00" x2="0.00" y2="1.22"/>
  </g>
  <g stroke="#4CC9F0" stroke-width="1" fill="none" stroke-linecap="round">
    <line x1="27.86" y1="0.00" x2="28.80" y2="5.93"/>
    <line x1="24.82" y1="0.00" x2="28.80" y2="25.10"/>
    <line x1="21.79" y1="0.00" x2="27.49" y2="36.00"/>
    <line x1="18.75" y1="0.00" x2="24.45" y2="36.00"/>
    <line x1="15.71" y1="0.00" x2="21.41" y2="36.00"/>
    <line x1="14.40" y1="10.90" x2="18.38" y2="36.00"/>
    <line x1="14.40" y1="30.07" x2="15.34" y2="36.00"/>
  </g>
  <g stroke="#073B4C" stroke-width="1" fill="none" stroke-linecap="round">
    <line x1="38.12" y1="3.15" x2="43.20" y2="8.23"/>
    <line x1="28.80" y1="10.80" x2="29.64" y2="11.64"/>
    <line x1="42.36" y1="11.64" x2="29.64" y2="24.36"/>
    <line x1="42.36" y1="24.36" x2="43.20" y2="25.20"/>
    <line x1="28.80" y1="27.77" x2="33.88" y2="32.85"/>
  </g>
  <g stroke="#4CC9F0" stroke-width="1" fill="none" stroke-linecap="round">
    <line x1="55.25" y1="0.00" x2="57.60" y2="5.05"/>
    <line x1="51.94" y1="0.00" x2="57.60" y2="12.14"/>
    <line x1="48.63" y1="0.00" x2="57.60" y2="19.24"/>
    <line x1="45.32" y1="0.00" x2="57.60" y2="26.34"/>
    <line x1="43.20" y1="2.56" x2="57.60" y2="33.44"/>
    <line x1="43.20" y1="9.66" x2="55.48" y2="36.00"/>
    <line x1="43.20" y1="16.76" x2="52.17" y2="36.00"/>
    <line x1="43.20" y1="23.86" x2="48.86" y2="36.00"/>
    <line x1="43.20" y1="30.95" x2="45.55" y2="36.00"/>
  </g>
  <g stroke="#8338EC" stroke-width="1" fill="none" stroke-linecap="round">
    <line x1="71.47" y1="36.00" x2="70.88" y2="35.21"/>
    <line x1="67.93" y1="35.73" x2="67.84" y2="36.00"/>
    <line x1="72.00" y1="34.46" x2="70.36" y2="32.25"/>
    <line x1="67.40" y1="32.77" x2="66.44" y2="36.00"/>
    <line x1="59.78" y1="36.00" x2="58.54" y2="34.33"/>
    <line x1="72.00" y1="32.21" x2="69.84" y2="29.30"/>
    <line x1="66.88" y1="29.82" x2="65.04" y2="36.00"/>
    <line x1="61.45" y1="36.00" x2="58.02" y2="31.38"/>
    <line x1="72.00" y1="29.96" x2="69.32" y2="26.34"/>
    <line x1="66.36" y1="26.86" x2="64.45" y2="33.29"/>
    <line x1="61.50" y1="33.81" x2="57.60" y2="28.56"/>
    <line x1="72.00" y1="27.71" x2="68.80" y2="23.39"/>
    <line x1="65.84" y1="23.91" x2="63.93" y2="30.34"/>
    <line x1="60.97" y1="30.86" x2="57.60" y2="26.31"/>
    <line x1="72.00" y1="25.46" x2="68.28" y2="20.43"/>
    <line x1="65.32" y1="20.95" x2="63.41" y2="27.38"/>
    <line x1="60.45" y1="27.91" x2="57.60" y2="24.06"/>
    <line x1="71.75" y1="22.87" x2="67.75" y2="17.48"/>
    <line x1="64.80" y1="18.00" x2="62.89" y2="24.43"/>
    <line x1="59.93" y1="24.95" x2="57.60" y2="21.81"/>
    <line x1="71.23" y1="19.91" x2="67.23" y2="14.52"/>
    <line x1="64.28" y1="15.05" x2="62.37" y2="21.48"/>
    <line x1="59.41" y1="22.00" x2="57.60" y2="19.55"/>
    <line x1="70.71" y1="16.96" x2="66.71" y2="11.57"/>
    <line x1="63.76" y1="12.09" x2="61.85" y2="18.52"/>
    <line x1="58.89" y1="19.04" x2="57.60" y2="17.30"/>
    <line x1="70.19" y1="14.00" x2="66.19" y2="8.62"/>
    <line x1="63.24" y1="9.14" x2="61.32" y2="15.57"/>
    <line x1="58.37" y1="16.09" x2="57.60" y2="15.05"/>
    <line x1="69.67" y1="11.05" x2="65.67" y2="5.66"/>
    <line x1="62.72" y1="6.18" x2="60.80" y2="12.61"/>
    <line x1="57.85" y1="13.13" x2="57.60" y2="12.80"/>
    <line x1="69.15" y1="8.09" x2="65.15" y2="2.71"/>
    <line x1="62.20" y1="3.23" x2="60.28" y2="9.66"/>
    <line x1="72.00" y1="3.21" x2="71.58" y2="4.62"/>
    <line x1="68.63" y1="5.14" x2="64.81" y2="0.00"/>
    <line x1="61.67" y1="0.27" x2="59.76" y2="6.70"/>
    <line x1="71.55" y1="-0.00" x2="71.06" y2="1.67"/>
    <line x1="68.10" y1="2.19" x2="66.48" y2="0.00"/>
    <line x1="60.36" y1="0.00" x2="59.24" y2="3.75"/>
    <line x1="58.96" y1="-0.00" x2="58.72" y2="0.79"/>
  </g>
  <g stroke="#90BE6D" stroke-width="1" fill="none" stroke-linecap="round">
    <line x1="85.52" y1="-0.00" x2="84.89" y2="36.00"/>
    <line x1="82.51" y1="-0.00" x2="81.89" y2="36.00"/>
    <line x1="79.51" y1="0.00" x2="78.89" y2="36.00"/>
    <line x1="76.51" y1="0.00" x2="75.89" y2="36.00"/>
    <line x1="73.51" y1="0.00" x2="72.88" y2="36.00"/>
  </g>
  <g stroke="#00BBF9" stroke-width="1" fill="none" stroke-linecap="round">
    <line x1="100.80" y1="26.82" x2="98.68" y2="36.00"/>
    <line x1="100.80" y1="13.49" x2="95.60" y2="36.00"/>
    <line x1="100.80" y1="0.15" x2="92.52" y2="36.00"/>
    <line x1="97.76" y1="0.00" x2="89.44" y2="36.00"/>
    <line x1="94.68" y1="0.00" x2="86.40" y2="35.85"/>
    <line x1="91.60" y1="0.00" x2="86.40" y2="22.51"/>
    <line x1="88.52" y1="0.00" x2="86.40" y2="9.18"/>
  </g>
  <g stroke="#90BE6D" stroke-width="1" fill="none" stroke-linecap="round">
    <line x1="115.20" y1="29.43" x2="107.37" y2="36.00"/>
    <line x1="115.20" y1="21.60" x2="100.80" y2="33.68"/>
    <line x1="115.20" y1="13.77" x2="100.80" y2="25.85"/>
    <line x1="115.20" y1="5.94" x2="100.80" y2="18.02"/>
    <line x1="112.94" y1="0.00" x2="100.80" y2="10.19"/>
    <line x1="103.61" y1="-0.00" x2="100.80" y2="2.35"/>
    <line x1="115.20" y1="5.75" x2="110.37" y2="0.00"/>
    <line x1="115.20" y1="15.09" x2="102.54" y2="0.00"/>
    <line x1="115.20" y1="24.42" x2="100.80" y2="7.26"/>
    <line x1="115.20" y1="33.76" x2="100.80" y2="16.60"/>
    <line x1="109.25" y1="36.00" x2="100.80" y2="25.93"/>
    <line x1="101.42" y1="36.00" x2="100.80" y2="35.27"/>
  </g>
  <g stroke="#00F5D4" stroke-width="1" fill="none" stroke-linecap="round">
    <line x1="115.20" y1="0.00" x2="129.60" y2="0.00"/>
    <line x1="129.60" y1="0.00" x2="129.60" y2="36.00"/>
    <line x1="129.60" y1="36.00" x2="115.20" y2="36.00"/>
    <line x1="115.20" y1="36.00" x2="115.20" y2="0.00"/>
    <line x1="115.20" y1="36.00" x2="116.31" y2="33.21"/>
    <line x1="116.31" y1="2.79" x2="128.49" y2="2.79"/>
    <line x1="128.49" y1="2.79" x2="128.49" y2="33.21"/>
    <line x1="128.49" y1="33.21" x2="116.31" y2="33.21"/>
    <line x1="116.31" y1="33.21" x2="116.31" y2="2.79"/>
    <line x1="116.31" y1="33.21" x2="117.43" y2="30.43"/>
    <line x1="117.43" y1="5.57" x2="127.37" y2="5.57"/>
    <line x1="127.37" y1="5.57" x2="127.37" y2="30.43"/>
    <line x1="127.37" y1="30.43" x2="117.43" y2="30.43"/>
    <line x1="117.43" y1="30.43" x2="117.43" y2="5.57"/>
    <line x1="117.43" y1="30.43" x2="118.54" y2="27.64"/>
    <line x1="118.54" y1="8.36" x2="126.26" y2="8.36"/>
    <line x1="126.26" y1="8.36" x2="126.26" y2="27.64"/>
    <line x1="126.26" y1="27.64" x2="118.54" y2="27.64"/>
    <line x1="118.54" y1="27.64" x2="118.54" y2="8.36"/>
    <line x1="118.54" y1="27.64" x2="119.66" y2="24.86"/>
    <line x1="119.66" y1="11.14" x2="125.14" y2="11.14"/>
    <line x1="125.14" y1="11.14" x2="125.14" y2="24.86"/>
    <line x1="125.14" y1="24.86" x2="119.66" y2="24.86"/>
    <line x1="119.66" y1="24.86" x2="119.66" y2="11.14"/>
    <line x1="119.66" y1="24.86" x2="120.77" y2="22.07"/>
    <line x1="120.77" y1="13.93" x2="124.03" y2="13.93"/>
    <line x1="124.03" y1="13.93" x2="124.03" y2="22.07"/>
    <line x1="124.03" y1="22.07" x2="120.77" y2="22.07"/>
    <line x1="120.77" y1="22.07" x2="120.77" y2="13.93"/>
  </g>
  <g stroke="#FB5607" stroke-width="1" fill="none" stroke-linecap="round">
    <line x1="144.00" y1="24.17" x2="138.58" y2="20.65"/>
    <line x1="137.10" y1="36.00" x2="139.70" y2="31.99"/>
    <line x1="144.00" y1="1.33" x2="141.95" y2="0.00"/>
    <line x1="131.90" y1="25.55" x2="141.70" y2="10.45"/>
    <line x1="131.65" y1="36.00" x2="129.60" y2="34.67"/>
    <line x1="133.90" y1="4.01" x2="136.50" y2="0.00"/>
    <line x1="135.02" y1="15.35" x2="129.60" y2="11.83"/>
  </g>
  <g stroke="#1982C4" stroke-width="1" fill="none" stroke-linecap="round">
    <line x1="158.40" y1="34.62" x2="153.89" y2="36.00"/>
    <line x1="158.40" y1="31.48" x2="144.00" y2="35.89"/>
    <line x1="158.40" y1="28.35" x2="144.00" y2="32.75"/>
    <line x1="158.40" y1="25.21" x2="144.00" y2="29.61"/>
    <line x1="158.40" y1="22.07" x2="144.00" y2="26.48"/>
    <line x1="158.40" y1="18.94" x2="144.00" y2="23.34"/>
    <line x1="158.40" y1="15.80" x2="144.00" y2="20.20"/>
    <line x1="158.40" y1="12.66" x2="144.00" y2="17.06"/>
    <line x1="158.40" y1="9.52" x2="144.00" y2="13.93"/>
    <line x1="158.40" y1="6.39" x2="144.00" y2="10.79"/>
    <line x1="158.40" y1="3.25" x2="144.00" y2="7.65"/>
    <line x1="158.40" y1="0.11" x2="144.00" y2="4.52"/>
    <line x1="148.51" y1="-0.00" x2="144.00" y2="1.38"/>
  </g>
  <g stroke="#FF006E" stroke-width="1" fill="none" stroke-linecap="round">
    <line x1="170.56" y1="0.70" x2="171.20" y2="-0.00"/>
    <line x1="158.40" y1="0.06" x2="158.45" y2="-0.00"/>
    <line x1="166.34" y1="-0.00" x2="166.85" y2="2.75"/>
    <line x1="169.73" y1="3.58" x2="172.80" y2="0.24"/>
    <line x1="158.40" y1="2.04" x2="160.27" y2="0.00"/>
    <line x1="164.97" y1="0.00" x2="166.02" y2="5.64"/>
    <line x1="168.91" y1="6.46" x2="172.80" y2="2.23"/>
    <line x1="158.40" y1="4.02" x2="161.08" y2="1.10"/>
    <line x1="163.97" y1="1.93" x2="165.20" y2="8.52"/>
    <line x1="168.08" y1="9.35" x2="172.62" y2="4.41"/>
    <line x1="158.40" y1="6.01" x2="160.26" y2="3.98"/>
    <line x1="163.14" y1="4.81" x2="164.37" y2="11.41"/>
    <line x1="167.25" y1="12.23" x2="171.79" y2="7.29"/>
    <line x1="158.40" y1="7.99" x2="159.43" y2="6.87"/>
    <line x1="162.31" y1="7.69" x2="163.54" y2="14.29"/>
    <line x1="166.43" y1="15.12" x2="170.96" y2="10.18"/>
    <line x1="158.40" y1="9.97" x2="158.60" y2="9.75"/>
    <line x1="161.49" y1="10.58" x2="162.72" y2="17.17"/>
    <line x1="165.60" y1="18.00" x2="170.14" y2="13.06"/>
    <line x1="160.66" y1="13.46" x2="161.89" y2="20.06"/>
    <line x1="164.77" y1="20.88" x2="169.31" y2="15.94"/>
    <line x1="172.19" y1="16.77" x2="172.80" y2="20.02"/>
    <line x1="159.83" y1="16.35" x2="161.06" y2="22.94"/>
    <line x1="163.95" y1="23.77" x2="168.48" y2="18.83"/>
    <line x1="171.37" y1="19.65" x2="172.60" y2="26.25"/>
    <line x1="159.01" y1="19.23" x2="160.24" y2="25.82"/>
    <line x1="163.12" y1="26.65" x2="167.66" y2="21.71"/>
    <line x1="170.54" y1="22.54" x2="171.77" y2="29.13"/>
    <line x1="158.40" y1="23.30" x2="159.41" y2="28.71"/>
    <line x1="162.29" y1="29.54" x2="166.83" y2="24.59"/>
    <line x1="169.71" y1="25.42" x2="170.94" y2="32.02"/>
    <line x1="158.40" y1="30.62" x2="158.58" y2="31.59"/>
    <line x1="161.47" y1="32.42" x2="166.00" y2="27.48"/>
    <line x1="168.89" y1="28.31" x2="170.12" y2="34.90"/>
    <line x1="160.64" y1="35.30" x2="165.18" y2="30.36"/>
    <line x1="168.06" y1="31.19" x2="168.96" y2="36.00"/>
    <line x1="161.82" y1="36.00" x2="164.35" y2="33.25"/>
    <line x1="167.23" y1="34.07" x2="167.59" y2="36.00"/>
  </g>
  <g stroke="#FFCA3A" stroke-width="1" fill="none" stroke-linecap="round">
    <line x1="179.38" y1="0.00" x2="187.20" y2="1.80"/>
    <line x1="172.80" y1="4.64" x2="187.20" y2="7.96"/>
    <line x1="172.80" y1="6.49" x2="187.20" y2="9.81"/>
    <line x1="172.80" y1="8.33" x2="187.20" y2="11.66"/>
    <line x1="172.80" y1="14.49" x2="187.20" y2="17.81"/>
    <line x1="172.80" y1="16.34" x2="187.20" y2="19.66"/>
    <line x1="172.80" y1="18.19" x2="187.20" y2="21.51"/>
    <line x1="172.80" y1="24.34" x2="187.20" y2="27.67"/>
    <line x1="172.80" y1="26.19" x2="187.20" y2="29.51"/>
    <line x1="172.80" y1="28.04" x2="187.20" y2="31.36"/>
    <line x1="172.80" y1="34.20" x2="180.62" y2="36.00"/>
  </g>
  <g stroke="#4361EE" stroke-width="1" fill="none" stroke-linecap="round">
    <line x1="196.13" y1="0.00" x2="201.60" y2="1.06"/>
    <line x1="187.20" y1="1.32" x2="201.60" y2="4.12"/>
    <line x1="187.20" y1="4.38" x2="201.60" y2="7.17"/>
    <line x1="187.20" y1="7.43" x2="201.60" y2="10.23"/>
    <line x1="187.20" y1="10.49" x2="201.60" y2="13.29"/>
    <line x1="187.20" y1="13.54" x2="201.60" y2="16.34"/>
    <line x1="187.20" y1="16.60" x2="201.60" y2="19.40"/>
    <line x1="187.20" y1="19.66" x2="201.60" y2="22.46"/>
    <line x1="187.20" y1="22.71" x2="201.60" y2="25.51"/>
    <line x1="187.20" y1="25.77" x2="201.60" y2="28.57"/>
    <line x1="187.20" y1="28.83" x2="201.60" y2="31.62"/>
    <line x1="187.20" y1="31.88" x2="201.60" y2="34.68"/>
    <line x1="187.20" y1="34.94" x2="192.67" y2="36.00"/>
  </g>
  <g stroke="#3A86FF" stroke-width="1" fill="none" stroke-linecap="round">
    <line x1="216.00" y1="23.49" x2="215.35" y2="24.35"/>
    <line x1="216.00" y1="30.58" x2="214.84" y2="29.70"/>
    <line x1="207.58" y1="0.00" x2="202.13" y2="7.23"/>
    <line x1="215.99" y1="23.42" x2="201.61" y2="12.58"/>
    <line x1="215.47" y1="28.77" x2="210.02" y2="36.00"/>
    <line x1="202.76" y1="6.30" x2="201.60" y2="5.42"/>
    <line x1="202.25" y1="11.65" x2="201.60" y2="12.51"/>
  </g>
  <g stroke="#F15BB5" stroke-width="1" fill="none" stroke-linecap="round">
    <line x1="230.36" y1="0.00" x2="230.40" y2="0.40"/>
    <line x1="227.34" y1="-0.00" x2="230.40" y2="29.10"/>
    <line x1="224.32" y1="0.00" x2="228.11" y2="36.00"/>
    <line x1="221.31" y1="-0.00" x2="225.09" y2="36.00"/>
    <line x1="218.29" y1="0.00" x2="222.08" y2="36.00"/>
    <line x1="216.00" y1="6.90" x2="219.06" y2="36.00"/>
    <line x1="216.00" y1="35.60" x2="216.04" y2="36.00"/>
    <line x1="230.40" y1="35.34" x2="224.14" y2="36.00"/>
    <line x1="230.40" y1="32.33" x2="216.00" y2="33.84"/>
    <line x1="230.40" y1="29.31" x2="216.00" y2="30.82"/>
    <line x1="230.40" y1="26.29" x2="216.00" y2="27.81"/>
    <line x1="230.40" y1="23.28" x2="216.00" y2="24.79"/>
    <line x1="230.40" y1="20.26" x2="216.00" y2="21.77"/>
    <line x1="230.40" y1="17.24" x2="216.00" y2="18.76"/>
    <line x1="230.40" y1="14.23" x2="216.00" y2="15.74"/>
    <line x1="230.40" y1="11.21" x2="216.00" y2="12.72"/>
    <line x1="230.40" y1="8.19" x2="216.00" y2="9.71"/>
    <line x1="230.40" y1="5.18" x2="216.00" y2="6.69"/>
    <line x1="230.40" y1="2.16" x2="216.00" y2="3.67"/>
    <line x1="222.26" y1="0.00" x2="216.00" y2="0.66"/>
  </g>
  <g stroke="#3A86FF" stroke-width="1" fill="none" stroke-linecap="round">
    <line x1="244.80" y1="1.31" x2="244.14" y2="1.78"/>
    <line x1="244.61" y1="4.74" x2="244.80" y2="4.80"/>
    <line x1="244.32" y1="-0.00" x2="241.18" y2="2.25"/>
    <line x1="241.65" y1="5.21" x2="244.80" y2="6.21"/>
    <line x1="244.80" y1="12.85" x2="243.06" y2="14.10"/>
    <line x1="243.53" y1="17.06" x2="244.80" y2="17.46"/>
    <line x1="242.01" y1="0.00" x2="238.22" y2="2.72"/>
    <line x1="238.69" y1="5.68" x2="244.80" y2="7.61"/>
    <line x1="244.80" y1="11.20" x2="240.09" y2="14.57"/>
    <line x1="240.56" y1="17.53" x2="244.80" y2="18.87"/>
    <line x1="244.80" y1="24.40" x2="241.97" y2="26.42"/>
    <line x1="242.44" y1="29.38" x2="244.80" y2="30.13"/>
    <line x1="239.71" y1="0.00" x2="235.25" y2="3.18"/>
    <line x1="235.72" y1="6.15" x2="242.12" y2="8.17"/>
    <line x1="242.59" y1="11.14" x2="237.13" y2="15.04"/>
    <line x1="237.60" y1="18.00" x2="244.00" y2="20.02"/>
    <line x1="244.46" y1="22.99" x2="239.01" y2="26.89"/>
    <line x1="239.48" y1="29.85" x2="244.80" y2="31.54"/>
    <line x1="244.80" y1="35.94" x2="244.72" y2="36.00"/>
    <line x1="237.40" y1="-0.00" x2="232.29" y2="3.65"/>
    <line x1="232.76" y1="6.62" x2="239.16" y2="8.64"/>
    <line x1="239.62" y1="11.60" x2="234.17" y2="15.51"/>
    <line x1="234.64" y1="18.47" x2="241.03" y2="20.49"/>
    <line x1="241.50" y1="23.46" x2="236.04" y2="27.36"/>
    <line x1="236.51" y1="30.32" x2="242.91" y2="32.35"/>
    <line x1="243.38" y1="35.31" x2="242.41" y2="36.00"/>
    <line x1="234.78" y1="0.22" x2="230.40" y2="3.36"/>
    <line x1="230.40" y1="7.28" x2="236.19" y2="9.11"/>
    <line x1="236.66" y1="12.07" x2="231.20" y2="15.98"/>
    <line x1="231.67" y1="18.94" x2="238.07" y2="20.96"/>
    <line x1="238.54" y1="23.93" x2="233.08" y2="27.83"/>
    <line x1="233.55" y1="30.79" x2="239.95" y2="32.82"/>
    <line x1="240.42" y1="35.78" x2="240.11" y2="36.00"/>
    <line x1="231.82" y1="0.69" x2="230.40" y2="1.71"/>
    <line x1="230.40" y1="8.68" x2="233.23" y2="9.58"/>
    <line x1="233.70" y1="12.54" x2="230.40" y2="14.90"/>
    <line x1="230.40" y1="19.94" x2="235.11" y2="21.43"/>
    <line x1="235.58" y1="24.40" x2="230.40" y2="28.10"/>
    <line x1="230.59" y1="31.26" x2="236.98" y2="33.28"/>
    <line x1="230.74" y1="13.01" x2="230.40" y2="13.25"/>
    <line x1="230.40" y1="21.35" x2="232.14" y2="21.90"/>
    <line x1="232.61" y1="24.86" x2="230.40" y2="26.45"/>
    <line x1="230.40" y1="32.61" x2="234.02" y2="33.75"/>
    <line x1="230.40" y1="34.02" x2="231.06" y2="34.22"/>
  </g>
  <g stroke="#4361EE" stroke-width="1" fill="none" stroke-linecap="round">
    <line x1="252.31" y1="0.00" x2="259.20" y2="0.24"/>
    <line x1="244.80" y1="2.74" x2="259.20" y2="3.24"/>
    <line x1="244.80" y1="5.74" x2="259.20" y2="6.24"/>
    <line x1="244.80" y1="8.74" x2="259.20" y2="9.25"/>
    <line x1="244.80" y1="11.74" x2="259.20" y2="12.25"/>
    <line x1="244.80" y1="14.75" x2="259.20" y2="15.25"/>
    <line x1="244.80" y1="17.75" x2="259.20" y2="18.25"/>
    <line x1="244.80" y1="20.75" x2="259.20" y2="21.25"/>
    <line x1="244.80" y1="23.75" x2="259.20" y2="24.26"/>
    <line x1="244.80" y1="26.75" x2="259.20" y2="27.26"/>
    <line x1="244.80" y1="29.76" x2="259.20" y2="30.26"/>
    <line x1="244.80" y1="32.76" x2="259.20" y2="33.26"/>
    <line x1="244.80" y1="35.76" x2="251.69" y2="36.00"/>
  </g>
  <g stroke="#FFCA3A" stroke-width="1" fill="none" stroke-linecap="round">
    <line x1="273.60" y1="32.76" x2="270.88" y2="36.00"/>
    <line x1="273.60" y1="28.09" x2="266.96" y2="36.00"/>
    <line x1="273.60" y1="23.42" x2="263.04" y2="36.00"/>
    <line x1="273.60" y1="18.75" x2="259.20" y2="35.91"/>
    <line x1="273.60" y1="14.09" x2="259.20" y2="31.25"/>
    <line x1="273.60" y1="9.42" x2="259.20" y2="26.58"/>
    <line x1="273.60" y1="4.75" x2="259.20" y2="21.91"/>
    <line x1="273.60" y1="0.09" x2="259.20" y2="17.25"/>
    <line x1="269.76" y1="0.00" x2="259.20" y2="12.58"/>
    <line x1="265.84" y1="0.00" x2="259.20" y2="7.91"/>
    <line x1="261.92" y1="0.00" x2="259.20" y2="3.24"/>
    <line x1="259.85" y1="36.00" x2="259.20" y2="35.46"/>
    <line x1="264.52" y1="36.00" x2="259.20" y2="31.54"/>
    <line x1="269.18" y1="36.00" x2="259.20" y2="27.62"/>
    <line x1="273.60" y1="35.79" x2="259.20" y2="23.71"/>
    <line x1="273.60" y1="31.87" x2="259.20" y2="19.79"/>
    <line x1="273.60" y1="27.96" x2="259.20" y2="15.87"/>
    <line x1="273.60" y1="24.04" x2="259.20" y2="11.96"/>
    <line x1="273.60" y1="20.13" x2="259.20" y2="8.04"/>
    <line x1="273.60" y1="16.21" x2="259.20" y2="4.13"/>
    <line x1="273.60" y1="12.29" x2="259.20" y2="0.21"/>
    <line x1="273.60" y1="8.38" x2="263.62" y2="0.00"/>
    <line x1="273.60" y1="4.46" x2="268.28" y2="-0.00"/>
    <line x1="273.60" y1="0.54" x2="272.95" y2="0.00"/>
  </g>
  <g stroke="#00B4D8" stroke-width="1" fill="none" stroke-linecap="round">
    <line x1="278.60" y1="36.00" x2="286.90" y2="22.20"/>
    <line x1="273.60" y1="13.67" x2="288.00" y2="22.33"/>
    <line x1="274.70" y1="13.80" x2="283.00" y2="-0.00"/>
  </g>
  <g stroke="#00F5D4" stroke-width="1" fill="none" stroke-linecap="round">
    <line x1="297.57" y1="0.00" x2="302.40" y2="1.29"/>
    <line x1="288.00" y1="0.54" x2="302.40" y2="4.40"/>
    <line x1="288.00" y1="3.65" x2="302.40" y2="7.51"/>
    <line x1="288.00" y1="6.75" x2="302.40" y2="10.61"/>
    <line x1="288.00" y1="9.86" x2="302.40" y2="13.72"/>
    <line x1="288.00" y1="12.96" x2="302.40" y2="16.82"/>
    <line x1="288.00" y1="16.07" x2="302.40" y2="19.93"/>
    <line x1="288.00" y1="19.18" x2="302.40" y2="23.04"/>
    <line x1="288.00" y1="22.28" x2="302.40" y2="26.14"/>
    <line x1="288.00" y1="25.39" x2="302.40" y2="29.25"/>
    <line x1="288.00" y1="28.49" x2="302.40" y2="32.35"/>
    <line x1="288.00" y1="31.60" x2="302.40" y2="35.46"/>
    <line x1="288.00" y1="34.71" x2="292.83" y2="36.00"/>
  </g>
  <g stroke="#FF595E" stroke-width="1" fill="none" stroke-linecap="round">
    <line x1="316.73" y1="0.00" x2="316.80" y2="0.04"/>
    <line x1="313.02" y1="0.00" x2="316.80" y2="2.10"/>
    <line x1="302.40" y1="0.97" x2="316.80" y2="8.96"/>
    <line x1="302.40" y1="3.03" x2="316.80" y2="11.01"/>
    <line x1="302.40" y1="5.09" x2="316.80" y2="13.07"/>
    <line x1="302.40" y1="11.95" x2="316.80" y2="19.93"/>
    <line x1="302.40" y1="14.01" x2="316.80" y2="21.99"/>
    <line x1="302.40" y1="16.07" x2="316.80" y2="24.05"/>
    <line x1="302.40" y1="22.93" x2="316.80" y2="30.91"/>
    <line x1="302.40" y1="24.99" x2="316.80" y2="32.97"/>
    <line x1="302.40" y1="27.04" x2="316.80" y2="35.03"/>
    <line x1="302.40" y1="33.90" x2="306.18" y2="36.00"/>
    <line x1="302.40" y1="35.96" x2="302.47" y2="36.00"/>
  </g>
  <g stroke="#3A86FF" stroke-width="1" fill="none" stroke-linecap="round">
    <line x1="316.80" y1="0.00" x2="331.20" y2="0.00"/>
    <line x1="331.20" y1="0.00" x2="331.20" y2="36.00"/>
    <line x1="331.20" y1="36.00" x2="316.80" y2="36.00"/>
    <line x1="316.80" y1="36.00" x2="316.80" y2="0.00"/>
    <line x1="316.80" y1="36.00" x2="317.91" y2="33.21"/>
    <line x1="317.91" y1="2.79" x2="330.09" y2="2.79"/>
    <line x1="330.09" y1="2.79" x2="330.09" y2="33.21"/>
    <line x1="330.09" y1="33.21" x2="317.91" y2="33.21"/>
    <line x1="317.91" y1="33.21" x2="317.91" y2="2.79"/>
    <line x1="317.91" y1="33.21" x2="319.03" y2="30.43"/>
    <line x1="319.03" y1="5.57" x2="328.97" y2="5.57"/>
    <line x1="328.97" y1="5.57" x2="328.97" y2="30.43"/>
    <line x1="328.97" y1="30.43" x2="319.03" y2="30.43"/>
    <line x1="319.03" y1="30.43" x2="319.03" y2="5.57"/>
    <line x1="319.03" y1="30.43" x2="320.14" y2="27.64"/>
    <line x1="320.14" y1="8.36" x2="327.86" y2="8.36"/>
    <line x1="327.86" y1="8.36" x2="327.86" y2="27.64"/>
    <line x1="327.86" y1="27.64" x2="320.14" y2="27.64"/>
    <line x1="320.14" y1="27.64" x2="320.14" y2="8.36"/>
    <line x1="320.14" y1="27.64" x2="321.26" y2="24.86"/>
    <line x1="321.26" y1="11.14" x2="326.74" y2="11.14"/>
    <line x1="326.74" y1="11.14" x2="326.74" y2="24.86"/>
    <line x1="326.74" y1="24.86" x2="321.26" y2="24.86"/>
    <line x1="321.26" y1="24.86" x2="321.26" y2="11.14"/>
    <line x1="321.26" y1="24.86" x2="322.37" y2="22.07"/>
    <line x1="322.37" y1="13.93" x2="325.63" y2="13.93"/>
    <line x1="325.63" y1="13.93" x2="325.63" y2="22.07"/>
    <line x1="325.63" y1="22.07" x2="322.37" y2="22.07"/>
    <line x1="322.37" y1="22.07" x2="322.37" y2="13.93"/>
  </g>
  <g stroke="#118AB2" stroke-width="1" fill="none" stroke-linecap="round">
    <line x1="345.60" y1="34.79" x2="343.73" y2="36.00"/>
    <line x1="345.60" y1="31.21" x2="338.22" y2="36.00"/>
    <line x1="345.60" y1="27.63" x2="332.72" y2="36.00"/>
    <line x1="345.60" y1="24.06" x2="331.20" y2="33.41"/>
    <line x1="345.60" y1="20.48" x2="331.20" y2="29.83"/>
    <line x1="345.60" y1="16.90" x2="331.20" y2="26.25"/>
    <line x1="345.60" y1="13.32" x2="331.20" y2="22.68"/>
    <line x1="345.60" y1="9.75" x2="331.20" y2="19.10"/>
    <line x1="345.60" y1="6.17" x2="331.20" y2="15.52"/>
    <line x1="345.60" y1="2.59" x2="331.20" y2="11.94"/>
    <line x1="344.08" y1="0.00" x2="331.20" y2="8.37"/>
    <line x1="338.58" y1="0.00" x2="331.20" y2="4.79"/>
    <line x1="333.07" y1="-0.00" x2="331.20" y2="1.21"/>
  </g>
  <g stroke="#06D6A0" stroke-width="1" fill="none" stroke-linecap="round">
    <line x1="360.00" y1="31.55" x2="358.38" y2="36.00"/>
    <line x1="360.00" y1="26.29" x2="356.46" y2="36.00"/>
    <line x1="360.00" y1="21.02" x2="354.55" y2="36.00"/>
    <line x1="360.00" y1="3.48" x2="348.16" y2="36.00"/>
    <line x1="359.35" y1="0.00" x2="346.25" y2="36.00"/>
    <line x1="357.44" y1="0.00" x2="345.60" y2="32.52"/>
    <line x1="351.05" y1="0.00" x2="345.60" y2="14.98"/>
    <line x1="349.14" y1="0.00" x2="345.60" y2="9.71"/>
    <line x1="347.22" y1="0.00" x2="345.60" y2="4.45"/>
  </g>
  <g stroke="#90BE6D" stroke-width="1" fill="none" stroke-linecap="round">
    <line x1="362.89" y1="6.80" x2="374.40" y2="7.00"/>
    <line x1="367.36" y1="9.00" x2="367.04" y2="27.00"/>
    <line x1="360.00" y1="29.00" x2="371.51" y2="29.20"/>
  </g>
  <g stroke="#E63946" stroke-width="1" fill="none" stroke-linecap="round">
    <line x1="386.68" y1="0.00" x2="388.80" y2="9.18"/>
    <line x1="383.60" y1="0.00" x2="388.80" y2="22.51"/>
    <line x1="380.52" y1="0.00" x2="388.80" y2="35.85"/>
    <line x1="377.44" y1="0.00" x2="385.76" y2="36.00"/>
    <line x1="374.40" y1="0.15" x2="382.68" y2="36.00"/>
    <line x1="374.40" y1="13.49" x2="379.60" y2="36.00"/>
    <line x1="374.40" y1="26.82" x2="376.52" y2="36.00"/>
  </g>
  <g stroke="#6A4C93" stroke-width="1" fill="none" stroke-linecap="round">
    <line x1="399.94" y1="36.00" x2="398.45" y2="35.32"/>
    <line x1="402.66" y1="35.76" x2="396.56" y2="32.99"/>
    <line x1="394.23" y1="34.88" x2="394.47" y2="36.00"/>
    <line x1="401.66" y1="24.99" x2="403.11" y2="31.55"/>
    <line x1="400.78" y1="33.43" x2="394.67" y2="30.66"/>
    <line x1="392.34" y1="32.55" x2="393.10" y2="36.00"/>
    <line x1="403.20" y1="21.27" x2="402.11" y2="20.77"/>
    <line x1="399.78" y1="22.66" x2="401.22" y2="29.21"/>
    <line x1="398.89" y1="31.10" x2="392.78" y2="28.33"/>
    <line x1="390.45" y1="30.21" x2="391.73" y2="36.00"/>
    <line x1="403.20" y1="19.80" x2="400.22" y2="18.44"/>
    <line x1="397.89" y1="20.33" x2="399.33" y2="26.88"/>
    <line x1="397.00" y1="28.77" x2="390.89" y2="26.00"/>
    <line x1="388.80" y1="28.96" x2="390.01" y2="34.43"/>
    <line x1="403.20" y1="18.32" x2="398.33" y2="16.11"/>
    <line x1="396.00" y1="18.00" x2="397.44" y2="24.55"/>
    <line x1="395.11" y1="26.44" x2="389.01" y2="23.66"/>
    <line x1="402.55" y1="16.56" x2="396.44" y2="13.78"/>
    <line x1="394.11" y1="15.67" x2="395.56" y2="22.22"/>
    <line x1="393.23" y1="24.11" x2="388.80" y2="22.10"/>
    <line x1="401.55" y1="5.79" x2="402.99" y2="12.34"/>
    <line x1="400.66" y1="14.22" x2="394.56" y2="11.45"/>
    <line x1="392.22" y1="13.34" x2="393.67" y2="19.89"/>
    <line x1="391.34" y1="21.78" x2="388.80" y2="20.62"/>
    <line x1="403.20" y1="2.11" x2="401.99" y2="1.57"/>
    <line x1="399.66" y1="3.45" x2="401.11" y2="10.00"/>
    <line x1="398.77" y1="11.89" x2="392.67" y2="9.12"/>
    <line x1="390.34" y1="11.01" x2="391.78" y2="17.56"/>
    <line x1="389.45" y1="19.44" x2="388.80" y2="19.15"/>
    <line x1="403.20" y1="0.64" x2="401.79" y2="0.00"/>
    <line x1="397.77" y1="1.12" x2="399.22" y2="7.67"/>
    <line x1="396.89" y1="9.56" x2="390.78" y2="6.79"/>
    <line x1="388.80" y1="10.27" x2="389.89" y2="15.23"/>
    <line x1="396.15" y1="-0.00" x2="397.33" y2="5.34"/>
    <line x1="395.00" y1="7.23" x2="388.89" y2="4.45"/>
    <line x1="394.78" y1="0.00" x2="395.44" y2="3.01"/>
    <line x1="393.11" y1="4.90" x2="388.80" y2="2.94"/>
    <line x1="393.40" y1="0.00" x2="393.55" y2="0.68"/>
    <line x1="391.22" y1="2.57" x2="388.80" y2="1.47"/>
    <line x1="389.34" y1="0.24" x2="388.82" y2="-0.00"/>
  </g>
  <g stroke="#118AB2" stroke-width="1" fill="none" stroke-linecap="round">
    <line x1="416.84" y1="-0.00" x2="417.60" y2="1.22"/>
    <line x1="413.30" y1="0.00" x2="417.60" y2="6.88"/>
    <line x1="409.76" y1="-0.00" x2="417.60" y2="12.54"/>
    <line x1="406.23" y1="0.00" x2="417.60" y2="18.20"/>
    <line x1="403.20" y1="0.82" x2="417.60" y2="23.86"/>
    <line x1="403.20" y1="6.48" x2="417.60" y2="29.52"/>
    <line x1="403.20" y1="12.14" x2="417.60" y2="35.18"/>
    <line x1="403.20" y1="17.80" x2="414.57" y2="36.00"/>
    <line x1="403.20" y1="23.46" x2="411.04" y2="36.00"/>
    <line x1="403.20" y1="29.12" x2="407.50" y2="36.00"/>
    <line x1="403.20" y1="34.78" x2="403.96" y2="36.00"/>
    <line x1="417.60" y1="34.73" x2="415.56" y2="36.00"/>
    <line x1="417.60" y1="31.19" x2="409.90" y2="36.00"/>
    <line x1="417.60" y1="27.65" x2="404.24" y2="36.00"/>
    <line x1="417.60" y1="24.11" x2="403.20" y2="33.11"/>
    <line x1="417.60" y1="20.58" x2="403.20" y2="29.57"/>
    <line x1="417.60" y1="17.04" x2="403.20" y2="26.04"/>
    <line x1="417.60" y1="13.50" x2="403.20" y2="22.50"/>
    <line x1="417.60" y1="9.96" x2="403.20" y2="18.96"/>
    <line x1="417.60" y1="6.43" x2="403.20" y2="15.42"/>
    <line x1="417.60" y1="2.89" x2="403.20" y2="11.89"/>
    <line x1="416.56" y1="0.00" x2="403.20" y2="8.35"/>
    <line x1="410.90" y1="0.00" x2="403.20" y2="4.81"/>
    <line x1="405.24" y1="0.00" x2="403.20" y2="1.27"/>
  </g>
  <g stroke="#00F5D4" stroke-width="1" fill="none" stroke-linecap="round">
    <line x1="417.60" y1="0.00" x2="432.00" y2="0.00"/>
    <line x1="432.00" y1="0.00" x2="432.00" y2="36.00"/>
    <line x1="432.00" y1="36.00" x2="417.60" y2="36.00"/>
    <line x1="417.60" y1="36.00" x2="417.60" y2="0.00"/>
    <line x1="417.60" y1="36.00" x2="418.71" y2="33.21"/>
    <line x1="418.71" y1="2.79" x2="430.89" y2="2.79"/>
    <line x1="430.89" y1="2.79" x2="430.89" y2="33.21"/>
    <line x1="430.89" y1="33.21" x2="418.71" y2="33.21"/>
    <line x1="418.71" y1="33.21" x2="418.71" y2="2.79"/>
    <line x1="418.71" y1="33.21" x2="419.83" y2="30.43"/>
    <line x1="419.83" y1="5.57" x2="429.77" y2="5.57"/>
    <line x1="429.77" y1="5.57" x2="429.77" y2="30.43"/>
    <line x1="429.77" y1="30.43" x2="419.83" y2="30.43"/>
    <line x1="419.83" y1="30.43" x2="419.83" y2="5.57"/>
    <line x1="419.83" y1="30.43" x2="420.94" y2="27.64"/>
    <line x1="420.94" y1="8.36" x2="428.66" y2="8.36"/>
    <line x1="428.66" y1="8.36" x2="428.66" y2="27.64"/>
    <line x1="428.66" y1="27.64" x2="420.94" y2="27.64"/>
    <line x1="420.94" y1="27.64" x2="420.94" y2="8.36"/>
    <line x1="420.94" y1="27.64" x2="422.06" y2="24.86"/>
    <line x1="422.06" y1="11.14" x2="427.54" y2="11.14"/>
    <line x1="427.54" y1="11.14" x2="427.54" y2="24.86"/>
    <line x1="427.54" y1="24.86" x2="422.06" y2="24.86"/>
    <line x1="422.06" y1="24.86" x2="422.06" y2="11.14"/>
    <line x1="422.06" y1="24.86" x2="423.17" y2="22.07"/>
    <line x1="423.17" y1="13.93" x2="426.43" y2="13.93"/>
    <line x1="426.43" y1="13.93" x2="426.43" y2="22.07"/>
    <line x1="426.43" y1="22.07" x2="423.17" y2="22.07"/>
    <line x1="423.17" y1="22.07" x2="423.17" y2="13.93"/>
  </g>
  <g stroke="#073B4C" stroke-width="1" fill="none" stroke-linecap="round">
    <line x1="446.40" y1="35.11" x2="445.22" y2="36.00"/>
    <line x1="446.40" y1="31.36" x2="440.24" y2="36.00"/>
    <line x1="446.40" y1="27.60" x2="435.25" y2="36.00"/>
    <line x1="446.40" y1="23.84" x2="432.00" y2="34.69"/>
    <line x1="446.40" y1="20.09" x2="432.00" y2="30.94"/>
    <line x1="446.40" y1="16.33" x2="432.00" y2="27.18"/>
    <line x1="446.40" y1="12.57" x2="432.00" y2="23.43"/>
    <line x1="446.40" y1="8.82" x2="432.00" y2="19.67"/>
    <line x1="446.40" y1="5.06" x2="432.00" y2="15.91"/>
    <line x1="446.40" y1="1.31" x2="432.00" y2="12.16"/>
    <line x1="443.15" y1="0.00" x2="432.00" y2="8.40"/>
    <line x1="438.16" y1="0.00" x2="432.00" y2="4.64"/>
    <line x1="433.18" y1="0.00" x2="432.00" y2="0.89"/>
  </g>
  <g stroke="#00F5D4" stroke-width="1" fill="none" stroke-linecap="round">
    <line x1="460.80" y1="32.47" x2="458.52" y2="32.17"/>
    <line x1="456.84" y1="34.66" x2="457.59" y2="36.00"/>
    <line x1="460.80" y1="31.12" x2="456.03" y2="30.49"/>
    <line x1="454.35" y1="32.98" x2="456.05" y2="36.00"/>
    <line x1="460.80" y1="18.94" x2="460.25" y2="18.87"/>
    <line x1="458.57" y1="21.36" x2="460.80" y2="25.30"/>
    <line x1="460.19" y1="29.68" x2="453.54" y2="28.82"/>
    <line x1="451.86" y1="31.30" x2="454.51" y2="36.00"/>
    <line x1="460.80" y1="17.59" x2="457.76" y2="17.19"/>
    <line x1="456.09" y1="19.68" x2="459.38" y2="25.52"/>
    <line x1="457.71" y1="28.01" x2="451.05" y2="27.14"/>
    <line x1="449.38" y1="29.63" x2="452.67" y2="35.47"/>
    <line x1="460.31" y1="8.05" x2="460.80" y2="8.92"/>
    <line x1="460.80" y1="16.23" x2="455.28" y2="15.51"/>
    <line x1="453.60" y1="18.00" x2="456.90" y2="23.84"/>
    <line x1="455.22" y1="26.33" x2="448.57" y2="25.46"/>
    <line x1="446.89" y1="27.95" x2="450.19" y2="33.79"/>
    <line x1="460.80" y1="4.06" x2="459.50" y2="3.89"/>
    <line x1="457.82" y1="6.37" x2="460.80" y2="11.65"/>
    <line x1="459.44" y1="14.70" x2="452.79" y2="13.84"/>
    <line x1="451.11" y1="16.32" x2="454.41" y2="22.16"/>
    <line x1="452.73" y1="24.65" x2="446.40" y2="23.83"/>
    <line x1="446.40" y1="29.81" x2="447.70" y2="32.11"/>
    <line x1="460.80" y1="2.70" x2="457.01" y2="2.21"/>
    <line x1="455.34" y1="4.70" x2="458.63" y2="10.54"/>
    <line x1="456.96" y1="13.03" x2="450.30" y2="12.16"/>
    <line x1="448.63" y1="14.64" x2="451.92" y2="20.49"/>
    <line x1="450.24" y1="22.97" x2="446.40" y2="22.47"/>
    <line x1="460.80" y1="1.35" x2="454.53" y2="0.53"/>
    <line x1="452.85" y1="3.02" x2="456.15" y2="8.86"/>
    <line x1="454.47" y1="11.35" x2="447.82" y2="10.48"/>
    <line x1="446.40" y1="13.43" x2="449.44" y2="18.81"/>
    <line x1="447.76" y1="21.30" x2="446.40" y2="21.12"/>
    <line x1="450.36" y1="1.34" x2="453.66" y2="7.18"/>
    <line x1="451.98" y1="9.67" x2="446.40" y2="8.94"/>
    <line x1="446.40" y1="16.16" x2="446.95" y2="17.13"/>
    <line x1="448.06" y1="0.00" x2="451.17" y2="5.51"/>
    <line x1="449.49" y1="7.99" x2="446.40" y2="7.59"/>
    <line x1="446.52" y1="0.00" x2="448.68" y2="3.83"/>
    <line x1="447.01" y1="6.32" x2="446.40" y2="6.24"/>
  </g>
  <g stroke="#E9C46A" stroke-width="1" fill="none" stroke-linecap="round">
    <line x1="471.12" y1="0.00" x2="475.20" y2="16.34"/>
    <line x1="464.94" y1="0.00" x2="473.92" y2="36.00"/>
    <line x1="460.80" y1="8.19" x2="467.73" y2="36.00"/>
    <line x1="460.80" y1="32.99" x2="461.55" y2="36.00"/>
    <line x1="475.20" y1="2.41" x2="460.80" y2="6.00"/>
    <line x1="475.20" y1="8.59" x2="460.80" y2="12.18"/>
    <line x1="475.20" y1="14.78" x2="460.80" y2="18.37"/>
    <line x1="475.20" y1="20.96" x2="460.80" y2="24.55"/>
    <line x1="475.20" y1="27.14" x2="460.80" y2="30.73"/>
    <line x1="475.20" y1="33.33" x2="464.48" y2="36.00"/>
  </g>
  <g stroke="#FB5607" stroke-width="1" fill="none" stroke-linecap="round">
    <line x1="475.20" y1="0.00" x2="489.60" y2="0.00"/>
    <line x1="489.60" y1="0.00" x2="489.60" y2="36.00"/>
    <line x1="489.60" y1="36.00" x2="475.20" y2="36.00"/>
    <line x1="475.20" y1="36.00" x2="475.20" y2="0.00"/>
    <line x1="475.20" y1="36.00" x2="476.31" y2="33.21"/>
    <line x1="476.31" y1="2.79" x2="488.49" y2="2.79"/>
    <line x1="488.49" y1="2.79" x2="488.49" y2="33.21"/>
    <line x1="488.49" y1="33.21" x2="476.31" y2="33.21"/>
    <line x1="476.31" y1="33.21" x2="476.31" y2="2.79"/>
    <line x1="476.31" y1="33.21" x2="477.43" y2="30.43"/>
    <line x1="477.43" y1="5.57" x2="487.37" y2="5.57"/>
    <line x1="487.37" y1="5.57" x2="487.37" y2="30.43"/>
    <line x1="487.37" y1="30.43" x2="477.43" y2="30.43"/>
    <line x1="477.43" y1="30.43" x2="477.43" y2="5.57"/>
    <line x1="477.43" y1="30.43" x2="478.54" y2="27.64"/>
    <line x1="478.54" y1="8.36" x2="486.26" y2="8.36"/>
    <line x1="486.26" y1="8.36" x2="486.26" y2="27.64"/>
    <line x1="486.26" y1="27.64" x2="478.54" y2="27.64"/>
    <line x1="478.54" y1="27.64" x2="478.54" y2="8.36"/>
    <line x1="478.54" y1="27.64" x2="479.66" y2="24.86"/>
    <line x1="479.66" y1="11.14" x2="485.14" y2="11.14"/>
    <line x1="485.14" y1="11.14" x2="485.14" y2="24.86"/>
    <line x1="485.14" y1="24.86" x2="479.66" y2="24.86"/>
    <line x1="479.66" y1="24.86" x2="479.66" y2="11.14"/>
    <line x1="479.66" y1="24.86" x2="480.77" y2="22.07"/>
    <line x1="480.77" y1="13.93" x2="484.03" y2="13.93"/>
    <line x1="484.03" y1="13.93" x2="484.03" y2="22.07"/>
    <line x1="484.03" y1="22.07" x2="480.77" y2="22.07"/>
    <line x1="480.77" y1="22.07" x2="480.77" y2="13.93"/>
  </g>
  <g stroke="#264653" stroke-width="1" fill="none" stroke-linecap="round">
    <line x1="504.00" y1="31.35" x2="503.64" y2="31.35"/>
    <line x1="502.33" y1="34.05" x2="503.82" y2="36.00"/>
    <line x1="504.00" y1="30.00" x2="500.94" y2="30.03"/>
    <line x1="499.63" y1="32.73" x2="502.13" y2="36.00"/>
    <line x1="504.00" y1="17.93" x2="503.51" y2="17.93"/>
    <line x1="502.19" y1="20.63" x2="504.00" y2="22.99"/>
    <line x1="504.00" y1="28.66" x2="498.25" y2="28.72"/>
    <line x1="496.93" y1="31.42" x2="500.44" y2="36.00"/>
    <line x1="504.00" y1="16.59" x2="500.81" y2="16.62"/>
    <line x1="499.50" y1="19.32" x2="503.57" y2="24.64"/>
    <line x1="502.26" y1="27.34" x2="495.55" y2="27.40"/>
    <line x1="494.24" y1="30.10" x2="498.31" y2="35.43"/>
    <line x1="504.00" y1="4.51" x2="503.38" y2="4.52"/>
    <line x1="502.06" y1="7.21" x2="504.00" y2="9.75"/>
    <line x1="504.00" y1="15.25" x2="498.12" y2="15.30"/>
    <line x1="496.80" y1="18.00" x2="500.88" y2="23.33"/>
    <line x1="499.56" y1="26.02" x2="492.85" y2="26.09"/>
    <line x1="491.54" y1="28.79" x2="495.62" y2="34.11"/>
    <line x1="504.00" y1="3.17" x2="500.68" y2="3.20"/>
    <line x1="499.36" y1="5.90" x2="503.44" y2="11.23"/>
    <line x1="502.13" y1="13.92" x2="495.42" y2="13.99"/>
    <line x1="494.10" y1="16.68" x2="498.18" y2="22.01"/>
    <line x1="496.87" y1="24.71" x2="490.16" y2="24.77"/>
    <line x1="489.60" y1="28.46" x2="492.92" y2="32.80"/>
    <line x1="491.61" y1="35.49" x2="489.60" y2="35.51"/>
    <line x1="504.00" y1="1.83" x2="497.98" y2="1.89"/>
    <line x1="496.67" y1="4.58" x2="500.75" y2="9.91"/>
    <line x1="499.43" y1="12.61" x2="492.72" y2="12.67"/>
    <line x1="491.41" y1="15.37" x2="495.48" y2="20.70"/>
    <line x1="494.17" y1="23.39" x2="489.60" y2="23.44"/>
    <line x1="489.60" y1="30.67" x2="490.22" y2="31.48"/>
    <line x1="501.99" y1="0.51" x2="495.29" y2="0.57"/>
    <line x1="493.97" y1="3.27" x2="498.05" y2="8.60"/>
    <line x1="496.73" y1="11.29" x2="490.03" y2="11.36"/>
    <line x1="489.60" y1="15.22" x2="492.79" y2="19.38"/>
    <line x1="491.47" y1="22.08" x2="489.60" y2="22.10"/>
    <line x1="491.27" y1="1.95" x2="495.35" y2="7.28"/>
    <line x1="494.04" y1="9.98" x2="489.60" y2="10.02"/>
    <line x1="489.60" y1="17.42" x2="490.09" y2="18.07"/>
    <line x1="489.60" y1="1.97" x2="492.66" y2="5.97"/>
    <line x1="491.34" y1="8.66" x2="489.60" y2="8.68"/>
    <line x1="489.60" y1="4.18" x2="489.96" y2="4.65"/>
  </g>
  <g stroke="#00BBF9" stroke-width="1" fill="none" stroke-linecap="round">
    <line x1="513.56" y1="1.19" x2="518.40" y2="0.30"/>
    <line x1="509.66" y1="0.00" x2="509.36" y2="0.60"/>
    <line x1="511.17" y1="3.00" x2="517.76" y2="1.79"/>
    <line x1="518.40" y1="6.53" x2="516.58" y2="10.19"/>
    <line x1="518.39" y1="12.58" x2="518.40" y2="12.58"/>
    <line x1="508.16" y1="0.00" x2="506.96" y2="2.41"/>
    <line x1="508.77" y1="4.81" x2="515.37" y2="3.59"/>
    <line x1="517.17" y1="5.99" x2="514.19" y2="11.99"/>
    <line x1="515.99" y1="14.39" x2="518.40" y2="13.95"/>
    <line x1="506.66" y1="0.00" x2="504.57" y2="4.22"/>
    <line x1="506.37" y1="6.61" x2="512.97" y2="5.40"/>
    <line x1="514.78" y1="7.79" x2="511.79" y2="13.80"/>
    <line x1="513.60" y1="16.19" x2="518.40" y2="15.31"/>
    <line x1="505.16" y1="0.01" x2="504.00" y2="2.35"/>
    <line x1="504.00" y1="8.41" x2="510.58" y2="7.20"/>
    <line x1="512.38" y1="9.60" x2="509.39" y2="15.60"/>
    <line x1="511.20" y1="18.00" x2="517.80" y2="16.79"/>
    <line x1="518.40" y1="21.60" x2="516.62" y2="25.19"/>
    <line x1="504.00" y1="9.78" x2="508.18" y2="9.01"/>
    <line x1="509.99" y1="11.40" x2="507.00" y2="17.41"/>
    <line x1="508.80" y1="19.81" x2="515.40" y2="18.59"/>
    <line x1="517.21" y1="20.99" x2="514.22" y2="26.99"/>
    <line x1="516.03" y1="29.39" x2="518.40" y2="28.95"/>
    <line x1="504.00" y1="11.14" x2="505.78" y2="10.81"/>
    <line x1="507.59" y1="13.21" x2="504.60" y2="19.21"/>
    <line x1="506.41" y1="21.61" x2="513.01" y2="20.40"/>
    <line x1="514.81" y1="22.79" x2="511.82" y2="28.80"/>
    <line x1="513.63" y1="31.19" x2="518.40" y2="30.32"/>
    <line x1="505.19" y1="15.01" x2="504.00" y2="17.41"/>
    <line x1="504.01" y1="23.42" x2="510.61" y2="22.20"/>
    <line x1="512.41" y1="24.60" x2="509.43" y2="30.60"/>
    <line x1="511.23" y1="33.00" x2="517.83" y2="31.78"/>
    <line x1="504.00" y1="24.78" x2="508.21" y2="24.01"/>
    <line x1="510.02" y1="26.40" x2="507.03" y2="32.41"/>
    <line x1="508.84" y1="34.81" x2="515.44" y2="33.59"/>
    <line x1="517.24" y1="35.99" x2="517.23" y2="36.00"/>
    <line x1="504.00" y1="26.15" x2="505.82" y2="25.81"/>
    <line x1="507.62" y1="28.21" x2="504.64" y2="34.21"/>
    <line x1="509.76" y1="36.00" x2="513.04" y2="35.40"/>
    <line x1="505.23" y1="30.01" x2="504.00" y2="32.48"/>
  </g>
  <g stroke="#F15BB5" stroke-width="1" fill="none" stroke-linecap="round">
    <line x1="532.80" y1="26.46" x2="528.15" y2="19.82"/>
    <line x1="523.47" y1="36.00" x2="526.90" y2="33.60"/>
    <line x1="518.40" y1="23.04" x2="532.80" y2="12.96"/>
    <line x1="524.30" y1="2.40" x2="527.73" y2="-0.00"/>
    <line x1="523.05" y1="16.18" x2="518.40" y2="9.54"/>
  </g>
  <g stroke="#FF006E" stroke-width="1" fill="none" stroke-linecap="round">
    <line x1="540.96" y1="36.00" x2="545.53" y2="21.04"/>
    <line x1="532.80" y1="15.80" x2="547.20" y2="20.20"/>
    <line x1="534.47" y1="14.96" x2="539.04" y2="0.00"/>
  </g>
  <g stroke="#073B4C" stroke-width="1" fill="none" stroke-linecap="round">
    <line x1="547.20" y1="0.00" x2="561.60" y2="0.00"/>
    <line x1="561.60" y1="0.00" x2="561.60" y2="36.00"/>
    <line x1="561.60" y1="36.00" x2="547.20" y2="36.00"/>
    <line x1="547.20" y1="36.00" x2="547.20" y2="0.00"/>
    <line x1="547.20" y1="36.00" x2="548.31" y2="33.21"/>
    <line x1="548.31" y1="2.79" x2="560.49" y2="2.79"/>
    <line x1="560.49" y1="2.79" x2="560.49" y2="33.21"/>
    <line x1="560.49" y1="33.21" x2="548.31" y2="33.21"/>
    <line x1="548.31" y1="33.21" x2="548.31" y2="2.79"/>
    <line x1="548.31" y1="33.21" x2="549.43" y2="30.43"/>
    <line x1="549.43" y1="5.57" x2="559.37" y2="5.57"/>
    <line x1="559.37" y1="5.57" x2="559.37" y2="30.43"/>
    <line x1="559.37" y1="30.43" x2="549.43" y2="30.43"/>
    <line x1="549.43" y1="30.43" x2="549.43" y2="5.57"/>
    <line x1="549.43" y1="30.43" x2="550.54" y2="27.64"/>
    <line x1="550.54" y1="8.36" x2="558.26" y2="8.36"/>
    <line x1="558.26" y1="8.36" x2="558.26" y2="27.64"/>
    <line x1="558.26" y1="27.64" x2="550.54" y2="27.64"/>
    <line x1="550.54" y1="27.64" x2="550.54" y2="8.36"/>
    <line x1="550.54" y1="27.64" x2="551.66" y2="24.86"/>
    <line x1="551.66" y1="11.14" x2="557.14" y2="11.14"/>
    <line x1="557.14" y1="11.14" x2="557.14" y2="24.86"/>
    <line x1="557.14" y1="24.86" x2="551.66" y2="24.86"/>
    <line x1="551.66" y1="24.86" x2="551.66" y2="11.14"/>
    <line x1="551.66" y1="24.86" x2="552.77" y2="22.07"/>
    <line x1="552.77" y1="13.93" x2="556.03" y2="13.93"/>
    <line x1="556.03" y1="13.93" x2="556.03" y2="22.07"/>
    <line x1="556.03" y1="22.07" x2="552.77" y2="22.07"/>
    <line x1="552.77" y1="22.07" x2="552.77" y2="13.93"/>
  </g>
  <g stroke="#1982C4" stroke-width="1" fill="none" stroke-linecap="round">
    <line x1="576.00" y1="32.58" x2="573.03" y2="36.00"/>
    <line x1="576.00" y1="28.01" x2="569.05" y2="36.00"/>
    <line x1="576.00" y1="23.44" x2="565.08" y2="36.00"/>
    <line x1="576.00" y1="18.86" x2="561.60" y2="35.43"/>
    <line x1="576.00" y1="14.29" x2="561.60" y2="30.86"/>
    <line x1="576.00" y1="9.72" x2="561.60" y2="26.28"/>
    <line x1="576.00" y1="5.14" x2="561.60" y2="21.71"/>
    <line x1="576.00" y1="0.57" x2="561.60" y2="17.14"/>
    <line x1="572.52" y1="0.00" x2="561.60" y2="12.56"/>
    <line x1="568.55" y1="0.00" x2="561.60" y2="7.99"/>
    <line x1="564.57" y1="0.00" x2="561.60" y2="3.42"/>
  </g>
  <g stroke="#00B4D8" stroke-width="1" fill="none" stroke-linecap="round">
    <line x1="576.00" y1="9.34" x2="576.56" y2="11.18"/>
    <line x1="590.40" y1="15.80" x2="576.00" y2="20.20"/>
    <line x1="589.84" y1="24.82" x2="590.40" y2="26.66"/>
  </g>
  <g stroke="#1982C4" stroke-width="1" fill="none" stroke-linecap="round">
    <line x1="599.49" y1="-0.00" x2="604.80" y2="1.13"/>
    <line x1="590.40" y1="1.13" x2="604.80" y2="4.20"/>
    <line x1="590.40" y1="4.20" x2="604.80" y2="7.26"/>
    <line x1="590.40" y1="7.27" x2="604.80" y2="10.33"/>
    <line x1="590.40" y1="10.34" x2="604.80" y2="13.40"/>
    <line x1="590.40" y1="13.40" x2="604.80" y2="16.46"/>
    <line x1="590.40" y1="16.47" x2="604.80" y2="19.53"/>
    <line x1="590.40" y1="19.54" x2="604.80" y2="22.60"/>
    <line x1="590.40" y1="22.60" x2="604.80" y2="25.66"/>
    <line x1="590.40" y1="25.67" x2="604.80" y2="28.73"/>
    <line x1="590.40" y1="28.74" x2="604.80" y2="31.80"/>
    <line x1="590.40" y1="31.80" x2="604.80" y2="34.87"/>
    <line x1="590.40" y1="34.87" x2="595.71" y2="36.00"/>
  </g>
  <g stroke="#F15BB5" stroke-width="1" fill="none" stroke-linecap="round">
    <line x1="604.80" y1="0.00" x2="619.20" y2="0.00"/>
    <line x1="619.20" y1="0.00" x2="619.20" y2="36.00"/>
    <line x1="619.20" y1="36.00" x2="604.80" y2="36.00"/>
    <line x1="604.80" y1="36.00" x2="604.80" y2="0.00"/>
    <line x1="604.80" y1="36.00" x2="605.91" y2="33.21"/>
    <line x1="605.91" y1="2.79" x2="618.09" y2="2.79"/>
    <line x1="618.09" y1="2.79" x2="618.09" y2="33.21"/>
    <line x1="618.09" y1="33.21" x2="605.91" y2="33.21"/>
    <line x1="605.91" y1="33.21" x2="605.91" y2="2.79"/>
    <line x1="605.91" y1="33.21" x2="607.03" y2="30.43"/>
    <line x1="607.03" y1="5.57" x2="616.97" y2="5.57"/>
    <line x1="616.97" y1="5.57" x2="616.97" y2="30.43"/>
    <line x1="616.97" y1="30.43" x2="607.03" y2="30.43"/>
    <line x1="607.03" y1="30.43" x2="607.03" y2="5.57"/>
    <line x1="607.03" y1="30.43" x2="608.14" y2="27.64"/>
    <line x1="608.14" y1="8.36" x2="615.86" y2="8.36"/>
    <line x1="615.86" y1="8.36" x2="615.86" y2="27.64"/>
    <line x1="615.86" y1="27.64" x2="608.14" y2="27.64"/>
    <line x1="608.14" y1="27.64" x2="608.14" y2="8.36"/>
    <line x1="608.14" y1="27.64" x2="609.26" y2="24.86"/>
    <line x1="609.26" y1="11.14" x2="614.74" y2="11.14"/>
    <line x1="614.74" y1="11.14" x2="614.74" y2="24.86"/>
    <line x1="614.74" y1="24.86" x2="609.26" y2="24.86"/>
    <line x1="609.26" y1="24.86" x2="609.26" y2="11.14"/>
    <line x1="609.26" y1="24.86" x2="610.37" y2="22.07"/>
    <line x1="610.37" y1="13.93" x2="613.63" y2="13.93"/>
    <line x1="613.63" y1="13.93" x2="613.63" y2="22.07"/>
    <line x1="613.63" y1="22.07" x2="610.37" y2="22.07"/>
    <line x1="610.37" y1="22.07" x2="610.37" y2="13.93"/>
  </g>
  <g stroke="#8338EC" stroke-width="1" fill="none" stroke-linecap="round">
    <line x1="627.11" y1="0.00" x2="633.60" y2="8.61"/>
    <line x1="624.86" y1="0.00" x2="633.60" y2="11.60"/>
    <line x1="622.60" y1="0.00" x2="633.60" y2="14.59"/>
    <line x1="619.20" y1="5.45" x2="633.60" y2="24.56"/>
    <line x1="619.20" y1="8.45" x2="633.60" y2="27.55"/>
    <line x1="619.20" y1="11.44" x2="633.60" y2="30.55"/>
    <line x1="619.20" y1="21.41" x2="630.20" y2="36.00"/>
    <line x1="619.20" y1="24.40" x2="627.94" y2="36.00"/>
    <line x1="619.20" y1="27.39" x2="625.69" y2="36.00"/>
  </g>
  <g stroke="#FF595E" stroke-width="1" fill="none" stroke-linecap="round">
    <line x1="647.08" y1="-0.00" x2="648.00" y2="4.73"/>
    <line x1="645.25" y1="0.00" x2="648.00" y2="14.16"/>
    <line x1="639.13" y1="-0.00" x2="646.13" y2="36.00"/>
    <line x1="637.30" y1="0.00" x2="644.30" y2="36.00"/>
    <line x1="635.47" y1="0.00" x2="642.47" y2="36.00"/>
    <line x1="633.60" y1="21.84" x2="636.35" y2="36.00"/>
    <line x1="633.60" y1="31.27" x2="634.52" y2="36.00"/>
  </g>
  <g stroke="#FFCA3A" stroke-width="1" fill="none" stroke-linecap="round">
    <line x1="662.40" y1="35.95" x2="662.37" y2="36.00"/>
    <line x1="662.40" y1="29.76" x2="658.94" y2="36.00"/>
    <line x1="662.40" y1="23.57" x2="655.51" y2="36.00"/>
    <line x1="662.40" y1="17.39" x2="652.08" y2="36.00"/>
    <line x1="662.40" y1="11.20" x2="648.65" y2="36.00"/>
    <line x1="662.40" y1="5.01" x2="648.00" y2="30.99"/>
    <line x1="661.75" y1="0.00" x2="648.00" y2="24.80"/>
    <line x1="658.32" y1="-0.00" x2="648.00" y2="18.61"/>
    <line x1="654.89" y1="0.00" x2="648.00" y2="12.43"/>
    <line x1="651.46" y1="0.00" x2="648.00" y2="6.24"/>
    <line x1="648.03" y1="0.00" x2="648.00" y2="0.05"/>
  </g>
  <g stroke="#073B4C" stroke-width="1" fill="none" stroke-linecap="round">
    <line x1="671.21" y1="0.00" x2="676.80" y2="16.22"/>
    <line x1="664.87" y1="0.00" x2="676.80" y2="34.65"/>
    <line x1="662.40" y1="11.26" x2="670.92" y2="36.00"/>
    <line x1="662.40" y1="29.69" x2="664.57" y2="36.00"/>
    <line x1="676.80" y1="1.36" x2="662.40" y2="6.32"/>
    <line x1="676.80" y1="7.71" x2="662.40" y2="12.67"/>
    <line x1="676.80" y1="14.05" x2="662.40" y2="19.01"/>
    <line x1="676.80" y1="20.40" x2="662.40" y2="25.36"/>
    <line x1="676.80" y1="26.75" x2="662.40" y2="31.70"/>
    <line x1="676.80" y1="33.09" x2="668.35" y2="36.00"/>
  </g>
  <g stroke="#FF006E" stroke-width="1" fill="none" stroke-linecap="round">
    <line x1="688.42" y1="2.90" x2="691.20" y2="7.17"/>
    <line x1="676.80" y1="10.37" x2="677.57" y2="11.56"/>
    <line x1="691.20" y1="13.32" x2="676.80" y2="22.68"/>
    <line x1="690.43" y1="24.44" x2="691.20" y2="25.63"/>
    <line x1="676.80" y1="28.83" x2="679.58" y2="33.10"/>
  </g>
  <g stroke="#FEE440" stroke-width="1" fill="none" stroke-linecap="round">
    <line x1="705.60" y1="34.76" x2="700.61" y2="36.00"/>
    <line x1="705.60" y1="31.66" x2="691.20" y2="35.25"/>
    <line x1="705.60" y1="28.57" x2="691.20" y2="32.16"/>
    <line x1="705.60" y1="25.48" x2="691.20" y2="29.07"/>
    <line x1="705.60" y1="22.39" x2="691.20" y2="25.98"/>
    <line x1="705.60" y1="19.30" x2="691.20" y2="22.89"/>
    <line x1="705.60" y1="16.20" x2="691.20" y2="19.80"/>
    <line x1="705.60" y1="13.11" x2="691.20" y2="16.70"/>
    <line x1="705.60" y1="10.02" x2="691.20" y2="13.61"/>
    <line x1="705.60" y1="6.93" x2="691.20" y2="10.52"/>
    <line x1="705.60" y1="3.84" x2="691.20" y2="7.43"/>
    <line x1="705.60" y1="0.75" x2="691.20" y2="4.34"/>
    <line x1="696.19" y1="0.00" x2="691.20" y2="1.24"/>
  </g>
  <g stroke="#4CC9F0" stroke-width="1" fill="none" stroke-linecap="round">
    <line x1="707.46" y1="0.00" x2="720.00" y2="6.67"/>
    <line x1="705.60" y1="5.81" x2="720.00" y2="13.46"/>
    <line x1="705.60" y1="12.60" x2="720.00" y2="20.26"/>
    <line x1="705.60" y1="19.40" x2="720.00" y2="27.05"/>
    <line x1="705.60" y1="26.19" x2="720.00" y2="33.85"/>
    <line x1="705.60" y1="32.99" x2="711.27" y2="36.00"/>
    <line x1="707.21" y1="0.00" x2="705.60" y2="3.03"/>
    <line x1="714.00" y1="0.00" x2="705.60" y2="15.81"/>
    <line x1="720.00" y1="1.51" x2="705.60" y2="28.59"/>
    <line x1="720.00" y1="14.29" x2="708.45" y2="36.00"/>
    <line x1="720.00" y1="27.07" x2="715.25" y2="36.00"/>
  </g>
  <g stroke="#FEE440" stroke-width="1" fill="none" stroke-linecap="round">
    <line x1="734.40" y1="22.34" x2="729.84" y2="23.23"/>
    <line x1="732.88" y1="36.00" x2="731.70" y2="29.89"/>
    <line x1="734.40" y1="0.41" x2="723.63" y2="2.50"/>
    <line x1="728.92" y1="26.83" x2="725.48" y2="9.17"/>
    <line x1="730.77" y1="33.50" x2="720.00" y2="35.59"/>
    <line x1="722.70" y1="6.11" x2="721.52" y2="0.00"/>
    <line x1="724.56" y1="12.77" x2="720.00" y2="13.66"/>
  </g>
  <g stroke="#4361EE" stroke-width="1" fill="none" stroke-linecap="round">
    <line x1="748.80" y1="28.60" x2="748.53" y2="28.67"/>
    <line x1="747.91" y1="31.61" x2="748.80" y2="32.32"/>
    <line x1="748.80" y1="16.13" x2="748.09" y2="16.31"/>
    <line x1="747.47" y1="19.25" x2="748.80" y2="20.31"/>
    <line x1="748.80" y1="27.22" x2="745.60" y2="28.05"/>
    <line x1="744.97" y1="30.99" x2="748.80" y2="34.04"/>
    <line x1="748.80" y1="3.65" x2="747.65" y2="3.95"/>
    <line x1="747.03" y1="6.89" x2="748.80" y2="8.30"/>
    <line x1="748.80" y1="14.74" x2="745.16" y2="15.69"/>
    <line x1="744.53" y1="18.62" x2="748.80" y2="22.02"/>
    <line x1="748.80" y1="25.83" x2="742.66" y2="27.43"/>
    <line x1="742.04" y1="30.36" x2="747.28" y2="34.54"/>
    <line x1="748.80" y1="2.27" x2="744.72" y2="3.33"/>
    <line x1="744.09" y1="6.26" x2="748.80" y2="10.01"/>
    <line x1="748.72" y1="13.38" x2="742.22" y2="15.07"/>
    <line x1="741.60" y1="18.00" x2="746.85" y2="22.18"/>
    <line x1="746.22" y1="25.12" x2="739.73" y2="26.80"/>
    <line x1="739.11" y1="29.74" x2="744.35" y2="33.92"/>
    <line x1="748.28" y1="1.02" x2="741.78" y2="2.70"/>
    <line x1="741.16" y1="5.64" x2="746.41" y2="9.82"/>
    <line x1="745.78" y1="12.75" x2="739.29" y2="14.44"/>
    <line x1="738.67" y1="17.38" x2="743.91" y2="21.56"/>
    <line x1="743.29" y1="24.49" x2="736.79" y2="26.18"/>
    <line x1="736.17" y1="29.11" x2="741.42" y2="33.30"/>
    <line x1="745.34" y1="0.39" x2="738.85" y2="2.08"/>
    <line x1="738.23" y1="5.01" x2="743.47" y2="9.20"/>
    <line x1="742.85" y1="12.13" x2="736.35" y2="13.82"/>
    <line x1="735.73" y1="16.75" x2="740.98" y2="20.93"/>
    <line x1="740.35" y1="23.87" x2="734.40" y2="25.42"/>
    <line x1="734.40" y1="29.42" x2="738.48" y2="32.67"/>
    <line x1="737.86" y1="35.61" x2="736.34" y2="36.00"/>
    <line x1="741.52" y1="0.00" x2="735.92" y2="1.46"/>
    <line x1="735.29" y1="4.39" x2="740.54" y2="8.57"/>
    <line x1="739.91" y1="11.51" x2="734.40" y2="12.94"/>
    <line x1="734.40" y1="17.41" x2="738.04" y2="20.31"/>
    <line x1="737.42" y1="23.25" x2="734.40" y2="24.03"/>
    <line x1="734.40" y1="31.13" x2="735.55" y2="32.05"/>
    <line x1="734.92" y1="34.98" x2="734.40" y2="35.12"/>
    <line x1="736.19" y1="0.00" x2="734.40" y2="0.46"/>
    <line x1="734.40" y1="5.40" x2="737.60" y2="7.95"/>
    <line x1="736.98" y1="10.88" x2="734.40" y2="11.55"/>
    <line x1="734.40" y1="19.12" x2="735.11" y2="19.69"/>
    <line x1="734.48" y1="22.62" x2="734.40" y2="22.64"/>
    <line x1="734.40" y1="7.11" x2="734.67" y2="7.33"/>
  </g>
  <g stroke="#6A4C93" stroke-width="1" fill="none" stroke-linecap="round">
    <line x1="763.20" y1="35.92" x2="763.04" y2="36.00"/>
    <line x1="763.20" y1="33.88" x2="759.21" y2="36.00"/>
    <line x1="763.20" y1="27.08" x2="748.80" y2="34.74"/>
    <line x1="763.20" y1="25.04" x2="748.80" y2="32.70"/>
    <line x1="763.20" y1="23.01" x2="748.80" y2="30.66"/>
    <line x1="763.20" y1="16.21" x2="748.80" y2="23.87"/>
    <line x1="763.20" y1="14.17" x2="748.80" y2="21.83"/>
    <line x1="763.20" y1="12.13" x2="748.80" y2="19.79"/>
    <line x1="763.20" y1="5.34" x2="748.80" y2="12.99"/>
    <line x1="763.20" y1="3.30" x2="748.80" y2="10.96"/>
    <line x1="763.20" y1="1.26" x2="748.80" y2="8.92"/>
    <line x1="752.79" y1="-0.00" x2="748.80" y2="2.12"/>
    <line x1="748.96" y1="-0.00" x2="748.80" y2="0.08"/>
  </g>
  <g stroke="#E63946" stroke-width="1" fill="none" stroke-linecap="round">
    <line x1="773.32" y1="0.00" x2="777.60" y2="5.47"/>
    <line x1="765.71" y1="0.00" x2="777.60" y2="15.22"/>
    <line x1="763.20" y1="6.53" x2="777.60" y2="24.96"/>
    <line x1="763.20" y1="16.28" x2="777.60" y2="34.71"/>
    <line x1="763.20" y1="26.02" x2="770.99" y2="36.00"/>
    <line x1="763.20" y1="35.77" x2="763.38" y2="36.00"/>
    <line x1="771.70" y1="0.00" x2="763.20" y2="6.64"/>
    <line x1="777.60" y1="3.00" x2="763.20" y2="14.25"/>
    <line x1="777.60" y1="10.62" x2="763.20" y2="21.87"/>
    <line x1="777.60" y1="18.23" x2="763.20" y2="29.48"/>
    <line x1="777.60" y1="25.84" x2="764.60" y2="36.00"/>
    <line x1="777.60" y1="33.46" x2="774.35" y2="36.00"/>
  </g>
  <g stroke="#118AB2" stroke-width="1" fill="none" stroke-linecap="round">
    <line x1="783.62" y1="1.07" x2="786.21" y2="0.00"/>
    <line x1="792.00" y1="0.79" x2="790.41" y2="6.98"/>
    <line x1="779.74" y1="0.00" x2="779.38" y2="1.37"/>
    <line x1="781.65" y1="3.33" x2="787.85" y2="0.77"/>
    <line x1="790.11" y1="2.74" x2="788.44" y2="9.24"/>
    <line x1="790.70" y1="11.21" x2="792.00" y2="10.67"/>
    <line x1="778.35" y1="0.00" x2="777.60" y2="2.91"/>
    <line x1="779.68" y1="5.60" x2="785.88" y2="3.04"/>
    <line x1="788.14" y1="5.01" x2="786.47" y2="11.50"/>
    <line x1="788.74" y1="13.47" x2="792.00" y2="12.12"/>
    <line x1="777.71" y1="7.86" x2="783.91" y2="5.30"/>
    <line x1="786.18" y1="7.27" x2="784.50" y2="13.77"/>
    <line x1="786.77" y1="15.74" x2="792.00" y2="13.58"/>
    <line x1="777.60" y1="9.36" x2="781.94" y2="7.57"/>
    <line x1="784.21" y1="9.54" x2="782.54" y2="16.03"/>
    <line x1="784.80" y1="18.00" x2="791.00" y2="15.44"/>
    <line x1="792.00" y1="22.32" x2="791.59" y2="23.90"/>
    <line x1="777.60" y1="10.81" x2="779.98" y2="9.83"/>
    <line x1="782.24" y1="11.80" x2="780.57" y2="18.30"/>
    <line x1="782.83" y1="20.26" x2="789.03" y2="17.70"/>
    <line x1="791.30" y1="19.67" x2="789.62" y2="26.17"/>
    <line x1="791.89" y1="28.14" x2="792.00" y2="28.09"/>
    <line x1="777.60" y1="12.26" x2="778.01" y2="12.10"/>
    <line x1="780.27" y1="14.06" x2="778.60" y2="20.56"/>
    <line x1="780.86" y1="22.53" x2="787.06" y2="19.97"/>
    <line x1="789.33" y1="21.94" x2="787.66" y2="28.43"/>
    <line x1="789.92" y1="30.40" x2="792.00" y2="29.54"/>
    <line x1="778.30" y1="16.33" x2="777.60" y2="19.06"/>
    <line x1="778.90" y1="24.79" x2="785.10" y2="22.23"/>
    <line x1="787.36" y1="24.20" x2="785.69" y2="30.70"/>
    <line x1="787.95" y1="32.67" x2="792.00" y2="30.99"/>
    <line x1="777.60" y1="26.78" x2="783.13" y2="24.50"/>
    <line x1="785.39" y1="26.46" x2="783.72" y2="32.96"/>
    <line x1="785.98" y1="34.93" x2="792.00" y2="32.45"/>
    <line x1="777.60" y1="28.23" x2="781.16" y2="26.76"/>
    <line x1="783.42" y1="28.73" x2="781.75" y2="35.23"/>
    <line x1="786.91" y1="36.00" x2="790.22" y2="34.63"/>
    <line x1="777.60" y1="29.68" x2="779.19" y2="29.02"/>
    <line x1="781.46" y1="30.99" x2="780.17" y2="36.00"/>
    <line x1="779.49" y1="33.26" x2="778.78" y2="36.00"/>
  </g>
  <g stroke="#FF006E" stroke-width="1" fill="none" stroke-linecap="round">
    <line x1="805.22" y1="0.00" x2="806.40" y2="0.89"/>
    <line x1="800.24" y1="0.00" x2="806.40" y2="4.64"/>
    <line x1="795.25" y1="0.00" x2="806.40" y2="8.40"/>
    <line x1="792.00" y1="1.31" x2="806.40" y2="12.16"/>
    <line x1="792.00" y1="5.06" x2="806.40" y2="15.91"/>
    <line x1="792.00" y1="8.82" x2="806.40" y2="19.67"/>
    <line x1="792.00" y1="12.57" x2="806.40" y2="23.43"/>
    <line x1="792.00" y1="16.33" x2="806.40" y2="27.18"/>
    <line x1="792.00" y1="20.09" x2="806.40" y2="30.94"/>
    <line x1="792.00" y1="23.84" x2="806.40" y2="34.69"/>
    <line x1="792.00" y1="27.60" x2="803.15" y2="36.00"/>
    <line x1="792.00" y1="31.36" x2="798.16" y2="36.00"/>
    <line x1="792.00" y1="35.11" x2="793.18" y2="36.00"/>
  </g>
  <g stroke="#F15BB5" stroke-width="1" fill="none" stroke-linecap="round">
    <line x1="806.40" y1="0.00" x2="820.80" y2="0.00"/>
    <line x1="820.80" y1="0.00" x2="820.80" y2="36.00"/>
    <line x1="820.80" y1="36.00" x2="806.40" y2="36.00"/>
    <line x1="806.40" y1="36.00" x2="806.40" y2="0.00"/>
    <line x1="806.40" y1="36.00" x2="807.51" y2="33.21"/>
    <line x1="807.51" y1="2.79" x2="819.69" y2="2.79"/>
    <line x1="819.69" y1="2.79" x2="819.69" y2="33.21"/>
    <line x1="819.69" y1="33.21" x2="807.51" y2="33.21"/>
    <line x1="807.51" y1="33.21" x2="807.51" y2="2.79"/>
    <line x1="807.51" y1="33.21" x2="808.63" y2="30.43"/>
    <line x1="808.63" y1="5.57" x2="818.57" y2="5.57"/>
    <line x1="818.57" y1="5.57" x2="818.57" y2="30.43"/>
    <line x1="818.57" y1="30.43" x2="808.63" y2="30.43"/>
    <line x1="808.63" y1="30.43" x2="808.63" y2="5.57"/>
    <line x1="808.63" y1="30.43" x2="809.74" y2="27.64"/>
    <line x1="809.74" y1="8.36" x2="817.46" y2="8.36"/>
    <line x1="817.46" y1="8.36" x2="817.46" y2="27.64"/>
    <line x1="817.46" y1="27.64" x2="809.74" y2="27.64"/>
    <line x1="809.74" y1="27.64" x2="809.74" y2="8.36"/>
    <line x1="809.74" y1="27.64" x2="810.86" y2="24.86"/>
    <line x1="810.86" y1="11.14" x2="816.34" y2="11.14"/>
    <line x1="816.34" y1="11.14" x2="816.34" y2="24.86"/>
    <line x1="816.34" y1="24.86" x2="810.86" y2="24.86"/>
    <line x1="810.86" y1="24.86" x2="810.86" y2="11.14"/>
    <line x1="810.86" y1="24.86" x2="811.97" y2="22.07"/>
    <line x1="811.97" y1="13.93" x2="815.23" y2="13.93"/>
    <line x1="815.23" y1="13.93" x2="815.23" y2="22.07"/>
    <line x1="815.23" y1="22.07" x2="811.97" y2="22.07"/>
    <line x1="811.97" y1="22.07" x2="811.97" y2="13.93"/>
  </g>
  <g stroke="#90BE6D" stroke-width="1" fill="none" stroke-linecap="round">
    <line x1="834.99" y1="0.11" x2="835.20" y2="0.10"/>
    <line x1="832.39" y1="1.61" x2="835.20" y2="1.44"/>
    <line x1="828.63" y1="0.00" x2="828.29" y2="0.51"/>
    <line x1="829.79" y1="3.11" x2="835.20" y2="2.78"/>
    <line x1="835.20" y1="9.53" x2="834.29" y2="10.90"/>
    <line x1="827.02" y1="0.00" x2="825.70" y2="2.01"/>
    <line x1="827.20" y1="4.61" x2="833.89" y2="4.21"/>
    <line x1="835.20" y1="7.10" x2="831.70" y2="12.40"/>
    <line x1="833.20" y1="15.00" x2="835.20" y2="14.88"/>
    <line x1="825.42" y1="0.00" x2="823.10" y2="3.51"/>
    <line x1="824.60" y1="6.11" x2="831.29" y2="5.71"/>
    <line x1="832.79" y1="8.30" x2="829.10" y2="13.90"/>
    <line x1="830.60" y1="16.50" x2="835.20" y2="16.22"/>
    <line x1="835.20" y1="24.14" x2="835.10" y2="24.29"/>
    <line x1="823.81" y1="0.00" x2="820.80" y2="4.56"/>
    <line x1="822.00" y1="7.61" x2="828.70" y2="7.21"/>
    <line x1="830.20" y1="9.80" x2="826.50" y2="15.40"/>
    <line x1="828.00" y1="18.00" x2="834.70" y2="17.60"/>
    <line x1="835.20" y1="21.70" x2="832.50" y2="25.79"/>
    <line x1="834.00" y1="28.39" x2="835.20" y2="28.32"/>
    <line x1="821.60" y1="0.91" x2="820.80" y2="2.12"/>
    <line x1="820.80" y1="9.02" x2="826.10" y2="8.71"/>
    <line x1="827.60" y1="11.30" x2="823.90" y2="16.90"/>
    <line x1="825.40" y1="19.50" x2="832.10" y2="19.10"/>
    <line x1="833.60" y1="21.70" x2="829.90" y2="27.29"/>
    <line x1="831.40" y1="29.89" x2="835.20" y2="29.66"/>
    <line x1="820.80" y1="10.37" x2="823.50" y2="10.21"/>
    <line x1="825.00" y1="12.80" x2="821.30" y2="18.40"/>
    <line x1="822.80" y1="21.00" x2="829.50" y2="20.60"/>
    <line x1="831.00" y1="23.20" x2="827.30" y2="28.79"/>
    <line x1="828.80" y1="31.39" x2="835.20" y2="31.01"/>
    <line x1="820.80" y1="11.71" x2="820.90" y2="11.71"/>
    <line x1="822.40" y1="14.30" x2="820.80" y2="16.73"/>
    <line x1="820.80" y1="22.46" x2="826.90" y2="22.10"/>
    <line x1="828.40" y1="24.70" x2="824.71" y2="30.29"/>
    <line x1="826.21" y1="32.89" x2="832.90" y2="32.49"/>
    <line x1="834.40" y1="35.09" x2="833.80" y2="36.00"/>
    <line x1="820.80" y1="23.81" x2="824.30" y2="23.60"/>
    <line x1="825.80" y1="26.20" x2="822.11" y2="31.79"/>
    <line x1="823.61" y1="34.39" x2="830.30" y2="33.99"/>
    <line x1="820.80" y1="25.15" x2="821.71" y2="25.10"/>
    <line x1="823.21" y1="27.70" x2="820.80" y2="31.34"/>
    <line x1="821.01" y1="35.89" x2="827.71" y2="35.49"/>
  </g>
  <g stroke="#073B4C" stroke-width="1" fill="none" stroke-linecap="round">
    <line x1="846.23" y1="-0.00" x2="849.60" y2="1.50"/>
    <line x1="838.85" y1="0.00" x2="849.60" y2="4.79"/>
    <line x1="835.20" y1="1.66" x2="849.60" y2="8.07"/>
    <line x1="835.20" y1="4.94" x2="849.60" y2="11.35"/>
    <line x1="835.20" y1="8.23" x2="849.60" y2="14.64"/>
    <line x1="835.20" y1="11.51" x2="849.60" y2="17.92"/>
    <line x1="835.20" y1="14.79" x2="849.60" y2="21.21"/>
    <line x1="835.20" y1="18.08" x2="849.60" y2="24.49"/>
    <line x1="835.20" y1="21.36" x2="849.60" y2="27.77"/>
    <line x1="835.20" y1="24.65" x2="849.60" y2="31.06"/>
    <line x1="835.20" y1="27.93" x2="849.60" y2="34.34"/>
    <line x1="835.20" y1="31.21" x2="845.95" y2="36.00"/>
    <line x1="835.20" y1="34.50" x2="838.57" y2="36.00"/>
  </g>
  <g stroke="#06D6A0" stroke-width="1" fill="none" stroke-linecap="round">
    <line x1="864.00" y1="32.47" x2="861.72" y2="32.17"/>
    <line x1="860.04" y1="34.66" x2="860.79" y2="36.00"/>
    <line x1="864.00" y1="31.12" x2="859.23" y2="30.49"/>
    <line x1="857.55" y1="32.98" x2="859.25" y2="36.00"/>
    <line x1="864.00" y1="18.94" x2="863.45" y2="18.87"/>
    <line x1="861.77" y1="21.36" x2="864.00" y2="25.30"/>
    <line x1="863.39" y1="29.68" x2="856.74" y2="28.82"/>
    <line x1="855.06" y1="31.30" x2="857.71" y2="36.00"/>
    <line x1="864.00" y1="17.59" x2="860.96" y2="17.19"/>
    <line x1="859.29" y1="19.68" x2="862.58" y2="25.52"/>
    <line x1="860.91" y1="28.01" x2="854.25" y2="27.14"/>
    <line x1="852.58" y1="29.63" x2="855.87" y2="35.47"/>
    <line x1="863.51" y1="8.05" x2="864.00" y2="8.92"/>
    <line x1="864.00" y1="16.23" x2="858.48" y2="15.51"/>
    <line x1="856.80" y1="18.00" x2="860.10" y2="23.84"/>
    <line x1="858.42" y1="26.33" x2="851.77" y2="25.46"/>
    <line x1="850.09" y1="27.95" x2="853.39" y2="33.79"/>
    <line x1="864.00" y1="4.06" x2="862.70" y2="3.89"/>
    <line x1="861.02" y1="6.37" x2="864.00" y2="11.65"/>
    <line x1="862.64" y1="14.70" x2="855.99" y2="13.84"/>
    <line x1="854.31" y1="16.32" x2="857.61" y2="22.16"/>
    <line x1="855.93" y1="24.65" x2="849.60" y2="23.83"/>
    <line x1="849.60" y1="29.81" x2="850.90" y2="32.11"/>
    <line x1="864.00" y1="2.70" x2="860.21" y2="2.21"/>
    <line x1="858.54" y1="4.70" x2="861.83" y2="10.54"/>
    <line x1="860.16" y1="13.03" x2="853.50" y2="12.16"/>
    <line x1="851.83" y1="14.64" x2="855.12" y2="20.49"/>
    <line x1="853.44" y1="22.97" x2="849.60" y2="22.47"/>
    <line x1="864.00" y1="1.35" x2="857.73" y2="0.53"/>
    <line x1="856.05" y1="3.02" x2="859.35" y2="8.86"/>
    <line x1="857.67" y1="11.35" x2="851.02" y2="10.48"/>
    <line x1="849.60" y1="13.43" x2="852.64" y2="18.81"/>
    <line x1="850.96" y1="21.30" x2="849.60" y2="21.12"/>
    <line x1="853.56" y1="1.34" x2="856.86" y2="7.18"/>
    <line x1="855.18" y1="9.67" x2="849.60" y2="8.94"/>
    <line x1="849.60" y1="16.16" x2="850.15" y2="17.13"/>
    <line x1="851.26" y1="0.00" x2="854.37" y2="5.51"/>
    <line x1="852.69" y1="7.99" x2="849.60" y2="7.59"/>
    <line x1="849.72" y1="0.00" x2="851.88" y2="3.83"/>
    <line x1="850.21" y1="6.32" x2="849.60" y2="6.24"/>
  </g>
</svg>
