<?xml version="1.0" encoding="UTF-8"?>
<svg xmlns="http://www.w3.org/2000/svg"
     width="864.00" height="36.00"
     viewBox="0 0 864.00 36.00">
  <title>Pattern Banner - rat-king</title>
  <desc>Randomized pattern strip with 60 cells</desc>
  <rect width="100%" height="100%" fill="white"/>
  <g stroke="#7209B7" stroke-width="1" fill="none" stroke-linecap="round">
    <line x1="14.40" y1="32.58" x2="11.43" y2="36.00"/>
    <line x1="14.40" y1="28.01" x2="7.45" y2="36.00"/>
    <line x1="14.40" y1="23.44" x2="3.48" y2="36.00"/>
    <line x1="14.40" y1="18.86" x2="0.00" y2="35.43"/>
    <line x1="14.40" y1="14.29" x2="0.00" y2="30.86"/>
    <line x1="14.40" y1="9.72" x2="0.00" y2="26.28"/>
    <line x1="14.40" y1="5.14" x2="0.00" y2="21.71"/>
    <line x1="14.40" y1="0.57" x2="0.00" y2="17.14"/>
    <line x1="10.92" y1="-0.00" x2="0.00" y2="12.56"/>
    <line x1="6.95" y1="0.00" x2="0.00" y2="7.99"/>
    <line x1="2.97" y1="0.00" x2="0.00" y2="3.42"/>
  </g>
  <g stroke="#FF595E" stroke-width="1" fill="none" stroke-linecap="round">
    <line x1="28.80" y1="35.02" x2="27.45" y2="36.00"/>
    <line x1="28.80" y1="31.31" x2="22.34" y2="36.00"/>
    <line x1="28.80" y1="27.60" x2="17.24" y2="36.00"/>
    <line x1="28.80" y1="23.89" x2="14.40" y2="34.36"/>
    <line x1="28.80" y1="20.19" x2="14.40" y2="30.65"/>
    <line x1="28.80" y1="16.48" x2="14.40" y2="26.94"/>
    <line x1="28.80" y1="12.77" x2="14.40" y2="23.23"/>
    <line x1="28.80" y1="9.06" x2="14.40" y2="19.52"/>
    <line x1="28.80" y1="5.35" x2="14.40" y2="15.81"/>
    <line x1="28.80" y1="1.64" x2="14.40" y2="12.11"/>
    <line x1="25.96" y1="-0.00" x2="14.40" y2="8.40"/>
    <line x1="20.86" y1="-0.00" x2="14.40" y2="4.69"/>
    <line x1="15.75" y1="0.00" x2="14.40" y2="0.98"/>
  </g>
  <g stroke="#FF595E" stroke-width="1" fill="none" stroke-linecap="round">
    <line x1="43.20" y1="3.15" x2="42.78" y2="3.33"/>
    <line x1="42.62" y1="6.33" x2="43.20" y2="6.66"/>
    <line x1="43.20" y1="14.86" x2="42.15" y2="15.32"/>
    <line x1="41.99" y1="18.31" x2="43.20" y2="19.00"/>
    <line x1="43.20" y1="26.57" x2="41.52" y2="27.30"/>
    <line x1="41.36" y1="30.30" x2="43.20" y2="31.34"/>
    <line x1="43.20" y1="1.69" x2="39.78" y2="3.18"/>
    <line x1="39.62" y1="6.17" x2="43.20" y2="8.20"/>
    <line x1="43.20" y1="13.40" x2="39.15" y2="15.16"/>
    <line x1="39.00" y1="18.16" x2="43.20" y2="20.54"/>
    <line x1="43.20" y1="25.11" x2="38.52" y2="27.14"/>
    <line x1="38.37" y1="30.14" x2="43.20" y2="32.88"/>
    <line x1="42.93" y1="0.34" x2="36.79" y2="3.02"/>
    <line x1="36.63" y1="6.02" x2="42.46" y2="9.33"/>
    <line x1="42.31" y1="12.32" x2="36.16" y2="15.00"/>
    <line x1="36.00" y1="18.00" x2="41.83" y2="21.31"/>
    <line x1="41.68" y1="24.31" x2="35.53" y2="26.99"/>
    <line x1="35.37" y1="29.98" x2="41.21" y2="33.29"/>
    <line x1="39.94" y1="0.18" x2="33.79" y2="2.86"/>
    <line x1="33.63" y1="5.86" x2="39.47" y2="9.17"/>
    <line x1="39.31" y1="12.17" x2="33.16" y2="14.85"/>
    <line x1="33.00" y1="17.84" x2="38.84" y2="21.15"/>
    <line x1="38.68" y1="24.15" x2="32.53" y2="26.83"/>
    <line x1="32.38" y1="29.83" x2="38.21" y2="33.14"/>
    <line x1="36.94" y1="0.02" x2="30.79" y2="2.71"/>
    <line x1="30.64" y1="5.70" x2="36.47" y2="9.01"/>
    <line x1="36.31" y1="12.01" x2="30.17" y2="14.69"/>
    <line x1="30.01" y1="17.69" x2="35.84" y2="21.00"/>
    <line x1="35.69" y1="23.99" x2="29.54" y2="26.67"/>
    <line x1="29.38" y1="29.67" x2="35.21" y2="32.98"/>
    <line x1="35.06" y1="35.98" x2="35.00" y2="36.00"/>
    <line x1="33.64" y1="0.00" x2="28.80" y2="2.11"/>
    <line x1="28.80" y1="6.20" x2="33.48" y2="8.86"/>
    <line x1="33.32" y1="11.85" x2="28.80" y2="13.82"/>
    <line x1="28.80" y1="18.54" x2="32.85" y2="20.84"/>
    <line x1="32.69" y1="23.83" x2="28.80" y2="25.53"/>
    <line x1="28.80" y1="30.88" x2="32.22" y2="32.82"/>
    <line x1="32.06" y1="35.82" x2="31.65" y2="36.00"/>
    <line x1="30.29" y1="0.00" x2="28.80" y2="0.65"/>
    <line x1="28.80" y1="7.75" x2="30.48" y2="8.70"/>
    <line x1="30.32" y1="11.69" x2="28.80" y2="12.36"/>
    <line x1="28.80" y1="20.09" x2="29.85" y2="20.68"/>
    <line x1="29.69" y1="23.68" x2="28.80" y2="24.07"/>
    <line x1="28.80" y1="32.43" x2="29.22" y2="32.67"/>
    <line x1="29.07" y1="35.66" x2="28.80" y2="35.78"/>
  </g>
  <g stroke="#2A9D8F" stroke-width="1" fill="none" stroke-linecap="round">
    <line x1="57.60" y1="2.66" x2="56.66" y2="3.11"/>
    <line x1="56.61" y1="6.11" x2="57.60" y2="6.62"/>
    <line x1="57.60" y1="14.56" x2="56.45" y2="15.11"/>
    <line x1="56.40" y1="18.10" x2="57.60" y2="18.73"/>
    <line x1="57.60" y1="26.45" x2="56.24" y2="27.10"/>
    <line x1="56.19" y1="30.10" x2="57.60" y2="30.84"/>
    <line x1="57.60" y1="1.17" x2="53.66" y2="3.05"/>
    <line x1="53.61" y1="6.05" x2="57.60" y2="8.14"/>
    <line x1="57.60" y1="13.07" x2="53.45" y2="15.05"/>
    <line x1="53.40" y1="18.05" x2="57.60" y2="20.25"/>
    <line x1="57.60" y1="24.97" x2="53.24" y2="27.05"/>
    <line x1="53.19" y1="30.05" x2="57.60" y2="32.35"/>
    <line x1="56.71" y1="0.11" x2="50.66" y2="3.00"/>
    <line x1="50.61" y1="6.00" x2="56.56" y2="9.11"/>
    <line x1="56.50" y1="12.11" x2="50.45" y2="15.00"/>
    <line x1="50.40" y1="18.00" x2="56.35" y2="21.10"/>
    <line x1="56.29" y1="24.10" x2="50.24" y2="27.00"/>
    <line x1="50.19" y1="30.00" x2="56.14" y2="33.10"/>
    <line x1="53.71" y1="0.06" x2="47.66" y2="2.95"/>
    <line x1="47.61" y1="5.95" x2="53.56" y2="9.05"/>
    <line x1="53.50" y1="12.05" x2="47.45" y2="14.95"/>
    <line x1="47.40" y1="17.95" x2="53.35" y2="21.05"/>
    <line x1="53.29" y1="24.05" x2="47.24" y2="26.95"/>
    <line x1="47.19" y1="29.95" x2="53.14" y2="33.05"/>
    <line x1="50.71" y1="0.00" x2="44.66" y2="2.90"/>
    <line x1="44.61" y1="5.90" x2="50.56" y2="9.00"/>
    <line x1="50.50" y1="12.00" x2="44.45" y2="14.90"/>
    <line x1="44.40" y1="17.90" x2="50.35" y2="21.00"/>
    <line x1="50.30" y1="24.00" x2="44.24" y2="26.89"/>
    <line x1="44.19" y1="29.89" x2="50.14" y2="33.00"/>
    <line x1="50.09" y1="36.00" x2="50.08" y2="36.00"/>
    <line x1="47.61" y1="0.00" x2="43.20" y2="2.11"/>
    <line x1="43.20" y1="6.67" x2="47.56" y2="8.95"/>
    <line x1="47.51" y1="11.95" x2="43.20" y2="14.01"/>
    <line x1="43.20" y1="18.78" x2="47.35" y2="20.95"/>
    <line x1="47.30" y1="23.95" x2="43.20" y2="25.91"/>
    <line x1="43.20" y1="30.89" x2="47.14" y2="32.95"/>
    <line x1="47.09" y1="35.94" x2="46.97" y2="36.00"/>
    <line x1="44.50" y1="0.00" x2="43.20" y2="0.62"/>
    <line x1="43.20" y1="8.19" x2="44.56" y2="8.90"/>
    <line x1="44.51" y1="11.90" x2="43.20" y2="12.52"/>
    <line x1="43.20" y1="20.30" x2="44.35" y2="20.89"/>
    <line x1="44.30" y1="23.89" x2="43.20" y2="24.42"/>
    <line x1="43.20" y1="32.40" x2="44.14" y2="32.89"/>
    <line x1="44.09" y1="35.89" x2="43.86" y2="36.00"/>
  </g>
  <g stroke="#4CC9F0" stroke-width="1" fill="none" stroke-linecap="round">
    <line x1="72.00" y1="35.64" x2="71.48" y2="34.98"/>
    <line x1="68.54" y1="35.61" x2="68.44" y2="36.00"/>
    <line x1="72.00" y1="33.49" x2="70.85" y2="32.05"/>
    <line x1="67.92" y1="32.67" x2="67.05" y2="36.00"/>
    <line x1="60.28" y1="36.00" x2="59.12" y2="34.54"/>
    <line x1="72.00" y1="31.33" x2="70.23" y2="29.11"/>
    <line x1="67.29" y1="29.74" x2="65.67" y2="36.00"/>
    <line x1="61.99" y1="36.00" x2="58.49" y2="31.61"/>
    <line x1="72.00" y1="29.18" x2="69.61" y2="26.18"/>
    <line x1="66.67" y1="26.80" x2="64.98" y2="33.30"/>
    <line x1="62.05" y1="33.92" x2="57.87" y2="28.67"/>
    <line x1="72.00" y1="27.03" x2="68.98" y2="23.25"/>
    <line x1="66.05" y1="23.87" x2="64.36" y2="30.36"/>
    <line x1="61.43" y1="30.99" x2="57.60" y2="26.19"/>
    <line x1="72.00" y1="24.88" x2="68.36" y2="20.31"/>
    <line x1="65.42" y1="20.93" x2="63.74" y2="27.43"/>
    <line x1="60.80" y1="28.05" x2="57.60" y2="24.03"/>
    <line x1="71.92" y1="22.62" x2="67.73" y2="17.38"/>
    <line x1="64.80" y1="18.00" x2="63.11" y2="24.49"/>
    <line x1="60.18" y1="25.12" x2="57.60" y2="21.88"/>
    <line x1="71.29" y1="19.69" x2="67.11" y2="14.44"/>
    <line x1="64.18" y1="15.07" x2="62.49" y2="21.56"/>
    <line x1="59.55" y1="22.18" x2="57.60" y2="19.73"/>
    <line x1="70.67" y1="16.75" x2="66.49" y2="11.51"/>
    <line x1="63.55" y1="12.13" x2="61.87" y2="18.62"/>
    <line x1="58.93" y1="19.25" x2="57.60" y2="17.58"/>
    <line x1="70.05" y1="13.82" x2="65.86" y2="8.57"/>
    <line x1="62.93" y1="9.20" x2="61.24" y2="15.69"/>
    <line x1="58.31" y1="16.31" x2="57.60" y2="15.43"/>
    <line x1="69.42" y1="10.88" x2="65.24" y2="5.64"/>
    <line x1="62.31" y1="6.26" x2="60.62" y2="12.75"/>
    <line x1="57.68" y1="13.38" x2="57.60" y2="13.27"/>
    <line x1="72.00" y1="6.29" x2="71.73" y2="7.33"/>
    <line x1="68.80" y1="7.95" x2="64.62" y2="2.70"/>
    <line x1="61.68" y1="3.33" x2="59.99" y2="9.82"/>
    <line x1="72.00" y1="0.96" x2="71.11" y2="4.39"/>
    <line x1="68.17" y1="5.01" x2="64.18" y2="0.00"/>
    <line x1="61.06" y1="0.39" x2="59.37" y2="6.89"/>
    <line x1="70.86" y1="0.00" x2="70.48" y2="1.46"/>
    <line x1="67.55" y1="2.08" x2="65.89" y2="0.00"/>
    <line x1="59.77" y1="0.00" x2="58.75" y2="3.95"/>
    <line x1="58.39" y1="0.00" x2="58.12" y2="1.02"/>
  </g>
  <g stroke="#073B4C" stroke-width="1" fill="none" stroke-linecap="round">
    <line x1="86.40" y1="34.13" x2="83.63" y2="36.00"/>
    <line x1="86.40" y1="26.89" x2="72.90" y2="36.00"/>
    <line x1="86.40" y1="24.72" x2="72.00" y2="34.44"/>
    <line x1="86.40" y1="22.55" x2="72.00" y2="32.26"/>
    <line x1="86.40" y1="15.31" x2="72.00" y2="25.03"/>
    <line x1="86.40" y1="13.14" x2="72.00" y2="22.86"/>
    <line x1="86.40" y1="10.97" x2="72.00" y2="20.69"/>
    <line x1="86.40" y1="3.74" x2="72.00" y2="13.45"/>
    <line x1="86.40" y1="1.56" x2="72.00" y2="11.28"/>
    <line x1="85.50" y1="0.00" x2="72.00" y2="9.11"/>
    <line x1="74.77" y1="0.00" x2="72.00" y2="1.87"/>
  </g>
  <g stroke="#264653" stroke-width="1" fill="none" stroke-linecap="round">
    <line x1="100.80" y1="35.88" x2="93.76" y2="36.00"/>
    <line x1="100.80" y1="32.88" x2="86.40" y2="33.13"/>
    <line x1="100.80" y1="29.88" x2="86.40" y2="30.13"/>
    <line x1="100.80" y1="26.88" x2="86.40" y2="27.13"/>
    <line x1="100.80" y1="23.88" x2="86.40" y2="24.13"/>
    <line x1="100.80" y1="20.87" x2="86.40" y2="21.13"/>
    <line x1="100.80" y1="17.87" x2="86.40" y2="18.13"/>
    <line x1="100.80" y1="14.87" x2="86.40" y2="15.13"/>
    <line x1="100.80" y1="11.87" x2="86.40" y2="12.12"/>
    <line x1="100.80" y1="8.87" x2="86.40" y2="9.12"/>
    <line x1="100.80" y1="5.87" x2="86.40" y2="6.12"/>
    <line x1="100.80" y1="2.87" x2="86.40" y2="3.12"/>
    <line x1="93.44" y1="-0.00" x2="86.40" y2="0.12"/>
    <line x1="87.91" y1="36.00" x2="87.28" y2="0.00"/>
    <line x1="90.91" y1="36.00" x2="90.29" y2="0.00"/>
    <line x1="93.91" y1="36.00" x2="93.29" y2="0.00"/>
    <line x1="96.91" y1="36.00" x2="96.29" y2="0.00"/>
    <line x1="99.92" y1="36.00" x2="99.29" y2="0.00"/>
  </g>
  <g stroke="#118AB2" stroke-width="1" fill="none" stroke-linecap="round">
    <line x1="114.23" y1="0.00" x2="115.20" y2="1.39"/>
    <line x1="101.67" y1="11.21" x2="115.20" y2="1.74"/>
    <line x1="102.84" y1="10.63" x2="113.16" y2="25.37"/>
    <line x1="100.80" y1="34.26" x2="114.33" y2="24.79"/>
    <line x1="100.80" y1="34.61" x2="101.77" y2="36.00"/>
  </g>
  <g stroke="#6A4C93" stroke-width="1" fill="none" stroke-linecap="round">
    <line x1="115.20" y1="4.08" x2="129.60" y2="5.08"/>
    <line x1="115.20" y1="10.09" x2="129.60" y2="11.10"/>
    <line x1="115.20" y1="16.11" x2="129.60" y2="17.11"/>
    <line x1="115.20" y1="22.12" x2="129.60" y2="23.13"/>
    <line x1="115.20" y1="28.14" x2="129.60" y2="29.14"/>
    <line x1="115.20" y1="34.15" x2="129.60" y2="35.16"/>
    <line x1="116.25" y1="0.00" x2="115.20" y2="15.07"/>
    <line x1="122.27" y1="0.00" x2="119.75" y2="36.00"/>
    <line x1="128.28" y1="0.00" x2="125.77" y2="36.00"/>
  </g>
  <g stroke="#3A86FF" stroke-width="1" fill="none" stroke-linecap="round">
    <line x1="141.53" y1="0.00" x2="144.00" y2="3.06"/>
    <line x1="137.67" y1="0.00" x2="144.00" y2="7.82"/>
    <line x1="133.80" y1="0.00" x2="144.00" y2="12.59"/>
    <line x1="129.94" y1="0.00" x2="144.00" y2="17.36"/>
    <line x1="129.60" y1="4.34" x2="144.00" y2="22.12"/>
    <line x1="129.60" y1="9.11" x2="144.00" y2="26.89"/>
    <line x1="129.60" y1="13.88" x2="144.00" y2="31.66"/>
    <line x1="129.60" y1="18.64" x2="143.66" y2="36.00"/>
    <line x1="129.60" y1="23.41" x2="139.80" y2="36.00"/>
    <line x1="129.60" y1="28.18" x2="135.93" y2="36.00"/>
    <line x1="129.60" y1="32.94" x2="132.07" y2="36.00"/>
  </g>
  <g stroke="#00B4D8" stroke-width="1" fill="none" stroke-linecap="round">
    <line x1="158.40" y1="1.28" x2="156.14" y2="2.62"/>
    <line x1="156.35" y1="5.61" x2="158.40" y2="6.46"/>
    <line x1="158.40" y1="13.75" x2="156.98" y2="14.59"/>
    <line x1="157.19" y1="17.58" x2="158.40" y2="18.09"/>
    <line x1="158.40" y1="26.21" x2="157.81" y2="26.56"/>
    <line x1="158.02" y1="29.55" x2="158.40" y2="29.71"/>
    <line x1="157.93" y1="0.00" x2="153.15" y2="2.83"/>
    <line x1="153.36" y1="5.82" x2="158.40" y2="7.92"/>
    <line x1="158.40" y1="12.19" x2="153.98" y2="14.80"/>
    <line x1="154.19" y1="17.79" x2="158.40" y2="19.54"/>
    <line x1="158.40" y1="24.65" x2="154.82" y2="26.77"/>
    <line x1="155.03" y1="29.76" x2="158.40" y2="31.16"/>
    <line x1="155.30" y1="0.00" x2="150.15" y2="3.04"/>
    <line x1="150.36" y1="6.03" x2="156.56" y2="8.60"/>
    <line x1="156.77" y1="11.60" x2="150.99" y2="15.01"/>
    <line x1="151.20" y1="18.00" x2="157.39" y2="20.57"/>
    <line x1="157.60" y1="23.57" x2="151.83" y2="26.98"/>
    <line x1="152.04" y1="29.97" x2="158.23" y2="32.54"/>
    <line x1="158.40" y1="35.56" x2="157.66" y2="36.00"/>
    <line x1="152.66" y1="0.00" x2="147.16" y2="3.25"/>
    <line x1="147.37" y1="6.24" x2="153.56" y2="8.81"/>
    <line x1="153.77" y1="11.81" x2="148.00" y2="15.22"/>
    <line x1="148.21" y1="18.21" x2="154.40" y2="20.78"/>
    <line x1="154.61" y1="23.78" x2="148.84" y2="27.19"/>
    <line x1="149.04" y1="30.18" x2="155.24" y2="32.75"/>
    <line x1="155.45" y1="35.75" x2="155.02" y2="36.00"/>
    <line x1="149.94" y1="0.04" x2="144.17" y2="3.46"/>
    <line x1="144.38" y1="6.45" x2="150.57" y2="9.02"/>
    <line x1="150.78" y1="12.01" x2="145.01" y2="15.43"/>
    <line x1="145.21" y1="18.42" x2="151.41" y2="20.99"/>
    <line x1="151.62" y1="23.99" x2="145.84" y2="27.40"/>
    <line x1="146.05" y1="30.39" x2="152.25" y2="32.96"/>
    <line x1="152.46" y1="35.96" x2="152.38" y2="36.00"/>
    <line x1="146.95" y1="0.25" x2="144.00" y2="2.00"/>
    <line x1="144.00" y1="7.74" x2="147.58" y2="9.23"/>
    <line x1="147.79" y1="12.22" x2="144.00" y2="14.46"/>
    <line x1="144.00" y1="19.37" x2="148.42" y2="21.20"/>
    <line x1="148.63" y1="24.19" x2="144.00" y2="26.93"/>
    <line x1="144.00" y1="30.99" x2="149.25" y2="33.17"/>
    <line x1="144.00" y1="9.20" x2="144.59" y2="9.44"/>
    <line x1="144.80" y1="12.43" x2="144.00" y2="12.90"/>
    <line x1="144.00" y1="20.82" x2="145.42" y2="21.41"/>
    <line x1="145.63" y1="24.40" x2="144.00" y2="25.37"/>
    <line x1="144.00" y1="32.44" x2="146.26" y2="33.38"/>
  </g>
  <g stroke="#90BE6D" stroke-width="1" fill="none" stroke-linecap="round">
    <line x1="172.37" y1="0.00" x2="172.80" y2="1.33"/>
    <line x1="169.21" y1="0.00" x2="172.80" y2="11.03"/>
    <line x1="166.06" y1="0.00" x2="172.80" y2="20.74"/>
    <line x1="162.91" y1="0.00" x2="172.80" y2="30.45"/>
    <line x1="159.75" y1="0.00" x2="171.45" y2="36.00"/>
    <line x1="158.40" y1="5.55" x2="168.29" y2="36.00"/>
    <line x1="158.40" y1="15.26" x2="165.14" y2="36.00"/>
    <line x1="158.40" y1="24.97" x2="161.99" y2="36.00"/>
    <line x1="158.40" y1="34.67" x2="158.83" y2="36.00"/>
  </g>
  <g stroke="#1982C4" stroke-width="1" fill="none" stroke-linecap="round">
    <line x1="186.78" y1="0.00" x2="187.20" y2="0.19"/>
    <line x1="182.35" y1="0.00" x2="187.20" y2="2.16"/>
    <line x1="172.80" y1="2.32" x2="187.20" y2="8.73"/>
    <line x1="172.80" y1="4.29" x2="187.20" y2="10.70"/>
    <line x1="172.80" y1="6.26" x2="187.20" y2="12.67"/>
    <line x1="172.80" y1="12.82" x2="187.20" y2="19.24"/>
    <line x1="172.80" y1="14.79" x2="187.20" y2="21.21"/>
    <line x1="172.80" y1="16.76" x2="187.20" y2="23.18"/>
    <line x1="172.80" y1="23.33" x2="187.20" y2="29.74"/>
    <line x1="172.80" y1="25.30" x2="187.20" y2="31.71"/>
    <line x1="172.80" y1="27.27" x2="187.20" y2="33.68"/>
    <line x1="172.80" y1="33.84" x2="177.65" y2="36.00"/>
    <line x1="172.80" y1="35.81" x2="173.22" y2="36.00"/>
  </g>
  <g stroke="#FFCA3A" stroke-width="1" fill="none" stroke-linecap="round">
    <line x1="200.11" y1="0.00" x2="201.60" y2="2.13"/>
    <line x1="196.45" y1="0.00" x2="201.60" y2="7.36"/>
    <line x1="192.78" y1="0.00" x2="201.60" y2="12.59"/>
    <line x1="189.12" y1="0.00" x2="201.60" y2="17.82"/>
    <line x1="187.20" y1="2.49" x2="201.60" y2="23.05"/>
    <line x1="187.20" y1="7.72" x2="201.60" y2="28.28"/>
    <line x1="187.20" y1="12.95" x2="201.60" y2="33.51"/>
    <line x1="187.20" y1="18.18" x2="199.68" y2="36.00"/>
    <line x1="187.20" y1="23.41" x2="196.02" y2="36.00"/>
    <line x1="187.20" y1="28.64" x2="192.35" y2="36.00"/>
    <line x1="187.20" y1="33.87" x2="188.69" y2="36.00"/>
    <line x1="201.60" y1="34.93" x2="200.08" y2="36.00"/>
    <line x1="201.60" y1="31.27" x2="194.85" y2="36.00"/>
    <line x1="201.60" y1="27.61" x2="189.61" y2="36.00"/>
    <line x1="201.60" y1="23.95" x2="187.20" y2="34.03"/>
    <line x1="201.60" y1="20.28" x2="187.20" y2="30.37"/>
    <line x1="201.60" y1="16.62" x2="187.20" y2="26.70"/>
    <line x1="201.60" y1="12.96" x2="187.20" y2="23.04"/>
    <line x1="201.60" y1="9.30" x2="187.20" y2="19.38"/>
    <line x1="201.60" y1="5.63" x2="187.20" y2="15.72"/>
    <line x1="201.60" y1="1.97" x2="187.20" y2="12.05"/>
    <line x1="199.19" y1="-0.00" x2="187.20" y2="8.39"/>
    <line x1="193.95" y1="0.00" x2="187.20" y2="4.73"/>
    <line x1="188.72" y1="0.00" x2="187.20" y2="1.07"/>
  </g>
  <g stroke="#9EF01A" stroke-width="1" fill="none" stroke-linecap="round">
    <line x1="216.00" y1="26.82" x2="213.88" y2="36.00"/>
    <line x1="216.00" y1="13.49" x2="210.80" y2="36.00"/>
    <line x1="216.00" y1="0.15" x2="207.72" y2="36.00"/>
    <line x1="212.96" y1="0.00" x2="204.64" y2="36.00"/>
    <line x1="209.88" y1="0.00" x2="201.60" y2="35.85"/>
    <line x1="206.80" y1="0.00" x2="201.60" y2="22.51"/>
    <line x1="203.72" y1="0.00" x2="201.60" y2="9.18"/>
    <line x1="206.75" y1="36.00" x2="201.60" y2="34.81"/>
    <line x1="216.00" y1="35.06" x2="201.60" y2="31.73"/>
    <line x1="216.00" y1="31.98" x2="201.60" y2="28.65"/>
    <line x1="216.00" y1="28.90" x2="201.60" y2="25.57"/>
    <line x1="216.00" y1="25.82" x2="201.60" y2="22.50"/>
    <line x1="216.00" y1="22.74" x2="201.60" y2="19.42"/>
    <line x1="216.00" y1="19.66" x2="201.60" y2="16.34"/>
    <line x1="216.00" y1="16.58" x2="201.60" y2="13.26"/>
    <line x1="216.00" y1="13.50" x2="201.60" y2="10.18"/>
    <line x1="216.00" y1="10.43" x2="201.60" y2="7.10"/>
    <line x1="216.00" y1="7.35" x2="201.60" y2="4.02"/>
    <line x1="216.00" y1="4.27" x2="201.60" y2="0.94"/>
    <line x1="216.00" y1="1.19" x2="210.85" y2="0.00"/>
  </g>
  <g stroke="#7209B7" stroke-width="1" fill="none" stroke-linecap="round">
    <line x1="230.21" y1="0.00" x2="230.40" y2="0.21"/>
    <line x1="222.00" y1="0.00" x2="230.40" y2="9.01"/>
    <line x1="219.54" y1="0.00" x2="230.40" y2="11.64"/>
    <line x1="217.08" y1="0.00" x2="230.40" y2="14.28"/>
    <line x1="216.00" y1="7.64" x2="230.40" y2="23.08"/>
    <line x1="216.00" y1="10.28" x2="230.40" y2="25.72"/>
    <line x1="216.00" y1="12.92" x2="230.40" y2="28.36"/>
    <line x1="216.00" y1="21.72" x2="229.32" y2="36.00"/>
    <line x1="216.00" y1="24.36" x2="226.86" y2="36.00"/>
    <line x1="216.00" y1="26.99" x2="224.40" y2="36.00"/>
    <line x1="216.00" y1="35.79" x2="216.19" y2="36.00"/>
  </g>
  <g stroke="#4361EE" stroke-width="1" fill="none" stroke-linecap="round">
    <line x1="238.07" y1="0.00" x2="244.80" y2="0.35"/>
    <line x1="230.40" y1="2.60" x2="244.80" y2="3.36"/>
    <line x1="230.40" y1="5.61" x2="244.80" y2="6.36"/>
    <line x1="230.40" y1="8.61" x2="244.80" y2="9.36"/>
    <line x1="230.40" y1="11.61" x2="244.80" y2="12.37"/>
    <line x1="230.40" y1="14.62" x2="244.80" y2="15.37"/>
    <line x1="230.40" y1="17.62" x2="244.80" y2="18.38"/>
    <line x1="230.40" y1="20.63" x2="244.80" y2="21.38"/>
    <line x1="230.40" y1="23.63" x2="244.80" y2="24.39"/>
    <line x1="230.40" y1="26.64" x2="244.80" y2="27.39"/>
    <line x1="230.40" y1="29.64" x2="244.80" y2="30.39"/>
    <line x1="230.40" y1="32.64" x2="244.80" y2="33.40"/>
    <line x1="230.40" y1="35.65" x2="237.13" y2="36.00"/>
  </g>
  <g stroke="#2A9D8F" stroke-width="1" fill="none" stroke-linecap="round">
    <line x1="247.76" y1="36.00" x2="258.29" y2="22.99"/>
    <line x1="245.01" y1="12.34" x2="258.99" y2="23.66"/>
    <line x1="245.71" y1="13.01" x2="256.24" y2="0.00"/>
  </g>
  <g stroke="#2A9D8F" stroke-width="1" fill="none" stroke-linecap="round">
    <line x1="273.60" y1="27.41" x2="271.78" y2="36.00"/>
    <line x1="273.60" y1="12.99" x2="268.71" y2="36.00"/>
    <line x1="273.29" y1="0.00" x2="265.64" y2="36.00"/>
    <line x1="270.23" y1="0.00" x2="262.57" y2="36.00"/>
    <line x1="267.16" y1="-0.00" x2="259.51" y2="36.00"/>
    <line x1="264.09" y1="0.00" x2="259.20" y2="23.01"/>
    <line x1="261.02" y1="0.00" x2="259.20" y2="8.59"/>
  </g>
  <g stroke="#00F5D4" stroke-width="1" fill="none" stroke-linecap="round">
    <line x1="287.61" y1="0.00" x2="288.00" y2="0.41"/>
    <line x1="279.27" y1="0.00" x2="288.00" y2="9.04"/>
    <line x1="276.76" y1="0.00" x2="288.00" y2="11.64"/>
    <line x1="274.26" y1="-0.00" x2="288.00" y2="14.23"/>
    <line x1="273.60" y1="7.95" x2="288.00" y2="22.86"/>
    <line x1="273.60" y1="10.54" x2="288.00" y2="25.46"/>
    <line x1="273.60" y1="13.14" x2="288.00" y2="28.05"/>
    <line x1="273.60" y1="21.77" x2="287.34" y2="36.00"/>
    <line x1="273.60" y1="24.36" x2="284.84" y2="36.00"/>
    <line x1="273.60" y1="26.96" x2="282.33" y2="36.00"/>
    <line x1="273.60" y1="35.59" x2="273.99" y2="36.00"/>
  </g>
  <g stroke="#FF595E" stroke-width="1" fill="none" stroke-linecap="round">
    <line x1="297.69" y1="3.08" x2="302.40" y2="8.13"/>
    <line x1="288.00" y1="10.74" x2="288.83" y2="11.63"/>
    <line x1="301.78" y1="11.86" x2="288.62" y2="24.14"/>
    <line x1="301.57" y1="24.37" x2="302.40" y2="25.26"/>
    <line x1="288.00" y1="27.87" x2="292.71" y2="32.92"/>
  </g>
  <g stroke="#118AB2" stroke-width="1" fill="none" stroke-linecap="round">
    <line x1="316.80" y1="35.85" x2="316.49" y2="36.00"/>
    <line x1="316.80" y1="33.85" x2="312.39" y2="36.00"/>
    <line x1="316.80" y1="27.17" x2="302.40" y2="34.20"/>
    <line x1="316.80" y1="25.17" x2="302.40" y2="32.19"/>
    <line x1="316.80" y1="23.17" x2="302.40" y2="30.19"/>
    <line x1="316.80" y1="16.49" x2="302.40" y2="23.51"/>
    <line x1="316.80" y1="14.49" x2="302.40" y2="21.51"/>
    <line x1="316.80" y1="12.49" x2="302.40" y2="19.51"/>
    <line x1="316.80" y1="5.81" x2="302.40" y2="12.83"/>
    <line x1="316.80" y1="3.81" x2="302.40" y2="10.83"/>
    <line x1="316.80" y1="1.80" x2="302.40" y2="8.83"/>
    <line x1="306.81" y1="0.00" x2="302.40" y2="2.15"/>
    <line x1="302.71" y1="0.00" x2="302.40" y2="0.15"/>
  </g>
  <g stroke="#7209B7" stroke-width="1" fill="none" stroke-linecap="round">
    <line x1="331.20" y1="29.48" x2="323.70" y2="36.00"/>
    <line x1="331.20" y1="21.53" x2="316.80" y2="34.05"/>
    <line x1="331.20" y1="13.58" x2="316.80" y2="26.10"/>
    <line x1="331.20" y1="5.63" x2="316.80" y2="18.15"/>
    <line x1="328.53" y1="0.00" x2="316.80" y2="10.20"/>
    <line x1="319.38" y1="0.00" x2="316.80" y2="2.25"/>
    <line x1="331.20" y1="5.88" x2="326.09" y2="0.00"/>
    <line x1="331.20" y1="15.02" x2="318.14" y2="0.00"/>
    <line x1="331.20" y1="24.17" x2="316.80" y2="7.60"/>
    <line x1="331.20" y1="33.31" x2="316.80" y2="16.75"/>
    <line x1="325.58" y1="36.00" x2="316.80" y2="25.89"/>
    <line x1="317.63" y1="36.00" x2="316.80" y2="35.04"/>
  </g>
  <g stroke="#FEE440" stroke-width="1" fill="none" stroke-linecap="round">
    <line x1="331.20" y1="0.00" x2="345.60" y2="0.00"/>
    <line x1="345.60" y1="0.00" x2="345.60" y2="36.00"/>
    <line x1="345.60" y1="36.00" x2="331.20" y2="36.00"/>
    <line x1="331.20" y1="36.00" x2="331.20" y2="0.00"/>
    <line x1="331.20" y1="36.00" x2="332.31" y2="33.21"/>
    <line x1="332.31" y1="2.79" x2="344.49" y2="2.79"/>
    <line x1="344.49" y1="2.79" x2="344.49" y2="33.21"/>
    <line x1="344.49" y1="33.21" x2="332.31" y2="33.21"/>
    <line x1="332.31" y1="33.21" x2="332.31" y2="2.79"/>
    <line x1="332.31" y1="33.21" x2="333.43" y2="30.43"/>
    <line x1="333.43" y1="5.57" x2="343.37" y2="5.57"/>
    <line x1="343.37" y1="5.57" x2="343.37" y2="30.43"/>
    <line x1="343.37" y1="30.43" x2="333.43" y2="30.43"/>
    <line x1="333.43" y1="30.43" x2="333.43" y2="5.57"/>
    <line x1="333.43" y1="30.43" x2="334.54" y2="27.64"/>
    <line x1="334.54" y1="8.36" x2="342.26" y2="8.36"/>
    <line x1="342.26" y1="8.36" x2="342.26" y2="27.64"/>
    <line x1="342.26" y1="27.64" x2="334.54" y2="27.64"/>
    <line x1="334.54" y1="27.64" x2="334.54" y2="8.36"/>
    <line x1="334.54" y1="27.64" x2="335.66" y2="24.86"/>
    <line x1="335.66" y1="11.14" x2="341.14" y2="11.14"/>
    <line x1="341.14" y1="11.14" x2="341.14" y2="24.86"/>
    <line x1="341.14" y1="24.86" x2="335.66" y2="24.86"/>
    <line x1="335.66" y1="24.86" x2="335.66" y2="11.14"/>
    <line x1="335.66" y1="24.86" x2="336.77" y2="22.07"/>
    <line x1="336.77" y1="13.93" x2="340.03" y2="13.93"/>
    <line x1="340.03" y1="13.93" x2="340.03" y2="22.07"/>
    <line x1="340.03" y1="22.07" x2="336.77" y2="22.07"/>
    <line x1="336.77" y1="22.07" x2="336.77" y2="13.93"/>
  </g>
  <g stroke="#00F5D4" stroke-width="1" fill="none" stroke-linecap="round">
    <line x1="358.45" y1="0.00" x2="360.00" y2="12.64"/>
    <line x1="352.40" y1="0.00" x2="356.82" y2="36.00"/>
    <line x1="350.59" y1="0.00" x2="355.01" y2="36.00"/>
    <line x1="348.78" y1="0.00" x2="353.20" y2="36.00"/>
    <line x1="345.60" y1="23.36" x2="347.15" y2="36.00"/>
  </g>
  <g stroke="#FF595E" stroke-width="1" fill="none" stroke-linecap="round">
    <line x1="374.40" y1="22.24" x2="370.86" y2="23.89"/>
    <line x1="374.40" y1="34.61" x2="372.09" y2="29.65"/>
    <line x1="370.91" y1="0.00" x2="362.17" y2="4.08"/>
    <line x1="371.00" y1="26.16" x2="363.40" y2="9.84"/>
    <line x1="372.23" y1="31.92" x2="363.49" y2="36.00"/>
    <line x1="362.31" y1="6.35" x2="360.00" y2="1.39"/>
    <line x1="363.54" y1="12.11" x2="360.00" y2="13.76"/>
  </g>
  <g stroke="#FF595E" stroke-width="1" fill="none" stroke-linecap="round">
    <line x1="382.70" y1="0.00" x2="388.80" y2="0.75"/>
    <line x1="374.40" y1="2.00" x2="388.80" y2="3.77"/>
    <line x1="374.40" y1="5.03" x2="388.80" y2="6.79"/>
    <line x1="374.40" y1="8.05" x2="388.80" y2="9.82"/>
    <line x1="374.40" y1="11.07" x2="388.80" y2="12.84"/>
    <line x1="374.40" y1="14.09" x2="388.80" y2="15.86"/>
    <line x1="374.40" y1="17.12" x2="388.80" y2="18.88"/>
    <line x1="374.40" y1="20.14" x2="388.80" y2="21.91"/>
    <line x1="374.40" y1="23.16" x2="388.80" y2="24.93"/>
    <line x1="374.40" y1="26.18" x2="388.80" y2="27.95"/>
    <line x1="374.40" y1="29.21" x2="388.80" y2="30.97"/>
    <line x1="374.40" y1="32.23" x2="388.80" y2="34.00"/>
    <line x1="374.40" y1="35.25" x2="380.50" y2="36.00"/>
  </g>
  <g stroke="#118AB2" stroke-width="1" fill="none" stroke-linecap="round">
    <line x1="402.20" y1="0.00" x2="403.20" y2="1.55"/>
    <line x1="398.62" y1="0.00" x2="403.20" y2="7.05"/>
    <line x1="395.04" y1="0.00" x2="403.20" y2="12.56"/>
    <line x1="391.46" y1="-0.00" x2="403.20" y2="18.07"/>
    <line x1="388.80" y1="1.40" x2="403.20" y2="23.58"/>
    <line x1="388.80" y1="6.91" x2="403.20" y2="29.09"/>
    <line x1="388.80" y1="12.42" x2="403.20" y2="34.60"/>
    <line x1="388.80" y1="17.93" x2="400.54" y2="36.00"/>
    <line x1="388.80" y1="23.44" x2="396.96" y2="36.00"/>
    <line x1="388.80" y1="28.95" x2="393.38" y2="36.00"/>
    <line x1="388.80" y1="34.45" x2="389.80" y2="36.00"/>
  </g>
  <g stroke="#F72585" stroke-width="1" fill="none" stroke-linecap="round">
    <line x1="403.20" y1="4.49" x2="417.60" y2="4.74"/>
    <line x1="403.20" y1="10.49" x2="417.60" y2="10.74"/>
    <line x1="403.20" y1="16.49" x2="417.60" y2="16.74"/>
    <line x1="403.20" y1="22.49" x2="417.60" y2="22.74"/>
    <line x1="403.20" y1="28.49" x2="417.60" y2="28.74"/>
    <line x1="403.20" y1="34.49" x2="417.60" y2="34.74"/>
    <line x1="403.33" y1="0.00" x2="403.20" y2="7.25"/>
    <line x1="409.33" y1="0.00" x2="408.70" y2="36.00"/>
    <line x1="415.33" y1="0.00" x2="414.70" y2="36.00"/>
  </g>
  <g stroke="#2A9D8F" stroke-width="1" fill="none" stroke-linecap="round">
    <line x1="430.75" y1="0.00" x2="432.00" y2="1.85"/>
    <line x1="427.13" y1="0.00" x2="432.00" y2="7.21"/>
    <line x1="423.51" y1="0.00" x2="432.00" y2="12.58"/>
    <line x1="419.90" y1="0.00" x2="432.00" y2="17.94"/>
    <line x1="417.60" y1="1.96" x2="432.00" y2="23.31"/>
    <line x1="417.60" y1="7.33" x2="432.00" y2="28.67"/>
    <line x1="417.60" y1="12.69" x2="432.00" y2="34.04"/>
    <line x1="417.60" y1="18.06" x2="429.70" y2="36.00"/>
    <line x1="417.60" y1="23.42" x2="426.09" y2="36.00"/>
    <line x1="417.60" y1="28.79" x2="422.47" y2="36.00"/>
    <line x1="417.60" y1="34.15" x2="418.85" y2="36.00"/>
    <line x1="432.00" y1="34.86" x2="430.30" y2="36.00"/>
    <line x1="432.00" y1="31.24" x2="424.94" y2="36.00"/>
    <line x1="432.00" y1="27.62" x2="419.57" y2="36.00"/>
    <line x1="432.00" y1="24.00" x2="417.60" y2="33.71"/>
    <line x1="432.00" y1="20.38" x2="417.60" y2="30.09"/>
    <line x1="432.00" y1="16.76" x2="417.60" y2="26.48"/>
    <line x1="432.00" y1="13.14" x2="417.60" y2="22.86"/>
    <line x1="432.00" y1="9.52" x2="417.60" y2="19.24"/>
    <line x1="432.00" y1="5.91" x2="417.60" y2="15.62"/>
    <line x1="432.00" y1="2.29" x2="417.60" y2="12.00"/>
    <line x1="430.03" y1="0.00" x2="417.60" y2="8.38"/>
    <line x1="424.66" y1="-0.00" x2="417.60" y2="4.76"/>
    <line x1="419.30" y1="0.00" x2="417.60" y2="1.14"/>
  </g>
  <g stroke="#7209B7" stroke-width="1" fill="none" stroke-linecap="round">
    <line x1="446.40" y1="35.02" x2="445.05" y2="36.00"/>
    <line x1="446.40" y1="31.31" x2="439.94" y2="36.00"/>
    <line x1="446.40" y1="27.60" x2="434.84" y2="36.00"/>
    <line x1="446.40" y1="23.89" x2="432.00" y2="34.36"/>
    <line x1="446.40" y1="20.19" x2="432.00" y2="30.65"/>
    <line x1="446.40" y1="16.48" x2="432.00" y2="26.94"/>
    <line x1="446.40" y1="12.77" x2="432.00" y2="23.23"/>
    <line x1="446.40" y1="9.06" x2="432.00" y2="19.52"/>
    <line x1="446.40" y1="5.35" x2="432.00" y2="15.81"/>
    <line x1="446.40" y1="1.64" x2="432.00" y2="12.11"/>
    <line x1="443.56" y1="0.00" x2="432.00" y2="8.40"/>
    <line x1="438.46" y1="-0.00" x2="432.00" y2="4.69"/>
    <line x1="433.35" y1="-0.00" x2="432.00" y2="0.98"/>
    <line x1="433.74" y1="36.00" x2="432.00" y2="33.61"/>
    <line x1="437.44" y1="36.00" x2="432.00" y2="28.51"/>
    <line x1="441.15" y1="36.00" x2="432.00" y2="23.40"/>
    <line x1="444.86" y1="36.00" x2="432.00" y2="18.30"/>
    <line x1="446.40" y1="33.01" x2="432.00" y2="13.19"/>
    <line x1="446.40" y1="27.91" x2="432.00" y2="8.09"/>
    <line x1="446.40" y1="22.81" x2="432.00" y2="2.99"/>
    <line x1="446.40" y1="17.70" x2="433.54" y2="0.00"/>
    <line x1="446.40" y1="12.60" x2="437.25" y2="0.00"/>
    <line x1="446.40" y1="7.49" x2="440.96" y2="0.00"/>
    <line x1="446.40" y1="2.39" x2="444.66" y2="0.00"/>
  </g>
  <g stroke="#118AB2" stroke-width="1" fill="none" stroke-linecap="round">
    <line x1="457.90" y1="-0.00" x2="460.80" y2="5.70"/>
    <line x1="454.53" y1="0.00" x2="460.80" y2="12.31"/>
    <line x1="451.16" y1="0.00" x2="460.80" y2="18.91"/>
    <line x1="447.80" y1="0.00" x2="460.80" y2="25.52"/>
    <line x1="446.40" y1="3.87" x2="460.80" y2="32.13"/>
    <line x1="446.40" y1="10.48" x2="459.40" y2="36.00"/>
    <line x1="446.40" y1="17.09" x2="456.04" y2="36.00"/>
    <line x1="446.40" y1="23.69" x2="452.67" y2="36.00"/>
    <line x1="446.40" y1="30.30" x2="449.30" y2="36.00"/>
    <line x1="460.80" y1="34.53" x2="457.92" y2="36.00"/>
    <line x1="460.80" y1="31.17" x2="451.31" y2="36.00"/>
    <line x1="460.80" y1="27.80" x2="446.40" y2="35.14"/>
    <line x1="460.80" y1="24.43" x2="446.40" y2="31.77"/>
    <line x1="460.80" y1="21.07" x2="446.40" y2="28.40"/>
    <line x1="460.80" y1="17.70" x2="446.40" y2="25.04"/>
    <line x1="460.80" y1="14.33" x2="446.40" y2="21.67"/>
    <line x1="460.80" y1="10.96" x2="446.40" y2="18.30"/>
    <line x1="460.80" y1="7.60" x2="446.40" y2="14.93"/>
    <line x1="460.80" y1="4.23" x2="446.40" y2="11.57"/>
    <line x1="460.80" y1="0.86" x2="446.40" y2="8.20"/>
    <line x1="455.89" y1="0.00" x2="446.40" y2="4.83"/>
    <line x1="449.28" y1="0.00" x2="446.40" y2="1.47"/>
  </g>
  <g stroke="#118AB2" stroke-width="1" fill="none" stroke-linecap="round">
    <line x1="463.50" y1="7.03" x2="475.20" y2="6.83"/>
    <line x1="467.84" y1="9.00" x2="468.16" y2="27.00"/>
    <line x1="460.80" y1="29.17" x2="472.50" y2="28.97"/>
  </g>
  <g stroke="#3A86FF" stroke-width="1" fill="none" stroke-linecap="round">
    <line x1="487.47" y1="0.00" x2="489.60" y2="3.70"/>
    <line x1="480.54" y1="-0.00" x2="489.60" y2="15.70"/>
    <line x1="475.20" y1="2.76" x2="489.60" y2="27.70"/>
    <line x1="475.20" y1="14.76" x2="487.47" y2="36.00"/>
    <line x1="475.20" y1="26.76" x2="480.54" y2="36.00"/>
    <line x1="486.80" y1="0.00" x2="475.20" y2="6.70"/>
    <line x1="489.60" y1="5.31" x2="475.20" y2="13.63"/>
    <line x1="489.60" y1="12.24" x2="475.20" y2="20.56"/>
    <line x1="489.60" y1="19.17" x2="475.20" y2="27.48"/>
    <line x1="489.60" y1="26.10" x2="475.20" y2="34.41"/>
    <line x1="489.60" y1="33.03" x2="484.45" y2="36.00"/>
  </g>
  <g stroke="#8338EC" stroke-width="1" fill="none" stroke-linecap="round">
    <line x1="489.60" y1="0.00" x2="504.00" y2="0.00"/>
    <line x1="504.00" y1="0.00" x2="504.00" y2="36.00"/>
    <line x1="504.00" y1="36.00" x2="489.60" y2="36.00"/>
    <line x1="489.60" y1="36.00" x2="489.60" y2="0.00"/>
    <line x1="489.60" y1="36.00" x2="490.71" y2="33.21"/>
    <line x1="490.71" y1="2.79" x2="502.89" y2="2.79"/>
    <line x1="502.89" y1="2.79" x2="502.89" y2="33.21"/>
    <line x1="502.89" y1="33.21" x2="490.71" y2="33.21"/>
    <line x1="490.71" y1="33.21" x2="490.71" y2="2.79"/>
    <line x1="490.71" y1="33.21" x2="491.83" y2="30.43"/>
    <line x1="491.83" y1="5.57" x2="501.77" y2="5.57"/>
    <line x1="501.77" y1="5.57" x2="501.77" y2="30.43"/>
    <line x1="501.77" y1="30.43" x2="491.83" y2="30.43"/>
    <line x1="491.83" y1="30.43" x2="491.83" y2="5.57"/>
    <line x1="491.83" y1="30.43" x2="492.94" y2="27.64"/>
    <line x1="492.94" y1="8.36" x2="500.66" y2="8.36"/>
    <line x1="500.66" y1="8.36" x2="500.66" y2="27.64"/>
    <line x1="500.66" y1="27.64" x2="492.94" y2="27.64"/>
    <line x1="492.94" y1="27.64" x2="492.94" y2="8.36"/>
    <line x1="492.94" y1="27.64" x2="494.06" y2="24.86"/>
    <line x1="494.06" y1="11.14" x2="499.54" y2="11.14"/>
    <line x1="499.54" y1="11.14" x2="499.54" y2="24.86"/>
    <line x1="499.54" y1="24.86" x2="494.06" y2="24.86"/>
    <line x1="494.06" y1="24.86" x2="494.06" y2="11.14"/>
    <line x1="494.06" y1="24.86" x2="495.17" y2="22.07"/>
    <line x1="495.17" y1="13.93" x2="498.43" y2="13.93"/>
    <line x1="498.43" y1="13.93" x2="498.43" y2="22.07"/>
    <line x1="498.43" y1="22.07" x2="495.17" y2="22.07"/>
    <line x1="495.17" y1="22.07" x2="495.17" y2="13.93"/>
  </g>
  <g stroke="#8338EC" stroke-width="1" fill="none" stroke-linecap="round">
    <line x1="511.67" y1="0.00" x2="518.40" y2="0.35"/>
    <line x1="504.00" y1="2.60" x2="518.40" y2="3.36"/>
    <line x1="504.00" y1="5.61" x2="518.40" y2="6.36"/>
    <line x1="504.00" y1="8.61" x2="518.40" y2="9.36"/>
    <line x1="504.00" y1="11.61" x2="518.40" y2="12.37"/>
    <line x1="504.00" y1="14.62" x2="518.40" y2="15.37"/>
    <line x1="504.00" y1="17.62" x2="518.40" y2="18.38"/>
    <line x1="504.00" y1="20.63" x2="518.40" y2="21.38"/>
    <line x1="504.00" y1="23.63" x2="518.40" y2="24.39"/>
    <line x1="504.00" y1="26.64" x2="518.40" y2="27.39"/>
    <line x1="504.00" y1="29.64" x2="518.40" y2="30.39"/>
    <line x1="504.00" y1="32.64" x2="518.40" y2="33.40"/>
    <line x1="504.00" y1="35.65" x2="510.73" y2="36.00"/>
    <line x1="518.15" y1="0.00" x2="516.26" y2="36.00"/>
    <line x1="515.15" y1="0.00" x2="513.26" y2="36.00"/>
    <line x1="512.14" y1="0.00" x2="510.26" y2="36.00"/>
    <line x1="509.14" y1="0.00" x2="507.25" y2="36.00"/>
    <line x1="506.14" y1="0.00" x2="504.25" y2="36.00"/>
  </g>
  <g stroke="#2A9D8F" stroke-width="1" fill="none" stroke-linecap="round">
    <line x1="531.28" y1="0.00" x2="532.80" y2="1.07"/>
    <line x1="526.05" y1="-0.00" x2="532.80" y2="4.73"/>
    <line x1="520.81" y1="-0.00" x2="532.80" y2="8.39"/>
    <line x1="518.40" y1="1.97" x2="532.80" y2="12.05"/>
    <line x1="518.40" y1="5.63" x2="532.80" y2="15.72"/>
    <line x1="518.40" y1="9.30" x2="532.80" y2="19.38"/>
    <line x1="518.40" y1="12.96" x2="532.80" y2="23.04"/>
    <line x1="518.40" y1="16.62" x2="532.80" y2="26.70"/>
    <line x1="518.40" y1="20.28" x2="532.80" y2="30.37"/>
    <line x1="518.40" y1="23.95" x2="532.80" y2="34.03"/>
    <line x1="518.40" y1="27.61" x2="530.39" y2="36.00"/>
    <line x1="518.40" y1="31.27" x2="525.15" y2="36.00"/>
    <line x1="518.40" y1="34.93" x2="519.92" y2="36.00"/>
    <line x1="532.80" y1="33.87" x2="531.31" y2="36.00"/>
    <line x1="532.80" y1="28.64" x2="527.65" y2="36.00"/>
    <line x1="532.80" y1="23.41" x2="523.98" y2="36.00"/>
    <line x1="532.80" y1="18.18" x2="520.32" y2="36.00"/>
    <line x1="532.80" y1="12.95" x2="518.40" y2="33.51"/>
    <line x1="532.80" y1="7.72" x2="518.40" y2="28.28"/>
    <line x1="532.80" y1="2.49" x2="518.40" y2="23.05"/>
    <line x1="530.88" y1="0.00" x2="518.40" y2="17.82"/>
    <line x1="527.22" y1="0.00" x2="518.40" y2="12.59"/>
    <line x1="523.55" y1="0.00" x2="518.40" y2="7.36"/>
    <line x1="519.89" y1="0.00" x2="518.40" y2="2.13"/>
  </g>
  <g stroke="#00BBF9" stroke-width="1" fill="none" stroke-linecap="round">
    <line x1="545.50" y1="0.00" x2="547.20" y2="1.14"/>
    <line x1="540.14" y1="0.00" x2="547.20" y2="4.76"/>
    <line x1="534.77" y1="0.00" x2="547.20" y2="8.38"/>
    <line x1="532.80" y1="2.29" x2="547.20" y2="12.00"/>
    <line x1="532.80" y1="5.91" x2="547.20" y2="15.62"/>
    <line x1="532.80" y1="9.52" x2="547.20" y2="19.24"/>
    <line x1="532.80" y1="13.14" x2="547.20" y2="22.86"/>
    <line x1="532.80" y1="16.76" x2="547.20" y2="26.48"/>
    <line x1="532.80" y1="20.38" x2="547.20" y2="30.09"/>
    <line x1="532.80" y1="24.00" x2="547.20" y2="33.71"/>
    <line x1="532.80" y1="27.62" x2="545.23" y2="36.00"/>
    <line x1="532.80" y1="31.24" x2="539.86" y2="36.00"/>
    <line x1="532.80" y1="34.86" x2="534.50" y2="36.00"/>
    <line x1="547.20" y1="34.15" x2="545.95" y2="36.00"/>
    <line x1="547.20" y1="28.79" x2="542.33" y2="36.00"/>
    <line x1="547.20" y1="23.42" x2="538.71" y2="36.00"/>
    <line x1="547.20" y1="18.06" x2="535.10" y2="36.00"/>
    <line x1="547.20" y1="12.69" x2="532.80" y2="34.04"/>
    <line x1="547.20" y1="7.33" x2="532.80" y2="28.67"/>
    <line x1="547.20" y1="1.96" x2="532.80" y2="23.31"/>
    <line x1="544.90" y1="0.00" x2="532.80" y2="17.94"/>
    <line x1="541.29" y1="0.00" x2="532.80" y2="12.58"/>
    <line x1="537.67" y1="0.00" x2="532.80" y2="7.21"/>
    <line x1="534.05" y1="0.00" x2="532.80" y2="1.85"/>
  </g>
  <g stroke="#6A4C93" stroke-width="1" fill="none" stroke-linecap="round">
    <line x1="547.20" y1="0.00" x2="561.60" y2="0.00"/>
    <line x1="561.60" y1="0.00" x2="561.60" y2="36.00"/>
    <line x1="561.60" y1="36.00" x2="547.20" y2="36.00"/>
    <line x1="547.20" y1="36.00" x2="547.20" y2="0.00"/>
    <line x1="547.20" y1="36.00" x2="548.31" y2="33.21"/>
    <line x1="548.31" y1="2.79" x2="560.49" y2="2.79"/>
    <line x1="560.49" y1="2.79" x2="560.49" y2="33.21"/>
    <line x1="560.49" y1="33.21" x2="548.31" y2="33.21"/>
    <line x1="548.31" y1="33.21" x2="548.31" y2="2.79"/>
    <line x1="548.31" y1="33.21" x2="549.43" y2="30.43"/>
    <line x1="549.43" y1="5.57" x2="559.37" y2="5.57"/>
    <line x1="559.37" y1="5.57" x2="559.37" y2="30.43"/>
    <line x1="559.37" y1="30.43" x2="549.43" y2="30.43"/>
    <line x1="549.43" y1="30.43" x2="549.43" y2="5.57"/>
    <line x1="549.43" y1="30.43" x2="550.54" y2="27.64"/>
    <line x1="550.54" y1="8.36" x2="558.26" y2="8.36"/>
    <line x1="558.26" y1="8.36" x2="558.26" y2="27.64"/>
    <line x1="558.26" y1="27.64" x2="550.54" y2="27.64"/>
    <line x1="550.54" y1="27.64" x2="550.54" y2="8.36"/>
    <line x1="550.54" y1="27.64" x2="551.66" y2="24.86"/>
    <line x1="551.66" y1="11.14" x2="557.14" y2="11.14"/>
    <line x1="557.14" y1="11.14" x2="557.14" y2="24.86"/>
    <line x1="557.14" y1="24.86" x2="551.66" y2="24.86"/>
    <line x1="551.66" y1="24.86" x2="551.66" y2="11.14"/>
    <line x1="551.66" y1="24.86" x2="552.77" y2="22.07"/>
    <line x1="552.77" y1="13.93" x2="556.03" y2="13.93"/>
    <line x1="556.03" y1="13.93" x2="556.03" y2="22.07"/>
    <line x1="556.03" y1="22.07" x2="552.77" y2="22.07"/>
    <line x1="552.77" y1="22.07" x2="552.77" y2="13.93"/>
  </g>
  <g stroke="#4361EE" stroke-width="1" fill="none" stroke-linecap="round">
    <line x1="576.00" y1="33.95" x2="575.29" y2="36.00"/>
    <line x1="576.00" y1="24.73" x2="572.12" y2="36.00"/>
    <line x1="576.00" y1="15.52" x2="568.95" y2="36.00"/>
    <line x1="576.00" y1="6.30" x2="565.77" y2="36.00"/>
    <line x1="575.00" y1="0.00" x2="562.60" y2="36.00"/>
    <line x1="571.83" y1="0.00" x2="561.60" y2="29.70"/>
    <line x1="568.65" y1="0.00" x2="561.60" y2="20.48"/>
    <line x1="565.48" y1="0.00" x2="561.60" y2="11.27"/>
    <line x1="562.31" y1="0.00" x2="561.60" y2="2.05"/>
    <line x1="565.79" y1="36.00" x2="561.60" y2="34.56"/>
    <line x1="575.00" y1="36.00" x2="561.60" y2="31.39"/>
    <line x1="576.00" y1="33.17" x2="561.60" y2="28.21"/>
    <line x1="576.00" y1="30.00" x2="561.60" y2="25.04"/>
    <line x1="576.00" y1="26.82" x2="561.60" y2="21.87"/>
    <line x1="576.00" y1="23.65" x2="561.60" y2="18.69"/>
    <line x1="576.00" y1="20.48" x2="561.60" y2="15.52"/>
    <line x1="576.00" y1="17.31" x2="561.60" y2="12.35"/>
    <line x1="576.00" y1="14.13" x2="561.60" y2="9.18"/>
    <line x1="576.00" y1="10.96" x2="561.60" y2="6.00"/>
    <line x1="576.00" y1="7.79" x2="561.60" y2="2.83"/>
    <line x1="576.00" y1="4.61" x2="562.60" y2="0.00"/>
    <line x1="576.00" y1="1.44" x2="571.81" y2="0.00"/>
  </g>
  <g stroke="#1982C4" stroke-width="1" fill="none" stroke-linecap="round">
    <line x1="588.66" y1="0.00" x2="590.40" y2="2.39"/>
    <line x1="584.96" y1="0.00" x2="590.40" y2="7.49"/>
    <line x1="581.25" y1="-0.00" x2="590.40" y2="12.60"/>
    <line x1="577.54" y1="-0.00" x2="590.40" y2="17.70"/>
    <line x1="576.00" y1="2.99" x2="590.40" y2="22.81"/>
    <line x1="576.00" y1="8.09" x2="590.40" y2="27.91"/>
    <line x1="576.00" y1="13.19" x2="590.40" y2="33.01"/>
    <line x1="576.00" y1="18.30" x2="588.86" y2="36.00"/>
    <line x1="576.00" y1="23.40" x2="585.15" y2="36.00"/>
    <line x1="576.00" y1="28.51" x2="581.44" y2="36.00"/>
    <line x1="576.00" y1="33.61" x2="577.74" y2="36.00"/>
    <line x1="590.40" y1="35.02" x2="589.05" y2="36.00"/>
    <line x1="590.40" y1="31.31" x2="583.94" y2="36.00"/>
    <line x1="590.40" y1="27.60" x2="578.84" y2="36.00"/>
    <line x1="590.40" y1="23.89" x2="576.00" y2="34.36"/>
    <line x1="590.40" y1="20.19" x2="576.00" y2="30.65"/>
    <line x1="590.40" y1="16.48" x2="576.00" y2="26.94"/>
    <line x1="590.40" y1="12.77" x2="576.00" y2="23.23"/>
    <line x1="590.40" y1="9.06" x2="576.00" y2="19.52"/>
    <line x1="590.40" y1="5.35" x2="576.00" y2="15.81"/>
    <line x1="590.40" y1="1.64" x2="576.00" y2="12.11"/>
    <line x1="587.56" y1="0.00" x2="576.00" y2="8.40"/>
    <line x1="582.46" y1="-0.00" x2="576.00" y2="4.69"/>
    <line x1="577.35" y1="-0.00" x2="576.00" y2="0.98"/>
  </g>
  <g stroke="#90BE6D" stroke-width="1" fill="none" stroke-linecap="round">
    <line x1="602.72" y1="0.00" x2="604.80" y2="4.67"/>
    <line x1="599.44" y1="0.00" x2="604.80" y2="12.04"/>
    <line x1="596.15" y1="0.00" x2="604.80" y2="19.42"/>
    <line x1="592.87" y1="0.00" x2="604.80" y2="26.80"/>
    <line x1="590.40" y1="1.83" x2="604.80" y2="34.17"/>
    <line x1="590.40" y1="9.20" x2="602.33" y2="36.00"/>
    <line x1="590.40" y1="16.58" x2="599.05" y2="36.00"/>
    <line x1="590.40" y1="23.96" x2="595.76" y2="36.00"/>
    <line x1="590.40" y1="31.33" x2="592.48" y2="36.00"/>
  </g>
  <g stroke="#118AB2" stroke-width="1" fill="none" stroke-linecap="round">
    <line x1="619.20" y1="34.51" x2="618.28" y2="34.33"/>
    <line x1="619.20" y1="33.14" x2="615.92" y2="32.48"/>
    <line x1="614.07" y1="34.84" x2="614.62" y2="36.00"/>
    <line x1="619.09" y1="23.54" x2="619.20" y2="23.77"/>
    <line x1="619.20" y1="31.78" x2="613.55" y2="30.63"/>
    <line x1="611.70" y1="33.00" x2="613.13" y2="36.00"/>
    <line x1="619.20" y1="19.46" x2="618.58" y2="19.33"/>
    <line x1="616.73" y1="21.69" x2="619.20" y2="26.89"/>
    <line x1="617.76" y1="30.12" x2="611.19" y2="28.79"/>
    <line x1="609.34" y1="31.15" x2="611.65" y2="36.00"/>
    <line x1="619.20" y1="18.09" x2="616.21" y2="17.48"/>
    <line x1="614.36" y1="19.85" x2="617.25" y2="25.90"/>
    <line x1="615.40" y1="28.27" x2="608.82" y2="26.94"/>
    <line x1="606.98" y1="29.30" x2="609.86" y2="35.36"/>
    <line x1="619.20" y1="16.72" x2="613.85" y2="15.64"/>
    <line x1="612.00" y1="18.00" x2="614.88" y2="24.06"/>
    <line x1="613.03" y1="26.42" x2="606.46" y2="25.09"/>
    <line x1="604.80" y1="27.85" x2="607.49" y2="33.51"/>
    <line x1="605.65" y1="35.88" x2="604.80" y2="35.71"/>
    <line x1="619.20" y1="4.40" x2="618.87" y2="4.33"/>
    <line x1="617.02" y1="6.70" x2="619.20" y2="11.27"/>
    <line x1="618.06" y1="15.12" x2="611.48" y2="13.79"/>
    <line x1="609.64" y1="16.15" x2="612.52" y2="22.21"/>
    <line x1="610.67" y1="24.58" x2="604.80" y2="23.39"/>
    <line x1="604.80" y1="30.98" x2="605.13" y2="31.67"/>
    <line x1="619.20" y1="3.03" x2="616.51" y2="2.49"/>
    <line x1="614.66" y1="4.85" x2="617.54" y2="10.91"/>
    <line x1="615.69" y1="13.27" x2="609.12" y2="11.94"/>
    <line x1="607.27" y1="14.31" x2="610.15" y2="20.36"/>
    <line x1="608.31" y1="22.73" x2="604.80" y2="22.02"/>
    <line x1="619.20" y1="1.66" x2="614.14" y2="0.64"/>
    <line x1="612.30" y1="3.00" x2="615.18" y2="9.06"/>
    <line x1="613.33" y1="11.42" x2="606.75" y2="10.10"/>
    <line x1="604.91" y1="12.46" x2="607.79" y2="18.52"/>
    <line x1="605.94" y1="20.88" x2="604.80" y2="20.65"/>
    <line x1="618.35" y1="0.12" x2="617.75" y2="0.00"/>
    <line x1="609.93" y1="1.16" x2="612.81" y2="7.21"/>
    <line x1="610.97" y1="9.58" x2="604.80" y2="8.33"/>
    <line x1="604.80" y1="15.36" x2="605.42" y2="16.67"/>
    <line x1="607.90" y1="0.00" x2="610.45" y2="5.37"/>
    <line x1="608.60" y1="7.73" x2="604.80" y2="6.96"/>
    <line x1="606.41" y1="0.00" x2="608.08" y2="3.52"/>
    <line x1="606.24" y1="5.88" x2="604.80" y2="5.59"/>
    <line x1="604.93" y1="0.00" x2="605.72" y2="1.67"/>
  </g>
  <g stroke="#FF595E" stroke-width="1" fill="none" stroke-linecap="round">
    <line x1="631.37" y1="0.00" x2="633.60" y2="2.85"/>
    <line x1="627.57" y1="0.00" x2="633.60" y2="7.72"/>
    <line x1="623.76" y1="0.00" x2="633.60" y2="12.60"/>
    <line x1="619.95" y1="0.00" x2="633.60" y2="17.47"/>
    <line x1="619.20" y1="3.91" x2="633.60" y2="22.34"/>
    <line x1="619.20" y1="8.78" x2="633.60" y2="27.22"/>
    <line x1="619.20" y1="13.66" x2="633.60" y2="32.09"/>
    <line x1="619.20" y1="18.53" x2="632.85" y2="36.00"/>
    <line x1="619.20" y1="23.40" x2="629.04" y2="36.00"/>
    <line x1="619.20" y1="28.28" x2="625.23" y2="36.00"/>
    <line x1="619.20" y1="33.15" x2="621.43" y2="36.00"/>
    <line x1="633.60" y1="35.22" x2="632.60" y2="36.00"/>
    <line x1="633.60" y1="31.41" x2="627.73" y2="36.00"/>
    <line x1="633.60" y1="27.60" x2="622.85" y2="36.00"/>
    <line x1="633.60" y1="23.80" x2="619.20" y2="35.05"/>
    <line x1="633.60" y1="19.99" x2="619.20" y2="31.24"/>
    <line x1="633.60" y1="16.18" x2="619.20" y2="27.43"/>
    <line x1="633.60" y1="12.37" x2="619.20" y2="23.63"/>
    <line x1="633.60" y1="8.57" x2="619.20" y2="19.82"/>
    <line x1="633.60" y1="4.76" x2="619.20" y2="16.01"/>
    <line x1="633.60" y1="0.95" x2="619.20" y2="12.20"/>
    <line x1="629.95" y1="0.00" x2="619.20" y2="8.40"/>
    <line x1="625.07" y1="0.00" x2="619.20" y2="4.59"/>
    <line x1="620.20" y1="0.00" x2="619.20" y2="0.78"/>
  </g>
  <g stroke="#264653" stroke-width="1" fill="none" stroke-linecap="round">
    <line x1="647.71" y1="0.00" x2="648.00" y2="0.26"/>
    <line x1="643.23" y1="0.00" x2="648.00" y2="4.30"/>
    <line x1="638.74" y1="0.00" x2="648.00" y2="8.34"/>
    <line x1="634.26" y1="0.00" x2="648.00" y2="12.37"/>
    <line x1="633.60" y1="3.44" x2="648.00" y2="16.41"/>
    <line x1="633.60" y1="7.48" x2="648.00" y2="20.45"/>
    <line x1="633.60" y1="11.52" x2="648.00" y2="24.48"/>
    <line x1="633.60" y1="15.55" x2="648.00" y2="28.52"/>
    <line x1="633.60" y1="19.59" x2="648.00" y2="32.56"/>
    <line x1="633.60" y1="23.63" x2="647.34" y2="36.00"/>
    <line x1="633.60" y1="27.66" x2="642.86" y2="36.00"/>
    <line x1="633.60" y1="31.70" x2="638.37" y2="36.00"/>
    <line x1="633.60" y1="35.74" x2="633.89" y2="36.00"/>
  </g>
  <g stroke="#FF595E" stroke-width="1" fill="none" stroke-linecap="round">
    <line x1="662.40" y1="34.86" x2="660.70" y2="36.00"/>
    <line x1="662.40" y1="31.24" x2="655.34" y2="36.00"/>
    <line x1="662.40" y1="27.62" x2="649.97" y2="36.00"/>
    <line x1="662.40" y1="24.00" x2="648.00" y2="33.71"/>
    <line x1="662.40" y1="20.38" x2="648.00" y2="30.09"/>
    <line x1="662.40" y1="16.76" x2="648.00" y2="26.48"/>
    <line x1="662.40" y1="13.14" x2="648.00" y2="22.86"/>
    <line x1="662.40" y1="9.52" x2="648.00" y2="19.24"/>
    <line x1="662.40" y1="5.91" x2="648.00" y2="15.62"/>
    <line x1="662.40" y1="2.29" x2="648.00" y2="12.00"/>
    <line x1="660.43" y1="0.00" x2="648.00" y2="8.38"/>
    <line x1="655.06" y1="-0.00" x2="648.00" y2="4.76"/>
    <line x1="649.70" y1="0.00" x2="648.00" y2="1.14"/>
  </g>
  <g stroke="#264653" stroke-width="1" fill="none" stroke-linecap="round">
    <line x1="676.80" y1="28.75" x2="676.67" y2="36.00"/>
    <line x1="671.30" y1="-0.00" x2="670.67" y2="36.00"/>
    <line x1="665.30" y1="-0.00" x2="664.67" y2="36.00"/>
    <line x1="676.80" y1="4.74" x2="662.40" y2="4.49"/>
    <line x1="676.80" y1="10.74" x2="662.40" y2="10.49"/>
    <line x1="676.80" y1="16.74" x2="662.40" y2="16.49"/>
    <line x1="676.80" y1="22.74" x2="662.40" y2="22.49"/>
    <line x1="676.80" y1="28.74" x2="662.40" y2="28.49"/>
    <line x1="676.80" y1="34.74" x2="662.40" y2="34.49"/>
  </g>
  <g stroke="#264653" stroke-width="1" fill="none" stroke-linecap="round">
    <line x1="689.67" y1="0.00" x2="691.20" y2="3.79"/>
    <line x1="686.43" y1="0.00" x2="691.20" y2="11.80"/>
    <line x1="683.20" y1="0.00" x2="691.20" y2="19.80"/>
    <line x1="679.96" y1="-0.00" x2="691.20" y2="27.81"/>
    <line x1="676.80" y1="0.18" x2="691.20" y2="35.82"/>
    <line x1="676.80" y1="8.19" x2="688.04" y2="36.00"/>
    <line x1="676.80" y1="16.20" x2="684.80" y2="36.00"/>
    <line x1="676.80" y1="24.20" x2="681.57" y2="36.00"/>
    <line x1="676.80" y1="32.21" x2="678.33" y2="36.00"/>
  </g>
  <g stroke="#1982C4" stroke-width="1" fill="none" stroke-linecap="round">
    <line x1="703.56" y1="0.00" x2="705.60" y2="1.27"/>
    <line x1="697.90" y1="0.00" x2="705.60" y2="4.81"/>
    <line x1="692.24" y1="0.00" x2="705.60" y2="8.35"/>
    <line x1="691.20" y1="2.89" x2="705.60" y2="11.89"/>
    <line x1="691.20" y1="6.43" x2="705.60" y2="15.42"/>
    <line x1="691.20" y1="9.96" x2="705.60" y2="18.96"/>
    <line x1="691.20" y1="13.50" x2="705.60" y2="22.50"/>
    <line x1="691.20" y1="17.04" x2="705.60" y2="26.04"/>
    <line x1="691.20" y1="20.58" x2="705.60" y2="29.57"/>
    <line x1="691.20" y1="24.11" x2="705.60" y2="33.11"/>
    <line x1="691.20" y1="27.65" x2="704.56" y2="36.00"/>
    <line x1="691.20" y1="31.19" x2="698.90" y2="36.00"/>
    <line x1="691.20" y1="34.73" x2="693.24" y2="36.00"/>
  </g>
  <g stroke="#00B4D8" stroke-width="1" fill="none" stroke-linecap="round">
    <line x1="705.60" y1="8.87" x2="706.10" y2="11.03"/>
    <line x1="720.00" y1="16.34" x2="705.60" y2="19.66"/>
    <line x1="719.50" y1="24.97" x2="720.00" y2="27.13"/>
  </g>
  <g stroke="#EF476F" stroke-width="1" fill="none" stroke-linecap="round">
    <line x1="720.00" y1="3.87" x2="720.35" y2="10.54"/>
    <line x1="734.40" y1="17.62" x2="720.00" y2="18.38"/>
    <line x1="734.05" y1="25.46" x2="734.40" y2="32.13"/>
  </g>
  <g stroke="#2A9D8F" stroke-width="1" fill="none" stroke-linecap="round">
    <line x1="748.80" y1="22.27" x2="745.61" y2="24.03"/>
    <line x1="748.80" y1="33.57" x2="746.61" y2="29.62"/>
    <line x1="744.42" y1="-0.00" x2="736.23" y2="4.54"/>
    <line x1="745.96" y1="25.87" x2="737.24" y2="10.13"/>
    <line x1="746.97" y1="31.46" x2="738.78" y2="36.00"/>
    <line x1="736.59" y1="6.38" x2="734.40" y2="2.43"/>
    <line x1="737.59" y1="11.97" x2="734.40" y2="13.73"/>
  </g>
  <g stroke="#2A9D8F" stroke-width="1" fill="none" stroke-linecap="round">
    <line x1="748.80" y1="0.00" x2="763.20" y2="0.00"/>
    <line x1="763.20" y1="0.00" x2="763.20" y2="36.00"/>
    <line x1="763.20" y1="36.00" x2="748.80" y2="36.00"/>
    <line x1="748.80" y1="36.00" x2="748.80" y2="0.00"/>
    <line x1="748.80" y1="36.00" x2="749.91" y2="33.21"/>
    <line x1="749.91" y1="2.79" x2="762.09" y2="2.79"/>
    <line x1="762.09" y1="2.79" x2="762.09" y2="33.21"/>
    <line x1="762.09" y1="33.21" x2="749.91" y2="33.21"/>
    <line x1="749.91" y1="33.21" x2="749.91" y2="2.79"/>
    <line x1="749.91" y1="33.21" x2="751.03" y2="30.43"/>
    <line x1="751.03" y1="5.57" x2="760.97" y2="5.57"/>
    <line x1="760.97" y1="5.57" x2="760.97" y2="30.43"/>
    <line x1="760.97" y1="30.43" x2="751.03" y2="30.43"/>
    <line x1="751.03" y1="30.43" x2="751.03" y2="5.57"/>
    <line x1="751.03" y1="30.43" x2="752.14" y2="27.64"/>
    <line x1="752.14" y1="8.36" x2="759.86" y2="8.36"/>
    <line x1="759.86" y1="8.36" x2="759.86" y2="27.64"/>
    <line x1="759.86" y1="27.64" x2="752.14" y2="27.64"/>
    <line x1="752.14" y1="27.64" x2="752.14" y2="8.36"/>
    <line x1="752.14" y1="27.64" x2="753.26" y2="24.86"/>
    <line x1="753.26" y1="11.14" x2="758.74" y2="11.14"/>
    <line x1="758.74" y1="11.14" x2="758.74" y2="24.86"/>
    <line x1="758.74" y1="24.86" x2="753.26" y2="24.86"/>
    <line x1="753.26" y1="24.86" x2="753.26" y2="11.14"/>
    <line x1="753.26" y1="24.86" x2="754.37" y2="22.07"/>
    <line x1="754.37" y1="13.93" x2="757.63" y2="13.93"/>
    <line x1="757.63" y1="13.93" x2="757.63" y2="22.07"/>
    <line x1="757.63" y1="22.07" x2="754.37" y2="22.07"/>
    <line x1="754.37" y1="22.07" x2="754.37" y2="13.93"/>
  </g>
  <g stroke="#FFD166" stroke-width="1" fill="none" stroke-linecap="round">
    <line x1="777.50" y1="0.00" x2="777.39" y2="1.15"/>
    <line x1="776.16" y1="0.00" x2="775.80" y2="3.69"/>
    <line x1="766.58" y1="1.46" x2="768.98" y2="0.00"/>
    <line x1="774.81" y1="0.00" x2="774.21" y2="6.23"/>
    <line x1="776.76" y1="7.82" x2="777.60" y2="7.31"/>
    <line x1="764.99" y1="4.01" x2="770.72" y2="0.51"/>
    <line x1="773.26" y1="2.10" x2="772.63" y2="8.78"/>
    <line x1="775.17" y1="10.37" x2="777.60" y2="8.88"/>
    <line x1="763.40" y1="6.55" x2="769.13" y2="3.05"/>
    <line x1="771.67" y1="4.64" x2="771.04" y2="11.32"/>
    <line x1="773.58" y1="12.91" x2="777.60" y2="10.45"/>
    <line x1="763.20" y1="8.25" x2="767.54" y2="5.60"/>
    <line x1="770.08" y1="7.19" x2="769.45" y2="13.87"/>
    <line x1="771.99" y1="15.46" x2="777.60" y2="12.03"/>
    <line x1="763.20" y1="9.82" x2="765.95" y2="8.14"/>
    <line x1="768.49" y1="9.73" x2="767.86" y2="16.41"/>
    <line x1="770.40" y1="18.00" x2="776.12" y2="14.50"/>
    <line x1="763.20" y1="11.39" x2="764.36" y2="10.69"/>
    <line x1="766.90" y1="12.28" x2="766.27" y2="18.95"/>
    <line x1="768.81" y1="20.54" x2="774.53" y2="17.05"/>
    <line x1="777.08" y1="18.64" x2="776.44" y2="25.31"/>
    <line x1="765.31" y1="14.82" x2="764.68" y2="21.50"/>
    <line x1="767.22" y1="23.09" x2="772.94" y2="19.59"/>
    <line x1="775.49" y1="21.18" x2="774.85" y2="27.86"/>
    <line x1="777.40" y1="29.45" x2="777.60" y2="29.32"/>
    <line x1="763.72" y1="17.36" x2="763.20" y2="22.85"/>
    <line x1="765.63" y1="25.63" x2="771.35" y2="22.13"/>
    <line x1="773.90" y1="23.72" x2="773.26" y2="30.40"/>
    <line x1="775.81" y1="31.99" x2="777.60" y2="30.90"/>
    <line x1="764.04" y1="28.18" x2="769.76" y2="24.68"/>
    <line x1="772.31" y1="26.27" x2="771.67" y2="32.95"/>
    <line x1="774.22" y1="34.54" x2="777.60" y2="32.47"/>
    <line x1="763.20" y1="30.26" x2="768.17" y2="27.22"/>
    <line x1="770.72" y1="28.81" x2="770.08" y2="35.49"/>
    <line x1="774.39" y1="36.00" x2="777.60" y2="34.04"/>
    <line x1="763.20" y1="31.84" x2="766.59" y2="29.77"/>
    <line x1="769.13" y1="31.36" x2="768.69" y2="36.00"/>
    <line x1="763.20" y1="33.41" x2="765.00" y2="32.31"/>
    <line x1="767.54" y1="33.90" x2="767.34" y2="36.00"/>
    <line x1="763.20" y1="34.98" x2="763.41" y2="34.85"/>
  </g>
  <g stroke="#E9C46A" stroke-width="1" fill="none" stroke-linecap="round">
    <line x1="788.79" y1="0.00" x2="792.00" y2="1.50"/>
    <line x1="781.69" y1="0.00" x2="792.00" y2="4.81"/>
    <line x1="777.60" y1="1.40" x2="792.00" y2="8.12"/>
    <line x1="777.60" y1="4.71" x2="792.00" y2="11.43"/>
    <line x1="777.60" y1="8.02" x2="792.00" y2="14.74"/>
    <line x1="777.60" y1="11.33" x2="792.00" y2="18.05"/>
    <line x1="777.60" y1="14.64" x2="792.00" y2="21.36"/>
    <line x1="777.60" y1="17.95" x2="792.00" y2="24.67"/>
    <line x1="777.60" y1="21.26" x2="792.00" y2="27.98"/>
    <line x1="777.60" y1="24.57" x2="792.00" y2="31.29"/>
    <line x1="777.60" y1="27.88" x2="792.00" y2="34.60"/>
    <line x1="777.60" y1="31.19" x2="787.91" y2="36.00"/>
    <line x1="777.60" y1="34.50" x2="780.81" y2="36.00"/>
    <line x1="792.00" y1="30.95" x2="789.65" y2="36.00"/>
    <line x1="792.00" y1="23.86" x2="786.34" y2="36.00"/>
    <line x1="792.00" y1="16.76" x2="783.03" y2="36.00"/>
    <line x1="792.00" y1="9.66" x2="779.72" y2="36.00"/>
    <line x1="792.00" y1="2.56" x2="777.60" y2="33.44"/>
    <line x1="789.88" y1="0.00" x2="777.60" y2="26.34"/>
    <line x1="786.57" y1="0.00" x2="777.60" y2="19.24"/>
    <line x1="783.26" y1="-0.00" x2="777.60" y2="12.14"/>
    <line x1="779.95" y1="0.00" x2="777.60" y2="5.05"/>
  </g>
  <g stroke="#2A9D8F" stroke-width="1" fill="none" stroke-linecap="round">
    <line x1="806.40" y1="32.01" x2="804.00" y2="36.00"/>
    <line x1="806.40" y1="20.36" x2="797.00" y2="36.00"/>
    <line x1="806.40" y1="8.71" x2="792.00" y2="32.68"/>
    <line x1="804.63" y1="0.00" x2="792.00" y2="21.03"/>
    <line x1="797.63" y1="0.00" x2="792.00" y2="9.38"/>
    <line x1="806.40" y1="6.71" x2="795.23" y2="0.00"/>
    <line x1="806.40" y1="13.71" x2="792.00" y2="5.06"/>
    <line x1="806.40" y1="20.71" x2="792.00" y2="12.06"/>
    <line x1="806.40" y1="27.71" x2="792.00" y2="19.06"/>
    <line x1="806.40" y1="34.71" x2="792.00" y2="26.06"/>
    <line x1="796.90" y1="36.00" x2="792.00" y2="33.06"/>
  </g>
  <g stroke="#1982C4" stroke-width="1" fill="none" stroke-linecap="round">
    <line x1="819.54" y1="0.00" x2="820.80" y2="3.27"/>
    <line x1="816.33" y1="0.00" x2="820.80" y2="11.64"/>
    <line x1="813.12" y1="0.00" x2="820.80" y2="20.01"/>
    <line x1="809.90" y1="0.00" x2="820.80" y2="28.39"/>
    <line x1="806.69" y1="0.00" x2="820.51" y2="36.00"/>
    <line x1="806.40" y1="7.61" x2="817.30" y2="36.00"/>
    <line x1="806.40" y1="15.99" x2="814.08" y2="36.00"/>
    <line x1="806.40" y1="24.36" x2="810.87" y2="36.00"/>
    <line x1="806.40" y1="32.73" x2="807.66" y2="36.00"/>
  </g>
  <g stroke="#9EF01A" stroke-width="1" fill="none" stroke-linecap="round">
    <line x1="826.12" y1="0.00" x2="835.20" y2="1.60"/>
    <line x1="820.80" y1="5.15" x2="835.20" y2="7.69"/>
    <line x1="820.80" y1="6.98" x2="835.20" y2="9.52"/>
    <line x1="820.80" y1="8.81" x2="835.20" y2="11.35"/>
    <line x1="820.80" y1="14.90" x2="835.20" y2="17.44"/>
    <line x1="820.80" y1="16.73" x2="835.20" y2="19.27"/>
    <line x1="820.80" y1="18.56" x2="835.20" y2="21.10"/>
    <line x1="820.80" y1="24.65" x2="835.20" y2="27.19"/>
    <line x1="820.80" y1="26.48" x2="835.20" y2="29.02"/>
    <line x1="820.80" y1="28.31" x2="835.20" y2="30.85"/>
    <line x1="820.80" y1="34.40" x2="829.88" y2="36.00"/>
  </g>
  <g stroke="#FFD166" stroke-width="1" fill="none" stroke-linecap="round">
    <line x1="841.10" y1="0.00" x2="849.60" y2="6.64"/>
    <line x1="835.20" y1="3.00" x2="849.60" y2="14.25"/>
    <line x1="835.20" y1="10.62" x2="849.60" y2="21.87"/>
    <line x1="835.20" y1="18.23" x2="849.60" y2="29.48"/>
    <line x1="835.20" y1="25.84" x2="848.20" y2="36.00"/>
    <line x1="835.20" y1="33.46" x2="838.45" y2="36.00"/>
    <line x1="839.48" y1="0.00" x2="835.20" y2="5.47"/>
    <line x1="847.09" y1="0.00" x2="835.20" y2="15.22"/>
    <line x1="849.60" y1="6.53" x2="835.20" y2="24.96"/>
    <line x1="849.60" y1="16.28" x2="835.20" y2="34.71"/>
    <line x1="849.60" y1="26.02" x2="841.81" y2="36.00"/>
    <line x1="849.60" y1="35.77" x2="849.42" y2="36.00"/>
  </g>
  <g stroke="#E63946" stroke-width="1" fill="none" stroke-linecap="round">
    <line x1="857.11" y1="0.00" x2="864.00" y2="0.24"/>
    <line x1="849.60" y1="2.74" x2="864.00" y2="3.24"/>
    <line x1="849.60" y1="5.74" x2="864.00" y2="6.24"/>
    <line x1="849.60" y1="8.74" x2="864.00" y2="9.25"/>
    <line x1="849.60" y1="11.74" x2="864.00" y2="12.25"/>
    <line x1="849.60" y1="14.75" x2="864.00" y2="15.25"/>
    <line x1="849.60" y1="17.75" x2="864.00" y2="18.25"/>
    <line x1="849.60" y1="20.75" x2="864.00" y2="21.25"/>
    <line x1="849.60" y1="23.75" x2="864.00" y2="24.26"/>
    <line x1="849.60" y1="26.75" x2="864.00" y2="27.26"/>
    <line x1="849.60" y1="29.76" x2="864.00" y2="30.26"/>
    <line x1="849.60" y1="32.76" x2="864.00" y2="33.26"/>
    <line x1="849.60" y1="35.76" x2="856.49" y2="36.00"/>
  </g>
</svg>
