<?xml version="1.0" encoding="UTF-8"?>
<svg xmlns="http://www.w3.org/2000/svg"
     width="864.00" height="36.00"
     viewBox="0 0 864.00 36.00">
  <title>Pattern Banner - rat-king</title>
  <desc>Randomized pattern strip with 60 cells</desc>
  <rect width="100%" height="100%" fill="white"/>
  <g stroke="#E63946" stroke-width="1" fill="none" stroke-linecap="round">
    <line x1="0.00" y1="0.00" x2="14.40" y2="0.00"/>
    <line x1="14.40" y1="0.00" x2="14.40" y2="36.00"/>
    <line x1="14.40" y1="36.00" x2="0.00" y2="36.00"/>
    <line x1="0.00" y1="36.00" x2="0.00" y2="0.00"/>
    <line x1="0.00" y1="36.00" x2="1.11" y2="33.21"/>
    <line x1="1.11" y1="2.79" x2="13.29" y2="2.79"/>
    <line x1="13.29" y1="2.79" x2="13.29" y2="33.21"/>
    <line x1="13.29" y1="33.21" x2="1.11" y2="33.21"/>
    <line x1="1.11" y1="33.21" x2="1.11" y2="2.79"/>
    <line x1="1.11" y1="33.21" x2="2.23" y2="30.43"/>
    <line x1="2.23" y1="5.57" x2="12.17" y2="5.57"/>
    <line x1="12.17" y1="5.57" x2="12.17" y2="30.43"/>
    <line x1="12.17" y1="30.43" x2="2.23" y2="30.43"/>
    <line x1="2.23" y1="30.43" x2="2.23" y2="5.57"/>
    <line x1="2.23" y1="30.43" x2="3.34" y2="27.64"/>
    <line x1="3.34" y1="8.36" x2="11.06" y2="8.36"/>
    <line x1="11.06" y1="8.36" x2="11.06" y2="27.64"/>
    <line x1="11.06" y1="27.64" x2="3.34" y2="27.64"/>
    <line x1="3.34" y1="27.64" x2="3.34" y2="8.36"/>
    <line x1="3.34" y1="27.64" x2="4.46" y2="24.86"/>
    <line x1="4.46" y1="11.14" x2="9.94" y2="11.14"/>
    <line x1="9.94" y1="11.14" x2="9.94" y2="24.86"/>
    <line x1="9.94" y1="24.86" x2="4.46" y2="24.86"/>
    <line x1="4.46" y1="24.86" x2="4.46" y2="11.14"/>
    <line x1="4.46" y1="24.86" x2="5.57" y2="22.07"/>
    <line x1="5.57" y1="13.93" x2="8.83" y2="13.93"/>
    <line x1="8.83" y1="13.93" x2="8.83" y2="22.07"/>
    <line x1="8.83" y1="22.07" x2="5.57" y2="22.07"/>
    <line x1="5.57" y1="22.07" x2="5.57" y2="13.93"/>
  </g>
  <g stroke="#F4A261" stroke-width="1" fill="none" stroke-linecap="round">
    <line x1="26.48" y1="0.00" x2="26.49" y2="0.42"/>
    <line x1="25.13" y1="0.00" x2="25.22" y2="3.14"/>
    <line x1="27.94" y1="4.41" x2="28.80" y2="3.72"/>
    <line x1="15.80" y1="2.05" x2="18.38" y2="0.00"/>
    <line x1="23.79" y1="0.00" x2="23.95" y2="5.86"/>
    <line x1="26.67" y1="7.12" x2="28.80" y2="5.44"/>
    <line x1="14.53" y1="4.77" x2="19.78" y2="0.60"/>
    <line x1="22.50" y1="1.87" x2="22.68" y2="8.58"/>
    <line x1="25.40" y1="9.84" x2="28.80" y2="7.15"/>
    <line x1="14.40" y1="6.59" x2="18.51" y2="3.32"/>
    <line x1="21.23" y1="4.59" x2="21.42" y2="11.29"/>
    <line x1="24.14" y1="12.56" x2="28.80" y2="8.86"/>
    <line x1="14.40" y1="8.30" x2="17.25" y2="6.04"/>
    <line x1="19.97" y1="7.31" x2="20.15" y2="14.01"/>
    <line x1="22.87" y1="15.28" x2="28.12" y2="11.11"/>
    <line x1="14.40" y1="10.01" x2="15.98" y2="8.76"/>
    <line x1="18.70" y1="10.03" x2="18.88" y2="16.73"/>
    <line x1="21.60" y1="18.00" x2="26.85" y2="13.83"/>
    <line x1="14.40" y1="11.72" x2="14.71" y2="11.48"/>
    <line x1="17.43" y1="12.75" x2="17.61" y2="19.45"/>
    <line x1="20.33" y1="20.72" x2="25.59" y2="16.55"/>
    <line x1="28.31" y1="17.82" x2="28.49" y2="24.52"/>
    <line x1="16.16" y1="15.46" x2="16.35" y2="22.17"/>
    <line x1="19.06" y1="23.44" x2="24.32" y2="19.27"/>
    <line x1="27.04" y1="20.54" x2="27.22" y2="27.24"/>
    <line x1="14.89" y1="18.18" x2="15.08" y2="24.89"/>
    <line x1="17.80" y1="26.16" x2="23.05" y2="21.99"/>
    <line x1="25.77" y1="23.25" x2="25.95" y2="29.96"/>
    <line x1="28.67" y1="31.23" x2="28.80" y2="31.13"/>
    <line x1="16.53" y1="28.88" x2="21.78" y2="24.71"/>
    <line x1="24.50" y1="25.97" x2="24.69" y2="32.68"/>
    <line x1="27.40" y1="33.95" x2="28.80" y2="32.84"/>
    <line x1="15.26" y1="31.59" x2="20.52" y2="27.42"/>
    <line x1="23.23" y1="28.69" x2="23.42" y2="35.40"/>
    <line x1="26.98" y1="36.00" x2="28.80" y2="34.55"/>
    <line x1="14.40" y1="33.99" x2="19.25" y2="30.14"/>
    <line x1="21.97" y1="31.41" x2="22.09" y2="36.00"/>
    <line x1="14.40" y1="35.70" x2="17.98" y2="32.86"/>
    <line x1="20.70" y1="34.13" x2="20.75" y2="36.00"/>
    <line x1="16.18" y1="36.00" x2="16.71" y2="35.58"/>
  </g>
  <g stroke="#FFD166" stroke-width="1" fill="none" stroke-linecap="round">
    <line x1="43.20" y1="32.73" x2="41.94" y2="36.00"/>
    <line x1="43.20" y1="24.36" x2="38.73" y2="36.00"/>
    <line x1="43.20" y1="15.99" x2="35.52" y2="36.00"/>
    <line x1="43.20" y1="7.61" x2="32.30" y2="36.00"/>
    <line x1="42.91" y1="0.00" x2="29.09" y2="36.00"/>
    <line x1="39.70" y1="0.00" x2="28.80" y2="28.39"/>
    <line x1="36.48" y1="0.00" x2="28.80" y2="20.01"/>
    <line x1="33.27" y1="0.00" x2="28.80" y2="11.64"/>
    <line x1="30.06" y1="0.00" x2="28.80" y2="3.27"/>
  </g>
  <g stroke="#FEE440" stroke-width="1" fill="none" stroke-linecap="round">
    <line x1="56.67" y1="36.00" x2="56.18" y2="35.31"/>
    <line x1="53.22" y1="35.78" x2="53.15" y2="36.00"/>
    <line x1="57.60" y1="34.99" x2="55.71" y2="32.35"/>
    <line x1="52.75" y1="32.82" x2="51.74" y2="36.00"/>
    <line x1="45.13" y1="36.00" x2="43.86" y2="34.22"/>
    <line x1="57.60" y1="32.68" x2="55.24" y2="29.38"/>
    <line x1="52.28" y1="29.85" x2="50.33" y2="36.00"/>
    <line x1="46.78" y1="36.00" x2="43.39" y2="31.26"/>
    <line x1="57.60" y1="30.38" x2="54.77" y2="26.42"/>
    <line x1="51.81" y1="26.89" x2="49.78" y2="33.28"/>
    <line x1="46.82" y1="33.75" x2="43.20" y2="28.69"/>
    <line x1="57.60" y1="28.07" x2="54.30" y2="23.46"/>
    <line x1="51.34" y1="23.93" x2="49.31" y2="30.32"/>
    <line x1="46.35" y1="30.79" x2="43.20" y2="26.38"/>
    <line x1="57.60" y1="25.76" x2="53.83" y2="20.49"/>
    <line x1="50.87" y1="20.96" x2="48.84" y2="27.36"/>
    <line x1="45.88" y1="27.83" x2="43.20" y2="24.08"/>
    <line x1="57.26" y1="22.99" x2="53.36" y2="17.53"/>
    <line x1="50.40" y1="18.00" x2="48.38" y2="24.40"/>
    <line x1="45.41" y1="24.86" x2="43.20" y2="21.77"/>
    <line x1="56.80" y1="20.02" x2="52.89" y2="14.57"/>
    <line x1="49.93" y1="15.04" x2="47.91" y2="21.43"/>
    <line x1="44.94" y1="21.90" x2="43.20" y2="19.46"/>
    <line x1="56.33" y1="17.06" x2="52.42" y2="11.60"/>
    <line x1="49.46" y1="12.07" x2="47.44" y2="18.47"/>
    <line x1="44.47" y1="18.94" x2="43.20" y2="17.16"/>
    <line x1="55.86" y1="14.10" x2="51.96" y2="8.64"/>
    <line x1="48.99" y1="9.11" x2="46.97" y2="15.51"/>
    <line x1="44.00" y1="15.98" x2="43.20" y2="14.85"/>
    <line x1="55.39" y1="11.14" x2="51.49" y2="5.68"/>
    <line x1="48.52" y1="6.15" x2="46.50" y2="12.54"/>
    <line x1="43.54" y1="13.01" x2="43.20" y2="12.54"/>
    <line x1="54.92" y1="8.17" x2="51.02" y2="2.72"/>
    <line x1="48.05" y1="3.18" x2="46.03" y2="9.58"/>
    <line x1="57.60" y1="4.15" x2="57.41" y2="4.74"/>
    <line x1="54.45" y1="5.21" x2="50.72" y2="0.00"/>
    <line x1="47.58" y1="0.22" x2="45.56" y2="6.62"/>
    <line x1="57.51" y1="0.00" x2="56.94" y2="1.78"/>
    <line x1="53.98" y1="2.25" x2="52.37" y2="0.00"/>
    <line x1="46.25" y1="-0.00" x2="45.09" y2="3.65"/>
    <line x1="44.84" y1="-0.00" x2="44.62" y2="0.69"/>
  </g>
  <g stroke="#8338EC" stroke-width="1" fill="none" stroke-linecap="round">
    <line x1="72.00" y1="29.91" x2="66.32" y2="36.00"/>
    <line x1="72.00" y1="21.11" x2="58.11" y2="36.00"/>
    <line x1="72.00" y1="12.31" x2="57.60" y2="27.75"/>
    <line x1="72.00" y1="3.51" x2="57.60" y2="18.96"/>
    <line x1="67.07" y1="0.00" x2="57.60" y2="10.16"/>
    <line x1="58.87" y1="0.00" x2="57.60" y2="1.36"/>
    <line x1="72.00" y1="6.41" x2="65.13" y2="-0.00"/>
    <line x1="72.00" y1="14.61" x2="57.60" y2="1.19"/>
    <line x1="72.00" y1="22.82" x2="57.60" y2="9.39"/>
    <line x1="72.00" y1="31.02" x2="57.60" y2="17.59"/>
    <line x1="68.54" y1="36.00" x2="57.60" y2="25.80"/>
    <line x1="59.74" y1="36.00" x2="57.60" y2="34.00"/>
  </g>
  <g stroke="#4361EE" stroke-width="1" fill="none" stroke-linecap="round">
    <line x1="83.15" y1="-0.00" x2="83.16" y2="0.19"/>
    <line x1="85.94" y1="1.31" x2="86.40" y2="0.91"/>
    <line x1="81.80" y1="-0.00" x2="82.04" y2="2.97"/>
    <line x1="84.82" y1="4.09" x2="86.40" y2="2.70"/>
    <line x1="72.57" y1="2.38" x2="75.26" y2="-0.00"/>
    <line x1="80.45" y1="-0.00" x2="80.91" y2="5.75"/>
    <line x1="83.70" y1="6.87" x2="86.40" y2="4.49"/>
    <line x1="72.00" y1="4.67" x2="76.47" y2="0.72"/>
    <line x1="79.26" y1="1.84" x2="79.79" y2="8.53"/>
    <line x1="82.57" y1="9.66" x2="86.40" y2="6.28"/>
    <line x1="72.00" y1="6.46" x2="75.35" y2="3.50"/>
    <line x1="78.13" y1="4.63" x2="78.67" y2="11.31"/>
    <line x1="81.45" y1="12.44" x2="86.40" y2="8.07"/>
    <line x1="72.00" y1="8.25" x2="74.23" y2="6.28"/>
    <line x1="77.01" y1="7.41" x2="77.54" y2="14.09"/>
    <line x1="80.32" y1="15.22" x2="85.35" y2="10.78"/>
    <line x1="72.00" y1="10.04" x2="73.10" y2="9.07"/>
    <line x1="75.88" y1="10.19" x2="76.42" y2="16.88"/>
    <line x1="79.20" y1="18.00" x2="84.23" y2="13.56"/>
    <line x1="74.76" y1="12.97" x2="75.29" y2="19.66"/>
    <line x1="78.08" y1="20.78" x2="83.11" y2="16.34"/>
    <line x1="85.89" y1="17.47" x2="86.40" y2="23.89"/>
    <line x1="73.64" y1="15.75" x2="74.17" y2="22.44"/>
    <line x1="76.95" y1="23.56" x2="81.98" y2="19.12"/>
    <line x1="84.76" y1="20.25" x2="85.30" y2="26.93"/>
    <line x1="72.51" y1="18.53" x2="73.05" y2="25.22"/>
    <line x1="75.83" y1="26.34" x2="80.86" y2="21.91"/>
    <line x1="83.64" y1="23.03" x2="84.17" y2="29.72"/>
    <line x1="74.70" y1="29.13" x2="79.73" y2="24.69"/>
    <line x1="82.52" y1="25.81" x2="83.05" y2="32.50"/>
    <line x1="85.83" y1="33.62" x2="86.40" y2="33.12"/>
    <line x1="73.58" y1="31.91" x2="78.61" y2="27.47"/>
    <line x1="81.39" y1="28.59" x2="81.93" y2="35.28"/>
    <line x1="85.16" y1="36.00" x2="86.40" y2="34.91"/>
    <line x1="72.46" y1="34.69" x2="77.49" y2="30.25"/>
    <line x1="80.27" y1="31.37" x2="80.64" y2="36.00"/>
    <line x1="73.00" y1="36.00" x2="76.36" y2="33.03"/>
    <line x1="79.14" y1="34.16" x2="79.29" y2="36.00"/>
    <line x1="75.03" y1="36.00" x2="75.24" y2="35.81"/>
  </g>
  <g stroke="#00F5D4" stroke-width="1" fill="none" stroke-linecap="round">
    <line x1="86.40" y1="0.00" x2="100.80" y2="0.00"/>
    <line x1="100.80" y1="0.00" x2="100.80" y2="36.00"/>
    <line x1="100.80" y1="36.00" x2="86.40" y2="36.00"/>
    <line x1="86.40" y1="36.00" x2="86.40" y2="0.00"/>
    <line x1="86.40" y1="36.00" x2="87.51" y2="33.21"/>
    <line x1="87.51" y1="2.79" x2="99.69" y2="2.79"/>
    <line x1="99.69" y1="2.79" x2="99.69" y2="33.21"/>
    <line x1="99.69" y1="33.21" x2="87.51" y2="33.21"/>
    <line x1="87.51" y1="33.21" x2="87.51" y2="2.79"/>
    <line x1="87.51" y1="33.21" x2="88.63" y2="30.43"/>
    <line x1="88.63" y1="5.57" x2="98.57" y2="5.57"/>
    <line x1="98.57" y1="5.57" x2="98.57" y2="30.43"/>
    <line x1="98.57" y1="30.43" x2="88.63" y2="30.43"/>
    <line x1="88.63" y1="30.43" x2="88.63" y2="5.57"/>
    <line x1="88.63" y1="30.43" x2="89.74" y2="27.64"/>
    <line x1="89.74" y1="8.36" x2="97.46" y2="8.36"/>
    <line x1="97.46" y1="8.36" x2="97.46" y2="27.64"/>
    <line x1="97.46" y1="27.64" x2="89.74" y2="27.64"/>
    <line x1="89.74" y1="27.64" x2="89.74" y2="8.36"/>
    <line x1="89.74" y1="27.64" x2="90.86" y2="24.86"/>
    <line x1="90.86" y1="11.14" x2="96.34" y2="11.14"/>
    <line x1="96.34" y1="11.14" x2="96.34" y2="24.86"/>
    <line x1="96.34" y1="24.86" x2="90.86" y2="24.86"/>
    <line x1="90.86" y1="24.86" x2="90.86" y2="11.14"/>
    <line x1="90.86" y1="24.86" x2="91.97" y2="22.07"/>
    <line x1="91.97" y1="13.93" x2="95.23" y2="13.93"/>
    <line x1="95.23" y1="13.93" x2="95.23" y2="22.07"/>
    <line x1="95.23" y1="22.07" x2="91.97" y2="22.07"/>
    <line x1="91.97" y1="22.07" x2="91.97" y2="13.93"/>
  </g>
  <g stroke="#00B4D8" stroke-width="1" fill="none" stroke-linecap="round">
    <line x1="108.47" y1="0.00" x2="115.20" y2="0.35"/>
    <line x1="100.80" y1="2.60" x2="115.20" y2="3.36"/>
    <line x1="100.80" y1="5.61" x2="115.20" y2="6.36"/>
    <line x1="100.80" y1="8.61" x2="115.20" y2="9.36"/>
    <line x1="100.80" y1="11.61" x2="115.20" y2="12.37"/>
    <line x1="100.80" y1="14.62" x2="115.20" y2="15.37"/>
    <line x1="100.80" y1="17.62" x2="115.20" y2="18.38"/>
    <line x1="100.80" y1="20.63" x2="115.20" y2="21.38"/>
    <line x1="100.80" y1="23.63" x2="115.20" y2="24.39"/>
    <line x1="100.80" y1="26.64" x2="115.20" y2="27.39"/>
    <line x1="100.80" y1="29.64" x2="115.20" y2="30.39"/>
    <line x1="100.80" y1="32.64" x2="115.20" y2="33.40"/>
    <line x1="100.80" y1="35.65" x2="107.53" y2="36.00"/>
  </g>
  <g stroke="#2A9D8F" stroke-width="1" fill="none" stroke-linecap="round">
    <line x1="128.60" y1="0.00" x2="129.60" y2="1.55"/>
    <line x1="125.02" y1="-0.00" x2="129.60" y2="7.05"/>
    <line x1="121.44" y1="0.00" x2="129.60" y2="12.56"/>
    <line x1="117.86" y1="0.00" x2="129.60" y2="18.07"/>
    <line x1="115.20" y1="1.40" x2="129.60" y2="23.58"/>
    <line x1="115.20" y1="6.91" x2="129.60" y2="29.09"/>
    <line x1="115.20" y1="12.42" x2="129.60" y2="34.60"/>
    <line x1="115.20" y1="17.93" x2="126.94" y2="36.00"/>
    <line x1="115.20" y1="23.44" x2="123.36" y2="36.00"/>
    <line x1="115.20" y1="28.95" x2="119.78" y2="36.00"/>
    <line x1="115.20" y1="34.45" x2="116.20" y2="36.00"/>
  </g>
  <g stroke="#06D6A0" stroke-width="1" fill="none" stroke-linecap="round">
    <line x1="143.16" y1="33.73" x2="144.00" y2="34.72"/>
    <line x1="144.00" y1="29.65" x2="141.57" y2="29.80"/>
    <line x1="140.40" y1="32.56" x2="143.32" y2="36.00"/>
    <line x1="144.00" y1="17.55" x2="143.50" y2="17.58"/>
    <line x1="142.32" y1="20.34" x2="144.00" y2="22.31"/>
    <line x1="144.00" y1="28.31" x2="138.81" y2="28.63"/>
    <line x1="137.63" y1="31.39" x2="141.56" y2="36.00"/>
    <line x1="144.00" y1="16.21" x2="140.73" y2="16.41"/>
    <line x1="139.56" y1="19.17" x2="143.91" y2="24.28"/>
    <line x1="142.74" y1="27.04" x2="136.04" y2="27.46"/>
    <line x1="134.87" y1="30.22" x2="139.22" y2="35.32"/>
    <line x1="144.00" y1="4.11" x2="142.66" y2="4.19"/>
    <line x1="141.49" y1="6.95" x2="144.00" y2="9.90"/>
    <line x1="144.00" y1="14.86" x2="137.97" y2="15.24"/>
    <line x1="136.80" y1="18.00" x2="141.15" y2="23.11"/>
    <line x1="139.98" y1="25.87" x2="133.28" y2="26.28"/>
    <line x1="132.11" y1="29.05" x2="136.46" y2="34.15"/>
    <line x1="144.00" y1="2.76" x2="139.90" y2="3.02"/>
    <line x1="138.73" y1="5.78" x2="143.08" y2="10.89"/>
    <line x1="141.91" y1="13.65" x2="135.21" y2="14.07"/>
    <line x1="134.04" y1="16.83" x2="138.39" y2="21.93"/>
    <line x1="137.22" y1="24.70" x2="130.52" y2="25.11"/>
    <line x1="129.60" y1="28.17" x2="133.70" y2="32.98"/>
    <line x1="132.53" y1="35.74" x2="129.60" y2="35.92"/>
    <line x1="143.83" y1="1.43" x2="137.14" y2="1.85"/>
    <line x1="135.97" y1="4.61" x2="140.32" y2="9.72"/>
    <line x1="139.14" y1="12.48" x2="132.45" y2="12.89"/>
    <line x1="131.28" y1="15.66" x2="135.63" y2="20.76"/>
    <line x1="134.46" y1="23.52" x2="129.60" y2="23.83"/>
    <line x1="129.60" y1="30.24" x2="130.94" y2="31.81"/>
    <line x1="129.77" y1="34.57" x2="129.60" y2="34.58"/>
    <line x1="141.07" y1="0.26" x2="134.38" y2="0.68"/>
    <line x1="133.20" y1="3.44" x2="137.56" y2="8.54"/>
    <line x1="136.38" y1="11.30" x2="129.69" y2="11.72"/>
    <line x1="129.60" y1="15.76" x2="132.87" y2="19.59"/>
    <line x1="131.69" y1="22.35" x2="129.60" y2="22.48"/>
    <line x1="130.44" y1="2.27" x2="134.79" y2="7.37"/>
    <line x1="133.62" y1="10.13" x2="129.60" y2="10.38"/>
    <line x1="129.60" y1="17.82" x2="130.10" y2="18.42"/>
    <line x1="129.60" y1="3.34" x2="132.03" y2="6.20"/>
    <line x1="130.86" y1="8.96" x2="129.60" y2="9.04"/>
  </g>
  <g stroke="#FF595E" stroke-width="1" fill="none" stroke-linecap="round">
    <line x1="145.14" y1="0.00" x2="144.26" y2="10.05"/>
    <line x1="158.40" y1="18.63" x2="144.00" y2="17.37"/>
    <line x1="158.14" y1="25.95" x2="157.26" y2="36.00"/>
  </g>
  <g stroke="#1982C4" stroke-width="1" fill="none" stroke-linecap="round">
    <line x1="172.80" y1="30.30" x2="171.59" y2="36.00"/>
    <line x1="172.80" y1="21.64" x2="169.75" y2="36.00"/>
    <line x1="171.27" y1="0.00" x2="163.61" y2="36.00"/>
    <line x1="169.43" y1="0.00" x2="161.77" y2="36.00"/>
    <line x1="167.59" y1="0.00" x2="159.93" y2="36.00"/>
    <line x1="161.45" y1="0.00" x2="158.40" y2="14.36"/>
    <line x1="159.61" y1="0.00" x2="158.40" y2="5.70"/>
  </g>
  <g stroke="#4CC9F0" stroke-width="1" fill="none" stroke-linecap="round">
    <line x1="187.01" y1="0.00" x2="187.20" y2="0.05"/>
    <line x1="180.05" y1="0.00" x2="187.20" y2="1.92"/>
    <line x1="172.80" y1="4.27" x2="187.20" y2="8.13"/>
    <line x1="172.80" y1="6.13" x2="187.20" y2="9.99"/>
    <line x1="172.80" y1="8.00" x2="187.20" y2="11.85"/>
    <line x1="172.80" y1="14.21" x2="187.20" y2="18.07"/>
    <line x1="172.80" y1="16.07" x2="187.20" y2="19.93"/>
    <line x1="172.80" y1="17.93" x2="187.20" y2="21.79"/>
    <line x1="172.80" y1="24.15" x2="187.20" y2="28.00"/>
    <line x1="172.80" y1="26.01" x2="187.20" y2="29.87"/>
    <line x1="172.80" y1="27.87" x2="187.20" y2="31.73"/>
    <line x1="172.80" y1="34.08" x2="179.95" y2="36.00"/>
    <line x1="172.80" y1="35.95" x2="172.99" y2="36.00"/>
  </g>
  <g stroke="#264653" stroke-width="1" fill="none" stroke-linecap="round">
    <line x1="198.60" y1="0.00" x2="201.60" y2="10.46"/>
    <line x1="195.48" y1="0.00" x2="201.60" y2="21.34"/>
    <line x1="192.36" y1="0.00" x2="201.60" y2="32.23"/>
    <line x1="189.24" y1="0.00" x2="199.56" y2="36.00"/>
    <line x1="187.20" y1="3.77" x2="196.44" y2="36.00"/>
    <line x1="187.20" y1="14.66" x2="193.32" y2="36.00"/>
    <line x1="187.20" y1="25.54" x2="190.20" y2="36.00"/>
  </g>
  <g stroke="#00B4D8" stroke-width="1" fill="none" stroke-linecap="round">
    <line x1="201.60" y1="0.00" x2="216.00" y2="0.00"/>
    <line x1="201.60" y1="3.00" x2="216.00" y2="3.00"/>
    <line x1="201.60" y1="6.00" x2="216.00" y2="6.00"/>
    <line x1="201.60" y1="9.00" x2="216.00" y2="9.00"/>
    <line x1="201.60" y1="12.00" x2="216.00" y2="12.00"/>
    <line x1="201.60" y1="15.00" x2="216.00" y2="15.00"/>
    <line x1="201.60" y1="18.00" x2="216.00" y2="18.00"/>
    <line x1="201.60" y1="21.00" x2="216.00" y2="21.00"/>
    <line x1="201.60" y1="24.00" x2="216.00" y2="24.00"/>
    <line x1="201.60" y1="27.00" x2="216.00" y2="27.00"/>
    <line x1="201.60" y1="30.00" x2="216.00" y2="30.00"/>
    <line x1="201.60" y1="33.00" x2="216.00" y2="33.00"/>
    <line x1="214.80" y1="-0.00" x2="214.80" y2="36.00"/>
    <line x1="211.80" y1="-0.00" x2="211.80" y2="36.00"/>
    <line x1="208.80" y1="-0.00" x2="208.80" y2="36.00"/>
    <line x1="205.80" y1="-0.00" x2="205.80" y2="36.00"/>
    <line x1="202.80" y1="-0.00" x2="202.80" y2="36.00"/>
  </g>
  <g stroke="#7209B7" stroke-width="1" fill="none" stroke-linecap="round">
    <line x1="216.00" y1="0.00" x2="230.40" y2="0.00"/>
    <line x1="230.40" y1="0.00" x2="230.40" y2="36.00"/>
    <line x1="230.40" y1="36.00" x2="216.00" y2="36.00"/>
    <line x1="216.00" y1="36.00" x2="216.00" y2="0.00"/>
    <line x1="216.00" y1="36.00" x2="217.11" y2="33.21"/>
    <line x1="217.11" y1="2.79" x2="229.29" y2="2.79"/>
    <line x1="229.29" y1="2.79" x2="229.29" y2="33.21"/>
    <line x1="229.29" y1="33.21" x2="217.11" y2="33.21"/>
    <line x1="217.11" y1="33.21" x2="217.11" y2="2.79"/>
    <line x1="217.11" y1="33.21" x2="218.23" y2="30.43"/>
    <line x1="218.23" y1="5.57" x2="228.17" y2="5.57"/>
    <line x1="228.17" y1="5.57" x2="228.17" y2="30.43"/>
    <line x1="228.17" y1="30.43" x2="218.23" y2="30.43"/>
    <line x1="218.23" y1="30.43" x2="218.23" y2="5.57"/>
    <line x1="218.23" y1="30.43" x2="219.34" y2="27.64"/>
    <line x1="219.34" y1="8.36" x2="227.06" y2="8.36"/>
    <line x1="227.06" y1="8.36" x2="227.06" y2="27.64"/>
    <line x1="227.06" y1="27.64" x2="219.34" y2="27.64"/>
    <line x1="219.34" y1="27.64" x2="219.34" y2="8.36"/>
    <line x1="219.34" y1="27.64" x2="220.46" y2="24.86"/>
    <line x1="220.46" y1="11.14" x2="225.94" y2="11.14"/>
    <line x1="225.94" y1="11.14" x2="225.94" y2="24.86"/>
    <line x1="225.94" y1="24.86" x2="220.46" y2="24.86"/>
    <line x1="220.46" y1="24.86" x2="220.46" y2="11.14"/>
    <line x1="220.46" y1="24.86" x2="221.57" y2="22.07"/>
    <line x1="221.57" y1="13.93" x2="224.83" y2="13.93"/>
    <line x1="224.83" y1="13.93" x2="224.83" y2="22.07"/>
    <line x1="224.83" y1="22.07" x2="221.57" y2="22.07"/>
    <line x1="221.57" y1="22.07" x2="221.57" y2="13.93"/>
  </g>
  <g stroke="#3A86FF" stroke-width="1" fill="none" stroke-linecap="round">
    <line x1="244.80" y1="34.56" x2="242.09" y2="36.00"/>
    <line x1="244.80" y1="31.16" x2="235.70" y2="36.00"/>
    <line x1="244.80" y1="27.76" x2="230.40" y2="35.42"/>
    <line x1="244.80" y1="24.36" x2="230.40" y2="32.02"/>
    <line x1="244.80" y1="20.97" x2="230.40" y2="28.62"/>
    <line x1="244.80" y1="17.57" x2="230.40" y2="25.23"/>
    <line x1="244.80" y1="14.17" x2="230.40" y2="21.83"/>
    <line x1="244.80" y1="10.77" x2="230.40" y2="18.43"/>
    <line x1="244.80" y1="7.38" x2="230.40" y2="15.03"/>
    <line x1="244.80" y1="3.98" x2="230.40" y2="11.64"/>
    <line x1="244.80" y1="0.58" x2="230.40" y2="8.24"/>
    <line x1="239.50" y1="0.00" x2="230.40" y2="4.84"/>
    <line x1="233.11" y1="0.00" x2="230.40" y2="1.44"/>
  </g>
  <g stroke="#FF595E" stroke-width="1" fill="none" stroke-linecap="round">
    <line x1="257.26" y1="35.21" x2="257.13" y2="36.00"/>
    <line x1="256.39" y1="32.34" x2="255.77" y2="36.00"/>
    <line x1="248.75" y1="36.00" x2="247.78" y2="34.98"/>
    <line x1="244.91" y1="35.85" x2="244.89" y2="36.00"/>
    <line x1="259.20" y1="29.46" x2="258.38" y2="28.60"/>
    <line x1="255.51" y1="29.48" x2="254.41" y2="36.00"/>
    <line x1="250.60" y1="36.00" x2="246.90" y2="32.11"/>
    <line x1="259.20" y1="27.52" x2="257.50" y2="25.73"/>
    <line x1="254.63" y1="26.61" x2="253.52" y2="33.22"/>
    <line x1="250.65" y1="34.10" x2="246.02" y2="29.24"/>
    <line x1="259.20" y1="25.57" x2="256.62" y2="22.86"/>
    <line x1="253.75" y1="23.74" x2="252.64" y2="30.35"/>
    <line x1="249.77" y1="31.23" x2="245.15" y2="26.37"/>
    <line x1="259.20" y1="23.62" x2="255.75" y2="19.99"/>
    <line x1="252.88" y1="20.87" x2="251.76" y2="27.48"/>
    <line x1="248.89" y1="28.36" x2="244.80" y2="24.06"/>
    <line x1="259.20" y1="21.68" x2="254.87" y2="17.12"/>
    <line x1="252.00" y1="18.00" x2="250.89" y2="24.61"/>
    <line x1="248.02" y1="25.49" x2="244.80" y2="22.11"/>
    <line x1="258.61" y1="19.11" x2="253.99" y2="14.25"/>
    <line x1="251.12" y1="15.13" x2="250.01" y2="21.75"/>
    <line x1="247.14" y1="22.62" x2="244.80" y2="20.16"/>
    <line x1="257.74" y1="16.25" x2="253.11" y2="11.39"/>
    <line x1="250.25" y1="12.26" x2="249.13" y2="18.88"/>
    <line x1="246.26" y1="19.75" x2="244.80" y2="18.22"/>
    <line x1="256.86" y1="13.38" x2="252.24" y2="8.52"/>
    <line x1="249.37" y1="9.39" x2="248.25" y2="16.01"/>
    <line x1="245.39" y1="16.89" x2="244.80" y2="16.27"/>
    <line x1="259.20" y1="7.57" x2="258.85" y2="9.63"/>
    <line x1="255.98" y1="10.51" x2="251.36" y2="5.65"/>
    <line x1="248.49" y1="6.52" x2="247.38" y2="13.14"/>
    <line x1="259.09" y1="0.15" x2="257.98" y2="6.76"/>
    <line x1="255.11" y1="7.64" x2="250.48" y2="2.78"/>
    <line x1="247.61" y1="3.66" x2="246.50" y2="10.27"/>
    <line x1="257.75" y1="0.00" x2="257.10" y2="3.89"/>
    <line x1="254.23" y1="4.77" x2="249.69" y2="0.00"/>
    <line x1="246.74" y1="0.79" x2="245.62" y2="7.40"/>
    <line x1="256.39" y1="0.00" x2="256.22" y2="1.02"/>
    <line x1="253.35" y1="1.90" x2="251.54" y2="0.00"/>
    <line x1="245.51" y1="0.00" x2="244.80" y2="4.21"/>
  </g>
  <g stroke="#FF595E" stroke-width="1" fill="none" stroke-linecap="round">
    <line x1="269.65" y1="2.98" x2="273.60" y2="7.85"/>
    <line x1="259.20" y1="10.61" x2="260.02" y2="11.62"/>
    <line x1="273.39" y1="12.34" x2="259.41" y2="23.66"/>
    <line x1="272.78" y1="24.38" x2="273.60" y2="25.39"/>
    <line x1="259.20" y1="28.15" x2="263.15" y2="33.02"/>
  </g>
  <g stroke="#F4A261" stroke-width="1" fill="none" stroke-linecap="round">
    <line x1="288.00" y1="34.76" x2="283.01" y2="36.00"/>
    <line x1="288.00" y1="31.66" x2="273.60" y2="35.25"/>
    <line x1="288.00" y1="28.57" x2="273.60" y2="32.16"/>
    <line x1="288.00" y1="25.48" x2="273.60" y2="29.07"/>
    <line x1="288.00" y1="22.39" x2="273.60" y2="25.98"/>
    <line x1="288.00" y1="19.30" x2="273.60" y2="22.89"/>
    <line x1="288.00" y1="16.20" x2="273.60" y2="19.80"/>
    <line x1="288.00" y1="13.11" x2="273.60" y2="16.70"/>
    <line x1="288.00" y1="10.02" x2="273.60" y2="13.61"/>
    <line x1="288.00" y1="6.93" x2="273.60" y2="10.52"/>
    <line x1="288.00" y1="3.84" x2="273.60" y2="7.43"/>
    <line x1="288.00" y1="0.75" x2="273.60" y2="4.34"/>
    <line x1="278.59" y1="0.00" x2="273.60" y2="1.24"/>
  </g>
  <g stroke="#90BE6D" stroke-width="1" fill="none" stroke-linecap="round">
    <line x1="301.83" y1="0.00" x2="300.58" y2="36.00"/>
    <line x1="298.83" y1="0.00" x2="297.57" y2="36.00"/>
    <line x1="295.83" y1="0.00" x2="294.57" y2="36.00"/>
    <line x1="292.83" y1="0.00" x2="291.57" y2="36.00"/>
    <line x1="289.82" y1="0.00" x2="288.57" y2="36.00"/>
    <line x1="294.89" y1="36.00" x2="288.00" y2="35.76"/>
    <line x1="302.40" y1="33.26" x2="288.00" y2="32.76"/>
    <line x1="302.40" y1="30.26" x2="288.00" y2="29.76"/>
    <line x1="302.40" y1="27.26" x2="288.00" y2="26.75"/>
    <line x1="302.40" y1="24.26" x2="288.00" y2="23.75"/>
    <line x1="302.40" y1="21.25" x2="288.00" y2="20.75"/>
    <line x1="302.40" y1="18.25" x2="288.00" y2="17.75"/>
    <line x1="302.40" y1="15.25" x2="288.00" y2="14.75"/>
    <line x1="302.40" y1="12.25" x2="288.00" y2="11.74"/>
    <line x1="302.40" y1="9.25" x2="288.00" y2="8.74"/>
    <line x1="302.40" y1="6.24" x2="288.00" y2="5.74"/>
    <line x1="302.40" y1="3.24" x2="288.00" y2="2.74"/>
    <line x1="302.40" y1="0.24" x2="295.51" y2="0.00"/>
  </g>
  <g stroke="#8338EC" stroke-width="1" fill="none" stroke-linecap="round">
    <line x1="302.40" y1="0.00" x2="316.80" y2="0.00"/>
    <line x1="316.80" y1="0.00" x2="316.80" y2="36.00"/>
    <line x1="316.80" y1="36.00" x2="302.40" y2="36.00"/>
    <line x1="302.40" y1="36.00" x2="302.40" y2="0.00"/>
    <line x1="302.40" y1="36.00" x2="303.51" y2="33.21"/>
    <line x1="303.51" y1="2.79" x2="315.69" y2="2.79"/>
    <line x1="315.69" y1="2.79" x2="315.69" y2="33.21"/>
    <line x1="315.69" y1="33.21" x2="303.51" y2="33.21"/>
    <line x1="303.51" y1="33.21" x2="303.51" y2="2.79"/>
    <line x1="303.51" y1="33.21" x2="304.63" y2="30.43"/>
    <line x1="304.63" y1="5.57" x2="314.57" y2="5.57"/>
    <line x1="314.57" y1="5.57" x2="314.57" y2="30.43"/>
    <line x1="314.57" y1="30.43" x2="304.63" y2="30.43"/>
    <line x1="304.63" y1="30.43" x2="304.63" y2="5.57"/>
    <line x1="304.63" y1="30.43" x2="305.74" y2="27.64"/>
    <line x1="305.74" y1="8.36" x2="313.46" y2="8.36"/>
    <line x1="313.46" y1="8.36" x2="313.46" y2="27.64"/>
    <line x1="313.46" y1="27.64" x2="305.74" y2="27.64"/>
    <line x1="305.74" y1="27.64" x2="305.74" y2="8.36"/>
    <line x1="305.74" y1="27.64" x2="306.86" y2="24.86"/>
    <line x1="306.86" y1="11.14" x2="312.34" y2="11.14"/>
    <line x1="312.34" y1="11.14" x2="312.34" y2="24.86"/>
    <line x1="312.34" y1="24.86" x2="306.86" y2="24.86"/>
    <line x1="306.86" y1="24.86" x2="306.86" y2="11.14"/>
    <line x1="306.86" y1="24.86" x2="307.97" y2="22.07"/>
    <line x1="307.97" y1="13.93" x2="311.23" y2="13.93"/>
    <line x1="311.23" y1="13.93" x2="311.23" y2="22.07"/>
    <line x1="311.23" y1="22.07" x2="307.97" y2="22.07"/>
    <line x1="307.97" y1="22.07" x2="307.97" y2="13.93"/>
  </g>
  <g stroke="#FB5607" stroke-width="1" fill="none" stroke-linecap="round">
    <line x1="331.20" y1="30.95" x2="328.85" y2="36.00"/>
    <line x1="331.20" y1="23.86" x2="325.54" y2="36.00"/>
    <line x1="331.20" y1="16.76" x2="322.23" y2="36.00"/>
    <line x1="331.20" y1="9.66" x2="318.92" y2="36.00"/>
    <line x1="331.20" y1="2.56" x2="316.80" y2="33.44"/>
    <line x1="329.08" y1="0.00" x2="316.80" y2="26.34"/>
    <line x1="325.77" y1="0.00" x2="316.80" y2="19.24"/>
    <line x1="322.46" y1="-0.00" x2="316.80" y2="12.14"/>
    <line x1="319.15" y1="0.00" x2="316.80" y2="5.05"/>
  </g>
  <g stroke="#00B4D8" stroke-width="1" fill="none" stroke-linecap="round">
    <line x1="331.20" y1="4.35" x2="345.60" y2="4.86"/>
    <line x1="331.20" y1="10.36" x2="345.60" y2="10.86"/>
    <line x1="331.20" y1="16.36" x2="345.60" y2="16.86"/>
    <line x1="331.20" y1="22.36" x2="345.60" y2="22.87"/>
    <line x1="331.20" y1="28.37" x2="345.60" y2="28.87"/>
    <line x1="331.20" y1="34.37" x2="345.60" y2="34.87"/>
    <line x1="331.64" y1="0.00" x2="331.20" y2="12.53"/>
    <line x1="337.64" y1="0.00" x2="336.38" y2="36.00"/>
    <line x1="343.64" y1="0.00" x2="342.39" y2="36.00"/>
  </g>
  <g stroke="#9B5DE5" stroke-width="1" fill="none" stroke-linecap="round">
    <line x1="358.48" y1="-0.00" x2="360.00" y2="1.07"/>
    <line x1="353.25" y1="-0.00" x2="360.00" y2="4.73"/>
    <line x1="348.01" y1="0.00" x2="360.00" y2="8.39"/>
    <line x1="345.60" y1="1.97" x2="360.00" y2="12.05"/>
    <line x1="345.60" y1="5.63" x2="360.00" y2="15.72"/>
    <line x1="345.60" y1="9.30" x2="360.00" y2="19.38"/>
    <line x1="345.60" y1="12.96" x2="360.00" y2="23.04"/>
    <line x1="345.60" y1="16.62" x2="360.00" y2="26.70"/>
    <line x1="345.60" y1="20.28" x2="360.00" y2="30.37"/>
    <line x1="345.60" y1="23.95" x2="360.00" y2="34.03"/>
    <line x1="345.60" y1="27.61" x2="357.59" y2="36.00"/>
    <line x1="345.60" y1="31.27" x2="352.35" y2="36.00"/>
    <line x1="345.60" y1="34.93" x2="347.12" y2="36.00"/>
  </g>
  <g stroke="#06D6A0" stroke-width="1" fill="none" stroke-linecap="round">
    <line x1="371.53" y1="0.00" x2="374.40" y2="16.30"/>
    <line x1="365.43" y1="-0.00" x2="371.78" y2="36.00"/>
    <line x1="360.00" y1="3.73" x2="365.69" y2="36.00"/>
    <line x1="374.40" y1="3.14" x2="360.00" y2="5.68"/>
    <line x1="374.40" y1="9.23" x2="360.00" y2="11.77"/>
    <line x1="374.40" y1="15.32" x2="360.00" y2="17.86"/>
    <line x1="374.40" y1="21.42" x2="360.00" y2="23.95"/>
    <line x1="374.40" y1="27.51" x2="360.00" y2="30.05"/>
    <line x1="374.40" y1="33.60" x2="360.79" y2="36.00"/>
  </g>
  <g stroke="#06D6A0" stroke-width="1" fill="none" stroke-linecap="round">
    <line x1="388.80" y1="29.91" x2="383.12" y2="36.00"/>
    <line x1="388.80" y1="21.11" x2="374.91" y2="36.00"/>
    <line x1="388.80" y1="12.31" x2="374.40" y2="27.75"/>
    <line x1="388.80" y1="3.51" x2="374.40" y2="18.96"/>
    <line x1="383.87" y1="0.00" x2="374.40" y2="10.16"/>
    <line x1="375.67" y1="0.00" x2="374.40" y2="1.36"/>
    <line x1="388.80" y1="6.41" x2="381.93" y2="0.00"/>
    <line x1="388.80" y1="14.61" x2="374.40" y2="1.19"/>
    <line x1="388.80" y1="22.82" x2="374.40" y2="9.39"/>
    <line x1="388.80" y1="31.02" x2="374.40" y2="17.59"/>
    <line x1="385.34" y1="36.00" x2="374.40" y2="25.80"/>
    <line x1="376.54" y1="36.00" x2="374.40" y2="34.00"/>
  </g>
  <g stroke="#FF595E" stroke-width="1" fill="none" stroke-linecap="round">
    <line x1="403.20" y1="35.53" x2="402.93" y2="36.00"/>
    <line x1="403.20" y1="29.53" x2="399.46" y2="36.00"/>
    <line x1="403.20" y1="23.53" x2="396.00" y2="36.00"/>
    <line x1="403.20" y1="17.53" x2="392.54" y2="36.00"/>
    <line x1="403.20" y1="11.53" x2="389.07" y2="36.00"/>
    <line x1="403.20" y1="5.53" x2="388.80" y2="30.47"/>
    <line x1="402.93" y1="0.00" x2="388.80" y2="24.47"/>
    <line x1="399.46" y1="0.00" x2="388.80" y2="18.47"/>
    <line x1="396.00" y1="0.00" x2="388.80" y2="12.47"/>
    <line x1="392.54" y1="0.00" x2="388.80" y2="6.47"/>
    <line x1="389.07" y1="0.00" x2="388.80" y2="0.47"/>
    <line x1="391.18" y1="36.00" x2="388.80" y2="34.63"/>
    <line x1="397.18" y1="36.00" x2="388.80" y2="31.16"/>
    <line x1="403.18" y1="36.00" x2="388.80" y2="27.70"/>
    <line x1="403.20" y1="32.55" x2="388.80" y2="24.24"/>
    <line x1="403.20" y1="29.09" x2="388.80" y2="20.77"/>
    <line x1="403.20" y1="25.62" x2="388.80" y2="17.31"/>
    <line x1="403.20" y1="22.16" x2="388.80" y2="13.84"/>
    <line x1="403.20" y1="18.69" x2="388.80" y2="10.38"/>
    <line x1="403.20" y1="15.23" x2="388.80" y2="6.91"/>
    <line x1="403.20" y1="11.76" x2="388.80" y2="3.45"/>
    <line x1="403.20" y1="8.30" x2="388.82" y2="0.00"/>
    <line x1="403.20" y1="4.84" x2="394.82" y2="0.00"/>
    <line x1="403.20" y1="1.37" x2="400.82" y2="0.00"/>
  </g>
  <g stroke="#264653" stroke-width="1" fill="none" stroke-linecap="round">
    <line x1="415.93" y1="1.95" x2="417.60" y2="1.97"/>
    <line x1="412.35" y1="0.00" x2="411.91" y2="0.57"/>
    <line x1="413.23" y1="3.27" x2="417.60" y2="3.31"/>
    <line x1="417.60" y1="10.80" x2="417.17" y2="11.36"/>
    <line x1="410.66" y1="0.00" x2="409.22" y2="1.89"/>
    <line x1="410.53" y1="4.58" x2="417.24" y2="4.65"/>
    <line x1="417.60" y1="8.59" x2="414.48" y2="12.67"/>
    <line x1="415.79" y1="15.37" x2="417.60" y2="15.39"/>
    <line x1="408.97" y1="0.00" x2="406.52" y2="3.20"/>
    <line x1="407.84" y1="5.90" x2="414.54" y2="5.97"/>
    <line x1="415.86" y1="8.66" x2="411.78" y2="13.99"/>
    <line x1="413.10" y1="16.68" x2="417.60" y2="16.73"/>
    <line x1="417.60" y1="24.04" x2="417.04" y2="24.77"/>
    <line x1="407.28" y1="0.00" x2="403.82" y2="4.52"/>
    <line x1="405.14" y1="7.21" x2="411.85" y2="7.28"/>
    <line x1="413.16" y1="9.98" x2="409.08" y2="15.30"/>
    <line x1="410.40" y1="18.00" x2="417.11" y2="18.07"/>
    <line x1="417.60" y1="21.84" x2="414.35" y2="26.09"/>
    <line x1="415.66" y1="28.79" x2="417.60" y2="28.80"/>
    <line x1="405.21" y1="0.51" x2="403.20" y2="3.13"/>
    <line x1="403.20" y1="8.54" x2="409.15" y2="8.60"/>
    <line x1="410.47" y1="11.29" x2="406.39" y2="16.62"/>
    <line x1="407.70" y1="19.32" x2="414.41" y2="19.38"/>
    <line x1="415.73" y1="22.08" x2="411.65" y2="27.40"/>
    <line x1="412.96" y1="30.10" x2="417.60" y2="30.15"/>
    <line x1="403.20" y1="9.88" x2="406.45" y2="9.91"/>
    <line x1="407.77" y1="12.61" x2="403.69" y2="17.93"/>
    <line x1="405.01" y1="20.63" x2="411.72" y2="20.70"/>
    <line x1="413.03" y1="23.39" x2="408.95" y2="28.72"/>
    <line x1="410.27" y1="31.42" x2="416.98" y2="31.48"/>
    <line x1="417.60" y1="35.08" x2="416.90" y2="36.00"/>
    <line x1="403.20" y1="11.22" x2="403.76" y2="11.23"/>
    <line x1="405.07" y1="13.92" x2="403.20" y2="16.37"/>
    <line x1="403.20" y1="21.95" x2="409.02" y2="22.01"/>
    <line x1="410.33" y1="24.71" x2="406.26" y2="30.03"/>
    <line x1="407.57" y1="32.73" x2="414.28" y2="32.80"/>
    <line x1="415.59" y1="35.49" x2="415.21" y2="36.00"/>
    <line x1="403.20" y1="23.30" x2="406.32" y2="23.33"/>
    <line x1="407.64" y1="26.02" x2="403.56" y2="31.35"/>
    <line x1="404.87" y1="34.05" x2="411.58" y2="34.11"/>
    <line x1="403.20" y1="24.64" x2="403.63" y2="24.64"/>
    <line x1="404.94" y1="27.34" x2="403.20" y2="29.61"/>
    <line x1="403.20" y1="35.37" x2="408.89" y2="35.43"/>
  </g>
  <g stroke="#E63946" stroke-width="1" fill="none" stroke-linecap="round">
    <line x1="430.45" y1="0.00" x2="432.00" y2="12.64"/>
    <line x1="424.40" y1="0.00" x2="428.82" y2="36.00"/>
    <line x1="422.59" y1="0.00" x2="427.01" y2="36.00"/>
    <line x1="420.78" y1="0.00" x2="425.20" y2="36.00"/>
    <line x1="417.60" y1="23.36" x2="419.15" y2="36.00"/>
  </g>
  <g stroke="#073B4C" stroke-width="1" fill="none" stroke-linecap="round">
    <line x1="441.68" y1="0.00" x2="446.40" y2="7.85"/>
    <line x1="439.58" y1="0.00" x2="446.40" y2="11.34"/>
    <line x1="437.48" y1="0.00" x2="446.40" y2="14.84"/>
    <line x1="432.00" y1="2.52" x2="446.40" y2="26.49"/>
    <line x1="432.00" y1="6.02" x2="446.40" y2="29.98"/>
    <line x1="432.00" y1="9.51" x2="446.40" y2="33.48"/>
    <line x1="432.00" y1="21.16" x2="440.92" y2="36.00"/>
    <line x1="432.00" y1="24.66" x2="438.82" y2="36.00"/>
    <line x1="432.00" y1="28.15" x2="436.72" y2="36.00"/>
  </g>
  <g stroke="#00F5D4" stroke-width="1" fill="none" stroke-linecap="round">
    <line x1="460.40" y1="0.00" x2="460.38" y2="0.03"/>
    <line x1="458.49" y1="0.00" x2="457.52" y2="0.95"/>
    <line x1="458.45" y1="3.81" x2="460.80" y2="4.16"/>
    <line x1="456.58" y1="-0.00" x2="454.67" y2="1.88"/>
    <line x1="455.60" y1="4.73" x2="460.80" y2="5.52"/>
    <line x1="460.80" y1="10.91" x2="458.38" y2="13.29"/>
    <line x1="459.31" y1="16.15" x2="460.80" y2="16.37"/>
    <line x1="454.67" y1="0.00" x2="451.82" y2="2.81"/>
    <line x1="452.74" y1="5.66" x2="459.38" y2="6.66"/>
    <line x1="460.31" y1="9.51" x2="455.53" y2="14.22"/>
    <line x1="456.45" y1="17.07" x2="460.80" y2="17.73"/>
    <line x1="460.80" y1="24.09" x2="459.23" y2="25.63"/>
    <line x1="460.16" y1="28.49" x2="460.80" y2="28.58"/>
    <line x1="452.76" y1="-0.00" x2="448.96" y2="3.73"/>
    <line x1="449.89" y1="6.59" x2="456.53" y2="7.59"/>
    <line x1="457.45" y1="10.44" x2="452.67" y2="15.15"/>
    <line x1="453.60" y1="18.00" x2="460.23" y2="19.00"/>
    <line x1="460.80" y1="22.21" x2="456.38" y2="26.56"/>
    <line x1="457.31" y1="29.41" x2="460.80" y2="29.94"/>
    <line x1="450.84" y1="0.00" x2="446.40" y2="4.38"/>
    <line x1="447.04" y1="7.51" x2="453.67" y2="8.51"/>
    <line x1="454.60" y1="11.37" x2="449.82" y2="16.07"/>
    <line x1="450.75" y1="18.93" x2="457.38" y2="19.93"/>
    <line x1="458.31" y1="22.78" x2="453.53" y2="27.49"/>
    <line x1="454.46" y1="30.34" x2="460.80" y2="31.30"/>
    <line x1="460.80" y1="35.39" x2="460.18" y2="36.00"/>
    <line x1="448.04" y1="0.88" x2="446.40" y2="2.49"/>
    <line x1="446.40" y1="8.77" x2="450.82" y2="9.44"/>
    <line x1="451.75" y1="12.29" x2="446.97" y2="17.00"/>
    <line x1="447.89" y1="19.85" x2="454.53" y2="20.85"/>
    <line x1="455.45" y1="23.71" x2="450.67" y2="28.41"/>
    <line x1="451.60" y1="31.27" x2="458.24" y2="32.27"/>
    <line x1="459.16" y1="35.12" x2="458.27" y2="36.00"/>
    <line x1="446.40" y1="10.13" x2="447.97" y2="10.37"/>
    <line x1="448.89" y1="13.22" x2="446.40" y2="15.68"/>
    <line x1="446.40" y1="20.99" x2="451.67" y2="21.78"/>
    <line x1="452.60" y1="24.63" x2="447.82" y2="29.34"/>
    <line x1="448.75" y1="32.19" x2="455.38" y2="33.19"/>
    <line x1="446.40" y1="22.34" x2="448.82" y2="22.71"/>
    <line x1="449.75" y1="25.56" x2="446.40" y2="28.86"/>
    <line x1="446.40" y1="33.20" x2="452.53" y2="34.12"/>
    <line x1="446.89" y1="26.49" x2="446.40" y2="26.97"/>
    <line x1="446.40" y1="34.55" x2="449.68" y2="35.05"/>
    <line x1="446.40" y1="35.91" x2="446.82" y2="35.97"/>
  </g>
  <g stroke="#8338EC" stroke-width="1" fill="none" stroke-linecap="round">
    <line x1="474.79" y1="-0.00" x2="475.20" y2="0.12"/>
    <line x1="468.64" y1="0.00" x2="475.20" y2="2.01"/>
    <line x1="460.80" y1="3.88" x2="475.20" y2="8.28"/>
    <line x1="460.80" y1="5.76" x2="475.20" y2="10.16"/>
    <line x1="460.80" y1="7.64" x2="475.20" y2="12.04"/>
    <line x1="460.80" y1="13.92" x2="475.20" y2="18.32"/>
    <line x1="460.80" y1="15.80" x2="475.20" y2="20.20"/>
    <line x1="460.80" y1="17.68" x2="475.20" y2="22.08"/>
    <line x1="460.80" y1="23.96" x2="475.20" y2="28.36"/>
    <line x1="460.80" y1="25.84" x2="475.20" y2="30.24"/>
    <line x1="460.80" y1="27.72" x2="475.20" y2="32.12"/>
    <line x1="460.80" y1="33.99" x2="467.36" y2="36.00"/>
    <line x1="460.80" y1="35.88" x2="461.21" y2="36.00"/>
  </g>
  <g stroke="#264653" stroke-width="1" fill="none" stroke-linecap="round">
    <line x1="482.70" y1="1.03" x2="485.98" y2="0.00"/>
    <line x1="489.60" y1="5.66" x2="488.95" y2="7.51"/>
    <line x1="478.79" y1="0.00" x2="478.45" y2="0.96"/>
    <line x1="480.54" y1="3.12" x2="486.94" y2="1.11"/>
    <line x1="489.02" y1="3.26" x2="486.79" y2="9.59"/>
    <line x1="488.87" y1="11.75" x2="489.60" y2="11.52"/>
    <line x1="477.37" y1="0.00" x2="476.30" y2="3.04"/>
    <line x1="478.38" y1="5.20" x2="484.78" y2="3.19"/>
    <line x1="486.86" y1="5.35" x2="484.63" y2="11.67"/>
    <line x1="486.72" y1="13.83" x2="489.60" y2="12.93"/>
    <line x1="475.95" y1="0.00" x2="475.20" y2="2.12"/>
    <line x1="476.22" y1="7.28" x2="482.62" y2="5.27"/>
    <line x1="484.71" y1="7.43" x2="482.47" y2="13.76"/>
    <line x1="484.56" y1="15.92" x2="489.60" y2="14.33"/>
    <line x1="475.20" y1="9.01" x2="480.46" y2="7.36"/>
    <line x1="482.55" y1="9.52" x2="480.32" y2="15.84"/>
    <line x1="482.40" y1="18.00" x2="488.80" y2="15.99"/>
    <line x1="489.60" y1="21.79" x2="488.65" y2="24.47"/>
    <line x1="475.20" y1="10.42" x2="478.31" y2="9.44"/>
    <line x1="480.39" y1="11.60" x2="478.16" y2="17.93"/>
    <line x1="480.24" y1="20.08" x2="486.64" y2="18.07"/>
    <line x1="488.73" y1="20.23" x2="486.49" y2="26.56"/>
    <line x1="488.58" y1="28.72" x2="489.60" y2="28.40"/>
    <line x1="475.20" y1="11.82" x2="476.15" y2="11.53"/>
    <line x1="478.23" y1="13.68" x2="476.00" y2="20.01"/>
    <line x1="478.08" y1="22.17" x2="484.48" y2="20.16"/>
    <line x1="486.57" y1="22.32" x2="484.34" y2="28.64"/>
    <line x1="486.42" y1="30.80" x2="489.60" y2="29.80"/>
    <line x1="476.07" y1="15.77" x2="475.20" y2="18.25"/>
    <line x1="475.93" y1="24.25" x2="482.33" y2="22.24"/>
    <line x1="484.41" y1="24.40" x2="482.18" y2="30.73"/>
    <line x1="484.26" y1="32.88" x2="489.60" y2="31.21"/>
    <line x1="475.20" y1="25.89" x2="480.17" y2="24.33"/>
    <line x1="482.25" y1="26.48" x2="480.02" y2="32.81"/>
    <line x1="482.10" y1="34.97" x2="488.50" y2="32.96"/>
    <line x1="475.20" y1="27.29" x2="478.01" y2="26.41"/>
    <line x1="480.09" y1="28.57" x2="477.86" y2="34.89"/>
    <line x1="483.30" y1="36.00" x2="486.35" y2="35.04"/>
    <line x1="475.20" y1="28.70" x2="475.85" y2="28.49"/>
    <line x1="477.94" y1="30.65" x2="476.05" y2="36.00"/>
    <line x1="475.78" y1="32.74" x2="475.20" y2="34.37"/>
  </g>
  <g stroke="#F4A261" stroke-width="1" fill="none" stroke-linecap="round">
    <line x1="501.62" y1="2.90" x2="504.00" y2="6.86"/>
    <line x1="489.60" y1="10.28" x2="490.35" y2="11.53"/>
    <line x1="504.00" y1="13.67" x2="489.60" y2="22.33"/>
    <line x1="503.25" y1="24.47" x2="504.00" y2="25.72"/>
    <line x1="489.60" y1="29.14" x2="491.98" y2="33.10"/>
  </g>
  <g stroke="#7209B7" stroke-width="1" fill="none" stroke-linecap="round">
    <line x1="518.40" y1="35.92" x2="518.24" y2="36.00"/>
    <line x1="518.40" y1="33.88" x2="514.41" y2="36.00"/>
    <line x1="518.40" y1="27.08" x2="504.00" y2="34.74"/>
    <line x1="518.40" y1="25.04" x2="504.00" y2="32.70"/>
    <line x1="518.40" y1="23.01" x2="504.00" y2="30.66"/>
    <line x1="518.40" y1="16.21" x2="504.00" y2="23.87"/>
    <line x1="518.40" y1="14.17" x2="504.00" y2="21.83"/>
    <line x1="518.40" y1="12.13" x2="504.00" y2="19.79"/>
    <line x1="518.40" y1="5.34" x2="504.00" y2="12.99"/>
    <line x1="518.40" y1="3.30" x2="504.00" y2="10.96"/>
    <line x1="518.40" y1="1.26" x2="504.00" y2="8.92"/>
    <line x1="507.99" y1="-0.00" x2="504.00" y2="2.12"/>
    <line x1="504.16" y1="-0.00" x2="504.00" y2="0.08"/>
  </g>
  <g stroke="#E9C46A" stroke-width="1" fill="none" stroke-linecap="round">
    <line x1="532.69" y1="0.00" x2="532.80" y2="0.28"/>
    <line x1="519.69" y1="9.49" x2="532.80" y2="4.46"/>
    <line x1="522.37" y1="9.60" x2="528.83" y2="26.40"/>
    <line x1="518.40" y1="31.54" x2="531.51" y2="26.51"/>
    <line x1="518.40" y1="35.72" x2="518.51" y2="36.00"/>
  </g>
  <g stroke="#E63946" stroke-width="1" fill="none" stroke-linecap="round">
    <line x1="539.37" y1="0.00" x2="547.20" y2="6.57"/>
    <line x1="532.80" y1="2.32" x2="547.20" y2="14.40"/>
    <line x1="532.80" y1="10.15" x2="547.20" y2="22.23"/>
    <line x1="532.80" y1="17.98" x2="547.20" y2="30.06"/>
    <line x1="532.80" y1="25.81" x2="544.94" y2="36.00"/>
    <line x1="532.80" y1="33.65" x2="535.61" y2="36.00"/>
    <line x1="537.63" y1="0.00" x2="532.80" y2="5.75"/>
    <line x1="545.46" y1="0.00" x2="532.80" y2="15.09"/>
    <line x1="547.20" y1="7.26" x2="532.80" y2="24.42"/>
    <line x1="547.20" y1="16.60" x2="532.80" y2="33.76"/>
    <line x1="547.20" y1="25.93" x2="538.75" y2="36.00"/>
    <line x1="547.20" y1="35.27" x2="546.58" y2="36.00"/>
  </g>
  <g stroke="#00BBF9" stroke-width="1" fill="none" stroke-linecap="round">
    <line x1="558.43" y1="2.91" x2="561.60" y2="7.44"/>
    <line x1="547.20" y1="10.45" x2="547.99" y2="11.58"/>
    <line x1="561.60" y1="12.96" x2="547.20" y2="23.04"/>
    <line x1="560.81" y1="24.42" x2="561.60" y2="25.55"/>
    <line x1="547.20" y1="28.56" x2="550.37" y2="33.09"/>
  </g>
  <g stroke="#118AB2" stroke-width="1" fill="none" stroke-linecap="round">
    <line x1="575.84" y1="0.00" x2="576.00" y2="0.08"/>
    <line x1="572.01" y1="-0.00" x2="576.00" y2="2.12"/>
    <line x1="561.60" y1="1.26" x2="576.00" y2="8.92"/>
    <line x1="561.60" y1="3.30" x2="576.00" y2="10.96"/>
    <line x1="561.60" y1="5.34" x2="576.00" y2="12.99"/>
    <line x1="561.60" y1="12.13" x2="576.00" y2="19.79"/>
    <line x1="561.60" y1="14.17" x2="576.00" y2="21.83"/>
    <line x1="561.60" y1="16.21" x2="576.00" y2="23.87"/>
    <line x1="561.60" y1="23.01" x2="576.00" y2="30.66"/>
    <line x1="561.60" y1="25.04" x2="576.00" y2="32.70"/>
    <line x1="561.60" y1="27.08" x2="576.00" y2="34.74"/>
    <line x1="561.60" y1="33.88" x2="565.59" y2="36.00"/>
    <line x1="561.60" y1="35.92" x2="561.76" y2="36.00"/>
  </g>
  <g stroke="#00F5D4" stroke-width="1" fill="none" stroke-linecap="round">
    <line x1="576.00" y1="0.00" x2="590.40" y2="0.00"/>
    <line x1="590.40" y1="0.00" x2="590.40" y2="36.00"/>
    <line x1="590.40" y1="36.00" x2="576.00" y2="36.00"/>
    <line x1="576.00" y1="36.00" x2="576.00" y2="0.00"/>
    <line x1="576.00" y1="36.00" x2="577.11" y2="33.21"/>
    <line x1="577.11" y1="2.79" x2="589.29" y2="2.79"/>
    <line x1="589.29" y1="2.79" x2="589.29" y2="33.21"/>
    <line x1="589.29" y1="33.21" x2="577.11" y2="33.21"/>
    <line x1="577.11" y1="33.21" x2="577.11" y2="2.79"/>
    <line x1="577.11" y1="33.21" x2="578.23" y2="30.43"/>
    <line x1="578.23" y1="5.57" x2="588.17" y2="5.57"/>
    <line x1="588.17" y1="5.57" x2="588.17" y2="30.43"/>
    <line x1="588.17" y1="30.43" x2="578.23" y2="30.43"/>
    <line x1="578.23" y1="30.43" x2="578.23" y2="5.57"/>
    <line x1="578.23" y1="30.43" x2="579.34" y2="27.64"/>
    <line x1="579.34" y1="8.36" x2="587.06" y2="8.36"/>
    <line x1="587.06" y1="8.36" x2="587.06" y2="27.64"/>
    <line x1="587.06" y1="27.64" x2="579.34" y2="27.64"/>
    <line x1="579.34" y1="27.64" x2="579.34" y2="8.36"/>
    <line x1="579.34" y1="27.64" x2="580.46" y2="24.86"/>
    <line x1="580.46" y1="11.14" x2="585.94" y2="11.14"/>
    <line x1="585.94" y1="11.14" x2="585.94" y2="24.86"/>
    <line x1="585.94" y1="24.86" x2="580.46" y2="24.86"/>
    <line x1="580.46" y1="24.86" x2="580.46" y2="11.14"/>
    <line x1="580.46" y1="24.86" x2="581.57" y2="22.07"/>
    <line x1="581.57" y1="13.93" x2="584.83" y2="13.93"/>
    <line x1="584.83" y1="13.93" x2="584.83" y2="22.07"/>
    <line x1="584.83" y1="22.07" x2="581.57" y2="22.07"/>
    <line x1="581.57" y1="22.07" x2="581.57" y2="13.93"/>
  </g>
  <g stroke="#FEE440" stroke-width="1" fill="none" stroke-linecap="round">
    <line x1="603.14" y1="0.00" x2="604.80" y2="15.84"/>
    <line x1="597.10" y1="-0.00" x2="600.89" y2="36.00"/>
    <line x1="591.07" y1="0.00" x2="594.85" y2="36.00"/>
    <line x1="604.80" y1="3.78" x2="590.40" y2="5.30"/>
    <line x1="604.80" y1="9.82" x2="590.40" y2="11.33"/>
    <line x1="604.80" y1="15.85" x2="590.40" y2="17.36"/>
    <line x1="604.80" y1="21.88" x2="590.40" y2="23.40"/>
    <line x1="604.80" y1="27.92" x2="590.40" y2="29.43"/>
    <line x1="604.80" y1="33.95" x2="590.40" y2="35.46"/>
  </g>
  <g stroke="#1982C4" stroke-width="1" fill="none" stroke-linecap="round">
    <line x1="616.57" y1="0.00" x2="619.20" y2="5.39"/>
    <line x1="613.23" y1="0.00" x2="619.20" y2="12.23"/>
    <line x1="609.90" y1="0.00" x2="619.20" y2="19.08"/>
    <line x1="606.56" y1="0.00" x2="619.20" y2="25.92"/>
    <line x1="604.80" y1="3.24" x2="619.20" y2="32.76"/>
    <line x1="604.80" y1="10.08" x2="617.44" y2="36.00"/>
    <line x1="604.80" y1="16.92" x2="614.10" y2="36.00"/>
    <line x1="604.80" y1="23.77" x2="610.77" y2="36.00"/>
    <line x1="604.80" y1="30.61" x2="607.43" y2="36.00"/>
  </g>
  <g stroke="#9B5DE5" stroke-width="1" fill="none" stroke-linecap="round">
    <line x1="629.25" y1="0.00" x2="633.60" y2="1.41"/>
    <line x1="619.54" y1="0.00" x2="633.60" y2="4.57"/>
    <line x1="619.20" y1="3.04" x2="633.60" y2="7.72"/>
    <line x1="619.20" y1="6.20" x2="633.60" y2="10.88"/>
    <line x1="619.20" y1="9.35" x2="633.60" y2="14.03"/>
    <line x1="619.20" y1="12.51" x2="633.60" y2="17.19"/>
    <line x1="619.20" y1="15.66" x2="633.60" y2="20.34"/>
    <line x1="619.20" y1="18.81" x2="633.60" y2="23.49"/>
    <line x1="619.20" y1="21.97" x2="633.60" y2="26.65"/>
    <line x1="619.20" y1="25.12" x2="633.60" y2="29.80"/>
    <line x1="619.20" y1="28.28" x2="633.60" y2="32.96"/>
    <line x1="619.20" y1="31.43" x2="633.26" y2="36.00"/>
    <line x1="619.20" y1="34.59" x2="623.55" y2="36.00"/>
  </g>
  <g stroke="#F72585" stroke-width="1" fill="none" stroke-linecap="round">
    <line x1="648.00" y1="29.41" x2="633.87" y2="36.00"/>
    <line x1="648.00" y1="22.79" x2="633.60" y2="29.51"/>
    <line x1="648.00" y1="16.17" x2="633.60" y2="22.89"/>
    <line x1="648.00" y1="9.55" x2="633.60" y2="16.27"/>
    <line x1="648.00" y1="2.93" x2="633.60" y2="9.65"/>
    <line x1="640.09" y1="0.00" x2="633.60" y2="3.03"/>
    <line x1="648.00" y1="1.77" x2="647.18" y2="0.00"/>
    <line x1="648.00" y1="15.96" x2="640.56" y2="0.00"/>
    <line x1="648.00" y1="30.16" x2="633.94" y2="0.00"/>
    <line x1="644.10" y1="36.00" x2="633.60" y2="13.48"/>
    <line x1="637.48" y1="36.00" x2="633.60" y2="27.67"/>
  </g>
  <g stroke="#F4A261" stroke-width="1" fill="none" stroke-linecap="round">
    <line x1="655.88" y1="3.53" x2="662.40" y2="8.44"/>
    <line x1="648.00" y1="11.00" x2="648.80" y2="11.61"/>
    <line x1="660.62" y1="10.81" x2="649.78" y2="25.19"/>
    <line x1="661.60" y1="24.39" x2="662.40" y2="25.00"/>
    <line x1="648.00" y1="27.56" x2="654.52" y2="32.47"/>
  </g>
  <g stroke="#E63946" stroke-width="1" fill="none" stroke-linecap="round">
    <line x1="676.80" y1="33.30" x2="675.82" y2="36.00"/>
    <line x1="676.80" y1="24.53" x2="672.63" y2="36.00"/>
    <line x1="676.80" y1="15.76" x2="669.43" y2="36.00"/>
    <line x1="676.80" y1="6.99" x2="666.24" y2="36.00"/>
    <line x1="676.15" y1="0.00" x2="663.05" y2="36.00"/>
    <line x1="672.96" y1="0.00" x2="662.40" y2="29.01"/>
    <line x1="669.77" y1="0.00" x2="662.40" y2="20.24"/>
    <line x1="666.57" y1="0.00" x2="662.40" y2="11.47"/>
    <line x1="663.38" y1="0.00" x2="662.40" y2="2.70"/>
    <line x1="666.43" y1="36.00" x2="662.40" y2="34.53"/>
    <line x1="675.20" y1="36.00" x2="662.40" y2="31.34"/>
    <line x1="676.80" y1="33.39" x2="662.40" y2="28.15"/>
    <line x1="676.80" y1="30.20" x2="662.40" y2="24.96"/>
    <line x1="676.80" y1="27.01" x2="662.40" y2="21.76"/>
    <line x1="676.80" y1="23.81" x2="662.40" y2="18.57"/>
    <line x1="676.80" y1="20.62" x2="662.40" y2="15.38"/>
    <line x1="676.80" y1="17.43" x2="662.40" y2="12.19"/>
    <line x1="676.80" y1="14.24" x2="662.40" y2="8.99"/>
    <line x1="676.80" y1="11.04" x2="662.40" y2="5.80"/>
    <line x1="676.80" y1="7.85" x2="662.40" y2="2.61"/>
    <line x1="676.80" y1="4.66" x2="664.00" y2="0.00"/>
    <line x1="676.80" y1="1.47" x2="672.77" y2="0.00"/>
  </g>
  <g stroke="#9EF01A" stroke-width="1" fill="none" stroke-linecap="round">
    <line x1="676.80" y1="0.00" x2="691.20" y2="0.00"/>
    <line x1="691.20" y1="0.00" x2="691.20" y2="36.00"/>
    <line x1="691.20" y1="36.00" x2="676.80" y2="36.00"/>
    <line x1="676.80" y1="36.00" x2="676.80" y2="0.00"/>
    <line x1="676.80" y1="36.00" x2="677.91" y2="33.21"/>
    <line x1="677.91" y1="2.79" x2="690.09" y2="2.79"/>
    <line x1="690.09" y1="2.79" x2="690.09" y2="33.21"/>
    <line x1="690.09" y1="33.21" x2="677.91" y2="33.21"/>
    <line x1="677.91" y1="33.21" x2="677.91" y2="2.79"/>
    <line x1="677.91" y1="33.21" x2="679.03" y2="30.43"/>
    <line x1="679.03" y1="5.57" x2="688.97" y2="5.57"/>
    <line x1="688.97" y1="5.57" x2="688.97" y2="30.43"/>
    <line x1="688.97" y1="30.43" x2="679.03" y2="30.43"/>
    <line x1="679.03" y1="30.43" x2="679.03" y2="5.57"/>
    <line x1="679.03" y1="30.43" x2="680.14" y2="27.64"/>
    <line x1="680.14" y1="8.36" x2="687.86" y2="8.36"/>
    <line x1="687.86" y1="8.36" x2="687.86" y2="27.64"/>
    <line x1="687.86" y1="27.64" x2="680.14" y2="27.64"/>
    <line x1="680.14" y1="27.64" x2="680.14" y2="8.36"/>
    <line x1="680.14" y1="27.64" x2="681.26" y2="24.86"/>
    <line x1="681.26" y1="11.14" x2="686.74" y2="11.14"/>
    <line x1="686.74" y1="11.14" x2="686.74" y2="24.86"/>
    <line x1="686.74" y1="24.86" x2="681.26" y2="24.86"/>
    <line x1="681.26" y1="24.86" x2="681.26" y2="11.14"/>
    <line x1="681.26" y1="24.86" x2="682.37" y2="22.07"/>
    <line x1="682.37" y1="13.93" x2="685.63" y2="13.93"/>
    <line x1="685.63" y1="13.93" x2="685.63" y2="22.07"/>
    <line x1="685.63" y1="22.07" x2="682.37" y2="22.07"/>
    <line x1="682.37" y1="22.07" x2="682.37" y2="13.93"/>
  </g>
  <g stroke="#F72585" stroke-width="1" fill="none" stroke-linecap="round">
    <line x1="705.60" y1="31.62" x2="701.95" y2="19.68"/>
    <line x1="694.24" y1="36.00" x2="697.76" y2="34.93"/>
    <line x1="691.20" y1="20.20" x2="705.60" y2="15.80"/>
    <line x1="699.04" y1="1.07" x2="702.56" y2="0.00"/>
    <line x1="694.85" y1="16.32" x2="691.20" y2="4.38"/>
  </g>
  <g stroke="#00BBF9" stroke-width="1" fill="none" stroke-linecap="round">
    <line x1="705.60" y1="0.00" x2="720.00" y2="0.00"/>
    <line x1="720.00" y1="0.00" x2="720.00" y2="36.00"/>
    <line x1="720.00" y1="36.00" x2="705.60" y2="36.00"/>
    <line x1="705.60" y1="36.00" x2="705.60" y2="0.00"/>
    <line x1="705.60" y1="36.00" x2="706.71" y2="33.21"/>
    <line x1="706.71" y1="2.79" x2="718.89" y2="2.79"/>
    <line x1="718.89" y1="2.79" x2="718.89" y2="33.21"/>
    <line x1="718.89" y1="33.21" x2="706.71" y2="33.21"/>
    <line x1="706.71" y1="33.21" x2="706.71" y2="2.79"/>
    <line x1="706.71" y1="33.21" x2="707.83" y2="30.43"/>
    <line x1="707.83" y1="5.57" x2="717.77" y2="5.57"/>
    <line x1="717.77" y1="5.57" x2="717.77" y2="30.43"/>
    <line x1="717.77" y1="30.43" x2="707.83" y2="30.43"/>
    <line x1="707.83" y1="30.43" x2="707.83" y2="5.57"/>
    <line x1="707.83" y1="30.43" x2="708.94" y2="27.64"/>
    <line x1="708.94" y1="8.36" x2="716.66" y2="8.36"/>
    <line x1="716.66" y1="8.36" x2="716.66" y2="27.64"/>
    <line x1="716.66" y1="27.64" x2="708.94" y2="27.64"/>
    <line x1="708.94" y1="27.64" x2="708.94" y2="8.36"/>
    <line x1="708.94" y1="27.64" x2="710.06" y2="24.86"/>
    <line x1="710.06" y1="11.14" x2="715.54" y2="11.14"/>
    <line x1="715.54" y1="11.14" x2="715.54" y2="24.86"/>
    <line x1="715.54" y1="24.86" x2="710.06" y2="24.86"/>
    <line x1="710.06" y1="24.86" x2="710.06" y2="11.14"/>
    <line x1="710.06" y1="24.86" x2="711.17" y2="22.07"/>
    <line x1="711.17" y1="13.93" x2="714.43" y2="13.93"/>
    <line x1="714.43" y1="13.93" x2="714.43" y2="22.07"/>
    <line x1="714.43" y1="22.07" x2="711.17" y2="22.07"/>
    <line x1="711.17" y1="22.07" x2="711.17" y2="13.93"/>
  </g>
  <g stroke="#264653" stroke-width="1" fill="none" stroke-linecap="round">
    <line x1="734.25" y1="0.00" x2="734.40" y2="0.51"/>
    <line x1="731.11" y1="0.00" x2="734.40" y2="10.77"/>
    <line x1="727.97" y1="0.00" x2="734.40" y2="21.03"/>
    <line x1="724.83" y1="-0.00" x2="734.40" y2="31.29"/>
    <line x1="721.70" y1="0.00" x2="732.70" y2="36.00"/>
    <line x1="720.00" y1="4.71" x2="729.57" y2="36.00"/>
    <line x1="720.00" y1="14.97" x2="726.43" y2="36.00"/>
    <line x1="720.00" y1="25.23" x2="723.29" y2="36.00"/>
    <line x1="720.00" y1="35.49" x2="720.15" y2="36.00"/>
  </g>
  <g stroke="#FF595E" stroke-width="1" fill="none" stroke-linecap="round">
    <line x1="743.79" y1="0.13" x2="743.88" y2="0.00"/>
    <line x1="739.47" y1="0.00" x2="740.45" y2="2.75"/>
    <line x1="743.43" y1="3.11" x2="745.49" y2="0.00"/>
    <line x1="738.05" y1="-0.00" x2="740.08" y2="5.72"/>
    <line x1="743.06" y1="6.09" x2="746.77" y2="0.50"/>
    <line x1="734.40" y1="2.16" x2="734.50" y2="2.01"/>
    <line x1="737.47" y1="2.38" x2="739.72" y2="8.70"/>
    <line x1="742.70" y1="9.07" x2="746.41" y2="3.48"/>
    <line x1="737.11" y1="5.36" x2="739.35" y2="11.68"/>
    <line x1="742.33" y1="12.04" x2="746.04" y2="6.46"/>
    <line x1="736.74" y1="8.34" x2="738.99" y2="14.66"/>
    <line x1="741.97" y1="15.02" x2="745.67" y2="9.43"/>
    <line x1="748.65" y1="9.80" x2="748.80" y2="10.21"/>
    <line x1="736.38" y1="11.31" x2="738.62" y2="17.63"/>
    <line x1="741.60" y1="18.00" x2="745.31" y2="12.41"/>
    <line x1="748.29" y1="12.78" x2="748.80" y2="14.22"/>
    <line x1="736.01" y1="14.29" x2="738.26" y2="20.61"/>
    <line x1="741.23" y1="20.98" x2="744.94" y2="15.39"/>
    <line x1="747.92" y1="15.75" x2="748.80" y2="18.23"/>
    <line x1="735.64" y1="17.27" x2="737.89" y2="23.59"/>
    <line x1="740.87" y1="23.96" x2="744.58" y2="18.37"/>
    <line x1="747.56" y1="18.73" x2="748.80" y2="22.23"/>
    <line x1="735.28" y1="20.25" x2="737.53" y2="26.57"/>
    <line x1="740.50" y1="26.93" x2="744.21" y2="21.34"/>
    <line x1="747.19" y1="21.71" x2="748.80" y2="26.24"/>
    <line x1="734.91" y1="23.22" x2="737.16" y2="29.54"/>
    <line x1="740.14" y1="29.91" x2="743.85" y2="24.32"/>
    <line x1="746.82" y1="24.69" x2="748.80" y2="30.25"/>
    <line x1="734.55" y1="26.20" x2="736.79" y2="32.52"/>
    <line x1="739.77" y1="32.89" x2="743.48" y2="27.30"/>
    <line x1="746.46" y1="27.66" x2="748.70" y2="33.99"/>
    <line x1="734.40" y1="29.79" x2="736.43" y2="35.50"/>
    <line x1="739.41" y1="35.87" x2="743.12" y2="30.28"/>
    <line x1="746.09" y1="30.64" x2="748.00" y2="36.00"/>
    <line x1="734.40" y1="33.80" x2="735.18" y2="36.00"/>
    <line x1="740.93" y1="36.00" x2="742.75" y2="33.25"/>
    <line x1="745.73" y1="33.62" x2="746.57" y2="36.00"/>
  </g>
  <g stroke="#4361EE" stroke-width="1" fill="none" stroke-linecap="round">
    <line x1="762.37" y1="0.00" x2="763.20" y2="0.67"/>
    <line x1="757.61" y1="-0.00" x2="763.20" y2="4.53"/>
    <line x1="752.84" y1="0.00" x2="763.20" y2="8.39"/>
    <line x1="748.80" y1="0.59" x2="763.20" y2="12.25"/>
    <line x1="748.80" y1="4.45" x2="763.20" y2="16.11"/>
    <line x1="748.80" y1="8.31" x2="763.20" y2="19.97"/>
    <line x1="748.80" y1="12.17" x2="763.20" y2="23.83"/>
    <line x1="748.80" y1="16.03" x2="763.20" y2="27.69"/>
    <line x1="748.80" y1="19.89" x2="763.20" y2="31.55"/>
    <line x1="748.80" y1="23.75" x2="763.20" y2="35.41"/>
    <line x1="748.80" y1="27.61" x2="759.16" y2="36.00"/>
    <line x1="748.80" y1="31.47" x2="754.39" y2="36.00"/>
    <line x1="748.80" y1="35.33" x2="749.63" y2="36.00"/>
    <line x1="763.20" y1="32.94" x2="760.73" y2="36.00"/>
    <line x1="763.20" y1="28.18" x2="756.87" y2="36.00"/>
    <line x1="763.20" y1="23.41" x2="753.00" y2="36.00"/>
    <line x1="763.20" y1="18.64" x2="749.14" y2="36.00"/>
    <line x1="763.20" y1="13.88" x2="748.80" y2="31.66"/>
    <line x1="763.20" y1="9.11" x2="748.80" y2="26.89"/>
    <line x1="763.20" y1="4.34" x2="748.80" y2="22.12"/>
    <line x1="762.86" y1="0.00" x2="748.80" y2="17.36"/>
    <line x1="759.00" y1="0.00" x2="748.80" y2="12.59"/>
    <line x1="755.13" y1="0.00" x2="748.80" y2="7.82"/>
    <line x1="751.27" y1="0.00" x2="748.80" y2="3.06"/>
  </g>
  <g stroke="#9B5DE5" stroke-width="1" fill="none" stroke-linecap="round">
    <line x1="777.57" y1="0.00" x2="777.60" y2="0.05"/>
    <line x1="774.14" y1="0.00" x2="777.60" y2="6.24"/>
    <line x1="770.71" y1="0.00" x2="777.60" y2="12.43"/>
    <line x1="767.28" y1="0.00" x2="777.60" y2="18.61"/>
    <line x1="763.85" y1="0.00" x2="777.60" y2="24.80"/>
    <line x1="763.20" y1="5.01" x2="777.60" y2="30.99"/>
    <line x1="763.20" y1="11.20" x2="776.95" y2="36.00"/>
    <line x1="763.20" y1="17.39" x2="773.52" y2="36.00"/>
    <line x1="763.20" y1="23.57" x2="770.09" y2="36.00"/>
    <line x1="763.20" y1="29.76" x2="766.66" y2="36.00"/>
    <line x1="763.20" y1="35.95" x2="763.23" y2="36.00"/>
    <line x1="777.60" y1="34.59" x2="775.06" y2="36.00"/>
    <line x1="777.60" y1="31.16" x2="768.87" y2="36.00"/>
    <line x1="777.60" y1="27.73" x2="763.20" y2="35.71"/>
    <line x1="777.60" y1="24.30" x2="763.20" y2="32.28"/>
    <line x1="777.60" y1="20.87" x2="763.20" y2="28.85"/>
    <line x1="777.60" y1="17.44" x2="763.20" y2="25.42"/>
    <line x1="777.60" y1="14.01" x2="763.20" y2="21.99"/>
    <line x1="777.60" y1="10.58" x2="763.20" y2="18.56"/>
    <line x1="777.60" y1="7.15" x2="763.20" y2="15.13"/>
    <line x1="777.60" y1="3.72" x2="763.20" y2="11.70"/>
    <line x1="777.60" y1="0.29" x2="763.20" y2="8.27"/>
    <line x1="771.93" y1="-0.00" x2="763.20" y2="4.84"/>
    <line x1="765.74" y1="0.00" x2="763.20" y2="1.41"/>
  </g>
  <g stroke="#1982C4" stroke-width="1" fill="none" stroke-linecap="round">
    <line x1="777.60" y1="3.93" x2="792.00" y2="5.19"/>
    <line x1="777.60" y1="9.96" x2="792.00" y2="11.22"/>
    <line x1="777.60" y1="15.98" x2="792.00" y2="17.24"/>
    <line x1="777.60" y1="22.00" x2="792.00" y2="23.26"/>
    <line x1="777.60" y1="28.02" x2="792.00" y2="29.28"/>
    <line x1="777.60" y1="34.05" x2="792.00" y2="35.31"/>
    <line x1="778.96" y1="-0.00" x2="777.60" y2="15.54"/>
    <line x1="784.98" y1="-0.00" x2="781.83" y2="36.00"/>
    <line x1="791.01" y1="0.00" x2="787.86" y2="36.00"/>
  </g>
  <g stroke="#FFCA3A" stroke-width="1" fill="none" stroke-linecap="round">
    <line x1="806.40" y1="31.90" x2="802.15" y2="36.00"/>
    <line x1="806.40" y1="27.73" x2="797.84" y2="36.00"/>
    <line x1="806.40" y1="23.56" x2="793.52" y2="36.00"/>
    <line x1="806.40" y1="19.39" x2="792.00" y2="33.29"/>
    <line x1="806.40" y1="15.22" x2="792.00" y2="29.12"/>
    <line x1="806.40" y1="11.05" x2="792.00" y2="24.95"/>
    <line x1="806.40" y1="6.88" x2="792.00" y2="20.78"/>
    <line x1="806.40" y1="2.71" x2="792.00" y2="16.61"/>
    <line x1="804.88" y1="-0.00" x2="792.00" y2="12.44"/>
    <line x1="800.56" y1="-0.00" x2="792.00" y2="8.27"/>
    <line x1="796.25" y1="-0.00" x2="792.00" y2="4.10"/>
  </g>
  <g stroke="#90BE6D" stroke-width="1" fill="none" stroke-linecap="round">
    <line x1="819.60" y1="0.00" x2="819.60" y2="36.00"/>
    <line x1="816.60" y1="0.00" x2="816.60" y2="36.00"/>
    <line x1="813.60" y1="0.00" x2="813.60" y2="36.00"/>
    <line x1="810.60" y1="0.00" x2="810.60" y2="36.00"/>
    <line x1="807.60" y1="0.00" x2="807.60" y2="36.00"/>
  </g>
  <g stroke="#3A86FF" stroke-width="1" fill="none" stroke-linecap="round">
    <line x1="821.61" y1="0.00" x2="821.08" y2="10.18"/>
    <line x1="835.20" y1="18.38" x2="820.80" y2="17.62"/>
    <line x1="834.92" y1="25.82" x2="834.39" y2="36.00"/>
  </g>
  <g stroke="#264653" stroke-width="1" fill="none" stroke-linecap="round">
    <line x1="849.60" y1="34.74" x2="837.60" y2="36.00"/>
    <line x1="849.60" y1="28.71" x2="835.20" y2="30.22"/>
    <line x1="849.60" y1="26.90" x2="835.20" y2="28.41"/>
    <line x1="849.60" y1="25.09" x2="835.20" y2="26.60"/>
    <line x1="849.60" y1="19.05" x2="835.20" y2="20.57"/>
    <line x1="849.60" y1="17.24" x2="835.20" y2="18.76"/>
    <line x1="849.60" y1="15.43" x2="835.20" y2="16.95"/>
    <line x1="849.60" y1="9.40" x2="835.20" y2="10.91"/>
    <line x1="849.60" y1="7.59" x2="835.20" y2="9.10"/>
    <line x1="849.60" y1="5.78" x2="835.20" y2="7.29"/>
    <line x1="847.20" y1="0.00" x2="835.20" y2="1.26"/>
  </g>
  <g stroke="#FEE440" stroke-width="1" fill="none" stroke-linecap="round">
    <line x1="864.00" y1="29.45" x2="849.60" y2="35.86"/>
    <line x1="864.00" y1="22.88" x2="849.60" y2="29.29"/>
    <line x1="864.00" y1="16.31" x2="849.60" y2="22.72"/>
    <line x1="864.00" y1="9.74" x2="849.60" y2="16.16"/>
    <line x1="864.00" y1="3.18" x2="849.60" y2="9.59"/>
    <line x1="856.38" y1="0.00" x2="849.60" y2="3.02"/>
    <line x1="864.00" y1="1.26" x2="863.44" y2="0.00"/>
    <line x1="864.00" y1="16.01" x2="856.87" y2="0.00"/>
    <line x1="864.00" y1="30.76" x2="850.30" y2="-0.00"/>
    <line x1="859.76" y1="36.00" x2="849.60" y2="13.17"/>
    <line x1="853.20" y1="36.00" x2="849.60" y2="27.92"/>
  </g>
</svg>
