<?xml version="1.0" encoding="UTF-8"?>
<svg xmlns="http://www.w3.org/2000/svg"
     width="864.00" height="36.00"
     viewBox="0 0 864.00 36.00">
  <title>Pattern Banner - rat-king</title>
  <desc>Randomized pattern strip with 60 cells</desc>
  <rect width="100%" height="100%" fill="white"/>
  <g stroke="#7209B7" stroke-width="1" fill="none" stroke-linecap="round">
    <line x1="14.40" y1="34.94" x2="8.93" y2="36.00"/>
    <line x1="14.40" y1="31.88" x2="0.00" y2="34.68"/>
    <line x1="14.40" y1="28.83" x2="0.00" y2="31.62"/>
    <line x1="14.40" y1="25.77" x2="0.00" y2="28.57"/>
    <line x1="14.40" y1="22.71" x2="0.00" y2="25.51"/>
    <line x1="14.40" y1="19.66" x2="0.00" y2="22.46"/>
    <line x1="14.40" y1="16.60" x2="0.00" y2="19.40"/>
    <line x1="14.40" y1="13.54" x2="0.00" y2="16.34"/>
    <line x1="14.40" y1="10.49" x2="0.00" y2="13.29"/>
    <line x1="14.40" y1="7.43" x2="0.00" y2="10.23"/>
    <line x1="14.40" y1="4.38" x2="0.00" y2="7.17"/>
    <line x1="14.40" y1="1.32" x2="0.00" y2="4.12"/>
    <line x1="5.47" y1="0.00" x2="0.00" y2="1.06"/>
  </g>
  <g stroke="#EF476F" stroke-width="1" fill="none" stroke-linecap="round">
    <line x1="17.89" y1="36.00" x2="27.85" y2="22.78"/>
    <line x1="14.41" y1="12.58" x2="28.79" y2="23.42"/>
    <line x1="15.35" y1="13.22" x2="25.31" y2="0.00"/>
  </g>
  <g stroke="#F72585" stroke-width="1" fill="none" stroke-linecap="round">
    <line x1="43.20" y1="30.01" x2="37.81" y2="36.00"/>
    <line x1="43.20" y1="21.04" x2="29.73" y2="36.00"/>
    <line x1="43.20" y1="12.08" x2="28.80" y2="28.07"/>
    <line x1="43.20" y1="3.11" x2="28.80" y2="19.10"/>
    <line x1="37.93" y1="-0.00" x2="28.80" y2="10.13"/>
    <line x1="29.85" y1="-0.00" x2="28.80" y2="1.17"/>
    <line x1="43.20" y1="6.47" x2="36.01" y2="0.00"/>
    <line x1="43.20" y1="14.54" x2="28.80" y2="1.58"/>
    <line x1="43.20" y1="22.62" x2="28.80" y2="9.65"/>
    <line x1="43.20" y1="30.69" x2="28.80" y2="17.73"/>
    <line x1="40.13" y1="36.00" x2="28.80" y2="25.80"/>
    <line x1="31.16" y1="36.00" x2="28.80" y2="33.87"/>
  </g>
  <g stroke="#7209B7" stroke-width="1" fill="none" stroke-linecap="round">
    <line x1="48.03" y1="0.00" x2="57.60" y2="6.70"/>
    <line x1="43.20" y1="3.94" x2="57.60" y2="14.02"/>
    <line x1="43.20" y1="11.27" x2="57.60" y2="21.35"/>
    <line x1="43.20" y1="18.59" x2="57.60" y2="28.67"/>
    <line x1="43.20" y1="25.92" x2="57.60" y2="36.00"/>
    <line x1="43.20" y1="33.24" x2="47.14" y2="36.00"/>
    <line x1="46.66" y1="0.00" x2="43.20" y2="4.94"/>
    <line x1="53.99" y1="0.00" x2="43.20" y2="15.40"/>
    <line x1="57.60" y1="5.30" x2="43.20" y2="25.87"/>
    <line x1="57.60" y1="15.76" x2="43.43" y2="36.00"/>
    <line x1="57.60" y1="26.22" x2="50.75" y2="36.00"/>
  </g>
  <g stroke="#073B4C" stroke-width="1" fill="none" stroke-linecap="round">
    <line x1="65.28" y1="36.00" x2="64.51" y2="35.49"/>
    <line x1="70.80" y1="28.39" x2="71.20" y2="35.09"/>
    <line x1="67.71" y1="36.00" x2="63.01" y2="32.89"/>
    <line x1="60.41" y1="34.39" x2="60.50" y2="36.00"/>
    <line x1="72.00" y1="24.36" x2="71.90" y2="24.29"/>
    <line x1="69.30" y1="25.79" x2="69.70" y2="32.49"/>
    <line x1="67.10" y1="33.99" x2="61.51" y2="30.29"/>
    <line x1="58.91" y1="31.79" x2="59.16" y2="36.00"/>
    <line x1="72.00" y1="22.75" x2="70.40" y2="21.70"/>
    <line x1="67.80" y1="23.20" x2="68.20" y2="29.89"/>
    <line x1="65.60" y1="31.39" x2="60.01" y2="27.70"/>
    <line x1="57.60" y1="32.40" x2="57.81" y2="35.89"/>
    <line x1="72.00" y1="21.15" x2="68.90" y2="19.10"/>
    <line x1="66.30" y1="20.60" x2="66.70" y2="27.29"/>
    <line x1="64.10" y1="28.79" x2="58.51" y2="25.10"/>
    <line x1="72.00" y1="19.54" x2="67.40" y2="16.50"/>
    <line x1="64.80" y1="18.00" x2="65.20" y2="24.70"/>
    <line x1="62.60" y1="26.20" x2="57.60" y2="22.89"/>
    <line x1="71.50" y1="17.60" x2="65.90" y2="13.90"/>
    <line x1="63.30" y1="15.40" x2="63.70" y2="22.10"/>
    <line x1="61.10" y1="23.60" x2="57.60" y2="21.28"/>
    <line x1="70.00" y1="15.00" x2="64.40" y2="11.30"/>
    <line x1="61.80" y1="12.80" x2="62.20" y2="19.50"/>
    <line x1="59.60" y1="21.00" x2="57.60" y2="19.68"/>
    <line x1="70.69" y1="4.21" x2="71.09" y2="10.90"/>
    <line x1="68.50" y1="12.40" x2="62.90" y2="8.71"/>
    <line x1="60.30" y1="10.21" x2="60.70" y2="16.90"/>
    <line x1="58.10" y1="18.40" x2="57.60" y2="18.07"/>
    <line x1="72.00" y1="0.25" x2="71.79" y2="0.11"/>
    <line x1="69.19" y1="1.61" x2="69.59" y2="8.30"/>
    <line x1="67.00" y1="9.80" x2="61.40" y2="6.11"/>
    <line x1="58.80" y1="7.61" x2="59.20" y2="14.30"/>
    <line x1="67.75" y1="-0.00" x2="68.09" y2="5.71"/>
    <line x1="65.50" y1="7.21" x2="59.90" y2="3.51"/>
    <line x1="57.60" y1="10.01" x2="57.70" y2="11.71"/>
    <line x1="66.41" y1="0.00" x2="66.59" y2="3.11"/>
    <line x1="64.00" y1="4.61" x2="58.40" y2="0.91"/>
    <line x1="65.06" y1="0.00" x2="65.09" y2="0.51"/>
    <line x1="62.50" y1="2.01" x2="59.45" y2="0.00"/>
  </g>
  <g stroke="#F72585" stroke-width="1" fill="none" stroke-linecap="round">
    <line x1="86.24" y1="0.00" x2="84.60" y2="1.36"/>
    <line x1="85.27" y1="4.28" x2="86.40" y2="4.56"/>
    <line x1="84.13" y1="-0.00" x2="81.67" y2="2.03"/>
    <line x1="82.35" y1="4.96" x2="86.40" y2="5.94"/>
    <line x1="86.40" y1="12.05" x2="84.37" y2="13.73"/>
    <line x1="85.05" y1="16.65" x2="86.40" y2="16.98"/>
    <line x1="82.03" y1="0.00" x2="78.75" y2="2.71"/>
    <line x1="79.42" y1="5.63" x2="85.94" y2="7.21"/>
    <line x1="86.40" y1="10.31" x2="81.45" y2="14.40"/>
    <line x1="82.12" y1="17.33" x2="86.40" y2="18.36"/>
    <line x1="86.40" y1="24.23" x2="84.15" y2="26.09"/>
    <line x1="84.82" y1="29.02" x2="86.40" y2="29.40"/>
    <line x1="79.92" y1="-0.00" x2="75.83" y2="3.38"/>
    <line x1="76.50" y1="6.31" x2="83.02" y2="7.88"/>
    <line x1="83.70" y1="10.80" x2="78.53" y2="15.08"/>
    <line x1="79.20" y1="18.00" x2="85.72" y2="19.57"/>
    <line x1="86.40" y1="22.50" x2="81.22" y2="26.77"/>
    <line x1="81.90" y1="29.69" x2="86.40" y2="30.78"/>
    <line x1="77.82" y1="0.00" x2="72.90" y2="4.06"/>
    <line x1="73.58" y1="6.98" x2="80.10" y2="8.56"/>
    <line x1="80.77" y1="11.48" x2="75.60" y2="15.75"/>
    <line x1="76.28" y1="18.67" x2="82.80" y2="20.25"/>
    <line x1="83.47" y1="23.17" x2="78.30" y2="27.44"/>
    <line x1="78.98" y1="30.37" x2="85.50" y2="31.94"/>
    <line x1="86.17" y1="34.86" x2="84.80" y2="36.00"/>
    <line x1="75.15" y1="0.46" x2="72.00" y2="3.06"/>
    <line x1="72.00" y1="7.98" x2="77.18" y2="9.23"/>
    <line x1="77.85" y1="12.15" x2="72.68" y2="16.43"/>
    <line x1="73.35" y1="19.35" x2="79.87" y2="20.92"/>
    <line x1="80.55" y1="23.85" x2="75.38" y2="28.12"/>
    <line x1="76.05" y1="31.04" x2="82.57" y2="32.62"/>
    <line x1="83.25" y1="35.54" x2="82.69" y2="36.00"/>
    <line x1="72.23" y1="1.14" x2="72.00" y2="1.32"/>
    <line x1="72.00" y1="9.36" x2="74.25" y2="9.91"/>
    <line x1="74.93" y1="12.83" x2="72.00" y2="15.25"/>
    <line x1="72.00" y1="20.40" x2="76.95" y2="21.60"/>
    <line x1="77.63" y1="24.52" x2="72.46" y2="28.79"/>
    <line x1="73.13" y1="31.72" x2="79.65" y2="33.29"/>
    <line x1="72.00" y1="13.50" x2="72.00" y2="13.51"/>
    <line x1="72.00" y1="21.78" x2="74.03" y2="22.27"/>
    <line x1="74.70" y1="25.20" x2="72.00" y2="27.43"/>
    <line x1="72.00" y1="32.82" x2="76.73" y2="33.97"/>
    <line x1="72.00" y1="34.20" x2="73.80" y2="34.64"/>
  </g>
  <g stroke="#FF595E" stroke-width="1" fill="none" stroke-linecap="round">
    <line x1="100.80" y1="26.82" x2="98.68" y2="36.00"/>
    <line x1="100.80" y1="13.49" x2="95.60" y2="36.00"/>
    <line x1="100.80" y1="0.15" x2="92.52" y2="36.00"/>
    <line x1="97.76" y1="0.00" x2="89.44" y2="36.00"/>
    <line x1="94.68" y1="0.00" x2="86.40" y2="35.85"/>
    <line x1="91.60" y1="0.00" x2="86.40" y2="22.51"/>
    <line x1="88.52" y1="-0.00" x2="86.40" y2="9.18"/>
  </g>
  <g stroke="#F72585" stroke-width="1" fill="none" stroke-linecap="round">
    <line x1="115.16" y1="0.00" x2="115.20" y2="0.40"/>
    <line x1="112.14" y1="-0.00" x2="115.20" y2="29.10"/>
    <line x1="109.12" y1="0.00" x2="112.91" y2="36.00"/>
    <line x1="106.11" y1="-0.00" x2="109.89" y2="36.00"/>
    <line x1="103.09" y1="0.00" x2="106.88" y2="36.00"/>
    <line x1="100.80" y1="6.90" x2="103.86" y2="36.00"/>
    <line x1="100.80" y1="35.60" x2="100.84" y2="36.00"/>
  </g>
  <g stroke="#2A9D8F" stroke-width="1" fill="none" stroke-linecap="round">
    <line x1="115.20" y1="0.00" x2="129.60" y2="0.00"/>
    <line x1="129.60" y1="0.00" x2="129.60" y2="36.00"/>
    <line x1="129.60" y1="36.00" x2="115.20" y2="36.00"/>
    <line x1="115.20" y1="36.00" x2="115.20" y2="0.00"/>
    <line x1="115.20" y1="36.00" x2="116.31" y2="33.21"/>
    <line x1="116.31" y1="2.79" x2="128.49" y2="2.79"/>
    <line x1="128.49" y1="2.79" x2="128.49" y2="33.21"/>
    <line x1="128.49" y1="33.21" x2="116.31" y2="33.21"/>
    <line x1="116.31" y1="33.21" x2="116.31" y2="2.79"/>
    <line x1="116.31" y1="33.21" x2="117.43" y2="30.43"/>
    <line x1="117.43" y1="5.57" x2="127.37" y2="5.57"/>
    <line x1="127.37" y1="5.57" x2="127.37" y2="30.43"/>
    <line x1="127.37" y1="30.43" x2="117.43" y2="30.43"/>
    <line x1="117.43" y1="30.43" x2="117.43" y2="5.57"/>
    <line x1="117.43" y1="30.43" x2="118.54" y2="27.64"/>
    <line x1="118.54" y1="8.36" x2="126.26" y2="8.36"/>
    <line x1="126.26" y1="8.36" x2="126.26" y2="27.64"/>
    <line x1="126.26" y1="27.64" x2="118.54" y2="27.64"/>
    <line x1="118.54" y1="27.64" x2="118.54" y2="8.36"/>
    <line x1="118.54" y1="27.64" x2="119.66" y2="24.86"/>
    <line x1="119.66" y1="11.14" x2="125.14" y2="11.14"/>
    <line x1="125.14" y1="11.14" x2="125.14" y2="24.86"/>
    <line x1="125.14" y1="24.86" x2="119.66" y2="24.86"/>
    <line x1="119.66" y1="24.86" x2="119.66" y2="11.14"/>
    <line x1="119.66" y1="24.86" x2="120.77" y2="22.07"/>
    <line x1="120.77" y1="13.93" x2="124.03" y2="13.93"/>
    <line x1="124.03" y1="13.93" x2="124.03" y2="22.07"/>
    <line x1="124.03" y1="22.07" x2="120.77" y2="22.07"/>
    <line x1="120.77" y1="22.07" x2="120.77" y2="13.93"/>
  </g>
  <g stroke="#7209B7" stroke-width="1" fill="none" stroke-linecap="round">
    <line x1="140.44" y1="0.00" x2="140.45" y2="0.12"/>
    <line x1="143.25" y1="1.20" x2="144.00" y2="0.51"/>
    <line x1="139.09" y1="0.00" x2="139.37" y2="2.92"/>
    <line x1="142.18" y1="4.00" x2="144.00" y2="2.33"/>
    <line x1="129.90" y1="2.50" x2="132.63" y2="0.00"/>
    <line x1="137.74" y1="-0.00" x2="138.30" y2="5.72"/>
    <line x1="141.10" y1="6.80" x2="144.00" y2="4.15"/>
    <line x1="129.60" y1="4.59" x2="133.77" y2="0.77"/>
    <line x1="136.57" y1="1.85" x2="137.22" y2="8.52"/>
    <line x1="140.03" y1="9.60" x2="144.00" y2="5.96"/>
    <line x1="129.60" y1="6.40" x2="132.70" y2="3.57"/>
    <line x1="135.50" y1="4.65" x2="136.15" y2="11.32"/>
    <line x1="138.95" y1="12.40" x2="143.90" y2="7.87"/>
    <line x1="129.60" y1="8.22" x2="131.62" y2="6.37"/>
    <line x1="134.42" y1="7.45" x2="135.07" y2="14.12"/>
    <line x1="137.88" y1="15.20" x2="142.83" y2="10.67"/>
    <line x1="129.60" y1="10.04" x2="130.55" y2="9.17"/>
    <line x1="133.35" y1="10.25" x2="134.00" y2="16.92"/>
    <line x1="136.80" y1="18.00" x2="141.75" y2="13.47"/>
    <line x1="132.27" y1="13.05" x2="132.92" y2="19.73"/>
    <line x1="135.72" y1="20.80" x2="140.68" y2="16.27"/>
    <line x1="143.48" y1="17.35" x2="144.00" y2="22.72"/>
    <line x1="131.20" y1="15.85" x2="131.85" y2="22.53"/>
    <line x1="134.65" y1="23.60" x2="139.60" y2="19.08"/>
    <line x1="142.40" y1="20.15" x2="143.05" y2="26.83"/>
    <line x1="130.12" y1="18.65" x2="130.77" y2="25.33"/>
    <line x1="133.57" y1="26.40" x2="138.53" y2="21.88"/>
    <line x1="141.33" y1="22.95" x2="141.98" y2="29.63"/>
    <line x1="129.60" y1="27.11" x2="129.70" y2="28.13"/>
    <line x1="132.50" y1="29.20" x2="137.45" y2="24.68"/>
    <line x1="140.25" y1="25.75" x2="140.90" y2="32.43"/>
    <line x1="143.70" y1="33.50" x2="144.00" y2="33.23"/>
    <line x1="131.42" y1="32.00" x2="136.38" y2="27.48"/>
    <line x1="139.18" y1="28.55" x2="139.83" y2="35.23"/>
    <line x1="142.96" y1="36.00" x2="144.00" y2="35.05"/>
    <line x1="130.35" y1="34.80" x2="135.30" y2="30.28"/>
    <line x1="138.10" y1="31.35" x2="138.55" y2="36.00"/>
    <line x1="131.03" y1="36.00" x2="134.23" y2="33.08"/>
    <line x1="137.03" y1="34.15" x2="137.21" y2="36.00"/>
    <line x1="133.02" y1="36.00" x2="133.15" y2="35.88"/>
  </g>
  <g stroke="#E63946" stroke-width="1" fill="none" stroke-linecap="round">
    <line x1="152.24" y1="3.42" x2="158.40" y2="8.41"/>
    <line x1="144.00" y1="10.96" x2="144.82" y2="11.62"/>
    <line x1="156.86" y1="11.01" x2="145.54" y2="24.99"/>
    <line x1="157.58" y1="24.38" x2="158.40" y2="25.04"/>
    <line x1="144.00" y1="27.59" x2="150.16" y2="32.58"/>
  </g>
  <g stroke="#6A4C93" stroke-width="1" fill="none" stroke-linecap="round">
    <line x1="169.90" y1="0.00" x2="172.80" y2="5.70"/>
    <line x1="166.53" y1="0.00" x2="172.80" y2="12.31"/>
    <line x1="163.16" y1="0.00" x2="172.80" y2="18.91"/>
    <line x1="159.80" y1="0.00" x2="172.80" y2="25.52"/>
    <line x1="158.40" y1="3.87" x2="172.80" y2="32.13"/>
    <line x1="158.40" y1="10.48" x2="171.40" y2="36.00"/>
    <line x1="158.40" y1="17.09" x2="168.04" y2="36.00"/>
    <line x1="158.40" y1="23.69" x2="164.67" y2="36.00"/>
    <line x1="158.40" y1="30.30" x2="161.30" y2="36.00"/>
    <line x1="172.80" y1="34.53" x2="169.92" y2="36.00"/>
    <line x1="172.80" y1="31.17" x2="163.31" y2="36.00"/>
    <line x1="172.80" y1="27.80" x2="158.40" y2="35.14"/>
    <line x1="172.80" y1="24.43" x2="158.40" y2="31.77"/>
    <line x1="172.80" y1="21.07" x2="158.40" y2="28.40"/>
    <line x1="172.80" y1="17.70" x2="158.40" y2="25.04"/>
    <line x1="172.80" y1="14.33" x2="158.40" y2="21.67"/>
    <line x1="172.80" y1="10.96" x2="158.40" y2="18.30"/>
    <line x1="172.80" y1="7.60" x2="158.40" y2="14.93"/>
    <line x1="172.80" y1="4.23" x2="158.40" y2="11.57"/>
    <line x1="172.80" y1="0.86" x2="158.40" y2="8.20"/>
    <line x1="167.89" y1="-0.00" x2="158.40" y2="4.83"/>
    <line x1="161.28" y1="0.00" x2="158.40" y2="1.47"/>
  </g>
  <g stroke="#264653" stroke-width="1" fill="none" stroke-linecap="round">
    <line x1="184.43" y1="0.00" x2="187.20" y2="1.87"/>
    <line x1="173.70" y1="0.00" x2="187.20" y2="9.11"/>
    <line x1="172.80" y1="1.56" x2="187.20" y2="11.28"/>
    <line x1="172.80" y1="3.74" x2="187.20" y2="13.45"/>
    <line x1="172.80" y1="10.97" x2="187.20" y2="20.69"/>
    <line x1="172.80" y1="13.14" x2="187.20" y2="22.86"/>
    <line x1="172.80" y1="15.31" x2="187.20" y2="25.03"/>
    <line x1="172.80" y1="22.55" x2="187.20" y2="32.26"/>
    <line x1="172.80" y1="24.72" x2="187.20" y2="34.44"/>
    <line x1="172.80" y1="26.89" x2="186.30" y2="36.00"/>
    <line x1="172.80" y1="34.13" x2="175.57" y2="36.00"/>
  </g>
  <g stroke="#9EF01A" stroke-width="1" fill="none" stroke-linecap="round">
    <line x1="201.60" y1="27.15" x2="194.18" y2="36.00"/>
    <line x1="201.60" y1="24.35" x2="191.83" y2="36.00"/>
    <line x1="201.60" y1="21.55" x2="189.48" y2="36.00"/>
    <line x1="201.60" y1="12.22" x2="187.20" y2="29.38"/>
    <line x1="201.60" y1="9.42" x2="187.20" y2="26.58"/>
    <line x1="201.60" y1="6.62" x2="187.20" y2="23.78"/>
    <line x1="199.32" y1="0.00" x2="187.20" y2="14.45"/>
    <line x1="196.97" y1="0.00" x2="187.20" y2="11.65"/>
    <line x1="194.62" y1="0.00" x2="187.20" y2="8.85"/>
  </g>
  <g stroke="#6A4C93" stroke-width="1" fill="none" stroke-linecap="round">
    <line x1="211.97" y1="0.00" x2="216.00" y2="1.47"/>
    <line x1="203.20" y1="0.00" x2="216.00" y2="4.66"/>
    <line x1="201.60" y1="2.61" x2="216.00" y2="7.85"/>
    <line x1="201.60" y1="5.80" x2="216.00" y2="11.04"/>
    <line x1="201.60" y1="8.99" x2="216.00" y2="14.24"/>
    <line x1="201.60" y1="12.19" x2="216.00" y2="17.43"/>
    <line x1="201.60" y1="15.38" x2="216.00" y2="20.62"/>
    <line x1="201.60" y1="18.57" x2="216.00" y2="23.81"/>
    <line x1="201.60" y1="21.76" x2="216.00" y2="27.01"/>
    <line x1="201.60" y1="24.96" x2="216.00" y2="30.20"/>
    <line x1="201.60" y1="28.15" x2="216.00" y2="33.39"/>
    <line x1="201.60" y1="31.34" x2="214.40" y2="36.00"/>
    <line x1="201.60" y1="34.53" x2="205.63" y2="36.00"/>
    <line x1="216.00" y1="33.30" x2="215.02" y2="36.00"/>
    <line x1="216.00" y1="24.53" x2="211.83" y2="36.00"/>
    <line x1="216.00" y1="15.76" x2="208.63" y2="36.00"/>
    <line x1="216.00" y1="6.99" x2="205.44" y2="36.00"/>
    <line x1="215.35" y1="0.00" x2="202.25" y2="36.00"/>
    <line x1="212.16" y1="-0.00" x2="201.60" y2="29.01"/>
    <line x1="208.97" y1="0.00" x2="201.60" y2="20.24"/>
    <line x1="205.77" y1="0.00" x2="201.60" y2="11.47"/>
    <line x1="202.58" y1="0.00" x2="201.60" y2="2.70"/>
  </g>
  <g stroke="#9B5DE5" stroke-width="1" fill="none" stroke-linecap="round">
    <line x1="230.40" y1="29.81" x2="224.43" y2="36.00"/>
    <line x1="230.40" y1="21.18" x2="216.09" y2="36.00"/>
    <line x1="230.40" y1="12.54" x2="216.00" y2="27.45"/>
    <line x1="230.40" y1="3.90" x2="216.00" y2="18.81"/>
    <line x1="225.83" y1="-0.00" x2="216.00" y2="10.18"/>
    <line x1="217.49" y1="-0.00" x2="216.00" y2="1.54"/>
    <line x1="230.40" y1="6.34" x2="223.83" y2="0.00"/>
    <line x1="230.40" y1="14.68" x2="216.00" y2="0.78"/>
    <line x1="230.40" y1="23.03" x2="216.00" y2="9.12"/>
    <line x1="230.40" y1="31.37" x2="216.00" y2="17.46"/>
    <line x1="226.56" y1="36.00" x2="216.00" y2="25.80"/>
    <line x1="217.92" y1="36.00" x2="216.00" y2="34.14"/>
  </g>
  <g stroke="#9B5DE5" stroke-width="1" fill="none" stroke-linecap="round">
    <line x1="241.76" y1="0.00" x2="244.80" y2="1.48"/>
    <line x1="234.91" y1="0.00" x2="244.80" y2="4.82"/>
    <line x1="230.40" y1="1.14" x2="244.80" y2="8.16"/>
    <line x1="230.40" y1="4.47" x2="244.80" y2="11.50"/>
    <line x1="230.40" y1="7.81" x2="244.80" y2="14.84"/>
    <line x1="230.40" y1="11.15" x2="244.80" y2="18.17"/>
    <line x1="230.40" y1="14.49" x2="244.80" y2="21.51"/>
    <line x1="230.40" y1="17.83" x2="244.80" y2="24.85"/>
    <line x1="230.40" y1="21.16" x2="244.80" y2="28.19"/>
    <line x1="230.40" y1="24.50" x2="244.80" y2="31.53"/>
    <line x1="230.40" y1="27.84" x2="244.80" y2="34.86"/>
    <line x1="230.40" y1="31.18" x2="240.29" y2="36.00"/>
    <line x1="230.40" y1="34.52" x2="233.44" y2="36.00"/>
  </g>
  <g stroke="#6A4C93" stroke-width="1" fill="none" stroke-linecap="round">
    <line x1="244.80" y1="0.00" x2="259.20" y2="0.00"/>
    <line x1="259.20" y1="0.00" x2="259.20" y2="36.00"/>
    <line x1="259.20" y1="36.00" x2="244.80" y2="36.00"/>
    <line x1="244.80" y1="36.00" x2="244.80" y2="0.00"/>
    <line x1="244.80" y1="36.00" x2="245.91" y2="33.21"/>
    <line x1="245.91" y1="2.79" x2="258.09" y2="2.79"/>
    <line x1="258.09" y1="2.79" x2="258.09" y2="33.21"/>
    <line x1="258.09" y1="33.21" x2="245.91" y2="33.21"/>
    <line x1="245.91" y1="33.21" x2="245.91" y2="2.79"/>
    <line x1="245.91" y1="33.21" x2="247.03" y2="30.43"/>
    <line x1="247.03" y1="5.57" x2="256.97" y2="5.57"/>
    <line x1="256.97" y1="5.57" x2="256.97" y2="30.43"/>
    <line x1="256.97" y1="30.43" x2="247.03" y2="30.43"/>
    <line x1="247.03" y1="30.43" x2="247.03" y2="5.57"/>
    <line x1="247.03" y1="30.43" x2="248.14" y2="27.64"/>
    <line x1="248.14" y1="8.36" x2="255.86" y2="8.36"/>
    <line x1="255.86" y1="8.36" x2="255.86" y2="27.64"/>
    <line x1="255.86" y1="27.64" x2="248.14" y2="27.64"/>
    <line x1="248.14" y1="27.64" x2="248.14" y2="8.36"/>
    <line x1="248.14" y1="27.64" x2="249.26" y2="24.86"/>
    <line x1="249.26" y1="11.14" x2="254.74" y2="11.14"/>
    <line x1="254.74" y1="11.14" x2="254.74" y2="24.86"/>
    <line x1="254.74" y1="24.86" x2="249.26" y2="24.86"/>
    <line x1="249.26" y1="24.86" x2="249.26" y2="11.14"/>
    <line x1="249.26" y1="24.86" x2="250.37" y2="22.07"/>
    <line x1="250.37" y1="13.93" x2="253.63" y2="13.93"/>
    <line x1="253.63" y1="13.93" x2="253.63" y2="22.07"/>
    <line x1="253.63" y1="22.07" x2="250.37" y2="22.07"/>
    <line x1="250.37" y1="22.07" x2="250.37" y2="13.93"/>
  </g>
  <g stroke="#FEE440" stroke-width="1" fill="none" stroke-linecap="round">
    <line x1="271.98" y1="-0.00" x2="273.60" y2="4.45"/>
    <line x1="270.06" y1="0.00" x2="273.60" y2="9.71"/>
    <line x1="268.15" y1="-0.00" x2="273.60" y2="14.98"/>
    <line x1="261.76" y1="0.00" x2="273.60" y2="32.52"/>
    <line x1="259.85" y1="-0.00" x2="272.95" y2="36.00"/>
    <line x1="259.20" y1="3.48" x2="271.04" y2="36.00"/>
    <line x1="259.20" y1="21.02" x2="264.65" y2="36.00"/>
    <line x1="259.20" y1="26.29" x2="262.74" y2="36.00"/>
    <line x1="259.20" y1="31.55" x2="260.82" y2="36.00"/>
  </g>
  <g stroke="#9B5DE5" stroke-width="1" fill="none" stroke-linecap="round">
    <line x1="273.60" y1="0.00" x2="288.00" y2="0.00"/>
    <line x1="288.00" y1="0.00" x2="288.00" y2="36.00"/>
    <line x1="288.00" y1="36.00" x2="273.60" y2="36.00"/>
    <line x1="273.60" y1="36.00" x2="273.60" y2="0.00"/>
    <line x1="273.60" y1="36.00" x2="274.71" y2="33.21"/>
    <line x1="274.71" y1="2.79" x2="286.89" y2="2.79"/>
    <line x1="286.89" y1="2.79" x2="286.89" y2="33.21"/>
    <line x1="286.89" y1="33.21" x2="274.71" y2="33.21"/>
    <line x1="274.71" y1="33.21" x2="274.71" y2="2.79"/>
    <line x1="274.71" y1="33.21" x2="275.83" y2="30.43"/>
    <line x1="275.83" y1="5.57" x2="285.77" y2="5.57"/>
    <line x1="285.77" y1="5.57" x2="285.77" y2="30.43"/>
    <line x1="285.77" y1="30.43" x2="275.83" y2="30.43"/>
    <line x1="275.83" y1="30.43" x2="275.83" y2="5.57"/>
    <line x1="275.83" y1="30.43" x2="276.94" y2="27.64"/>
    <line x1="276.94" y1="8.36" x2="284.66" y2="8.36"/>
    <line x1="284.66" y1="8.36" x2="284.66" y2="27.64"/>
    <line x1="284.66" y1="27.64" x2="276.94" y2="27.64"/>
    <line x1="276.94" y1="27.64" x2="276.94" y2="8.36"/>
    <line x1="276.94" y1="27.64" x2="278.06" y2="24.86"/>
    <line x1="278.06" y1="11.14" x2="283.54" y2="11.14"/>
    <line x1="283.54" y1="11.14" x2="283.54" y2="24.86"/>
    <line x1="283.54" y1="24.86" x2="278.06" y2="24.86"/>
    <line x1="278.06" y1="24.86" x2="278.06" y2="11.14"/>
    <line x1="278.06" y1="24.86" x2="279.17" y2="22.07"/>
    <line x1="279.17" y1="13.93" x2="282.43" y2="13.93"/>
    <line x1="282.43" y1="13.93" x2="282.43" y2="22.07"/>
    <line x1="282.43" y1="22.07" x2="279.17" y2="22.07"/>
    <line x1="279.17" y1="22.07" x2="279.17" y2="13.93"/>
  </g>
  <g stroke="#F72585" stroke-width="1" fill="none" stroke-linecap="round">
    <line x1="288.00" y1="1.13" x2="302.40" y2="6.37"/>
    <line x1="288.00" y1="7.52" x2="302.40" y2="12.76"/>
    <line x1="288.00" y1="13.90" x2="302.40" y2="19.15"/>
    <line x1="288.00" y1="20.29" x2="302.40" y2="25.53"/>
    <line x1="288.00" y1="26.67" x2="302.40" y2="31.92"/>
    <line x1="288.00" y1="33.06" x2="296.08" y2="36.00"/>
    <line x1="293.89" y1="0.00" x2="288.00" y2="16.18"/>
    <line x1="300.28" y1="0.00" x2="288.00" y2="33.73"/>
    <line x1="302.40" y1="11.71" x2="293.56" y2="36.00"/>
    <line x1="302.40" y1="29.25" x2="299.94" y2="36.00"/>
  </g>
  <g stroke="#3A86FF" stroke-width="1" fill="none" stroke-linecap="round">
    <line x1="315.61" y1="0.00" x2="316.80" y2="1.07"/>
    <line x1="306.65" y1="0.00" x2="316.80" y2="9.14"/>
    <line x1="303.96" y1="0.00" x2="316.80" y2="11.56"/>
    <line x1="302.40" y1="1.02" x2="316.80" y2="13.99"/>
    <line x1="302.40" y1="9.09" x2="316.80" y2="22.06"/>
    <line x1="302.40" y1="11.52" x2="316.80" y2="24.48"/>
    <line x1="302.40" y1="13.94" x2="316.80" y2="26.91"/>
    <line x1="302.40" y1="22.01" x2="316.80" y2="34.98"/>
    <line x1="302.40" y1="24.44" x2="315.24" y2="36.00"/>
    <line x1="302.40" y1="26.86" x2="312.55" y2="36.00"/>
    <line x1="302.40" y1="34.93" x2="303.59" y2="36.00"/>
  </g>
  <g stroke="#F72585" stroke-width="1" fill="none" stroke-linecap="round">
    <line x1="328.23" y1="0.00" x2="331.20" y2="3.42"/>
    <line x1="324.25" y1="0.00" x2="331.20" y2="7.99"/>
    <line x1="320.28" y1="0.00" x2="331.20" y2="12.56"/>
    <line x1="316.80" y1="0.57" x2="331.20" y2="17.14"/>
    <line x1="316.80" y1="5.14" x2="331.20" y2="21.71"/>
    <line x1="316.80" y1="9.72" x2="331.20" y2="26.28"/>
    <line x1="316.80" y1="14.29" x2="331.20" y2="30.86"/>
    <line x1="316.80" y1="18.86" x2="331.20" y2="35.43"/>
    <line x1="316.80" y1="23.44" x2="327.72" y2="36.00"/>
    <line x1="316.80" y1="28.01" x2="323.75" y2="36.00"/>
    <line x1="316.80" y1="32.58" x2="319.77" y2="36.00"/>
    <line x1="331.20" y1="35.59" x2="330.73" y2="36.00"/>
    <line x1="331.20" y1="31.62" x2="326.16" y2="36.00"/>
    <line x1="331.20" y1="27.64" x2="321.58" y2="36.00"/>
    <line x1="331.20" y1="23.67" x2="317.01" y2="36.00"/>
    <line x1="331.20" y1="19.69" x2="316.80" y2="32.21"/>
    <line x1="331.20" y1="15.72" x2="316.80" y2="28.23"/>
    <line x1="331.20" y1="11.74" x2="316.80" y2="24.26"/>
    <line x1="331.20" y1="7.77" x2="316.80" y2="20.28"/>
    <line x1="331.20" y1="3.79" x2="316.80" y2="16.31"/>
    <line x1="330.99" y1="0.00" x2="316.80" y2="12.33"/>
    <line x1="326.42" y1="0.00" x2="316.80" y2="8.36"/>
    <line x1="321.84" y1="0.00" x2="316.80" y2="4.38"/>
    <line x1="317.27" y1="0.00" x2="316.80" y2="0.41"/>
  </g>
  <g stroke="#073B4C" stroke-width="1" fill="none" stroke-linecap="round">
    <line x1="331.20" y1="0.00" x2="345.60" y2="0.00"/>
    <line x1="345.60" y1="0.00" x2="345.60" y2="36.00"/>
    <line x1="345.60" y1="36.00" x2="331.20" y2="36.00"/>
    <line x1="331.20" y1="36.00" x2="331.20" y2="0.00"/>
    <line x1="331.20" y1="36.00" x2="332.31" y2="33.21"/>
    <line x1="332.31" y1="2.79" x2="344.49" y2="2.79"/>
    <line x1="344.49" y1="2.79" x2="344.49" y2="33.21"/>
    <line x1="344.49" y1="33.21" x2="332.31" y2="33.21"/>
    <line x1="332.31" y1="33.21" x2="332.31" y2="2.79"/>
    <line x1="332.31" y1="33.21" x2="333.43" y2="30.43"/>
    <line x1="333.43" y1="5.57" x2="343.37" y2="5.57"/>
    <line x1="343.37" y1="5.57" x2="343.37" y2="30.43"/>
    <line x1="343.37" y1="30.43" x2="333.43" y2="30.43"/>
    <line x1="333.43" y1="30.43" x2="333.43" y2="5.57"/>
    <line x1="333.43" y1="30.43" x2="334.54" y2="27.64"/>
    <line x1="334.54" y1="8.36" x2="342.26" y2="8.36"/>
    <line x1="342.26" y1="8.36" x2="342.26" y2="27.64"/>
    <line x1="342.26" y1="27.64" x2="334.54" y2="27.64"/>
    <line x1="334.54" y1="27.64" x2="334.54" y2="8.36"/>
    <line x1="334.54" y1="27.64" x2="335.66" y2="24.86"/>
    <line x1="335.66" y1="11.14" x2="341.14" y2="11.14"/>
    <line x1="341.14" y1="11.14" x2="341.14" y2="24.86"/>
    <line x1="341.14" y1="24.86" x2="335.66" y2="24.86"/>
    <line x1="335.66" y1="24.86" x2="335.66" y2="11.14"/>
    <line x1="335.66" y1="24.86" x2="336.77" y2="22.07"/>
    <line x1="336.77" y1="13.93" x2="340.03" y2="13.93"/>
    <line x1="340.03" y1="13.93" x2="340.03" y2="22.07"/>
    <line x1="340.03" y1="22.07" x2="336.77" y2="22.07"/>
    <line x1="336.77" y1="22.07" x2="336.77" y2="13.93"/>
  </g>
  <g stroke="#FEE440" stroke-width="1" fill="none" stroke-linecap="round">
    <line x1="358.13" y1="0.00" x2="360.00" y2="1.21"/>
    <line x1="352.62" y1="-0.00" x2="360.00" y2="4.79"/>
    <line x1="347.12" y1="0.00" x2="360.00" y2="8.37"/>
    <line x1="345.60" y1="2.59" x2="360.00" y2="11.94"/>
    <line x1="345.60" y1="6.17" x2="360.00" y2="15.52"/>
    <line x1="345.60" y1="9.75" x2="360.00" y2="19.10"/>
    <line x1="345.60" y1="13.32" x2="360.00" y2="22.68"/>
    <line x1="345.60" y1="16.90" x2="360.00" y2="26.25"/>
    <line x1="345.60" y1="20.48" x2="360.00" y2="29.83"/>
    <line x1="345.60" y1="24.06" x2="360.00" y2="33.41"/>
    <line x1="345.60" y1="27.63" x2="358.48" y2="36.00"/>
    <line x1="345.60" y1="31.21" x2="352.98" y2="36.00"/>
    <line x1="345.60" y1="34.79" x2="347.47" y2="36.00"/>
  </g>
  <g stroke="#F15BB5" stroke-width="1" fill="none" stroke-linecap="round">
    <line x1="374.40" y1="23.44" x2="368.86" y2="21.31"/>
    <line x1="368.85" y1="36.00" x2="370.69" y2="31.23"/>
    <line x1="374.40" y1="1.90" x2="369.44" y2="0.00"/>
    <line x1="363.97" y1="26.40" x2="370.43" y2="9.60"/>
    <line x1="364.96" y1="36.00" x2="360.00" y2="34.10"/>
    <line x1="363.71" y1="4.77" x2="365.55" y2="0.00"/>
    <line x1="365.54" y1="14.69" x2="360.00" y2="12.56"/>
  </g>
  <g stroke="#7209B7" stroke-width="1" fill="none" stroke-linecap="round">
    <line x1="384.94" y1="36.00" x2="384.91" y2="35.94"/>
    <line x1="381.91" y1="36.00" x2="381.91" y2="36.00"/>
    <line x1="386.46" y1="36.00" x2="384.86" y2="32.95"/>
    <line x1="381.86" y1="33.00" x2="380.43" y2="36.00"/>
    <line x1="387.91" y1="35.89" x2="384.81" y2="29.95"/>
    <line x1="381.81" y1="30.00" x2="378.94" y2="36.00"/>
    <line x1="375.86" y1="36.00" x2="374.40" y2="33.20"/>
    <line x1="387.86" y1="32.89" x2="384.76" y2="26.95"/>
    <line x1="381.76" y1="27.00" x2="378.86" y2="33.05"/>
    <line x1="375.86" y1="33.10" x2="374.40" y2="30.30"/>
    <line x1="387.81" y1="29.89" x2="384.70" y2="23.95"/>
    <line x1="381.70" y1="24.00" x2="378.81" y2="30.05"/>
    <line x1="375.81" y1="30.10" x2="374.40" y2="27.40"/>
    <line x1="387.76" y1="26.89" x2="384.65" y2="20.95"/>
    <line x1="381.65" y1="21.00" x2="378.76" y2="27.05"/>
    <line x1="375.76" y1="27.10" x2="374.40" y2="24.50"/>
    <line x1="387.70" y1="23.89" x2="384.60" y2="17.95"/>
    <line x1="381.60" y1="18.00" x2="378.71" y2="24.05"/>
    <line x1="375.71" y1="24.10" x2="374.40" y2="21.60"/>
    <line x1="387.65" y1="20.89" x2="384.55" y2="14.95"/>
    <line x1="381.55" y1="15.00" x2="378.65" y2="21.05"/>
    <line x1="375.65" y1="21.10" x2="374.40" y2="18.70"/>
    <line x1="387.60" y1="17.90" x2="384.49" y2="11.95"/>
    <line x1="381.50" y1="12.00" x2="378.60" y2="18.05"/>
    <line x1="375.60" y1="18.10" x2="374.40" y2="15.80"/>
    <line x1="387.55" y1="14.90" x2="384.44" y2="8.95"/>
    <line x1="381.44" y1="9.00" x2="378.55" y2="15.05"/>
    <line x1="375.55" y1="15.11" x2="374.40" y2="12.90"/>
    <line x1="387.49" y1="11.90" x2="384.39" y2="5.95"/>
    <line x1="381.39" y1="6.00" x2="378.50" y2="12.05"/>
    <line x1="375.50" y1="12.11" x2="374.40" y2="10.01"/>
    <line x1="387.44" y1="8.90" x2="384.34" y2="2.95"/>
    <line x1="381.34" y1="3.00" x2="378.44" y2="9.05"/>
    <line x1="375.44" y1="9.11" x2="374.40" y2="7.11"/>
    <line x1="387.39" y1="5.90" x2="384.31" y2="0.00"/>
    <line x1="381.29" y1="0.00" x2="378.39" y2="6.05"/>
    <line x1="375.39" y1="6.11" x2="374.40" y2="4.21"/>
    <line x1="387.34" y1="2.90" x2="385.82" y2="0.00"/>
    <line x1="379.80" y1="0.00" x2="378.34" y2="3.05"/>
    <line x1="375.34" y1="3.11" x2="374.40" y2="1.31"/>
    <line x1="378.31" y1="0.00" x2="378.29" y2="0.06"/>
    <line x1="375.29" y1="0.11" x2="375.23" y2="0.00"/>
  </g>
  <g stroke="#E63946" stroke-width="1" fill="none" stroke-linecap="round">
    <line x1="403.20" y1="34.71" x2="398.37" y2="36.00"/>
    <line x1="403.20" y1="31.60" x2="388.80" y2="35.46"/>
    <line x1="403.20" y1="28.49" x2="388.80" y2="32.35"/>
    <line x1="403.20" y1="25.39" x2="388.80" y2="29.25"/>
    <line x1="403.20" y1="22.28" x2="388.80" y2="26.14"/>
    <line x1="403.20" y1="19.18" x2="388.80" y2="23.04"/>
    <line x1="403.20" y1="16.07" x2="388.80" y2="19.93"/>
    <line x1="403.20" y1="12.96" x2="388.80" y2="16.82"/>
    <line x1="403.20" y1="9.86" x2="388.80" y2="13.72"/>
    <line x1="403.20" y1="6.75" x2="388.80" y2="10.61"/>
    <line x1="403.20" y1="3.65" x2="388.80" y2="7.51"/>
    <line x1="403.20" y1="0.54" x2="388.80" y2="4.40"/>
    <line x1="393.63" y1="0.00" x2="388.80" y2="1.29"/>
  </g>
  <g stroke="#264653" stroke-width="1" fill="none" stroke-linecap="round">
    <line x1="412.21" y1="0.00" x2="417.60" y2="5.99"/>
    <line x1="404.13" y1="0.00" x2="417.60" y2="14.96"/>
    <line x1="403.20" y1="7.93" x2="417.60" y2="23.92"/>
    <line x1="403.20" y1="16.90" x2="417.60" y2="32.89"/>
    <line x1="403.20" y1="25.87" x2="412.33" y2="36.00"/>
    <line x1="403.20" y1="34.83" x2="404.25" y2="36.00"/>
    <line x1="410.39" y1="0.00" x2="403.20" y2="6.47"/>
    <line x1="417.60" y1="1.58" x2="403.20" y2="14.54"/>
    <line x1="417.60" y1="9.65" x2="403.20" y2="22.62"/>
    <line x1="417.60" y1="17.73" x2="403.20" y2="30.69"/>
    <line x1="417.60" y1="25.80" x2="406.27" y2="36.00"/>
    <line x1="417.60" y1="33.87" x2="415.24" y2="36.00"/>
  </g>
  <g stroke="#F4A261" stroke-width="1" fill="none" stroke-linecap="round">
    <line x1="430.30" y1="0.00" x2="432.00" y2="1.14"/>
    <line x1="424.94" y1="0.00" x2="432.00" y2="4.76"/>
    <line x1="419.57" y1="0.00" x2="432.00" y2="8.38"/>
    <line x1="417.60" y1="2.29" x2="432.00" y2="12.00"/>
    <line x1="417.60" y1="5.91" x2="432.00" y2="15.62"/>
    <line x1="417.60" y1="9.52" x2="432.00" y2="19.24"/>
    <line x1="417.60" y1="13.14" x2="432.00" y2="22.86"/>
    <line x1="417.60" y1="16.76" x2="432.00" y2="26.48"/>
    <line x1="417.60" y1="20.38" x2="432.00" y2="30.09"/>
    <line x1="417.60" y1="24.00" x2="432.00" y2="33.71"/>
    <line x1="417.60" y1="27.62" x2="430.03" y2="36.00"/>
    <line x1="417.60" y1="31.24" x2="424.66" y2="36.00"/>
    <line x1="417.60" y1="34.86" x2="419.30" y2="36.00"/>
    <line x1="432.00" y1="34.15" x2="430.75" y2="36.00"/>
    <line x1="432.00" y1="28.79" x2="427.13" y2="36.00"/>
    <line x1="432.00" y1="23.42" x2="423.51" y2="36.00"/>
    <line x1="432.00" y1="18.06" x2="419.90" y2="36.00"/>
    <line x1="432.00" y1="12.69" x2="417.60" y2="34.04"/>
    <line x1="432.00" y1="7.33" x2="417.60" y2="28.67"/>
    <line x1="432.00" y1="1.96" x2="417.60" y2="23.31"/>
    <line x1="429.70" y1="0.00" x2="417.60" y2="17.94"/>
    <line x1="426.09" y1="0.00" x2="417.60" y2="12.58"/>
    <line x1="422.47" y1="0.00" x2="417.60" y2="7.21"/>
    <line x1="418.85" y1="0.00" x2="417.60" y2="1.85"/>
  </g>
  <g stroke="#F4A261" stroke-width="1" fill="none" stroke-linecap="round">
    <line x1="443.02" y1="1.46" x2="446.40" y2="1.14"/>
    <line x1="439.20" y1="0.00" x2="438.88" y2="0.51"/>
    <line x1="440.47" y1="3.05" x2="446.40" y2="2.49"/>
    <line x1="446.40" y1="8.79" x2="445.24" y2="10.69"/>
    <line x1="437.62" y1="-0.00" x2="436.34" y2="2.10"/>
    <line x1="437.93" y1="4.64" x2="444.61" y2="4.01"/>
    <line x1="446.20" y1="6.55" x2="442.70" y2="12.28"/>
    <line x1="444.29" y1="14.82" x2="446.40" y2="14.62"/>
    <line x1="436.05" y1="0.00" x2="433.80" y2="3.69"/>
    <line x1="435.39" y1="6.23" x2="442.06" y2="5.60"/>
    <line x1="443.65" y1="8.14" x2="440.15" y2="13.87"/>
    <line x1="441.74" y1="16.41" x2="446.40" y2="15.97"/>
    <line x1="434.48" y1="-0.00" x2="432.00" y2="4.05"/>
    <line x1="432.84" y1="7.82" x2="439.52" y2="7.19"/>
    <line x1="441.11" y1="9.73" x2="437.61" y2="15.46"/>
    <line x1="439.20" y1="18.00" x2="445.88" y2="17.36"/>
    <line x1="446.40" y1="21.66" x2="443.97" y2="25.63"/>
    <line x1="445.56" y1="28.18" x2="446.40" y2="28.10"/>
    <line x1="432.21" y1="1.15" x2="432.00" y2="1.48"/>
    <line x1="432.00" y1="9.25" x2="436.97" y2="8.78"/>
    <line x1="438.56" y1="11.32" x2="435.07" y2="17.05"/>
    <line x1="436.66" y1="19.59" x2="443.33" y2="18.95"/>
    <line x1="444.92" y1="21.50" x2="441.43" y2="27.22"/>
    <line x1="443.01" y1="29.77" x2="446.40" y2="29.44"/>
    <line x1="432.00" y1="10.60" x2="434.43" y2="10.37"/>
    <line x1="436.02" y1="12.91" x2="432.52" y2="18.64"/>
    <line x1="434.11" y1="21.18" x2="440.79" y2="20.54"/>
    <line x1="442.38" y1="23.09" x2="438.88" y2="28.81"/>
    <line x1="440.47" y1="31.36" x2="446.40" y2="30.79"/>
    <line x1="433.48" y1="14.50" x2="432.00" y2="16.92"/>
    <line x1="432.00" y1="22.73" x2="438.25" y2="22.13"/>
    <line x1="439.84" y1="24.68" x2="436.34" y2="30.40"/>
    <line x1="437.93" y1="32.95" x2="444.60" y2="32.31"/>
    <line x1="446.19" y1="34.85" x2="445.49" y2="36.00"/>
    <line x1="432.00" y1="24.08" x2="435.70" y2="23.72"/>
    <line x1="437.29" y1="26.27" x2="433.79" y2="31.99"/>
    <line x1="435.38" y1="34.54" x2="442.06" y2="33.90"/>
    <line x1="432.00" y1="25.42" x2="433.16" y2="25.31"/>
    <line x1="434.75" y1="27.86" x2="432.00" y2="32.35"/>
    <line x1="434.16" y1="36.00" x2="439.52" y2="35.49"/>
    <line x1="432.20" y1="29.45" x2="432.00" y2="29.78"/>
  </g>
  <g stroke="#FB5607" stroke-width="1" fill="none" stroke-linecap="round">
    <line x1="458.73" y1="36.00" x2="458.47" y2="35.59"/>
    <line x1="455.48" y1="35.90" x2="455.44" y2="36.00"/>
    <line x1="460.32" y1="36.00" x2="458.15" y2="32.60"/>
    <line x1="455.17" y1="32.92" x2="454.01" y2="36.00"/>
    <line x1="447.58" y1="36.00" x2="446.40" y2="34.14"/>
    <line x1="460.80" y1="34.26" x2="457.84" y2="29.62"/>
    <line x1="454.85" y1="29.93" x2="452.58" y2="36.00"/>
    <line x1="449.18" y1="36.00" x2="446.40" y2="31.65"/>
    <line x1="460.80" y1="31.77" x2="457.52" y2="26.64"/>
    <line x1="454.54" y1="26.95" x2="452.18" y2="33.23"/>
    <line x1="449.20" y1="33.54" x2="446.40" y2="29.16"/>
    <line x1="460.80" y1="29.27" x2="457.21" y2="23.65"/>
    <line x1="454.23" y1="23.97" x2="451.87" y2="30.25"/>
    <line x1="448.89" y1="30.56" x2="446.40" y2="26.67"/>
    <line x1="460.51" y1="26.32" x2="456.90" y2="20.67"/>
    <line x1="453.91" y1="20.98" x2="451.56" y2="27.26"/>
    <line x1="448.57" y1="27.58" x2="446.40" y2="24.17"/>
    <line x1="460.19" y1="23.34" x2="456.58" y2="17.69"/>
    <line x1="453.60" y1="18.00" x2="451.24" y2="24.28"/>
    <line x1="448.26" y1="24.59" x2="446.40" y2="21.68"/>
    <line x1="459.88" y1="20.36" x2="456.27" y2="14.70"/>
    <line x1="453.29" y1="15.02" x2="450.93" y2="21.30"/>
    <line x1="447.95" y1="21.61" x2="446.40" y2="19.19"/>
    <line x1="459.57" y1="17.37" x2="455.96" y2="11.72"/>
    <line x1="452.97" y1="12.03" x2="450.62" y2="18.31"/>
    <line x1="447.63" y1="18.63" x2="446.40" y2="16.70"/>
    <line x1="459.25" y1="14.39" x2="455.64" y2="8.74"/>
    <line x1="452.66" y1="9.05" x2="450.30" y2="15.33"/>
    <line x1="447.32" y1="15.64" x2="446.40" y2="14.20"/>
    <line x1="458.94" y1="11.41" x2="455.33" y2="5.75"/>
    <line x1="452.35" y1="6.07" x2="449.99" y2="12.35"/>
    <line x1="447.01" y1="12.66" x2="446.40" y2="11.71"/>
    <line x1="458.63" y1="8.42" x2="455.02" y2="2.77"/>
    <line x1="452.03" y1="3.08" x2="449.68" y2="9.36"/>
    <line x1="446.69" y1="9.68" x2="446.40" y2="9.22"/>
    <line x1="458.31" y1="5.44" x2="454.84" y2="0.00"/>
    <line x1="451.72" y1="0.10" x2="449.36" y2="6.38"/>
    <line x1="458.00" y1="2.46" x2="456.43" y2="0.00"/>
    <line x1="450.32" y1="0.00" x2="449.05" y2="3.40"/>
    <line x1="448.89" y1="0.00" x2="448.73" y2="0.41"/>
  </g>
  <g stroke="#00B4D8" stroke-width="1" fill="none" stroke-linecap="round">
    <line x1="471.52" y1="36.00" x2="472.89" y2="20.31"/>
    <line x1="460.80" y1="35.92" x2="461.67" y2="36.00"/>
    <line x1="460.80" y1="17.37" x2="475.20" y2="18.63"/>
    <line x1="474.33" y1="0.00" x2="475.20" y2="0.08"/>
    <line x1="463.11" y1="15.69" x2="464.48" y2="0.00"/>
  </g>
  <g stroke="#F72585" stroke-width="1" fill="none" stroke-linecap="round">
    <line x1="487.78" y1="-0.00" x2="489.60" y2="8.59"/>
    <line x1="484.71" y1="0.00" x2="489.60" y2="23.01"/>
    <line x1="481.64" y1="0.00" x2="489.29" y2="36.00"/>
    <line x1="478.57" y1="0.00" x2="486.23" y2="36.00"/>
    <line x1="475.51" y1="-0.00" x2="483.16" y2="36.00"/>
    <line x1="475.20" y1="12.99" x2="480.09" y2="36.00"/>
    <line x1="475.20" y1="27.41" x2="477.02" y2="36.00"/>
    <line x1="489.60" y1="34.87" x2="484.29" y2="36.00"/>
    <line x1="489.60" y1="31.80" x2="475.20" y2="34.87"/>
    <line x1="489.60" y1="28.74" x2="475.20" y2="31.80"/>
    <line x1="489.60" y1="25.67" x2="475.20" y2="28.73"/>
    <line x1="489.60" y1="22.60" x2="475.20" y2="25.66"/>
    <line x1="489.60" y1="19.54" x2="475.20" y2="22.60"/>
    <line x1="489.60" y1="16.47" x2="475.20" y2="19.53"/>
    <line x1="489.60" y1="13.40" x2="475.20" y2="16.46"/>
    <line x1="489.60" y1="10.34" x2="475.20" y2="13.40"/>
    <line x1="489.60" y1="7.27" x2="475.20" y2="10.33"/>
    <line x1="489.60" y1="4.20" x2="475.20" y2="7.26"/>
    <line x1="489.60" y1="1.13" x2="475.20" y2="4.20"/>
    <line x1="480.51" y1="-0.00" x2="475.20" y2="1.13"/>
  </g>
  <g stroke="#E9C46A" stroke-width="1" fill="none" stroke-linecap="round">
    <line x1="503.64" y1="3.06" x2="504.00" y2="4.00"/>
    <line x1="489.60" y1="9.69" x2="490.22" y2="11.31"/>
    <line x1="504.00" y1="15.24" x2="489.60" y2="20.76"/>
    <line x1="503.38" y1="24.69" x2="504.00" y2="26.31"/>
    <line x1="489.60" y1="32.00" x2="489.96" y2="32.94"/>
  </g>
  <g stroke="#073B4C" stroke-width="1" fill="none" stroke-linecap="round">
    <line x1="518.40" y1="35.28" x2="504.00" y2="35.53"/>
    <line x1="518.40" y1="29.28" x2="504.00" y2="29.53"/>
    <line x1="518.40" y1="27.48" x2="504.00" y2="27.73"/>
    <line x1="518.40" y1="25.68" x2="504.00" y2="25.93"/>
    <line x1="518.40" y1="19.67" x2="504.00" y2="19.93"/>
    <line x1="518.40" y1="17.87" x2="504.00" y2="18.13"/>
    <line x1="518.40" y1="16.07" x2="504.00" y2="16.33"/>
    <line x1="518.40" y1="10.07" x2="504.00" y2="10.32"/>
    <line x1="518.40" y1="8.27" x2="504.00" y2="8.52"/>
    <line x1="518.40" y1="6.47" x2="504.00" y2="6.72"/>
    <line x1="518.40" y1="0.47" x2="504.00" y2="0.72"/>
  </g>
  <g stroke="#F4A261" stroke-width="1" fill="none" stroke-linecap="round">
    <line x1="532.04" y1="-0.00" x2="532.80" y2="1.22"/>
    <line x1="528.50" y1="0.00" x2="532.80" y2="6.88"/>
    <line x1="524.96" y1="-0.00" x2="532.80" y2="12.54"/>
    <line x1="521.43" y1="0.00" x2="532.80" y2="18.20"/>
    <line x1="518.40" y1="0.82" x2="532.80" y2="23.86"/>
    <line x1="518.40" y1="6.48" x2="532.80" y2="29.52"/>
    <line x1="518.40" y1="12.14" x2="532.80" y2="35.18"/>
    <line x1="518.40" y1="17.80" x2="529.77" y2="36.00"/>
    <line x1="518.40" y1="23.46" x2="526.24" y2="36.00"/>
    <line x1="518.40" y1="29.12" x2="522.70" y2="36.00"/>
    <line x1="518.40" y1="34.78" x2="519.16" y2="36.00"/>
    <line x1="532.80" y1="34.73" x2="530.76" y2="36.00"/>
    <line x1="532.80" y1="31.19" x2="525.10" y2="36.00"/>
    <line x1="532.80" y1="27.65" x2="519.44" y2="36.00"/>
    <line x1="532.80" y1="24.11" x2="518.40" y2="33.11"/>
    <line x1="532.80" y1="20.58" x2="518.40" y2="29.57"/>
    <line x1="532.80" y1="17.04" x2="518.40" y2="26.04"/>
    <line x1="532.80" y1="13.50" x2="518.40" y2="22.50"/>
    <line x1="532.80" y1="9.96" x2="518.40" y2="18.96"/>
    <line x1="532.80" y1="6.43" x2="518.40" y2="15.42"/>
    <line x1="532.80" y1="2.89" x2="518.40" y2="11.89"/>
    <line x1="531.76" y1="0.00" x2="518.40" y2="8.35"/>
    <line x1="526.10" y1="0.00" x2="518.40" y2="4.81"/>
    <line x1="520.44" y1="0.00" x2="518.40" y2="1.27"/>
  </g>
  <g stroke="#FEE440" stroke-width="1" fill="none" stroke-linecap="round">
    <line x1="547.20" y1="35.02" x2="545.85" y2="36.00"/>
    <line x1="547.20" y1="31.31" x2="540.74" y2="36.00"/>
    <line x1="547.20" y1="27.60" x2="535.64" y2="36.00"/>
    <line x1="547.20" y1="23.89" x2="532.80" y2="34.36"/>
    <line x1="547.20" y1="20.19" x2="532.80" y2="30.65"/>
    <line x1="547.20" y1="16.48" x2="532.80" y2="26.94"/>
    <line x1="547.20" y1="12.77" x2="532.80" y2="23.23"/>
    <line x1="547.20" y1="9.06" x2="532.80" y2="19.52"/>
    <line x1="547.20" y1="5.35" x2="532.80" y2="15.81"/>
    <line x1="547.20" y1="1.64" x2="532.80" y2="12.11"/>
    <line x1="544.36" y1="0.00" x2="532.80" y2="8.40"/>
    <line x1="539.26" y1="-0.00" x2="532.80" y2="4.69"/>
    <line x1="534.15" y1="-0.00" x2="532.80" y2="0.98"/>
    <line x1="534.54" y1="36.00" x2="532.80" y2="33.61"/>
    <line x1="538.24" y1="36.00" x2="532.80" y2="28.51"/>
    <line x1="541.95" y1="36.00" x2="532.80" y2="23.40"/>
    <line x1="545.66" y1="36.00" x2="532.80" y2="18.30"/>
    <line x1="547.20" y1="33.01" x2="532.80" y2="13.19"/>
    <line x1="547.20" y1="27.91" x2="532.80" y2="8.09"/>
    <line x1="547.20" y1="22.81" x2="532.80" y2="2.99"/>
    <line x1="547.20" y1="17.70" x2="534.34" y2="0.00"/>
    <line x1="547.20" y1="12.60" x2="538.05" y2="0.00"/>
    <line x1="547.20" y1="7.49" x2="541.76" y2="0.00"/>
    <line x1="547.20" y1="2.39" x2="545.46" y2="0.00"/>
  </g>
  <g stroke="#F72585" stroke-width="1" fill="none" stroke-linecap="round">
    <line x1="561.60" y1="29.29" x2="550.86" y2="36.00"/>
    <line x1="561.60" y1="22.21" x2="547.20" y2="31.21"/>
    <line x1="561.60" y1="15.14" x2="547.20" y2="24.13"/>
    <line x1="561.60" y1="8.06" x2="547.20" y2="17.06"/>
    <line x1="561.60" y1="0.99" x2="547.20" y2="9.98"/>
    <line x1="551.86" y1="0.00" x2="547.20" y2="2.91"/>
    <line x1="561.60" y1="4.26" x2="558.94" y2="0.00"/>
    <line x1="561.60" y1="15.58" x2="551.86" y2="0.00"/>
    <line x1="561.60" y1="26.91" x2="547.20" y2="3.86"/>
    <line x1="560.21" y1="36.00" x2="547.20" y2="15.18"/>
    <line x1="553.13" y1="36.00" x2="547.20" y2="26.51"/>
  </g>
  <g stroke="#2A9D8F" stroke-width="1" fill="none" stroke-linecap="round">
    <line x1="561.87" y1="0.00" x2="576.00" y2="6.59"/>
    <line x1="561.60" y1="6.49" x2="576.00" y2="13.21"/>
    <line x1="561.60" y1="13.11" x2="576.00" y2="19.83"/>
    <line x1="561.60" y1="19.73" x2="576.00" y2="26.45"/>
    <line x1="561.60" y1="26.35" x2="576.00" y2="33.07"/>
    <line x1="561.60" y1="32.97" x2="568.09" y2="36.00"/>
    <line x1="562.42" y1="0.00" x2="561.60" y2="1.77"/>
    <line x1="569.04" y1="0.00" x2="561.60" y2="15.96"/>
    <line x1="575.66" y1="-0.00" x2="561.60" y2="30.16"/>
    <line x1="576.00" y1="13.48" x2="565.50" y2="36.00"/>
    <line x1="576.00" y1="27.67" x2="572.12" y2="36.00"/>
  </g>
  <g stroke="#FFCA3A" stroke-width="1" fill="none" stroke-linecap="round">
    <line x1="584.77" y1="0.07" x2="584.81" y2="0.00"/>
    <line x1="580.41" y1="0.00" x2="581.52" y2="2.80"/>
    <line x1="584.51" y1="3.06" x2="586.39" y2="0.00"/>
    <line x1="578.97" y1="0.00" x2="581.26" y2="5.78"/>
    <line x1="584.25" y1="6.05" x2="587.76" y2="0.33"/>
    <line x1="578.53" y1="2.53" x2="581.00" y2="8.77"/>
    <line x1="583.98" y1="9.03" x2="587.50" y2="3.32"/>
    <line x1="578.27" y1="5.52" x2="580.73" y2="11.76"/>
    <line x1="583.72" y1="12.02" x2="587.23" y2="6.31"/>
    <line x1="590.22" y1="6.57" x2="590.40" y2="7.02"/>
    <line x1="578.01" y1="8.51" x2="580.47" y2="14.75"/>
    <line x1="583.46" y1="15.01" x2="586.97" y2="9.30"/>
    <line x1="589.96" y1="9.56" x2="590.40" y2="10.67"/>
    <line x1="577.75" y1="11.50" x2="580.21" y2="17.74"/>
    <line x1="583.20" y1="18.00" x2="586.71" y2="12.28"/>
    <line x1="589.70" y1="12.55" x2="590.40" y2="14.32"/>
    <line x1="577.48" y1="14.49" x2="579.95" y2="20.73"/>
    <line x1="582.94" y1="20.99" x2="586.45" y2="15.27"/>
    <line x1="589.44" y1="15.53" x2="590.40" y2="17.97"/>
    <line x1="577.22" y1="17.48" x2="579.69" y2="23.72"/>
    <line x1="582.68" y1="23.98" x2="586.19" y2="18.26"/>
    <line x1="589.18" y1="18.52" x2="590.40" y2="21.62"/>
    <line x1="576.96" y1="20.47" x2="579.43" y2="26.70"/>
    <line x1="582.42" y1="26.97" x2="585.93" y2="21.25"/>
    <line x1="588.92" y1="21.51" x2="590.40" y2="25.27"/>
    <line x1="576.70" y1="23.45" x2="579.17" y2="29.69"/>
    <line x1="582.15" y1="29.95" x2="585.67" y2="24.24"/>
    <line x1="588.65" y1="24.50" x2="590.40" y2="28.92"/>
    <line x1="576.44" y1="26.44" x2="578.90" y2="32.68"/>
    <line x1="581.89" y1="32.94" x2="585.40" y2="27.23"/>
    <line x1="588.39" y1="27.49" x2="590.40" y2="32.57"/>
    <line x1="576.18" y1="29.43" x2="578.64" y2="35.67"/>
    <line x1="581.63" y1="35.93" x2="585.14" y2="30.22"/>
    <line x1="588.13" y1="30.48" x2="590.31" y2="36.00"/>
    <line x1="576.00" y1="32.63" x2="577.33" y2="36.00"/>
    <line x1="583.16" y1="36.00" x2="584.88" y2="33.20"/>
    <line x1="587.87" y1="33.47" x2="588.87" y2="36.00"/>
  </g>
  <g stroke="#6A4C93" stroke-width="1" fill="none" stroke-linecap="round">
    <line x1="597.61" y1="0.00" x2="604.80" y2="6.47"/>
    <line x1="590.40" y1="1.58" x2="604.80" y2="14.54"/>
    <line x1="590.40" y1="9.65" x2="604.80" y2="22.62"/>
    <line x1="590.40" y1="17.73" x2="604.80" y2="30.69"/>
    <line x1="590.40" y1="25.80" x2="601.73" y2="36.00"/>
    <line x1="590.40" y1="33.87" x2="592.76" y2="36.00"/>
    <line x1="595.79" y1="0.00" x2="590.40" y2="5.99"/>
    <line x1="603.87" y1="0.00" x2="590.40" y2="14.96"/>
    <line x1="604.80" y1="7.93" x2="590.40" y2="23.92"/>
    <line x1="604.80" y1="16.90" x2="590.40" y2="32.89"/>
    <line x1="604.80" y1="25.87" x2="595.67" y2="36.00"/>
    <line x1="604.80" y1="34.83" x2="603.75" y2="36.00"/>
  </g>
  <g stroke="#4CC9F0" stroke-width="1" fill="none" stroke-linecap="round">
    <line x1="619.20" y1="27.59" x2="613.31" y2="36.00"/>
    <line x1="619.20" y1="24.45" x2="611.12" y2="36.00"/>
    <line x1="619.20" y1="21.32" x2="608.92" y2="36.00"/>
    <line x1="619.20" y1="10.86" x2="604.80" y2="31.42"/>
    <line x1="619.20" y1="7.72" x2="604.80" y2="28.28"/>
    <line x1="619.20" y1="4.58" x2="604.80" y2="25.14"/>
    <line x1="615.08" y1="-0.00" x2="604.80" y2="14.68"/>
    <line x1="612.88" y1="0.00" x2="604.80" y2="11.55"/>
    <line x1="610.69" y1="-0.00" x2="604.80" y2="8.41"/>
  </g>
  <g stroke="#EF476F" stroke-width="1" fill="none" stroke-linecap="round">
    <line x1="619.20" y1="0.00" x2="633.60" y2="0.00"/>
    <line x1="619.20" y1="3.00" x2="633.60" y2="3.00"/>
    <line x1="619.20" y1="6.00" x2="633.60" y2="6.00"/>
    <line x1="619.20" y1="9.00" x2="633.60" y2="9.00"/>
    <line x1="619.20" y1="12.00" x2="633.60" y2="12.00"/>
    <line x1="619.20" y1="15.00" x2="633.60" y2="15.00"/>
    <line x1="619.20" y1="18.00" x2="633.60" y2="18.00"/>
    <line x1="619.20" y1="21.00" x2="633.60" y2="21.00"/>
    <line x1="619.20" y1="24.00" x2="633.60" y2="24.00"/>
    <line x1="619.20" y1="27.00" x2="633.60" y2="27.00"/>
    <line x1="619.20" y1="30.00" x2="633.60" y2="30.00"/>
    <line x1="619.20" y1="33.00" x2="633.60" y2="33.00"/>
    <line x1="632.40" y1="0.00" x2="632.40" y2="36.00"/>
    <line x1="629.40" y1="0.00" x2="629.40" y2="36.00"/>
    <line x1="626.40" y1="0.00" x2="626.40" y2="36.00"/>
    <line x1="623.40" y1="0.00" x2="623.40" y2="36.00"/>
    <line x1="620.40" y1="0.00" x2="620.40" y2="36.00"/>
  </g>
  <g stroke="#F15BB5" stroke-width="1" fill="none" stroke-linecap="round">
    <line x1="633.60" y1="0.00" x2="648.00" y2="0.00"/>
    <line x1="648.00" y1="0.00" x2="648.00" y2="36.00"/>
    <line x1="648.00" y1="36.00" x2="633.60" y2="36.00"/>
    <line x1="633.60" y1="36.00" x2="633.60" y2="0.00"/>
    <line x1="633.60" y1="36.00" x2="634.71" y2="33.21"/>
    <line x1="634.71" y1="2.79" x2="646.89" y2="2.79"/>
    <line x1="646.89" y1="2.79" x2="646.89" y2="33.21"/>
    <line x1="646.89" y1="33.21" x2="634.71" y2="33.21"/>
    <line x1="634.71" y1="33.21" x2="634.71" y2="2.79"/>
    <line x1="634.71" y1="33.21" x2="635.83" y2="30.43"/>
    <line x1="635.83" y1="5.57" x2="645.77" y2="5.57"/>
    <line x1="645.77" y1="5.57" x2="645.77" y2="30.43"/>
    <line x1="645.77" y1="30.43" x2="635.83" y2="30.43"/>
    <line x1="635.83" y1="30.43" x2="635.83" y2="5.57"/>
    <line x1="635.83" y1="30.43" x2="636.94" y2="27.64"/>
    <line x1="636.94" y1="8.36" x2="644.66" y2="8.36"/>
    <line x1="644.66" y1="8.36" x2="644.66" y2="27.64"/>
    <line x1="644.66" y1="27.64" x2="636.94" y2="27.64"/>
    <line x1="636.94" y1="27.64" x2="636.94" y2="8.36"/>
    <line x1="636.94" y1="27.64" x2="638.06" y2="24.86"/>
    <line x1="638.06" y1="11.14" x2="643.54" y2="11.14"/>
    <line x1="643.54" y1="11.14" x2="643.54" y2="24.86"/>
    <line x1="643.54" y1="24.86" x2="638.06" y2="24.86"/>
    <line x1="638.06" y1="24.86" x2="638.06" y2="11.14"/>
    <line x1="638.06" y1="24.86" x2="639.17" y2="22.07"/>
    <line x1="639.17" y1="13.93" x2="642.43" y2="13.93"/>
    <line x1="642.43" y1="13.93" x2="642.43" y2="22.07"/>
    <line x1="642.43" y1="22.07" x2="639.17" y2="22.07"/>
    <line x1="639.17" y1="22.07" x2="639.17" y2="13.93"/>
  </g>
  <g stroke="#4CC9F0" stroke-width="1" fill="none" stroke-linecap="round">
    <line x1="662.18" y1="0.00" x2="662.40" y2="0.82"/>
    <line x1="660.32" y1="0.00" x2="662.40" y2="7.78"/>
    <line x1="658.45" y1="-0.00" x2="662.40" y2="14.73"/>
    <line x1="652.24" y1="0.00" x2="661.89" y2="36.00"/>
    <line x1="650.38" y1="0.00" x2="660.02" y2="36.00"/>
    <line x1="648.51" y1="0.00" x2="658.16" y2="36.00"/>
    <line x1="648.00" y1="21.27" x2="651.95" y2="36.00"/>
    <line x1="648.00" y1="28.22" x2="650.08" y2="36.00"/>
    <line x1="648.00" y1="35.18" x2="648.22" y2="36.00"/>
  </g>
  <g stroke="#1982C4" stroke-width="1" fill="none" stroke-linecap="round">
    <line x1="662.40" y1="0.00" x2="676.80" y2="0.00"/>
    <line x1="676.80" y1="0.00" x2="676.80" y2="36.00"/>
    <line x1="676.80" y1="36.00" x2="662.40" y2="36.00"/>
    <line x1="662.40" y1="36.00" x2="662.40" y2="0.00"/>
    <line x1="662.40" y1="36.00" x2="663.51" y2="33.21"/>
    <line x1="663.51" y1="2.79" x2="675.69" y2="2.79"/>
    <line x1="675.69" y1="2.79" x2="675.69" y2="33.21"/>
    <line x1="675.69" y1="33.21" x2="663.51" y2="33.21"/>
    <line x1="663.51" y1="33.21" x2="663.51" y2="2.79"/>
    <line x1="663.51" y1="33.21" x2="664.63" y2="30.43"/>
    <line x1="664.63" y1="5.57" x2="674.57" y2="5.57"/>
    <line x1="674.57" y1="5.57" x2="674.57" y2="30.43"/>
    <line x1="674.57" y1="30.43" x2="664.63" y2="30.43"/>
    <line x1="664.63" y1="30.43" x2="664.63" y2="5.57"/>
    <line x1="664.63" y1="30.43" x2="665.74" y2="27.64"/>
    <line x1="665.74" y1="8.36" x2="673.46" y2="8.36"/>
    <line x1="673.46" y1="8.36" x2="673.46" y2="27.64"/>
    <line x1="673.46" y1="27.64" x2="665.74" y2="27.64"/>
    <line x1="665.74" y1="27.64" x2="665.74" y2="8.36"/>
    <line x1="665.74" y1="27.64" x2="666.86" y2="24.86"/>
    <line x1="666.86" y1="11.14" x2="672.34" y2="11.14"/>
    <line x1="672.34" y1="11.14" x2="672.34" y2="24.86"/>
    <line x1="672.34" y1="24.86" x2="666.86" y2="24.86"/>
    <line x1="666.86" y1="24.86" x2="666.86" y2="11.14"/>
    <line x1="666.86" y1="24.86" x2="667.97" y2="22.07"/>
    <line x1="667.97" y1="13.93" x2="671.23" y2="13.93"/>
    <line x1="671.23" y1="13.93" x2="671.23" y2="22.07"/>
    <line x1="671.23" y1="22.07" x2="667.97" y2="22.07"/>
    <line x1="667.97" y1="22.07" x2="667.97" y2="13.93"/>
  </g>
  <g stroke="#F72585" stroke-width="1" fill="none" stroke-linecap="round">
    <line x1="689.26" y1="0.79" x2="690.01" y2="0.00"/>
    <line x1="676.91" y1="0.15" x2="677.05" y2="0.00"/>
    <line x1="685.05" y1="0.00" x2="685.52" y2="2.78"/>
    <line x1="688.39" y1="3.66" x2="691.20" y2="0.70"/>
    <line x1="676.80" y1="2.21" x2="678.90" y2="0.00"/>
    <line x1="683.69" y1="0.00" x2="684.64" y2="5.65"/>
    <line x1="687.51" y1="6.52" x2="691.20" y2="2.64"/>
    <line x1="676.80" y1="4.16" x2="679.78" y2="1.02"/>
    <line x1="682.65" y1="1.90" x2="683.76" y2="8.52"/>
    <line x1="686.63" y1="9.39" x2="691.20" y2="4.59"/>
    <line x1="676.80" y1="6.10" x2="678.90" y2="3.89"/>
    <line x1="681.77" y1="4.77" x2="682.89" y2="11.39"/>
    <line x1="685.75" y1="12.26" x2="690.38" y2="7.40"/>
    <line x1="676.80" y1="8.05" x2="678.02" y2="6.76"/>
    <line x1="680.89" y1="7.64" x2="682.01" y2="14.25"/>
    <line x1="684.88" y1="15.13" x2="689.50" y2="10.27"/>
    <line x1="676.80" y1="10.00" x2="677.15" y2="9.63"/>
    <line x1="680.02" y1="10.51" x2="681.13" y2="17.12"/>
    <line x1="684.00" y1="18.00" x2="688.62" y2="13.14"/>
    <line x1="679.14" y1="13.38" x2="680.25" y2="19.99"/>
    <line x1="683.12" y1="20.87" x2="687.75" y2="16.01"/>
    <line x1="690.61" y1="16.89" x2="691.20" y2="20.36"/>
    <line x1="678.26" y1="16.25" x2="679.38" y2="22.86"/>
    <line x1="682.25" y1="23.74" x2="686.87" y2="18.88"/>
    <line x1="689.74" y1="19.75" x2="690.85" y2="26.37"/>
    <line x1="677.39" y1="19.11" x2="678.50" y2="25.73"/>
    <line x1="681.37" y1="26.61" x2="685.99" y2="21.75"/>
    <line x1="688.86" y1="22.62" x2="689.98" y2="29.24"/>
    <line x1="676.80" y1="23.72" x2="677.62" y2="28.60"/>
    <line x1="680.49" y1="29.48" x2="685.11" y2="24.61"/>
    <line x1="687.98" y1="25.49" x2="689.10" y2="32.11"/>
    <line x1="679.61" y1="32.34" x2="684.24" y2="27.48"/>
    <line x1="687.11" y1="28.36" x2="688.22" y2="34.98"/>
    <line x1="691.09" y1="35.85" x2="691.20" y2="35.74"/>
    <line x1="678.74" y1="35.21" x2="683.36" y2="30.35"/>
    <line x1="686.23" y1="31.23" x2="687.03" y2="36.00"/>
    <line x1="679.84" y1="36.00" x2="682.48" y2="33.22"/>
    <line x1="685.35" y1="34.10" x2="685.67" y2="36.00"/>
  </g>
  <g stroke="#00BBF9" stroke-width="1" fill="none" stroke-linecap="round">
    <line x1="691.20" y1="0.00" x2="705.60" y2="0.00"/>
    <line x1="705.60" y1="0.00" x2="705.60" y2="36.00"/>
    <line x1="705.60" y1="36.00" x2="691.20" y2="36.00"/>
    <line x1="691.20" y1="36.00" x2="691.20" y2="0.00"/>
    <line x1="691.20" y1="36.00" x2="692.31" y2="33.21"/>
    <line x1="692.31" y1="2.79" x2="704.49" y2="2.79"/>
    <line x1="704.49" y1="2.79" x2="704.49" y2="33.21"/>
    <line x1="704.49" y1="33.21" x2="692.31" y2="33.21"/>
    <line x1="692.31" y1="33.21" x2="692.31" y2="2.79"/>
    <line x1="692.31" y1="33.21" x2="693.43" y2="30.43"/>
    <line x1="693.43" y1="5.57" x2="703.37" y2="5.57"/>
    <line x1="703.37" y1="5.57" x2="703.37" y2="30.43"/>
    <line x1="703.37" y1="30.43" x2="693.43" y2="30.43"/>
    <line x1="693.43" y1="30.43" x2="693.43" y2="5.57"/>
    <line x1="693.43" y1="30.43" x2="694.54" y2="27.64"/>
    <line x1="694.54" y1="8.36" x2="702.26" y2="8.36"/>
    <line x1="702.26" y1="8.36" x2="702.26" y2="27.64"/>
    <line x1="702.26" y1="27.64" x2="694.54" y2="27.64"/>
    <line x1="694.54" y1="27.64" x2="694.54" y2="8.36"/>
    <line x1="694.54" y1="27.64" x2="695.66" y2="24.86"/>
    <line x1="695.66" y1="11.14" x2="701.14" y2="11.14"/>
    <line x1="701.14" y1="11.14" x2="701.14" y2="24.86"/>
    <line x1="701.14" y1="24.86" x2="695.66" y2="24.86"/>
    <line x1="695.66" y1="24.86" x2="695.66" y2="11.14"/>
    <line x1="695.66" y1="24.86" x2="696.77" y2="22.07"/>
    <line x1="696.77" y1="13.93" x2="700.03" y2="13.93"/>
    <line x1="700.03" y1="13.93" x2="700.03" y2="22.07"/>
    <line x1="700.03" y1="22.07" x2="696.77" y2="22.07"/>
    <line x1="696.77" y1="22.07" x2="696.77" y2="13.93"/>
  </g>
  <g stroke="#FF595E" stroke-width="1" fill="none" stroke-linecap="round">
    <line x1="720.00" y1="35.96" x2="719.93" y2="36.00"/>
    <line x1="720.00" y1="33.90" x2="716.22" y2="36.00"/>
    <line x1="720.00" y1="27.04" x2="705.60" y2="35.03"/>
    <line x1="720.00" y1="24.99" x2="705.60" y2="32.97"/>
    <line x1="720.00" y1="22.93" x2="705.60" y2="30.91"/>
    <line x1="720.00" y1="16.07" x2="705.60" y2="24.05"/>
    <line x1="720.00" y1="14.01" x2="705.60" y2="21.99"/>
    <line x1="720.00" y1="11.95" x2="705.60" y2="19.93"/>
    <line x1="720.00" y1="5.09" x2="705.60" y2="13.07"/>
    <line x1="720.00" y1="3.03" x2="705.60" y2="11.01"/>
    <line x1="720.00" y1="0.97" x2="705.60" y2="8.96"/>
    <line x1="709.38" y1="-0.00" x2="705.60" y2="2.10"/>
    <line x1="705.67" y1="0.00" x2="705.60" y2="0.04"/>
  </g>
  <g stroke="#00B4D8" stroke-width="1" fill="none" stroke-linecap="round">
    <line x1="734.40" y1="34.25" x2="733.90" y2="36.00"/>
    <line x1="734.40" y1="27.72" x2="732.03" y2="36.00"/>
    <line x1="734.40" y1="21.19" x2="730.15" y2="36.00"/>
    <line x1="734.23" y1="-0.00" x2="723.91" y2="36.00"/>
    <line x1="732.36" y1="-0.00" x2="722.04" y2="36.00"/>
    <line x1="730.49" y1="-0.00" x2="720.17" y2="36.00"/>
    <line x1="724.25" y1="0.00" x2="720.00" y2="14.81"/>
    <line x1="722.37" y1="0.00" x2="720.00" y2="8.28"/>
    <line x1="720.50" y1="0.00" x2="720.00" y2="1.75"/>
  </g>
  <g stroke="#F72585" stroke-width="1" fill="none" stroke-linecap="round">
    <line x1="734.40" y1="0.00" x2="748.80" y2="0.00"/>
    <line x1="748.80" y1="0.00" x2="748.80" y2="36.00"/>
    <line x1="748.80" y1="36.00" x2="734.40" y2="36.00"/>
    <line x1="734.40" y1="36.00" x2="734.40" y2="0.00"/>
    <line x1="734.40" y1="36.00" x2="735.51" y2="33.21"/>
    <line x1="735.51" y1="2.79" x2="747.69" y2="2.79"/>
    <line x1="747.69" y1="2.79" x2="747.69" y2="33.21"/>
    <line x1="747.69" y1="33.21" x2="735.51" y2="33.21"/>
    <line x1="735.51" y1="33.21" x2="735.51" y2="2.79"/>
    <line x1="735.51" y1="33.21" x2="736.63" y2="30.43"/>
    <line x1="736.63" y1="5.57" x2="746.57" y2="5.57"/>
    <line x1="746.57" y1="5.57" x2="746.57" y2="30.43"/>
    <line x1="746.57" y1="30.43" x2="736.63" y2="30.43"/>
    <line x1="736.63" y1="30.43" x2="736.63" y2="5.57"/>
    <line x1="736.63" y1="30.43" x2="737.74" y2="27.64"/>
    <line x1="737.74" y1="8.36" x2="745.46" y2="8.36"/>
    <line x1="745.46" y1="8.36" x2="745.46" y2="27.64"/>
    <line x1="745.46" y1="27.64" x2="737.74" y2="27.64"/>
    <line x1="737.74" y1="27.64" x2="737.74" y2="8.36"/>
    <line x1="737.74" y1="27.64" x2="738.86" y2="24.86"/>
    <line x1="738.86" y1="11.14" x2="744.34" y2="11.14"/>
    <line x1="744.34" y1="11.14" x2="744.34" y2="24.86"/>
    <line x1="744.34" y1="24.86" x2="738.86" y2="24.86"/>
    <line x1="738.86" y1="24.86" x2="738.86" y2="11.14"/>
    <line x1="738.86" y1="24.86" x2="739.97" y2="22.07"/>
    <line x1="739.97" y1="13.93" x2="743.23" y2="13.93"/>
    <line x1="743.23" y1="13.93" x2="743.23" y2="22.07"/>
    <line x1="743.23" y1="22.07" x2="739.97" y2="22.07"/>
    <line x1="739.97" y1="22.07" x2="739.97" y2="13.93"/>
  </g>
  <g stroke="#8338EC" stroke-width="1" fill="none" stroke-linecap="round">
    <line x1="761.12" y1="-0.00" x2="763.20" y2="4.67"/>
    <line x1="757.84" y1="0.00" x2="763.20" y2="12.04"/>
    <line x1="754.55" y1="0.00" x2="763.20" y2="19.42"/>
    <line x1="751.27" y1="0.00" x2="763.20" y2="26.80"/>
    <line x1="748.80" y1="1.83" x2="763.20" y2="34.17"/>
    <line x1="748.80" y1="9.20" x2="760.73" y2="36.00"/>
    <line x1="748.80" y1="16.58" x2="757.45" y2="36.00"/>
    <line x1="748.80" y1="23.96" x2="754.16" y2="36.00"/>
    <line x1="748.80" y1="31.33" x2="750.88" y2="36.00"/>
    <line x1="763.20" y1="34.50" x2="759.83" y2="36.00"/>
    <line x1="763.20" y1="31.21" x2="752.45" y2="36.00"/>
    <line x1="763.20" y1="27.93" x2="748.80" y2="34.34"/>
    <line x1="763.20" y1="24.65" x2="748.80" y2="31.06"/>
    <line x1="763.20" y1="21.36" x2="748.80" y2="27.77"/>
    <line x1="763.20" y1="18.08" x2="748.80" y2="24.49"/>
    <line x1="763.20" y1="14.79" x2="748.80" y2="21.21"/>
    <line x1="763.20" y1="11.51" x2="748.80" y2="17.92"/>
    <line x1="763.20" y1="8.23" x2="748.80" y2="14.64"/>
    <line x1="763.20" y1="4.94" x2="748.80" y2="11.35"/>
    <line x1="763.20" y1="1.66" x2="748.80" y2="8.07"/>
    <line x1="759.55" y1="0.00" x2="748.80" y2="4.79"/>
    <line x1="752.17" y1="0.00" x2="748.80" y2="1.50"/>
  </g>
  <g stroke="#8338EC" stroke-width="1" fill="none" stroke-linecap="round">
    <line x1="777.60" y1="35.25" x2="771.50" y2="36.00"/>
    <line x1="777.60" y1="32.23" x2="763.20" y2="34.00"/>
    <line x1="777.60" y1="29.21" x2="763.20" y2="30.97"/>
    <line x1="777.60" y1="26.18" x2="763.20" y2="27.95"/>
    <line x1="777.60" y1="23.16" x2="763.20" y2="24.93"/>
    <line x1="777.60" y1="20.14" x2="763.20" y2="21.91"/>
    <line x1="777.60" y1="17.12" x2="763.20" y2="18.88"/>
    <line x1="777.60" y1="14.09" x2="763.20" y2="15.86"/>
    <line x1="777.60" y1="11.07" x2="763.20" y2="12.84"/>
    <line x1="777.60" y1="8.05" x2="763.20" y2="9.82"/>
    <line x1="777.60" y1="5.03" x2="763.20" y2="6.79"/>
    <line x1="777.60" y1="2.00" x2="763.20" y2="3.77"/>
    <line x1="769.30" y1="0.00" x2="763.20" y2="0.75"/>
    <line x1="763.54" y1="36.00" x2="763.20" y2="33.21"/>
    <line x1="766.57" y1="36.00" x2="763.20" y2="8.59"/>
    <line x1="769.59" y1="36.00" x2="765.17" y2="0.00"/>
    <line x1="772.61" y1="36.00" x2="768.19" y2="0.00"/>
    <line x1="775.63" y1="36.00" x2="771.21" y2="0.00"/>
    <line x1="777.60" y1="27.41" x2="774.23" y2="0.00"/>
    <line x1="777.60" y1="2.79" x2="777.26" y2="0.00"/>
  </g>
  <g stroke="#FEE440" stroke-width="1" fill="none" stroke-linecap="round">
    <line x1="777.60" y1="0.00" x2="792.00" y2="0.00"/>
    <line x1="792.00" y1="0.00" x2="792.00" y2="36.00"/>
    <line x1="792.00" y1="36.00" x2="777.60" y2="36.00"/>
    <line x1="777.60" y1="36.00" x2="777.60" y2="0.00"/>
    <line x1="777.60" y1="36.00" x2="778.71" y2="33.21"/>
    <line x1="778.71" y1="2.79" x2="790.89" y2="2.79"/>
    <line x1="790.89" y1="2.79" x2="790.89" y2="33.21"/>
    <line x1="790.89" y1="33.21" x2="778.71" y2="33.21"/>
    <line x1="778.71" y1="33.21" x2="778.71" y2="2.79"/>
    <line x1="778.71" y1="33.21" x2="779.83" y2="30.43"/>
    <line x1="779.83" y1="5.57" x2="789.77" y2="5.57"/>
    <line x1="789.77" y1="5.57" x2="789.77" y2="30.43"/>
    <line x1="789.77" y1="30.43" x2="779.83" y2="30.43"/>
    <line x1="779.83" y1="30.43" x2="779.83" y2="5.57"/>
    <line x1="779.83" y1="30.43" x2="780.94" y2="27.64"/>
    <line x1="780.94" y1="8.36" x2="788.66" y2="8.36"/>
    <line x1="788.66" y1="8.36" x2="788.66" y2="27.64"/>
    <line x1="788.66" y1="27.64" x2="780.94" y2="27.64"/>
    <line x1="780.94" y1="27.64" x2="780.94" y2="8.36"/>
    <line x1="780.94" y1="27.64" x2="782.06" y2="24.86"/>
    <line x1="782.06" y1="11.14" x2="787.54" y2="11.14"/>
    <line x1="787.54" y1="11.14" x2="787.54" y2="24.86"/>
    <line x1="787.54" y1="24.86" x2="782.06" y2="24.86"/>
    <line x1="782.06" y1="24.86" x2="782.06" y2="11.14"/>
    <line x1="782.06" y1="24.86" x2="783.17" y2="22.07"/>
    <line x1="783.17" y1="13.93" x2="786.43" y2="13.93"/>
    <line x1="786.43" y1="13.93" x2="786.43" y2="22.07"/>
    <line x1="786.43" y1="22.07" x2="783.17" y2="22.07"/>
    <line x1="783.17" y1="22.07" x2="783.17" y2="13.93"/>
  </g>
  <g stroke="#FB5607" stroke-width="1" fill="none" stroke-linecap="round">
    <line x1="806.40" y1="22.56" x2="801.33" y2="22.65"/>
    <line x1="803.53" y1="36.00" x2="803.43" y2="30.19"/>
    <line x1="806.40" y1="1.30" x2="796.94" y2="1.47"/>
    <line x1="799.36" y1="27.00" x2="799.04" y2="9.00"/>
    <line x1="801.46" y1="34.53" x2="792.00" y2="34.70"/>
    <line x1="794.97" y1="5.81" x2="794.87" y2="0.00"/>
    <line x1="797.07" y1="13.35" x2="792.00" y2="13.44"/>
  </g>
  <g stroke="#7209B7" stroke-width="1" fill="none" stroke-linecap="round">
    <line x1="818.05" y1="0.00" x2="820.80" y2="31.45"/>
    <line x1="815.04" y1="-0.00" x2="818.19" y2="36.00"/>
    <line x1="812.03" y1="0.00" x2="815.17" y2="36.00"/>
    <line x1="809.01" y1="-0.00" x2="812.16" y2="36.00"/>
    <line x1="806.40" y1="4.55" x2="809.15" y2="36.00"/>
  </g>
  <g stroke="#118AB2" stroke-width="1" fill="none" stroke-linecap="round">
    <line x1="829.57" y1="0.00" x2="835.20" y2="0.99"/>
    <line x1="820.80" y1="1.50" x2="835.20" y2="4.04"/>
    <line x1="820.80" y1="4.55" x2="835.20" y2="7.08"/>
    <line x1="820.80" y1="7.59" x2="835.20" y2="10.13"/>
    <line x1="820.80" y1="10.64" x2="835.20" y2="13.18"/>
    <line x1="820.80" y1="13.68" x2="835.20" y2="16.22"/>
    <line x1="820.80" y1="16.73" x2="835.20" y2="19.27"/>
    <line x1="820.80" y1="19.78" x2="835.20" y2="22.32"/>
    <line x1="820.80" y1="22.82" x2="835.20" y2="25.36"/>
    <line x1="820.80" y1="25.87" x2="835.20" y2="28.41"/>
    <line x1="820.80" y1="28.92" x2="835.20" y2="31.45"/>
    <line x1="820.80" y1="31.96" x2="835.20" y2="34.50"/>
    <line x1="820.80" y1="35.01" x2="826.43" y2="36.00"/>
  </g>
  <g stroke="#6A4C93" stroke-width="1" fill="none" stroke-linecap="round">
    <line x1="849.60" y1="30.30" x2="846.70" y2="36.00"/>
    <line x1="849.60" y1="23.69" x2="843.33" y2="36.00"/>
    <line x1="849.60" y1="17.09" x2="839.96" y2="36.00"/>
    <line x1="849.60" y1="10.48" x2="836.60" y2="36.00"/>
    <line x1="849.60" y1="3.87" x2="835.20" y2="32.13"/>
    <line x1="848.20" y1="0.00" x2="835.20" y2="25.52"/>
    <line x1="844.84" y1="0.00" x2="835.20" y2="18.91"/>
    <line x1="841.47" y1="0.00" x2="835.20" y2="12.31"/>
    <line x1="838.10" y1="-0.00" x2="835.20" y2="5.70"/>
    <line x1="838.08" y1="36.00" x2="835.20" y2="34.53"/>
    <line x1="844.69" y1="36.00" x2="835.20" y2="31.17"/>
    <line x1="849.60" y1="35.14" x2="835.20" y2="27.80"/>
    <line x1="849.60" y1="31.77" x2="835.20" y2="24.43"/>
    <line x1="849.60" y1="28.40" x2="835.20" y2="21.07"/>
    <line x1="849.60" y1="25.04" x2="835.20" y2="17.70"/>
    <line x1="849.60" y1="21.67" x2="835.20" y2="14.33"/>
    <line x1="849.60" y1="18.30" x2="835.20" y2="10.96"/>
    <line x1="849.60" y1="14.93" x2="835.20" y2="7.60"/>
    <line x1="849.60" y1="11.57" x2="835.20" y2="4.23"/>
    <line x1="849.60" y1="8.20" x2="835.20" y2="0.86"/>
    <line x1="849.60" y1="4.83" x2="840.11" y2="0.00"/>
    <line x1="849.60" y1="1.47" x2="846.72" y2="0.00"/>
  </g>
  <g stroke="#E9C46A" stroke-width="1" fill="none" stroke-linecap="round">
    <line x1="864.00" y1="35.80" x2="863.53" y2="36.00"/>
    <line x1="864.00" y1="33.85" x2="858.93" y2="36.00"/>
    <line x1="864.00" y1="27.33" x2="849.60" y2="33.44"/>
    <line x1="864.00" y1="25.37" x2="849.60" y2="31.49"/>
    <line x1="864.00" y1="23.42" x2="849.60" y2="29.53"/>
    <line x1="864.00" y1="16.90" x2="849.60" y2="23.01"/>
    <line x1="864.00" y1="14.94" x2="849.60" y2="21.06"/>
    <line x1="864.00" y1="12.99" x2="849.60" y2="19.10"/>
    <line x1="864.00" y1="6.47" x2="849.60" y2="12.58"/>
    <line x1="864.00" y1="4.51" x2="849.60" y2="10.63"/>
    <line x1="864.00" y1="2.56" x2="849.60" y2="8.67"/>
    <line x1="854.67" y1="-0.00" x2="849.60" y2="2.15"/>
    <line x1="850.07" y1="0.00" x2="849.60" y2="0.20"/>
  </g>
</svg>
