<?xml version="1.0" encoding="UTF-8"?>
<svg xmlns="http://www.w3.org/2000/svg"
     width="864.00" height="36.00"
     viewBox="0 0 864.00 36.00">
  <title>Pattern Banner - rat-king</title>
  <desc>Randomized pattern strip with 60 cells</desc>
  <rect width="100%" height="100%" fill="white"/>
  <g stroke="#073B4C" stroke-width="1" fill="none" stroke-linecap="round">
    <line x1="14.40" y1="29.30" x2="4.83" y2="36.00"/>
    <line x1="14.40" y1="21.98" x2="0.00" y2="32.06"/>
    <line x1="14.40" y1="14.65" x2="0.00" y2="24.73"/>
    <line x1="14.40" y1="7.33" x2="0.00" y2="17.41"/>
    <line x1="14.40" y1="0.00" x2="0.00" y2="10.08"/>
    <line x1="3.94" y1="0.00" x2="0.00" y2="2.76"/>
    <line x1="14.40" y1="4.94" x2="10.94" y2="0.00"/>
    <line x1="14.40" y1="15.40" x2="3.61" y2="0.00"/>
    <line x1="14.40" y1="25.87" x2="-0.00" y2="5.30"/>
    <line x1="14.17" y1="36.00" x2="0.00" y2="15.76"/>
    <line x1="6.85" y1="36.00" x2="-0.00" y2="26.22"/>
  </g>
  <g stroke="#F15BB5" stroke-width="1" fill="none" stroke-linecap="round">
    <line x1="28.80" y1="32.01" x2="24.81" y2="36.00"/>
    <line x1="28.80" y1="27.77" x2="20.57" y2="36.00"/>
    <line x1="28.80" y1="23.53" x2="16.33" y2="36.00"/>
    <line x1="28.80" y1="19.29" x2="14.40" y2="33.69"/>
    <line x1="28.80" y1="15.04" x2="14.40" y2="29.44"/>
    <line x1="28.80" y1="10.80" x2="14.40" y2="25.20"/>
    <line x1="28.80" y1="6.56" x2="14.40" y2="20.96"/>
    <line x1="28.80" y1="2.31" x2="14.40" y2="16.71"/>
    <line x1="26.87" y1="0.00" x2="14.40" y2="12.47"/>
    <line x1="22.63" y1="-0.00" x2="14.40" y2="8.23"/>
    <line x1="18.39" y1="-0.00" x2="14.40" y2="3.99"/>
  </g>
  <g stroke="#118AB2" stroke-width="1" fill="none" stroke-linecap="round">
    <line x1="40.32" y1="-0.00" x2="43.20" y2="1.47"/>
    <line x1="33.71" y1="0.00" x2="43.20" y2="4.83"/>
    <line x1="28.80" y1="0.86" x2="43.20" y2="8.20"/>
    <line x1="28.80" y1="4.23" x2="43.20" y2="11.57"/>
    <line x1="28.80" y1="7.60" x2="43.20" y2="14.93"/>
    <line x1="28.80" y1="10.96" x2="43.20" y2="18.30"/>
    <line x1="28.80" y1="14.33" x2="43.20" y2="21.67"/>
    <line x1="28.80" y1="17.70" x2="43.20" y2="25.04"/>
    <line x1="28.80" y1="21.07" x2="43.20" y2="28.40"/>
    <line x1="28.80" y1="24.43" x2="43.20" y2="31.77"/>
    <line x1="28.80" y1="27.80" x2="43.20" y2="35.14"/>
    <line x1="28.80" y1="31.17" x2="38.29" y2="36.00"/>
    <line x1="28.80" y1="34.53" x2="31.68" y2="36.00"/>
  </g>
  <g stroke="#6A4C93" stroke-width="1" fill="none" stroke-linecap="round">
    <line x1="57.60" y1="32.73" x2="56.34" y2="36.00"/>
    <line x1="57.60" y1="24.36" x2="53.13" y2="36.00"/>
    <line x1="57.60" y1="15.99" x2="49.92" y2="36.00"/>
    <line x1="57.60" y1="7.61" x2="46.70" y2="36.00"/>
    <line x1="57.31" y1="0.00" x2="43.49" y2="36.00"/>
    <line x1="54.10" y1="0.00" x2="43.20" y2="28.39"/>
    <line x1="50.88" y1="0.00" x2="43.20" y2="20.01"/>
    <line x1="47.67" y1="0.00" x2="43.20" y2="11.64"/>
    <line x1="44.46" y1="0.00" x2="43.20" y2="3.27"/>
  </g>
  <g stroke="#FFCA3A" stroke-width="1" fill="none" stroke-linecap="round">
    <line x1="57.60" y1="0.14" x2="72.00" y2="6.55"/>
    <line x1="57.60" y1="6.71" x2="72.00" y2="13.12"/>
    <line x1="57.60" y1="13.28" x2="72.00" y2="19.69"/>
    <line x1="57.60" y1="19.84" x2="72.00" y2="26.26"/>
    <line x1="57.60" y1="26.41" x2="72.00" y2="32.82"/>
    <line x1="57.60" y1="32.98" x2="64.38" y2="36.00"/>
    <line x1="58.16" y1="0.00" x2="57.60" y2="1.26"/>
    <line x1="64.73" y1="0.00" x2="57.60" y2="16.01"/>
    <line x1="71.30" y1="0.00" x2="57.60" y2="30.76"/>
    <line x1="72.00" y1="13.17" x2="61.84" y2="36.00"/>
    <line x1="72.00" y1="27.92" x2="68.40" y2="36.00"/>
  </g>
  <g stroke="#90BE6D" stroke-width="1" fill="none" stroke-linecap="round">
    <line x1="86.40" y1="34.59" x2="82.05" y2="36.00"/>
    <line x1="86.40" y1="31.43" x2="72.34" y2="36.00"/>
    <line x1="86.40" y1="28.28" x2="72.00" y2="32.96"/>
    <line x1="86.40" y1="25.12" x2="72.00" y2="29.80"/>
    <line x1="86.40" y1="21.97" x2="72.00" y2="26.65"/>
    <line x1="86.40" y1="18.81" x2="72.00" y2="23.49"/>
    <line x1="86.40" y1="15.66" x2="72.00" y2="20.34"/>
    <line x1="86.40" y1="12.51" x2="72.00" y2="17.19"/>
    <line x1="86.40" y1="9.35" x2="72.00" y2="14.03"/>
    <line x1="86.40" y1="6.20" x2="72.00" y2="10.88"/>
    <line x1="86.40" y1="3.04" x2="72.00" y2="7.72"/>
    <line x1="86.06" y1="0.00" x2="72.00" y2="4.57"/>
    <line x1="76.35" y1="0.00" x2="72.00" y2="1.41"/>
  </g>
  <g stroke="#06D6A0" stroke-width="1" fill="none" stroke-linecap="round">
    <line x1="100.80" y1="35.25" x2="94.70" y2="36.00"/>
    <line x1="100.80" y1="32.23" x2="86.40" y2="34.00"/>
    <line x1="100.80" y1="29.21" x2="86.40" y2="30.97"/>
    <line x1="100.80" y1="26.18" x2="86.40" y2="27.95"/>
    <line x1="100.80" y1="23.16" x2="86.40" y2="24.93"/>
    <line x1="100.80" y1="20.14" x2="86.40" y2="21.91"/>
    <line x1="100.80" y1="17.12" x2="86.40" y2="18.88"/>
    <line x1="100.80" y1="14.09" x2="86.40" y2="15.86"/>
    <line x1="100.80" y1="11.07" x2="86.40" y2="12.84"/>
    <line x1="100.80" y1="8.05" x2="86.40" y2="9.82"/>
    <line x1="100.80" y1="5.03" x2="86.40" y2="6.79"/>
    <line x1="100.80" y1="2.00" x2="86.40" y2="3.77"/>
    <line x1="92.50" y1="0.00" x2="86.40" y2="0.75"/>
    <line x1="86.74" y1="36.00" x2="86.40" y2="33.21"/>
    <line x1="89.77" y1="36.00" x2="86.40" y2="8.59"/>
    <line x1="92.79" y1="36.00" x2="88.37" y2="0.00"/>
    <line x1="95.81" y1="36.00" x2="91.39" y2="0.00"/>
    <line x1="98.83" y1="36.00" x2="94.41" y2="0.00"/>
    <line x1="100.80" y1="27.41" x2="97.43" y2="0.00"/>
    <line x1="100.80" y1="2.79" x2="100.46" y2="0.00"/>
  </g>
  <g stroke="#3A86FF" stroke-width="1" fill="none" stroke-linecap="round">
    <line x1="115.20" y1="32.14" x2="111.47" y2="36.00"/>
    <line x1="115.20" y1="27.82" x2="107.30" y2="36.00"/>
    <line x1="115.20" y1="23.50" x2="103.13" y2="36.00"/>
    <line x1="115.20" y1="19.18" x2="100.80" y2="34.09"/>
    <line x1="115.20" y1="14.86" x2="100.80" y2="29.77"/>
    <line x1="115.20" y1="10.54" x2="100.80" y2="25.46"/>
    <line x1="115.20" y1="6.23" x2="100.80" y2="21.14"/>
    <line x1="115.20" y1="1.91" x2="100.80" y2="16.82"/>
    <line x1="112.87" y1="0.00" x2="100.80" y2="12.50"/>
    <line x1="108.70" y1="0.00" x2="100.80" y2="8.18"/>
    <line x1="104.53" y1="-0.00" x2="100.80" y2="3.86"/>
  </g>
  <g stroke="#FFCA3A" stroke-width="1" fill="none" stroke-linecap="round">
    <line x1="129.60" y1="35.59" x2="129.13" y2="36.00"/>
    <line x1="129.60" y1="31.62" x2="124.56" y2="36.00"/>
    <line x1="129.60" y1="27.64" x2="119.98" y2="36.00"/>
    <line x1="129.60" y1="23.67" x2="115.41" y2="36.00"/>
    <line x1="129.60" y1="19.69" x2="115.20" y2="32.21"/>
    <line x1="129.60" y1="15.72" x2="115.20" y2="28.23"/>
    <line x1="129.60" y1="11.74" x2="115.20" y2="24.26"/>
    <line x1="129.60" y1="7.77" x2="115.20" y2="20.28"/>
    <line x1="129.60" y1="3.79" x2="115.20" y2="16.31"/>
    <line x1="129.39" y1="0.00" x2="115.20" y2="12.33"/>
    <line x1="124.82" y1="0.00" x2="115.20" y2="8.36"/>
    <line x1="120.24" y1="0.00" x2="115.20" y2="4.38"/>
    <line x1="115.67" y1="0.00" x2="115.20" y2="0.41"/>
    <line x1="118.17" y1="36.00" x2="115.20" y2="32.58"/>
    <line x1="122.15" y1="36.00" x2="115.20" y2="28.01"/>
    <line x1="126.12" y1="36.00" x2="115.20" y2="23.44"/>
    <line x1="129.60" y1="35.43" x2="115.20" y2="18.86"/>
    <line x1="129.60" y1="30.86" x2="115.20" y2="14.29"/>
    <line x1="129.60" y1="26.28" x2="115.20" y2="9.72"/>
    <line x1="129.60" y1="21.71" x2="115.20" y2="5.14"/>
    <line x1="129.60" y1="17.14" x2="115.20" y2="0.57"/>
    <line x1="129.60" y1="12.56" x2="118.68" y2="0.00"/>
    <line x1="129.60" y1="7.99" x2="122.65" y2="0.00"/>
    <line x1="129.60" y1="3.42" x2="126.63" y2="0.00"/>
  </g>
  <g stroke="#90BE6D" stroke-width="1" fill="none" stroke-linecap="round">
    <line x1="144.00" y1="30.70" x2="129.60" y2="32.22"/>
    <line x1="144.00" y1="24.67" x2="129.60" y2="26.18"/>
    <line x1="144.00" y1="18.64" x2="129.60" y2="20.15"/>
    <line x1="144.00" y1="12.60" x2="129.60" y2="14.12"/>
    <line x1="144.00" y1="6.57" x2="129.60" y2="8.08"/>
    <line x1="144.00" y1="0.54" x2="129.60" y2="2.05"/>
    <line x1="144.00" y1="15.84" x2="142.34" y2="0.00"/>
    <line x1="140.09" y1="36.00" x2="136.30" y2="0.00"/>
    <line x1="134.05" y1="36.00" x2="130.27" y2="0.00"/>
  </g>
  <g stroke="#F15BB5" stroke-width="1" fill="none" stroke-linecap="round">
    <line x1="144.00" y1="0.00" x2="158.40" y2="0.00"/>
    <line x1="158.40" y1="0.00" x2="158.40" y2="36.00"/>
    <line x1="158.40" y1="36.00" x2="144.00" y2="36.00"/>
    <line x1="144.00" y1="36.00" x2="144.00" y2="0.00"/>
    <line x1="144.00" y1="36.00" x2="145.11" y2="33.21"/>
    <line x1="145.11" y1="2.79" x2="157.29" y2="2.79"/>
    <line x1="157.29" y1="2.79" x2="157.29" y2="33.21"/>
    <line x1="157.29" y1="33.21" x2="145.11" y2="33.21"/>
    <line x1="145.11" y1="33.21" x2="145.11" y2="2.79"/>
    <line x1="145.11" y1="33.21" x2="146.23" y2="30.43"/>
    <line x1="146.23" y1="5.57" x2="156.17" y2="5.57"/>
    <line x1="156.17" y1="5.57" x2="156.17" y2="30.43"/>
    <line x1="156.17" y1="30.43" x2="146.23" y2="30.43"/>
    <line x1="146.23" y1="30.43" x2="146.23" y2="5.57"/>
    <line x1="146.23" y1="30.43" x2="147.34" y2="27.64"/>
    <line x1="147.34" y1="8.36" x2="155.06" y2="8.36"/>
    <line x1="155.06" y1="8.36" x2="155.06" y2="27.64"/>
    <line x1="155.06" y1="27.64" x2="147.34" y2="27.64"/>
    <line x1="147.34" y1="27.64" x2="147.34" y2="8.36"/>
    <line x1="147.34" y1="27.64" x2="148.46" y2="24.86"/>
    <line x1="148.46" y1="11.14" x2="153.94" y2="11.14"/>
    <line x1="153.94" y1="11.14" x2="153.94" y2="24.86"/>
    <line x1="153.94" y1="24.86" x2="148.46" y2="24.86"/>
    <line x1="148.46" y1="24.86" x2="148.46" y2="11.14"/>
    <line x1="148.46" y1="24.86" x2="149.57" y2="22.07"/>
    <line x1="149.57" y1="13.93" x2="152.83" y2="13.93"/>
    <line x1="152.83" y1="13.93" x2="152.83" y2="22.07"/>
    <line x1="152.83" y1="22.07" x2="149.57" y2="22.07"/>
    <line x1="149.57" y1="22.07" x2="149.57" y2="13.93"/>
  </g>
  <g stroke="#FB5607" stroke-width="1" fill="none" stroke-linecap="round">
    <line x1="160.74" y1="7.51" x2="172.80" y2="6.45"/>
    <line x1="164.82" y1="9.03" x2="166.38" y2="26.97"/>
    <line x1="158.40" y1="29.55" x2="170.46" y2="28.49"/>
  </g>
  <g stroke="#00B4D8" stroke-width="1" fill="none" stroke-linecap="round">
    <line x1="187.20" y1="22.94" x2="185.86" y2="24.37"/>
    <line x1="187.20" y1="31.02" x2="185.73" y2="29.65"/>
    <line x1="179.69" y1="0.00" x2="173.55" y2="6.58"/>
    <line x1="186.58" y1="24.14" x2="173.42" y2="11.86"/>
    <line x1="186.45" y1="29.42" x2="180.31" y2="36.00"/>
    <line x1="174.27" y1="6.35" x2="172.80" y2="4.98"/>
    <line x1="174.14" y1="11.63" x2="172.80" y2="13.06"/>
  </g>
  <g stroke="#2A9D8F" stroke-width="1" fill="none" stroke-linecap="round">
    <line x1="187.20" y1="0.00" x2="201.60" y2="0.00"/>
    <line x1="201.60" y1="0.00" x2="201.60" y2="36.00"/>
    <line x1="201.60" y1="36.00" x2="187.20" y2="36.00"/>
    <line x1="187.20" y1="36.00" x2="187.20" y2="0.00"/>
    <line x1="187.20" y1="36.00" x2="188.31" y2="33.21"/>
    <line x1="188.31" y1="2.79" x2="200.49" y2="2.79"/>
    <line x1="200.49" y1="2.79" x2="200.49" y2="33.21"/>
    <line x1="200.49" y1="33.21" x2="188.31" y2="33.21"/>
    <line x1="188.31" y1="33.21" x2="188.31" y2="2.79"/>
    <line x1="188.31" y1="33.21" x2="189.43" y2="30.43"/>
    <line x1="189.43" y1="5.57" x2="199.37" y2="5.57"/>
    <line x1="199.37" y1="5.57" x2="199.37" y2="30.43"/>
    <line x1="199.37" y1="30.43" x2="189.43" y2="30.43"/>
    <line x1="189.43" y1="30.43" x2="189.43" y2="5.57"/>
    <line x1="189.43" y1="30.43" x2="190.54" y2="27.64"/>
    <line x1="190.54" y1="8.36" x2="198.26" y2="8.36"/>
    <line x1="198.26" y1="8.36" x2="198.26" y2="27.64"/>
    <line x1="198.26" y1="27.64" x2="190.54" y2="27.64"/>
    <line x1="190.54" y1="27.64" x2="190.54" y2="8.36"/>
    <line x1="190.54" y1="27.64" x2="191.66" y2="24.86"/>
    <line x1="191.66" y1="11.14" x2="197.14" y2="11.14"/>
    <line x1="197.14" y1="11.14" x2="197.14" y2="24.86"/>
    <line x1="197.14" y1="24.86" x2="191.66" y2="24.86"/>
    <line x1="191.66" y1="24.86" x2="191.66" y2="11.14"/>
    <line x1="191.66" y1="24.86" x2="192.77" y2="22.07"/>
    <line x1="192.77" y1="13.93" x2="196.03" y2="13.93"/>
    <line x1="196.03" y1="13.93" x2="196.03" y2="22.07"/>
    <line x1="196.03" y1="22.07" x2="192.77" y2="22.07"/>
    <line x1="192.77" y1="22.07" x2="192.77" y2="13.93"/>
  </g>
  <g stroke="#1982C4" stroke-width="1" fill="none" stroke-linecap="round">
    <line x1="216.00" y1="4.04" x2="215.91" y2="4.45"/>
    <line x1="207.03" y1="1.12" x2="209.50" y2="0.00"/>
    <line x1="215.46" y1="0.24" x2="214.02" y2="6.79"/>
    <line x1="203.15" y1="-0.00" x2="202.81" y2="1.57"/>
    <line x1="205.14" y1="3.45" x2="211.25" y2="0.68"/>
    <line x1="213.58" y1="2.57" x2="212.13" y2="9.12"/>
    <line x1="214.46" y1="11.01" x2="216.00" y2="10.31"/>
    <line x1="201.78" y1="0.00" x2="201.60" y2="0.81"/>
    <line x1="203.25" y1="5.79" x2="209.36" y2="3.01"/>
    <line x1="211.69" y1="4.90" x2="210.24" y2="11.45"/>
    <line x1="212.58" y1="13.34" x2="216.00" y2="11.78"/>
    <line x1="201.60" y1="8.01" x2="207.47" y2="5.34"/>
    <line x1="209.80" y1="7.23" x2="208.36" y2="13.78"/>
    <line x1="210.69" y1="15.67" x2="216.00" y2="13.26"/>
    <line x1="201.60" y1="9.48" x2="205.58" y2="7.67"/>
    <line x1="207.91" y1="9.56" x2="206.47" y2="16.11"/>
    <line x1="208.80" y1="18.00" x2="214.91" y2="15.23"/>
    <line x1="216.00" y1="22.73" x2="215.79" y2="23.66"/>
    <line x1="201.60" y1="10.96" x2="203.69" y2="10.00"/>
    <line x1="206.03" y1="11.89" x2="204.58" y2="18.44"/>
    <line x1="206.91" y1="20.33" x2="213.02" y2="17.56"/>
    <line x1="215.35" y1="19.44" x2="213.91" y2="26.00"/>
    <line x1="201.60" y1="12.43" x2="201.81" y2="12.34"/>
    <line x1="204.14" y1="14.22" x2="202.69" y2="20.77"/>
    <line x1="205.02" y1="22.66" x2="211.13" y2="19.89"/>
    <line x1="213.46" y1="21.78" x2="212.02" y2="28.33"/>
    <line x1="214.35" y1="30.21" x2="216.00" y2="29.46"/>
    <line x1="202.25" y1="16.56" x2="201.60" y2="19.50"/>
    <line x1="203.14" y1="24.99" x2="209.24" y2="22.22"/>
    <line x1="211.57" y1="24.11" x2="210.13" y2="30.66"/>
    <line x1="212.46" y1="32.55" x2="216.00" y2="30.94"/>
    <line x1="201.60" y1="27.17" x2="207.36" y2="24.55"/>
    <line x1="209.69" y1="26.44" x2="208.24" y2="32.99"/>
    <line x1="210.57" y1="34.88" x2="216.00" y2="32.41"/>
    <line x1="201.60" y1="28.64" x2="205.47" y2="26.88"/>
    <line x1="207.80" y1="28.77" x2="206.35" y2="35.32"/>
    <line x1="211.35" y1="36.00" x2="214.79" y2="34.43"/>
    <line x1="201.60" y1="30.11" x2="203.58" y2="29.21"/>
    <line x1="205.91" y1="31.10" x2="204.83" y2="36.00"/>
    <line x1="201.60" y1="31.59" x2="201.69" y2="31.55"/>
    <line x1="204.02" y1="33.43" x2="203.46" y2="36.00"/>
    <line x1="202.14" y1="35.76" x2="202.08" y2="36.00"/>
  </g>
  <g stroke="#FFCA3A" stroke-width="1" fill="none" stroke-linecap="round">
    <line x1="230.40" y1="29.53" x2="227.38" y2="36.00"/>
    <line x1="230.40" y1="25.28" x2="225.40" y2="36.00"/>
    <line x1="230.40" y1="21.02" x2="223.41" y2="36.00"/>
    <line x1="230.40" y1="6.82" x2="216.79" y2="36.00"/>
    <line x1="230.40" y1="2.56" x2="216.00" y2="33.44"/>
    <line x1="229.61" y1="0.00" x2="216.00" y2="29.18"/>
    <line x1="222.99" y1="0.00" x2="216.00" y2="14.98"/>
    <line x1="221.00" y1="0.00" x2="216.00" y2="10.72"/>
    <line x1="219.02" y1="0.00" x2="216.00" y2="6.47"/>
  </g>
  <g stroke="#9EF01A" stroke-width="1" fill="none" stroke-linecap="round">
    <line x1="230.40" y1="0.00" x2="244.80" y2="0.00"/>
    <line x1="244.80" y1="0.00" x2="244.80" y2="36.00"/>
    <line x1="244.80" y1="36.00" x2="230.40" y2="36.00"/>
    <line x1="230.40" y1="36.00" x2="230.40" y2="0.00"/>
    <line x1="230.40" y1="36.00" x2="231.51" y2="33.21"/>
    <line x1="231.51" y1="2.79" x2="243.69" y2="2.79"/>
    <line x1="243.69" y1="2.79" x2="243.69" y2="33.21"/>
    <line x1="243.69" y1="33.21" x2="231.51" y2="33.21"/>
    <line x1="231.51" y1="33.21" x2="231.51" y2="2.79"/>
    <line x1="231.51" y1="33.21" x2="232.63" y2="30.43"/>
    <line x1="232.63" y1="5.57" x2="242.57" y2="5.57"/>
    <line x1="242.57" y1="5.57" x2="242.57" y2="30.43"/>
    <line x1="242.57" y1="30.43" x2="232.63" y2="30.43"/>
    <line x1="232.63" y1="30.43" x2="232.63" y2="5.57"/>
    <line x1="232.63" y1="30.43" x2="233.74" y2="27.64"/>
    <line x1="233.74" y1="8.36" x2="241.46" y2="8.36"/>
    <line x1="241.46" y1="8.36" x2="241.46" y2="27.64"/>
    <line x1="241.46" y1="27.64" x2="233.74" y2="27.64"/>
    <line x1="233.74" y1="27.64" x2="233.74" y2="8.36"/>
    <line x1="233.74" y1="27.64" x2="234.86" y2="24.86"/>
    <line x1="234.86" y1="11.14" x2="240.34" y2="11.14"/>
    <line x1="240.34" y1="11.14" x2="240.34" y2="24.86"/>
    <line x1="240.34" y1="24.86" x2="234.86" y2="24.86"/>
    <line x1="234.86" y1="24.86" x2="234.86" y2="11.14"/>
    <line x1="234.86" y1="24.86" x2="235.97" y2="22.07"/>
    <line x1="235.97" y1="13.93" x2="239.23" y2="13.93"/>
    <line x1="239.23" y1="13.93" x2="239.23" y2="22.07"/>
    <line x1="239.23" y1="22.07" x2="235.97" y2="22.07"/>
    <line x1="235.97" y1="22.07" x2="235.97" y2="13.93"/>
  </g>
  <g stroke="#90BE6D" stroke-width="1" fill="none" stroke-linecap="round">
    <line x1="244.80" y1="0.00" x2="259.20" y2="0.00"/>
    <line x1="259.20" y1="0.00" x2="259.20" y2="36.00"/>
    <line x1="259.20" y1="36.00" x2="244.80" y2="36.00"/>
    <line x1="244.80" y1="36.00" x2="244.80" y2="0.00"/>
    <line x1="244.80" y1="36.00" x2="245.91" y2="33.21"/>
    <line x1="245.91" y1="2.79" x2="258.09" y2="2.79"/>
    <line x1="258.09" y1="2.79" x2="258.09" y2="33.21"/>
    <line x1="258.09" y1="33.21" x2="245.91" y2="33.21"/>
    <line x1="245.91" y1="33.21" x2="245.91" y2="2.79"/>
    <line x1="245.91" y1="33.21" x2="247.03" y2="30.43"/>
    <line x1="247.03" y1="5.57" x2="256.97" y2="5.57"/>
    <line x1="256.97" y1="5.57" x2="256.97" y2="30.43"/>
    <line x1="256.97" y1="30.43" x2="247.03" y2="30.43"/>
    <line x1="247.03" y1="30.43" x2="247.03" y2="5.57"/>
    <line x1="247.03" y1="30.43" x2="248.14" y2="27.64"/>
    <line x1="248.14" y1="8.36" x2="255.86" y2="8.36"/>
    <line x1="255.86" y1="8.36" x2="255.86" y2="27.64"/>
    <line x1="255.86" y1="27.64" x2="248.14" y2="27.64"/>
    <line x1="248.14" y1="27.64" x2="248.14" y2="8.36"/>
    <line x1="248.14" y1="27.64" x2="249.26" y2="24.86"/>
    <line x1="249.26" y1="11.14" x2="254.74" y2="11.14"/>
    <line x1="254.74" y1="11.14" x2="254.74" y2="24.86"/>
    <line x1="254.74" y1="24.86" x2="249.26" y2="24.86"/>
    <line x1="249.26" y1="24.86" x2="249.26" y2="11.14"/>
    <line x1="249.26" y1="24.86" x2="250.37" y2="22.07"/>
    <line x1="250.37" y1="13.93" x2="253.63" y2="13.93"/>
    <line x1="253.63" y1="13.93" x2="253.63" y2="22.07"/>
    <line x1="253.63" y1="22.07" x2="250.37" y2="22.07"/>
    <line x1="250.37" y1="22.07" x2="250.37" y2="13.93"/>
  </g>
  <g stroke="#00BBF9" stroke-width="1" fill="none" stroke-linecap="round">
    <line x1="267.08" y1="3.53" x2="273.60" y2="8.44"/>
    <line x1="259.20" y1="11.00" x2="260.00" y2="11.61"/>
    <line x1="271.82" y1="10.81" x2="260.98" y2="25.19"/>
    <line x1="272.80" y1="24.39" x2="273.60" y2="25.00"/>
    <line x1="259.20" y1="27.56" x2="265.72" y2="32.47"/>
  </g>
  <g stroke="#118AB2" stroke-width="1" fill="none" stroke-linecap="round">
    <line x1="286.47" y1="0.00" x2="288.00" y2="7.87"/>
    <line x1="283.41" y1="0.00" x2="288.00" y2="23.60"/>
    <line x1="280.36" y1="0.00" x2="287.35" y2="36.00"/>
    <line x1="277.30" y1="0.00" x2="284.30" y2="36.00"/>
    <line x1="274.25" y1="-0.00" x2="281.24" y2="36.00"/>
    <line x1="273.60" y1="12.40" x2="278.19" y2="36.00"/>
    <line x1="273.60" y1="28.13" x2="275.13" y2="36.00"/>
  </g>
  <g stroke="#FFCA3A" stroke-width="1" fill="none" stroke-linecap="round">
    <line x1="302.40" y1="29.10" x2="298.39" y2="19.66"/>
    <line x1="291.73" y1="36.00" x2="295.27" y2="34.50"/>
    <line x1="288.00" y1="21.06" x2="302.40" y2="14.94"/>
    <line x1="295.13" y1="1.50" x2="298.67" y2="0.00"/>
    <line x1="292.01" y1="16.34" x2="288.00" y2="6.90"/>
  </g>
  <g stroke="#FFD166" stroke-width="1" fill="none" stroke-linecap="round">
    <line x1="314.36" y1="-0.00" x2="316.80" y2="34.95"/>
    <line x1="311.35" y1="-0.00" x2="313.87" y2="36.00"/>
    <line x1="308.34" y1="0.00" x2="310.86" y2="36.00"/>
    <line x1="305.33" y1="0.00" x2="307.85" y2="36.00"/>
    <line x1="302.40" y1="1.05" x2="304.84" y2="36.00"/>
  </g>
  <g stroke="#FEE440" stroke-width="1" fill="none" stroke-linecap="round">
    <line x1="331.20" y1="29.65" x2="330.87" y2="36.00"/>
    <line x1="326.75" y1="0.00" x2="324.86" y2="36.00"/>
    <line x1="324.94" y1="-0.00" x2="323.06" y2="36.00"/>
    <line x1="323.14" y1="-0.00" x2="321.25" y2="36.00"/>
    <line x1="317.13" y1="0.00" x2="316.80" y2="6.35"/>
  </g>
  <g stroke="#3A86FF" stroke-width="1" fill="none" stroke-linecap="round">
    <line x1="344.50" y1="31.70" x2="344.31" y2="36.00"/>
    <line x1="337.05" y1="36.00" x2="336.28" y2="35.36"/>
    <line x1="343.28" y1="28.96" x2="342.98" y2="35.66"/>
    <line x1="339.16" y1="36.00" x2="335.06" y2="32.62"/>
    <line x1="332.32" y1="33.84" x2="332.22" y2="36.00"/>
    <line x1="345.60" y1="25.66" x2="344.80" y2="25.00"/>
    <line x1="342.06" y1="26.22" x2="341.76" y2="32.92"/>
    <line x1="339.02" y1="34.14" x2="333.84" y2="29.88"/>
    <line x1="345.60" y1="23.92" x2="343.58" y2="22.26"/>
    <line x1="340.84" y1="23.48" x2="340.54" y2="30.18"/>
    <line x1="337.80" y1="31.40" x2="332.62" y2="27.14"/>
    <line x1="345.60" y1="22.18" x2="342.36" y2="19.52"/>
    <line x1="339.62" y1="20.74" x2="339.32" y2="27.44"/>
    <line x1="336.58" y1="28.66" x2="331.40" y2="24.40"/>
    <line x1="345.60" y1="20.45" x2="341.14" y2="16.78"/>
    <line x1="338.40" y1="18.00" x2="338.10" y2="24.70"/>
    <line x1="335.36" y1="25.92" x2="331.20" y2="22.50"/>
    <line x1="345.10" y1="18.30" x2="339.92" y2="14.04"/>
    <line x1="337.18" y1="15.26" x2="336.88" y2="21.96"/>
    <line x1="334.14" y1="23.18" x2="331.20" y2="20.76"/>
    <line x1="343.88" y1="15.56" x2="338.70" y2="11.30"/>
    <line x1="335.96" y1="12.52" x2="335.66" y2="19.22"/>
    <line x1="332.92" y1="20.44" x2="331.20" y2="19.03"/>
    <line x1="345.60" y1="7.17" x2="345.40" y2="11.60"/>
    <line x1="342.66" y1="12.82" x2="337.48" y2="8.56"/>
    <line x1="334.74" y1="9.78" x2="334.44" y2="16.48"/>
    <line x1="331.70" y1="17.70" x2="331.20" y2="17.29"/>
    <line x1="344.48" y1="2.16" x2="344.18" y2="8.86"/>
    <line x1="341.44" y1="10.08" x2="336.26" y2="5.82"/>
    <line x1="333.52" y1="7.04" x2="333.22" y2="13.74"/>
    <line x1="343.24" y1="0.00" x2="342.96" y2="6.12"/>
    <line x1="340.22" y1="7.34" x2="335.04" y2="3.08"/>
    <line x1="332.30" y1="4.30" x2="332.00" y2="11.00"/>
    <line x1="341.89" y1="0.00" x2="341.74" y2="3.38"/>
    <line x1="339.00" y1="4.60" x2="333.82" y2="0.34"/>
    <line x1="340.55" y1="0.00" x2="340.52" y2="0.64"/>
    <line x1="337.78" y1="1.86" x2="335.52" y2="0.00"/>
  </g>
  <g stroke="#9EF01A" stroke-width="1" fill="none" stroke-linecap="round">
    <line x1="353.90" y1="0.00" x2="360.00" y2="0.75"/>
    <line x1="345.60" y1="2.00" x2="360.00" y2="3.77"/>
    <line x1="345.60" y1="5.03" x2="360.00" y2="6.79"/>
    <line x1="345.60" y1="8.05" x2="360.00" y2="9.82"/>
    <line x1="345.60" y1="11.07" x2="360.00" y2="12.84"/>
    <line x1="345.60" y1="14.09" x2="360.00" y2="15.86"/>
    <line x1="345.60" y1="17.12" x2="360.00" y2="18.88"/>
    <line x1="345.60" y1="20.14" x2="360.00" y2="21.91"/>
    <line x1="345.60" y1="23.16" x2="360.00" y2="24.93"/>
    <line x1="345.60" y1="26.18" x2="360.00" y2="27.95"/>
    <line x1="345.60" y1="29.21" x2="360.00" y2="30.97"/>
    <line x1="345.60" y1="32.23" x2="360.00" y2="34.00"/>
    <line x1="345.60" y1="35.25" x2="351.70" y2="36.00"/>
    <line x1="360.00" y1="33.21" x2="359.66" y2="36.00"/>
    <line x1="360.00" y1="8.59" x2="356.63" y2="36.00"/>
    <line x1="358.03" y1="0.00" x2="353.61" y2="36.00"/>
    <line x1="355.01" y1="-0.00" x2="350.59" y2="36.00"/>
    <line x1="351.99" y1="0.00" x2="347.57" y2="36.00"/>
    <line x1="348.97" y1="0.00" x2="345.60" y2="27.41"/>
    <line x1="345.94" y1="0.00" x2="345.60" y2="2.79"/>
  </g>
  <g stroke="#118AB2" stroke-width="1" fill="none" stroke-linecap="round">
    <line x1="360.00" y1="0.00" x2="374.40" y2="0.00"/>
    <line x1="374.40" y1="0.00" x2="374.40" y2="36.00"/>
    <line x1="374.40" y1="36.00" x2="360.00" y2="36.00"/>
    <line x1="360.00" y1="36.00" x2="360.00" y2="0.00"/>
    <line x1="360.00" y1="36.00" x2="361.11" y2="33.21"/>
    <line x1="361.11" y1="2.79" x2="373.29" y2="2.79"/>
    <line x1="373.29" y1="2.79" x2="373.29" y2="33.21"/>
    <line x1="373.29" y1="33.21" x2="361.11" y2="33.21"/>
    <line x1="361.11" y1="33.21" x2="361.11" y2="2.79"/>
    <line x1="361.11" y1="33.21" x2="362.23" y2="30.43"/>
    <line x1="362.23" y1="5.57" x2="372.17" y2="5.57"/>
    <line x1="372.17" y1="5.57" x2="372.17" y2="30.43"/>
    <line x1="372.17" y1="30.43" x2="362.23" y2="30.43"/>
    <line x1="362.23" y1="30.43" x2="362.23" y2="5.57"/>
    <line x1="362.23" y1="30.43" x2="363.34" y2="27.64"/>
    <line x1="363.34" y1="8.36" x2="371.06" y2="8.36"/>
    <line x1="371.06" y1="8.36" x2="371.06" y2="27.64"/>
    <line x1="371.06" y1="27.64" x2="363.34" y2="27.64"/>
    <line x1="363.34" y1="27.64" x2="363.34" y2="8.36"/>
    <line x1="363.34" y1="27.64" x2="364.46" y2="24.86"/>
    <line x1="364.46" y1="11.14" x2="369.94" y2="11.14"/>
    <line x1="369.94" y1="11.14" x2="369.94" y2="24.86"/>
    <line x1="369.94" y1="24.86" x2="364.46" y2="24.86"/>
    <line x1="364.46" y1="24.86" x2="364.46" y2="11.14"/>
    <line x1="364.46" y1="24.86" x2="365.57" y2="22.07"/>
    <line x1="365.57" y1="13.93" x2="368.83" y2="13.93"/>
    <line x1="368.83" y1="13.93" x2="368.83" y2="22.07"/>
    <line x1="368.83" y1="22.07" x2="365.57" y2="22.07"/>
    <line x1="365.57" y1="22.07" x2="365.57" y2="13.93"/>
  </g>
  <g stroke="#F15BB5" stroke-width="1" fill="none" stroke-linecap="round">
    <line x1="388.80" y1="33.30" x2="387.82" y2="36.00"/>
    <line x1="388.80" y1="24.53" x2="384.63" y2="36.00"/>
    <line x1="388.80" y1="15.76" x2="381.43" y2="36.00"/>
    <line x1="388.80" y1="6.99" x2="378.24" y2="36.00"/>
    <line x1="388.15" y1="0.00" x2="375.05" y2="36.00"/>
    <line x1="384.96" y1="0.00" x2="374.40" y2="29.01"/>
    <line x1="381.77" y1="0.00" x2="374.40" y2="20.24"/>
    <line x1="378.57" y1="0.00" x2="374.40" y2="11.47"/>
    <line x1="375.38" y1="0.00" x2="374.40" y2="2.70"/>
  </g>
  <g stroke="#EF476F" stroke-width="1" fill="none" stroke-linecap="round">
    <line x1="403.20" y1="34.63" x2="400.82" y2="36.00"/>
    <line x1="403.20" y1="31.16" x2="394.82" y2="36.00"/>
    <line x1="403.20" y1="27.70" x2="388.82" y2="36.00"/>
    <line x1="403.20" y1="24.24" x2="388.80" y2="32.55"/>
    <line x1="403.20" y1="20.77" x2="388.80" y2="29.09"/>
    <line x1="403.20" y1="17.31" x2="388.80" y2="25.62"/>
    <line x1="403.20" y1="13.84" x2="388.80" y2="22.16"/>
    <line x1="403.20" y1="10.38" x2="388.80" y2="18.69"/>
    <line x1="403.20" y1="6.91" x2="388.80" y2="15.23"/>
    <line x1="403.20" y1="3.45" x2="388.80" y2="11.76"/>
    <line x1="403.18" y1="0.00" x2="388.80" y2="8.30"/>
    <line x1="397.18" y1="0.00" x2="388.80" y2="4.84"/>
    <line x1="391.18" y1="0.00" x2="388.80" y2="1.37"/>
  </g>
  <g stroke="#9B5DE5" stroke-width="1" fill="none" stroke-linecap="round">
    <line x1="416.40" y1="0.00" x2="416.40" y2="36.00"/>
    <line x1="413.40" y1="0.00" x2="413.40" y2="36.00"/>
    <line x1="410.40" y1="0.00" x2="410.40" y2="36.00"/>
    <line x1="407.40" y1="0.00" x2="407.40" y2="36.00"/>
    <line x1="404.40" y1="0.00" x2="404.40" y2="36.00"/>
  </g>
  <g stroke="#9B5DE5" stroke-width="1" fill="none" stroke-linecap="round">
    <line x1="431.47" y1="36.00" x2="430.88" y2="35.21"/>
    <line x1="427.93" y1="35.73" x2="427.84" y2="36.00"/>
    <line x1="432.00" y1="34.46" x2="430.36" y2="32.25"/>
    <line x1="427.40" y1="32.77" x2="426.44" y2="36.00"/>
    <line x1="419.78" y1="36.00" x2="418.54" y2="34.33"/>
    <line x1="432.00" y1="32.21" x2="429.84" y2="29.30"/>
    <line x1="426.88" y1="29.82" x2="425.04" y2="36.00"/>
    <line x1="421.45" y1="36.00" x2="418.02" y2="31.38"/>
    <line x1="432.00" y1="29.96" x2="429.32" y2="26.34"/>
    <line x1="426.36" y1="26.86" x2="424.45" y2="33.29"/>
    <line x1="421.50" y1="33.81" x2="417.60" y2="28.56"/>
    <line x1="432.00" y1="27.71" x2="428.80" y2="23.39"/>
    <line x1="425.84" y1="23.91" x2="423.93" y2="30.34"/>
    <line x1="420.97" y1="30.86" x2="417.60" y2="26.31"/>
    <line x1="432.00" y1="25.46" x2="428.28" y2="20.43"/>
    <line x1="425.32" y1="20.95" x2="423.41" y2="27.38"/>
    <line x1="420.45" y1="27.91" x2="417.60" y2="24.06"/>
    <line x1="431.75" y1="22.87" x2="427.75" y2="17.48"/>
    <line x1="424.80" y1="18.00" x2="422.89" y2="24.43"/>
    <line x1="419.93" y1="24.95" x2="417.60" y2="21.81"/>
    <line x1="431.23" y1="19.91" x2="427.23" y2="14.52"/>
    <line x1="424.28" y1="15.05" x2="422.37" y2="21.48"/>
    <line x1="419.41" y1="22.00" x2="417.60" y2="19.55"/>
    <line x1="430.71" y1="16.96" x2="426.71" y2="11.57"/>
    <line x1="423.76" y1="12.09" x2="421.85" y2="18.52"/>
    <line x1="418.89" y1="19.04" x2="417.60" y2="17.30"/>
    <line x1="430.19" y1="14.00" x2="426.19" y2="8.62"/>
    <line x1="423.24" y1="9.14" x2="421.32" y2="15.57"/>
    <line x1="418.37" y1="16.09" x2="417.60" y2="15.05"/>
    <line x1="429.67" y1="11.05" x2="425.67" y2="5.66"/>
    <line x1="422.72" y1="6.18" x2="420.80" y2="12.61"/>
    <line x1="417.85" y1="13.13" x2="417.60" y2="12.80"/>
    <line x1="429.15" y1="8.09" x2="425.15" y2="2.71"/>
    <line x1="422.20" y1="3.23" x2="420.28" y2="9.66"/>
    <line x1="432.00" y1="3.21" x2="431.58" y2="4.62"/>
    <line x1="428.63" y1="5.14" x2="424.81" y2="0.00"/>
    <line x1="421.67" y1="0.27" x2="419.76" y2="6.70"/>
    <line x1="431.55" y1="0.00" x2="431.06" y2="1.67"/>
    <line x1="428.10" y1="2.19" x2="426.48" y2="0.00"/>
    <line x1="420.36" y1="0.00" x2="419.24" y2="3.75"/>
    <line x1="418.96" y1="0.00" x2="418.72" y2="0.79"/>
  </g>
  <g stroke="#118AB2" stroke-width="1" fill="none" stroke-linecap="round">
    <line x1="446.40" y1="34.53" x2="442.37" y2="36.00"/>
    <line x1="446.40" y1="31.34" x2="433.60" y2="36.00"/>
    <line x1="446.40" y1="28.15" x2="432.00" y2="33.39"/>
    <line x1="446.40" y1="24.96" x2="432.00" y2="30.20"/>
    <line x1="446.40" y1="21.76" x2="432.00" y2="27.01"/>
    <line x1="446.40" y1="18.57" x2="432.00" y2="23.81"/>
    <line x1="446.40" y1="15.38" x2="432.00" y2="20.62"/>
    <line x1="446.40" y1="12.19" x2="432.00" y2="17.43"/>
    <line x1="446.40" y1="8.99" x2="432.00" y2="14.24"/>
    <line x1="446.40" y1="5.80" x2="432.00" y2="11.04"/>
    <line x1="446.40" y1="2.61" x2="432.00" y2="7.85"/>
    <line x1="444.80" y1="-0.00" x2="432.00" y2="4.66"/>
    <line x1="436.03" y1="0.00" x2="432.00" y2="1.47"/>
    <line x1="432.98" y1="36.00" x2="432.00" y2="33.30"/>
    <line x1="436.17" y1="36.00" x2="432.00" y2="24.53"/>
    <line x1="439.37" y1="36.00" x2="432.00" y2="15.76"/>
    <line x1="442.56" y1="36.00" x2="432.00" y2="6.99"/>
    <line x1="445.75" y1="36.00" x2="432.65" y2="0.00"/>
    <line x1="446.40" y1="29.01" x2="435.84" y2="0.00"/>
    <line x1="446.40" y1="20.24" x2="439.03" y2="0.00"/>
    <line x1="446.40" y1="11.47" x2="442.23" y2="0.00"/>
    <line x1="446.40" y1="2.70" x2="445.42" y2="0.00"/>
  </g>
  <g stroke="#E9C46A" stroke-width="1" fill="none" stroke-linecap="round">
    <line x1="460.80" y1="34.52" x2="456.94" y2="36.00"/>
    <line x1="460.80" y1="31.30" x2="448.56" y2="36.00"/>
    <line x1="460.80" y1="28.09" x2="446.40" y2="33.62"/>
    <line x1="460.80" y1="24.88" x2="446.40" y2="30.40"/>
    <line x1="460.80" y1="21.66" x2="446.40" y2="27.19"/>
    <line x1="460.80" y1="18.45" x2="446.40" y2="23.98"/>
    <line x1="460.80" y1="15.24" x2="446.40" y2="20.76"/>
    <line x1="460.80" y1="12.02" x2="446.40" y2="17.55"/>
    <line x1="460.80" y1="8.81" x2="446.40" y2="14.34"/>
    <line x1="460.80" y1="5.60" x2="446.40" y2="11.12"/>
    <line x1="460.80" y1="2.38" x2="446.40" y2="7.91"/>
    <line x1="458.64" y1="0.00" x2="446.40" y2="4.70"/>
    <line x1="450.26" y1="0.00" x2="446.40" y2="1.48"/>
  </g>
  <g stroke="#2A9D8F" stroke-width="1" fill="none" stroke-linecap="round">
    <line x1="474.68" y1="0.00" x2="475.20" y2="0.86"/>
    <line x1="471.18" y1="0.00" x2="475.20" y2="6.68"/>
    <line x1="467.68" y1="0.00" x2="475.20" y2="12.51"/>
    <line x1="464.18" y1="0.00" x2="475.20" y2="18.33"/>
    <line x1="460.80" y1="0.19" x2="475.20" y2="24.16"/>
    <line x1="460.80" y1="6.02" x2="475.20" y2="29.98"/>
    <line x1="460.80" y1="11.84" x2="475.20" y2="35.81"/>
    <line x1="460.80" y1="17.67" x2="471.82" y2="36.00"/>
    <line x1="460.80" y1="23.49" x2="468.32" y2="36.00"/>
    <line x1="460.80" y1="29.32" x2="464.82" y2="36.00"/>
    <line x1="460.80" y1="35.14" x2="461.32" y2="36.00"/>
  </g>
  <g stroke="#2A9D8F" stroke-width="1" fill="none" stroke-linecap="round">
    <line x1="482.70" y1="1.03" x2="485.98" y2="0.00"/>
    <line x1="489.60" y1="5.66" x2="488.95" y2="7.51"/>
    <line x1="478.79" y1="0.00" x2="478.45" y2="0.96"/>
    <line x1="480.54" y1="3.12" x2="486.94" y2="1.11"/>
    <line x1="489.02" y1="3.26" x2="486.79" y2="9.59"/>
    <line x1="488.87" y1="11.75" x2="489.60" y2="11.52"/>
    <line x1="477.37" y1="0.00" x2="476.30" y2="3.04"/>
    <line x1="478.38" y1="5.20" x2="484.78" y2="3.19"/>
    <line x1="486.86" y1="5.35" x2="484.63" y2="11.67"/>
    <line x1="486.72" y1="13.83" x2="489.60" y2="12.93"/>
    <line x1="475.95" y1="0.00" x2="475.20" y2="2.12"/>
    <line x1="476.22" y1="7.28" x2="482.62" y2="5.27"/>
    <line x1="484.71" y1="7.43" x2="482.47" y2="13.76"/>
    <line x1="484.56" y1="15.92" x2="489.60" y2="14.33"/>
    <line x1="475.20" y1="9.01" x2="480.46" y2="7.36"/>
    <line x1="482.55" y1="9.52" x2="480.32" y2="15.84"/>
    <line x1="482.40" y1="18.00" x2="488.80" y2="15.99"/>
    <line x1="489.60" y1="21.79" x2="488.65" y2="24.47"/>
    <line x1="475.20" y1="10.42" x2="478.31" y2="9.44"/>
    <line x1="480.39" y1="11.60" x2="478.16" y2="17.93"/>
    <line x1="480.24" y1="20.08" x2="486.64" y2="18.07"/>
    <line x1="488.73" y1="20.23" x2="486.49" y2="26.56"/>
    <line x1="488.58" y1="28.72" x2="489.60" y2="28.40"/>
    <line x1="475.20" y1="11.82" x2="476.15" y2="11.53"/>
    <line x1="478.23" y1="13.68" x2="476.00" y2="20.01"/>
    <line x1="478.08" y1="22.17" x2="484.48" y2="20.16"/>
    <line x1="486.57" y1="22.32" x2="484.34" y2="28.64"/>
    <line x1="486.42" y1="30.80" x2="489.60" y2="29.80"/>
    <line x1="476.07" y1="15.77" x2="475.20" y2="18.25"/>
    <line x1="475.93" y1="24.25" x2="482.33" y2="22.24"/>
    <line x1="484.41" y1="24.40" x2="482.18" y2="30.73"/>
    <line x1="484.26" y1="32.88" x2="489.60" y2="31.21"/>
    <line x1="475.20" y1="25.89" x2="480.17" y2="24.33"/>
    <line x1="482.25" y1="26.48" x2="480.02" y2="32.81"/>
    <line x1="482.10" y1="34.97" x2="488.50" y2="32.96"/>
    <line x1="475.20" y1="27.29" x2="478.01" y2="26.41"/>
    <line x1="480.09" y1="28.57" x2="477.86" y2="34.89"/>
    <line x1="483.30" y1="36.00" x2="486.35" y2="35.04"/>
    <line x1="475.20" y1="28.70" x2="475.85" y2="28.49"/>
    <line x1="477.94" y1="30.65" x2="476.05" y2="36.00"/>
    <line x1="475.78" y1="32.74" x2="475.20" y2="34.37"/>
  </g>
  <g stroke="#FFCA3A" stroke-width="1" fill="none" stroke-linecap="round">
    <line x1="493.26" y1="0.00" x2="504.00" y2="6.71"/>
    <line x1="489.60" y1="4.79" x2="504.00" y2="13.79"/>
    <line x1="489.60" y1="11.87" x2="504.00" y2="20.86"/>
    <line x1="489.60" y1="18.94" x2="504.00" y2="27.94"/>
    <line x1="489.60" y1="26.02" x2="504.00" y2="35.01"/>
    <line x1="489.60" y1="33.09" x2="494.26" y2="36.00"/>
    <line x1="492.26" y1="0.00" x2="489.60" y2="4.26"/>
    <line x1="499.34" y1="-0.00" x2="489.60" y2="15.58"/>
    <line x1="504.00" y1="3.86" x2="489.60" y2="26.91"/>
    <line x1="504.00" y1="15.18" x2="490.99" y2="36.00"/>
    <line x1="504.00" y1="26.51" x2="498.07" y2="36.00"/>
  </g>
  <g stroke="#FEE440" stroke-width="1" fill="none" stroke-linecap="round">
    <line x1="515.40" y1="0.00" x2="518.40" y2="10.46"/>
    <line x1="512.28" y1="0.00" x2="518.40" y2="21.34"/>
    <line x1="509.16" y1="0.00" x2="518.40" y2="32.23"/>
    <line x1="506.04" y1="-0.00" x2="516.36" y2="36.00"/>
    <line x1="504.00" y1="3.77" x2="513.24" y2="36.00"/>
    <line x1="504.00" y1="14.66" x2="510.12" y2="36.00"/>
    <line x1="504.00" y1="25.54" x2="507.00" y2="36.00"/>
    <line x1="518.40" y1="34.66" x2="513.73" y2="36.00"/>
    <line x1="518.40" y1="31.54" x2="504.00" y2="35.67"/>
    <line x1="518.40" y1="28.42" x2="504.00" y2="32.55"/>
    <line x1="518.40" y1="25.30" x2="504.00" y2="29.43"/>
    <line x1="518.40" y1="22.18" x2="504.00" y2="26.31"/>
    <line x1="518.40" y1="19.06" x2="504.00" y2="23.19"/>
    <line x1="518.40" y1="15.94" x2="504.00" y2="20.06"/>
    <line x1="518.40" y1="12.81" x2="504.00" y2="16.94"/>
    <line x1="518.40" y1="9.69" x2="504.00" y2="13.82"/>
    <line x1="518.40" y1="6.57" x2="504.00" y2="10.70"/>
    <line x1="518.40" y1="3.45" x2="504.00" y2="7.58"/>
    <line x1="518.40" y1="0.33" x2="504.00" y2="4.46"/>
    <line x1="508.67" y1="0.00" x2="504.00" y2="1.34"/>
  </g>
  <g stroke="#E9C46A" stroke-width="1" fill="none" stroke-linecap="round">
    <line x1="521.78" y1="-0.00" x2="532.80" y2="1.35"/>
    <line x1="518.40" y1="5.63" x2="532.80" y2="7.40"/>
    <line x1="518.40" y1="7.44" x2="532.80" y2="9.21"/>
    <line x1="518.40" y1="9.26" x2="532.80" y2="11.03"/>
    <line x1="518.40" y1="15.30" x2="532.80" y2="17.07"/>
    <line x1="518.40" y1="17.12" x2="532.80" y2="18.88"/>
    <line x1="518.40" y1="18.93" x2="532.80" y2="20.70"/>
    <line x1="518.40" y1="24.97" x2="532.80" y2="26.74"/>
    <line x1="518.40" y1="26.79" x2="532.80" y2="28.56"/>
    <line x1="518.40" y1="28.60" x2="532.80" y2="30.37"/>
    <line x1="518.40" y1="34.65" x2="529.42" y2="36.00"/>
  </g>
  <g stroke="#00F5D4" stroke-width="1" fill="none" stroke-linecap="round">
    <line x1="547.20" y1="35.44" x2="540.79" y2="36.00"/>
    <line x1="547.20" y1="32.43" x2="532.80" y2="33.69"/>
    <line x1="547.20" y1="29.42" x2="532.80" y2="30.68"/>
    <line x1="547.20" y1="26.40" x2="532.80" y2="27.66"/>
    <line x1="547.20" y1="23.39" x2="532.80" y2="24.65"/>
    <line x1="547.20" y1="20.38" x2="532.80" y2="21.64"/>
    <line x1="547.20" y1="17.37" x2="532.80" y2="18.63"/>
    <line x1="547.20" y1="14.36" x2="532.80" y2="15.62"/>
    <line x1="547.20" y1="11.35" x2="532.80" y2="12.61"/>
    <line x1="547.20" y1="8.34" x2="532.80" y2="9.60"/>
    <line x1="547.20" y1="5.32" x2="532.80" y2="6.58"/>
    <line x1="547.20" y1="2.31" x2="532.80" y2="3.57"/>
    <line x1="539.21" y1="0.00" x2="532.80" y2="0.56"/>
    <line x1="535.55" y1="36.00" x2="532.80" y2="4.55"/>
    <line x1="538.56" y1="36.00" x2="535.41" y2="0.00"/>
    <line x1="541.57" y1="36.00" x2="538.43" y2="0.00"/>
    <line x1="544.59" y1="36.00" x2="541.44" y2="0.00"/>
    <line x1="547.20" y1="31.45" x2="544.45" y2="0.00"/>
  </g>
  <g stroke="#F4A261" stroke-width="1" fill="none" stroke-linecap="round">
    <line x1="561.60" y1="33.61" x2="559.86" y2="36.00"/>
    <line x1="561.60" y1="28.51" x2="556.16" y2="36.00"/>
    <line x1="561.60" y1="23.40" x2="552.45" y2="36.00"/>
    <line x1="561.60" y1="18.30" x2="548.74" y2="36.00"/>
    <line x1="561.60" y1="13.19" x2="547.20" y2="33.01"/>
    <line x1="561.60" y1="8.09" x2="547.20" y2="27.91"/>
    <line x1="561.60" y1="2.99" x2="547.20" y2="22.81"/>
    <line x1="560.06" y1="-0.00" x2="547.20" y2="17.70"/>
    <line x1="556.35" y1="-0.00" x2="547.20" y2="12.60"/>
    <line x1="552.64" y1="0.00" x2="547.20" y2="7.49"/>
    <line x1="548.94" y1="0.00" x2="547.20" y2="2.39"/>
  </g>
  <g stroke="#9B5DE5" stroke-width="1" fill="none" stroke-linecap="round">
    <line x1="571.49" y1="0.00" x2="576.00" y2="1.38"/>
    <line x1="561.60" y1="0.11" x2="576.00" y2="4.52"/>
    <line x1="561.60" y1="3.25" x2="576.00" y2="7.65"/>
    <line x1="561.60" y1="6.39" x2="576.00" y2="10.79"/>
    <line x1="561.60" y1="9.52" x2="576.00" y2="13.93"/>
    <line x1="561.60" y1="12.66" x2="576.00" y2="17.06"/>
    <line x1="561.60" y1="15.80" x2="576.00" y2="20.20"/>
    <line x1="561.60" y1="18.94" x2="576.00" y2="23.34"/>
    <line x1="561.60" y1="22.07" x2="576.00" y2="26.48"/>
    <line x1="561.60" y1="25.21" x2="576.00" y2="29.61"/>
    <line x1="561.60" y1="28.35" x2="576.00" y2="32.75"/>
    <line x1="561.60" y1="31.48" x2="576.00" y2="35.89"/>
    <line x1="561.60" y1="34.62" x2="566.11" y2="36.00"/>
  </g>
  <g stroke="#FEE440" stroke-width="1" fill="none" stroke-linecap="round">
    <line x1="576.00" y1="0.00" x2="590.40" y2="0.00"/>
    <line x1="590.40" y1="0.00" x2="590.40" y2="36.00"/>
    <line x1="590.40" y1="36.00" x2="576.00" y2="36.00"/>
    <line x1="576.00" y1="36.00" x2="576.00" y2="0.00"/>
    <line x1="576.00" y1="36.00" x2="577.11" y2="33.21"/>
    <line x1="577.11" y1="2.79" x2="589.29" y2="2.79"/>
    <line x1="589.29" y1="2.79" x2="589.29" y2="33.21"/>
    <line x1="589.29" y1="33.21" x2="577.11" y2="33.21"/>
    <line x1="577.11" y1="33.21" x2="577.11" y2="2.79"/>
    <line x1="577.11" y1="33.21" x2="578.23" y2="30.43"/>
    <line x1="578.23" y1="5.57" x2="588.17" y2="5.57"/>
    <line x1="588.17" y1="5.57" x2="588.17" y2="30.43"/>
    <line x1="588.17" y1="30.43" x2="578.23" y2="30.43"/>
    <line x1="578.23" y1="30.43" x2="578.23" y2="5.57"/>
    <line x1="578.23" y1="30.43" x2="579.34" y2="27.64"/>
    <line x1="579.34" y1="8.36" x2="587.06" y2="8.36"/>
    <line x1="587.06" y1="8.36" x2="587.06" y2="27.64"/>
    <line x1="587.06" y1="27.64" x2="579.34" y2="27.64"/>
    <line x1="579.34" y1="27.64" x2="579.34" y2="8.36"/>
    <line x1="579.34" y1="27.64" x2="580.46" y2="24.86"/>
    <line x1="580.46" y1="11.14" x2="585.94" y2="11.14"/>
    <line x1="585.94" y1="11.14" x2="585.94" y2="24.86"/>
    <line x1="585.94" y1="24.86" x2="580.46" y2="24.86"/>
    <line x1="580.46" y1="24.86" x2="580.46" y2="11.14"/>
    <line x1="580.46" y1="24.86" x2="581.57" y2="22.07"/>
    <line x1="581.57" y1="13.93" x2="584.83" y2="13.93"/>
    <line x1="584.83" y1="13.93" x2="584.83" y2="22.07"/>
    <line x1="584.83" y1="22.07" x2="581.57" y2="22.07"/>
    <line x1="581.57" y1="22.07" x2="581.57" y2="13.93"/>
  </g>
  <g stroke="#FF595E" stroke-width="1" fill="none" stroke-linecap="round">
    <line x1="604.80" y1="25.54" x2="601.80" y2="36.00"/>
    <line x1="604.80" y1="14.66" x2="598.68" y2="36.00"/>
    <line x1="604.80" y1="3.77" x2="595.56" y2="36.00"/>
    <line x1="602.76" y1="-0.00" x2="592.44" y2="36.00"/>
    <line x1="599.64" y1="-0.00" x2="590.40" y2="32.23"/>
    <line x1="596.52" y1="-0.00" x2="590.40" y2="21.34"/>
    <line x1="593.40" y1="-0.00" x2="590.40" y2="10.46"/>
  </g>
  <g stroke="#FEE440" stroke-width="1" fill="none" stroke-linecap="round">
    <line x1="616.46" y1="0.00" x2="619.20" y2="6.14"/>
    <line x1="614.49" y1="0.00" x2="619.20" y2="10.57"/>
    <line x1="612.52" y1="0.00" x2="619.20" y2="14.99"/>
    <line x1="605.96" y1="-0.00" x2="619.20" y2="29.75"/>
    <line x1="604.80" y1="1.83" x2="619.20" y2="34.17"/>
    <line x1="604.80" y1="6.25" x2="618.04" y2="36.00"/>
    <line x1="604.80" y1="21.01" x2="611.48" y2="36.00"/>
    <line x1="604.80" y1="25.43" x2="609.51" y2="36.00"/>
    <line x1="604.80" y1="29.86" x2="607.54" y2="36.00"/>
  </g>
  <g stroke="#F15BB5" stroke-width="1" fill="none" stroke-linecap="round">
    <line x1="633.60" y1="32.27" x2="630.12" y2="36.00"/>
    <line x1="633.60" y1="27.87" x2="626.02" y2="36.00"/>
    <line x1="633.60" y1="23.48" x2="621.92" y2="36.00"/>
    <line x1="633.60" y1="19.08" x2="619.20" y2="34.52"/>
    <line x1="633.60" y1="14.68" x2="619.20" y2="30.12"/>
    <line x1="633.60" y1="10.28" x2="619.20" y2="25.72"/>
    <line x1="633.60" y1="5.88" x2="619.20" y2="21.32"/>
    <line x1="633.60" y1="1.48" x2="619.20" y2="16.92"/>
    <line x1="630.88" y1="0.00" x2="619.20" y2="12.52"/>
    <line x1="626.78" y1="0.00" x2="619.20" y2="8.13"/>
    <line x1="622.68" y1="0.00" x2="619.20" y2="3.73"/>
  </g>
  <g stroke="#FB5607" stroke-width="1" fill="none" stroke-linecap="round">
    <line x1="648.00" y1="29.49" x2="633.60" y2="35.60"/>
    <line x1="648.00" y1="22.97" x2="633.60" y2="29.08"/>
    <line x1="648.00" y1="16.45" x2="633.60" y2="22.56"/>
    <line x1="648.00" y1="9.93" x2="633.60" y2="16.04"/>
    <line x1="648.00" y1="3.41" x2="633.60" y2="9.53"/>
    <line x1="640.69" y1="0.00" x2="633.60" y2="3.01"/>
    <line x1="648.00" y1="0.70" x2="647.70" y2="0.00"/>
    <line x1="648.00" y1="16.06" x2="641.18" y2="-0.00"/>
    <line x1="648.00" y1="31.41" x2="634.67" y2="0.00"/>
    <line x1="643.43" y1="36.00" x2="633.60" y2="12.84"/>
    <line x1="636.91" y1="36.00" x2="633.60" y2="28.20"/>
  </g>
  <g stroke="#EF476F" stroke-width="1" fill="none" stroke-linecap="round">
    <line x1="662.40" y1="31.49" x2="659.47" y2="36.00"/>
    <line x1="662.40" y1="20.48" x2="652.32" y2="36.00"/>
    <line x1="662.40" y1="9.46" x2="648.00" y2="31.63"/>
    <line x1="661.39" y1="0.00" x2="648.00" y2="20.62"/>
    <line x1="654.23" y1="0.00" x2="648.00" y2="9.60"/>
    <line x1="662.40" y1="6.71" x2="652.06" y2="-0.00"/>
    <line x1="662.40" y1="13.87" x2="648.00" y2="4.52"/>
    <line x1="662.40" y1="21.02" x2="648.00" y2="11.67"/>
    <line x1="662.40" y1="28.18" x2="648.00" y2="18.83"/>
    <line x1="662.40" y1="35.33" x2="648.00" y2="25.98"/>
    <line x1="652.41" y1="36.00" x2="648.00" y2="33.13"/>
  </g>
  <g stroke="#06D6A0" stroke-width="1" fill="none" stroke-linecap="round">
    <line x1="676.80" y1="30.69" x2="672.80" y2="36.00"/>
    <line x1="676.80" y1="20.72" x2="665.29" y2="36.00"/>
    <line x1="676.80" y1="10.75" x2="662.40" y2="29.86"/>
    <line x1="676.80" y1="0.78" x2="662.40" y2="19.89"/>
    <line x1="669.87" y1="0.00" x2="662.40" y2="9.92"/>
    <line x1="676.80" y1="6.66" x2="667.96" y2="0.00"/>
    <line x1="676.80" y1="14.18" x2="662.40" y2="3.33"/>
    <line x1="676.80" y1="21.69" x2="662.40" y2="10.84"/>
    <line x1="676.80" y1="29.20" x2="662.40" y2="18.35"/>
    <line x1="675.85" y1="36.00" x2="662.40" y2="25.86"/>
    <line x1="665.88" y1="36.00" x2="662.40" y2="33.38"/>
  </g>
  <g stroke="#1982C4" stroke-width="1" fill="none" stroke-linecap="round">
    <line x1="688.01" y1="0.00" x2="691.20" y2="4.74"/>
    <line x1="680.77" y1="0.00" x2="691.20" y2="15.47"/>
    <line x1="676.80" y1="4.85" x2="691.20" y2="26.19"/>
    <line x1="676.80" y1="15.58" x2="690.58" y2="36.00"/>
    <line x1="676.80" y1="26.31" x2="683.34" y2="36.00"/>
    <line x1="686.75" y1="-0.00" x2="676.80" y2="6.71"/>
    <line x1="691.20" y1="4.23" x2="676.80" y2="13.95"/>
    <line x1="691.20" y1="11.47" x2="676.80" y2="21.18"/>
    <line x1="691.20" y1="18.71" x2="676.80" y2="28.42"/>
    <line x1="691.20" y1="25.95" x2="676.80" y2="35.66"/>
    <line x1="691.20" y1="33.18" x2="687.02" y2="36.00"/>
  </g>
  <g stroke="#073B4C" stroke-width="1" fill="none" stroke-linecap="round">
    <line x1="705.60" y1="34.89" x2="704.11" y2="34.54"/>
    <line x1="705.60" y1="33.51" x2="701.81" y2="32.61"/>
    <line x1="699.88" y1="34.91" x2="700.35" y2="36.00"/>
    <line x1="705.29" y1="23.79" x2="705.60" y2="24.49"/>
    <line x1="705.60" y1="32.13" x2="699.51" y2="30.68"/>
    <line x1="697.58" y1="32.98" x2="698.89" y2="36.00"/>
    <line x1="705.60" y1="19.72" x2="704.92" y2="19.56"/>
    <line x1="703.00" y1="21.86" x2="705.60" y2="27.86"/>
    <line x1="703.74" y1="30.31" x2="697.21" y2="28.75"/>
    <line x1="695.28" y1="31.05" x2="697.43" y2="36.00"/>
    <line x1="705.60" y1="18.34" x2="702.63" y2="17.63"/>
    <line x1="700.70" y1="19.93" x2="703.37" y2="26.08"/>
    <line x1="701.44" y1="28.38" x2="694.91" y2="26.82"/>
    <line x1="692.98" y1="29.12" x2="695.65" y2="35.28"/>
    <line x1="705.60" y1="16.96" x2="700.33" y2="15.70"/>
    <line x1="698.40" y1="18.00" x2="701.07" y2="24.15"/>
    <line x1="699.14" y1="26.45" x2="692.61" y2="24.89"/>
    <line x1="691.20" y1="28.38" x2="693.35" y2="33.35"/>
    <line x1="691.43" y1="35.65" x2="691.20" y2="35.59"/>
    <line x1="703.82" y1="6.88" x2="705.60" y2="11.00"/>
    <line x1="704.55" y1="15.33" x2="698.03" y2="13.77"/>
    <line x1="696.10" y1="16.07" x2="698.77" y2="22.23"/>
    <line x1="696.84" y1="24.52" x2="691.20" y2="23.18"/>
    <line x1="705.60" y1="3.17" x2="703.45" y2="2.65"/>
    <line x1="701.52" y1="4.95" x2="704.19" y2="11.11"/>
    <line x1="702.26" y1="13.40" x2="695.73" y2="11.85"/>
    <line x1="693.80" y1="14.14" x2="696.47" y2="20.30"/>
    <line x1="694.54" y1="22.60" x2="691.20" y2="21.80"/>
    <line x1="705.60" y1="1.79" x2="701.15" y2="0.72"/>
    <line x1="699.22" y1="3.02" x2="701.89" y2="9.18"/>
    <line x1="699.96" y1="11.48" x2="693.43" y2="9.92"/>
    <line x1="691.51" y1="12.21" x2="694.17" y2="18.37"/>
    <line x1="692.25" y1="20.67" x2="691.20" y2="20.42"/>
    <line x1="705.37" y1="0.35" x2="703.89" y2="0.00"/>
    <line x1="696.92" y1="1.09" x2="699.59" y2="7.25"/>
    <line x1="697.66" y1="9.55" x2="691.20" y2="8.00"/>
    <line x1="691.20" y1="14.88" x2="691.88" y2="16.44"/>
    <line x1="694.98" y1="0.00" x2="697.29" y2="5.32"/>
    <line x1="695.36" y1="7.62" x2="691.20" y2="6.62"/>
    <line x1="693.52" y1="0.00" x2="694.99" y2="3.39"/>
    <line x1="693.06" y1="5.69" x2="691.20" y2="5.24"/>
    <line x1="692.06" y1="0.00" x2="692.69" y2="1.46"/>
  </g>
  <g stroke="#FB5607" stroke-width="1" fill="none" stroke-linecap="round">
    <line x1="716.79" y1="0.00" x2="720.00" y2="1.50"/>
    <line x1="709.69" y1="0.00" x2="720.00" y2="4.81"/>
    <line x1="705.60" y1="1.40" x2="720.00" y2="8.12"/>
    <line x1="705.60" y1="4.71" x2="720.00" y2="11.43"/>
    <line x1="705.60" y1="8.02" x2="720.00" y2="14.74"/>
    <line x1="705.60" y1="11.33" x2="720.00" y2="18.05"/>
    <line x1="705.60" y1="14.64" x2="720.00" y2="21.36"/>
    <line x1="705.60" y1="17.95" x2="720.00" y2="24.67"/>
    <line x1="705.60" y1="21.26" x2="720.00" y2="27.98"/>
    <line x1="705.60" y1="24.57" x2="720.00" y2="31.29"/>
    <line x1="705.60" y1="27.88" x2="720.00" y2="34.60"/>
    <line x1="705.60" y1="31.19" x2="715.91" y2="36.00"/>
    <line x1="705.60" y1="34.50" x2="708.81" y2="36.00"/>
  </g>
  <g stroke="#FF595E" stroke-width="1" fill="none" stroke-linecap="round">
    <line x1="734.40" y1="1.05" x2="731.96" y2="36.00"/>
    <line x1="731.47" y1="0.00" x2="728.95" y2="36.00"/>
    <line x1="728.46" y1="0.00" x2="725.94" y2="36.00"/>
    <line x1="725.45" y1="0.00" x2="722.93" y2="36.00"/>
    <line x1="722.44" y1="-0.00" x2="720.00" y2="34.95"/>
  </g>
  <g stroke="#2A9D8F" stroke-width="1" fill="none" stroke-linecap="round">
    <line x1="735.54" y1="0.00" x2="734.66" y2="10.05"/>
    <line x1="748.80" y1="18.63" x2="734.40" y2="17.37"/>
    <line x1="748.54" y1="25.95" x2="747.66" y2="36.00"/>
  </g>
  <g stroke="#3A86FF" stroke-width="1" fill="none" stroke-linecap="round">
    <line x1="748.80" y1="0.00" x2="763.20" y2="0.00"/>
    <line x1="763.20" y1="0.00" x2="763.20" y2="36.00"/>
    <line x1="763.20" y1="36.00" x2="748.80" y2="36.00"/>
    <line x1="748.80" y1="36.00" x2="748.80" y2="0.00"/>
    <line x1="748.80" y1="36.00" x2="749.91" y2="33.21"/>
    <line x1="749.91" y1="2.79" x2="762.09" y2="2.79"/>
    <line x1="762.09" y1="2.79" x2="762.09" y2="33.21"/>
    <line x1="762.09" y1="33.21" x2="749.91" y2="33.21"/>
    <line x1="749.91" y1="33.21" x2="749.91" y2="2.79"/>
    <line x1="749.91" y1="33.21" x2="751.03" y2="30.43"/>
    <line x1="751.03" y1="5.57" x2="760.97" y2="5.57"/>
    <line x1="760.97" y1="5.57" x2="760.97" y2="30.43"/>
    <line x1="760.97" y1="30.43" x2="751.03" y2="30.43"/>
    <line x1="751.03" y1="30.43" x2="751.03" y2="5.57"/>
    <line x1="751.03" y1="30.43" x2="752.14" y2="27.64"/>
    <line x1="752.14" y1="8.36" x2="759.86" y2="8.36"/>
    <line x1="759.86" y1="8.36" x2="759.86" y2="27.64"/>
    <line x1="759.86" y1="27.64" x2="752.14" y2="27.64"/>
    <line x1="752.14" y1="27.64" x2="752.14" y2="8.36"/>
    <line x1="752.14" y1="27.64" x2="753.26" y2="24.86"/>
    <line x1="753.26" y1="11.14" x2="758.74" y2="11.14"/>
    <line x1="758.74" y1="11.14" x2="758.74" y2="24.86"/>
    <line x1="758.74" y1="24.86" x2="753.26" y2="24.86"/>
    <line x1="753.26" y1="24.86" x2="753.26" y2="11.14"/>
    <line x1="753.26" y1="24.86" x2="754.37" y2="22.07"/>
    <line x1="754.37" y1="13.93" x2="757.63" y2="13.93"/>
    <line x1="757.63" y1="13.93" x2="757.63" y2="22.07"/>
    <line x1="757.63" y1="22.07" x2="754.37" y2="22.07"/>
    <line x1="754.37" y1="22.07" x2="754.37" y2="13.93"/>
  </g>
  <g stroke="#F72585" stroke-width="1" fill="none" stroke-linecap="round">
    <line x1="770.41" y1="0.00" x2="777.60" y2="6.47"/>
    <line x1="763.20" y1="1.58" x2="777.60" y2="14.54"/>
    <line x1="763.20" y1="9.65" x2="777.60" y2="22.62"/>
    <line x1="763.20" y1="17.73" x2="777.60" y2="30.69"/>
    <line x1="763.20" y1="25.80" x2="774.53" y2="36.00"/>
    <line x1="763.20" y1="33.87" x2="765.56" y2="36.00"/>
    <line x1="768.59" y1="0.00" x2="763.20" y2="5.99"/>
    <line x1="776.67" y1="0.00" x2="763.20" y2="14.96"/>
    <line x1="777.60" y1="7.93" x2="763.20" y2="23.92"/>
    <line x1="777.60" y1="16.90" x2="763.20" y2="32.89"/>
    <line x1="777.60" y1="25.87" x2="768.47" y2="36.00"/>
    <line x1="777.60" y1="34.83" x2="776.55" y2="36.00"/>
  </g>
  <g stroke="#073B4C" stroke-width="1" fill="none" stroke-linecap="round">
    <line x1="791.12" y1="0.00" x2="792.00" y2="1.36"/>
    <line x1="778.51" y1="10.97" x2="792.00" y2="2.20"/>
    <line x1="779.90" y1="10.45" x2="789.70" y2="25.55"/>
    <line x1="777.60" y1="33.80" x2="791.09" y2="25.03"/>
    <line x1="777.60" y1="34.64" x2="778.48" y2="36.00"/>
  </g>
  <g stroke="#6A4C93" stroke-width="1" fill="none" stroke-linecap="round">
    <line x1="803.69" y1="0.00" x2="806.40" y2="1.44"/>
    <line x1="797.30" y1="0.00" x2="806.40" y2="4.84"/>
    <line x1="792.00" y1="0.58" x2="806.40" y2="8.24"/>
    <line x1="792.00" y1="3.98" x2="806.40" y2="11.64"/>
    <line x1="792.00" y1="7.38" x2="806.40" y2="15.03"/>
    <line x1="792.00" y1="10.77" x2="806.40" y2="18.43"/>
    <line x1="792.00" y1="14.17" x2="806.40" y2="21.83"/>
    <line x1="792.00" y1="17.57" x2="806.40" y2="25.23"/>
    <line x1="792.00" y1="20.97" x2="806.40" y2="28.62"/>
    <line x1="792.00" y1="24.36" x2="806.40" y2="32.02"/>
    <line x1="792.00" y1="27.76" x2="806.40" y2="35.42"/>
    <line x1="792.00" y1="31.16" x2="801.10" y2="36.00"/>
    <line x1="792.00" y1="34.56" x2="794.71" y2="36.00"/>
  </g>
  <g stroke="#264653" stroke-width="1" fill="none" stroke-linecap="round">
    <line x1="820.80" y1="32.27" x2="817.32" y2="36.00"/>
    <line x1="820.80" y1="27.87" x2="813.22" y2="36.00"/>
    <line x1="820.80" y1="23.48" x2="809.12" y2="36.00"/>
    <line x1="820.80" y1="19.08" x2="806.40" y2="34.52"/>
    <line x1="820.80" y1="14.68" x2="806.40" y2="30.12"/>
    <line x1="820.80" y1="10.28" x2="806.40" y2="25.72"/>
    <line x1="820.80" y1="5.88" x2="806.40" y2="21.32"/>
    <line x1="820.80" y1="1.48" x2="806.40" y2="16.92"/>
    <line x1="818.08" y1="0.00" x2="806.40" y2="12.52"/>
    <line x1="813.98" y1="0.00" x2="806.40" y2="8.13"/>
    <line x1="809.88" y1="0.00" x2="806.40" y2="3.73"/>
  </g>
  <g stroke="#6A4C93" stroke-width="1" fill="none" stroke-linecap="round">
    <line x1="826.28" y1="36.00" x2="834.03" y2="22.01"/>
    <line x1="820.80" y1="14.01" x2="835.20" y2="21.99"/>
    <line x1="821.97" y1="13.99" x2="829.72" y2="0.00"/>
  </g>
  <g stroke="#2A9D8F" stroke-width="1" fill="none" stroke-linecap="round">
    <line x1="835.20" y1="0.00" x2="849.60" y2="0.00"/>
    <line x1="849.60" y1="0.00" x2="849.60" y2="36.00"/>
    <line x1="849.60" y1="36.00" x2="835.20" y2="36.00"/>
    <line x1="835.20" y1="36.00" x2="835.20" y2="0.00"/>
    <line x1="835.20" y1="36.00" x2="836.31" y2="33.21"/>
    <line x1="836.31" y1="2.79" x2="848.49" y2="2.79"/>
    <line x1="848.49" y1="2.79" x2="848.49" y2="33.21"/>
    <line x1="848.49" y1="33.21" x2="836.31" y2="33.21"/>
    <line x1="836.31" y1="33.21" x2="836.31" y2="2.79"/>
    <line x1="836.31" y1="33.21" x2="837.43" y2="30.43"/>
    <line x1="837.43" y1="5.57" x2="847.37" y2="5.57"/>
    <line x1="847.37" y1="5.57" x2="847.37" y2="30.43"/>
    <line x1="847.37" y1="30.43" x2="837.43" y2="30.43"/>
    <line x1="837.43" y1="30.43" x2="837.43" y2="5.57"/>
    <line x1="837.43" y1="30.43" x2="838.54" y2="27.64"/>
    <line x1="838.54" y1="8.36" x2="846.26" y2="8.36"/>
    <line x1="846.26" y1="8.36" x2="846.26" y2="27.64"/>
    <line x1="846.26" y1="27.64" x2="838.54" y2="27.64"/>
    <line x1="838.54" y1="27.64" x2="838.54" y2="8.36"/>
    <line x1="838.54" y1="27.64" x2="839.66" y2="24.86"/>
    <line x1="839.66" y1="11.14" x2="845.14" y2="11.14"/>
    <line x1="845.14" y1="11.14" x2="845.14" y2="24.86"/>
    <line x1="845.14" y1="24.86" x2="839.66" y2="24.86"/>
    <line x1="839.66" y1="24.86" x2="839.66" y2="11.14"/>
    <line x1="839.66" y1="24.86" x2="840.77" y2="22.07"/>
    <line x1="840.77" y1="13.93" x2="844.03" y2="13.93"/>
    <line x1="844.03" y1="13.93" x2="844.03" y2="22.07"/>
    <line x1="844.03" y1="22.07" x2="840.77" y2="22.07"/>
    <line x1="840.77" y1="22.07" x2="840.77" y2="13.93"/>
  </g>
  <g stroke="#FFCA3A" stroke-width="1" fill="none" stroke-linecap="round">
    <line x1="864.00" y1="31.44" x2="863.36" y2="36.00"/>
    <line x1="864.00" y1="9.88" x2="860.33" y2="36.00"/>
    <line x1="862.36" y1="0.00" x2="857.30" y2="36.00"/>
    <line x1="859.33" y1="0.00" x2="854.27" y2="36.00"/>
    <line x1="856.30" y1="0.00" x2="851.24" y2="36.00"/>
    <line x1="853.27" y1="0.00" x2="849.60" y2="26.12"/>
    <line x1="850.24" y1="0.00" x2="849.60" y2="4.56"/>
  </g>
</svg>
